<svg width="481" height="370" viewBox="0 0 481 370" fill="none" xmlns="http://www.w3.org/2000/svg">
<path d="M15 1.5H75.7871L153.59 4.74414L153.647 4.74707L153.704 4.74512L248.183 1.5H431.39L466.674 3.81055C473.848 4.28046 479.396 10.2913 479.29 17.4805L475.856 250.691L475.855 250.729L475.857 250.767L479.056 339.838C479.288 346.309 474.893 352.035 468.581 353.481L432.283 361.803C431.579 361.964 430.862 362.068 430.142 362.115L331.91 368.498L153.707 362.035L153.68 362.034H70.6621L70.6318 362.035L15.5488 364.274C7.8842 364.586 1.5 358.456 1.5 350.785V15C1.5 7.54416 7.54416 1.5 15 1.5Z" fill="#FFAFE4" stroke="#C4DEF8" stroke-width="3"/>
</svg>
