<svg width="286" height="343" viewBox="0 0 286 343" fill="none" xmlns="http://www.w3.org/2000/svg">
<g filter="url(#filter0_d_149_37)">
<path d="M4.15531 26.8083C3.97116 19.3446 9.30402 12.8817 16.6669 11.6454L84.7887 0.207185C85.8544 0.0282439 86.9363 -0.0350098 88.0156 0.0185239L146.695 2.92906L182.88 0.0622715C183.923 -0.0203572 184.972 0.00635177 186.009 0.141963L216.828 4.1708C218.117 4.33928 219.422 4.33953 220.711 4.17153L248.75 0.516891C251.648 0.139196 254.593 0.616168 257.224 1.88921L273.369 9.70301C278.546 12.2085 281.834 17.4535 281.834 23.2049V229.724V310.908C281.834 318.609 276.003 325.058 268.342 325.832L253.192 327.363L194.506 334.795C193.756 334.89 193.001 334.928 192.245 334.91L92.5429 332.413L46.983 334.817C45.4645 334.897 43.9425 334.746 42.4694 334.369L15.2769 327.401C8.56425 325.681 3.90344 319.587 4.00149 312.658L6.62832 127.036L4.15531 26.8083Z" fill="#C4DEF8"/>
<path d="M85.0375 1.68604C85.9965 1.52505 86.9706 1.46892 87.9418 1.51709L146.621 4.42725L146.717 4.43213L146.814 4.42432L182.998 1.55713C183.937 1.48277 184.881 1.50735 185.815 1.62939L216.633 5.65771C218.051 5.84303 219.487 5.84345 220.905 5.65869L248.945 2.00439C251.553 1.66456 254.203 2.09406 256.571 3.23975L272.715 11.0532C277.374 13.3081 280.334 18.0285 280.334 23.2046V310.908C280.334 317.838 275.086 323.643 268.191 324.339L253.041 325.871L253.022 325.873L253.003 325.875L194.317 333.307C193.642 333.393 192.962 333.427 192.283 333.41L92.5804 330.914L92.5219 330.912L92.4642 330.915L46.9037 333.319C45.5372 333.391 44.1677 333.255 42.8422 332.916L15.6488 325.948C9.60767 324.4 5.4131 318.915 5.50134 312.679L8.1283 127.057V126.999L5.65466 26.771C5.48908 20.0538 10.2889 14.2372 16.9154 13.1245L85.0375 1.68604Z" stroke="#392962" stroke-width="3"/>
</g>
<defs>
<filter id="filter0_d_149_37" x="0" y="0" width="285.834" height="342.914" filterUnits="userSpaceOnUse" color-interpolation-filters="sRGB">
<feFlood flood-opacity="0" result="BackgroundImageFix"/>
<feColorMatrix in="SourceAlpha" type="matrix" values="0 0 0 0 0 0 0 0 0 0 0 0 0 0 0 0 0 0 127 0" result="hardAlpha"/>
<feOffset dy="4"/>
<feGaussianBlur stdDeviation="2"/>
<feComposite in2="hardAlpha" operator="out"/>
<feColorMatrix type="matrix" values="0 0 0 0 0 0 0 0 0 0 0 0 0 0 0 0 0 0 0.25 0"/>
<feBlend mode="normal" in2="BackgroundImageFix" result="effect1_dropShadow_149_37"/>
<feBlend mode="normal" in="SourceGraphic" in2="effect1_dropShadow_149_37" result="shape"/>
</filter>
</defs>
</svg>
