<svg width="545" height="354" viewBox="0 0 545 354" fill="none" xmlns="http://www.w3.org/2000/svg">
<path d="M334.868 1.5L412.445 4.44238C412.996 4.4633 413.545 4.51748 414.089 4.60547L414.632 4.70508L459.683 13.8955C463.914 14.7589 467.477 17.5953 469.268 21.5254L496.028 80.2471C496.809 81.96 497.877 83.527 499.187 84.8799L539.665 126.698C542.102 129.216 543.466 132.584 543.466 136.088V242.146C543.466 243.779 543.169 245.4 542.59 246.928L520.013 306.539C518.361 310.899 514.577 314.099 510.003 315.002L418.476 333.076C417.614 333.246 416.739 333.332 415.861 333.332H334.406L334.382 333.333L156.238 339.288L156.155 339.291L156.074 339.303L65.3008 352.358C63.44 352.626 61.5433 352.502 59.7334 351.994L24.2178 342.034C18.9857 340.567 15.1431 336.105 14.4678 330.713L8.82617 285.655L8.82422 285.642L1.62109 232.226C1.52002 231.476 1.48216 230.719 1.50781 229.963L8.44336 25.5986C8.65194 19.4536 12.9863 14.2259 18.9863 12.8828L55.3867 4.73535C56.1407 4.56659 56.9084 4.46236 57.6797 4.4248L117.791 1.5H334.868Z" fill="#FFAFE4" stroke="#C4DEF8" stroke-width="3"/>
</svg>
