<svg width="441" height="365" viewBox="0 0 441 365" fill="none" xmlns="http://www.w3.org/2000/svg">
<path d="M129.969 1.50781L222.976 4.72754L223.043 4.73047L223.11 4.72656L280.952 1.52832C281.609 1.49199 282.268 1.50367 282.924 1.56348L334.049 6.22754C335.045 6.3184 336.047 6.3191 337.043 6.22852L386.265 1.75098C388.138 1.58062 390.026 1.80341 391.808 2.40527L423.634 13.1553C428.982 14.9619 432.642 19.9052 432.808 25.5479L439.5 252.97V285.933C439.5 291.17 436.47 295.935 431.728 298.157L318.398 351.252C317.184 351.821 315.892 352.205 314.564 352.394L236.394 363.47H65.1152C64.3185 363.47 63.5235 363.399 62.7393 363.259L12.624 354.297C6.187 353.146 1.5 347.547 1.5 341.008V28.418C1.50003 21.57 6.62728 15.8068 13.4287 15.0098L127.931 1.5918C128.607 1.51255 129.288 1.48426 129.969 1.50781Z" fill="#FFAFE4" stroke="#C4DEF8" stroke-width="3"/>
</svg>
