<svg width="384" height="365" viewBox="0 0 384 365" fill="none" xmlns="http://www.w3.org/2000/svg">
<path d="M115.241 362.951L197.255 359.742L197.356 359.738L197.458 359.745L248.367 362.927C249.082 362.971 249.799 362.956 250.512 362.883L295.147 358.28C296.305 358.161 297.472 358.161 298.63 358.28L341.091 362.646C343.114 362.853 345.157 362.584 347.057 361.858L373.509 351.761C378.6 349.817 381.938 344.905 381.871 339.456L379.091 113.301V113.26L379.092 113.219L381.669 22.9697C381.838 17.0416 377.974 11.7503 372.275 10.1074L345.919 2.50879C344.748 2.17131 343.536 2.00001 342.317 2H57.9365C57.0718 2.00003 56.2089 2.0865 55.3613 2.25781L12.4248 10.9355C6.36053 12.1612 2.00009 17.4909 2 23.6777V336.752L2.01367 337.36C2.30303 343.612 7.03149 348.81 13.293 349.64L113.026 362.849C113.76 362.946 114.501 362.98 115.241 362.951Z" fill="#FFAFE4" stroke="#C4DEF8" stroke-width="4"/>
</svg>
