<svg width="382" height="543" viewBox="0 0 382 543" fill="none" xmlns="http://www.w3.org/2000/svg">
<path d="M367 541.465H323.333L264.198 536.791C263.409 536.729 262.617 536.723 261.827 536.775L189.76 541.465H51.6055C49.3965 541.465 47.2211 540.923 45.2705 539.887L17.9072 525.346C13.6154 523.065 10.8804 518.654 10.7471 513.795L1.50195 176.656L10.4072 35.3792C10.7262 30.3201 13.8526 25.8656 18.502 23.8459L46.4756 11.6946C47.6633 11.1787 48.9189 10.8362 50.2041 10.678L123.919 1.60083C124.635 1.51262 125.358 1.48274 126.079 1.51001L264.201 6.7356L264.229 6.73657H367C374.456 6.73657 380.5 12.7809 380.5 20.2366V527.965C380.5 535.304 374.643 541.275 367.349 541.46L367 541.465Z" fill="#FFAFE4" stroke="#C4DEF8" stroke-width="3"/>
</svg>
