<svg width="281" height="319" viewBox="0 0 281 319" fill="none" xmlns="http://www.w3.org/2000/svg">
<g filter="url(#filter0_d_147_35)">
<path d="M4.16546 284.965C3.96912 292.488 9.3768 298.991 16.8088 300.171L83.3767 310.738C84.3863 310.898 85.4097 310.955 86.4309 310.907L144.114 308.202L179.705 310.868C180.691 310.942 181.683 310.918 182.665 310.796L213.055 307.041C214.275 306.89 215.509 306.89 216.729 307.04L244.481 310.46C247.236 310.799 250.032 310.367 252.556 309.212L268.063 302.117C273.4 299.676 276.822 294.346 276.822 288.477V97.6546V23.3333C276.822 15.6014 270.945 9.13626 263.248 8.40121L248.695 7.01141L191.024 0.106323C190.315 0.0213928 189.6 -0.0127563 188.886 0.00415039L90.9355 2.32297L46.1136 0.0869446C44.6754 0.0151978 43.2344 0.150909 41.835 0.489899L15.4688 6.87643C8.65783 8.52625 3.89686 14.6722 4.00175 21.6794L6.56611 192.986L4.16546 284.965Z" fill="#C4DEF8"/>
<path d="M83.6115 309.256C84.5201 309.4 85.4415 309.452 86.3605 309.408L144.044 306.703L144.135 306.699L144.226 306.706L179.817 309.372C180.704 309.439 181.597 309.417 182.481 309.308L212.871 305.552C214.213 305.386 215.57 305.386 216.912 305.551L244.664 308.971C247.144 309.276 249.66 308.887 251.932 307.848L267.439 300.753C272.242 298.556 275.322 293.759 275.322 288.477V23.3333C275.322 16.3746 270.033 10.5563 263.106 9.89478L248.553 8.50415L248.534 8.50317L248.517 8.50122L190.846 1.59595C190.207 1.51951 189.564 1.48893 188.921 1.50415L90.9708 3.82251L90.9161 3.82349L90.8605 3.82153L46.0392 1.58521C44.7448 1.52063 43.4472 1.64242 42.1876 1.94751L15.8224 8.33423C9.69264 9.81902 5.4069 15.3502 5.5011 21.6565L8.06555 192.964L8.06653 192.994L8.06555 193.026L5.66516 285.004C5.48846 291.774 10.3553 297.628 17.0441 298.69L83.6115 309.256Z" stroke="#392962" stroke-width="3"/>
</g>
<defs>
<filter id="filter0_d_147_35" x="0" y="0" width="280.822" height="318.923" filterUnits="userSpaceOnUse" color-interpolation-filters="sRGB">
<feFlood flood-opacity="0" result="BackgroundImageFix"/>
<feColorMatrix in="SourceAlpha" type="matrix" values="0 0 0 0 0 0 0 0 0 0 0 0 0 0 0 0 0 0 127 0" result="hardAlpha"/>
<feOffset dy="4"/>
<feGaussianBlur stdDeviation="2"/>
<feComposite in2="hardAlpha" operator="out"/>
<feColorMatrix type="matrix" values="0 0 0 0 0 0 0 0 0 0 0 0 0 0 0 0 0 0 0.25 0"/>
<feBlend mode="normal" in2="BackgroundImageFix" result="effect1_dropShadow_147_35"/>
<feBlend mode="normal" in="SourceGraphic" in2="effect1_dropShadow_147_35" result="shape"/>
</filter>
</defs>
</svg>
