<svg width="310" height="285" viewBox="0 0 310 285" fill="none" xmlns="http://www.w3.org/2000/svg">
<g filter="url(#filter0_d_185_142)">
<path d="M305.558 251.902C305.809 259.633 300.14 266.287 292.467 267.267L217.544 276.843C216.726 276.947 215.901 276.984 215.077 276.953L150.806 274.527L110.989 276.928C110.193 276.976 109.395 276.96 108.601 276.881L73.9923 273.438C73.006 273.34 72.0125 273.339 71.0262 273.437L38.5459 276.66C36.2882 276.884 34.009 276.593 31.88 275.808L13.815 269.154C7.91776 266.981 4 261.363 4 255.078V86.9975V22.5472C4 14.7089 10.0349 8.19223 17.8501 7.59134L35.1151 6.26382L100.091 0L209.633 2.08795L259.863 0.0703735C261.027 0.0236206 262.193 0.11264 263.336 0.335663L293.64 6.24567C300.787 7.63968 305.901 13.9661 305.766 21.2471L302.965 171.907L305.558 251.902Z" fill="#C4DEF8"/>
<path d="M215.134 275.454L150.862 273.028L150.789 273.025L150.715 273.029L110.898 275.431C110.182 275.474 109.464 275.46 108.75 275.389L74.1406 271.945C73.0558 271.837 71.9628 271.837 70.8779 271.944L38.3975 275.167C36.3656 275.369 34.3144 275.106 32.3984 274.4L14.333 267.746C9.02572 265.791 5.5 260.734 5.5 255.078V22.5469C5.50015 15.4927 10.9314 9.62781 17.9648 9.08691L35.2305 7.75977L35.2441 7.75781L35.2588 7.75684L100.147 1.50195L209.604 3.58789L209.649 3.58887L209.693 3.58691L259.923 1.56934C260.97 1.52726 262.02 1.60695 263.049 1.80762L293.353 7.71777C299.785 8.97239 304.388 14.6668 304.267 21.2197L301.465 171.879V171.917L301.466 171.956L304.059 251.951C304.284 258.909 299.182 264.897 292.277 265.779L217.354 275.355C216.618 275.45 215.875 275.482 215.134 275.454Z" stroke="#392962" stroke-width="3"/>
</g>
<defs>
<filter id="filter0_d_185_142" x="0" y="0" width="309.769" height="284.964" filterUnits="userSpaceOnUse" color-interpolation-filters="sRGB">
<feFlood flood-opacity="0" result="BackgroundImageFix"/>
<feColorMatrix in="SourceAlpha" type="matrix" values="0 0 0 0 0 0 0 0 0 0 0 0 0 0 0 0 0 0 127 0" result="hardAlpha"/>
<feOffset dy="4"/>
<feGaussianBlur stdDeviation="2"/>
<feComposite in2="hardAlpha" operator="out"/>
<feColorMatrix type="matrix" values="0 0 0 0 0 0 0 0 0 0 0 0 0 0 0 0 0 0 0.25 0"/>
<feBlend mode="normal" in2="BackgroundImageFix" result="effect1_dropShadow_185_142"/>
<feBlend mode="normal" in="SourceGraphic" in2="effect1_dropShadow_185_142" result="shape"/>
</filter>
</defs>
</svg>
