<svg width="1119" height="172" viewBox="0 0 1119 172" fill="none" xmlns="http://www.w3.org/2000/svg">
<path d="M10.0029 170.884H271.069L554.982 163.864H555.02L1094.14 170.778C1098.49 170.834 1102.25 167.775 1103.09 163.51L1110.89 123.717L1117.15 75.8218V36.0796C1117.15 34.7778 1116.87 33.4911 1116.33 32.3091L1104.3 6.24268C1102.8 2.9957 1099.52 0.942941 1095.95 1.01416L838.173 6.14893L838.163 6.1499H554.998L10.412 1.00049C4.71209 0.946693 0.398248 6.13822 1.49506 11.7319L14.4687 77.8931C14.7251 79.201 14.7415 80.545 14.5175 81.8589L1.1308 160.372C0.193758 165.867 4.42781 170.884 10.0029 170.884Z" fill="#E5348B" stroke="#131C40" stroke-width="2"/>
</svg>
