<svg width="362" height="398" viewBox="0 0 362 398" fill="none" xmlns="http://www.w3.org/2000/svg">
<path d="M361 373.09L361 350.76L361 336.463C361 330.207 361 321.799 361 316.026L361 311.498C361 296.237 358.153 281.522 358.153 266.26V161.465V68.8786V41.9167C358.153 36.3878 358.153 24.8728 356.562 20.1323C356.562 14.2067 346.851 3.53381 344.914 2.94806C341.699 1.97601 333.014 1.21945 329.791 1.21945H137.774H37.9997C31.2524 1.21945 23.4473 0.314331 17.2758 2.18036C12.7993 3.53384 5.71024 7.39178 3.60217 12.4112C2.91382 14.0503 3.38858 16.7422 3.38858 18.5158C3.38858 21.607 2.71338 21.0381 1.57257 23.1508C0.349915 25.4151 1.4657 31.6436 1.4657 34.2859V57.1782V240.824V286.609V309.501C1.4657 315.187 1.4657 319.341 2.37375 326.345V336.533C2.37375 343.661 4.35001 349.142 4.35001 356.096C4.35001 359.941 3.43726 369.71 4.35001 373.09C5.6066 377.745 6.9921 389.886 13.2034 393.445C20.6105 397 33.555 396.407 40.7656 396.407C48.1365 396.407 51.371 394.965 58.7419 394.965H67.0092H75.4951H87.0322H130.296H220.67C252.753 394.965 285.225 395.983 316.812 395.983C324.079 395.983 331.448 397 338.444 397C341.79 397 345.505 395.154 348.539 394.965C351.667 394.77 354.408 390.438 356.167 386.922C359.469 380.322 361 380.849 361 373.09Z" fill="#374A9A" stroke="black" stroke-width="2" stroke-linecap="round"/>
<path opacity="0.72" d="M324.6 77.9125C321.077 77.8408 319.009 79.4572 318.395 82.7617C318.1 84.3204 317.769 85.8791 317.42 87.4258C316.831 90.0535 315.428 90.6626 313.16 89.1517C310.836 87.605 308.532 86.0165 306.347 84.2846C305.023 83.2335 304.048 83.353 303.085 84.5832C301.978 85.9926 300.997 87.5035 299.811 88.8412C297.085 91.9227 294.654 91.6839 292.445 88.2619C291.374 86.5898 290.128 85.0191 289.159 83.2932C288.094 81.4061 286.848 81.43 285.217 82.4572C282.804 83.974 280.12 84.7564 277.297 84.9952C275.45 85.1505 274.469 84.5951 274.98 82.3915C275.691 79.304 275.907 76.103 276.702 73.0453C277.273 70.8476 276.431 70.5072 274.679 70.8835C272.687 71.3075 270.726 71.4329 268.74 70.8835C267.987 70.6745 267.073 70.7163 266.916 69.6652C266.784 68.7694 267.337 68.1722 267.945 67.6287C269.805 65.9745 271.592 64.2247 273.554 62.6959C275.751 60.976 275.215 59.7099 273.211 58.3782C271.388 57.1659 269.582 55.9117 267.861 54.5621C265.279 52.5376 265.345 51.0267 268.3 49.5098C270.593 48.3333 273.091 47.5092 275.552 46.703C277.303 46.1297 277.677 45.4429 276.768 43.7289C275.751 41.8119 274.998 39.7217 274.355 37.6435C273.506 34.9203 274.463 33.8095 277.315 34.3051C279.765 34.7292 282.178 35.4338 284.555 36.1744C288.268 37.3329 289.334 36.9149 291.308 33.7318C292.457 31.8805 293.871 30.1785 295.274 28.5004C297.013 26.4221 298.271 26.4819 299.637 28.8109C300.834 30.8653 301.857 33.0331 302.796 35.2189C303.874 37.7151 305.402 38.4796 307.918 37.112C310.024 35.9713 312.215 34.98 314.375 33.9289C317.011 32.6449 317.872 33.0212 318.678 35.834C318.871 36.4969 319.063 37.1777 319.13 37.8585C319.533 42.0329 319.521 42.0329 323.643 42.0329C324.943 42.0329 326.249 42.0209 327.549 42.0329C328.674 42.0389 329.866 42.1165 330.42 43.2452C331.051 44.5351 330.636 45.7415 329.703 46.8164C328.728 47.9451 327.892 49.2052 326.857 50.2682C325.515 51.6418 325.978 52.4838 327.471 53.1945C329.36 54.0963 331.31 54.8965 333.11 55.9535C334.452 56.7418 336.059 57.6197 335.998 59.471C335.938 61.2865 334.199 61.6986 332.881 62.3256C331.804 62.8333 330.66 63.2752 329.493 63.52C326.815 64.0814 326.917 65.5027 328.301 67.2047C329.908 69.1815 330.793 71.4807 331.744 73.7799C332.749 76.1985 331.756 77.387 329.39 77.6736C327.808 77.8647 326.195 77.8408 324.594 77.9125H324.6Z" fill="#F7F7FF"/>
</svg>
