<svg width="1920" height="2278" viewBox="0 0 1920 2278" fill="none" xmlns="http://www.w3.org/2000/svg">
<path d="M-2 0H1920V2278H-2V0Z" fill="#7856A8"/>
<path d="M1919.88 595.816C1873 619.351 1825.25 676.968 1811.3 703.583C1811.3 703.583 1806.7 717.202 1806.37 719.686C1801.4 756.847 1799.19 781.574 1801.4 828.404C1802.48 851.643 1804.99 874.883 1803.91 898.123C1801.67 946.097 1790.61 993.411 1756.18 1038.67C1711.7 1097.14 1632.05 1139.27 1522.53 1168.49C1448.79 1188.16 1370.45 1201.56 1291.38 1213.86C1220.24 1224.92 1148.35 1234.73 1077.48 1246.33C945.23 1267.98 819.707 1296.34 711.808 1341.37C633.704 1373.96 569.088 1412.45 516.374 1456.35C454.85 1507.58 418.484 1563.02 401.711 1621.65C386.755 1673.91 389.306 1726.63 395.412 1779.26C397.074 1793.75 396.803 1808.26 399.238 1822.79C405.576 1860.48 406.619 1898.35 403.257 1936.1C399.509 1978.61 383.625 2019.96 343.356 2058.16C305.251 2094.32 249.832 2122.56 184.443 2146.13C136.29 2163.5 83.1904 2176.55 29.5109 2188.93C18.4968 2191.47 6.55518 2193 -5 2195C-5 1804.5 -5 1414 -5 1023.5C5.27986 1011.57 29.4337 1008.08 49.0272 1002.86C125.662 982.412 206.51 966.796 288.981 953.294C354.756 942.527 421.421 933.235 487.815 923.478C538.828 915.97 588.758 906.717 638.303 896.824C683.441 887.803 725.025 875.931 765.41 862.817C827.978 842.487 876.749 815.697 912.574 782.68C949.017 749.081 970.002 712.98 979.895 675.501C986.04 652.281 990.678 628.808 989.673 605.103C988.05 565.374 989.132 525.625 989.325 485.896C991.188 102.812 1909.72 3.97678 1920 0L1919.88 595.816Z" fill="#392962"/>
</svg>
