<svg width="375" height="911" viewBox="0 0 375 911" fill="none" xmlns="http://www.w3.org/2000/svg">
<path d="M0.522461 195.375V247.09C5.10476 252.058 9.68885 260.461 13.4619 268.965C17.2774 277.565 20.2936 286.333 21.6611 291.892L21.666 291.912L21.6689 291.933V291.934C21.669 291.934 21.6697 291.935 21.6699 291.937C21.6704 291.939 21.671 291.944 21.6719 291.949C21.6736 291.96 21.6754 291.976 21.6787 291.997C21.6853 292.039 21.6957 292.1 21.708 292.178C21.7327 292.334 21.768 292.56 21.8105 292.833C21.8957 293.38 22.0097 294.12 22.126 294.892C22.3562 296.42 22.6017 298.12 22.6357 298.663C23.544 313.132 23.978 323.069 23.6748 340.283L23.6045 343.827C23.3933 353.492 22.9047 363.11 23.1152 372.741C23.5513 392.626 25.7014 412.203 32.3838 430.915C41.0066 455.062 56.4397 472.458 77.6768 484.527C91.9962 492.666 107.218 498.216 122.615 503.318C136.444 507.897 150.489 511.985 164.293 516.799C190.089 525.796 214.608 537.594 235.694 556.341C250.477 569.483 262.784 584.925 272.897 602.482L273.869 604.188C285.89 625.514 292.991 648.587 296.266 672.972C299.003 693.351 298.736 713.892 297.711 734.384L297.497 738.481C297.197 744.065 297.22 749.777 296.834 755.431L296.751 756.561C295.518 772.182 295.315 787.878 295.969 803.527C296.697 821.124 299.783 838.215 307.587 853.985C314.969 868.909 325.708 880.575 338.4 890.322C347.739 897.496 358.044 902.897 368.497 908.031H368.498C370.408 908.97 372.428 909.559 374.5 910.289V424.89C373.545 422.585 371.97 421.078 370.144 419.877C369.215 419.266 368.226 418.737 367.22 418.221C366.221 417.708 365.195 417.204 364.229 416.655C349.335 408.19 333.616 401.72 317.566 396.122C306.363 392.215 295.031 388.777 283.702 385.264L278.848 383.752C268.888 380.629 259.144 376.782 249.485 372.673C241.201 369.146 233.537 364.577 226.116 359.526L224.636 358.51C212.375 350.022 202.821 338.838 195.807 325.066V325.065C188.677 311.06 184.574 296.019 182.641 280.418C181.517 271.375 180.651 262.223 180.709 252.979L180.732 251.128C181.048 234.647 180.838 218.161 180.801 201.665C180.62 122.391 135.932 72.5227 90.9854 42.2432C68.5109 27.1026 45.9814 16.8675 28.9424 10.3145C20.4237 7.03828 13.279 4.6826 8.20117 3.09473C5.66179 2.30065 3.64052 1.69911 2.21777 1.26855C1.50819 1.05382 0.942996 0.880123 0.539062 0.74707C0.526066 0.742789 0.513694 0.736637 0.500977 0.732422L0.522461 195.375Z" fill="#FFAFE4" stroke="#131C40"/>
</svg>
