<svg width="1920" height="1080" viewBox="0 0 1920 1080" fill="none" xmlns="http://www.w3.org/2000/svg">
<path d="M0.615234 424.441V536.888C23.9737 547.55 47.501 565.809 66.9307 584.391C86.4396 603.048 101.86 622.072 108.85 634.126L108.87 634.162L108.885 634.201L108.886 634.202V634.203C108.886 634.205 108.888 634.207 108.889 634.21C108.891 634.216 108.894 634.225 108.898 634.236C108.907 634.26 108.92 634.295 108.937 634.34C108.97 634.43 109.02 634.564 109.083 634.734C109.209 635.075 109.39 635.564 109.608 636.157C110.044 637.344 110.629 638.952 111.225 640.629C111.82 642.305 112.427 644.055 112.906 645.527C113.379 646.981 113.744 648.212 113.834 648.822C118.64 681.305 120.855 703.275 118.989 743.04L118.796 746.945C117.714 767.945 115.213 788.835 116.29 809.755C118.522 852.932 129.521 895.478 163.777 936.18C208.039 988.772 287.352 1026.73 396.56 1053.06C470.079 1070.79 548.191 1082.88 627.054 1093.97C698.001 1103.93 769.717 1112.79 840.408 1123.25C972.324 1142.77 1097.56 1168.35 1205.23 1208.96C1283.17 1238.36 1347.66 1273.08 1400.28 1312.7C1461.71 1358.94 1498.05 1409.01 1514.82 1461.98C1529.31 1507.74 1527.36 1553.86 1521.68 1599.86L1521.12 1604.31C1520.3 1610.83 1519.95 1617.34 1519.51 1623.89C1519.06 1630.44 1518.52 1637.01 1517.3 1643.59V1643.59C1510.99 1677.52 1509.95 1711.62 1513.3 1745.61V1745.61C1517.03 1783.81 1532.81 1820.98 1572.87 1855.33H1572.88C1610.21 1887.36 1664.29 1912.52 1728.16 1933.56L1731.2 1934.56C1779.2 1950.2 1832.14 1961.97 1885.68 1973.13C1896.47 1975.38 1908.13 1976.75 1919.5 1978.51V923.028C1914.46 917.836 1906.06 914.425 1896.41 911.731C1886.66 909.013 1875.82 907.064 1866 904.7C1789.58 886.27 1708.96 872.192 1626.71 860.02C1561.11 850.313 1494.63 841.935 1428.4 833.137C1380.69 826.79 1333.93 819.059 1287.55 810.767L1278.28 809.102C1233.23 800.964 1191.74 790.255 1151.45 778.428C1089 760.085 1040.29 735.903 1004.49 706.077C968.075 675.728 947.082 643.097 937.183 609.197C931.145 588.572 926.55 567.68 927.368 546.564L927.411 545.56C929.029 509.755 927.951 473.942 927.758 438.104C927.295 352.002 869.856 281.801 783.6 224.854C697.352 167.912 582.396 124.296 467.14 91.3506C351.89 58.4069 236.372 36.1415 149.023 21.8877C105.35 14.761 68.7198 9.63663 42.6875 6.18262C29.6711 4.45558 19.305 3.14602 12.0303 2.21191C8.39374 1.74497 5.5276 1.37167 3.49023 1.08691C2.47201 0.944601 1.65741 0.824063 1.05566 0.724609C0.850682 0.69073 0.66517 0.654827 0.500977 0.624023L0.615234 424.441Z" fill="#FFAFE4" stroke="#131C40"/>
</svg>
