<svg width="161" height="61" viewBox="0 0 161 61" fill="none" xmlns="http://www.w3.org/2000/svg">
<path d="M160.593 43.6428C160.593 51.6221 154.346 58.2048 146.377 58.6222L112.902 60.3759L77.6199 57.8775H57.6675H36.7418L18.5904 60.123C17.2339 60.2908 15.8608 60.2724 14.5093 60.0683L13.1671 59.8657C5.65561 58.7315 0.177887 52.1608 0.413895 44.5678L1.2168 18.7373L1.04303 16.4773C0.451324 8.78207 5.79562 1.8938 13.3966 0.554829L15.2549 0.227474C16.114 0.0761261 16.9848 1.90735e-05 17.8572 1.90735e-05H51.0978L109.495 1.66556L135.614 0.0834084C136.53 0.0279312 137.449 0.0565987 138.359 0.169048L147.431 1.28936C154.947 2.21756 160.593 8.60294 160.593 16.1763V43.6428Z" fill="#C4DEF8"/>
</svg>
