<svg width="565" height="430" viewBox="0 0 565 430" fill="none" xmlns="http://www.w3.org/2000/svg">
<path d="M290.315 425.161L290.356 425.16L290.397 425.162L367.058 428.998L435.514 423.347C436.389 423.274 437.269 423.274 438.144 423.346L504.004 428.768C505.771 428.913 507.55 428.721 509.245 428.203L553.921 414.548C559.884 412.725 563.923 407.179 563.827 400.944L559.72 133.464V133.438L559.721 133.413L563.56 25.7686C563.798 19.067 559.252 13.1374 552.718 11.6289L508.228 1.3584C507.195 1.1201 506.139 1 505.079 1H84.2441C83.4951 1 82.7463 1.06003 82.0068 1.17969L12.7637 12.3848C5.98323 13.482 1.0001 19.3364 1 26.2051V398.714C1.0002 405.874 6.4031 411.881 13.5234 412.636L167.826 428.999L290.315 425.161Z" fill="#FFAFE4" stroke="#C4DEF8" stroke-width="2"/>
</svg>
