<svg width="1440" height="329" viewBox="0 0 1440 329" fill="none" xmlns="http://www.w3.org/2000/svg">
<path d="M8.09011e-06 0H1440V302C1440 316.912 1427.91 329 1413 329H28C12.5361 329 8.09011e-06 316.464 8.09011e-06 301V0Z" fill="#374A9A"/>
<path d="M86.9215 1.04778C81.0881 7.77786 74.8918 14.6203 69.0899 21.3662C65.5521 25.4834 64.1056 29.1572 70.5993 32.1501C76.0553 34.668 81.244 37.7876 86.4484 40.7805C90.4578 43.0766 94.4201 46.4496 93.9641 51.0894C93.4924 56.0301 89.0742 58.8171 84.2471 60.1948C77.9735 61.9842 71.7314 63.9003 65.4421 65.5947C60.9924 66.7982 59.0741 68.2392 62.3131 73.1482C66.4798 79.4666 69.7345 86.4025 73.4138 93.0534C78.7597 102.713 76.3383 107.511 65.8823 107.258C53.6339 106.957 41.3068 108.493 29.1213 105.801C23.7597 104.613 20.0961 106.387 19.4987 112.689C18.7597 120.528 15.8666 128.002 15.8037 135.999C15.7722 140.354 16.1339 145.643 11.8886 148.003C7.18732 150.615 3.64956 146.034 0.0489292 143.611C-0.0611618 98.1501 0.0489289 52.2412 0.0489341 6.23203C0.0489343 4.19172 0.0489107 2.34402 0.0489592 1.04801C0.692429 1.04807 3.04722 1.0478 5.19693 1.0478C32.2239 1.04801 59.2509 1.04778 86.9215 1.04778Z" fill="#FFF4FA"/>
<path d="M72.2769 3.14332C67.5606 9.01424 62.5508 14.9831 57.8599 20.8679C54.9996 24.4595 53.8301 27.6643 59.0803 30.2752C63.4915 32.4716 67.6866 35.1929 71.8944 37.8038C75.1361 39.8068 78.3396 42.7491 77.971 46.7966C77.5896 51.1066 74.0174 53.5378 70.1147 54.7396C65.0424 56.3006 59.9956 57.9721 54.9106 59.4502C51.313 60.5001 49.7621 61.7571 52.3808 66.0394C55.7496 71.5512 58.3811 77.6017 61.3558 83.4035C65.678 91.83 63.7203 96.0157 55.2665 95.7946C45.3636 95.5322 35.397 96.8721 25.5449 94.5238C21.2099 93.4877 18.2479 95.0349 17.7649 100.533C17.1674 107.371 14.8283 113.891 14.7774 120.867C14.752 124.666 15.0444 129.28 11.612 131.338C7.81103 133.617 4.95071 129.621 2.03956 127.507C1.95055 87.8496 2.03956 47.8014 2.03957 7.66575C2.03957 5.88591 2.03955 4.27408 2.03959 3.14352C2.55984 3.14357 4.46371 3.14334 6.20178 3.14334C28.0534 3.14352 49.905 3.14332 72.2769 3.14332Z" fill="#EC609F"/>
<path d="M1428.71 103.402C1415.52 98.0581 1402.33 92.6845 1389.12 87.3708C1385.61 85.9638 1381.65 85.1106 1378.55 87.5055C1375.42 89.9154 1378.62 92.5498 1379.5 94.9896C1383.58 106.276 1392.71 115.301 1397.99 126.049C1399.11 128.324 1400.04 130.689 1401.19 132.949C1403.5 137.424 1401.71 139.131 1396.27 139.685C1384.06 140.897 1371.85 142.259 1359.78 144.16C1354.15 145.043 1345.92 145.088 1345.06 151.076C1344.3 156.374 1352.05 158.185 1356.61 160.984C1359.87 162.99 1363.33 164.771 1366.69 166.642C1375.4 170.609 1384.11 174.546 1391.47 180.383C1395.18 183.332 1396.34 185.592 1392.07 189.349C1388.14 192.807 1384.11 196.145 1380 199.423C1372.11 205.156 1364.28 210.933 1356.32 216.591C1353.08 218.896 1351.6 221.71 1352.93 225.123C1354.27 228.596 1358.1 227.548 1361.06 227.743C1373.89 228.536 1386.73 229.284 1399.58 229.958C1404.91 230.242 1407.01 231.41 1405.31 236.903C1402.12 247.186 1400.2 257.754 1397.96 268.247C1397.35 271.061 1395.96 274.518 1399.66 276.449C1403.05 278.2 1405.38 275.341 1407.89 273.919C1414.81 269.998 1421.74 266.046 1428.64 262.11C1434.01 258.742 1434.15 262.454 1434.67 265.522C1434.91 266.974 1434.7 268.755 1437.11 268.77C1440.16 268.785 1439.66 266.63 1439.76 264.983C1439.87 263.247 1439.8 261.496 1439.8 259.76C1439.8 213.687 1439.57 167.6 1440.01 121.528C1440.09 113.041 1438.99 106.365 1428.69 103.387L1428.71 103.402Z" fill="#FFF4FA"/>
<path d="M1432.16 118.122C1423 113.785 1413.83 109.425 1404.66 105.112C1402.22 103.971 1399.47 103.278 1397.31 105.222C1395.14 107.177 1397.36 109.315 1397.97 111.295C1400.81 120.454 1407.15 127.779 1410.82 136.5C1411.6 138.347 1412.24 140.266 1413.04 142.1C1414.65 145.732 1413.4 147.117 1409.62 147.566C1401.14 148.55 1392.66 149.655 1384.27 151.198C1380.36 151.915 1374.64 151.951 1374.05 156.81C1373.52 161.11 1378.9 162.58 1382.07 164.851C1384.33 166.479 1386.74 167.924 1389.07 169.443C1395.12 172.662 1401.18 175.856 1406.28 180.594C1408.87 182.987 1409.67 184.821 1406.7 187.87C1403.98 190.676 1401.18 193.384 1398.32 196.045C1392.84 200.697 1387.4 205.386 1381.87 209.977C1379.62 211.848 1378.59 214.132 1379.51 216.901C1380.45 219.719 1383.1 218.869 1385.16 219.027C1394.07 219.671 1402.99 220.278 1411.92 220.824C1415.63 221.055 1417.09 222.003 1415.9 226.461C1413.69 234.806 1412.35 243.381 1410.79 251.896C1410.38 254.18 1409.41 256.986 1411.98 258.553C1414.33 259.974 1415.95 257.654 1417.7 256.5C1422.51 253.318 1427.31 250.111 1432.11 246.916C1435.84 244.183 1435.94 247.196 1436.3 249.686C1436.47 250.864 1436.32 252.309 1438 252.322C1440.11 252.334 1439.77 250.585 1439.84 249.248C1439.91 247.839 1439.86 246.418 1439.86 245.009C1439.86 207.621 1439.71 170.22 1440.01 132.832C1440.07 125.945 1439.3 120.527 1432.15 118.11L1432.16 118.122Z" fill="#EC609F"/>
</svg>
