<svg width="390" height="5175" viewBox="0 0 390 5175" fill="none" xmlns="http://www.w3.org/2000/svg">
<rect width="390" height="5175" fill="#FED0ED"/>
<path d="M0 711L389 401V1419L0 1545V711Z" fill="#FFF4FA"/>
<path d="M389.477 342.014V392.294C384.712 397.128 379.947 405.298 376.023 413.567C372.055 421.932 368.917 430.462 367.494 435.87L367.488 435.892L367.484 435.914C367.484 435.915 367.485 435.917 367.484 435.918L367.475 435.977C367.468 436.017 367.457 436.076 367.444 436.152C367.419 436.305 367.382 436.524 367.338 436.79C367.249 437.322 367.131 438.041 367.01 438.792C366.771 440.277 366.514 441.933 366.479 442.464C365.471 457.475 365.024 467.472 365.471 486.393C365.69 495.794 366.199 505.146 365.98 514.511C365.527 533.847 363.29 552.881 356.343 571.074C347.378 594.55 331.332 611.47 309.238 623.212C294.343 631.129 278.51 636.528 262.496 641.49C248.112 645.944 233.509 649.919 219.152 654.601C192.328 663.349 166.831 674.822 144.903 693.052C129.034 706.244 115.908 721.824 105.201 739.589C92.698 760.332 85.3097 782.776 81.9033 806.497C79.0557 826.322 79.3347 846.303 80.4004 866.233L80.623 870.219C80.7909 873.134 80.861 876.051 80.9512 878.984C81.0412 881.914 81.1516 884.856 81.3994 887.803C82.6815 902.993 82.8922 918.256 82.2119 933.475C81.4545 950.584 78.2468 967.199 70.1338 982.531C62.4588 997.042 51.2912 1008.39 38.0889 1017.87C28.3751 1024.85 17.655 1030.1 6.7832 1035.09C4.78372 1036.01 2.66492 1036.59 0.5 1037.3V565.238C1.49112 563.008 3.12537 561.544 5.02734 560.374C5.99402 559.78 7.02365 559.265 8.07031 558.763C9.10951 558.264 10.1756 557.773 11.1797 557.24H11.1807C26.672 549.006 43.0219 542.712 59.7148 537.268C73.0312 532.925 86.5232 529.178 99.9834 525.236C110.34 522.2 120.472 518.459 130.517 514.463C139.703 510.805 148.158 505.994 156.354 500.691C169.103 492.439 179.04 481.562 186.337 468.164C193.754 454.54 198.022 439.907 200.033 424.729C201.279 415.347 202.222 405.842 202.018 396.235C201.689 380.207 201.908 364.174 201.947 348.131C202.135 271.054 248.598 222.558 295.351 193.104C318.726 178.377 342.16 168.422 359.883 162.048C368.743 158.861 376.174 156.571 381.456 155.026C384.098 154.254 386.2 153.668 387.68 153.249C388.417 153.04 389.004 152.872 389.424 152.743C389.45 152.735 389.474 152.725 389.499 152.718L389.477 342.014Z" fill="#FFAFE4" stroke="#131C40"/>
<path d="M389.477 1414.72V1440.92C384.739 1443.48 380.04 1447.81 376.174 1452.19C373.268 1455.48 370.811 1458.83 369.144 1461.51C369.181 1461.31 369.219 1461.11 369.258 1460.9C369.494 1459.66 369.598 1458.87 369.585 1458.46C369.582 1458.36 369.571 1458.23 369.524 1458.11C369.501 1458.05 369.451 1457.95 369.349 1457.87C369.228 1457.77 369.074 1457.72 368.922 1457.75C368.793 1457.77 368.7 1457.83 368.649 1457.87C368.595 1457.91 368.551 1457.95 368.52 1457.99C368.456 1458.07 368.4 1458.16 368.35 1458.25C367.966 1458.92 367.355 1460.64 366.854 1462.3C366.601 1463.15 366.368 1464 366.202 1464.72C366.04 1465.43 365.927 1466.07 365.938 1466.48C365.942 1466.58 365.954 1466.7 365.994 1466.82C366.031 1466.93 366.135 1467.14 366.394 1467.22C366.641 1467.3 366.845 1467.19 366.938 1467.13C367.03 1467.07 367.11 1466.98 367.183 1466.9C365.959 1474.43 365.179 1481.99 365.435 1489.58L365.472 1490.52C365.693 1495.48 366.198 1500.35 365.98 1505.24C365.529 1515.34 363.307 1525.26 356.406 1534.74C347.492 1546.99 331.484 1555.88 309.338 1562.06C294.428 1566.22 278.581 1569.05 262.563 1571.66C248.167 1574 233.58 1576.08 219.223 1578.54C192.415 1583.13 166.938 1589.14 145.023 1598.7C129.16 1605.63 116.024 1613.8 105.301 1623.14C92.7719 1634.05 85.3434 1645.88 81.916 1658.41C78.8602 1669.57 79.3864 1680.82 80.625 1691.98V1691.98C80.7915 1693.5 80.8616 1695.02 80.9521 1696.56C81.0423 1698.1 81.1534 1699.66 81.4043 1701.23V1701.23C82.6014 1708.67 82.8609 1716.15 82.3301 1723.62L82.2139 1725.11C81.4632 1734.01 78.2882 1742.66 70.2236 1750.66C62.5769 1758.24 51.4255 1764.2 38.2041 1769.18C28.4803 1772.85 17.7495 1775.61 6.875 1778.23C4.84433 1778.72 2.67656 1779.03 0.5 1779.41V1532.01C1.45779 1530.94 3.02983 1530.19 4.91895 1529.58C6.64852 1529.02 8.50669 1528.61 10.3105 1528.14L11.0801 1527.93C26.5832 1523.61 42.9446 1520.3 59.6445 1517.44C72.9648 1515.16 86.4627 1513.2 99.9189 1511.13C110.266 1509.54 120.392 1507.57 130.434 1505.48C139.605 1503.56 148.05 1501.04 156.244 1498.26C168.572 1494.07 178.296 1488.58 185.551 1481.83L186.245 1481.17C193.692 1473.99 197.994 1466.26 200.022 1458.22C201.193 1453.6 202.104 1448.89 202.043 1444.12L202.018 1443.17C201.689 1434.77 201.908 1426.37 201.947 1417.94C202.041 1397.86 213.613 1381.47 231.079 1368.13C248.547 1354.79 271.848 1344.56 295.241 1336.83C318.628 1329.09 342.073 1323.86 359.806 1320.52C368.671 1318.84 376.107 1317.64 381.392 1316.83C384.034 1316.42 386.139 1316.12 387.617 1315.9C388.355 1315.79 388.94 1315.7 389.356 1315.63C389.406 1315.62 389.454 1315.61 389.499 1315.61L389.477 1414.72ZM368.092 1461.69C367.94 1462.51 367.791 1463.33 367.646 1464.15C367.458 1464.53 367.288 1464.84 367.141 1465.12C367.153 1465.06 367.164 1465.01 367.177 1464.95C367.337 1464.25 367.562 1463.42 367.812 1462.59C367.903 1462.29 367.997 1461.99 368.092 1461.69Z" fill="#ABDBC5" stroke="#131C40"/>
<path opacity="0.7" d="M24.4756 278.545C24.6964 278.481 24.959 278.476 25.2949 278.595C25.9493 278.827 26.4072 279.304 26.7383 279.938C27.0317 280.499 27.2148 281.164 27.3369 281.838L27.3857 282.127C27.8655 285.195 28.2399 288.27 28.6348 291.357L29.041 294.45C29.2418 295.931 29.4081 297.088 29.6377 297.938C29.8641 298.777 30.1844 299.45 30.792 299.81C31.3965 300.167 32.1465 300.13 33.002 299.938C33.8709 299.742 34.9852 299.351 36.4043 298.844C38.6661 298.036 40.8956 297.091 43.1055 296.227C45.3268 295.357 47.552 294.559 49.8623 294.017C50.8847 293.776 51.855 293.556 52.7402 293.595C53.5943 293.632 54.3417 293.909 54.9541 294.665C56.1383 296.128 55.9498 298.169 55.082 299.875C53.3368 303.292 51.4577 306.653 49.4395 309.92L48.5654 311.314C48.1879 311.909 47.9036 312.441 47.7471 312.911C47.5911 313.38 47.5413 313.854 47.7275 314.286C47.9163 314.724 48.2979 315.006 48.7568 315.196C49.0991 315.338 49.5169 315.443 50.0029 315.522L50.5117 315.595C56.2279 316.298 61.541 317.773 65.582 322.139C66.3054 322.922 66.8173 323.56 67.1318 324.103C67.4461 324.644 67.5335 325.04 67.4893 325.355C67.4459 325.665 67.2614 325.996 66.8184 326.381C66.4828 326.673 66.022 326.975 65.418 327.305L64.7656 327.644C61.0874 329.48 57.3265 331.165 53.543 332.813C53.0301 333.037 52.5612 333.256 52.1934 333.494C51.8322 333.728 51.4955 334.024 51.3447 334.433C51.1839 334.869 51.2748 335.315 51.5137 335.747C51.6886 336.063 51.9567 336.399 52.3125 336.764L52.6973 337.138C55.9917 340.208 57.2558 344.568 58.6367 348.91V348.911C59.1254 350.442 58.9605 351.409 58.4561 352.004C57.931 352.623 56.9042 353.006 55.2852 353.037C52.7031 353.091 50.1595 352.819 47.5977 352.485L45.0273 352.141C44.1487 352.024 43.4029 352.025 42.7988 352.162C42.1869 352.302 41.6919 352.59 41.3799 353.062C41.0725 353.526 40.991 354.095 41.0518 354.703C41.1125 355.31 41.3183 355.999 41.6348 356.749H41.6357C43.3608 360.824 44.6003 364.949 44.374 369.352C44.3519 369.764 44.3913 370.204 44.4229 370.597C44.4557 371.006 44.4812 371.375 44.4531 371.714C44.4254 372.047 44.3477 372.316 44.1992 372.533C44.0725 372.719 43.8719 372.899 43.5342 373.047L43.3809 373.108C41.8381 373.673 40.209 373.267 38.9824 372.195C36.3949 369.923 33.9229 367.495 31.502 365.021C30.3806 363.875 29.513 362.982 28.7881 362.381C28.0692 361.784 27.4002 361.394 26.6719 361.389C25.938 361.383 25.2801 361.769 24.5859 362.362C23.888 362.959 23.0628 363.848 21.998 364.991H21.998C19.1694 368.036 16.4405 371.124 13.498 374.009H13.4971C12.1672 375.314 11.0181 375.668 10.1279 375.43C9.22458 375.187 8.3541 374.275 7.73145 372.503H7.73242C7.2322 371.076 7.01234 369.605 6.88281 368.094C6.818 367.337 6.77599 366.578 6.73145 365.808C6.69815 365.232 6.66319 364.652 6.61621 364.07L6.56543 363.489C6.37449 361.501 5.74776 359.965 4.60645 358.983C3.57228 358.094 2.1899 357.724 0.524414 357.803V289.619C1.71332 289.585 2.81593 289.898 3.91699 290.353C4.54187 290.611 5.15592 290.91 5.78613 291.215C6.25499 291.442 6.73261 291.673 7.21875 291.884L7.70703 292.087C9.12747 292.655 10.3583 292.797 11.4883 292.442C12.6107 292.09 13.5474 291.273 14.4375 290.108C16.3071 287.659 18.3238 285.322 20.3633 282.99L22.4053 280.656C22.6494 280.377 22.8897 280.046 23.1104 279.758C23.3402 279.457 23.5597 279.186 23.792 278.97C24.0227 278.754 24.246 278.612 24.4756 278.545Z" fill="#87E0B3" stroke="#131C40"/>
<path d="M389.477 4236.84V4186.79C384.712 4181.98 379.946 4173.85 376.023 4165.62C372.055 4157.29 368.917 4148.8 367.494 4143.41L367.488 4143.39L367.485 4143.37L367.484 4143.37C367.484 4143.37 367.485 4143.37 367.484 4143.36C367.484 4143.36 367.483 4143.36 367.482 4143.35C367.481 4143.34 367.478 4143.33 367.475 4143.31C367.468 4143.27 367.457 4143.21 367.444 4143.13C367.419 4142.98 367.382 4142.76 367.338 4142.5C367.249 4141.97 367.131 4141.25 367.01 4140.5C366.771 4139.03 366.515 4137.38 366.479 4136.85C365.535 4122.84 365.082 4113.22 365.397 4096.55L365.471 4093.12C365.69 4083.76 366.199 4074.45 365.98 4065.13C365.527 4045.88 363.291 4026.93 356.344 4008.82C347.38 3985.45 331.333 3968.61 309.239 3956.92C295.275 3949.53 280.486 3944.34 265.497 3939.65L262.496 3938.72C248.112 3934.29 233.509 3930.33 219.152 3925.67C192.328 3916.96 166.832 3905.54 144.904 3887.39C129.035 3874.26 115.908 3858.75 105.201 3841.07C92.6977 3820.42 85.3098 3798.07 81.9033 3774.46C79.0557 3754.72 79.3348 3734.83 80.4004 3714.99L80.623 3711.02C80.7909 3708.12 80.861 3705.22 80.9512 3702.3C81.0412 3699.38 81.1516 3696.45 81.3994 3693.52V3693.52C82.6814 3678.4 82.8922 3663.2 82.2119 3648.05V3648.05C81.4545 3631.02 78.2474 3614.48 70.1348 3599.22C62.6998 3585.23 51.9866 3574.19 39.3213 3564.93L38.0898 3564.04C28.9831 3557.53 18.9918 3552.53 8.82031 3547.83L6.78418 3546.89C4.78444 3545.98 2.66506 3545.41 0.5 3544.69V4014.63C1.49081 4016.85 3.12433 4018.3 5.02637 4019.47C5.993 4020.06 7.02274 4020.57 8.06934 4021.07C9.10874 4021.57 10.1754 4022.06 11.1797 4022.59C26.671 4030.78 43.0209 4037.05 59.7139 4042.47C73.0302 4046.79 86.5232 4050.52 99.9834 4054.45C109.045 4057.09 117.934 4060.27 126.744 4063.69L130.516 4065.17C139.702 4068.81 148.157 4073.6 156.354 4078.88C169.102 4087.1 179.04 4097.92 186.337 4111.26C193.754 4124.83 198.022 4139.39 200.033 4154.5C201.279 4163.84 202.222 4173.3 202.018 4182.87C201.689 4198.82 201.908 4214.78 201.947 4230.75C202.135 4307.48 248.596 4355.76 295.35 4385.08C318.725 4399.74 342.159 4409.65 359.882 4416C368.742 4419.17 376.173 4421.45 381.455 4422.99C384.096 4423.75 386.199 4424.34 387.679 4424.75C388.417 4424.96 389.004 4425.13 389.424 4425.26C389.45 4425.27 389.474 4425.28 389.499 4425.28L389.477 4236.84Z" fill="#ABDBC5" stroke="#131C40"/>
<path d="M0.523438 4440.34V4480.84C5.28477 4484.76 10.0059 4491.45 13.8848 4498.21C17.8195 4505.07 20.9233 4512.06 22.3496 4516.43L22.374 4516.51V4516.56C22.3777 4516.57 22.3839 4516.6 22.3936 4516.64C22.4142 4516.72 22.4462 4516.83 22.4883 4516.97C22.5722 4517.25 22.6925 4517.64 22.8389 4518.1C23.1319 4519.01 23.5211 4520.2 23.9131 4521.42C24.3039 4522.63 24.6963 4523.87 24.9912 4524.87C25.1385 4525.37 25.2626 4525.81 25.3506 4526.16C25.4245 4526.46 25.4846 4526.74 25.4961 4526.94C27.3663 4542.11 27.9476 4541.72 27.5 4557.01C27.281 4564.58 27.281 4573.42 27.5 4580.99C27.9561 4596.68 26.7231 4610.5 33.6416 4625.12C42.5887 4644.03 58.6171 4657.68 80.7246 4667.16C95.6244 4673.55 111.462 4677.91 127.478 4681.92C141.867 4685.51 156.463 4688.72 170.82 4692.5C197.638 4699.56 223.129 4708.81 245.056 4723.52C260.926 4734.17 274.058 4746.75 284.771 4761.09C297.285 4777.85 304.683 4795.98 308.094 4815.15C310.945 4831.17 310.666 4847.31 309.6 4863.4L309.376 4866.61C309.208 4868.96 309.139 4871.31 309.049 4873.68C308.959 4876.05 308.848 4878.42 308.6 4880.81V4880.81C307.399 4892.29 307.138 4903.83 307.67 4915.34L307.787 4917.64C308.543 4931.42 311.745 4944.8 319.842 4957.15C327.505 4968.84 338.664 4978 351.87 4985.65C361.586 4991.28 372.309 4995.52 383.182 4999.55C385.193 5000.3 387.33 5000.77 389.5 5001.35V4620.53C388.523 4618.77 386.913 4617.6 385.013 4616.66C384.044 4616.18 383.013 4615.76 381.966 4615.36C381.186 4615.06 380.392 4614.76 379.62 4614.45L378.857 4614.13C363.363 4607.48 347.008 4602.4 330.312 4598.01L330.313 4598.01C320.325 4595.38 310.237 4593.02 300.14 4590.67L290.042 4588.3C280.983 4586.16 272.095 4583.58 263.286 4580.81L259.516 4579.61C250.334 4576.66 241.882 4572.78 233.686 4568.5V4568.5C220.942 4561.84 210.995 4553.06 203.688 4542.23C196.491 4531.56 192.254 4520.13 190.165 4508.27L189.97 4507.12C188.723 4499.54 187.778 4491.86 187.982 4484.09C188.311 4471.16 188.092 4458.23 188.053 4445.28C187.865 4383.18 141.473 4344.06 94.6895 4320.27C71.3111 4308.39 47.8739 4300.35 30.1475 4295.21C21.2853 4292.64 13.8521 4290.79 8.56934 4289.54C5.92773 4288.92 3.82481 4288.45 2.3457 4288.11C1.60759 4287.94 1.02106 4287.8 0.602539 4287.7C0.567553 4287.69 0.533904 4287.68 0.500977 4287.67L0.523438 4440.34Z" fill="#FFAFE4" stroke="#131C40"/>
</svg>
