<svg width="390" height="290" viewBox="0 0 390 290" fill="none" xmlns="http://www.w3.org/2000/svg">
<path d="M389 1V263C389 277.359 377.359 289 363 289H28C13.0883 289 1 276.912 1 262V1H389Z" fill="#374A9A" stroke="#FFF4FA" stroke-width="2"/>
<path d="M55.4818 1C51.7584 5.09994 47.8033 9.26831 44.0999 13.3779C41.8418 15.8861 40.9185 18.1242 45.0634 19.9474C48.5459 21.4813 51.8579 23.3817 55.1798 25.205C57.739 26.6038 60.2681 28.6586 59.9771 31.4852C59.676 34.495 56.8559 36.1928 53.7748 37.0321C49.7703 38.1222 45.786 39.2895 41.7715 40.3217C38.9313 41.0549 37.7069 41.9328 39.7743 44.9233C42.4339 48.7724 44.5114 52.9978 46.8599 57.0495C50.2721 62.9341 48.7266 65.8571 42.0525 65.7028C34.2344 65.5195 26.3661 66.4552 18.5881 64.8152C15.1657 64.0917 12.8273 65.1722 12.446 69.0116C11.9743 73.7869 10.1276 78.3402 10.0875 83.2119C10.0674 85.8648 10.2982 89.0869 7.58846 90.5243C4.58766 92.116 2.32951 89.325 0.0312339 87.849C-0.039037 60.1544 0.0312337 32.1868 0.031237 4.15823C0.0312371 2.91528 0.031222 1.78967 0.031253 1.00015C0.441978 1.00018 1.94504 1.00002 3.31719 1.00002C20.5685 1.00015 37.8198 1 55.4818 1Z" fill="#FFF4FA"/>
<path d="M46.3101 2C43.2693 5.59884 40.0393 9.25774 37.0149 12.865C35.1708 15.0667 34.4167 17.0312 37.8018 18.6316C40.6458 19.978 43.3506 21.6462 46.0635 23.2466C48.1535 24.4745 50.219 26.2781 49.9813 28.7592C49.7354 31.4012 47.4323 32.8915 44.9161 33.6282C41.6458 34.5851 38.3919 35.6097 35.1134 36.5157C32.7939 37.1593 31.794 37.9299 33.4824 40.5549C35.6544 43.9336 37.351 47.6425 39.2689 51.199C42.0556 56.3644 40.7934 58.9301 35.3429 58.7946C28.9581 58.6337 22.5323 59.4551 16.1803 58.0156C13.3854 57.3805 11.4756 58.3289 11.1642 61.6991C10.779 65.8907 9.27088 69.8875 9.23809 74.1638C9.2217 76.4924 9.41021 79.3207 7.19724 80.5824C4.74659 81.9796 2.90243 79.5297 1.02551 78.2341C0.968121 53.9244 1.02551 29.3751 1.02551 4.77222C1.02551 3.68119 1.0255 2.69315 1.02552 2.00013C1.36095 2.00016 2.58845 2.00002 3.70904 2.00001C17.7976 2.00013 31.8861 2 46.3101 2Z" fill="#EC609F"/>
<path d="M384.718 199.56C379.72 197.545 374.722 195.52 369.717 193.517C368.386 192.986 366.885 192.665 365.711 193.568C364.523 194.476 365.737 195.469 366.07 196.389C367.616 200.643 371.074 204.046 373.077 208.097C373.502 208.955 373.854 209.846 374.291 210.698C375.165 212.385 374.487 213.028 372.425 213.237C367.799 213.694 363.172 214.208 358.598 214.924C356.465 215.257 353.346 215.274 353.02 217.531C352.732 219.529 355.669 220.211 357.398 221.266C358.631 222.022 359.943 222.694 361.215 223.399C364.517 224.894 367.818 226.378 370.604 228.579C372.014 229.691 372.451 230.543 370.833 231.959C369.345 233.262 367.818 234.521 366.259 235.756C363.27 237.917 360.301 240.095 357.287 242.228C356.06 243.097 355.499 244.158 356.002 245.444C356.51 246.753 357.959 246.358 359.081 246.432C363.942 246.731 368.81 247.013 373.678 247.267C375.7 247.374 376.496 247.814 375.851 249.885C374.643 253.761 373.913 257.745 373.064 261.7C372.836 262.761 372.307 264.064 373.71 264.792C374.996 265.453 375.877 264.375 376.829 263.839C379.452 262.36 382.075 260.871 384.692 259.387C386.728 258.117 386.78 259.517 386.976 260.673C387.067 261.221 386.989 261.892 387.902 261.898C389.057 261.903 388.868 261.091 388.907 260.47C388.946 259.816 388.92 259.156 388.92 258.501C388.92 241.133 388.835 223.76 388.998 206.393C389.031 203.194 388.613 200.677 384.711 199.554L384.718 199.56Z" fill="#FFF4FA"/>
<path d="M386.026 205.284C382.555 203.662 379.085 202.03 375.609 200.416C374.685 199.989 373.642 199.73 372.827 200.457C372.002 201.189 372.845 201.989 373.076 202.73C374.15 206.157 376.552 208.898 377.943 212.161C378.237 212.852 378.482 213.57 378.785 214.257C379.393 215.616 378.921 216.134 377.49 216.302C374.277 216.67 371.064 217.084 367.888 217.661C366.406 217.929 364.24 217.943 364.014 219.761C363.814 221.37 365.853 221.92 367.054 222.77C367.91 223.379 368.821 223.92 369.705 224.488C371.998 225.693 374.29 226.888 376.225 228.661C377.204 229.556 377.508 230.243 376.384 231.384C375.351 232.433 374.29 233.447 373.207 234.443C371.132 236.183 369.07 237.938 366.977 239.656C366.125 240.356 365.735 241.21 366.084 242.247C366.438 243.301 367.444 242.983 368.223 243.042C371.599 243.283 374.979 243.51 378.36 243.715C379.764 243.801 380.317 244.156 379.868 245.824C379.03 248.947 378.523 252.156 377.934 255.342C377.775 256.196 377.408 257.246 378.382 257.833C379.275 258.365 379.887 257.496 380.548 257.065C382.37 255.874 384.191 254.674 386.008 253.478C387.422 252.456 387.458 253.583 387.594 254.515C387.658 254.956 387.603 255.496 388.238 255.501C389.04 255.506 388.908 254.851 388.935 254.351C388.963 253.824 388.944 253.292 388.944 252.765C388.944 238.774 388.886 224.779 388.999 210.789C389.022 208.211 388.732 206.184 386.022 205.28L386.026 205.284Z" fill="#EC609F"/>
</svg>
