<svg width="655" height="779" viewBox="0 0 655 779" fill="none" xmlns="http://www.w3.org/2000/svg">
<path d="M194.655 777.751C195.637 777.914 196.634 777.971 197.628 777.923L336.875 771.109L336.938 771.106L337.002 771.111L423.634 777.882C424.594 777.957 425.559 777.933 426.515 777.81L503.223 767.918C504.579 767.743 505.953 767.743 507.31 767.917L583.14 777.667C584.778 777.878 586.44 777.796 588.05 777.428L642.991 764.849C649.411 763.379 653.938 757.632 653.865 751.046L648.318 252.926V252.891L653.689 32.9639C653.857 26.11 649.036 20.1427 642.3 18.8662L586.863 8.36133C586.004 8.19849 585.131 8.11621 584.257 8.11621H445.934L211.852 1.00195L98.7393 8.11426L98.708 8.11621H18.0283C10.3765 8.11621 4.14162 14.2601 4.0293 21.9111L1 228.274L4.16699 734.415C4.20981 741.231 9.15569 747.025 15.8799 748.139L194.655 777.751Z" fill="#C4DEF8" stroke="#392962" stroke-width="2"/>
</svg>
