<svg width="240" height="272" viewBox="0 0 240 272" fill="none" xmlns="http://www.w3.org/2000/svg">
<g filter="url(#filter0_d_373_50)">
<path d="M235.656 239.908C235.853 247.431 230.444 253.936 223.011 255.114L168.62 263.739C167.611 263.898 166.589 263.955 165.569 263.907L116.778 261.622L86.7535 263.868C85.768 263.942 84.7776 263.918 83.7967 263.797L58.4646 260.67C57.2459 260.519 56.0133 260.519 54.7945 260.669L32.1127 263.461C29.3602 263.8 26.5677 263.369 24.0453 262.216L12.765 257.061C7.42519 254.62 4 249.289 4 243.418V82.8936V21.8662C4 14.1337 9.87804 7.66827 17.5756 6.93399L27.903 5.94885L76.7539 0.106293C77.4625 0.0215454 78.1763 -0.0125427 78.8898 0.0043335L161.97 1.96893L199.737 0.0869446C201.174 0.0153503 202.613 0.150757 204.011 0.489044L224.35 5.4101C231.163 7.05853 235.925 13.2055 235.82 20.2142L233.668 163.818L235.656 239.908Z" fill="#FFF4FA"/>
<path d="M168.385 262.257C167.477 262.401 166.557 262.452 165.639 262.409L116.848 260.124L116.757 260.12L116.666 260.126L86.6416 262.373C85.7546 262.439 84.8632 262.417 83.9805 262.308L58.6484 259.181C57.3079 259.016 55.952 259.015 54.6113 259.18L31.9297 261.972C29.4525 262.277 26.939 261.889 24.6689 260.852L13.3887 255.697C8.58286 253.5 5.5 248.701 5.5 243.417V21.8657C5.50025 14.9068 10.7903 9.0882 17.7178 8.42725L28.0459 7.44189L28.0811 7.43799L76.9316 1.59521C77.5694 1.51894 78.2124 1.48921 78.8545 1.50439L161.935 3.46826L161.989 3.47021L162.045 3.46729L199.812 1.58545C201.104 1.52102 202.4 1.64234 203.658 1.94678L223.997 6.86768C230.129 8.3513 234.415 13.8841 234.32 20.1919L232.169 163.795L232.168 163.827L232.169 163.857L234.157 239.947C234.334 246.718 229.465 252.573 222.775 253.633L168.385 262.257Z" stroke="#392962" stroke-width="3"/>
</g>
<defs>
<filter id="filter0_d_373_50" x="0" y="0" width="239.822" height="271.923" filterUnits="userSpaceOnUse" color-interpolation-filters="sRGB">
<feFlood flood-opacity="0" result="BackgroundImageFix"/>
<feColorMatrix in="SourceAlpha" type="matrix" values="0 0 0 0 0 0 0 0 0 0 0 0 0 0 0 0 0 0 127 0" result="hardAlpha"/>
<feOffset dy="4"/>
<feGaussianBlur stdDeviation="2"/>
<feComposite in2="hardAlpha" operator="out"/>
<feColorMatrix type="matrix" values="0 0 0 0 0 0 0 0 0 0 0 0 0 0 0 0 0 0 0.25 0"/>
<feBlend mode="normal" in2="BackgroundImageFix" result="effect1_dropShadow_373_50"/>
<feBlend mode="normal" in="SourceGraphic" in2="effect1_dropShadow_373_50" result="shape"/>
</filter>
</defs>
</svg>
