<svg width="1211" height="712" viewBox="0 0 1211 712" fill="none" xmlns="http://www.w3.org/2000/svg">
<path d="M933.714 701.061L933.777 701.056L933.841 701.06L1081.11 710.418C1081.93 710.47 1082.75 710.45 1083.57 710.357L1196.77 697.548C1203.97 696.733 1209.35 690.563 1209.19 683.321L1199 231.022L1199 230.986L1199 230.95L1208.79 32.7871C1209.16 25.3038 1203.58 18.8558 1196.12 18.1572L1082.31 7.5H824.167L391.516 1.00098L182.395 7.5H20.5615C12.9915 7.5 6.79231 13.5174 6.56738 21.084L1 208.518L6.82715 668.668C6.91858 675.888 12.4867 681.855 19.6836 682.444L362.394 710.499L622.643 704.206L622.674 704.205L622.705 704.206L785.614 710.499L933.714 701.061Z" fill="#8661B9" stroke="#C4DEF8" stroke-width="2"/>
</svg>
