<svg width="284" height="71" viewBox="0 0 284 71" fill="none" xmlns="http://www.w3.org/2000/svg">
<path d="M280.392 66.0845L280.392 62.1486L280.392 59.6285C280.392 58.178 280.392 56.0714 280.392 55.2283L280.392 45.9351C280.392 39.778 282.9 34.3132 282.9 28.1561L282.9 14.9865C284.404 9.06023 282.9 9.06017 280.392 6.42625C280.392 5.45173 278.194 4.7078 276.966 3.87225C276.966 2.82781 269.47 0.946609 267.975 0.843361C265.493 0.672035 258.789 0.538689 256.301 0.538689H108.083H31.0666C25.8583 0.538689 19.8335 0.37915 15.0697 0.708054C11.6143 0.946617 6.14224 1.62662 4.51505 2.51134C3.9837 2.80024 4.35016 3.2747 4.35016 3.58733C4.35016 4.13217 3.82898 4.0319 2.94836 4.40429C2.00458 4.8034 2.86591 5.90122 2.86591 6.36697V10.4019C2.86591 21.1917 0.5 27.9019 0.5 38.6917C0.5 41.3817 1.00159 47.8544 1.00159 50.5444C1.00159 51.8893 2.50638 53.1783 2.00479 54.4952C2.50638 57.1291 1.80548 56.5531 2.50638 57.7876C2.50638 57.7876 2.78345 58.2018 3.5668 59.6409C4.35016 61.08 4.35016 61.8298 4.35016 63.0555C4.35016 63.7333 4.38773 65.4886 5.09229 66.0845C6.06226 66.9048 7.13171 69.0449 11.9263 69.6721C17.6438 70.2988 27.6357 70.1943 33.2017 70.1943C38.8913 70.1943 41.388 69.9401 47.0776 69.9401H53.4592H60.0095H68.915H102.311H172.07C196.836 69.9401 221.901 70.1195 246.283 70.1195C251.892 70.1195 257.58 70.2988 262.981 70.2988C265.563 70.2988 268.431 69.9734 270.773 69.9401C273.187 69.9058 275.609 70.9184 276.966 70.2988C279.515 69.1355 280.392 67.452 280.392 66.0845Z" fill="#E5348B"/>
<path d="M280.392 66.0845L280.392 62.1486L280.392 59.6285C280.392 58.178 280.392 56.0714 280.392 55.2283L280.392 45.9351C280.392 39.778 282.9 34.3132 282.9 28.1561L282.9 14.9865C284.404 9.06023 282.9 9.06017 280.392 6.42625C280.392 5.45173 278.194 4.7078 276.966 3.87225C276.966 2.82781 269.47 0.946609 267.975 0.843361C265.493 0.672035 258.789 0.538689 256.301 0.538689H108.083H31.0666C25.8583 0.538689 19.8335 0.37915 15.0697 0.708054C11.6143 0.946617 6.14224 1.62662 4.51505 2.51134C3.9837 2.80024 4.35016 3.2747 4.35016 3.58733C4.35016 4.13217 3.82898 4.0319 2.94836 4.40429C2.00458 4.8034 2.86591 5.90122 2.86591 6.36697V10.4019C2.86591 21.1917 0.5 27.9019 0.5 38.6917C0.5 41.3817 1.00159 47.8544 1.00159 50.5444C1.00159 51.8893 2.50638 53.1783 2.00479 54.4952C2.50638 57.1291 1.80548 56.5531 2.50638 57.7876C2.50638 57.7876 2.78345 58.2018 3.5668 59.6409C4.35016 61.08 4.35016 61.8298 4.35016 63.0555C4.35016 63.7333 4.38773 65.4886 5.09229 66.0845C6.06226 66.9048 7.13171 69.0449 11.9263 69.6721C17.6438 70.2988 27.6357 70.1943 33.2017 70.1943C38.8913 70.1943 41.388 69.9401 47.0776 69.9401H53.4592H60.0095H68.915H102.311H172.07C196.836 69.9401 221.901 70.1195 246.283 70.1195C251.892 70.1195 257.58 70.2988 262.981 70.2988C265.563 70.2988 268.431 69.9734 270.773 69.9401C273.187 69.9058 275.609 70.9184 276.966 70.2988C279.515 69.1355 280.392 67.452 280.392 66.0845Z" stroke="#E5348B" stroke-linecap="round"/>
<path d="M280.392 66.0845L280.392 62.1486L280.392 59.6285C280.392 58.178 280.392 56.0714 280.392 55.2283L280.392 45.9351C280.392 39.778 282.9 34.3132 282.9 28.1561L282.9 14.9865C284.404 9.06023 282.9 9.06017 280.392 6.42625C280.392 5.45173 278.194 4.7078 276.966 3.87225C276.966 2.82781 269.47 0.946609 267.975 0.843361C265.493 0.672035 258.789 0.538689 256.301 0.538689H108.083H31.0666C25.8583 0.538689 19.8335 0.37915 15.0697 0.708054C11.6143 0.946617 6.14224 1.62662 4.51505 2.51134C3.9837 2.80024 4.35016 3.2747 4.35016 3.58733C4.35016 4.13217 3.82898 4.0319 2.94836 4.40429C2.00458 4.8034 2.86591 5.90122 2.86591 6.36697V10.4019C2.86591 21.1917 0.5 27.9019 0.5 38.6917C0.5 41.3817 1.00159 47.8544 1.00159 50.5444C1.00159 51.8893 2.50638 53.1783 2.00479 54.4952C2.50638 57.1291 1.80548 56.5531 2.50638 57.7876C2.50638 57.7876 2.78345 58.2018 3.5668 59.6409C4.35016 61.08 4.35016 61.8298 4.35016 63.0555C4.35016 63.7333 4.38773 65.4886 5.09229 66.0845C6.06226 66.9048 7.13171 69.0449 11.9263 69.6721C17.6438 70.2988 27.6357 70.1943 33.2017 70.1943C38.8913 70.1943 41.388 69.9401 47.0776 69.9401H53.4592H60.0095H68.915H102.311H172.07C196.836 69.9401 221.901 70.1195 246.283 70.1195C251.892 70.1195 257.58 70.2988 262.981 70.2988C265.563 70.2988 268.431 69.9734 270.773 69.9401C273.187 69.9058 275.609 70.9184 276.966 70.2988C279.515 69.1355 280.392 67.452 280.392 66.0845Z" stroke="#131C40" stroke-linecap="round"/>
</svg>
