<svg width="534" height="85" viewBox="0 0 534 85" fill="none" xmlns="http://www.w3.org/2000/svg">
<path d="M527.646 79.2014L527.646 74.4784L527.646 71.4542C527.646 69.7136 527.646 67.1857 527.646 66.174L527.646 55.0221C527.646 47.6336 532.369 41.0758 532.369 33.6873L532.369 17.8839C535.203 10.7723 532.369 10.7722 527.646 7.6115C527.646 6.44207 523.507 5.54936 521.194 4.5467C521.194 3.29337 507.076 1.03593 504.26 0.912033C499.586 0.706436 486.959 0.546417 482.274 0.546417H203.12H58.069C48.2597 0.546417 36.9127 0.354973 27.9405 0.749657C21.4327 1.03594 11.1266 1.85194 8.06195 2.9136C7.06116 3.26028 7.75134 3.82964 7.75134 4.20479C7.75134 4.8586 6.76978 4.73827 5.11127 5.18514C3.33374 5.66407 4.95593 6.98146 4.95593 7.54036V12.3823C4.95593 25.3301 0.5 33.3823 0.5 46.3301C0.5 49.558 1.4447 57.3252 1.4447 60.5532C1.4447 62.1672 4.27881 63.7139 3.33411 65.2943C4.27881 68.455 2.95874 67.7638 4.27881 69.2451C4.27881 69.2451 4.80066 69.7421 6.276 71.4691C7.75134 73.196 7.75134 74.0958 7.75134 75.5665C7.75134 76.3799 7.82214 78.4863 9.14911 79.2014C10.9759 80.1858 12.9902 82.7539 22.0201 83.5065C32.7885 84.2585 51.6072 84.1332 62.0901 84.1332C72.8059 84.1332 77.5081 83.8281 88.2239 83.8281H100.243H112.58H129.352H192.249H323.634C370.277 83.8281 417.485 84.0433 463.405 84.0433C473.97 84.0433 484.683 84.2585 494.854 84.2585C499.718 84.2585 505.119 83.8681 509.53 83.8281C514.077 83.787 518.638 85.0021 521.195 84.2586C525.995 82.8625 527.646 80.8424 527.646 79.2014Z" fill="#F7F7F7"/>
<path d="M527.646 79.2014L527.646 74.4784L527.646 71.4542C527.646 69.7136 527.646 67.1857 527.646 66.174L527.646 55.0221C527.646 47.6336 532.369 41.0758 532.369 33.6873L532.369 17.8839C535.203 10.7723 532.369 10.7722 527.646 7.6115C527.646 6.44207 523.507 5.54936 521.194 4.5467C521.194 3.29337 507.076 1.03593 504.26 0.912033C499.586 0.706436 486.959 0.546417 482.274 0.546417H203.12H58.069C48.2597 0.546417 36.9127 0.354973 27.9405 0.749657C21.4327 1.03594 11.1266 1.85194 8.06195 2.9136C7.06116 3.26028 7.75134 3.82964 7.75134 4.20479C7.75134 4.8586 6.76978 4.73827 5.11127 5.18514C3.33374 5.66407 4.95593 6.98146 4.95593 7.54036V12.3823C4.95593 25.3301 0.5 33.3823 0.5 46.3301C0.5 49.558 1.4447 57.3252 1.4447 60.5532C1.4447 62.1672 4.27881 63.7139 3.33411 65.2943C4.27881 68.455 2.95874 67.7638 4.27881 69.2451C4.27881 69.2451 4.80066 69.7421 6.276 71.4691C7.75134 73.196 7.75134 74.0958 7.75134 75.5665C7.75134 76.3799 7.82214 78.4863 9.14911 79.2014C10.9759 80.1858 12.9902 82.7539 22.0201 83.5065C32.7885 84.2585 51.6072 84.1332 62.0901 84.1332C72.8059 84.1332 77.5081 83.8281 88.2239 83.8281H100.243H112.58H129.352H192.249H323.634C370.277 83.8281 417.485 84.0433 463.405 84.0433C473.97 84.0433 484.683 84.2585 494.854 84.2585C499.718 84.2585 505.119 83.8681 509.53 83.8281C514.077 83.787 518.638 85.0021 521.195 84.2586C525.995 82.8625 527.646 80.8424 527.646 79.2014Z" stroke="#E5348B" stroke-linecap="round"/>
<path d="M527.646 79.2014L527.646 74.4784L527.646 71.4542C527.646 69.7136 527.646 67.1857 527.646 66.174L527.646 55.0221C527.646 47.6336 532.369 41.0758 532.369 33.6873L532.369 17.8839C535.203 10.7723 532.369 10.7722 527.646 7.6115C527.646 6.44207 523.507 5.54936 521.194 4.5467C521.194 3.29337 507.076 1.03593 504.26 0.912033C499.586 0.706436 486.959 0.546417 482.274 0.546417H203.12H58.069C48.2597 0.546417 36.9127 0.354973 27.9405 0.749657C21.4327 1.03594 11.1266 1.85194 8.06195 2.9136C7.06116 3.26028 7.75134 3.82964 7.75134 4.20479C7.75134 4.8586 6.76978 4.73827 5.11127 5.18514C3.33374 5.66407 4.95593 6.98146 4.95593 7.54036V12.3823C4.95593 25.3301 0.5 33.3823 0.5 46.3301C0.5 49.558 1.4447 57.3252 1.4447 60.5532C1.4447 62.1672 4.27881 63.7139 3.33411 65.2943C4.27881 68.455 2.95874 67.7638 4.27881 69.2451C4.27881 69.2451 4.80066 69.7421 6.276 71.4691C7.75134 73.196 7.75134 74.0958 7.75134 75.5665C7.75134 76.3799 7.82214 78.4863 9.14911 79.2014C10.9759 80.1858 12.9902 82.7539 22.0201 83.5065C32.7885 84.2585 51.6072 84.1332 62.0901 84.1332C72.8059 84.1332 77.5081 83.8281 88.2239 83.8281H100.243H112.58H129.352H192.249H323.634C370.277 83.8281 417.485 84.0433 463.405 84.0433C473.97 84.0433 484.683 84.2585 494.854 84.2585C499.718 84.2585 505.119 83.8681 509.53 83.8281C514.077 83.787 518.638 85.0021 521.195 84.2586C525.995 82.8625 527.646 80.8424 527.646 79.2014Z" stroke="#131C40" stroke-linecap="round"/>
</svg>
