<svg width="169" height="63" viewBox="0 0 169 63" fill="none" xmlns="http://www.w3.org/2000/svg">
<g filter="url(#filter0_d_0_1)">
<path d="M161.362 9.02736C160.824 3.53073 155.933 -0.489403 150.436 0.048141L121.786 2.85004L81.4654 5.08716L12.8594 13.3113C7.89797 13.9061 4.13714 18.0719 4.05108 23.068L4.00001 26.0332L4.24249 37.6737L5.11185 46.5632C5.19104 47.373 5.37722 48.1687 5.66551 48.9295C7.17975 52.9256 11.2446 55.3545 15.4811 54.7947L45.5091 50.8269L85.5555 46.9106L155.246 41.2256C160.438 40.802 164.436 36.4632 164.433 31.2537L164.429 23.264C164.429 22.4301 164.324 21.5996 164.117 20.7917L161.708 11.3704C161.582 10.8766 161.494 10.3738 161.444 9.86649L161.362 9.02736Z" fill="#FFAFE4"/>
<path d="M12.9187 13.8081C8.20548 14.3732 4.63236 18.3304 4.55061 23.0767L4.50011 26.042L4.74238 37.6497L5.60933 46.5146C5.68422 47.2804 5.86072 48.0331 6.13335 48.7526C7.56543 52.5314 11.4092 54.8286 15.4155 54.2993L45.4434 50.3315L45.452 50.3296L85.5071 46.4125L85.5149 46.4127L155.206 40.7276C160.138 40.3252 163.936 36.203 163.933 31.2541L163.929 23.2644C163.929 22.4723 163.829 21.6833 163.633 20.9159L161.224 11.4943C161.091 10.9757 160.999 10.4478 160.947 9.91511L160.865 9.07634C160.354 3.85463 155.707 0.035565 150.485 0.546088L121.824 3.34901L121.813 3.34908L81.5046 5.58571L12.9187 13.8081Z" stroke="#131C40"/>
</g>
<path d="M31.4147 32.1276C33.0048 31.9904 33.8436 32.4286 33.931 33.4422C33.9936 34.1675 33.7628 34.7495 33.2386 35.1882C32.7236 35.626 31.7455 35.9072 30.3042 36.0315L25.5897 36.4383C25.5447 35.3742 25.4585 34.1029 25.3309 32.6244C25.2034 31.1459 25.0706 29.8786 24.9326 28.8226L27.8199 28.5735L27.8211 28.5874L29.6344 28.431C30.5085 28.3555 31.1984 28.371 31.704 28.4772C32.2182 28.5734 32.5892 28.7475 32.817 28.9995C33.0449 29.2515 33.1768 29.5867 33.213 30.0052C33.294 30.9444 32.6946 31.6518 31.4147 32.1276ZM27.986 30.4983L28.0702 31.4747L29.1303 31.3832C29.558 31.3463 29.857 31.283 30.0273 31.1934C30.1968 31.0945 30.2727 30.9427 30.255 30.7381C30.2414 30.5801 30.1388 30.4765 29.9472 30.4275C29.7649 30.3776 29.4645 30.3707 29.0461 30.4068L27.986 30.4983ZM29.371 34.1728C29.901 34.1271 30.2605 34.0586 30.4493 33.9674C30.6374 33.8669 30.7226 33.7143 30.7049 33.5097C30.6897 33.3331 30.5762 33.2117 30.3644 33.1457C30.1526 33.0796 29.791 33.0687 29.2795 33.1128L28.2195 33.2042L28.3109 34.2643L29.371 34.1728ZM37.6003 31.5658C37.6598 32.0385 37.8415 32.4069 38.1453 32.6711C38.4585 32.9345 38.894 33.0421 39.4519 32.9939C39.7588 32.9675 40.0283 32.888 40.2604 32.7556C40.4918 32.6138 40.6997 32.4179 40.8842 32.1678C41.7011 32.4064 42.6492 32.5916 43.7285 32.7233C43.4834 33.4658 43.0108 34.0687 42.3107 34.5319C41.6199 34.9943 40.6933 35.2757 39.531 35.376C37.9781 35.5099 36.7984 35.2464 35.9919 34.5853C35.1854 33.9241 34.7312 33.0031 34.6293 31.8221C34.5275 30.6412 34.8172 29.656 35.4985 28.8665C36.1798 28.077 37.2969 27.6153 38.8498 27.4813C40.0122 27.381 40.9733 27.4995 41.7331 27.8368C42.5022 28.1732 43.071 28.6862 43.4397 29.3758C42.6273 29.6238 41.725 29.9687 40.7326 30.4103C40.5079 30.1955 40.2699 30.0427 40.0185 29.952C39.7663 29.852 39.4868 29.8152 39.18 29.8417C38.622 29.8898 38.2114 30.0704 37.948 30.3836C37.6939 30.6959 37.578 31.09 37.6003 31.5658ZM52.0369 30.6435L47.4898 31.0358C47.5995 31.4385 47.8097 31.7576 48.1204 31.9931C48.4396 32.2185 48.8689 32.3079 49.4082 32.2614C49.7988 32.2277 50.1597 32.1216 50.4909 31.9432C50.8213 31.7554 51.0768 31.5132 51.2573 31.2166C51.9068 31.4697 52.7628 31.7284 53.8255 31.9927C53.5934 32.6685 53.1129 33.2346 52.3841 33.6909C51.6638 34.1371 50.6946 34.4128 49.4765 34.5179C47.8957 34.6543 46.6927 34.3927 45.8677 33.7332C45.0511 33.0636 44.5914 32.1336 44.4887 30.9434C44.3885 29.781 44.6836 28.8047 45.3742 28.0144C46.0649 27.2241 47.2052 26.7604 48.7953 26.6232C49.7438 26.5414 50.5804 26.6285 51.3051 26.8845C52.0298 27.1404 52.6025 27.536 53.0234 28.0711C53.4435 28.597 53.6849 29.2225 53.7474 29.9478C53.7683 30.1896 53.7746 30.3717 53.7665 30.4942L52.0369 30.6435ZM49.1723 28.7125C48.7074 28.7527 48.3337 28.8739 48.0514 29.0762C47.7691 29.2786 47.5807 29.5384 47.4863 29.8557L50.7781 29.5717C50.6409 29.2838 50.4391 29.0623 50.1728 28.9073C49.9056 28.743 49.5722 28.678 49.1723 28.7125ZM58.0371 33.6388L55.0661 33.8951C55.0204 32.8217 54.9341 31.5504 54.8074 30.0812C54.6798 28.6027 54.547 27.3354 54.4091 26.2794L62.248 25.6031C62.2667 25.9293 62.3183 26.5806 62.4025 27.557L62.4675 28.3102L57.6135 28.729L58.0371 33.6388ZM67.9602 32.9232C66.3701 33.0603 65.1672 32.7988 64.3514 32.1385C63.5441 31.468 63.0891 30.5377 62.9864 29.3475C62.8861 28.1851 63.1767 27.2092 63.858 26.4197C64.5486 25.6294 65.689 25.1657 67.2791 25.0285C68.3484 24.9362 69.2564 25.0359 70.0028 25.3275C70.7578 25.6089 71.333 26.0324 71.7284 26.5978C72.123 27.154 72.352 27.7993 72.4154 28.5339C72.5189 29.7335 72.2021 30.7304 71.465 31.5247C70.7371 32.3182 69.5689 32.7844 67.9602 32.9232ZM67.8114 30.5471C68.4158 30.495 68.8544 30.312 69.1271 29.998C69.3998 29.6841 69.5153 29.2853 69.4735 28.8018C69.4342 28.3462 69.2534 27.9871 68.9309 27.7245C68.6077 27.4526 68.1439 27.3427 67.5394 27.3949C66.935 27.447 66.5058 27.6292 66.2517 27.9416C65.9976 28.2539 65.8906 28.6425 65.9307 29.1075C65.9724 29.591 66.1452 29.9649 66.449 30.2291C66.7529 30.4933 67.207 30.5993 67.8114 30.5471ZM83.8599 26.2397C84.189 26.1457 84.5163 26.0847 84.8418 26.0566C85.409 26.0077 85.8777 26.0656 86.2479 26.2304C86.6266 26.3851 86.9078 26.6044 87.0916 26.8883C87.2745 27.1629 87.3797 27.4583 87.4069 27.7745C87.4703 28.5091 87.2827 29.1576 86.8441 29.7201C86.4047 30.2732 85.7828 30.7203 84.9785 31.0614C84.1734 31.3932 83.264 31.6028 82.2504 31.6902C79.312 31.9437 77.3222 31.0849 76.2809 29.1138L77.0451 28.8512C77.6096 28.6619 78.0866 28.4896 78.476 28.3342C78.8739 28.1688 79.2195 27.9937 79.5127 27.8092C79.7388 28.2581 80.0327 28.57 80.3944 28.7449C80.7646 28.9096 81.2566 28.9656 81.8703 28.9126C82.5212 28.8565 83.0448 28.7363 83.4411 28.5523C83.8374 28.3682 84.0227 28.1274 83.9971 27.8298C83.9834 27.6717 83.894 27.5576 83.7287 27.4876C83.5634 27.4175 83.3075 27.3834 82.961 27.3852C82.6138 27.3777 82.1286 27.4008 81.5056 27.4546L80.4455 27.546L80.2349 25.1051L80.8765 25.0497C81.5833 24.9888 82.1574 24.9111 82.5989 24.8168C83.0396 24.7132 83.2512 24.5591 83.2335 24.3546C83.2135 24.1221 83.0765 23.9465 82.8227 23.8279C82.5774 23.6992 82.2037 23.6565 81.7016 23.6998C81.0507 23.756 80.5323 23.9365 80.1464 24.2415C79.7698 24.5457 79.492 24.9631 79.3129 25.4938C78.2835 25.1798 77.1989 24.9876 76.0593 24.9173C76.419 23.8746 77.0355 23.0391 77.9087 22.4111C78.7913 21.7822 79.9625 21.4048 81.4224 21.2789C82.3709 21.197 83.2326 21.2492 84.0074 21.4352C84.7908 21.6112 85.4152 21.8993 85.8807 22.2994C86.3554 22.6987 86.616 23.1681 86.6626 23.7074C86.6899 24.0236 86.6399 24.3136 86.5128 24.5775C86.3849 24.8321 86.1128 25.0992 85.6967 25.3786C85.2797 25.6488 84.6674 25.9358 83.8599 26.2397ZM101.584 22.2093L102.771 29.7792L100.065 30.0127L99.427 24.5734L98.8375 30.1186L95.5318 30.4038L93.9933 25.1125L94.3043 30.5097L91.5984 30.7432L91.4714 23.0817L95.6 22.7255L96.9363 27.6268L97.3156 22.5775L101.584 22.2093ZM110.963 25.5595L106.415 25.9518C106.525 26.3545 106.735 26.6736 107.046 26.9091C107.365 27.1345 107.795 27.224 108.334 27.1774C108.724 27.1437 109.085 27.0376 109.417 26.8592C109.747 26.6714 110.002 26.4292 110.183 26.1326C110.832 26.3857 111.688 26.6444 112.751 26.9087C112.519 27.5845 112.039 28.1506 111.31 28.6069C110.589 29.0531 109.62 29.3288 108.402 29.4339C106.821 29.5703 105.618 29.3087 104.793 28.6492C103.977 27.9796 103.517 27.0497 103.414 25.8594C103.314 24.6971 103.609 23.7208 104.3 22.9305C104.99 22.1402 106.131 21.6764 107.721 21.5392C108.669 21.4574 109.506 21.5445 110.231 21.8005C110.955 22.0565 111.528 22.452 111.949 22.9872C112.369 23.513 112.61 24.1386 112.673 24.8639C112.694 25.1056 112.7 25.2878 112.692 25.4103L110.963 25.5595ZM108.098 23.6286C107.633 23.6687 107.259 23.7899 106.977 23.9923C106.695 24.1946 106.506 24.4544 106.412 24.7717L109.704 24.4877C109.566 24.1998 109.365 23.9783 109.098 23.8233C108.831 23.659 108.498 23.5941 108.098 23.6286ZM116.495 24.759C116.554 25.2316 116.736 25.6 117.04 25.8642C117.353 26.1276 117.788 26.2352 118.346 26.1871C118.653 26.1606 118.923 26.0812 119.155 25.9487C119.386 25.807 119.594 25.611 119.779 25.3609C120.595 25.5996 121.544 25.7848 122.623 25.9165C122.378 26.659 121.905 27.2618 121.205 27.7251C120.514 28.1875 119.588 28.4688 118.425 28.5691C116.872 28.7031 115.693 28.4395 114.886 27.7784C114.08 27.1173 113.626 26.1963 113.524 25.0153C113.422 23.8344 113.712 22.8491 114.393 22.0597C115.074 21.2702 116.191 20.8084 117.744 20.6745C118.907 20.5742 119.868 20.6927 120.627 21.0299C121.397 21.3664 121.965 21.8794 122.334 22.5689C121.522 22.817 120.619 23.1619 119.627 23.6035C119.402 23.3886 119.164 23.2359 118.913 23.1451C118.661 23.0451 118.381 23.0083 118.074 23.0348C117.516 23.0829 117.106 23.2636 116.842 23.5767C116.588 23.889 116.472 24.2831 116.495 24.759ZM131.889 22.2363C130.491 22.3195 129.476 22.3837 128.843 22.429L129.279 27.4921L126.322 27.7473L125.886 22.6841C125.263 22.7471 124.256 22.8574 122.865 23.015L122.639 20.3927L131.663 19.6141L131.889 22.2363ZM141.625 24.0943C141.653 24.4105 141.709 24.6304 141.795 24.7542C141.88 24.878 142.037 24.9581 142.265 24.9947L142.323 26.3106C142.029 26.3828 141.771 26.4378 141.55 26.4756C141.338 26.5127 141.05 26.5468 140.688 26.5781C139.888 26.6471 139.343 26.5162 139.052 26.1853C138.76 25.8451 138.59 25.396 138.542 24.8381L138.512 24.4894C138.308 25.2752 137.962 25.8765 137.473 26.2934C136.994 26.7095 136.354 26.952 135.555 27.021C134.625 27.1012 133.907 26.9758 133.4 26.6448C132.903 26.3129 132.623 25.7797 132.56 25.0451C132.508 24.4407 132.667 23.9492 133.037 23.5707C133.407 23.1921 134.005 22.9016 134.83 22.6992C134.08 22.2581 133.336 21.882 132.597 21.571C133.094 20.8162 133.685 20.2266 134.37 19.8021C135.054 19.3684 135.907 19.1074 136.93 19.0192C138.362 18.8956 139.449 19.1157 140.191 19.6793C140.941 20.2329 141.372 21.1512 141.482 22.4345L141.625 24.0943ZM137.435 21.4488C136.96 21.4897 136.549 21.6048 136.2 21.7942C135.851 21.9836 135.546 22.2488 135.285 22.5898C135.837 22.4766 136.532 22.3838 137.368 22.3116C137.713 22.282 137.951 22.2193 138.083 22.1235C138.215 22.0278 138.276 21.9149 138.265 21.7847C138.255 21.6731 138.177 21.5861 138.031 21.5238C137.885 21.4521 137.686 21.4271 137.435 21.4488ZM136.237 24.6716C136.758 24.6267 137.219 24.4885 137.621 24.2572C138.021 24.0165 138.287 23.7266 138.417 23.3875L138.386 23.0249C138.172 23.1557 137.933 23.2653 137.669 23.3537C137.404 23.4327 137.084 23.5166 136.707 23.6053L136.212 23.7323C135.7 23.8795 135.455 24.0786 135.477 24.3297C135.5 24.5994 135.754 24.7133 136.237 24.6716ZM145.618 15.1219C145.672 15.7449 145.752 16.9418 145.858 18.7126C145.863 18.9932 145.871 19.1986 145.883 19.3287C145.81 20.6559 145.792 21.8097 145.83 22.7901L143.249 23.0127C143.119 22.0404 142.904 20.9066 142.605 19.6115L142.538 18.999C142.358 17.5718 142.228 16.3793 142.145 15.4216L145.618 15.1219ZM146.455 26.2913L143.219 26.5705L143.005 24.0877L146.241 23.8085L146.455 26.2913Z" fill="#E5348B"/>
<defs>
<filter id="filter0_d_0_1" x="0" y="0" width="168.433" height="62.8745" filterUnits="userSpaceOnUse" color-interpolation-filters="sRGB">
<feFlood flood-opacity="0" result="BackgroundImageFix"/>
<feColorMatrix in="SourceAlpha" type="matrix" values="0 0 0 0 0 0 0 0 0 0 0 0 0 0 0 0 0 0 127 0" result="hardAlpha"/>
<feOffset dy="4"/>
<feGaussianBlur stdDeviation="2"/>
<feComposite in2="hardAlpha" operator="out"/>
<feColorMatrix type="matrix" values="0 0 0 0 0 0 0 0 0 0 0 0 0 0 0 0 0 0 0.25 0"/>
<feBlend mode="normal" in2="BackgroundImageFix" result="effect1_dropShadow_0_1"/>
<feBlend mode="normal" in="SourceGraphic" in2="effect1_dropShadow_0_1" result="shape"/>
</filter>
</defs>
</svg>
