<svg width="179" height="68" viewBox="0 0 179 68" fill="none" xmlns="http://www.w3.org/2000/svg">
<g filter="url(#filter0_d_0_1)">
<path d="M171.181 8.76528C170.499 3.28476 165.503 -0.604859 160.022 0.0775827L128.926 3.9497L86.0473 7.57265L12.5608 18.2602C7.63774 18.9762 3.98964 23.2022 4.00002 28.177L4.00642 31.24L4.50241 42.9133L5.59862 51.7167C5.70667 52.5844 5.93605 53.4327 6.28003 54.2366C7.96109 58.1655 12.0943 60.4524 16.316 59.7893L48.7031 54.7027L91.2562 49.4039L165.998 41.2445C171.15 40.6821 175.019 36.2764 174.91 31.0947L174.742 23.0519C174.724 22.1667 174.588 21.2879 174.338 20.4386L171.614 11.1777C171.461 10.6586 171.351 10.1281 171.284 9.59118L171.181 8.76528Z" fill="#CDF2DF"/>
<path d="M12.6327 18.7554C7.95584 19.4356 4.4902 23.4502 4.50007 28.1762L4.5065 31.239L5.00091 42.8676L6.09516 51.6552C6.19744 52.4763 6.414 53.2793 6.73952 54.0401C8.33056 57.7585 12.2425 59.9227 16.2381 59.2954L48.6253 54.2085L91.2017 48.9068L165.944 40.7473C170.838 40.2127 174.513 36.0272 174.41 31.1048L174.242 23.0619C174.225 22.2212 174.096 21.3864 173.858 20.5796L171.135 11.3188C170.974 10.7738 170.858 10.2164 170.787 9.65268L170.685 8.82703C170.036 3.62058 165.29 -0.0745964 160.083 0.57372L128.968 4.44822L86.0999 8.06996L12.6327 18.7554Z" stroke="#131C40"/>
</g>
<path d="M40.3377 32.4614C41.9287 32.3345 42.7646 32.7782 42.8455 33.7923C42.9033 34.518 42.6687 35.0985 42.1417 35.5337C41.6239 35.9683 40.644 36.243 39.2019 36.358L34.4849 36.7342C34.4468 35.6698 34.3688 34.398 34.2508 32.9187C34.1328 31.4394 34.0083 30.1713 33.8772 29.1144L36.766 28.884L36.7672 28.898L38.5814 28.7533C39.456 28.6835 40.1457 28.7034 40.6507 28.813C41.1642 28.9125 41.5341 29.089 41.7603 29.3425C41.9865 29.5959 42.1163 29.932 42.1497 30.3507C42.2246 31.2904 41.6206 31.9939 40.3377 32.4614ZM36.9196 30.8099L36.9975 31.7868L38.0582 31.7022C38.4861 31.6681 38.7855 31.6068 38.9564 31.5182C39.1265 31.4204 39.2034 31.2691 39.187 31.0645C39.1744 30.9063 39.0725 30.8021 38.8812 30.7518C38.6992 30.7007 38.3989 30.6919 37.9803 30.7253L36.9196 30.8099ZM38.2807 34.4934C38.8111 34.4511 39.1709 34.3849 39.3604 34.2949C39.5491 34.1956 39.6353 34.0436 39.619 33.8389C39.6049 33.6621 39.4921 33.54 39.2808 33.4726C39.0694 33.4052 38.7079 33.3919 38.1962 33.4327L37.1355 33.5173L37.2201 34.5779L38.2807 34.4934ZM46.5268 31.9398C46.5833 32.4128 46.7625 32.7824 47.0647 33.0485C47.3761 33.3139 47.8109 33.4244 48.3691 33.3799C48.6761 33.3554 48.9462 33.2777 49.1792 33.1467C49.4114 33.0065 49.6206 32.8119 49.8067 32.563C50.622 32.807 51.5689 32.9983 52.6474 33.137C52.3975 33.8779 51.921 34.4777 51.2179 34.9363C50.5241 35.3943 49.5957 35.6696 48.4327 35.7624C46.879 35.8863 45.701 35.615 44.8989 34.9487C44.0967 34.2824 43.6485 33.3584 43.5543 32.1768C43.46 30.9952 43.7561 30.0119 44.4426 29.2269C45.129 28.4418 46.2491 27.9873 47.8028 27.8634C48.9658 27.7707 49.9261 27.8954 50.6837 28.2376C51.4506 28.5791 52.0161 29.0957 52.3803 29.7876C51.5663 30.0304 50.6617 30.3694 49.6665 30.8046C49.4433 30.5883 49.2063 30.434 48.9555 30.3416C48.7039 30.24 48.4246 30.2014 48.1176 30.2259C47.5594 30.2704 47.1476 30.4484 46.8821 30.7598C46.626 31.0705 46.5076 31.4638 46.5268 31.9398ZM60.9691 31.1111L56.4195 31.4739C56.5266 31.8773 56.7347 32.1978 57.0439 32.4353C57.3617 32.6628 57.7904 32.755 58.33 32.7119C58.7207 32.6808 59.0823 32.577 59.4147 32.4007C59.7463 32.2151 60.0033 31.9746 60.1858 31.6791C60.8336 31.9365 61.688 32.2007 62.7489 32.4719C62.5124 33.1462 62.0283 33.7091 61.2965 34.1607C60.5734 34.6022 59.6024 34.8716 58.3836 34.9688C56.8019 35.0949 55.6007 34.8256 54.7799 34.1607C53.9677 33.4858 53.5141 32.5529 53.4191 31.362C53.3264 30.1991 53.6279 29.2247 54.3236 28.4389C55.0194 27.6531 56.1627 27.1968 57.7537 27.0699C58.7026 26.9942 59.5386 27.0867 60.2617 27.3474C60.9847 27.6081 61.5549 28.0074 61.9723 28.5452C62.389 29.0738 62.6262 29.7009 62.6841 30.4266C62.7034 30.6685 62.7085 30.8506 62.6996 30.9731L60.9691 31.1111ZM58.1171 29.1616C57.6519 29.1987 57.2775 29.3175 56.9939 29.518C56.7102 29.7186 56.5202 29.9771 56.4237 30.2938L59.7173 30.0312C59.5819 29.7424 59.3815 29.5196 59.1162 29.3628C58.8502 29.1968 58.5171 29.1297 58.1171 29.1616ZM66.9497 34.1453L63.9772 34.3823C63.9384 33.3087 63.8604 32.0368 63.7431 30.5668C63.6252 29.0875 63.5006 27.8194 63.3695 26.7625L71.2126 26.137C71.2293 26.4634 71.2766 27.1151 71.3545 28.092L71.4146 28.8456L66.558 29.2329L66.9497 34.1453ZM76.8773 33.494C75.2863 33.6209 74.0851 33.3515 73.2736 32.6859C72.4707 32.0103 72.0218 31.077 71.9268 29.8861C71.834 28.7232 72.1309 27.7491 72.8173 26.9641C73.5131 26.1783 74.6564 25.722 76.2474 25.5951C77.3173 25.5098 78.2246 25.6153 78.9691 25.9117C79.7223 26.1981 80.2947 26.6253 80.6864 27.1933C81.0774 27.752 81.3022 28.3988 81.3608 29.1338C81.4565 30.334 81.1333 31.3288 80.391 32.1184C79.6581 32.9071 78.4868 33.3657 76.8773 33.494ZM76.7439 31.1171C77.3486 31.0689 77.7884 30.8887 78.0631 30.5765C78.3378 30.2644 78.4559 29.8664 78.4173 29.3826C78.3809 28.9267 78.2024 28.5664 77.8817 28.3017C77.5602 28.0278 77.0971 27.9149 76.4924 27.9631C75.8876 28.0113 75.4572 28.1908 75.2011 28.5015C74.945 28.8121 74.8355 29.2001 74.8726 29.6653C74.9111 30.1491 75.0815 30.524 75.3836 30.7902C75.6857 31.0564 76.1391 31.1653 76.7439 31.1171ZM94.2167 26.4654C94.638 26.5816 95.0036 26.7631 95.3135 27.0099C95.6234 27.2568 95.8612 27.5374 96.0267 27.8519C96.1915 28.1571 96.285 28.4493 96.3072 28.7284C96.3948 29.8262 95.9709 30.6746 95.0355 31.2735C94.1087 31.8624 92.7708 32.2266 91.0217 32.3661C89.2633 32.5063 87.8752 32.3595 86.8575 31.9257C85.839 31.4826 85.2861 30.7121 85.1985 29.6143C85.1629 29.1677 85.2847 28.6992 85.5639 28.2088C85.8517 27.7083 86.2751 27.3234 86.8342 27.0541C86.3032 26.853 85.8959 26.6187 85.6124 26.351C85.3375 26.0733 85.1803 25.6879 85.141 25.1948C85.095 24.618 85.2542 24.0904 85.6187 23.6119C85.9824 23.1241 86.5496 22.723 87.3204 22.4088C88.1005 22.0938 89.0535 21.8914 90.1792 21.8016C91.2957 21.7126 92.2593 21.7621 93.0702 21.9503C93.881 22.1384 94.5047 22.4445 94.9411 22.8684C95.3768 23.2831 95.6176 23.7789 95.6636 24.3557C95.7037 24.8581 95.6003 25.2643 95.3535 25.5742C95.116 25.8834 94.7371 26.1805 94.2167 26.4654ZM90.5365 25.9303C91.0762 25.8872 91.5153 25.7586 91.854 25.5443C92.202 25.3293 92.3638 25.0683 92.3393 24.7613C92.3148 24.4542 92.1141 24.2268 91.7372 24.079C91.3595 23.9218 90.9055 23.8644 90.3752 23.9067C89.8356 23.9497 89.3917 24.0787 89.0437 24.2938C88.695 24.4995 88.5328 24.7558 88.5573 25.0629C88.5826 25.3792 88.784 25.6159 89.1617 25.7731C89.5386 25.9209 89.9969 25.9733 90.5365 25.9303ZM90.8482 29.8379C91.3878 29.7948 91.8269 29.6662 92.1656 29.4519C92.5137 29.2369 92.6754 28.9759 92.6509 28.6689C92.6264 28.3618 92.4257 28.1344 92.0488 27.9866C91.6711 27.8294 91.2171 27.772 90.6868 27.8143C90.1472 27.8573 89.7033 27.9863 89.3553 28.2014C89.0066 28.4071 88.8445 28.6634 88.8689 28.9705C88.8942 29.2868 89.0956 29.5235 89.4733 29.6807C89.8503 29.8285 90.3085 29.8809 90.8482 29.8379ZM110.502 23.0039L111.639 30.5814L108.932 30.7973L108.329 25.354L107.704 30.8953L104.396 31.159L102.892 25.8578L103.168 31.257L100.461 31.4729L100.384 23.8108L104.515 23.4814L105.819 28.3912L106.231 23.3445L110.502 23.0039ZM119.858 26.4149L115.309 26.7777C115.416 27.1812 115.624 27.5016 115.933 27.7391C116.251 27.9666 116.68 28.0588 117.219 28.0158C117.61 27.9846 117.972 27.8809 118.304 27.7046C118.636 27.5189 118.893 27.2784 119.075 26.983C119.723 27.2403 120.577 27.5046 121.638 27.7757C121.402 28.45 120.918 29.0129 120.186 29.4645C119.463 29.9061 118.492 30.1755 117.273 30.2727C115.691 30.3988 114.49 30.1294 113.669 29.4646C112.857 28.7897 112.403 27.8568 112.308 26.6659C112.216 25.5029 112.517 24.5285 113.213 23.7427C113.909 22.9569 115.052 22.5006 116.643 22.3737C117.592 22.2981 118.428 22.3906 119.151 22.6512C119.874 22.9119 120.444 23.3112 120.862 23.849C121.278 24.3776 121.515 25.0047 121.573 25.7304C121.593 25.9723 121.598 26.1545 121.589 26.2769L119.858 26.4149ZM117.006 24.4655C116.541 24.5026 116.167 24.6214 115.883 24.8219C115.599 25.0224 115.409 25.281 115.313 25.5977L118.606 25.335C118.471 25.0462 118.271 24.8234 118.005 24.6667C117.739 24.5006 117.406 24.4336 117.006 24.4655ZM125.396 25.6503C125.452 26.1233 125.631 26.4929 125.933 26.7591C126.245 27.0245 126.68 27.1349 127.238 27.0904C127.545 27.0659 127.815 26.9882 128.048 26.8573C128.28 26.7171 128.489 26.5225 128.675 26.2736C129.491 26.5175 130.438 26.7089 131.516 26.8476C131.266 27.5884 130.79 28.1882 130.087 28.6469C129.393 29.1048 128.464 29.3802 127.301 29.4729C125.748 29.5968 124.57 29.3256 123.768 28.6593C122.965 27.9929 122.517 27.069 122.423 25.8874C122.329 24.7058 122.625 23.7225 123.311 22.9374C123.998 22.1524 125.118 21.6979 126.672 21.574C127.835 21.4812 128.795 21.606 129.552 21.9482C130.319 22.2896 130.885 22.8063 131.249 23.4982C130.435 23.741 129.53 24.08 128.535 24.5151C128.312 24.2989 128.075 24.1446 127.824 24.0522C127.573 23.9505 127.293 23.912 126.986 23.9364C126.428 23.981 126.016 24.1589 125.751 24.4703C125.495 24.781 125.376 25.1743 125.396 25.6503ZM140.806 23.2276C139.408 23.3017 138.392 23.3593 137.758 23.4004L138.162 28.4664L135.204 28.7023L134.8 23.6364C134.177 23.6954 133.169 23.7992 131.777 23.9477L131.568 21.324L140.597 20.6039L140.806 23.2276ZM144.237 17.0273C144.286 17.6506 144.358 18.848 144.453 20.6195C144.457 20.9001 144.464 21.1055 144.474 21.2358C144.392 22.5624 144.367 23.7161 144.399 24.6967L141.817 24.9026C141.693 23.9294 141.485 22.7943 141.194 21.4973L141.131 20.8843C140.961 19.456 140.838 18.2627 140.762 17.3044L144.237 17.0273ZM145.001 28.2019L141.764 28.4601L141.566 25.9759L144.803 25.7178L145.001 28.2019Z" fill="#3EC07E"/>
<defs>
<filter id="filter0_d_0_1" x="0" y="0" width="178.913" height="67.9031" filterUnits="userSpaceOnUse" color-interpolation-filters="sRGB">
<feFlood flood-opacity="0" result="BackgroundImageFix"/>
<feColorMatrix in="SourceAlpha" type="matrix" values="0 0 0 0 0 0 0 0 0 0 0 0 0 0 0 0 0 0 127 0" result="hardAlpha"/>
<feOffset dy="4"/>
<feGaussianBlur stdDeviation="2"/>
<feComposite in2="hardAlpha" operator="out"/>
<feColorMatrix type="matrix" values="0 0 0 0 0 0 0 0 0 0 0 0 0 0 0 0 0 0 0.25 0"/>
<feBlend mode="normal" in2="BackgroundImageFix" result="effect1_dropShadow_0_1"/>
<feBlend mode="normal" in="SourceGraphic" in2="effect1_dropShadow_0_1" result="shape"/>
</filter>
</defs>
</svg>
