<svg width="150" height="91" viewBox="0 0 150 91" fill="none" xmlns="http://www.w3.org/2000/svg">
<g filter="url(#filter0_d_0_1)">
<path d="M135.924 6.98545C134.257 1.71999 128.638 -1.19765 123.373 0.468712L100.627 7.6672L66.4578 16.4259L10.7106 35.8537C5.91741 37.5241 3.13602 42.5205 4.24151 47.4746L5.23037 51.9061L8.52958 64.9107L11.7595 75.1166C11.9631 75.7601 12.2313 76.3812 12.5601 76.9706L12.6248 77.0867C15.0202 81.3811 20.1822 83.2968 24.7992 81.6048L47.5998 73.2489L81.0868 62.6512L138.28 45.8805C143.385 44.3835 146.425 39.1516 145.196 33.9754L142.697 23.4447C142.551 22.8297 142.347 22.2298 142.088 21.6533L136.948 10.2213L135.924 6.98545Z" fill="#FFAFE4"/>
<path d="M10.875 36.326C6.32162 37.9129 3.67895 42.6595 4.72913 47.3658L5.71874 51.7971L9.01026 64.7709L12.2367 74.9659C12.4301 75.5771 12.6845 76.1671 12.9968 76.7269L13.0614 76.8437C15.337 80.923 20.2408 82.7424 24.6267 81.1352L47.4279 72.7793L80.9364 62.1748L80.9361 62.1739L80.9467 62.1715L138.14 45.4011C142.99 43.9789 145.876 39.0083 144.709 34.091L142.211 23.5603C142.072 22.9761 141.878 22.4063 141.632 21.8586L136.492 10.4265L136.479 10.3998L135.447 7.13645C133.864 2.13426 128.525 -0.6375 123.523 0.945547L100.764 8.14799L100.75 8.15148L66.6072 16.903L10.875 36.326Z" stroke="#131C40"/>
</g>
<path d="M14.755 46.3184L20.8366 44.3299L21.0934 45.1152L18.5482 45.9474L20.9428 53.2709L20.0629 53.5586L17.6683 46.2351L15.0118 47.1037L14.755 46.3184ZM26.8378 51.5222C26.3328 51.6873 25.8449 51.6907 25.3739 51.5323C24.9029 51.374 24.4976 51.0832 24.1578 50.66C23.8229 50.2517 23.5711 49.7895 23.4024 49.2734C23.1911 48.6274 23.1013 48.0321 23.1328 47.4875C23.1681 46.9417 23.3245 46.4775 23.6022 46.0949C23.8836 45.7111 24.2804 45.4355 24.7928 45.2679C25.3052 45.1004 25.7931 45.097 26.2567 45.2578C27.1715 45.5669 27.831 46.3397 28.2353 47.5761C28.6492 48.8421 28.5822 49.8689 28.0342 50.6563C27.7526 51.0648 27.3538 51.3534 26.8378 51.5222ZM24.2327 46.647C23.9195 47.1974 23.9092 47.92 24.2018 48.8148C24.5854 49.988 25.1201 50.6557 25.806 50.8177C26.0515 50.8772 26.3116 50.862 26.5864 50.7722C27.1099 50.601 27.4318 50.2533 27.5522 49.7289C27.6725 49.2046 27.6143 48.5805 27.3776 47.8565C27.0693 46.9134 26.6262 46.3124 26.0483 46.0534C25.7403 45.9157 25.4025 45.907 25.0349 46.0272C24.6673 46.1474 24.3999 46.354 24.2327 46.647ZM30.2871 43.5948L32.732 42.7954L34.6877 48.7767L33.8078 49.0644L32.1088 43.8683L31.3848 44.1051L32.1287 47.8319C32.1923 48.1522 32.2174 48.3987 32.2041 48.5716C32.1895 48.7408 32.133 48.9134 32.0344 49.0895C31.7723 49.545 31.4501 49.8353 31.0677 49.9603C30.8041 50.0465 30.5373 50.0475 30.2672 49.9632C30.2019 49.9393 30.0959 49.8918 29.9493 49.8205L30.3595 49.0576L30.4685 49.1083L30.5795 49.146L30.7072 49.1782L30.8442 49.1827L30.9945 49.1521C31.3287 49.0428 31.4434 48.7525 31.3386 48.2813L30.2871 43.5948ZM35.7922 48.4217L33.8365 42.4404L34.7164 42.1527L35.3392 44.0573L36.1189 43.8024C36.6053 43.6434 37.0678 43.5558 37.5064 43.5398C37.9487 43.5226 38.3271 43.5612 38.6416 43.6557C38.7464 43.6871 38.8782 43.7571 39.0369 43.8655C39.1993 43.9726 39.3481 44.0945 39.4832 44.2312C39.622 44.3666 39.7121 44.4913 39.7534 44.6052L39.7698 44.6553C39.9252 45.1305 39.9263 45.5802 39.7732 46.0043C39.6189 46.4246 39.3394 46.7954 38.9349 47.1168C38.5291 47.4344 38.0348 47.6885 37.4519 47.8791L35.7922 48.4217ZM35.5996 44.8537L36.4154 47.3488L37.1951 47.0938C37.8708 46.8729 38.3368 46.6075 38.5931 46.2977C38.8481 45.9841 38.9594 45.6333 38.9271 45.2453C38.9179 45.1291 38.9041 45.0432 38.8859 44.9875C38.8689 44.9355 38.8574 44.9064 38.8512 44.9002C38.4322 44.2974 37.6082 44.197 36.3793 44.5988L35.5996 44.8537ZM39.608 40.5594L40.488 40.2717L41.2746 42.6776L42.8012 39.4845L43.8371 39.1458L41.9969 43.0579L46.099 45.0455L44.8961 45.4389L41.7081 43.9845L42.4401 46.2419L41.5601 46.5296L39.608 40.5594ZM49.2372 44.1982C48.7323 44.3633 48.2443 44.3667 47.7733 44.2083C47.3024 44.05 46.897 43.7592 46.5573 43.336C46.2224 42.9277 45.9705 42.4655 45.8018 41.9494C45.5906 41.3034 45.5007 40.7081 45.5323 40.1635C45.5675 39.6177 45.724 39.1535 46.0016 38.7709C46.283 38.3872 46.6799 38.1115 47.1922 37.944C47.7046 37.7764 48.1926 37.7731 48.6561 37.9338C49.5709 38.243 50.2305 39.0157 50.6347 40.2521C51.0487 41.5181 50.9816 42.5449 50.4336 43.3323C50.1521 43.7408 49.7533 44.0295 49.2372 44.1982ZM46.6322 39.323C46.3189 39.8734 46.3086 40.596 46.6012 41.4908C46.9848 42.664 47.5196 43.3317 48.2055 43.4937C48.4509 43.5532 48.7111 43.538 48.9858 43.4482C49.5093 43.277 49.8312 42.9293 49.9516 42.405C50.072 41.8807 50.0138 41.2565 49.777 40.5325C49.4687 39.5894 49.0256 38.9884 48.4477 38.7294C48.1397 38.5917 47.8019 38.583 47.4343 38.7032C47.0668 38.8234 46.7994 39.03 46.6322 39.323ZM60.0975 39.63L61.4452 39.1894L62.0826 41.1386L61.2917 41.3972L60.9039 40.2109L57.05 41.471L57.4378 42.6573L56.647 42.9159L56.0097 40.9666L56.7504 40.7244C56.9993 40.6061 57.0831 40.328 57.0016 39.8902L56.1171 35.1491L58.3894 34.4061L60.0975 39.63ZM59.2175 39.9178L57.7662 35.4791L57.2093 35.6612L57.7917 39.4408C57.8487 39.829 57.8746 40.0527 57.8693 40.112C57.8641 40.1713 57.8494 40.2583 57.8252 40.373L59.2175 39.9178ZM62.9784 32.9056L65.4233 32.1062L67.3791 38.0876L66.4991 38.3753L64.8001 33.1792L64.0761 33.4159L64.82 37.1427C64.8837 37.463 64.9088 37.7096 64.8955 37.8825C64.8809 38.0516 64.8243 38.2242 64.7257 38.4003C64.4637 38.8559 64.1415 39.1461 63.7591 39.2712C63.4955 39.3574 63.2286 39.3583 62.9586 39.274C62.8932 39.2502 62.7873 39.2026 62.6407 39.1314L63.0509 38.3685L63.1599 38.4191L63.2709 38.4568L63.3985 38.489L63.5356 38.4935L63.6859 38.4629C64.02 38.3536 64.1347 38.0634 64.03 37.5921L62.9784 32.9056ZM68.9302 34.4981C68.0881 34.4241 67.5639 34.0715 67.3575 33.4403C67.2349 33.0653 67.2717 32.6937 67.4677 32.3255C67.8498 31.6087 68.5681 31.078 69.6225 30.7332L70.5025 30.4455L72.4582 36.4268L71.5783 36.7145L70.7825 34.2808C70.6191 34.3342 70.3341 34.3925 69.9273 34.4556L69.423 37.4193L68.4149 37.7489L68.9302 34.4981ZM69.8522 31.3978C68.5378 31.8276 67.9972 32.3989 68.2303 33.1118C68.4634 33.8246 69.2371 33.9662 70.5514 33.5364L69.8522 31.3978ZM77.2769 33.008C77.4303 33.1757 77.6148 33.3126 77.8304 33.4188C78.0485 33.5201 78.2742 33.582 78.5075 33.6043C78.7446 33.6254 78.9652 33.6026 79.1694 33.5358C79.5147 33.4229 79.8048 33.248 80.0396 33.0109C80.2744 32.7738 80.4292 32.4992 80.5038 32.1871C80.581 31.8701 80.5638 31.5408 80.4521 31.1992C80.3683 30.9431 80.2343 30.7156 80.0502 30.5169C79.7174 30.1654 79.2892 29.9869 78.7655 29.9815C78.5184 29.98 78.2854 30.0151 78.0663 30.0868L77.6319 30.2288L77.4043 29.5327L77.9501 29.3542C78.1877 29.2765 78.3886 29.143 78.5527 28.9537C78.7157 28.7607 78.8232 28.5365 78.8753 28.2811C78.9262 28.022 78.9091 27.7625 78.8242 27.5026C78.7392 27.2427 78.5996 27.0294 78.4054 26.8628C78.2136 26.6912 77.9944 26.58 77.7476 26.5292C77.4997 26.4746 77.2587 26.4856 77.0248 26.5621L76.9914 26.573C76.6944 26.6701 76.46 26.8331 76.2882 27.0619C76.1152 27.2869 76.013 27.5587 75.9815 27.8772L75.102 27.7703C75.1444 27.4728 75.2393 27.1911 75.3866 26.9251C75.5376 26.6579 75.7273 26.4274 75.9557 26.2335C76.1841 26.0397 76.4357 25.8978 76.7104 25.808C77.5644 25.5288 78.3289 25.6548 79.004 26.1862C79.3311 26.445 79.5524 26.7508 79.6677 27.1035C79.7927 27.4859 79.8238 27.8826 79.7609 28.2936C79.7005 28.6997 79.5331 29.0359 79.2585 29.3024C79.5501 29.2893 79.8511 29.3737 80.1613 29.5559C80.4741 29.7331 80.7304 29.9452 80.9303 30.1921C81.1106 30.4168 81.2427 30.6572 81.3264 30.9133C81.4818 31.3886 81.502 31.8587 81.3869 32.3238C81.2743 32.7839 81.0459 33.1915 80.7017 33.5465C80.3575 33.9015 79.9329 34.1616 79.428 34.3267C79.1198 34.4274 78.783 34.4656 78.4175 34.4413C78.0557 34.4158 77.7041 34.3273 77.3628 34.1759C77.0215 34.0244 76.7337 33.8165 76.4992 33.552L77.2769 33.008ZM83.1121 32.9433L81.1619 26.9786L83.1334 26.334C83.423 26.2393 83.7264 26.212 84.0436 26.2521C84.3596 26.2885 84.6376 26.3908 84.8775 26.559C85.1187 26.7308 85.2793 26.9393 85.3594 27.1843C85.4347 27.4145 85.4475 27.6487 85.398 27.8868C85.3485 28.1249 85.2652 28.3165 85.1483 28.4616L84.809 28.8191L85.2998 28.8497C85.4751 28.8705 85.6638 28.9321 85.8658 29.0346C86.2771 29.2494 86.5344 29.5146 86.6376 29.8302C86.7468 30.1644 86.7492 30.4985 86.6448 30.8327C86.5441 31.1656 86.3515 31.4628 86.0671 31.7243C85.7865 31.9846 85.4438 32.1809 85.0391 32.3132L83.1121 32.9433ZM82.6296 29.205L83.8325 28.8117C84.007 28.7546 84.1564 28.6647 84.2806 28.5419C84.4074 28.4141 84.494 28.2707 84.5407 28.1116C84.5861 27.9488 84.5827 27.7876 84.5305 27.628C84.4795 27.472 84.3863 27.3442 84.251 27.2447C84.1157 27.1451 83.9598 27.083 83.7833 27.0585C83.6068 27.034 83.4331 27.0497 83.2624 27.1056L82.0705 27.4953L82.6296 29.205ZM82.8463 29.8677L83.5346 31.9729L84.693 31.5942C84.9529 31.5092 85.1747 31.3894 85.3584 31.2348C85.5446 31.0753 85.6729 30.8957 85.7432 30.6959C85.8172 30.495 85.8197 30.2887 85.7505 30.0771C85.6497 29.7689 85.3859 29.5655 84.9591 29.4667C84.6273 29.382 84.298 29.3931 83.9713 29.4999L82.8463 29.8677ZM91.9262 26.8681L92.0209 27.1391L88.3007 28.3555C88.6077 29.1059 89.031 29.6024 89.5707 29.8452C89.8553 29.974 90.135 29.9936 90.4097 29.9037C90.6882 29.8127 90.9337 29.6523 91.1462 29.4225C91.3588 29.1927 91.4868 28.9495 91.5303 28.6928L92.3711 28.7569C92.302 29.1864 92.1083 29.5744 91.7901 29.9209C91.4718 30.2674 91.0844 30.5154 90.6277 30.6647C90.171 30.814 89.7134 30.8033 89.2549 30.6327C88.3513 30.2952 87.6968 29.5065 87.2914 28.2664C86.8859 27.0263 86.9529 26.0119 87.4923 25.2232C87.7663 24.8295 88.1094 24.5652 88.5215 24.4305C89.0264 24.2654 89.499 24.2588 89.9391 24.4108C90.3829 24.5616 90.7674 24.8325 91.0925 25.2234C91.4164 25.6107 91.6658 26.0717 91.8406 26.6063L91.9262 26.8681ZM90.962 26.6532C90.8208 26.2966 90.6379 25.9886 90.4133 25.7291C90.1887 25.4696 89.9402 25.2879 89.6678 25.1838C89.3991 25.0785 89.1311 25.0695 88.8638 25.1569C88.5816 25.2492 88.3638 25.4314 88.2103 25.7035C87.9183 26.2182 87.8665 26.8516 88.0549 27.6037L90.962 26.6532ZM94.0024 23.4706C93.5643 23.6138 93.3087 23.907 93.2358 24.35L92.5786 24.2444C92.6326 23.8815 92.7728 23.5562 92.9993 23.2684C93.2282 22.9757 93.5061 22.776 93.8328 22.6691C94.5085 22.4482 95.1066 22.5301 95.6269 22.9148C95.8754 23.0965 96.0427 23.3192 96.1289 23.5828C96.2212 23.865 96.225 24.1597 96.1405 24.4668C96.0597 24.7726 95.8796 25.0452 95.6003 25.2845C95.8909 25.2429 96.2351 25.3153 96.633 25.5017C96.8166 25.5855 96.9827 25.7038 97.1313 25.8566C97.2836 26.0082 97.3907 26.1786 97.4526 26.368C97.5691 26.7244 97.5776 27.0771 97.478 27.4261C97.3809 27.7702 97.1933 28.0761 96.915 28.3438C96.6368 28.6115 96.2953 28.8115 95.8906 28.9438C95.6419 29.0252 95.3705 29.0564 95.0767 29.0374C94.7865 29.0172 94.5065 28.9464 94.2366 28.825C93.9668 28.7037 93.7399 28.5375 93.5558 28.3264L94.1382 27.9017C94.3163 28.0695 94.5368 28.1782 94.7997 28.2279C95.065 28.2727 95.348 28.2459 95.6488 28.1476C95.8567 28.0796 96.0438 27.967 96.2103 27.8098C96.3792 27.6477 96.4976 27.4631 96.5655 27.256C96.6359 27.0439 96.6359 26.8302 96.5655 26.6149C96.5084 26.4404 96.4086 26.2984 96.2659 26.1888C96.1257 26.0744 95.9613 25.9987 95.7725 25.9618C95.4407 25.8648 95.1059 25.8715 94.7681 25.982L94.4506 26.0858L94.223 25.3896L94.6184 25.2603C94.7966 25.2021 94.9466 25.1078 95.0684 24.9776C95.194 24.8461 95.277 24.6977 95.3174 24.5324C95.3604 24.3622 95.3546 24.1936 95.3 24.0265C95.2465 23.8631 95.1516 23.7298 95.015 23.6265C94.8773 23.5195 94.7196 23.4518 94.5419 23.4237C94.3641 23.3955 94.1917 23.4087 94.0247 23.4633L94.0024 23.4706ZM103.103 25.5684L104.451 25.1277L105.088 27.077L104.297 27.3356L103.909 26.1493L100.056 27.4094L100.443 28.5957L99.6526 28.8543L99.0152 26.905L99.7559 26.6628C100.005 26.5444 100.089 26.2664 100.007 25.8286L99.1227 21.0874L101.395 20.3445L103.103 25.5684ZM102.223 25.8561L100.772 21.4175L100.215 21.5996L100.797 25.3792C100.854 25.7674 100.88 25.9911 100.875 26.0504C100.87 26.1096 100.855 26.1966 100.831 26.3114L102.223 25.8561ZM108.405 24.8521C107.9 25.0172 107.412 25.0206 106.941 24.8622C106.47 24.7039 106.064 24.4131 105.725 23.9899C105.39 23.5816 105.138 23.1194 104.969 22.6033C104.758 21.9573 104.668 21.362 104.7 20.8174C104.735 20.2716 104.891 19.8074 105.169 19.4248C105.45 19.0411 105.847 18.7654 106.36 18.5979C106.872 18.4303 107.36 18.427 107.824 18.5877C108.738 18.8969 109.398 19.6696 109.802 20.906C110.216 22.172 110.149 23.1988 109.601 23.9862C109.32 24.3947 108.921 24.6834 108.405 24.8521ZM105.8 19.9769C105.486 20.5273 105.476 21.2499 105.769 22.1447C106.152 23.3179 106.687 23.9856 107.373 24.1476C107.618 24.2071 107.879 24.1919 108.153 24.1021C108.677 23.9309 108.999 23.5832 109.119 23.0589C109.239 22.5346 109.181 21.9104 108.945 21.1864C108.636 20.2433 108.193 19.6423 107.615 19.3833C107.307 19.2456 106.969 19.2369 106.602 19.3571C106.234 19.4773 105.967 19.6839 105.8 19.9769ZM113.803 16.2873L114.65 16.0106L116.605 21.9919L115.759 22.2687L114.732 19.1276C114.734 19.3735 114.683 19.6122 114.578 19.8438C114.475 20.0705 114.329 20.2723 114.141 20.4491C113.954 20.621 113.741 20.7464 113.499 20.8253C112.456 21.1664 111.604 20.8119 110.945 19.7619C110.713 19.3937 110.51 18.9404 110.334 18.402L110.044 17.5165L110.885 17.2415L111.174 18.127C111.537 19.2372 112.035 19.8781 112.666 20.0497C112.896 20.1103 113.138 20.0987 113.395 20.0149C113.643 19.9336 113.845 19.7958 113.999 19.6015C114.416 19.0665 114.447 18.2551 114.091 17.1673L113.803 16.2873ZM121.41 17.2278L121.504 17.4989L117.784 18.7153C118.091 19.4656 118.515 19.9622 119.054 20.2049C119.339 20.3338 119.618 20.3533 119.893 20.2635C120.172 20.1724 120.417 20.012 120.63 19.7822C120.842 19.5524 120.97 19.3092 121.014 19.0525L121.855 19.1166C121.785 19.5461 121.592 19.9341 121.274 20.2806C120.955 20.6272 120.568 20.8751 120.111 21.0244C119.655 21.1737 119.197 21.1631 118.738 20.9924C117.835 20.655 117.18 19.8662 116.775 18.6261C116.369 17.386 116.436 16.3716 116.976 15.5829C117.25 15.1892 117.593 14.9249 118.005 14.7902C118.51 14.6251 118.982 14.6185 119.423 14.7705C119.866 14.9213 120.251 15.1922 120.576 15.5832C120.9 15.9704 121.149 16.4314 121.324 16.966L121.41 17.2278ZM120.446 17.0129C120.304 16.6563 120.121 16.3483 119.897 16.0888C119.672 15.8294 119.424 15.6476 119.151 15.5435C118.883 15.4382 118.615 15.4292 118.347 15.5166C118.065 15.6089 117.847 15.7911 117.694 16.0632C117.402 16.5779 117.35 17.2113 117.538 17.9634L120.446 17.0129ZM121.576 13.7582L122.456 13.4705L123.243 15.8764L124.769 12.6833L125.805 12.3446L123.965 16.2567L128.067 18.2443L126.864 18.6377L123.676 17.1833L124.408 19.4407L123.528 19.7284L121.576 13.7582ZM20.6125 63.5917L21.4813 63.3076L22.9417 67.7741L24.3327 62.3752L25.1793 62.0985L27.135 68.0798L26.3553 68.3347L24.8767 63.8125L23.4147 69.2962L22.5682 69.573L20.6125 63.5917ZM37.2108 62.9791C37.1864 63.5706 37.0135 64.1039 36.6921 64.5789C36.3707 65.0538 35.8721 65.4018 35.1964 65.6227C34.7657 65.7636 34.3361 65.8198 33.9076 65.7914C33.4001 65.7601 32.9223 65.5998 32.4743 65.3107C32.0264 65.0215 31.6314 64.6369 31.2895 64.1569C30.9501 63.672 30.6809 63.125 30.4818 62.5161C30.2803 61.8998 30.1732 61.2958 30.1605 60.704C30.1466 60.1085 30.2338 59.5581 30.422 59.0527C30.609 58.5436 30.8986 58.116 31.291 57.7699C31.6026 57.4912 31.9385 57.2931 32.2987 57.1753C33.4311 56.805 34.3734 56.9469 35.1256 57.601C35.2584 57.7179 35.3805 57.8464 35.4922 57.9867L34.737 58.4863C34.5985 58.2891 34.4185 58.1343 34.1968 58.0219C33.9738 57.9057 33.7302 57.8394 33.466 57.8231C33.2042 57.8018 32.9453 57.8331 32.6891 57.9169L32.6779 57.9205C32.2918 58.0468 31.9743 58.2636 31.7255 58.571C31.2689 59.1353 31.0749 59.9057 31.1434 60.8819C31.1705 61.3169 31.2576 61.759 31.4045 62.2083C31.7031 63.1216 32.1745 63.847 32.8187 64.3843C33.1273 64.6368 33.4685 64.8068 33.8423 64.8942C34.2149 64.9779 34.5887 64.9584 34.9637 64.8358C35.2162 64.7532 35.443 64.6174 35.6442 64.4283C35.8491 64.238 36.0116 64.0185 36.1316 63.7696C36.2516 63.5208 36.3136 63.2704 36.3175 63.0184L37.2108 62.9791ZM36.5423 58.3892L37.4334 58.0979L40.5916 62.4778L40.5911 57.0654L41.4711 56.7777L41.3521 64.9169C41.352 64.9416 41.3368 64.9959 41.3067 65.0797C41.2264 65.2991 41.0819 65.5107 40.8732 65.7146C40.6694 65.921 40.4419 66.0734 40.1905 66.1721L40.1293 66.1921C39.8471 66.2844 39.576 66.2847 39.3158 66.193C39.2505 66.1691 39.1452 66.1234 38.9998 66.0559L39.4099 65.293L39.6318 65.3869L39.752 65.4154L39.8891 65.4199L40.045 65.3874C40.2343 65.3255 40.3553 65.2367 40.4078 65.1208L40.5234 63.7022L36.5423 58.3892ZM42.6833 56.3751L47.278 54.8728L49.2337 60.8542L48.3538 61.1419L46.6548 55.9458L43.82 56.8727L45.519 62.0687L44.6391 62.3565L42.6833 56.3751ZM54.0936 56.0718L54.1884 56.3429L50.4681 57.5593C50.7751 58.3097 51.1984 58.8062 51.7381 59.0489C52.0227 59.1778 52.3024 59.1973 52.5771 59.1075C52.8556 59.0164 53.1011 58.856 53.3136 58.6262C53.5262 58.3965 53.6542 58.1532 53.6977 57.8965L54.5385 57.9607C54.4694 58.3901 54.2757 58.7781 53.9575 59.1247C53.6392 59.4712 53.2518 59.7191 52.7951 59.8684C52.3384 60.0178 51.8808 60.0071 51.4223 59.8365C50.5187 59.499 49.8642 58.7102 49.4588 57.4701C49.0533 56.2301 49.1203 55.2157 49.6597 54.4269C49.9337 54.0332 50.2768 53.769 50.6889 53.6342C51.1938 53.4691 51.6664 53.4626 52.1065 53.6146C52.5503 53.7653 52.9348 54.0362 53.2599 54.4272C53.5838 54.8145 53.8332 55.2754 54.008 55.8101L54.0936 56.0718ZM53.1294 55.8569C52.9882 55.5003 52.8053 55.1923 52.5807 54.9329C52.3561 54.6734 52.1076 54.4916 51.8352 54.3875C51.5665 54.2822 51.2985 54.2733 51.0312 54.3607C50.749 54.4529 50.5312 54.6351 50.3777 54.9073C50.0857 55.4219 50.0339 56.0553 50.2223 56.8075L53.1294 55.8569ZM55.1491 52.3053L55.4896 53.3468C55.5727 52.4319 55.9966 51.8494 56.7615 51.5993C57.2442 51.4415 57.6968 51.4497 58.1195 51.6238C58.541 51.7942 58.9093 52.091 59.2243 52.514C59.5419 52.9321 59.7959 53.4326 59.9865 54.0155C60.2621 54.8583 60.3281 55.6382 60.1844 56.3551C60.1119 56.7116 59.9588 57.0288 59.7249 57.3067C59.4936 57.5796 59.222 57.767 58.9101 57.869C58.576 57.9783 58.2793 58.0198 58.02 57.9936C57.7645 57.9662 57.5382 57.8902 57.3413 57.7655C57.1481 57.6396 56.957 57.4699 56.7679 57.2564L57.8241 60.4865L56.9776 60.7633L54.3026 52.5821L55.1491 52.3053ZM59.2811 56.1942C59.4224 55.6713 59.3717 55.0385 59.1289 54.296C58.9723 53.817 58.7701 53.4187 58.5224 53.101C58.2784 52.7822 58.0116 52.5632 57.722 52.4442C57.4324 52.3252 57.1428 52.3131 56.8532 52.4077C56.5636 52.5024 56.334 52.6864 56.1645 52.9597C55.9937 53.2292 55.9003 53.5659 55.8844 53.9698C55.8685 54.3736 55.9389 54.815 56.0955 55.294C56.2521 55.7729 56.4567 56.1725 56.7093 56.4926C56.962 56.8128 57.238 57.0349 57.5375 57.1589C57.8357 57.2792 58.1296 57.292 58.4192 57.1973C58.8536 57.0552 59.1409 56.7209 59.2811 56.1942ZM59.9647 50.7246L60.8056 50.4496L61.6633 53.0727L63.9449 52.3206L63.0872 49.6975L63.9411 49.4244L65.8968 55.4058L65.0429 55.6788L64.1943 53.0836L61.9109 53.8302L62.7613 56.431L61.9204 56.706L59.9647 50.7246ZM69.4582 54.4201C68.9533 54.5852 68.4653 54.5885 67.9944 54.4302C67.5234 54.2718 67.118 53.9811 66.7783 53.5579C66.4434 53.1496 66.1916 52.6874 66.0228 52.1713C65.8116 51.5253 65.7218 50.93 65.7533 50.3854C65.7885 49.8396 65.945 49.3754 66.2227 48.9928C66.504 48.609 66.9009 48.3334 67.4133 48.1658C67.9256 47.9983 68.4136 47.9949 68.8772 48.1557C69.792 48.4648 70.4515 49.2376 70.8557 50.4739C71.2697 51.74 71.2027 52.7668 70.6546 53.5542C70.3731 53.9627 69.9743 54.2513 69.4582 54.4201ZM66.8532 49.5449C66.54 50.0953 66.5297 50.8179 66.8222 51.7126C67.2059 52.8859 67.7406 53.5535 68.4265 53.7156C68.672 53.7751 68.9321 53.7599 69.2068 53.67C69.7303 53.4989 70.0523 53.1511 70.1726 52.6268C70.293 52.1025 70.2348 51.4784 69.9981 50.7544C69.6897 49.8113 69.2466 49.2103 68.6688 48.9513C68.3607 48.8136 68.0229 48.8049 67.6554 48.9251C67.2878 49.0452 67.0204 49.2519 66.8532 49.5449ZM72.8472 53.1332L70.8969 47.1685L72.8685 46.5239C73.1581 46.4292 73.4615 46.4019 73.7787 46.4421C74.0947 46.4785 74.3727 46.5807 74.6126 46.7489C74.8537 46.9207 75.0144 47.1292 75.0945 47.3742C75.1698 47.6044 75.1826 47.8386 75.1331 48.0767C75.0835 48.3148 75.0003 48.5064 74.8834 48.6515L74.5441 49.009L75.0349 49.0397C75.2102 49.0604 75.3989 49.122 75.6009 49.2245C76.0122 49.4393 76.2695 49.7045 76.3727 50.0201C76.4819 50.3543 76.4843 50.6884 76.3799 51.0226C76.2792 51.3555 76.0866 51.6528 75.8022 51.9142C75.5215 52.1745 75.1789 52.3708 74.7742 52.5031L72.8472 53.1332ZM72.3647 49.3949L73.5676 49.0016C73.7421 48.9445 73.8915 48.8546 74.0157 48.7318C74.1425 48.604 74.2291 48.4606 74.2757 48.3015C74.3211 48.1387 74.3178 47.9775 74.2655 47.8179C74.2146 47.6619 74.1214 47.5342 73.9861 47.4346C73.8508 47.335 73.6949 47.2729 73.5184 47.2484C73.3419 47.224 73.1682 47.2396 72.9974 47.2955L71.8056 47.6852L72.3647 49.3949ZM72.5814 50.0577L73.2697 52.1628L74.4281 51.7841C74.688 51.6991 74.9098 51.5793 75.0935 51.4247C75.2797 51.2652 75.408 51.0856 75.4783 50.8859C75.5523 50.6849 75.5547 50.4787 75.4855 50.267C75.3848 49.9589 75.121 49.7554 74.6941 49.6566C74.3623 49.5719 74.0331 49.583 73.7063 49.6898L72.5814 50.0577ZM78.815 46.7619C79.0526 46.6842 79.2961 46.6559 79.5455 46.6771C79.7949 46.6983 80.0145 46.7539 80.2042 46.8439C80.3939 46.934 80.5243 47.0372 80.5953 47.1538L80.4204 46.6191C80.2456 46.0845 79.9945 45.7125 79.6671 45.503C79.3385 45.2899 78.9552 45.255 78.5171 45.3982C78.272 45.4784 78.0472 45.595 77.8425 45.7483C77.6415 45.9003 77.4972 46.0625 77.4098 46.235L76.786 45.7978C77.1475 45.2317 77.6401 44.8466 78.2639 44.6426C78.6797 44.5067 79.0807 44.4824 79.4668 44.5699C79.8567 44.6561 80.2027 44.8533 80.5048 45.1614C80.8094 45.4645 81.043 45.8648 81.2057 46.3624L82.3984 50.0102L81.6243 50.2633L81.3402 49.3945C81.3727 49.5565 81.3233 49.7576 81.1923 49.9977C81.0612 50.2379 80.9062 50.4365 80.7275 50.5936C80.5549 50.7445 80.3702 50.8522 80.1734 50.9165C79.7725 51.0476 79.3856 51.0775 79.013 51.0062C78.6441 50.9337 78.3195 50.7706 78.0393 50.517C77.7628 50.2622 77.5596 49.9361 77.4297 49.5389C77.3011 49.1453 77.2755 48.7591 77.353 48.3803C77.433 47.9966 77.6011 47.6622 77.8572 47.3771C78.117 47.0908 78.4363 46.8857 78.815 46.7619ZM80.28 47.5281C79.9276 47.368 79.5658 47.3486 79.1945 47.47C78.9494 47.5501 78.7424 47.6836 78.5733 47.8704C78.4079 48.0559 78.2974 48.2709 78.2416 48.5151C78.1896 48.7582 78.2036 49.0022 78.2838 49.2473C78.3639 49.4923 78.498 49.6951 78.6861 49.8555C78.8741 50.0159 79.091 50.1197 79.3365 50.1668C79.5821 50.2139 79.8292 50.1968 80.078 50.1155C80.3267 50.0341 80.5338 49.9007 80.6991 49.7151C80.8682 49.5283 80.9788 49.3134 81.0308 49.0703C81.0866 48.8261 81.0744 48.5814 80.9943 48.3364C80.8704 47.9577 80.6323 47.6882 80.28 47.5281Z" fill="#212121"/>
<defs>
<filter id="filter0_d_0_1" x="0" y="0" width="149.468" height="90.2168" filterUnits="userSpaceOnUse" color-interpolation-filters="sRGB">
<feFlood flood-opacity="0" result="BackgroundImageFix"/>
<feColorMatrix in="SourceAlpha" type="matrix" values="0 0 0 0 0 0 0 0 0 0 0 0 0 0 0 0 0 0 127 0" result="hardAlpha"/>
<feOffset dy="4"/>
<feGaussianBlur stdDeviation="2"/>
<feComposite in2="hardAlpha" operator="out"/>
<feColorMatrix type="matrix" values="0 0 0 0 0 0 0 0 0 0 0 0 0 0 0 0 0 0 0.25 0"/>
<feBlend mode="normal" in2="BackgroundImageFix" result="effect1_dropShadow_0_1"/>
<feBlend mode="normal" in="SourceGraphic" in2="effect1_dropShadow_0_1" result="shape"/>
</filter>
</defs>
</svg>
