<svg width="190" height="103" viewBox="0 0 190 103" fill="none" xmlns="http://www.w3.org/2000/svg">
<g filter="url(#filter0_d_783_415)">
<path d="M175.645 6.98537C173.978 1.71991 168.359 -1.19773 163.094 0.468636L130.581 10.7579L86.2537 22.7315L10.7737 48.4707C6.03942 50.0851 3.22619 54.9493 4.18775 59.8579L5.10055 64.5176L8.17524 77.5933L11.3153 87.5153C11.5782 88.3461 11.9486 89.139 12.417 89.8738L12.7133 90.3386C15.2169 94.2655 20.0997 95.9444 24.4888 94.3874L57.2643 82.7608L100.883 68.9568L178.258 45.8527C183.255 44.3604 186.267 39.2775 185.175 34.1773L182.908 23.5876C182.736 22.7839 182.465 22.0045 182.102 21.2671L177.002 10.8984C176.78 10.4476 176.593 9.98067 176.441 9.50164L175.645 6.98537Z" fill="#CDF2DF"/>
<path d="M10.9353 48.944C6.43775 50.4777 3.76471 55.0986 4.67818 59.7618L5.58862 64.4026L5.58769 64.4029L8.65566 77.4536L11.7922 87.3647C12.042 88.1538 12.3934 88.9076 12.8384 89.6056L13.1349 90.07C15.5133 93.8005 20.152 95.3951 24.3216 93.916L57.097 82.2897L100.74 68.478L178.115 45.3738C182.863 43.9559 185.723 39.1266 184.686 34.2815L182.418 23.6919C182.255 22.9286 181.999 22.1881 181.654 21.4877L176.554 11.1187C176.321 10.6455 176.124 10.1556 175.965 9.65281L175.168 7.13618C173.585 2.13405 168.247 -0.637661 163.245 0.945285L130.712 11.241L86.3959 23.211L10.9353 48.944Z" stroke="#131C40"/>
</g>
<defs>
<filter id="filter0_d_783_415" x="0" y="0" width="189.398" height="102.964" filterUnits="userSpaceOnUse" color-interpolation-filters="sRGB">
<feFlood flood-opacity="0" result="BackgroundImageFix"/>
<feColorMatrix in="SourceAlpha" type="matrix" values="0 0 0 0 0 0 0 0 0 0 0 0 0 0 0 0 0 0 127 0" result="hardAlpha"/>
<feOffset dy="4"/>
<feGaussianBlur stdDeviation="2"/>
<feComposite in2="hardAlpha" operator="out"/>
<feColorMatrix type="matrix" values="0 0 0 0 0 0 0 0 0 0 0 0 0 0 0 0 0 0 0.25 0"/>
<feBlend mode="normal" in2="BackgroundImageFix" result="effect1_dropShadow_783_415"/>
<feBlend mode="normal" in="SourceGraphic" in2="effect1_dropShadow_783_415" result="shape"/>
</filter>
</defs>
</svg>
