<svg width="217" height="36" viewBox="0 0 217 36" fill="none" xmlns="http://www.w3.org/2000/svg">
<path opacity="0.7" d="M176.048 1.83164C181.109 4.99014 212.94 -0.68121 215.115 0.0691566C217.226 1.22087 217.549 24.3076 216.192 27.8326C215.718 29.089 215.008 29.3333 213.22 28.8971C211.066 28.2514 184.555 31.1831 175.531 32.0905C174.993 31.3925 173.852 33.853 173.507 32.9979C172.861 31.724 151.002 33.8355 110.858 35.1268C107.907 35.2141 110.212 33.8181 106.744 34.3416C99.379 35.4584 83.2483 34.0973 77.6488 35.1966C73.1478 36.0866 72.2001 36.104 67.8929 35.1617C64.124 34.3241 40.1756 34.3416 37.3974 35.7725C36.7298 36.1738 36.2345 35.9993 36.256 35.4758C36.256 35.4235 28.0938 34.6906 28.0291 34.6731C23.9157 34.2718 19.8023 33.7831 19.7807 33.5737C19.6946 33.0502 19.2208 32.7885 18.7255 33.1026C17.864 33.6435 0.204224 34.2194 0.0319219 32.7012C-0.398802 28.391 3.6285 10.487 5.93288 6.21166C8.38802 1.69203 18.8331 7.79964 28.0722 5.5311C74.3969 7.95669 69.6373 7.22377 78.4672 5.72305C79.4794 7.29358 83.356 3.55921 85.768 6.31636C86.7587 7.43318 93.8442 7.69493 95.3948 6.59557C96.0624 6.12441 105.452 6.59557 115.144 6.66537C124.835 6.71772 134.806 6.35126 136.572 4.79819C144.045 7.46808 172.301 2.33769 176.005 1.83164L176.048 1.83164Z" fill="#FFAFE4"/>
</svg>
