<svg width="161" height="59" viewBox="0 0 161 59" fill="none" xmlns="http://www.w3.org/2000/svg">
<g filter="url(#filter0_d_128_30)">
<path d="M157 34.5702C157 42.5839 150.701 49.1822 142.696 49.554L111.564 51L77.95 48.8897H58.9409H39.0045L21.5791 50.8009C20.3733 50.9331 19.1558 50.9186 17.9534 50.7577L17.4768 50.6939C9.82942 49.6701 4.20607 43.0118 4.47639 35.3009L5.15909 15.8276C4.5065 8.30263 9.79225 1.5574 17.255 0.391815L18.6132 0.179676C19.379 0.06007 20.1529 0 20.928 0H52.6818L108.318 1.40689L133.292 0.0655899C134.105 0.0219345 134.92 0.0445175 135.729 0.133118L143.633 0.998451C151.24 1.83135 157 8.25693 157 15.9093V34.5702Z" fill="#C4DEF8"/>
<path d="M77.9814 48.3906L77.9658 48.3896H38.9775L38.9502 48.3926L21.5244 50.3037C20.3588 50.4315 19.1818 50.4173 18.0195 50.2617L17.543 50.1982C10.1506 49.2085 4.71525 42.7722 4.97656 35.3184L5.65918 15.8447L5.66016 15.8145L5.65723 15.7842C5.02747 8.52123 10.1291 2.01079 17.332 0.885742L18.6904 0.673828C19.4306 0.558223 20.1786 0.500013 20.9277 0.5H52.6689L108.306 1.90625L108.325 1.90723L108.345 1.90625L133.319 0.564453C134.105 0.522271 134.893 0.544263 135.675 0.629883L143.578 1.49512C150.931 2.30025 156.5 8.51192 156.5 15.9092V34.5703C156.5 42.3168 150.411 48.6952 142.673 49.0547L111.572 50.5L77.9814 48.3906Z" stroke="#3D2B6C"/>
</g>
<defs>
<filter id="filter0_d_128_30" x="0.467041" y="0" width="160.533" height="59" filterUnits="userSpaceOnUse" color-interpolation-filters="sRGB">
<feFlood flood-opacity="0" result="BackgroundImageFix"/>
<feColorMatrix in="SourceAlpha" type="matrix" values="0 0 0 0 0 0 0 0 0 0 0 0 0 0 0 0 0 0 127 0" result="hardAlpha"/>
<feOffset dy="4"/>
<feGaussianBlur stdDeviation="2"/>
<feComposite in2="hardAlpha" operator="out"/>
<feColorMatrix type="matrix" values="0 0 0 0 0 0 0 0 0 0 0 0 0 0 0 0 0 0 0.25 0"/>
<feBlend mode="normal" in2="BackgroundImageFix" result="effect1_dropShadow_128_30"/>
<feBlend mode="normal" in="SourceGraphic" in2="effect1_dropShadow_128_30" result="shape"/>
</filter>
</defs>
</svg>
