<svg width="325" height="68" viewBox="0 0 325 68" fill="none" xmlns="http://www.w3.org/2000/svg">
<g filter="url(#filter0_d_1_74)">
<path d="M321 42.9076C321 51.0379 314.523 57.6881 306.395 57.9024L226.861 60L157.217 57.5172H117.832H76.5258L36.6606 60L18.7458 58.6382C10.5683 58.0165 4.40594 50.9425 4.91132 42.757L6.31204 20.0701C6.37152 19.1066 6.32803 18.1395 6.18228 17.1852C4.99997 9.4439 10.5974 2.31145 18.3978 1.61966L36.6606 -3.8147e-06H104.864L220.136 1.65517L274.411 -3.8147e-06L306.931 2.02184C314.838 2.51347 321 9.0701 321 16.9929V42.9076Z" fill="#7856A8"/>
<path d="M157.234 57.0176H76.5098L76.4951 57.0186L36.668 59.499L18.7842 58.1396C10.8793 57.5387 4.92181 50.7007 5.41016 42.7881L6.81152 20.1006C6.87316 19.1017 6.82786 18.0987 6.67676 17.1094C5.53817 9.65345 10.9295 2.78445 18.4424 2.11816L36.6826 0.5H104.856L220.129 2.15527H220.151L274.406 0.500977L306.899 2.52051C314.543 2.99575 320.5 9.33442 320.5 16.9932V42.9072C320.5 50.7665 314.238 57.1951 306.382 57.4023L226.866 59.5L157.234 57.0176Z" stroke="#3D2B6C"/>
</g>
<defs>
<filter id="filter0_d_1_74" x="0.882324" y="0" width="324.118" height="68" filterUnits="userSpaceOnUse" color-interpolation-filters="sRGB">
<feFlood flood-opacity="0" result="BackgroundImageFix"/>
<feColorMatrix in="SourceAlpha" type="matrix" values="0 0 0 0 0 0 0 0 0 0 0 0 0 0 0 0 0 0 127 0" result="hardAlpha"/>
<feOffset dy="4"/>
<feGaussianBlur stdDeviation="2"/>
<feComposite in2="hardAlpha" operator="out"/>
<feColorMatrix type="matrix" values="0 0 0 0 0 0 0 0 0 0 0 0 0 0 0 0 0 0 0.25 0"/>
<feBlend mode="normal" in2="BackgroundImageFix" result="effect1_dropShadow_1_74"/>
<feBlend mode="normal" in="SourceGraphic" in2="effect1_dropShadow_1_74" result="shape"/>
</filter>
</defs>
</svg>
