<svg width="771" height="1162" viewBox="0 0 771 1162" fill="none" xmlns="http://www.w3.org/2000/svg">
<path d="M0 18C0 8.05887 8.05887 0 18 0H753C762.941 0 771 8.05888 771 18V1144C771 1153.94 762.941 1162 753 1162H18C8.05888 1162 0 1153.94 0 1144V18Z" fill="#374A9A"/>
<path d="M56.0002 1062.46L56.0003 1000.32C56.0003 986.673 56 974.052 56 960.536C56.0003 943.126 56.0002 919.73 56.0001 903.662L56.0001 891.064C56.0001 848.594 61.2118 807.643 61.2118 765.173V473.546V215.894V140.864C61.2118 125.478 61.2118 93.4337 64.1234 80.2418C64.1234 63.752 81.9006 34.0511 85.4469 32.421C91.3319 29.7161 107.231 27.6107 113.13 27.6107H464.628H647.27C659.621 27.6107 673.909 25.0919 685.206 30.2847C693.401 34.0513 706.378 44.7872 710.237 58.7554C711.497 63.3167 710.628 70.8077 710.628 75.7434C710.628 84.3456 711.864 82.7623 713.952 88.6417C716.19 94.943 714.148 112.276 714.148 119.629V183.334V694.39V821.8V885.505C714.148 901.329 714.148 912.889 712.485 932.38V960.731C712.485 980.567 708.868 995.82 708.868 1015.17C708.868 1025.87 710.539 1053.06 708.868 1062.46C706.567 1075.42 704.031 1109.2 692.661 1119.11C679.102 1129 655.406 1127.35 642.207 1127.35C628.714 1127.35 622.793 1123.34 609.3 1123.34H594.166H578.633H557.513H478.316H312.882C254.152 1123.34 194.71 1126.17 136.889 1126.17C123.587 1126.17 110.097 1129 97.2904 1129C91.1656 1129 84.3644 1123.86 78.8111 1123.34C73.0853 1122.8 68.0664 1110.74 64.847 1100.96C58.8027 1082.59 56.0002 1084.05 56.0002 1062.46Z" fill="#F9F9F9" stroke="black" stroke-linecap="round"/>
<path opacity="0.85" d="M711.808 1036.26C710.707 1035.75 709.34 1035.51 708.543 1034.7C704.487 1030.56 701.299 1032.64 698.846 1036.25C694.578 1042.52 690.755 1049.1 686.623 1055.47C685.753 1056.82 684.583 1058.18 683.237 1058.97C679.838 1060.99 677.212 1061.49 674.924 1056.7C671.539 1049.63 671.48 1041.96 669.557 1034.66C667.858 1028.15 666.911 1027.42 661.449 1031.32C654.928 1035.99 648.431 1040.67 642.068 1045.56C639.657 1047.4 637.135 1048.36 634.709 1046.61C632.541 1045.06 632.741 1042.82 633.833 1040.07C635.407 1036.11 634.785 1031.59 635.703 1027.32C636.879 1021.82 634.847 1020.37 629.029 1021.7C623.599 1022.95 618.191 1024.36 612.738 1025.5C609.461 1026.18 605.763 1026.7 603.354 1023.97C601.017 1021.32 602.493 1017.98 603.774 1015.2C606.101 1010.14 608.677 1005.18 611.264 1000.26C613.761 995.527 613.321 991.971 608.401 988.799C599.251 982.914 591.02 975.742 581.564 970.224C577.429 967.81 580.362 965.353 583.299 964.124C591.834 960.556 600.369 956.951 609.047 953.77C612.984 952.334 613.218 951.048 610.55 948.063C603.539 940.203 597.727 931.508 592.796 922.194C590.392 917.638 591.645 914.978 597.045 914.051C603.032 913.021 608.955 914.348 614.925 914.361C627.924 914.404 627.897 914.552 624.76 901.608C623.208 895.217 621.845 888.779 620.269 882.4C619.755 880.307 619.154 878.237 621.222 876.783C623.177 875.401 625.233 876.155 627.059 877.29C631.981 880.337 636.866 883.433 641.737 886.542C647.151 890.007 648.343 889.531 649.889 883.526C651.74 876.361 652.263 868.949 654.525 861.84C655.537 858.668 656.305 855.976 660.201 855.557C664.084 855.15 667.093 856.329 669.205 859.69C671.269 862.987 673.27 866.346 675.548 869.486C679.155 874.472 681.799 874.33 685.519 869.503C688.653 865.423 691.764 861.269 695.376 857.619C699.75 853.2 704.427 854.531 707.087 860.209C709.578 865.548 710.725 871.511 714.459 876.301L711.795 1036.26L711.808 1036.26Z" fill="#374A9A"/>
<path opacity="0.85" d="M509.061 217.056C509.738 214.682 513.808 213.635 512.571 211.174C511.793 209.618 508.486 209.302 506.279 208.542C501.18 206.774 496.756 203.711 492.082 201.124C491.215 200.642 490.037 200.171 490.388 198.814C490.682 197.681 491.705 197.234 492.737 196.94C497.502 195.576 502.233 194.063 507.051 192.939C509.773 192.3 510.311 191.465 508.755 189.015C504.664 182.587 501.719 175.56 498.697 168.579C497.222 165.166 497.953 164.03 501.754 164.44C506.556 164.951 511.357 165.63 515.899 167.415C518.121 168.289 520.428 168.615 522.773 168.843C524.902 165.5 523.918 161.644 524.395 158.051C524.854 154.575 525.124 151.041 525.801 147.604C526.714 142.938 528.37 142.436 531.986 145.386C532.491 145.793 533.036 146.141 533.58 146.498C537.39 150.713 539.635 155.962 542.702 160.672C545 164.202 546.119 164.304 548.067 160.559C551.156 154.626 556.025 150.176 560.156 145.117C562.954 141.693 565.101 142.26 566.359 146.474C568.598 153.952 569.045 161.72 569.424 169.462C569.586 172.801 570.582 173.094 573.464 171.823C581.199 168.402 588.773 164.549 597.079 162.519C600.338 161.725 601.042 162.8 600.631 165.819C599.886 171.308 597.269 176.029 594.773 180.791C590.821 188.336 590.811 188.239 598.134 192.328C604.516 195.892 610.594 199.924 615.961 204.959C616.988 205.928 618.384 206.82 617.823 208.547C617.296 210.143 615.793 210.402 614.361 210.719C608.245 212.052 602.148 213.476 596.024 214.76C592.969 215.399 592.465 216.726 593.468 219.777C596.089 227.748 598.278 235.858 600.576 243.928C601.036 245.552 601.593 247.549 599.879 248.633C598.346 249.607 596.873 248.2 595.648 247.339C590.089 243.444 584.582 239.46 579.103 235.449C576.518 233.557 574.796 233.521 573.879 237.148C572.723 241.732 571.307 246.255 569.983 250.799C569.69 251.805 569.423 252.854 568.944 253.777C567.944 255.69 567.635 258.603 565.125 258.816C562.462 259.039 561.872 256.262 560.909 254.279C558.049 248.384 555.037 242.563 552.322 236.601C550.95 233.585 549.467 234.095 547.339 235.64C542.335 239.249 537.959 243.577 533.302 247.594C532.409 248.363 531.487 249.112 530.515 249.765C529.375 250.539 528.123 250.818 526.82 250.114C525.333 249.312 525.627 247.963 525.742 246.645C526.262 240.612 526.657 234.57 527.34 228.56C527.655 225.831 526.832 224.924 524.201 225.319C521.755 225.692 519.301 226.177 516.802 225.695C513.853 226.15 510.824 224.594 507.914 226.061L507.933 226.04C506.639 226.28 505.221 226.503 504.523 225.11C503.72 223.502 504.875 222.45 505.993 221.489C507.393 220.281 508.317 218.733 509.046 217.054L509.061 217.056Z" fill="#F7B5D7"/>
<path opacity="0.9" d="M180.833 948.298C183.119 947.367 186.452 949.927 187.628 947.437C188.374 945.864 186.584 943.065 185.822 940.859C184.072 935.754 183.757 930.382 182.914 925.107C182.759 924.127 182.404 922.91 183.688 922.349C184.763 921.883 185.744 922.413 186.612 923.044C190.623 925.956 194.73 928.749 198.586 931.85C200.766 933.6 201.755 933.509 202.725 930.774C205.267 923.59 208.984 916.941 212.619 910.258C214.398 906.993 215.743 906.869 217.763 910.115C220.32 914.21 222.744 918.41 224.138 923.087C224.819 925.375 225.985 927.393 227.251 929.38C231.196 928.996 233.625 925.845 236.749 924.005C239.769 922.225 242.719 920.26 245.842 918.674C250.08 916.517 251.495 917.512 251.401 922.178C251.392 922.826 251.453 923.471 251.508 924.119C250.536 929.717 247.787 934.72 245.968 940.037C244.605 944.023 245.214 944.967 249.363 944.193C255.94 942.969 262.445 944.06 268.975 944.195C273.396 944.288 274.272 946.328 271.729 949.917C267.221 956.289 261.379 961.428 255.516 966.498C252.986 968.684 253.369 969.649 256.146 971.136C263.608 975.118 271.31 978.707 278.028 983.997C280.662 986.074 280.249 987.29 277.619 988.827C272.837 991.624 267.506 992.473 262.218 993.443C253.84 994.982 253.911 994.914 255.204 1003.2C256.331 1010.42 256.902 1017.69 256.245 1025.02C256.115 1026.43 256.272 1028.08 254.567 1028.7C252.985 1029.27 251.855 1028.25 250.723 1027.31C245.904 1023.32 241.025 1019.4 236.239 1015.36C233.853 1013.35 232.497 1013.77 230.712 1016.44C226.051 1023.42 221.013 1030.14 216.075 1036.93C215.08 1038.29 213.851 1039.96 211.94 1039.28C210.229 1038.67 210.429 1036.64 210.351 1035.15C209.993 1028.37 209.736 1021.58 209.518 1014.79C209.415 1011.59 208.381 1010.21 204.96 1011.72C200.638 1013.64 196.203 1015.31 191.809 1017.07C190.836 1017.46 189.845 1017.89 188.823 1018.09C186.701 1018.48 184.216 1020.03 182.501 1018.18C180.685 1016.23 182.508 1014.05 183.475 1012.07C186.355 1006.18 189.082 1000.22 192.105 994.411C193.633 991.472 192.318 990.618 189.79 989.895C183.864 988.179 177.759 987.4 171.725 986.209C170.569 985.979 169.411 985.714 168.297 985.352C166.985 984.932 165.994 984.117 165.745 982.657C165.46 980.992 166.704 980.392 167.813 979.67C172.884 976.362 177.886 972.948 183.039 969.783C185.382 968.349 185.59 967.141 183.657 965.313C181.855 963.617 179.961 961.983 178.8 959.718C176.625 957.676 175.983 954.332 173.034 952.945L173.063 952.946C172.076 952.076 171.026 951.096 171.693 949.687C172.465 948.064 174.005 948.326 175.45 948.614C177.265 948.971 179.053 948.745 180.825 948.284L180.833 948.298Z" fill="#F7BFDC"/>
</svg>
