<svg width="660" height="1103" viewBox="0 0 660 1103" fill="none" xmlns="http://www.w3.org/2000/svg">
<path d="M0.500223 1035.96L0.500332 973.823C0.500332 960.173 0.5 947.552 0.5 934.036C0.500252 916.626 0.500182 893.23 0.500134 877.162L0.500106 864.564C0.500106 822.094 5.71179 781.143 5.71179 738.673V447.046V189.394V114.364C5.71179 98.978 5.71179 66.9337 8.62337 53.7418C8.62337 37.252 26.4006 7.55115 29.9469 5.92102C35.8319 3.21606 51.7306 1.11072 57.6299 1.11072H409.128H591.77C604.121 1.11072 618.409 -1.40808 629.706 3.78467C637.901 7.55127 650.878 18.2872 654.737 32.2554C655.997 36.8167 655.128 44.3077 655.128 49.2434C655.128 57.8456 656.364 56.2623 658.452 62.1417C660.69 68.443 658.648 85.7757 658.648 93.129V156.834V667.89V795.3V859.005C658.648 874.829 658.648 886.389 656.985 905.88V934.231C656.985 954.067 653.368 969.32 653.368 988.671C653.368 999.372 655.039 1026.56 653.368 1035.96C651.067 1048.92 648.531 1082.7 637.161 1092.61C623.602 1102.5 599.906 1100.85 586.707 1100.85C573.214 1100.85 567.293 1096.84 553.8 1096.84H538.666H523.133H502.013H422.816H257.382C198.652 1096.84 139.21 1099.67 81.389 1099.67C68.0867 1099.67 54.5975 1102.5 41.7904 1102.5C35.6656 1102.5 28.8644 1097.36 23.3111 1096.84C17.5853 1096.3 12.5664 1084.24 9.34704 1074.46C3.3027 1056.09 0.500223 1057.55 0.500223 1035.96Z" fill="#F9F9F9" stroke="black" stroke-linecap="round"/>
<path opacity="0.85" d="M656.308 1009.76C655.207 1009.25 653.84 1009.01 653.043 1008.2C648.987 1004.06 645.799 1006.14 643.346 1009.75C639.078 1016.02 635.255 1022.6 631.123 1028.97C630.253 1030.32 629.083 1031.68 627.737 1032.47C624.338 1034.49 621.712 1034.99 619.424 1030.2C616.039 1023.13 615.98 1015.46 614.057 1008.16C612.358 1001.65 611.411 1000.92 605.949 1004.82C599.428 1009.49 592.931 1014.17 586.568 1019.06C584.157 1020.9 581.635 1021.86 579.209 1020.11C577.041 1018.56 577.241 1016.32 578.333 1013.57C579.907 1009.61 579.285 1005.09 580.203 1000.82C581.379 995.319 579.347 993.871 573.529 995.201C568.099 996.451 562.691 997.862 557.238 999C553.961 999.677 550.263 1000.2 547.854 997.466C545.517 994.822 546.993 991.484 548.274 988.701C550.601 983.64 553.177 978.682 555.764 973.762C558.261 969.027 557.821 965.471 552.901 962.299C543.751 956.414 535.52 949.242 526.064 943.724C521.929 941.31 524.862 938.853 527.799 937.624C536.334 934.056 544.869 930.451 553.547 927.27C557.484 925.834 557.718 924.548 555.05 921.563C548.039 913.703 542.227 905.008 537.296 895.694C534.892 891.138 536.145 888.478 541.545 887.551C547.532 886.521 553.455 887.848 559.425 887.861C572.424 887.904 572.397 888.052 569.26 875.108C567.708 868.717 566.345 862.279 564.769 855.9C564.255 853.807 563.654 851.737 565.722 850.283C567.677 848.901 569.733 849.655 571.559 850.79C576.481 853.837 581.366 856.933 586.237 860.042C591.651 863.507 592.843 863.031 594.389 857.026C596.24 849.861 596.763 842.449 599.025 835.34C600.037 832.168 600.805 829.476 604.701 829.057C608.584 828.65 611.593 829.829 613.705 833.19C615.769 836.487 617.77 839.846 620.048 842.986C623.655 847.972 626.299 847.83 630.019 843.003C633.153 838.923 636.264 834.769 639.876 831.119C644.25 826.7 648.927 828.031 651.587 833.709C654.078 839.048 655.225 845.011 658.959 849.801L656.295 1009.76L656.308 1009.76Z" fill="#374A9A"/>
<path opacity="0.85" d="M453.561 190.556C454.238 188.182 458.308 187.135 457.071 184.674C456.293 183.118 452.986 182.802 450.779 182.042C445.68 180.274 441.256 177.211 436.582 174.624C435.715 174.142 434.537 173.671 434.888 172.314C435.182 171.181 436.205 170.734 437.237 170.44C442.002 169.076 446.733 167.563 451.551 166.439C454.273 165.8 454.811 164.965 453.255 162.515C449.164 156.087 446.219 149.06 443.197 142.079C441.722 138.666 442.453 137.53 446.254 137.94C451.056 138.451 455.857 139.13 460.399 140.915C462.621 141.789 464.928 142.115 467.273 142.343C469.402 139 468.418 135.144 468.895 131.551C469.354 128.075 469.624 124.541 470.301 121.104C471.214 116.438 472.87 115.936 476.486 118.886C476.991 119.293 477.536 119.641 478.08 119.998C481.89 124.213 484.135 129.462 487.202 134.172C489.5 137.702 490.619 137.804 492.567 134.059C495.656 128.126 500.525 123.676 504.656 118.617C507.454 115.193 509.601 115.76 510.859 119.974C513.098 127.452 513.545 135.22 513.924 142.962C514.086 146.301 515.082 146.594 517.964 145.323C525.699 141.902 533.273 138.049 541.579 136.019C544.838 135.225 545.542 136.3 545.131 139.319C544.386 144.808 541.769 149.529 539.273 154.291C535.321 161.836 535.311 161.739 542.634 165.828C549.016 169.392 555.094 173.424 560.461 178.459C561.488 179.428 562.884 180.32 562.323 182.047C561.796 183.643 560.293 183.902 558.861 184.219C552.745 185.552 546.648 186.976 540.524 188.26C537.469 188.899 536.965 190.226 537.968 193.277C540.589 201.248 542.778 209.358 545.076 217.428C545.536 219.052 546.093 221.049 544.379 222.133C542.846 223.107 541.373 221.7 540.148 220.839C534.589 216.944 529.082 212.96 523.603 208.949C521.018 207.057 519.296 207.021 518.379 210.648C517.223 215.232 515.807 219.755 514.483 224.299C514.19 225.305 513.923 226.354 513.444 227.277C512.444 229.19 512.135 232.103 509.625 232.316C506.962 232.539 506.372 229.762 505.409 227.779C502.549 221.884 499.537 216.063 496.822 210.101C495.45 207.085 493.967 207.595 491.839 209.14C486.835 212.749 482.459 217.077 477.802 221.094C476.909 221.863 475.987 222.612 475.015 223.265C473.875 224.039 472.623 224.318 471.32 223.614C469.833 222.812 470.127 221.463 470.242 220.145C470.762 214.112 471.157 208.07 471.84 202.06C472.155 199.331 471.332 198.424 468.701 198.819C466.255 199.192 463.801 199.677 461.302 199.195C458.353 199.65 455.324 198.094 452.414 199.561L452.433 199.54C451.139 199.78 449.721 200.003 449.023 198.61C448.22 197.002 449.375 195.95 450.493 194.989C451.893 193.781 452.817 192.233 453.546 190.554L453.561 190.556Z" fill="#F7B5D7"/>
<path opacity="0.9" d="M125.333 921.798C127.619 920.867 130.952 923.427 132.128 920.937C132.874 919.364 131.084 916.565 130.322 914.359C128.572 909.254 128.257 903.882 127.414 898.607C127.259 897.627 126.904 896.41 128.188 895.849C129.263 895.383 130.244 895.913 131.112 896.544C135.123 899.456 139.23 902.249 143.086 905.35C145.266 907.1 146.255 907.009 147.225 904.274C149.767 897.09 153.484 890.441 157.119 883.758C158.898 880.493 160.243 880.369 162.263 883.615C164.82 887.71 167.244 891.91 168.638 896.587C169.319 898.875 170.485 900.893 171.751 902.88C175.696 902.496 178.125 899.345 181.249 897.505C184.269 895.725 187.219 893.76 190.342 892.174C194.58 890.017 195.995 891.012 195.901 895.678C195.892 896.326 195.953 896.971 196.008 897.619C195.036 903.217 192.287 908.22 190.468 913.537C189.105 917.523 189.714 918.467 193.863 917.693C200.44 916.469 206.945 917.56 213.475 917.695C217.896 917.788 218.772 919.828 216.229 923.417C211.721 929.789 205.879 934.928 200.016 939.998C197.486 942.184 197.869 943.149 200.646 944.636C208.108 948.618 215.81 952.207 222.528 957.497C225.162 959.574 224.749 960.79 222.119 962.327C217.337 965.124 212.006 965.973 206.718 966.943C198.34 968.482 198.411 968.414 199.704 976.7C200.831 983.923 201.402 991.194 200.745 998.523C200.615 999.93 200.772 1001.58 199.067 1002.2C197.485 1002.77 196.355 1001.75 195.223 1000.81C190.404 996.82 185.525 992.896 180.739 988.864C178.353 986.852 176.997 987.273 175.212 989.943C170.551 996.92 165.513 1003.64 160.575 1010.43C159.58 1011.79 158.351 1013.46 156.44 1012.78C154.729 1012.17 154.929 1010.14 154.851 1008.65C154.493 1001.87 154.236 995.078 154.018 988.291C153.915 985.089 152.881 983.71 149.46 985.223C145.138 987.139 140.703 988.811 136.309 990.569C135.336 990.959 134.345 991.395 133.323 991.587C131.201 991.978 128.716 993.531 127.001 991.685C125.185 989.725 127.008 987.549 127.975 985.569C130.855 979.684 133.582 973.724 136.605 967.911C138.133 964.972 136.818 964.118 134.29 963.395C128.364 961.679 122.259 960.9 116.225 959.709C115.069 959.479 113.911 959.214 112.797 958.852C111.485 958.432 110.494 957.617 110.245 956.157C109.96 954.492 111.204 953.892 112.313 953.17C117.384 949.862 122.386 946.448 127.539 943.283C129.882 941.849 130.09 940.641 128.157 938.813C126.355 937.117 124.461 935.483 123.3 933.218C121.125 931.176 120.483 927.832 117.534 926.445L117.563 926.446C116.576 925.576 115.526 924.596 116.193 923.187C116.965 921.564 118.505 921.826 119.95 922.114C121.765 922.471 123.553 922.245 125.325 921.784L125.333 921.798Z" fill="#F7BFDC"/>
</svg>
