<svg width="330" height="628" viewBox="0 0 330 628" fill="none" xmlns="http://www.w3.org/2000/svg">
<path d="M0 18C0 8.05889 8.05888 0 18 0H312C321.941 0 330 8.05888 330 18V610C330 619.941 321.941 628 312 628H18C8.05888 628 0 619.941 0 610V18Z" fill="#374A9A"/>
<path d="M16.0001 575.015L16.0002 541.407L16 519.889C16.0001 510.473 16.0001 497.819 16.0001 489.13L16 482.316C16 459.346 18.3568 437.199 18.3568 414.23V256.508V117.161V76.5817C18.3568 68.2604 18.3568 50.9297 19.6734 43.795C19.6734 34.8767 27.7122 18.8135 29.3159 17.9319C31.9771 16.4689 39.1665 15.3303 41.8341 15.3303H200.782H283.372C288.958 15.3303 295.419 13.968 300.527 16.7765C304.233 18.8135 310.101 24.6199 311.846 32.1744C312.416 34.6413 312.023 38.6927 312.023 41.3621C312.023 46.0145 312.582 45.1582 313.526 48.338C314.538 51.7459 313.615 61.1201 313.615 65.097V99.5509V375.948V444.856V479.31C313.615 487.867 313.615 494.12 312.863 504.661V519.994C312.863 530.722 311.227 538.971 311.227 549.437C311.227 555.225 311.982 569.927 311.227 575.015C310.187 582.02 309.04 600.293 303.898 605.649C297.767 611 287.052 610.108 281.083 610.108C274.981 610.108 272.304 607.937 266.203 607.937H259.359H252.335H242.784H206.972H132.162C105.604 607.937 78.7245 609.469 52.578 609.469C46.5627 609.469 40.4629 611 34.6716 611C31.9019 611 28.8264 608.222 26.3152 607.937C23.726 607.644 21.4564 601.123 20.0006 595.832C17.2674 585.899 16.0001 586.692 16.0001 575.015Z" fill="#F9F9F9" stroke="black" stroke-linecap="round"/>
<path opacity="0.85" d="M313.358 542.098C312.763 541.827 312.023 541.694 311.593 541.257C309.399 539.02 307.675 540.145 306.348 542.096C304.041 545.486 301.973 549.041 299.739 552.486C299.268 553.216 298.636 553.951 297.908 554.381C296.07 555.471 294.65 555.743 293.412 553.152C291.582 549.331 291.55 545.184 290.511 541.235C289.592 537.717 289.08 537.319 286.126 539.431C282.599 541.955 279.086 544.487 275.645 547.127C274.341 548.125 272.978 548.645 271.666 547.698C270.494 546.86 270.602 545.647 271.192 544.16C272.044 542.021 271.707 539.573 272.204 537.266C272.84 534.291 271.741 533.508 268.595 534.227C265.658 534.903 262.734 535.666 259.785 536.281C258.013 536.648 256.013 536.93 254.71 535.452C253.447 534.022 254.245 532.217 254.937 530.712C256.196 527.975 257.589 525.294 258.988 522.634C260.338 520.073 260.1 518.15 257.44 516.435C252.492 513.253 248.041 509.374 242.927 506.39C240.691 505.085 242.277 503.756 243.865 503.091C248.481 501.162 253.096 499.213 257.789 497.493C259.918 496.716 260.044 496.02 258.602 494.406C254.811 490.156 251.667 485.454 249.001 480.418C247.701 477.954 248.379 476.516 251.299 476.014C254.536 475.457 257.739 476.175 260.968 476.182C267.997 476.205 267.982 476.285 266.286 469.285C265.447 465.829 264.71 462.348 263.857 458.899C263.579 457.767 263.254 456.648 264.373 455.861C265.43 455.114 266.542 455.521 267.529 456.135C270.191 457.783 272.832 459.457 275.466 461.138C278.394 463.012 279.039 462.755 279.874 459.508C280.876 455.633 281.158 451.625 282.382 447.78C282.929 446.065 283.344 444.609 285.451 444.383C287.551 444.163 289.178 444.8 290.32 446.618C291.436 448.401 292.518 450.217 293.75 451.915C295.7 454.611 297.131 454.535 299.142 451.924C300.837 449.718 302.519 447.472 304.473 445.498C306.838 443.108 309.367 443.828 310.805 446.898C312.152 449.786 312.772 453.01 314.792 455.6L313.351 542.098L313.358 542.098Z" fill="#374A9A"/>
<path opacity="0.85" d="M231.817 117.477C232.183 116.193 234.384 115.627 233.715 114.297C233.294 113.455 231.506 113.284 230.313 112.873C227.555 111.917 225.163 110.261 222.635 108.862C222.166 108.601 221.529 108.347 221.719 107.613C221.878 107 222.431 106.758 222.989 106.599C225.566 105.862 228.124 105.044 230.73 104.435C232.202 104.09 232.493 103.639 231.651 102.314C229.439 98.8374 227.847 95.038 226.212 91.2629C225.415 89.417 225.81 88.803 227.866 89.0245C230.462 89.3009 233.058 89.6681 235.514 90.6334C236.716 91.1059 237.964 91.2823 239.232 91.4055C240.383 89.5975 239.851 87.5125 240.109 85.5695C240.357 83.69 240.503 81.7788 240.869 79.9202C241.363 77.3969 242.258 77.1259 244.214 78.7206C244.487 78.9408 244.782 79.1294 245.076 79.3223C247.136 81.6017 248.35 84.44 250.008 86.9868C251.251 88.8956 251.856 88.9509 252.91 86.9259C254.58 83.7176 257.213 81.3109 259.447 78.5755C260.96 76.7236 262.121 77.0304 262.801 79.3092C264.012 83.3529 264.254 87.5534 264.459 91.7401C264.546 93.5461 265.085 93.7044 266.644 93.0172C270.826 91.1668 274.922 89.0836 279.414 87.9857C281.176 87.5563 281.556 88.1374 281.334 89.77C280.931 92.7384 279.516 95.2913 278.166 97.8665C276.03 101.947 276.024 101.894 279.984 104.105C283.435 106.032 286.722 108.213 289.624 110.936C290.18 111.459 290.934 111.942 290.631 112.876C290.346 113.739 289.533 113.879 288.759 114.05C285.452 114.771 282.155 115.541 278.843 116.235C277.191 116.581 276.918 117.299 277.461 118.949C278.878 123.259 280.062 127.645 281.304 132.008C281.553 132.886 281.855 133.966 280.928 134.553C280.099 135.079 279.302 134.319 278.64 133.853C275.634 131.747 272.656 129.593 269.693 127.423C268.295 126.4 267.364 126.381 266.868 128.342C266.243 130.821 265.477 133.267 264.761 135.724C264.603 136.268 264.458 136.835 264.199 137.334C263.658 138.369 263.491 139.944 262.134 140.059C260.694 140.18 260.375 138.678 259.854 137.606C258.308 134.418 256.679 131.271 255.211 128.046C254.469 126.416 253.667 126.691 252.516 127.527C249.81 129.478 247.444 131.819 244.926 133.991C244.443 134.407 243.944 134.812 243.418 135.165C242.802 135.584 242.125 135.734 241.42 135.354C240.616 134.92 240.775 134.191 240.837 133.478C241.119 130.215 241.332 126.948 241.702 123.698C241.872 122.223 241.427 121.732 240.004 121.945C238.681 122.147 237.354 122.409 236.003 122.149C234.408 122.395 232.77 121.554 231.197 122.347L231.207 122.335C230.507 122.465 229.74 122.586 229.363 121.832C228.929 120.963 229.553 120.394 230.158 119.875C230.915 119.221 231.414 118.384 231.809 117.476L231.817 117.477Z" fill="#F7B5D7"/>
<path opacity="0.9" d="M54.324 512.903C55.5603 512.4 57.3628 513.785 57.9984 512.438C58.4019 511.588 57.4341 510.074 57.0222 508.881C56.0757 506.121 55.9055 503.216 55.4494 500.363C55.3658 499.833 55.1736 499.175 55.8683 498.872C56.4491 498.62 56.9801 498.906 57.4491 499.248C59.6183 500.822 61.8393 502.332 63.9243 504.01C65.103 504.956 65.6379 504.906 66.1627 503.428C67.5369 499.543 69.5474 495.947 71.5129 492.333C72.475 490.567 73.2022 490.5 74.2946 492.256C75.6772 494.471 76.9883 496.741 77.7418 499.27C78.1104 500.508 78.7404 501.599 79.4251 502.674C81.5584 502.466 82.8723 500.762 84.5612 499.767C86.1944 498.805 87.7895 497.742 89.4785 496.884C91.77 495.718 92.5353 496.256 92.4848 498.779C92.4798 499.13 92.5129 499.478 92.5423 499.828C92.017 502.856 90.5302 505.561 89.5467 508.437C88.8095 510.592 89.1388 511.102 91.3827 510.684C94.9389 510.022 98.4569 510.612 101.988 510.685C104.379 510.735 104.853 511.839 103.477 513.779C101.039 517.225 97.8804 520.004 94.7098 522.746C93.3415 523.928 93.549 524.45 95.0507 525.253C99.0858 527.407 103.25 529.348 106.884 532.209C108.308 533.331 108.085 533.989 106.662 534.82C104.076 536.333 101.194 536.792 98.3338 537.316C93.8037 538.148 93.8418 538.112 94.5412 542.592C95.1507 546.498 95.4593 550.431 95.1038 554.394C95.0339 555.154 95.1188 556.046 94.1964 556.382C93.3412 556.69 92.7301 556.136 92.1179 555.633C89.5119 553.472 86.8736 551.35 84.2855 549.17C82.9955 548.083 82.262 548.31 81.297 549.754C78.7761 553.527 76.0521 557.162 73.3817 560.83C72.8436 561.567 72.179 562.47 71.1459 562.102C70.2203 561.774 70.3286 560.677 70.2866 559.869C70.0926 556.203 69.9536 552.531 69.8359 548.86C69.78 547.129 69.2212 546.383 67.3711 547.202C65.034 548.237 62.6358 549.142 60.2594 550.093C59.7336 550.303 59.1977 550.539 58.6448 550.643C57.4972 550.854 56.1535 551.694 55.2264 550.696C54.2441 549.636 55.23 548.459 55.753 547.388C57.3104 544.206 58.7852 540.983 60.4195 537.84C61.2461 536.25 60.5349 535.789 59.1676 535.398C55.9634 534.47 52.6617 534.049 49.3989 533.404C48.7738 533.28 48.1476 533.137 47.5453 532.941C46.8359 532.714 46.3 532.273 46.1654 531.484C46.0111 530.583 46.6835 530.259 47.2834 529.868C50.0257 528.079 52.7303 526.234 55.5172 524.522C56.7841 523.746 56.8964 523.093 55.8512 522.105C54.8769 521.188 53.8529 520.304 53.2249 519.079C52.0487 517.975 51.7014 516.167 50.1071 515.416L50.1224 515.417C49.5887 514.947 49.021 514.417 49.3817 513.655C49.7989 512.777 50.6316 512.919 51.4135 513.075C52.3946 513.268 53.3617 513.145 54.3197 512.896L54.324 512.903Z" fill="#F7BFDC"/>
</svg>
