<svg width="356" height="489" viewBox="0 0 356 489" fill="none" xmlns="http://www.w3.org/2000/svg">
<path d="M104.091 487.67C105.218 487.886 106.367 487.962 107.513 487.897L181.789 483.697C182.57 483.653 183.352 483.667 184.131 483.737L229.594 487.843C230.701 487.943 231.817 487.911 232.917 487.747L272.886 481.791C274.447 481.558 276.034 481.558 277.596 481.79L314.455 487.267C317.49 487.717 320.589 487.159 323.275 485.677L347.687 472.209C352.189 469.725 354.968 464.974 354.924 459.832L352.303 151.768V151.753L352.304 151.739L354.798 25.4756C354.912 19.724 351.496 14.4879 346.186 12.2754L321.706 2.07715C320 1.36637 318.169 1 316.321 1H54.4668C53.1385 1.00001 51.817 1.18914 50.542 1.56152L11.0752 13.0889C5.10433 14.8328 1 20.307 1 26.5273V456.364C1.00004 463.081 5.77082 468.851 12.3682 470.114L104.091 487.67Z" stroke="#C4DEF8" stroke-width="2"/>
</svg>
