<svg width="356" height="481" viewBox="0 0 356 481" fill="none" xmlns="http://www.w3.org/2000/svg">
<path d="M104.116 1.31934C105.226 1.11045 106.357 1.03692 107.484 1.09961L181.808 5.2334C182.575 5.27609 183.345 5.26334 184.111 5.19531L229.621 1.15234C230.711 1.05555 231.808 1.08648 232.891 1.24512L272.924 7.11328C274.46 7.33844 276.021 7.33879 277.558 7.11426L314.528 1.71094C317.52 1.27374 320.573 1.8168 323.23 3.25879L347.6 16.4834C352.15 18.9528 354.967 23.7318 354.922 28.9092L352.303 331.716V331.729L352.304 331.744L354.794 455.707C354.91 461.49 351.458 466.75 346.105 468.943L321.676 478.954C319.991 479.644 318.188 480 316.367 480H54.4336C53.1259 480 51.8242 479.817 50.5674 479.456L11.1348 468.127C5.1343 466.403 1 460.914 1 454.671V32.3428L1.01367 31.7148C1.30098 25.2532 5.99999 19.7918 12.4102 18.585L104.116 1.31934Z" stroke="#C4DEF8" stroke-width="2"/>
</svg>
