<svg width="1200" height="705" viewBox="0 0 1200 705" fill="none" xmlns="http://www.w3.org/2000/svg">
<path d="M927.714 694.561L927.777 694.556L927.841 694.56L1074.2 703.86C1075.58 703.948 1076.96 703.832 1078.3 703.515L1187.98 677.637C1194.4 676.122 1198.89 670.329 1198.76 663.732L1189.91 218.812V218.78L1189.91 218.747L1198.39 35.1357C1198.72 28.1137 1193.78 21.9393 1186.86 20.7061L1077.49 1.2168C1076.68 1.07242 1075.86 1.00003 1075.04 1H176.425L13.2646 21.3818C6.25816 22.2571 1 28.2135 1 35.2744V662.005C1 669.294 6.59277 675.364 13.8574 675.959L356.394 703.999L616.643 697.706L616.674 697.705L616.705 697.706L779.614 703.999L927.714 694.561Z" fill="#7856A8" stroke="#392962" stroke-width="2"/>
</svg>
