<svg width="356" height="481" viewBox="0 0 356 481" fill="none" xmlns="http://www.w3.org/2000/svg">
<path d="M251.884 479.681C250.774 479.89 249.643 479.963 248.516 479.9L174.192 475.767C173.425 475.724 172.655 475.737 171.889 475.805L126.379 479.848C125.289 479.944 124.192 479.914 123.109 479.755L83.0762 473.887C81.5398 473.662 79.9788 473.661 78.4424 473.886L41.4717 479.289C38.4801 479.726 35.4269 479.183 32.7695 477.741L8.40039 464.517C3.84969 462.047 1.03335 457.268 1.07812 452.091L3.69727 149.284V149.271L3.69629 149.256L1.20605 25.293C1.08987 19.5099 4.5423 14.25 9.89453 12.0566L34.3242 2.0459C36.0089 1.3555 37.8122 1.00004 39.6328 1H301.566C302.874 1 304.176 1.18288 305.433 1.54395L344.865 12.873C350.866 14.5969 355 20.0859 355 26.3291V448.657C355 455.39 350.207 461.169 343.59 462.415L251.884 479.681Z" stroke="#C4DEF8" stroke-width="2"/>
</svg>
