<svg width="503" height="119" viewBox="0 0 503 119" fill="none" xmlns="http://www.w3.org/2000/svg">
<path d="M14.7162 21.1273C12.7994 11.3697 20.9843 2.59219 30.8519 3.82335L37.8639 4.69822C38.714 4.80429 39.5707 4.84953 40.4273 4.8336L134.078 3.09116L256.913 0L379.748 2.20797L476.279 3.95793C476.881 3.96885 477.482 3.92157 478.075 3.81676C483.119 2.92529 487.941 6.25775 488.89 11.2908L491.341 24.2877L494.893 34.8359C495.3 36.0434 495.577 37.2907 495.72 38.5568L498.003 58.732L501.378 99.2963C502.251 109.79 493.97 118.789 483.44 118.789H21.6676C10.4041 118.789 1.90761 108.561 3.97279 97.4884L14.6849 40.0547C14.8879 38.9663 14.9901 37.8616 14.9901 36.7544V23.9419C14.9901 22.9971 14.8984 22.0544 14.7162 21.1273Z" fill="#374A9A"/>
<path d="M29.0191 23.4879L29.0192 28.3796L29.019 31.5117C29.0192 33.3144 29.019 35.9327 29.019 36.9805L29.019 48.5307C29.019 56.1831 24.969 62.975 24.969 70.6274L24.9692 86.9953C22.5391 94.3609 24.9692 94.3609 29.0192 97.6345C29.0192 98.8457 32.5679 99.7703 34.5505 100.809C34.5505 102.107 46.6557 104.445 49.0706 104.573C53.0779 104.786 63.904 104.952 67.9211 104.952H307.271H431.639C440.05 104.952 449.779 105.15 457.472 104.741C463.052 104.445 471.888 103.6 474.516 102.5C475.374 102.141 474.782 101.551 474.782 101.163C474.782 100.486 475.624 100.61 477.046 100.148C478.57 99.6515 477.179 98.2871 477.179 97.7082V92.6933C477.179 79.2831 481 70.9433 481 57.5331C481 54.1899 480.19 46.1453 480.19 42.802C480.19 41.1304 477.76 39.5284 478.57 37.8916C477.76 34.6181 478.891 35.334 477.76 33.7997C477.76 33.7997 477.312 33.285 476.047 31.4963C474.782 29.7077 474.782 28.7758 474.782 27.2525C474.782 26.4101 474.722 24.2285 473.584 23.4879C472.017 22.4683 470.29 19.8085 462.548 19.0289C453.315 18.2501 437.18 18.3799 428.192 18.3799C419.004 18.3799 414.972 18.6958 405.784 18.6958H395.479H384.901H370.52H316.592H203.941C163.949 18.6958 123.472 18.473 84.0996 18.473C75.0415 18.473 65.8562 18.2501 57.1354 18.2501C52.9647 18.2501 48.3335 18.6545 44.552 18.6958C40.6531 18.7385 36.7425 17.4799 34.5503 18.25C30.4344 19.6959 29.0191 21.7882 29.0191 23.4879Z" fill="#FFF4FA" stroke="#131C40" stroke-linecap="round"/>
</svg>
