<svg width="362" height="484" viewBox="0 0 362 484" fill="none" xmlns="http://www.w3.org/2000/svg">
<path d="M1.00012 453.898L1.00018 426.719L1 409.316C1.00014 401.701 1.0001 391.468 1.00007 384.44L1.00006 378.93C1.00006 360.354 3.84711 342.443 3.84711 323.867V196.313V83.6199V50.8026C3.84711 44.073 3.84711 30.0572 5.43765 24.2873C5.43765 17.0748 15.149 4.08408 17.0863 3.37109C20.3012 2.18796 28.9864 1.26709 32.209 1.26709H224.226H324C330.748 1.26709 338.553 0.165436 344.724 2.43668C349.201 4.08414 356.29 8.77991 358.398 14.8894C359.086 16.8844 358.611 20.1609 358.611 22.3197C358.611 26.0822 359.287 25.3897 360.427 27.9613C361.65 30.7174 360.534 38.2985 360.534 41.5147V69.3784V292.907V348.635V376.499C360.534 383.42 360.534 388.476 359.626 397.001V409.401C359.626 418.077 357.65 424.749 357.65 433.213C357.65 437.893 358.563 449.783 357.65 453.898C356.393 459.563 355.008 474.341 348.797 478.673C341.39 483 328.445 482.278 321.234 482.278C313.863 482.278 310.629 480.523 303.258 480.523H294.991H286.505H274.968H231.704H141.33C109.247 480.523 76.7746 481.762 45.1882 481.762C37.9214 481.762 30.5525 483 23.5562 483C20.2104 483 16.495 480.753 13.4613 480.523C10.3334 480.286 7.59165 475.012 5.83298 470.734C2.53107 462.7 1.00012 463.341 1.00012 453.898Z" fill="#3EC07E" stroke="#17482F" stroke-width="2" stroke-linecap="round"/>
<path opacity="0.8" d="M5 254.47C7.75873 254.176 9.95385 255.837 12.3121 256.789C14.8261 257.808 16.4131 257.197 18.0076 255.082C20.3288 252 22.8947 249.108 25.4087 246.185C26.2615 245.196 27.0105 243.549 28.5901 244.116C30.0807 244.652 30.5999 246.313 30.8298 247.801C31.423 251.645 31.8457 255.52 32.3649 259.379C33.1139 264.976 33.277 265.044 38.572 263.125C42.7472 261.615 46.7444 259.613 51.0901 258.579C52.9589 258.133 54.939 257.68 56.2739 259.349C57.5346 260.928 57.2899 263.065 56.4444 264.749C54.5905 268.427 52.5733 272.037 50.3856 275.526C49.0137 277.717 49.288 278.51 51.854 278.827C57.186 279.492 62.2437 280.896 66.1 285.118C68.8068 288.086 68.7178 289.257 65.2101 291.024C61.7913 292.754 58.2984 294.34 54.7907 295.888C52.8922 296.726 52.1432 297.293 54.1381 299.173C57.2973 302.157 58.4986 306.386 59.7668 310.426C60.716 313.44 59.3144 314.852 56.2294 314.913C52.996 314.981 49.8294 314.497 46.6554 314.067C43.511 313.644 42.8658 315.018 44.0005 317.745C45.6097 321.597 46.7889 325.547 46.5738 329.784C46.4996 331.181 47.2487 333.024 45.3502 333.726C43.7409 334.323 42.0575 333.885 40.8116 332.782C38.4014 330.637 36.1025 328.349 33.8555 326.022C29.6654 321.68 29.6951 321.657 25.7202 325.985C23.1097 328.832 20.5661 331.747 17.8296 334.466C15.2637 337.019 12.9202 336.316 11.7263 332.872C10.7622 330.086 10.8957 327.17 10.6213 324.3C10.2802 320.7 8.41381 319.074 5.02225 319.422V254.47H5Z" fill="#F1FFF8"/>
</svg>
