<svg width="72" height="62" viewBox="0 0 72 62" fill="none" xmlns="http://www.w3.org/2000/svg">
<g transform="rotate(-90 36 31) translate(5 -5)">
<path opacity="0.9" d="M8.18093 21.9298C9.41732 21.4267 11.2198 22.8112 11.8554 21.4643C12.2589 20.6141 11.2911 19.1004 10.8792 17.9076C9.93264 15.147 9.7625 12.2419 9.30638 9.38923C9.22282 8.85935 9.03058 8.20113 9.72527 7.89804C10.3061 7.64597 10.8371 7.93226 11.3061 8.27389C13.4752 9.84848 15.6962 11.3588 17.7812 13.0359C18.96 13.982 19.4949 13.9328 20.0197 12.4539C21.3939 8.56905 23.4044 4.97328 25.3699 1.35942C26.332 -0.406202 27.0592 -0.473287 28.1516 1.28198C29.5342 3.49689 30.8453 5.76775 31.5988 8.29683C31.9673 9.53427 32.5974 10.6256 33.282 11.7002C35.4154 11.4924 36.7293 9.7883 38.4181 8.79362C40.0514 7.83104 41.6465 6.76805 43.3355 5.91049C45.627 4.74427 46.3923 5.28232 46.3418 7.80527C46.3367 8.15603 46.3698 8.50437 46.3992 8.85485C45.874 11.8821 44.3872 14.5876 43.4037 17.4631C42.6664 19.6182 42.9958 20.1287 45.2396 19.7102C48.7959 19.0484 52.3139 19.6385 55.8447 19.7116C58.2356 19.7618 58.7095 20.8649 57.3344 22.8053C54.8963 26.2511 51.7374 29.0303 48.5668 31.7721C47.1985 32.954 47.406 33.4761 48.9077 34.2797C52.9427 36.433 57.1074 38.3743 60.7405 41.2349C62.1646 42.3578 61.9416 43.0157 60.519 43.8468C57.9333 45.3593 55.0506 45.8183 52.1908 46.3426C47.6607 47.1747 47.6988 47.138 48.3982 51.6189C49.0077 55.5246 49.3163 59.4569 48.9608 63.42C48.8909 64.1806 48.9758 65.0723 48.0534 65.4088C47.1982 65.7164 46.5871 65.1629 45.9749 64.6589C43.3689 62.4987 40.7305 60.3768 38.1425 58.1965C36.8524 57.1089 36.119 57.3364 35.154 58.7803C32.633 62.5532 29.9091 66.1886 27.2387 69.8567C26.7006 70.5936 26.036 71.4966 25.0028 71.1279C24.0773 70.8 24.1855 69.7037 24.1436 68.895C23.9496 65.2296 23.8106 61.5569 23.6929 57.8867C23.637 56.1552 23.0781 55.4097 21.2281 56.228C18.8909 57.2638 16.4928 58.1682 14.1163 59.1189C13.5905 59.3294 13.0547 59.5653 12.5018 59.6689C11.3542 59.8808 10.0105 60.7202 9.08336 59.722C8.10107 58.6625 9.08694 57.4858 9.60996 56.4147C11.1674 53.2324 12.6422 50.0096 14.2764 46.8662C15.1031 45.2768 14.3919 44.8153 13.0245 44.424C9.82039 43.496 6.51864 43.075 3.25591 42.4307C2.6308 42.3065 2.00463 42.1634 1.40224 41.9674C0.692839 41.74 0.157006 41.2998 0.0223941 40.5103C-0.131902 39.6097 0.540529 39.2852 1.14034 38.8948C3.88266 37.1057 6.58732 35.26 9.37419 33.5482C10.6411 32.7726 10.7534 32.1198 9.70814 31.131C8.73391 30.2139 7.70991 29.3304 7.08184 28.1056C5.90566 27.0013 5.55839 25.193 3.96404 24.4428L3.9794 24.4438C3.44566 23.9729 2.87798 23.4433 3.23863 22.6814C3.65587 21.8036 4.48862 21.945 5.27053 22.1011C6.25162 22.2941 7.21871 22.1718 8.17669 21.9225L8.18093 21.9298Z" fill="#F7BFDC"/>
</g>
</svg>