<svg width="715" height="419" viewBox="0 0 715 419" fill="none" xmlns="http://www.w3.org/2000/svg">
<path d="M0.500244 25.7379L0.500366 49.3084C0.500366 54.486 0.5 59.2735 0.5 64.4003C0.500273 71.0039 0.500174 79.8783 0.500122 85.9729V90.7518C0.500122 106.861 6.14673 122.394 6.14673 138.503V375.31C6.14673 381.146 6.14669 393.301 9.30127 398.305C9.30127 404.56 28.5622 415.825 32.4045 416.444C38.7807 417.47 56.0064 418.268 62.3979 418.268H641.117C654.499 418.268 669.98 419.224 682.22 417.254C691.098 415.825 705.158 411.753 709.339 406.455C710.704 404.725 709.763 401.883 709.763 400.011C709.763 396.748 711.102 397.349 713.365 395.119C715.789 392.729 713.576 386.154 713.576 383.365V92.8601C713.576 86.8581 713.576 82.4731 711.775 75.0802V64.3263C711.775 56.8023 707.856 51.0166 707.856 43.6766C707.856 39.6174 709.666 29.3065 707.856 25.7379C705.364 20.8251 702.616 8.00898 690.297 4.25288C675.606 0.500001 649.933 1.12575 635.632 1.12575C621.013 1.12575 614.597 2.64791 599.979 2.64791H278.822C215.189 2.64791 150.786 1.57395 88.1399 1.57395C73.7274 1.57395 59.1125 0.5 45.2366 0.5C38.6006 0.5 31.2317 2.44857 25.215 2.64791C19.0112 2.85344 13.5735 7.42696 10.0854 11.1377C3.53665 18.1047 0.500244 17.5485 0.500244 25.7379Z" fill="#FFF4FA"/>
<path d="M0.500244 25.7379L0.500366 49.3084C0.500366 54.486 0.5 59.2735 0.5 64.4003C0.500273 71.0039 0.500174 79.8783 0.500122 85.9729V90.7518C0.500122 106.861 6.14673 122.394 6.14673 138.503V375.31C6.14673 381.146 6.14669 393.301 9.30127 398.305C9.30127 404.56 28.5622 415.825 32.4045 416.444C38.7807 417.47 56.0064 418.268 62.3979 418.268H641.117C654.499 418.268 669.98 419.224 682.22 417.254C691.098 415.825 705.158 411.753 709.339 406.455C710.704 404.725 709.763 401.883 709.763 400.011C709.763 396.748 711.102 397.349 713.365 395.119C715.789 392.729 713.576 386.154 713.576 383.365V92.8601C713.576 86.8581 713.576 82.4731 711.775 75.0802V64.3263C711.775 56.8023 707.856 51.0166 707.856 43.6766C707.856 39.6174 709.666 29.3065 707.856 25.7379C705.364 20.8251 702.616 8.00898 690.297 4.25288C675.606 0.500001 649.933 1.12575 635.632 1.12575C621.013 1.12575 614.597 2.64791 599.979 2.64791H278.822C215.189 2.64791 150.786 1.57395 88.1399 1.57395C73.7274 1.57395 59.1125 0.5 45.2366 0.5C38.6006 0.5 31.2317 2.44857 25.215 2.64791C19.0112 2.85344 13.5735 7.42696 10.0854 11.1377C3.53665 18.1047 0.500244 17.5485 0.500244 25.7379Z" stroke="#131C40" stroke-linecap="round"/>
</svg>
