<svg width="337" height="377" viewBox="0 0 337 377" fill="none" xmlns="http://www.w3.org/2000/svg">
<rect x="-12" y="-44.821" width="359" height="452" rx="21.5" fill="#374A9A" stroke="#131C40"/>
<path d="M0.500113 23.2021L0.500169 44.4042L0.5 57.9797C0.500129 63.9198 0.500093 71.9025 0.500068 77.3847L0.500054 81.6834C0.500054 96.1741 3.1573 110.146 3.1573 124.637V224.139V312.05V337.65C3.1573 342.9 3.1573 353.833 4.64181 358.334C4.64181 363.96 13.7058 374.094 15.5139 374.65C18.5144 375.573 26.6206 376.292 29.6284 376.292H208.844H301.967C308.264 376.292 315.549 377.151 321.309 375.379C325.487 374.094 332.104 370.431 334.071 365.665C334.714 364.109 334.271 361.553 334.271 359.869C334.271 356.934 334.901 357.474 335.966 355.468C337.107 353.318 336.065 347.404 336.065 344.895V323.159V148.788V105.316V83.5799C336.065 78.1809 336.065 74.2365 335.218 67.5865V57.9132C335.218 51.1452 333.373 45.9408 333.373 39.3383C333.373 35.6869 334.225 26.4121 333.373 23.2021C332.201 18.7829 330.907 7.25449 325.11 3.87579C318.197 0.5 306.115 1.06287 299.385 1.06287C292.506 1.06287 289.487 2.43209 282.608 2.43209H274.891H266.971H256.203H215.824H131.475C101.53 2.43209 71.2229 1.46605 41.7423 1.46605C34.96 1.46605 28.0823 0.5 21.5525 0.5C18.4297 0.5 14.962 2.25278 12.1306 2.43209C9.21116 2.61697 6.65221 6.73095 5.01078 10.0689C1.929 16.3358 0.500113 15.8355 0.500113 23.2021Z" fill="#FFF4FA" stroke="#131C40" stroke-linecap="round"/>
</svg>
