<svg width="360" height="598" viewBox="0 0 360 598" fill="none" xmlns="http://www.w3.org/2000/svg">
<path d="M359 561.015L359 527.407L359 505.889C359 496.473 359 483.819 359 475.13L359 468.316C359 445.346 356.169 423.199 356.169 400.23V242.508V103.161V62.5817C356.169 54.2604 356.169 36.9297 354.587 29.7951C354.587 20.8768 344.93 4.81354 343.003 3.93195C339.806 2.46899 331.169 1.33038 327.964 1.33038H137.014H37.7941C31.0843 1.33038 23.3225 -0.0318604 17.1853 2.77655C12.7337 4.81366 5.68405 10.62 3.58771 18.1745C2.90317 20.6414 3.37527 24.6927 3.37527 27.3622C3.37527 32.0145 2.70386 31.1583 1.56937 34.3381C0.353485 37.746 1.4631 47.1201 1.4631 51.097V85.551V361.948V430.856V465.31C1.4631 473.867 1.4631 480.12 2.36612 490.661V505.994C2.36612 516.722 4.33136 524.972 4.33136 535.437C4.33136 541.225 3.42368 555.927 4.33136 561.015C5.58096 568.02 6.9588 586.293 13.1356 591.649C20.5015 597 33.3741 596.108 40.5447 596.108C47.8747 596.108 51.0911 593.937 58.4211 593.937H66.6425H75.0812H86.5543H129.578H219.449C251.355 593.937 283.646 595.469 315.057 595.469C322.284 595.469 329.612 597 336.569 597C339.896 597 343.591 594.222 346.608 593.937C349.718 593.644 352.445 587.123 354.194 581.832C357.477 571.899 359 572.692 359 561.015Z" fill="#E5348B" stroke="black" stroke-width="2" stroke-linecap="round"/>
<path opacity="0.69" d="M13.2094 445.022C22.1585 441.944 31.1076 438.85 40.0684 435.789C42.4517 434.979 45.1388 434.488 47.2417 435.867C49.368 437.255 47.195 438.772 46.5991 440.177C43.8303 446.677 37.6384 451.875 34.0517 458.065C33.2923 459.375 32.6615 460.737 31.8787 462.039C30.3132 464.616 31.5282 465.599 35.22 465.918C43.5032 466.616 51.7863 467.401 59.9761 468.495C63.7964 469.004 69.3808 469.03 69.9649 472.478C70.479 475.53 65.2217 476.573 62.1257 478.185C59.9176 479.34 57.5694 480.366 55.2912 481.443C49.3797 483.728 43.4681 485.995 38.4795 489.357C35.956 491.055 35.1733 492.357 38.0706 494.52C40.7343 496.512 43.4681 498.434 46.2603 500.322C51.6111 503.624 56.9268 506.951 62.3243 510.21C64.5207 511.537 65.5254 513.158 64.6258 515.123C63.7146 517.123 61.121 516.52 59.1115 516.632C50.4078 517.089 41.6923 517.52 32.9769 517.908C29.3552 518.071 27.9299 518.744 29.0865 521.908C31.2478 527.83 32.5563 533.916 34.0751 539.959C34.484 541.579 35.4303 543.571 32.9185 544.683C30.6169 545.691 29.0398 544.045 27.3341 543.226C22.6375 540.967 17.941 538.692 13.2562 536.424C9.6111 534.485 9.51764 536.623 9.16715 538.39C9.00359 539.226 9.14379 540.252 7.50818 540.26C5.44031 540.269 5.95825 539.309 5.88815 538.361C5.81805 537.361 5.25616 530.142 4.62422 528.878C4.24346 506.119 2.34765 487.786 3.23305 465.479C3.24131 462.268 3.2808 458.967 3.36034 455.545C3.36034 451.119 6.23475 446.729 13.2211 445.013L13.2094 445.022Z" fill="#FFEFFA"/>
</svg>
