<svg width="267" height="125" viewBox="0 0 267 125" fill="none" xmlns="http://www.w3.org/2000/svg">
<rect x="173" width="3" height="125" fill="#E5348B"/>
<rect x="85" y="2" width="3" height="123" fill="#E5348B"/>
<rect x="267" y="92" width="3.00001" height="267" transform="rotate(90 267 92)" fill="#E5348B"/>
<path d="M15 83L68.4311 69.8554C85.5175 63.9858 120.275 50.1331 125.555 47.2864C133.374 43.0701 160.722 20.3251 168.994 18.0211C177.9 15.5411 182.244 18.0212 185.067 20.7491C187.963 23.5468 229.98 66.5557 231.5 73.5" stroke="#374A9A" stroke-width="2"/>
<path d="M179.237 11.0376C179.118 10.9639 179.014 10.9546 178.903 10.9715C178.844 10.9804 178.785 10.9966 178.719 11.0151C178.656 11.0329 178.584 11.054 178.512 11.0677C177.795 11.2038 177.077 11.3418 176.361 11.4794L176.361 11.4785C176.215 11.5117 176.094 11.5237 175.993 11.5098C175.888 11.4952 175.798 11.4522 175.733 11.3747C175.672 11.3019 175.649 11.2163 175.638 11.1493C175.628 11.0857 175.625 11.011 175.621 10.9644L175.621 10.9635C175.62 10.9449 175.619 10.9271 175.618 10.9131C175.618 10.8977 175.618 10.8868 175.618 10.8761L175.615 10.8526C175.608 10.8478 175.587 10.836 175.54 10.8257C175.477 10.812 175.445 10.8139 175.431 10.8165L175.425 10.8401C175.423 10.8521 175.421 10.8642 175.418 10.8814C175.416 10.897 175.413 10.917 175.408 10.9371C175.383 11.051 175.374 11.1623 175.354 11.2972C174.888 14.5906 174.442 17.8932 173.933 21.1803L173.933 21.1813C173.886 21.4798 173.881 21.7152 173.979 21.9223C174.076 22.1255 174.29 22.3357 174.761 22.5419L174.747 22.5826L174.77 22.5459C176.008 23.203 177.246 23.8615 178.485 24.5167C178.813 24.6896 179.142 24.8039 179.408 24.7171C179.474 24.6959 179.476 24.6775 179.472 24.6868C179.467 24.6972 179.475 24.6969 179.462 24.6629C179.449 24.6277 179.425 24.5875 179.392 24.5305C179.378 24.5058 179.362 24.4764 179.345 24.4448L179.304 24.3452C179.169 23.9238 178.909 23.5095 178.621 23.0784C178.338 22.6546 178.025 22.2122 177.814 21.7583C177.769 21.6614 177.73 21.5636 177.692 21.4712C177.653 21.3775 177.614 21.2877 177.572 21.1997L177.573 21.1989C177.524 21.0986 177.488 20.9977 177.49 20.9023C177.492 20.7945 177.54 20.7074 177.626 20.6535C177.703 20.6058 177.801 20.589 177.901 20.5854C178.003 20.5816 178.126 20.591 178.264 20.61L178.265 20.6102C179.472 20.7778 180.68 20.935 181.878 21.0503C182.173 21.0788 182.494 21.1317 182.774 21.1294C182.912 21.1283 183.025 21.1137 183.106 21.0816C183.185 21.0508 183.226 21.0083 183.246 20.9539C183.257 20.9209 183.255 20.8882 183.219 20.8366C183.178 20.778 183.103 20.7114 182.996 20.6368C182.892 20.5636 182.769 20.4912 182.642 20.416C182.517 20.3425 182.387 20.2659 182.276 20.1877L182.276 20.1867C181.983 19.9795 181.672 19.7853 181.36 19.5804L181.359 19.5812C180.549 19.1179 179.721 18.647 179.046 18.0641C178.96 17.9899 178.883 17.9156 178.825 17.8426C178.768 17.7715 178.716 17.6839 178.709 17.5839C178.701 17.4748 178.749 17.3863 178.821 17.3189C178.89 17.2547 178.988 17.2013 179.108 17.1539C179.53 16.9875 179.961 16.8327 180.399 16.6835L180.404 16.6817L182.898 15.9465L182.899 15.9467C183.059 15.9009 183.155 15.8437 183.203 15.7863C183.242 15.7396 183.257 15.6851 183.226 15.5969L183.225 15.5967C183.203 15.5342 183.148 15.4858 183.017 15.4449C182.954 15.4251 182.883 15.4101 182.805 15.3948C182.73 15.38 182.646 15.3637 182.568 15.3434C181.32 15.0193 180.07 14.6989 178.819 14.3831C178.686 14.3496 178.568 14.3152 178.47 14.275C178.374 14.2357 178.283 14.1848 178.216 14.1125C178.143 14.0327 178.108 13.9346 178.116 13.8262C178.124 13.7275 178.167 13.6293 178.228 13.5322C178.638 12.8729 178.928 12.1698 179.257 11.4592C179.269 11.4329 179.283 11.4064 179.295 11.3827C179.307 11.3581 179.318 11.3353 179.328 11.3131C179.349 11.2676 179.361 11.2326 179.364 11.2041C179.366 11.1795 179.362 11.1605 179.351 11.1406C179.344 11.1292 179.334 11.1145 179.316 11.0973L179.237 11.0376Z" fill="#FFF4FA" stroke="black" stroke-width="0.3"/>
<path d="M169.838 21.999C169.956 22.0727 170.061 22.082 170.172 22.0651C170.23 22.0562 170.289 22.04 170.355 22.0215C170.418 22.0037 170.49 21.9827 170.562 21.9689C171.28 21.8328 171.998 21.6948 172.714 21.5572L172.714 21.5582C172.859 21.5249 172.98 21.5129 173.081 21.5268C173.187 21.5414 173.277 21.5844 173.341 21.6619C173.402 21.7347 173.425 21.8204 173.436 21.8873C173.447 21.9509 173.45 22.0256 173.453 22.0722L173.453 22.0732C173.455 22.0917 173.456 22.1095 173.456 22.1235C173.456 22.139 173.456 22.1499 173.457 22.1605L173.459 22.184C173.466 22.1889 173.487 22.2006 173.534 22.2109C173.598 22.2247 173.63 22.2227 173.643 22.2201L173.649 22.1966C173.652 22.1845 173.654 22.1724 173.656 22.1552C173.659 22.1396 173.661 22.1196 173.666 22.0995C173.692 21.9856 173.701 21.8743 173.72 21.7395C174.187 18.446 174.633 15.1435 175.142 11.8563L175.142 11.8554C175.188 11.5569 175.194 11.3214 175.095 11.1144C174.999 10.9111 174.785 10.7009 174.313 10.4947L174.328 10.454L174.304 10.4908C173.066 9.83358 171.829 9.17508 170.589 8.51992C170.261 8.34703 169.933 8.23276 169.666 8.31949C169.601 8.34068 169.599 8.35908 169.603 8.34984C169.607 8.33944 169.6 8.33968 169.612 8.37375C169.625 8.40891 169.649 8.44911 169.682 8.50614C169.696 8.53083 169.713 8.56024 169.729 8.59182L169.771 8.6914C169.906 9.11278 170.166 9.52713 170.453 9.9582C170.736 10.382 171.049 10.8244 171.26 11.2783C171.305 11.3752 171.345 11.473 171.383 11.5654C171.422 11.6591 171.46 11.7489 171.503 11.837L171.502 11.8377C171.551 11.938 171.586 12.0389 171.585 12.1343C171.583 12.2421 171.535 12.3292 171.448 12.3831C171.372 12.4309 171.274 12.4476 171.174 12.4512C171.071 12.455 170.949 12.4456 170.81 12.4267L170.809 12.4265C169.602 12.2588 168.395 12.1017 167.197 11.9863C166.902 11.9578 166.58 11.9049 166.3 11.9072C166.163 11.9084 166.05 11.9229 165.968 11.955C165.89 11.9858 165.848 12.0284 165.829 12.0828C165.817 12.1157 165.82 12.1484 165.856 12.2C165.897 12.2586 165.972 12.3252 166.078 12.3998C166.183 12.473 166.305 12.5454 166.433 12.6206C166.557 12.6941 166.688 12.7707 166.799 12.8489L166.799 12.8499C167.091 13.0572 167.403 13.2514 167.714 13.4562L167.716 13.4554C168.525 13.9187 169.353 14.3897 170.028 14.9725C170.114 15.0467 170.192 15.121 170.25 15.194C170.307 15.2651 170.359 15.3527 170.366 15.4527C170.373 15.5618 170.326 15.6503 170.253 15.7177C170.185 15.7819 170.087 15.8354 169.966 15.8827C169.544 16.0491 169.113 16.2039 168.676 16.3531L168.671 16.355L166.176 17.0902L166.175 17.09C166.016 17.1357 165.919 17.1929 165.871 17.2504C165.832 17.2971 165.817 17.3515 165.848 17.4397L165.849 17.4399C165.871 17.5024 165.926 17.5508 166.057 17.5917C166.12 17.6115 166.191 17.6265 166.269 17.6419C166.344 17.6567 166.429 17.6729 166.506 17.6932C167.754 18.0173 169.005 18.3378 170.256 18.6535C170.388 18.687 170.507 18.7214 170.605 18.7616C170.7 18.8009 170.791 18.8518 170.858 18.9241C170.931 19.0039 170.967 19.102 170.958 19.2104C170.95 19.3091 170.907 19.4073 170.847 19.5044C170.437 20.1637 170.147 20.8668 169.818 21.5774C169.806 21.6037 169.792 21.6302 169.78 21.6539C169.767 21.6785 169.756 21.7013 169.746 21.7235C169.725 21.769 169.714 21.804 169.711 21.8326C169.708 21.8571 169.712 21.8761 169.724 21.896C169.73 21.9074 169.741 21.9221 169.759 21.9394L169.838 21.999Z" fill="#FFF4FA" stroke="black" stroke-width="0.3"/>
<path d="M174.521 21.5549C175.374 22.056 176.228 22.5589 177.083 23.0585C177.31 23.191 177.573 23.2979 177.803 23.2038C178.036 23.1093 177.84 22.91 177.8 22.7557C177.615 22.0416 177.069 21.3856 176.797 20.6853C176.74 20.5371 176.696 20.3863 176.636 20.2385C176.516 19.9453 176.652 19.8722 177.026 19.9188C177.867 20.0253 178.709 20.123 179.546 20.1875C179.936 20.2177 180.497 20.3343 180.605 19.9993C180.7 19.7027 180.187 19.4854 179.9 19.2569C179.695 19.0934 179.474 18.9399 179.261 18.7826C178.701 18.4263 178.14 18.0716 177.688 17.6264C177.459 17.4014 177.399 17.2535 177.721 17.0973C178.016 16.9534 178.318 16.8181 178.625 16.6874C179.209 16.4689 179.789 16.247 180.377 16.0338C180.616 15.9469 180.74 15.805 180.678 15.5878C180.615 15.3668 180.346 15.3722 180.147 15.3181C179.28 15.0863 178.412 14.8568 177.544 14.6317C177.183 14.5379 177.049 14.4397 177.211 14.1456C177.512 13.5949 177.73 13.0095 177.969 12.433C178.033 12.2784 178.156 12.0979 177.92 11.9322C177.704 11.7815 177.522 11.9137 177.339 11.9598C176.836 12.0872 176.332 12.2163 175.83 12.3448C175.437 12.4625 175.458 12.245 175.448 12.0595C175.444 11.9717 175.472 11.8713 175.309 11.8356C175.101 11.7906 175.118 11.9229 175.097 12.0169C175.076 12.1162 175.066 12.2189 175.052 12.3196C174.673 14.9936 174.309 17.6716 173.901 20.3393C173.825 20.8306 173.846 21.234 174.522 21.556L174.521 21.5549Z" fill="#3EC07E"/>
<path d="M174.554 11.4818C173.7 10.9806 172.847 10.4778 171.992 9.97812C171.764 9.84559 171.502 9.73873 171.271 9.83284C171.038 9.92732 171.235 10.1266 171.274 10.2809C171.459 10.995 172.006 11.651 172.277 12.3513C172.335 12.4996 172.379 12.6503 172.438 12.7982C172.559 13.0913 172.423 13.1644 172.048 13.1178C171.207 13.0114 170.365 12.9136 169.528 12.8492C169.138 12.8189 168.578 12.7023 168.47 13.0373C168.375 13.3339 168.887 13.5512 169.174 13.7797C169.379 13.9433 169.6 14.0968 169.813 14.254C170.374 14.6104 170.934 14.965 171.386 15.4103C171.615 15.6353 171.675 15.7831 171.354 15.9394C171.058 16.0832 170.757 16.2186 170.45 16.3492C169.866 16.5677 169.285 16.7896 168.697 17.0028C168.458 17.0897 168.334 17.2316 168.396 17.4488C168.459 17.6698 168.728 17.6644 168.928 17.7186C169.794 17.9504 170.662 18.1798 171.531 18.4049C171.892 18.4987 172.025 18.5969 171.864 18.891C171.563 19.4417 171.344 20.0271 171.106 20.6037C171.042 20.7583 170.918 20.9387 171.154 21.1044C171.371 21.2552 171.552 21.1229 171.735 21.0768C172.238 20.9494 172.742 20.8203 173.244 20.6918C173.637 20.5741 173.616 20.7916 173.626 20.9771C173.631 21.0649 173.602 21.1653 173.766 21.2011C173.973 21.2461 173.957 21.1137 173.977 21.0197C173.999 20.9204 174.008 20.8178 174.023 20.717C174.402 18.0431 174.765 15.365 175.173 12.6973C175.249 12.206 175.229 11.8026 174.553 11.4806L174.554 11.4818Z" fill="#3EC07E"/>
<path d="M90.8608 68.2845C90.9549 68.1817 90.9833 68.0807 90.9871 67.9683C90.9892 67.9091 90.9841 67.8481 90.9779 67.7801C90.972 67.7148 90.9645 67.6405 90.9644 67.5668C90.9624 66.8366 90.9587 66.1057 90.9551 65.3765L90.956 65.3768C90.9502 65.2273 90.9606 65.1062 90.9928 65.0098C91.0266 64.9086 91.0854 64.828 91.1734 64.7787C91.2562 64.7325 91.3446 64.7254 91.4124 64.7268C91.4769 64.7281 91.5508 64.7393 91.5973 64.744L91.5983 64.7443C91.6168 64.7462 91.6344 64.7486 91.6483 64.7509C91.6635 64.7534 91.6742 64.7556 91.6848 64.757L91.7083 64.7588C91.7144 64.7528 91.7297 64.7346 91.7485 64.6901C91.7737 64.6302 91.7777 64.5982 91.7776 64.5848L91.7556 64.5743C91.7442 64.5698 91.7326 64.5658 91.7162 64.5599C91.7013 64.5547 91.6822 64.5483 91.6633 64.54C91.556 64.4937 91.4483 64.4644 91.3193 64.4208C88.1677 63.3567 85.0034 62.3112 81.8659 61.2065L81.865 61.2061C81.5802 61.1055 81.3496 61.0572 81.1281 61.1157C80.9106 61.1732 80.6646 61.3448 80.3752 61.7705L80.3379 61.7486L80.3696 61.7789C79.4961 62.8749 78.6213 63.9701 77.7495 65.068C77.5192 65.3586 77.3465 65.6606 77.3828 65.9385C77.3915 66.0069 77.4093 66.0122 77.401 66.0064C77.3916 65.9999 77.3904 66.0078 77.4262 66.0015C77.4632 65.995 77.5071 65.979 77.5692 65.9573C77.596 65.9478 77.628 65.9369 77.662 65.9269L77.7676 65.9039C78.2066 65.8489 78.6616 65.6697 79.1383 65.466C79.6069 65.2656 80.0992 65.0398 80.5842 64.9156C80.6877 64.8891 80.791 64.8685 80.889 64.8478C80.9882 64.8268 81.0836 64.8056 81.1779 64.7798L81.1785 64.781C81.2861 64.7512 81.3918 64.7348 81.4852 64.754C81.5909 64.7758 81.6676 64.8392 81.7047 64.934C81.7376 65.018 81.736 65.1173 81.7212 65.2162C81.706 65.3179 81.6743 65.4365 81.6303 65.569L81.6299 65.5699C81.2432 66.7257 80.8668 67.8835 80.5331 69.0402C80.4508 69.3249 80.3398 69.631 80.2906 69.9064C80.2664 70.042 80.26 70.1556 80.2765 70.242C80.2923 70.3248 80.3266 70.3733 80.3765 70.4022C80.4067 70.4196 80.4394 70.4234 80.4966 70.3976C80.5618 70.3681 80.641 70.3065 80.7339 70.2155C80.8251 70.1261 80.9189 70.0191 81.0162 69.9077C81.1113 69.7988 81.2107 69.6844 81.3079 69.5897L81.3089 69.59C81.5664 69.3404 81.8145 69.0701 82.0731 68.8013L82.0726 68.8001C82.6768 68.0894 83.292 67.362 83.989 66.8055C84.0777 66.7346 84.165 66.6722 84.2474 66.6285C84.3278 66.586 84.4234 66.5507 84.5231 66.5622C84.6316 66.5748 84.7099 66.638 84.7629 66.7213C84.8134 66.8007 84.8478 66.9069 84.8723 67.0338C84.9583 67.4792 85.0312 67.9312 85.0974 68.389L85.0983 68.3944L85.3624 70.9813L85.3621 70.9822C85.3777 71.1473 85.4162 71.2528 85.4638 71.3106C85.5026 71.3575 85.5534 71.382 85.6457 71.3679L85.6461 71.367C85.7116 71.3571 85.7693 71.3116 85.8335 71.1907C85.8646 71.1321 85.8924 71.0651 85.9218 70.9912C85.9502 70.9202 85.9816 70.8405 86.0159 70.768C86.5638 69.6007 87.1087 68.4302 87.6491 67.2587C87.7063 67.1349 87.7619 67.0247 87.8195 66.9358C87.8757 66.8489 87.9425 66.7687 88.0258 66.7165C88.1177 66.6589 88.2206 66.6425 88.3256 66.6707C88.4212 66.6964 88.5098 66.757 88.5941 66.8344C89.1667 67.3586 89.8046 67.7729 90.4427 68.2266C90.4663 68.2434 90.4897 68.2622 90.5108 68.2784C90.5327 68.2952 90.5531 68.31 90.573 68.3241C90.6139 68.3529 90.6463 68.3705 90.6738 68.3787C90.6975 68.3857 90.7168 68.3855 90.7385 68.3779C90.7509 68.3735 90.7673 68.3657 90.7876 68.3513L90.8608 68.2845Z" fill="#FFF4FA" stroke="black" stroke-width="0.3"/>
<path d="M81.814 57.031C81.7199 57.1337 81.6915 57.2347 81.6877 57.3472C81.6856 57.4063 81.6908 57.4673 81.6969 57.5354C81.7028 57.6006 81.7103 57.6749 81.7104 57.7487C81.7124 58.4788 81.7161 59.2097 81.7197 59.9389L81.7188 59.9386C81.7246 60.0882 81.7142 60.2092 81.682 60.3057C81.6482 60.4068 81.5894 60.4875 81.5014 60.5367C81.4186 60.583 81.3302 60.59 81.2624 60.5886C81.1979 60.5873 81.124 60.5761 81.0775 60.5715L81.0765 60.5711C81.058 60.5692 81.0404 60.5669 81.0265 60.5645C81.0113 60.562 81.0006 60.5598 80.99 60.5584L80.9665 60.5566C80.9604 60.5627 80.9451 60.5808 80.9263 60.6253C80.9011 60.6852 80.8971 60.7172 80.8972 60.7306L80.9192 60.7412C80.9306 60.7456 80.9422 60.7497 80.9586 60.7555C80.9735 60.7607 80.9926 60.7671 81.0115 60.7754C81.1188 60.8217 81.2265 60.8511 81.3555 60.8946C84.5071 61.9587 87.6714 63.0043 90.8089 64.109L90.8098 64.1093C91.0947 64.2099 91.3252 64.2582 91.5467 64.1997C91.7643 64.1422 92.0102 63.9706 92.2996 63.5449L92.3369 63.5668L92.3052 63.5365C93.1787 62.4405 94.0535 61.3453 94.9253 60.2474C95.1556 59.9568 95.3283 59.6548 95.292 59.3769C95.2833 59.3085 95.2655 59.3033 95.2738 59.3091C95.2832 59.3155 95.2844 59.3076 95.2486 59.3139C95.2116 59.3204 95.1677 59.3364 95.1056 59.3582C95.0788 59.3676 95.0468 59.3786 95.0128 59.3885L94.9072 59.4115C94.4682 59.4666 94.0132 59.6457 93.5365 59.8495C93.0679 60.0498 92.5756 60.2757 92.0906 60.3998C91.9871 60.4263 91.8838 60.4469 91.7858 60.4676C91.6866 60.4886 91.5912 60.5098 91.4969 60.5356L91.4963 60.5344C91.3887 60.5642 91.283 60.5807 91.1896 60.5614C91.0839 60.5397 91.0072 60.4763 90.9701 60.3814C90.9372 60.2974 90.9388 60.1981 90.9536 60.0992C90.9688 59.9975 91.0005 59.8789 91.0445 59.7464L91.0449 59.7455C91.4316 58.5897 91.808 57.4319 92.1417 56.2752C92.224 55.9905 92.335 55.6845 92.3842 55.409C92.4084 55.2734 92.4148 55.1598 92.3983 55.0734C92.3825 54.9906 92.3482 54.9421 92.2983 54.9132C92.2681 54.8958 92.2354 54.892 92.1782 54.9179C92.113 54.9474 92.0338 55.0089 91.9409 55.1C91.8497 55.1893 91.756 55.2963 91.6586 55.4078C91.5635 55.5167 91.4641 55.6311 91.3669 55.7257L91.366 55.7254C91.1084 55.975 90.8603 56.2453 90.6017 56.5141L90.6022 56.5153C89.998 57.2261 89.3828 57.9534 88.6858 58.5099C88.5971 58.5808 88.5098 58.6433 88.4274 58.6869C88.347 58.7295 88.2514 58.7647 88.1517 58.7533C88.0432 58.7407 87.9649 58.6774 87.912 58.5942C87.8614 58.5147 87.827 58.4085 87.8025 58.2816C87.7165 57.8363 87.6436 57.3842 87.5774 56.9265L87.5765 56.921L87.3124 54.3342L87.3127 54.3333C87.2971 54.1681 87.2586 54.0626 87.211 54.0048C87.1723 53.9579 87.1214 53.9334 87.0291 53.9475L87.0287 53.9484C86.9632 53.9583 86.9055 54.0039 86.8413 54.1247C86.8102 54.1833 86.7824 54.2503 86.753 54.3242C86.7246 54.3952 86.6932 54.4749 86.6589 54.5475C86.111 55.7147 85.5661 56.8852 85.0257 58.0567C84.9685 58.1805 84.9129 58.2907 84.8553 58.3796C84.7991 58.4665 84.7323 58.5467 84.649 58.5989C84.5571 58.6565 84.4542 58.673 84.3492 58.6447C84.2536 58.619 84.165 58.5584 84.0807 58.4811C83.5081 57.9568 82.8702 57.5426 82.2321 57.0888C82.2085 57.072 82.1851 57.0532 82.164 57.037C82.1421 57.0202 82.1217 57.0054 82.1018 56.9913C82.0609 56.9625 82.0286 56.9449 82.001 56.9368C81.9773 56.9298 81.958 56.93 81.9363 56.9375C81.9239 56.9419 81.9075 56.9497 81.8872 56.9642L81.814 57.031Z" fill="#FFF4FA" stroke="black" stroke-width="0.3"/>
<path d="M81.3897 61.7154C80.7402 62.4623 80.089 63.2086 79.4407 63.9572C79.2687 64.1564 79.1154 64.3948 79.1655 64.6387C79.2155 64.8852 79.4475 64.7289 79.6065 64.7182C80.3424 64.6678 81.0877 64.2509 81.826 64.1129C81.9822 64.0837 82.1385 64.0683 82.2948 64.0366C82.6051 63.9723 82.652 64.1194 82.5372 64.4792C82.2781 65.286 82.0272 66.0956 81.81 66.9065C81.7085 67.2847 81.4909 67.8141 81.8004 67.9817C82.0744 68.1297 82.3822 67.666 82.6597 67.4254C82.8581 67.254 83.0496 67.0651 83.2433 66.8846C83.6966 66.3994 84.1482 65.9136 84.669 65.5509C84.9323 65.3673 85.0886 65.3356 85.1831 65.6803C85.2701 65.9973 85.3478 66.3186 85.4198 66.6444C85.5272 67.2584 85.6386 67.8699 85.7401 68.4869C85.7815 68.738 85.8982 68.8859 86.1232 68.8647C86.352 68.8436 86.396 68.5784 86.486 68.3919C86.8731 67.5829 87.2582 66.7719 87.6392 65.9596C87.7977 65.6221 87.9187 65.5091 88.1782 65.7215C88.6641 66.119 89.1995 66.441 89.7223 66.7815C89.8625 66.8729 90.0172 67.0274 90.2235 66.8258C90.4114 66.6408 90.3148 66.4379 90.3031 66.2498C90.2704 65.7317 90.2361 65.213 90.2021 64.6957C90.1587 64.2875 90.3685 64.3483 90.5528 64.3727C90.6399 64.3844 90.7333 64.4311 90.7986 64.2765C90.8809 64.0811 90.7478 64.0727 90.6592 64.0352C90.5655 63.996 90.4664 63.9676 90.37 63.9351C87.8112 63.0712 85.2457 62.2214 82.6985 61.3298C82.2294 61.1651 81.8292 61.1107 81.3884 61.7162L81.3897 61.7154Z" fill="#3EC07E"/>
<path d="M91.2853 63.5998C91.9348 62.8529 92.586 62.1066 93.2343 61.358C93.4064 61.1588 93.5597 60.9204 93.5096 60.6765C93.4595 60.43 93.2276 60.5863 93.0686 60.5969C92.3327 60.6474 91.5873 61.0643 90.8491 61.2023C90.6928 61.2315 90.5366 61.2469 90.3802 61.2786C90.07 61.3428 90.0231 61.1958 90.1378 60.836C90.397 60.0292 90.6478 59.2196 90.865 58.4087C90.9666 58.0305 91.1842 57.5011 90.8747 57.3335C90.6007 57.1855 90.2929 57.6492 90.0154 57.8898C89.817 58.0612 89.6255 58.25 89.4318 58.4306C88.9785 58.9158 88.5268 59.4016 88.006 59.7643C87.7428 59.9479 87.5864 59.9796 87.492 59.6349C87.4049 59.3179 87.3273 58.9966 87.2553 58.6708C87.1478 58.0568 87.0365 57.4453 86.935 56.8283C86.8935 56.5772 86.7768 56.4293 86.5518 56.4504C86.3231 56.4716 86.279 56.7367 86.189 56.9233C85.8019 57.7323 85.4168 58.5433 85.0359 59.3556C84.8773 59.6931 84.7563 59.8061 84.4968 59.5936C84.0109 59.1962 83.4756 58.8742 82.9527 58.5337C82.8126 58.4422 82.6578 58.2878 82.4516 58.4894C82.2636 58.6744 82.3602 58.8773 82.372 59.0654C82.4047 59.5835 82.439 60.1022 82.473 60.6195C82.5163 61.0276 82.3065 60.9669 82.1223 60.9425C82.0352 60.9308 81.9418 60.8841 81.8765 61.0387C81.7942 61.2341 81.9272 61.2425 82.0159 61.28C82.1096 61.3192 82.2087 61.3476 82.3051 61.3801C84.8638 62.244 87.4294 63.0938 89.9766 63.9854C90.4456 64.15 90.8458 64.2044 91.2866 63.599L91.2853 63.5998Z" fill="#3EC07E"/>
</svg>
