<svg width="379" height="190" viewBox="0 0 379 190" fill="none" xmlns="http://www.w3.org/2000/svg">
<path d="M355 139.151L355 131.82L355 127.127C355 124.425 355 120.502 355 118.931C355 113.921 352.54 109.09 352.54 104.08V69.6778V39.2834V30.4322C352.54 28.6172 352.54 24.837 351.166 23.2808C351.166 21.3355 342.777 17.8318 341.103 17.6395C338.326 17.3204 330.823 17.0721 328.039 17.0721H162.157H75.9636C70.1347 17.0721 63.3919 16.7749 58.0604 17.3875C54.1933 17.8318 48.0691 19.0983 46.248 20.7461C45.6533 21.2842 46.0634 22.1679 46.0634 22.7501C46.0634 23.7649 45.4802 23.5781 44.4946 24.2717C43.4384 25.0151 44.4023 27.0598 44.4023 27.9272V35.4423V95.7302V110.76V118.276C44.4023 120.142 44.4023 121.506 45.1868 123.805V127.15C45.1868 129.49 46.894 131.289 46.894 133.572C46.894 134.834 46.1055 138.041 46.894 139.151C47.9796 140.679 49.1765 144.665 54.5424 145.833C60.9412 147 72.1239 146.805 78.3531 146.805C84.7207 146.805 87.5149 146.332 93.8826 146.332H101.025H108.355H118.322H155.697H233.77C261.487 146.332 289.539 146.666 316.826 146.666C323.104 146.666 329.47 147 335.514 147C338.404 147 341.614 146.394 344.235 146.332C346.937 146.268 349.306 144.846 350.825 143.692C353.677 141.525 355 141.698 355 139.151Z" fill="#FFF4FA" stroke="black" stroke-width="2" stroke-linecap="round"/>
<path d="M351.579 4.85503C351.254 4.84203 351.034 4.94303 350.821 5.11102C350.707 5.20099 350.599 5.30699 350.476 5.43231C350.358 5.55131 350.22 5.69471 350.07 5.82172L350.07 5.82082C348.636 7.04038 347.204 8.26543 345.774 9.48691L345.774 9.486C345.486 9.74903 345.219 9.93739 344.959 10.0411C344.683 10.1512 344.396 10.1735 344.117 10.0692C343.858 9.97184 343.681 9.79102 343.566 9.64845C343.456 9.51404 343.347 9.34009 343.283 9.2474L343.282 9.24679C343.252 9.20334 343.227 9.1608 343.208 9.12914C343.191 9.10051 343.18 9.08048 343.17 9.06276L343.064 9.08921C342.986 9.11357 342.934 9.13537 342.9 9.1524C342.908 9.17366 342.916 9.19731 342.929 9.23018C342.943 9.2684 342.963 9.32042 342.979 9.37575C343.065 9.65798 343.182 9.90812 343.314 10.2424C346.073 17.2216 348.877 24.1975 351.579 31.2039L352.73 34.2085C353.005 34.9345 353.282 35.4387 353.734 35.7551C354.175 36.0636 354.888 36.2636 356.195 36.1258L356.22 36.276L356.229 36.1221L367.067 35.8051C368.021 35.7745 368.858 35.6099 369.312 35.1118L369.312 35.1106C369.33 35.0911 369.343 35.0737 369.354 35.0595C369.291 35.0115 369.204 34.9594 369.072 34.8822C368.948 34.8093 368.762 34.6997 368.616 34.5642L368.615 34.5654C367.79 33.8058 366.695 33.2145 365.5 32.6149C364.33 32.0283 363.053 31.4293 361.991 30.6738C361.764 30.5124 361.547 30.3437 361.344 30.186C361.138 30.0257 360.943 29.8741 360.738 29.7336C360.494 29.567 360.267 29.3705 360.136 29.1296C359.985 28.8527 359.982 28.5584 360.124 28.2962C360.247 28.0678 360.464 27.8931 360.689 27.7539C360.922 27.6097 361.216 27.4725 361.553 27.3374L361.554 27.3371C364.108 26.3194 366.651 25.2841 369.143 24.1914L370.208 23.7192C370.916 23.4023 371.691 23.118 372.309 22.7596C372.612 22.5841 372.831 22.4147 372.962 22.2529C373.054 22.1383 373.092 22.043 373.096 21.9567L373.091 21.8737C373.083 21.8303 373.068 21.7879 372.947 21.7302C372.801 21.6606 372.567 21.6084 372.237 21.5774C371.915 21.5471 371.553 21.5408 371.17 21.5348C370.798 21.5289 370.402 21.5234 370.047 21.4888L370.046 21.4891C369.124 21.3976 368.18 21.36 367.211 21.2976C364.815 21.2915 362.353 21.2915 360.089 20.8442C359.8 20.7871 359.524 20.7189 359.289 20.6249C359.062 20.5338 358.806 20.3915 358.642 20.1456C358.463 19.8753 358.46 19.5809 358.542 19.3168C358.62 19.067 358.782 18.8118 358.995 18.5485C359.729 17.636 360.497 16.7373 361.289 15.8439L361.295 15.837L361.302 15.8298C362.461 14.6249 363.615 13.4144 364.783 12.2077L365.956 11.0032C366.252 10.7013 366.38 10.467 366.408 10.3064C366.429 10.1926 366.409 10.092 366.255 9.95851L366.254 9.95789C366.171 9.88536 366.035 9.84018 365.701 9.91276C365.54 9.9476 365.368 10.002 365.173 10.0671C364.988 10.129 364.774 10.2031 364.57 10.2577L364.57 10.2565C361.36 11.1213 358.149 11.9964 354.943 12.8832L354.942 12.8835C354.602 12.9774 354.287 13.0511 354.008 13.087C353.737 13.1219 353.446 13.1279 353.179 13.0427C352.88 12.9472 352.648 12.7493 352.515 12.4654C352.395 12.2105 352.368 11.9147 352.38 11.6128C352.439 10.1187 352.316 8.65653 352.18 7.16756L352.044 5.66704C352.038 5.59022 352.035 5.51126 352.031 5.44323C352.028 5.37191 352.025 5.30904 352.019 5.24872C352.008 5.12439 351.991 5.04625 351.968 4.99506C351.951 4.95583 351.935 4.93928 351.909 4.92401C351.873 4.90308 351.781 4.86403 351.579 4.85503Z" fill="#FFF4FA" stroke="black"/>
<path d="M344.483 41.185C344.808 41.198 345.028 41.097 345.241 40.929C345.355 40.8391 345.463 40.733 345.586 40.6077C345.704 40.4887 345.842 40.3453 345.992 40.2183L345.992 40.2192C347.427 38.9997 348.858 37.7746 350.288 36.5531L350.288 36.554C350.576 36.291 350.843 36.1026 351.103 35.9989C351.379 35.8888 351.667 35.8665 351.945 35.9709C352.204 36.0682 352.381 36.249 352.497 36.3916C352.606 36.526 352.715 36.6999 352.779 36.7926L352.78 36.7933C352.81 36.8367 352.835 36.8792 352.854 36.9109C352.871 36.9395 352.882 36.9596 352.892 36.9773L352.998 36.9508C353.076 36.9265 353.128 36.9047 353.162 36.8876C353.154 36.8664 353.146 36.8427 353.133 36.8099C353.119 36.7716 353.1 36.7196 353.083 36.6643C352.997 36.3821 352.88 36.1319 352.748 35.7976C349.989 28.8185 347.185 21.8425 344.483 14.8362L343.332 11.8315C343.057 11.1055 342.78 10.6014 342.328 10.2849C341.887 9.97642 341.174 9.77646 339.867 9.91429L339.842 9.76406L339.833 9.91798L328.995 10.235C328.041 10.2656 327.204 10.4301 326.75 10.9282L326.75 10.9295C326.732 10.949 326.719 10.9664 326.708 10.9805C326.771 11.0286 326.858 11.0806 326.99 11.1578C327.114 11.2308 327.3 11.3403 327.446 11.4758L327.447 11.4746C328.272 12.2342 329.367 12.8255 330.562 13.4251C331.732 14.0118 333.009 14.6107 334.071 15.3662C334.298 15.5277 334.515 15.6964 334.718 15.854C334.924 16.0143 335.119 16.1659 335.324 16.3065C335.568 16.473 335.795 16.6695 335.926 16.9105C336.077 17.1874 336.08 17.4817 335.938 17.7438C335.815 17.9722 335.598 18.147 335.373 18.2861C335.14 18.4304 334.846 18.5676 334.509 18.7026L334.508 18.7029C331.954 19.7206 329.411 20.756 326.919 21.8487L325.854 22.3208C325.146 22.6378 324.371 22.9221 323.753 23.2805C323.45 23.4559 323.231 23.6254 323.1 23.7872C323.008 23.9017 322.97 23.997 322.966 24.0833L322.971 24.1664C322.979 24.2098 322.994 24.2522 323.115 24.3099C323.261 24.3794 323.495 24.4317 323.825 24.4627C324.147 24.4929 324.509 24.4992 324.892 24.5053C325.264 24.5111 325.66 24.5167 326.015 24.5513L326.016 24.551C326.938 24.6425 327.882 24.68 328.851 24.7424C331.247 24.7485 333.709 24.7485 335.973 25.1959C336.262 25.2529 336.538 25.3211 336.773 25.4151C337 25.5063 337.257 25.6486 337.42 25.8944C337.599 26.1648 337.602 26.4592 337.52 26.7233C337.442 26.973 337.28 27.2283 337.067 27.4916C336.333 28.404 335.565 29.3028 334.773 30.1961L334.767 30.203L334.76 30.2102C333.601 31.4152 332.447 32.6257 331.279 33.8324L330.106 35.0368C329.811 35.3388 329.682 35.5731 329.654 35.7336C329.633 35.8474 329.653 35.948 329.807 36.0815L329.808 36.0821C329.891 36.1547 330.027 36.1999 330.361 36.1273C330.522 36.0924 330.694 36.038 330.889 35.973C331.074 35.911 331.288 35.8369 331.492 35.7824L331.492 35.7836C334.702 34.9187 337.913 34.0436 341.119 33.1568L341.12 33.1565C341.46 33.0626 341.775 32.989 342.054 32.9531C342.325 32.9182 342.616 32.9121 342.883 32.9974C343.182 33.0929 343.414 33.2907 343.547 33.5746C343.667 33.8296 343.694 34.1254 343.682 34.4273C343.623 35.9213 343.746 37.3835 343.882 38.8725L344.018 40.373C344.024 40.4498 344.027 40.5288 344.031 40.5968C344.034 40.6681 344.037 40.731 344.043 40.7913C344.054 40.9156 344.071 40.9938 344.094 41.045C344.111 41.0842 344.127 41.1008 344.153 41.116C344.189 41.137 344.281 41.176 344.483 41.185Z" fill="#FFF4FA" stroke="black"/>
<path d="M354.415 34.3304C356.967 34.3654 359.521 34.4047 362.074 34.4345C362.753 34.4416 363.477 34.3465 363.874 33.8416C364.276 33.3327 363.582 33.1363 363.296 32.841C361.971 31.4762 359.91 30.7029 358.409 29.4793C358.091 29.2202 357.801 28.9383 357.478 28.6832C356.835 28.1794 357.046 27.8423 357.945 27.469C359.965 26.6358 361.977 25.7815 363.935 24.859C364.849 24.4291 366.254 23.976 366.068 23.0876C365.903 22.3017 364.478 22.4678 363.542 22.3221C362.874 22.2168 362.184 22.1543 361.505 22.0736C359.795 21.9891 358.087 21.9088 356.506 21.4874C355.706 21.2749 355.383 21.0198 355.904 20.2599C356.383 19.5607 356.887 18.8727 357.408 18.1885C358.438 16.9545 359.457 15.717 360.503 14.4898C360.928 13.99 361.025 13.5141 360.608 13.1064C360.186 12.6912 359.591 13.046 359.073 13.1794C356.836 13.7644 354.598 14.3566 352.364 14.9593C351.436 15.2091 351.012 15.1591 350.998 14.2944C350.972 12.676 350.714 11.0858 350.514 9.4894C350.461 9.06113 350.507 8.49938 349.767 8.42896C349.089 8.36696 348.851 8.89503 348.5 9.2314C347.534 10.1585 346.57 11.0897 345.609 12.018C344.877 12.783 344.647 12.2687 344.389 11.8655C344.267 11.6745 344.203 11.4129 343.79 11.5416C343.268 11.705 343.473 11.9809 343.547 12.2179C343.626 12.4676 343.735 12.71 343.831 12.9541C346.391 19.4302 348.99 25.8963 351.476 32.3957C351.933 33.5934 352.493 34.4719 354.419 34.3316L354.415 34.3304Z" fill="#E5348B"/>
<path d="M341.647 11.7099C339.095 11.6749 336.541 11.6356 333.988 11.6057C333.309 11.5987 332.585 11.6938 332.188 12.1987C331.786 12.7076 332.48 12.904 332.766 13.1993C334.091 14.5641 336.152 15.3373 337.653 16.561C337.971 16.8201 338.262 17.102 338.584 17.3571C339.227 17.8609 339.016 18.198 338.117 18.5712C336.097 19.4045 334.085 20.2588 332.127 21.1813C331.213 21.6111 329.808 22.0643 329.994 22.9527C330.159 23.7386 331.584 23.5725 332.52 23.7182C333.188 23.8235 333.879 23.8859 334.557 23.9666C336.267 24.0512 337.975 24.1315 339.556 24.5528C340.356 24.7654 340.679 25.0205 340.158 25.7804C339.679 26.4796 339.175 27.1675 338.654 27.8518C337.624 29.0858 336.605 30.3233 335.559 31.5505C335.134 32.0502 335.037 32.5262 335.454 32.9339C335.876 33.3491 336.471 32.9943 336.989 32.8609C339.226 32.2759 341.464 31.6837 343.698 31.081C344.626 30.8311 345.05 30.8812 345.064 31.7459C345.09 33.3643 345.348 34.9544 345.548 36.5509C345.601 36.9792 345.555 37.5409 346.295 37.6113C346.973 37.6733 347.211 37.1453 347.562 36.8089C348.528 35.8818 349.492 34.9505 350.453 34.0223C351.185 33.2572 351.415 33.7716 351.673 34.1748C351.795 34.3658 351.859 34.6274 352.272 34.4986C352.794 34.3353 352.589 34.0594 352.515 33.8224C352.436 33.5727 352.327 33.3303 352.231 33.0862C349.671 26.6101 347.072 20.144 344.586 13.6446C344.129 12.4469 343.569 11.5684 341.643 11.7087L341.647 11.7099Z" fill="#E5348B"/>
<path d="M74.4548 116.022C73.9765 115.725 73.5509 115.692 73.1075 115.76C72.8762 115.795 72.6441 115.857 72.3899 115.929C72.2672 115.963 72.1374 116 72.0038 116.036L71.5939 116.13C68.8183 116.656 66.0416 117.192 63.2709 117.724L63.2711 117.723C62.7104 117.851 62.2514 117.893 61.8749 117.84C61.4814 117.786 61.1557 117.626 60.9226 117.346C60.7027 117.082 60.6174 116.772 60.5754 116.519C60.535 116.277 60.5237 115.994 60.5079 115.807L60.5071 115.806C60.5014 115.736 60.4999 115.669 60.4989 115.614C60.4977 115.555 60.4971 115.512 60.495 115.468C60.4907 115.381 60.4812 115.349 60.4762 115.337C60.475 115.334 60.4744 115.333 60.4739 115.332C60.4731 115.331 60.4664 115.323 60.4484 115.311C60.4186 115.29 60.3597 115.259 60.2526 115.227L60.1282 115.196C59.875 115.141 59.7394 115.146 59.6748 115.159C59.6499 115.164 59.6386 115.17 59.6357 115.172C59.6299 115.18 59.6124 115.211 59.5936 115.309C59.5843 115.357 59.5779 115.406 59.5677 115.471C59.5584 115.53 59.5465 115.604 59.5295 115.678L59.5294 115.679C59.4281 116.125 59.3921 116.564 59.3189 117.081C57.5138 129.823 55.7914 142.599 53.8219 155.315L53.7617 155.739C53.6411 156.704 53.6641 157.508 54.007 158.231C54.3931 159.045 55.2424 159.87 57.0775 160.672L57.0293 160.804L57.1074 160.683L71.4772 168.31C72.7469 168.979 74.0442 169.435 75.108 169.089L75.1089 169.089C75.2368 169.048 75.3116 169.006 75.3534 168.975C75.3736 168.96 75.3849 168.949 75.3905 168.942C75.3931 168.939 75.3945 168.936 75.3955 168.935C75.3963 168.934 75.3968 168.932 75.3968 168.932L75.397 168.931C75.3972 168.929 75.3984 168.923 75.3976 168.912C75.3958 168.888 75.3869 168.844 75.3617 168.777C75.3076 168.633 75.2144 168.47 75.0888 168.252C74.9777 168.059 74.8323 167.805 74.7519 167.553L74.7508 167.554C74.2251 165.91 73.2154 164.298 72.1018 162.63C71.0043 160.987 69.8 159.282 68.9863 157.534C68.813 157.161 68.6589 156.787 68.5102 156.428C68.3599 156.066 68.2129 155.718 68.0465 155.374L68.0476 155.374C67.8595 154.99 67.7314 154.612 67.7377 154.262C67.7449 153.871 67.9192 153.558 68.2321 153.363C68.5122 153.188 68.8751 153.124 69.2568 153.11C69.6482 153.096 70.1169 153.133 70.6502 153.206L70.6512 153.207C75.3221 153.855 79.9938 154.461 84.6315 154.908C85.7653 155.017 87.0202 155.225 88.1084 155.216C88.6449 155.212 89.089 155.153 89.4178 155.024C89.696 154.915 89.8691 154.766 89.9639 154.572L89.9997 154.486C90.0555 154.328 90.0355 154.173 89.884 153.956C89.7164 153.716 89.4181 153.452 89.0037 153.162C88.5957 152.876 88.1201 152.596 87.6274 152.305C87.1439 152.02 86.6408 151.723 86.2145 151.423L86.2135 151.422C85.0723 150.614 83.8568 149.858 82.6456 149.062C79.5168 147.271 76.3273 145.458 73.7278 143.213C73.3966 142.928 73.1013 142.647 72.8819 142.371C72.6672 142.101 72.4786 141.778 72.4533 141.416C72.4261 141.025 72.5959 140.703 72.8632 140.454C73.0555 140.274 73.3121 140.116 73.6232 139.972L73.952 139.832C75.5832 139.188 77.2482 138.588 78.9409 138.011L78.9493 138.008L78.9584 138.006L83.7709 136.575C85.3768 136.099 86.9862 135.625 88.6055 135.163C89.2314 134.984 89.6245 134.758 89.8245 134.518C89.9729 134.34 90.036 134.134 89.963 133.839L89.9226 133.707C89.8241 133.425 89.5729 133.227 89.0599 133.066C88.8101 132.988 88.532 132.929 88.2298 132.87C87.9371 132.812 87.6146 132.753 87.3168 132.674L87.3179 132.674C84.9038 132.047 82.4876 131.424 80.0702 130.804L72.8133 128.956C72.3031 128.827 71.8515 128.694 71.4779 128.541C71.1113 128.39 70.7708 128.202 70.5256 127.936C70.2578 127.645 70.1288 127.289 70.1596 126.894C70.1879 126.53 70.3489 126.163 70.5805 125.791C72.1705 123.235 73.2972 120.508 74.5674 117.763L74.7123 117.469C74.7606 117.374 74.8051 117.286 74.8451 117.198C74.9268 117.02 74.9741 116.876 74.987 116.752C74.9985 116.642 74.9823 116.551 74.9277 116.456C74.8674 116.351 74.7379 116.2 74.4548 116.022Z" fill="#FFF4FA" stroke="black"/>
<path d="M38.0194 158.567C38.4977 158.865 38.9233 158.897 39.3667 158.83C39.598 158.795 39.8301 158.733 40.0843 158.661C40.207 158.626 40.3368 158.589 40.4704 158.554L40.8803 158.46C43.6559 157.933 46.4326 157.398 49.2033 156.865L49.2031 156.866C49.7638 156.739 50.2228 156.697 50.5993 156.749C50.9928 156.804 51.3185 156.964 51.5516 157.244C51.7715 157.508 51.8568 157.818 51.8988 158.071C51.9392 158.313 51.9505 158.596 51.9663 158.782L51.9671 158.783C51.9728 158.853 51.9743 158.921 51.9753 158.975C51.9765 159.035 51.9771 159.078 51.9792 159.122C51.9835 159.208 51.993 159.241 51.998 159.253C51.9992 159.256 51.9998 159.257 52.0003 159.258C52.0011 159.258 52.0078 159.266 52.0258 159.279C52.0556 159.299 52.1145 159.331 52.2216 159.362L52.346 159.394C52.5992 159.449 52.7348 159.444 52.7994 159.431C52.8243 159.425 52.8356 159.42 52.8385 159.418C52.8443 159.41 52.8618 159.379 52.8806 159.28C52.8899 159.232 52.8963 159.184 52.9065 159.119C52.9158 159.059 52.9277 158.986 52.9447 158.912L52.9448 158.911C53.0461 158.465 53.0821 158.025 53.1553 157.508C54.9604 144.766 56.6828 131.991 58.6523 119.275L58.7125 118.85C58.8331 117.886 58.8101 117.082 58.4672 116.359C58.0811 115.545 57.2318 114.72 55.3967 113.918L55.4449 113.785L55.3668 113.906L40.997 106.279C39.7273 105.61 38.43 105.155 37.3662 105.501L37.3653 105.501C37.2374 105.542 37.1626 105.584 37.1208 105.615C37.1006 105.63 37.0893 105.641 37.0837 105.648C37.0811 105.651 37.0797 105.653 37.0788 105.655C37.0779 105.656 37.0774 105.657 37.0774 105.657L37.0772 105.658C37.077 105.66 37.0758 105.666 37.0766 105.677C37.0784 105.702 37.0873 105.745 37.1125 105.812C37.1666 105.957 37.2598 106.119 37.3854 106.338C37.4965 106.53 37.6419 106.784 37.7223 107.037L37.7234 107.036C38.2491 108.679 39.2588 110.292 40.3724 111.959C41.4699 113.603 42.6742 115.307 43.4879 117.056C43.6612 117.428 43.8153 117.803 43.964 118.161C44.1143 118.523 44.2613 118.872 44.4277 119.215L44.4266 119.216C44.6147 119.6 44.7428 119.978 44.7365 120.328C44.7293 120.719 44.555 121.031 44.2421 121.227C43.962 121.401 43.5991 121.466 43.2174 121.48C42.826 121.494 42.3573 121.456 41.824 121.383L41.823 121.383C37.1521 120.734 32.4804 120.128 27.8427 119.682C26.7089 119.572 25.454 119.364 24.3658 119.373C23.8294 119.378 23.3852 119.437 23.0564 119.566C22.7782 119.675 22.6051 119.824 22.5103 120.017L22.4745 120.103C22.4187 120.262 22.4387 120.417 22.5902 120.634C22.7578 120.874 23.0561 121.138 23.4705 121.428C23.8785 121.714 24.3541 121.994 24.8468 122.285C25.3303 122.57 25.8334 122.866 26.2597 123.167L26.2607 123.167C27.4019 123.975 28.6174 124.732 29.8286 125.528C32.9574 127.318 36.1469 129.132 38.7464 131.376C39.0776 131.662 39.3729 131.943 39.5923 132.219C39.807 132.488 39.9956 132.811 40.0209 133.173C40.0481 133.565 39.8783 133.886 39.611 134.136C39.4187 134.316 39.1621 134.473 38.851 134.618L38.5222 134.758C36.891 135.401 35.226 136.002 33.5333 136.579L33.5249 136.582L33.5158 136.584L28.7033 138.014C27.0974 138.491 25.488 138.964 23.8687 139.427C23.2428 139.606 22.8497 139.832 22.6497 140.072C22.5013 140.25 22.4382 140.456 22.5112 140.75L22.5516 140.883C22.6501 141.165 22.9013 141.363 23.4143 141.523C23.6641 141.602 23.9422 141.66 24.2444 141.72C24.5371 141.778 24.8596 141.837 25.1574 141.915L25.1563 141.916C27.5704 142.543 29.9866 143.166 32.404 143.786L39.6609 145.633C40.1711 145.762 40.6227 145.896 40.9963 146.049C41.3629 146.199 41.7034 146.388 41.9486 146.654C42.2164 146.944 42.3454 147.3 42.3146 147.696C42.2863 148.06 42.1253 148.427 41.8937 148.799C40.3037 151.355 39.177 154.081 37.9068 156.827L37.7619 157.121C37.7136 157.216 37.6691 157.304 37.6291 157.392C37.5474 157.57 37.5001 157.714 37.4872 157.837C37.4757 157.948 37.4919 158.039 37.5465 158.134C37.6068 158.239 37.7363 158.389 38.0194 158.567Z" fill="#FFF4FA" stroke="black"/>
<path d="M56.1729 156.779C59.4749 158.718 62.776 160.663 66.0835 162.596C66.9634 163.109 67.9787 163.522 68.8708 163.158C69.7724 162.792 69.0131 162.022 68.8595 161.425C68.1443 158.662 66.0291 156.124 64.9794 153.415C64.7571 152.842 64.5876 152.259 64.3558 151.687C63.8908 150.553 64.4164 150.27 65.8663 150.45C69.1185 150.862 72.3755 151.24 75.6133 151.489C77.1235 151.607 79.2915 152.057 79.7086 150.761C80.0766 149.614 78.0945 148.774 76.9824 147.89C76.1895 147.257 75.3351 146.663 74.5108 146.055C72.3434 144.676 70.1752 143.304 68.4254 141.582C67.5401 140.712 67.3084 140.139 68.5519 139.535C69.6953 138.979 70.8621 138.455 72.0497 137.95C74.308 137.104 76.5541 136.246 78.8281 135.421C79.7535 135.085 80.2328 134.536 79.9924 133.696C79.7493 132.841 78.7097 132.862 77.9363 132.652C74.5847 131.756 71.2272 130.868 67.8673 129.997C66.4713 129.634 65.9554 129.255 66.5789 128.117C67.7445 125.986 68.5882 123.722 69.5112 121.491C69.7594 120.893 70.2365 120.195 69.3234 119.554C68.4862 118.971 67.7833 119.483 67.0763 119.661C65.1295 120.154 63.1817 120.653 61.2389 121.15C59.7176 121.606 59.7994 120.764 59.761 120.047C59.7438 119.707 59.8548 119.319 59.2207 119.18C58.4189 119.006 58.4818 119.518 58.4023 119.882C58.3198 120.266 58.2823 120.663 58.227 121.053C56.7617 131.397 55.3547 141.757 53.776 152.077C53.4834 153.977 53.5612 155.538 56.1769 156.784L56.1729 156.779Z" fill="#3EC07E"/>
<path d="M56.3013 117.81C52.9993 115.872 49.6983 113.927 46.3908 111.994C45.5109 111.481 44.4955 111.068 43.6034 111.432C42.7019 111.797 43.4611 112.568 43.6147 113.165C44.33 115.928 46.4452 118.465 47.4949 121.174C47.7171 121.748 47.8866 122.331 48.1184 122.903C48.5835 124.037 48.0578 124.32 46.6079 124.139C43.3557 123.728 40.0988 123.35 36.8609 123.1C35.3507 122.983 33.1827 122.532 32.7656 123.828C32.3976 124.975 34.3797 125.816 35.4918 126.7C36.2847 127.333 37.1391 127.926 37.9634 128.535C40.1308 129.913 42.2991 131.285 44.0488 133.008C44.9341 133.878 45.1659 134.45 43.9223 135.054C42.7789 135.611 41.6121 136.135 40.4245 136.64C38.1663 137.485 35.9201 138.344 33.6461 139.168C32.7207 139.505 32.2414 140.053 32.4818 140.894C32.7249 141.749 33.7645 141.728 34.5379 141.937C37.8895 142.834 41.247 143.722 44.6069 144.592C46.003 144.955 46.5188 145.335 45.8953 146.473C44.7297 148.603 43.886 150.868 42.963 153.098C42.7149 153.696 42.2378 154.394 43.1508 155.035C43.9881 155.618 44.6909 155.107 45.3979 154.928C47.3447 154.436 49.2925 153.936 51.2353 153.439C52.7566 152.984 52.6748 153.825 52.7132 154.543C52.7305 154.882 52.6194 155.271 53.2535 155.409C54.0553 155.583 53.9924 155.071 54.072 154.707C54.1544 154.323 54.192 153.926 54.2472 153.537C55.7126 143.193 57.1195 132.833 58.6982 122.513C58.9908 120.612 58.913 119.052 56.2973 117.806L56.3013 117.81Z" fill="#3EC07E"/>
</svg>
