<svg width="715" height="227" viewBox="0 0 715 227" fill="none" xmlns="http://www.w3.org/2000/svg">
<path d="M714 212.415L714 199.728C714 196.941 714 194.364 714 191.604C714 186.928 714 180.137 714 177.42C714 168.748 708.361 160.387 708.361 151.716V92.1732V39.5674V24.2481C708.361 21.1067 708.361 14.5641 705.211 11.8706C705.211 8.50378 685.977 2.43965 682.14 2.10683C675.773 1.55453 658.571 1.12468 652.189 1.12468H271.888H74.2799C60.9165 1.12468 45.458 0.610413 33.235 1.67065C24.3691 2.43968 10.3289 4.63168 6.15375 7.48364C4.79041 8.41492 5.73065 9.9444 5.73065 10.9521C5.73065 12.7085 4.39343 12.3852 2.13397 13.5856C-0.287598 14.8722 1.9223 18.4111 1.9223 19.9125V32.9194V137.264V163.278V176.285C1.9223 179.515 1.9223 181.876 3.7207 185.855V191.644C3.7207 195.694 7.63483 198.808 7.63483 202.759C7.63483 204.944 5.82709 210.494 7.63483 212.415C10.1235 215.059 12.8676 221.958 25.1695 223.98C39.8396 226 65.4769 225.663 79.758 225.663C94.3565 225.663 100.763 224.844 115.361 224.844H131.735H148.542H171.392H257.078H436.068C499.611 224.844 563.924 225.422 626.483 225.422C640.875 225.422 655.47 226 669.326 226C675.953 226 683.311 224.951 689.32 224.844C695.515 224.733 700.945 222.271 704.428 220.274C710.968 216.524 714 216.823 714 212.415Z" fill="#FFF4FA" stroke="black" stroke-width="2" stroke-linecap="round"/>
</svg>
