<svg width="275" height="68" viewBox="0 0 275 68" fill="none" xmlns="http://www.w3.org/2000/svg">
<g filter="url(#filter0_d_1_186)">
<path d="M271 42.9796C271 51.0811 264.567 57.7187 256.469 57.9722L191.709 60L133.05 57.5172H99.8773H65.0864L32.7371 59.9092C31.9198 59.9696 31.0989 59.963 30.2827 59.8893L18.3813 58.8152C10.3517 58.0905 4.33121 51.1483 4.74991 43.0969L5.95602 19.9031C6.0004 19.0499 5.9679 18.1944 5.85889 17.3471C4.83926 9.42067 10.5417 2.20774 18.4895 1.37089L31.5091 -3.8147e-06H88.9545L186.045 1.65517L231.759 -3.8147e-06L257.104 1.87084C264.939 2.44914 271 8.97426 271 16.8301V42.9796Z" fill="#FFAFE4"/>
<path d="M133.071 57.0176H65.0684L65.0498 57.0186L32.7002 59.4102C31.9103 59.4686 31.117 59.4628 30.3281 59.3916L18.4268 58.3174C10.6649 57.6169 4.84437 50.906 5.24902 43.123L6.45508 19.9287C6.50099 19.0457 6.46732 18.1602 6.35449 17.2832C5.37075 9.6352 10.8734 2.67563 18.542 1.86816L31.5342 0.5H88.9463L186.037 2.15527H186.063L231.75 0.501953L257.067 2.36914C264.641 2.92817 270.5 9.23609 270.5 16.8301V42.9795C270.5 50.8108 264.282 57.2274 256.454 57.4727L191.715 59.5L133.071 57.0176Z" stroke="#3D2B6C"/>
</g>
<defs>
<filter id="filter0_d_1_186" x="0.72934" y="0" width="274.271" height="68" filterUnits="userSpaceOnUse" color-interpolation-filters="sRGB">
<feFlood flood-opacity="0" result="BackgroundImageFix"/>
<feColorMatrix in="SourceAlpha" type="matrix" values="0 0 0 0 0 0 0 0 0 0 0 0 0 0 0 0 0 0 127 0" result="hardAlpha"/>
<feOffset dy="4"/>
<feGaussianBlur stdDeviation="2"/>
<feComposite in2="hardAlpha" operator="out"/>
<feColorMatrix type="matrix" values="0 0 0 0 0 0 0 0 0 0 0 0 0 0 0 0 0 0 0.25 0"/>
<feBlend mode="normal" in2="BackgroundImageFix" result="effect1_dropShadow_1_186"/>
<feBlend mode="normal" in="SourceGraphic" in2="effect1_dropShadow_1_186" result="shape"/>
</filter>
</defs>
</svg>
