<svg width="181" height="68" viewBox="0 0 181 68" fill="none" xmlns="http://www.w3.org/2000/svg">
<path d="M93.376 4.80859L93.4463 4.81348H139.713L139.835 4.79883L160.554 2.2373C161.729 2.09208 162.918 2.10854 164.089 2.28516L167.533 2.80469C174.044 3.78727 178.792 9.4824 178.587 16.0635L177.63 46.834L177.626 46.9424L177.635 47.0498L177.962 51.3057C178.475 57.9757 173.842 63.9467 167.254 65.1064L163.295 65.8027C162.551 65.9337 161.797 66 161.041 66H123.432L57.6475 64.125L57.5586 64.1221L57.4697 64.1279L27.8564 65.9199C27.0633 65.9679 26.2671 65.944 25.4785 65.8467L13.4082 64.3564C6.89364 63.5525 2 58.0181 2 51.4541V17.0488C2.00015 10.1334 7.4143 4.42796 14.3203 4.06641L53.7305 2.00293L93.376 4.80859Z" fill="#C4DEF8" stroke="#392962" stroke-width="4"/>
</svg>
