<svg width="229" height="77" viewBox="0 0 229 77" fill="none" xmlns="http://www.w3.org/2000/svg">
<path d="M225.507 71.2691L225.507 67.0521L225.507 64.352C225.507 62.7979 225.507 60.5408 225.507 59.6375L225.507 49.6804C225.507 43.0836 227.519 37.2284 227.519 30.6316L227.518 16.5213C228.725 10.1717 227.518 10.1716 225.507 7.34956C225.507 6.30542 223.744 5.50835 222.759 4.61312C222.759 3.49407 216.746 1.47851 215.547 1.36789C213.556 1.18432 208.179 1.04144 206.183 1.04144H87.2942H25.5181C21.3404 1.04144 16.5078 0.870514 12.6867 1.22291C9.91504 1.47852 5.52576 2.20708 4.22054 3.15501C3.79433 3.46454 4.08829 3.9729 4.08829 4.30785C4.08829 4.89161 3.67024 4.78417 2.9639 5.18316C2.20686 5.61077 2.89774 6.78702 2.89774 7.28603V11.6092C2.89774 23.1697 1 30.3592 1 41.9197C1 44.8018 1.40234 51.7368 1.40234 54.6189C1.40234 56.06 2.60936 57.441 2.20702 58.852C2.60936 61.6741 2.04713 61.0569 2.60936 62.3796C2.60936 62.3796 2.8316 62.8233 3.45995 64.3652C4.08829 65.9072 4.08829 66.7105 4.08829 68.0237C4.08829 68.7499 4.11844 70.6306 4.68358 71.2691C5.46159 72.148 6.31943 74.441 10.1652 75.113C14.7514 75.7844 22.7661 75.6725 27.2307 75.6725C31.7944 75.6725 33.7971 75.4001 38.3608 75.4001H43.4796H48.7337H55.8771H82.6643H138.62C158.485 75.4001 178.59 75.5923 198.147 75.5923C202.647 75.5923 207.209 75.7844 211.541 75.7844C213.613 75.7844 215.913 75.4358 217.791 75.4001C219.728 75.3634 221.67 76.4483 222.759 75.7844C224.804 74.538 225.507 72.7343 225.507 71.2691Z" fill="#C4DEF8"/>
<path d="M225.507 71.2691L225.507 67.0521L225.507 64.352C225.507 62.7979 225.507 60.5408 225.507 59.6375L225.507 49.6804C225.507 43.0836 227.519 37.2284 227.519 30.6316L227.518 16.5213C228.725 10.1717 227.518 10.1716 225.507 7.34956C225.507 6.30542 223.744 5.50835 222.759 4.61312C222.759 3.49407 216.746 1.47851 215.547 1.36789C213.556 1.18432 208.179 1.04144 206.183 1.04144H87.2942H25.5181C21.3404 1.04144 16.5078 0.870514 12.6867 1.22291C9.91504 1.47852 5.52576 2.20708 4.22054 3.15501C3.79433 3.46454 4.08829 3.9729 4.08829 4.30785C4.08829 4.89161 3.67024 4.78417 2.9639 5.18316C2.20686 5.61077 2.89774 6.78702 2.89774 7.28603V11.6092C2.89774 23.1697 1 30.3592 1 41.9197C1 44.8018 1.40234 51.7368 1.40234 54.6189C1.40234 56.06 2.60936 57.441 2.20702 58.852C2.60936 61.6741 2.04713 61.0569 2.60936 62.3796C2.60936 62.3796 2.8316 62.8233 3.45995 64.3652C4.08829 65.9072 4.08829 66.7105 4.08829 68.0237C4.08829 68.7499 4.11844 70.6306 4.68358 71.2691C5.46159 72.148 6.31943 74.441 10.1652 75.113C14.7514 75.7844 22.7661 75.6725 27.2307 75.6725C31.7944 75.6725 33.7971 75.4001 38.3608 75.4001H43.4796H48.7337H55.8771H82.6643H138.62C158.485 75.4001 178.59 75.5923 198.147 75.5923C202.647 75.5923 207.209 75.7844 211.541 75.7844C213.613 75.7844 215.913 75.4358 217.791 75.4001C219.728 75.3634 221.67 76.4483 222.759 75.7844C224.804 74.538 225.507 72.7343 225.507 71.2691Z" stroke="#E5348B" stroke-linecap="round"/>
<path d="M225.507 71.2691L225.507 67.0521L225.507 64.352C225.507 62.7979 225.507 60.5408 225.507 59.6375L225.507 49.6804C225.507 43.0836 227.519 37.2284 227.519 30.6316L227.518 16.5213C228.725 10.1717 227.518 10.1716 225.507 7.34956C225.507 6.30542 223.744 5.50835 222.759 4.61312C222.759 3.49407 216.746 1.47851 215.547 1.36789C213.556 1.18432 208.179 1.04144 206.183 1.04144H87.2942H25.5181C21.3404 1.04144 16.5078 0.870514 12.6867 1.22291C9.91504 1.47852 5.52576 2.20708 4.22054 3.15501C3.79433 3.46454 4.08829 3.9729 4.08829 4.30785C4.08829 4.89161 3.67024 4.78417 2.9639 5.18316C2.20686 5.61077 2.89774 6.78702 2.89774 7.28603V11.6092C2.89774 23.1697 1 30.3592 1 41.9197C1 44.8018 1.40234 51.7368 1.40234 54.6189C1.40234 56.06 2.60936 57.441 2.20702 58.852C2.60936 61.6741 2.04713 61.0569 2.60936 62.3796C2.60936 62.3796 2.8316 62.8233 3.45995 64.3652C4.08829 65.9072 4.08829 66.7105 4.08829 68.0237C4.08829 68.7499 4.11844 70.6306 4.68358 71.2691C5.46159 72.148 6.31943 74.441 10.1652 75.113C14.7514 75.7844 22.7661 75.6725 27.2307 75.6725C31.7944 75.6725 33.7971 75.4001 38.3608 75.4001H43.4796H48.7337H55.8771H82.6643H138.62C158.485 75.4001 178.59 75.5923 198.147 75.5923C202.647 75.5923 207.209 75.7844 211.541 75.7844C213.613 75.7844 215.913 75.4358 217.791 75.4001C219.728 75.3634 221.67 76.4483 222.759 75.7844C224.804 74.538 225.507 72.7343 225.507 71.2691Z" stroke="#131C40" stroke-linecap="round"/>
</svg>
