<svg width="163" height="57" viewBox="0 0 163 57" fill="none" xmlns="http://www.w3.org/2000/svg">
<path d="M84.1836 2.85742L84.2002 2.8584H125.736L125.765 2.85547L144.359 0.71582C145.581 0.575247 146.816 0.590684 148.034 0.761719L149.574 0.977539C156.916 2.00861 162.297 8.41189 162.05 15.8213L161.266 39.2939L161.265 39.3223L161.267 39.3516L161.361 40.4902C161.984 48.0236 156.715 54.7719 149.255 55.9941L147.33 56.3096C146.555 56.4366 145.771 56.5 144.985 56.5H111.149L51.877 54.9277L51.8564 54.9268L51.8359 54.9287L25.209 56.4287C24.385 56.4751 23.5582 56.4506 22.7383 56.3564L13.3457 55.2783C6.02604 54.4375 0.50021 48.2408 0.5 40.873V16.6455C0.500013 8.91185 6.5695 2.53967 14.2939 2.16309L48.3975 0.5L84.1836 2.85742Z" fill="#FFF4FA" stroke="#392962"/>
</svg>
