<svg width="326" height="67" viewBox="0 0 326 67" fill="none" xmlns="http://www.w3.org/2000/svg">
<path d="M321.441 61.8999L321.441 58.2452L321.441 55.9051C321.441 54.5582 321.441 52.602 321.441 51.8191L321.441 43.1897C321.441 37.4724 324.313 32.398 324.313 26.6807L324.313 14.4518C326.035 8.94878 324.313 8.94873 321.441 6.50295C321.441 5.59803 318.925 4.90725 317.52 4.13137C317.52 3.16154 308.937 1.41471 307.225 1.31884C304.384 1.15974 296.709 1.03592 293.861 1.03592H124.169H35.995C30.0322 1.03592 23.1345 0.887779 17.6805 1.19319C13.7245 1.41472 7.45969 2.04614 5.59671 2.86767C4.9884 3.13593 5.40793 3.57651 5.40793 3.8668C5.40793 4.37273 4.81125 4.27962 3.80307 4.62541C2.72256 4.99601 3.70865 6.01542 3.70865 6.4479V10.1947C3.70865 20.2138 1 26.4446 1 36.4637C1 38.9616 1.57425 44.9719 1.57425 47.4698C1.57425 48.7187 3.29706 49.9155 2.72278 51.1384C3.29706 53.5842 2.4946 53.0493 3.29706 54.1957C3.29706 54.1957 3.61426 54.5802 4.51111 55.9165C5.40793 57.2529 5.40793 57.9491 5.40793 59.0872C5.40793 59.7166 5.45099 61.3466 6.2576 61.8999C7.36807 62.6616 8.5925 64.6488 14.0816 65.2313C20.6275 65.8132 32.067 65.7161 38.4394 65.7161C44.9533 65.7161 47.8117 65.4801 54.3256 65.4801H61.6317H69.131H79.3267H117.561H197.427C225.78 65.4801 254.477 65.6466 282.391 65.6466C288.813 65.6466 295.325 65.8132 301.508 65.8132C304.465 65.8132 307.748 65.511 310.429 65.4801C313.193 65.4482 315.966 66.3886 317.52 65.8132C320.438 64.7329 321.441 63.1697 321.441 61.8999Z" fill="#C4DEF8" stroke="#392962" stroke-linecap="round"/>
</svg>
