<svg width="187" height="31" viewBox="0 0 187 31" fill="none" xmlns="http://www.w3.org/2000/svg">
<path opacity="0.7" d="M34.795 31C30.915 27.9733 2.60411 31.0161 0.543546 30.1145C-1.13341 28.891 1.46423 7.65556 3.00965 4.53224C3.55768 3.42137 4.19338 3.24427 5.65113 3.77556C7.96379 4.77373 37.7982 3.16377 37.7982 3.16377C38.1928 3.82386 39.3655 1.61821 39.5957 2.42319C40.2862 4.30685 88.6438 2.23 92.765 2.1656C95.264 2.1173 93.2911 3.38917 96.2394 2.89008C102.509 1.9241 116.188 3.05108 120.922 1.9241C124.726 0.990325 125.537 0.974226 129.198 1.77921C132.935 2.50369 152.763 1.69871 155.031 0.233644C155.579 -0.168847 156.007 -0.0239502 156.007 0.459038C156.007 0.555636 169.992 1.03862 170.058 1.40892C170.168 1.8758 170.595 2.1173 170.99 1.79531C171.713 1.31232 186.598 -0.329843 186.839 1.05472C187.584 4.99913 185.6 21.7105 183.879 25.7676C182.126 30.0984 172.393 25.1236 164.589 27.6674L128.233 27.5708L120.44 29.1324C119.541 27.6996 116.122 31.2415 114.039 28.6817C113.162 27.6674 106.97 27.4581 105.6 28.5046C104.416 29.3095 72.7292 26.9268 69.4959 29.7442C63.7088 27.2971 40.2314 30.4687 34.795 31Z" fill="#87E0B3"/>
</svg>
