<svg width="152" height="149" viewBox="0 0 152 149" fill="none" xmlns="http://www.w3.org/2000/svg">
<path d="M113.296 148.271C112.823 148.311 111.047 148.66 110.318 148.738C111.161 149.048 114.972 148.149 113.296 148.271ZM48.937 109.058C49.0272 109.143 49.1203 109.228 49.2163 109.313C49.5126 109.53 49.8019 109.743 50.094 109.957C49.7863 109.824 49.4615 109.674 49.1192 109.512C48.3113 109.136 47.5273 108.651 46.9458 108.358C46.822 108.296 46.9647 108.733 46.6832 108.565C46.4054 108.394 46.6735 108.104 46.3333 107.81C45.9177 107.502 44.0982 106.267 43.5281 105.538C42.4877 104.349 41.5368 102.806 39.5505 99.9789C38.3857 98.3194 37.3497 96.5273 36.3032 94.555C38.0106 98.5077 35.734 94.8564 35.3438 93.585C35.2683 93.2823 35.8529 93.2318 34.2279 89.2043C34.1413 88.9784 34.0508 88.7484 33.9569 88.5151C32.5088 84.9554 32.641 88.4062 31.177 82.852C33.3604 86.6915 31.7379 82.5881 30.8502 79.6461C30.7913 79.4509 30.5509 78.7335 30.2843 77.8438C29.8405 76.3848 29.3271 74.3335 29.1136 73.1624C28.9915 72.5142 29.1805 71.4585 29.0471 70.6021C28.9552 70.0122 28.675 69.5977 28.5605 68.7192C28.4033 67.506 28.2769 66.3037 28.1835 65.1285C27.95 62.2012 27.867 59.4019 27.9805 56.8685C26.8718 58.946 27.6647 55.1601 27.6746 55.0568C27.4787 54.169 27.0712 58.0136 27.0281 56.4658C27.2117 54.373 27.5505 52.5605 28.0661 50.9236C28.0983 50.819 28.1304 50.7154 28.1625 50.6127C28.1311 50.7438 28.1099 50.8502 28.0976 50.9329C28.0811 51.1458 28.1583 51.1326 28.2806 50.987C28.7153 50.292 29.772 47.9253 29.7625 47.2974C30.1126 47.629 30.8342 44.8526 31.7155 42.4222C32.5956 39.8977 33.443 38.4395 35.2272 35.843C35.2236 35.8508 35.2201 35.8585 35.2168 35.8659C35.1785 35.951 35.2212 35.9303 35.2888 35.8801C35.1885 36.1766 34.967 36.7175 35.4801 35.9953C35.3824 36.2201 35.1367 36.6198 34.9274 36.8633C34.7239 37.1112 34.5983 37.15 34.973 36.8114C35.1887 36.6229 34.9521 36.4723 35.1111 36.3884C35.2118 36.3349 36.251 36.6228 36.9831 35.6572C37.1147 35.4813 36.5543 35.6056 36.5854 35.4354C36.6659 35.2447 37.0253 34.8835 40.3492 33.2214C39.4577 34.0995 40.7503 33.5892 43.3583 32.1613C45.6163 30.8701 49.3161 29.1274 50.313 28.669C49.9952 28.9057 49.6778 29.1473 49.3641 29.3925C51.0207 28.4265 51.4235 28.6295 51.7989 28.4846C52.5188 28.2156 53.4886 27.8577 53.8402 27.7116C54.6635 27.462 55.6787 27.2344 56.5362 27.1317C58.5687 26.9009 58.6336 27.4253 61.1873 26.9776C60.5792 27.1495 59.9827 27.3237 59.3991 27.5013C61.1299 27.2942 62.9577 27.1159 64.8472 26.9448C60.4593 26.586 65.7658 26.8371 66.1538 26.829C66.7278 26.8123 65.8842 26.5872 66.8447 26.5525C66.9484 26.5506 66.8091 26.8316 68.3209 26.7507C71.5241 26.5726 71.03 26.2654 72.4479 26.1468C72.4876 26.1437 72.4756 26.1673 72.5071 26.1971C72.5624 26.2703 72.7982 26.3696 74.0876 26.3204C79.9495 26.2392 74.0509 26.1037 73.8185 26.1186C73.5649 26.1039 74.8902 25.2804 72.4395 25.4515C71.7836 25.5051 70.9379 25.5983 69.8782 25.7408C71.7587 25.4927 72.1715 25.0874 72.3964 24.9759C72.4201 24.9613 72.442 24.9517 72.4647 24.9484C72.6372 24.907 75.5989 24.7799 75.7618 24.8058C77.2211 24.9091 75.9517 25.2582 76.237 25.3038C76.4569 25.3183 80.0382 24.9039 80.8454 25.8846C82.5961 25.1173 79.8783 25.0151 77.0159 24.9466C76.5905 24.7667 79.7507 24.5845 79.9249 24.6076C84.0432 24.7609 81.7266 25.385 82.5953 25.8717C83.048 26.1308 84.7421 25.7821 83.1646 26.2943C83.4737 26.3214 83.7414 26.3445 83.9743 26.3632C85.4753 26.5209 84.4093 26.095 84.5418 26.058C84.7729 25.9994 85.525 26.3046 85.6243 26.3048C85.7757 26.2987 85.3131 25.9848 85.901 26.0246C86.0064 26.0345 86.8169 26.5986 85.6232 26.5211C87.181 26.8105 86.9497 27.1336 87.6905 26.6875C88.3704 28.2221 88.7585 26.317 89.2589 26.4459C90.5974 26.843 89.8209 27.5598 89.8653 27.626C90.1159 27.974 92.0389 28.8603 93.9913 30.1358C94.9926 30.7765 95.8158 31.2665 96.2519 31.5623C96.1199 31.174 95.2424 30.5952 94.1428 29.9027C92.9393 29.148 91.7315 28.6794 91.4172 28.4114C90.5772 27.6901 91.2638 27.9592 92.1138 28.3003C92.9559 28.6371 94.0449 29.1141 93.4508 28.2244C93.7699 28.5868 94.1048 28.9661 94.4844 29.3768C94.8977 29.7645 95.3132 30.1425 95.728 30.5104C97.9742 31.1607 95.4757 29.5643 100.383 32.4039C100.655 32.812 99.8489 32.3834 98.9699 31.8795C98.0974 31.3813 97.184 30.8086 97.557 31.2365C98.0399 31.783 100.877 33.3059 100.814 33.3971C100.851 33.5811 98.3662 32.103 98.6567 32.4941C98.8722 32.7759 100.001 33.428 101.017 33.9433C102.056 34.4701 102.856 34.8331 103.13 34.9048C103.202 34.8896 103.245 34.8474 103.211 34.761C103.056 34.6163 102.71 34.3646 101.709 33.8052C102.48 34.2017 103.041 34.2632 103.475 34.2911C103.698 34.1784 104.054 34.1813 104.348 34.58C104.53 34.8263 103.767 34.7311 103.535 34.9613C103.358 35.2741 103.071 35.1518 105.692 37.2796C105.894 37.167 105.393 36.6688 104.885 36.2707C104.369 35.8629 103.887 35.5926 103.88 35.5664C103.842 35.477 104.755 34.924 104.852 34.9386C104.993 34.688 109.566 39.5488 111.502 41.3033C111.644 41.4234 111.768 41.5173 111.878 41.5891C110.968 41.4006 116.291 46.7038 116.758 47.5432C116.87 47.7471 116.048 47.3319 116.179 47.5404C116.601 48.2006 117.637 49.2363 118.734 50.2984C118.602 50.0486 118.525 49.7927 118.529 49.6837C118.531 49.5686 118.601 49.6072 118.653 49.7318C118.784 50.0355 118.864 50.5137 118.843 50.6861C118.831 50.883 118.75 50.8788 118.766 50.9298C119.076 51.8293 119.028 51.0167 119.229 51.6366C119.293 51.8275 119.424 52.2343 119.678 52.9328C120.185 54.2066 121.116 57.5036 121.142 57.777C121.149 57.8568 120.589 57.0894 120.828 58.251C120.861 58.422 121.103 58.2716 121.575 60.1086C121.647 60.3867 121.713 60.725 121.754 61.1334C121.945 63.5836 120.933 59.5261 120.69 60.6341C121.62 62.0809 120.946 62.0781 121.046 62.4485C121.077 62.5624 121.676 63.5012 121.547 64.3314C121.693 63.7505 121.781 63.0597 121.781 62.2579C121.977 63.0625 121.813 64.3318 121.82 64.7856C121.828 65.0202 122.288 64.9111 122.165 65.4094C122.121 65.5057 121.08 65.6888 121.745 64.5262C121.396 64.3781 121.547 65.0189 121.377 65.2435C121.349 65.2845 120.727 65.261 120.999 65.6558C121.031 65.7092 121.539 65.6728 121.801 65.831C122.055 65.9697 122.097 66.4774 120.939 67.1599C120.865 67.2004 120.805 66.8655 120.728 66.9035C120.687 66.9237 120.432 67.4711 120.346 67.5212C120.277 67.5583 120.262 67.1633 120.171 67.2054C119.992 67.2833 119.941 67.5101 119.957 67.7267C119.949 67.9645 120.058 68.133 120.296 68.002C120.401 67.9563 120.524 67.848 120.631 67.6783C120.588 67.8216 120.538 67.9689 120.465 68.1395C120.328 68.4186 120.157 68.7287 119.967 69.0525C119.859 68.06 119.171 69.6607 118.446 70.3841C113.77 74.954 116.496 71.486 115.534 72.1132C113.935 73.1137 115.833 73.0448 113.559 74.6673C113.355 74.7828 115.403 72.2628 110.886 76.7104C111.577 76.1407 112.298 75.5224 113.017 74.8887C113.082 75.8093 110.449 77.1211 110.334 77.1862C110.229 77.2666 110.133 77.3406 110.056 77.4C108.984 78.1626 109.92 77.7931 107.447 79.0486C107.208 79.1645 106.804 79.6265 106.26 79.8435C104.03 80.7469 108.851 78.0208 108.663 77.6668C108.78 77.561 103.764 80.6344 103.587 80.6502C102.962 81.3068 105.983 79.5685 105.571 80.1844C105.517 80.3257 102.4 81.925 100.21 82.4788C100.861 82.3512 99.3891 82.5091 98.8424 82.5063C97.2143 82.5972 95.5882 83.2514 95.4365 82.5721C95.4324 82.5058 95.4336 82.4258 95.4402 82.33C95.0004 83.3608 94.5961 82.5828 94.3656 82.5586C91.2497 82.1765 91.0258 82.1024 87.8957 81.2803C87.1884 81.0885 86.5 81.2477 86.2582 81.1308C86.1181 81.0613 86.479 80.7984 85.7768 80.5098C84.8187 80.1454 78.5366 78.7404 78.0404 78.7649C77.516 78.8108 80.6196 79.6125 79.9782 79.7485C79.0318 79.4889 78.0897 79.2028 77.1855 78.9169C77.5621 79.0303 77.5322 79.0374 77.403 78.9633C77.2658 78.8899 77.0036 78.7419 76.6892 78.5507C76.2144 78.2573 76.3317 78.5956 76.1136 78.4533C76.0594 78.4555 74.2046 76.7806 74.3286 76.7514C74.4463 76.7517 75.5713 77.6515 76.524 78.2501C76.9928 78.5498 77.3992 78.7606 77.5299 78.7986C77.681 78.8449 77.4725 78.7162 77.2776 78.6154C77.5029 78.649 77.5425 78.6169 77.3156 78.4913C77.3628 78.4913 77.4186 78.4939 77.4748 78.4968C77.6295 78.5092 77.7062 78.664 77.6181 78.6675C77.5449 78.6775 77.4264 78.5819 77.617 78.3361C75.547 77.3435 71.0843 73.4588 68.1572 70.0642C66.2898 67.9427 65.154 66.1264 64.5824 64.5465C64.7862 66.1713 65.9698 68.099 67.9129 70.2707C69.0024 71.4997 70.1878 72.7176 71.3339 73.8693C71.7921 74.3481 73.4197 75.7579 73.0206 75.8071C71.3056 74.3415 69.3924 72.3446 67.754 70.405C66.6465 69.0996 65.7902 67.9023 65.1612 66.9632C65.1122 66.8903 65.0283 67.3077 64.8283 67.0439C64.4048 66.5202 64.175 64.7935 64.0122 64.5625C63.9623 64.5231 63.9426 65.5579 63.6247 65.364C62.7878 64.8089 64.0076 64.2358 63.8218 63.543C63.7162 63.1958 63.3615 62.181 62.6853 59.0114C62.8144 59.8685 62.7466 59.8984 62.7433 59.9029C62.7292 59.8807 62.7257 59.7189 62.7399 59.5406C62.7677 59.1726 62.8588 58.735 62.9854 58.4921C63.2652 57.9405 63.2126 58.7103 63.2063 59.3765C63.2023 59.6965 63.2224 59.9646 63.253 59.885C63.2671 59.8476 63.2798 59.719 63.2782 59.5154C63.2784 59.3185 63.2575 59.041 63.2608 58.8988C63.2966 58.9649 63.3239 58.9717 63.3409 58.9066C63.3398 58.899 63.3387 58.8914 63.3376 58.8838C63.5477 59.8515 63.5196 59.886 63.5541 59.8955C63.5759 59.8743 63.5967 59.6869 63.6263 59.4542C63.6848 58.9765 63.7719 58.2943 63.8817 57.573C64.1024 56.117 64.4064 54.4704 64.8119 52.8519C64.8741 52.5897 64.9495 52.3393 65.0408 52.0986C65.0525 52.0701 65.2192 52.4245 65.3943 52.0525C65.7092 51.4215 65.4524 51.086 65.5677 50.7223C65.6629 50.3361 66.5835 49.0791 66.6477 48.8045C66.6514 48.7682 66.1306 48.804 66.0906 48.8411C65.5184 49.3454 65.83 49.8273 65.8006 49.88C65.695 50.083 65.4155 50.1759 65.3269 50.3595C65.1823 50.6646 65.2594 50.9029 65.1029 51.2885C64.9993 51.5563 64.7928 51.1634 64.6978 51.4306C64.642 51.5488 65.0512 52.7944 64.2645 52.691C64.1732 52.6542 64.3917 50.7688 65.9355 48.6121C67.4804 46.3287 70.3579 44.2386 73.3131 41.7975C73.41 41.7236 73.4878 41.6739 73.5394 41.65C73.4793 41.7168 73.4201 41.785 73.363 41.8534C71.4273 43.6387 70.6058 44.2996 69.6934 45.1853C70.5794 44.3006 71.6068 43.6539 73.5199 42.0292C74.0632 41.5941 74.5045 41.319 74.2819 40.8121C75.0011 40.363 75.7732 40.0422 76.6678 39.8412C78.5411 39.3965 82.0457 39.4192 85.7455 39.8395C89.7367 40.2311 91.3229 40.3141 93.9497 40.8811C93.5369 40.8337 92.6109 40.2228 92.6769 40.2049C92.6944 40.1794 93.2999 40.9274 94.1111 42.2661C95.216 43.9331 95.1446 42.9909 96.7563 45.4886C96.8642 45.651 96.9805 45.8503 97.104 46.1009C96.9149 45.9405 96.7235 45.7871 96.5292 45.6394C95.9984 45.0458 95.5151 44.4874 95.0691 43.9781C95.315 44.328 95.7195 44.9341 96.3175 45.7799C97.0961 46.753 97.9689 48.3419 98.6448 50.3182C98.194 48.8572 98.2994 48.6228 98.2616 48.4106C98.253 48.2353 98.2483 48.2353 98.2313 48.2297C98.2228 48.2312 98.0823 48.2141 97.9327 48.244C97.7801 48.2799 97.6295 48.3672 97.507 48.8037C97.2626 49.6183 97.5633 49.9649 97.4439 50.5214C97.3328 51.0013 97.0021 51.4603 96.961 51.5963C96.9373 51.6777 97.0527 51.7833 97.0731 51.9444C97.0834 51.9871 97.0854 52.033 97.0725 52.0807C96.8976 52.6841 96.5256 51.9058 96.9383 52.7953C97.0343 52.7047 97.1318 52.6043 97.2314 52.4914C97.001 53.1577 96.7079 54.0686 97.4648 53.3841C97.5909 53.2557 97.3034 53.2442 97.3764 53.1358C97.549 52.8793 97.7056 52.6092 97.8501 52.333C98.8321 50.3472 98.9382 49.7795 98.9561 50.0342C98.9525 50.2671 98.6587 51.3627 98.094 52.455C97.7579 53.1086 97.4121 53.5274 97.0338 53.827C96.988 54.2386 96.517 54.6169 93.9105 57.2492C94.6292 56.4849 95.1007 56.2818 95.2593 56.1919C95.431 56.109 95.4099 56.1265 95.4207 56.1378C95.4375 56.1867 95.4694 56.2796 95.5069 56.3899C95.5315 56.5036 95.644 56.612 95.5439 56.7715C95.5308 56.7875 95.4002 56.8298 94.9763 56.8942C94.5639 56.9579 93.8636 57.0183 93.1703 57.0509C92.107 57.1015 91.4461 57.0917 92.2933 57.3766C92.4113 57.4115 92.7374 57.4328 93.183 57.4182C94.3875 57.3949 95.539 57.1365 95.6221 57.1032C95.4749 57.5131 94.4313 57.6636 93.1879 57.5594C91.8833 57.4398 91.0249 56.9479 90.8623 56.9347C90.2561 56.8725 90.772 57.1611 91.1903 57.3799C91.6255 57.5801 91.7854 57.8317 90.2989 57.5887C88.2149 57.038 90.2745 57.143 89.6013 56.6923C89.4234 56.5651 88.8116 56.4369 88.2643 56.1286C87.7228 55.836 87.2011 55.3336 87.4656 55.0789C86.7197 54.3262 86.9202 55.0109 86.8053 54.9489C86.7653 54.9226 86.5991 54.7519 86.2933 54.4307C85.9501 54.0869 85.6379 53.6853 84.49 52.686C84.3912 52.5826 84.3592 52.5481 84.2902 52.558C84.2662 52.5591 84.0032 52.8369 83.9704 52.8462C83.936 52.8455 83.8814 52.7794 83.805 52.614C83.731 52.4622 83.6012 52.0874 83.6032 52.045C83.6129 52.0133 84.0462 52.1803 84.0685 52.0281C84.097 51.9522 83.7951 51.2151 83.4508 50.0758L83.6158 50.6413C83.8484 51.601 83.813 51.7545 83.8416 51.9126C83.8565 52.0442 83.8656 52.0692 83.8807 52.082C83.9048 52.0926 83.9237 52.0867 83.9335 51.976C83.9377 51.9187 83.9407 51.832 83.9275 51.6499C83.9096 51.46 83.8965 51.2085 83.7511 50.6063L83.5837 50.0326C83.9886 51.1742 84.2903 51.8314 84.4433 51.54C84.299 51.26 84.1367 50.7493 83.9111 49.926L84.0844 50.52C84.3027 51.3694 84.307 51.6564 84.3393 51.8655C84.3627 52.0604 84.3727 52.1237 84.3874 52.1465C84.4151 52.1833 84.4554 52.0532 84.5095 51.9055C84.6172 51.5976 84.7701 51.197 84.9119 50.9369C84.8525 51.0332 84.7682 51.4045 84.7213 51.7122C84.6717 52.0305 84.6705 52.2153 84.688 52.1545C84.8244 52.1705 84.9227 52.1959 85.0019 52.0721C85.0806 51.955 85.1446 51.7121 85.1881 51.4532C85.2753 50.9326 85.2594 50.4189 84.963 50.8641C85.2957 50.2983 85.3443 50.7349 85.6221 50.4269C85.6892 50.3534 85.8846 49.4329 86.0201 49.2636C86.0397 49.2511 86.0462 50.2471 86.1947 50.0754C86.3109 49.9442 86.4781 49.3173 86.6559 48.6035L86.5346 49.0855C86.563 48.9967 86.5764 48.9641 86.5616 49.0057C86.5493 49.0422 86.4995 49.1612 86.485 49.1822C86.4408 49.2554 86.7046 48.6587 86.7376 48.5478C86.8476 48.2127 86.7923 48.24 86.6419 48.4739C86.4939 48.7015 86.2636 49.0871 86.2227 49.0689C86.1787 49.0592 86.2037 48.8591 86.1489 48.8537C86.1017 48.8307 86.0263 48.8938 85.9663 48.8959C85.9463 48.892 85.8982 48.6585 85.7134 48.8075C85.6225 48.8666 85.5962 48.7693 85.6828 48.4712C85.7614 48.1892 85.8562 47.889 85.8503 47.8772C85.7803 47.7714 85.6119 48.0038 85.4467 48.2707C85.2732 48.5535 85.1999 48.6849 85.2168 48.6159C85.2523 48.4479 85.1614 48.6579 84.9929 48.5569C84.9852 48.4399 84.9456 48.4413 84.8885 48.4739C84.827 48.5142 84.8256 48.4148 85.0061 47.9311C84.8848 48.1359 84.7857 48.2935 84.7347 48.357C84.6821 48.4238 84.6735 48.4012 84.6651 48.3772C84.654 48.3153 84.61 48.3478 84.5358 48.5372L84.6358 48.1401C83.9771 50.2443 83.77 52.743 83.5018 52.0174C83.5239 52.3164 83.541 51.9534 83.5953 51.6308C83.6462 51.2826 83.7154 50.8538 83.7842 50.4273C83.9228 49.5667 84.0586 48.7001 84.0984 48.0168L84.0041 48.3914C83.9996 48.1438 83.9247 48.0852 83.8077 48.0404C83.69 47.9984 83.5576 47.9144 83.3835 47.8375C83.2158 47.7762 83.072 47.735 82.9418 47.7484C82.81 47.763 82.6678 47.9257 82.5819 48.0013L82.661 47.6871C82.6276 47.7326 82.6031 47.7542 82.5895 47.7421C82.5678 47.7217 82.5515 47.6938 82.5401 47.6594L82.4623 47.9685C82.3762 47.7827 82.4793 47.5377 82.5565 47.5061C82.6174 47.4931 83.0988 46.6683 83.1016 46.6269C83.1239 46.5187 83.1234 46.4624 83.1031 46.4537C83.1031 46.4537 83.1031 46.4537 83.1031 46.4537C83.0498 46.3878 82.6364 47.1247 82.4581 47.3547C82.3734 47.4665 82.346 47.4565 82.2902 47.5293C82.2373 47.5955 82.1696 47.7266 82.1053 47.8706L82.1793 47.5766C82.0529 47.9474 81.9581 48.2208 81.9194 48.2576C81.769 48.3931 81.5254 47.8196 81.3377 47.3836L81.2726 47.6422C81.1663 47.4631 81.0721 47.3352 81.0172 47.3182C81.0068 47.3236 80.9641 47.4017 80.8987 47.5397L80.9598 47.2969C80.7459 47.8699 80.3833 48.8746 80.2834 48.2993C80.2351 48.015 80.2582 47.5866 80.3123 47.1484L80.258 47.364C80.3414 46.7535 80.4404 46.5505 80.4602 46.4526C80.449 46.363 80.3405 46.4836 80.2452 46.6006C80.15 46.7157 80.0295 46.9295 79.8967 47.2649L79.9471 47.0646C79.7161 47.774 79.5183 48.4563 79.4643 48.4902C79.4164 48.5234 79.4357 47.5054 79.4322 46.9465L79.3873 47.1251C79.3833 46.9726 79.3742 46.8728 79.3547 46.8569C79.3297 46.8385 79.2631 46.9171 79.1696 47.0654L79.2122 46.896C79.0065 47.3014 78.692 48.0172 78.4251 48.3446C78.1309 48.7051 78.2097 47.4974 78.135 47.6959C78.0513 47.8537 77.5032 50.9973 77.5003 51.0872C77.4197 51.2974 77.2428 50.5758 77.1683 50.6662C77.0488 50.8127 77.0583 51.7522 76.9774 51.6171C76.8151 51.6534 76.6162 47.4609 76.4267 47.4105C75.9935 47.3722 76.1176 51.9384 75.3027 47.5453C75.2962 47.5137 75.6229 46.5322 75.6213 46.5033C75.4851 45.878 74.5229 48.4069 75.0539 45.9422C75.124 45.6829 75.2142 45.3782 75.3508 45.0177C75.21 45.3412 75.097 45.6439 74.998 45.9213C73.3288 51.7537 74.4065 45.8399 73.5597 46.754C73.1892 47.1146 72.564 50.1076 72.5519 50.1431C72.2556 49.7936 72.6618 48.8477 72.5606 48.4981C72.4826 48.274 71.7434 51.0368 71.6067 50.3878C71.4964 49.9948 72.0473 47.0731 72.0663 46.9659C72.0884 45.7912 71.5717 47.1315 71.4726 46.8532C71.42 46.711 71.6128 45.6856 71.7166 45.1767L71.7532 45.0313C71.7997 44.8433 71.8344 44.7123 71.8339 44.6975C71.8313 44.675 71.7625 44.8016 71.6628 45.0065L71.6253 45.1557C71.3431 45.7473 70.7684 47.1812 70.5889 47.557C70.4035 47.9213 70.5094 46.4437 70.4102 46.7023C69.7685 48.2039 70.0332 52.1242 69.4972 48.3712C69.4648 48.1403 69.7288 46.8612 69.7266 46.8247C69.587 45.9786 69.1057 48.3204 68.8086 48.7609C68.2659 49.4602 69.0872 45.9178 68.3075 48.8551C68.3672 47.0773 68.5516 46.0161 68.9121 44.5334L68.9783 44.2702C69.1398 43.7158 69.367 42.9956 69.7436 42.1428C69.3878 42.945 69.1385 43.6884 68.9523 44.2631L68.8857 44.5273C68.1018 47.2076 67.5357 49.1477 67.2423 49.3677C66.9585 49.5834 66.8868 47.8086 67.6864 44.3572C67.1687 46.7756 66.6423 46.4264 66.4853 47.1847C66.4382 47.4251 66.4003 48.5206 66.2732 49.416C66.146 50.3084 65.9046 51.0013 65.3259 49.8278C65.1689 49.4693 65.7676 47.0447 65.3017 47.7603C64.5939 54.2972 65.0239 47.6884 65.0168 47.8358C64.868 47.8288 64.6832 48.2995 64.5052 49.2178C64.4172 49.6869 64.3294 50.2538 64.2697 51.0608C64.2412 51.4683 64.2179 51.9308 64.2291 52.5561C64.2607 53.2189 64.2262 53.8934 64.6248 55.5563L64.797 56.1461C65.2018 58.3599 68.7796 65.4554 72.096 67.5849C71.9783 67.4733 72.1601 67.6266 72.3045 67.7653C72.4622 67.9144 72.6268 68.0772 72.743 68.199C74.5107 70.1531 77.0438 72.7486 77.7149 73.1141C80.0135 74.4734 78.2632 73.0713 78.8365 73.2691C79.267 73.7027 86.2164 76.8969 86.6531 76.6896C88.0801 76.8244 86.7316 76.1791 86.8856 76.1872C87.8194 76.2699 90.9362 76.7648 93.851 76.6657C96.1748 76.6445 98.9672 76.2753 100.417 75.8286C100.241 76.2519 94.8588 77.0481 98.2825 76.9542C100.353 76.8514 101.674 76.2538 102.296 75.8034C102.935 75.3408 102.938 75.0192 102.995 74.9728C104.74 74.2606 106.866 73.1305 108.827 71.0221C109.452 70.4385 114.598 65.6462 116.321 61.5725C117.45 59.3065 118.334 57.0091 118.992 54.4455C119.317 53.1551 119.588 51.809 119.739 50.2041C119.816 48.5204 120.148 46.9531 119.055 43.3328C118.096 40.4414 116.558 36.8159 114.475 33.7236C113.938 32.9167 113.306 31.831 112.481 30.4872C112.796 30.407 114.013 32.423 114.726 33.5573C116.194 35.7949 117.197 38.1626 117.276 38.2419C117.661 38.6868 116.81 36.3183 114.944 33.4123C114.281 32.3725 113.256 30.4836 111.809 28.3636C110.417 26.2594 108.317 24.1287 107.538 23.5684C109.429 25.0877 110.785 26.6582 111.86 27.9913C111.379 26.816 110.16 24.9988 107.799 22.9948C105.487 20.9737 101.808 19.2523 98.807 18.6568C98.2636 18.5352 97.7387 18.4081 97.2483 18.2701C96.1279 17.956 98.3649 18.1276 98.3154 18.1068C97.1129 17.5798 94.9553 17.4224 96.4648 18.0391C93.3431 17.1732 93.6477 17.624 91.346 17.3976C91.2416 17.3893 92.1812 17.2074 90.492 16.9326C90.1469 16.8759 89.2084 16.7796 88.4119 16.6595C86.9863 16.4565 85.3936 16.264 85.0503 16.1082C84.7987 15.9825 87.2718 15.1467 87.4549 16.081C87.8472 16.0874 88.1845 16.0984 88.4748 16.112C89.6907 16.1303 89.9155 16.2653 89.8587 16.4115C89.8254 16.5578 89.591 16.7121 90.3579 16.7747C90.7152 16.8325 89.7125 16.1054 94.9552 17.0424C94.1212 16.0518 89.3441 16.0474 88.4896 15.9838C88.2691 15.9634 88.0953 15.942 87.9857 15.917C87.4005 15.7856 87.7349 15.7285 88.5172 15.7439C89.4745 15.6851 94.0906 16.0244 95.2106 16.7521C94.546 15.939 95.8867 16.7349 97.7973 17.0867C98.5338 17.2229 98.8898 17.2682 99.1087 17.276C99.8639 17.3824 99.6343 17.205 101.041 17.6246C106.857 19.9662 104.413 19.3902 108.574 21.8976C106.289 20.9687 108.094 22.269 110.04 24.1054C112.025 25.973 113.761 28.0176 114.442 28.7538C112.824 26.0923 109.611 20.846 103.04 17.9868C103.423 18.0689 103.81 18.1642 104.195 18.2701C102.588 17.4964 100.885 16.936 99.258 16.593C99.2465 16.5906 99.235 16.5882 99.2234 16.5858C99.2337 16.5941 99.2439 16.6024 99.2542 16.6107C99.4853 16.727 99.7135 16.847 99.9384 16.9704C99.6956 16.895 99.4563 16.8259 99.221 16.7626C95.2145 15.5145 93.9163 15.9398 93.5911 15.8827C91.6146 15.6539 89.8033 15.5422 88.5565 15.4023C85.7637 15.0926 82.7295 14.8537 79.6637 14.8863C78.8274 14.9744 79.6368 14.1591 73.3809 15.2795C71.5878 15.6837 72.8891 15.739 71.6972 16.0093C71.5117 16.0538 71.2711 16.1053 70.9492 16.1731C67.6543 16.0092 67.9122 16.8506 67.0371 17.1433C64.497 18.0898 62.9369 18.7344 62.7076 18.8437C60.8448 19.8213 58.5887 21.3444 56.6311 23.1041C56.53 23.202 55.7026 23.86 55.0109 24.3932C54.9712 24.4204 55.7588 23.4117 54.5966 24.4529C54.2797 24.7907 50.5327 29.1406 46.6589 33.5353C47.5136 32.29 48.4225 31.1172 49.3558 30.0196C48.815 30.6505 46.4328 33.1727 44.6779 35.6992C42.9038 38.1886 41.7293 40.4619 42.2902 38.9124C42.9707 36.944 46.3397 33.5418 46.0615 32.7229C44.9378 34.2715 41.0442 39.6493 39.3919 46.1371C37.9214 51.2333 37.0654 57.5043 37.2153 58.9941C37.2245 59.2601 37.5662 57.55 37.5799 57.9419C37.6451 58.2651 37.1999 59.711 37.8758 63.8657C37.9624 64.283 38.0801 64.9177 38.1479 65.0897C38.1994 65.2231 38.1989 64.8901 38.2069 64.5927C38.2146 64.2918 38.2306 64.0368 38.2838 64.0727C38.3238 64.0909 38.503 64.9071 38.7342 66.301C38.9534 67.6547 39.2861 69.3655 39.1792 69.5778C38.8655 67.8376 38.2183 64.4037 38.2533 66.2734C38.255 66.5008 38.7073 67.8256 38.7439 68.1881C38.9751 70.8646 37.8176 65.0001 37.6686 63.9062C37.219 61.3236 37.344 60.4649 37.3142 59.9133C37.2875 60.8849 37.227 61.8853 37.5741 63.9247C37.4751 66.5452 40.785 78.0282 44.4093 82.7497C46.2249 84.9927 42.4061 78.9176 44.3726 81.5584C48.5222 86.7372 45.0711 83.2355 45.1586 83.4366C45.5631 84.2814 47.1422 85.7403 48.3156 86.8399C49.2015 87.671 49.8473 88.3685 49.4884 88.6939C51.0268 90.138 50.6435 89.5543 52.6048 91.7662C52.277 91.5439 51.9506 91.3191 51.6257 91.0919C53.3664 93.958 59.9772 97.4251 59.6828 96.9494C58.6705 95.7826 55.6046 93.7401 55.3985 93.5075C55.0798 93.1536 54.8653 91.6022 50.7939 88.672C49.9293 86.7445 56.5924 93.9161 53.8211 90.3898C55.7443 92.6782 65.266 100.318 70.2322 101.668C70.2385 101.671 70.2445 101.674 70.2504 101.678C70.4218 101.772 69.3441 102.23 72.1151 102.661C73.4321 102.863 70.3855 101.952 71.0178 101.962C72.5493 101.946 82.5067 105.513 93.6272 106.767C97.6051 107.232 103.58 107.242 106.45 106.342C106.896 106.226 106.806 106.09 107.049 105.963C107.086 105.939 107.135 105.917 107.204 105.897C108.38 105.606 112.422 104.468 114.139 103.49C110.564 105.608 117.885 102.288 119.489 101.093C122.053 99.4295 121.649 99.1517 122.694 98.3317C123.524 97.6596 124.477 96.9328 125.51 96.0981C128.984 93.2777 132.684 90.3203 134.17 87.7816C134.55 88.3259 136.526 85.5859 138.425 82.7228C139.151 81.6491 139.835 80.5276 140.362 79.6944C142.028 77.194 144.239 73.1383 142.855 77.1826C145.272 72.2721 146.345 66.4456 146.117 61.6939C146.081 60.91 145.889 62.0028 145.819 60.6672C145.811 60.5497 146.07 60.3614 145.968 59.2268C145.692 56.4555 145.301 55.0355 145.075 54.2448C144.624 52.8355 144.667 54.2517 144.335 53.3989C144.068 52.7163 143.887 52.2012 143.77 51.8153C143.988 52.6811 144.197 53.5584 144.396 54.4141C145.383 58.3756 145.479 62.5986 145.42 63.9431C145.12 62.981 145.077 58.1864 144.181 54.4679C143.846 52.8661 143.499 51.3593 143.217 50.5477C143.19 50.4684 142.964 50.8335 142.939 50.752C142.939 50.7503 142.938 50.7486 142.938 50.7469C142.759 50.0471 141.466 45.6235 141.479 45.0243C141.499 44.9901 141.528 44.9778 141.57 44.9915C141.594 45.0133 141.624 45.0481 141.66 45.097C141.876 45.3775 142.862 48.2026 143.618 51.2175C143.464 50.3811 143.97 50.8997 143.945 50.7514C143.735 49.4915 142.841 46.8809 141.977 44.8438C141.81 44.5144 141.579 43.918 141.423 43.4841C141.3 43.1396 141.519 43.0847 141.5 43.0256C140.89 41.4241 140.593 42.3923 140.374 40.1211C139.095 38.342 140.076 40.3268 140.711 42.1329C141.371 44.024 141.685 44.9299 141.394 44.8537C141.277 44.8225 141.077 44.3705 140.49 42.7084C139.914 41.1272 138.756 37.9752 136.301 35.1093C133.757 32.0445 131.061 28.6221 131.314 28.4176C131.227 28.4216 131.021 28.3143 130.653 28.0441C130.249 27.7474 129.337 26.7834 128.46 25.8185C127.53 24.7914 126.61 23.7598 126.368 23.4247C126.29 23.3109 126.77 22.9237 126.657 22.7983C126.402 22.4722 121.955 18.7252 120.162 16.892C121.249 17.6636 122.258 18.4376 123.219 19.2077C120.487 16.6864 118.933 15.5537 118.678 15.2683C118.398 14.9814 119.345 15.5386 120.46 16.3233C120.566 16.4069 120.686 16.474 120.786 16.5532C122.504 17.775 124.353 19.3568 124.416 19.3505C124.652 19.3325 119.22 14.1504 115.678 12.594C114.928 12.2523 114.664 12.2243 115.14 12.6331C115.179 12.6662 115.317 12.747 115.526 12.8653C117.396 13.8442 121.088 16.5459 118.567 15.0856C118.259 14.913 116.887 13.8925 115.419 13.0543C114.612 12.5878 114.033 12.2823 113.952 12.2595C113.48 12.1445 114.105 12.592 115.237 13.3794C117.641 14.9737 119.852 17.1617 119.175 16.9457C118.235 15.8832 116.845 14.8391 115.001 13.7979C114.165 13.3293 113.419 12.9488 112.779 12.5791C111.973 12.115 111.948 11.7583 111.853 11.7031C110.533 10.9391 111.15 11.6163 110.715 11.3833C110.419 11.2414 108.57 9.42327 108.518 10.4743C108.045 10.1411 107.662 9.84799 107.341 9.58872C105.182 7.95386 104.176 7.25317 104.465 7.32421C104.708 7.37226 106.111 8.17282 107.625 9.15219C108.574 9.76159 109.861 10.4993 111.427 11.3134C110.377 10.5189 108.819 9.6813 107.742 8.97151C106.961 8.46264 106.152 7.94868 105.578 7.5665C104.931 7.1402 105.502 7.10697 104.375 6.37292C102.626 4.87123 91.7344 0.563858 86.0401 0.709617C85.3819 0.675255 84.8322 0.653142 84.4284 0.638211C86.3415 0.883811 85.7485 1.1838 84.2783 1.06167C82.7999 0.949764 84.0698 0.564363 83.7838 0.498022C83.4845 0.368751 76.4515 0.442249 75.2703 0.497673C80.5852 0.574763 79.3713 0.907752 74.8962 1.05722C75.5485 1.13116 76.1984 1.21231 76.8456 1.30049C75.2197 1.23405 72.4746 1.52837 70.2997 1.83757C69.2242 1.99814 68.2413 2.11155 67.7496 2.09019C67.5462 2.08074 68.248 1.73719 68.134 1.73179C67.0258 1.69705 63.0409 2.27979 62.8298 2.20011C62.6645 2.1299 64.3732 1.75962 63.7237 1.68859C63.5896 1.67389 61.9573 2.18369 60.2649 2.22977C59.6365 2.24756 59.9898 1.94372 59.8307 1.94137C58.4932 1.929 59.3336 2.30467 56.8676 2.47476C55.0412 2.61589 53.6321 2.30479 50.9173 2.89495C59.2628 1.1971 52.8818 2.11488 48.737 2.79599C48.5931 2.82123 48.4524 2.84662 48.3149 2.87193C47.6187 3.02531 47.8348 2.3491 44.1981 3.69911C52.5857 2.2734 41.9256 4.72631 40.2884 5.58884C40.1877 5.63239 40.264 5.9475 39.349 6.32194C39.2701 6.35475 39.301 6.09902 38.4412 6.43922C30.3966 9.91233 35.6069 7.83588 34.195 8.72717C33.8461 8.96048 32.3526 9.62399 30.9764 10.3152C30.2991 10.6333 29.5613 10.9696 29.2208 11.1507C29.0293 11.2535 29.2363 11.4027 28.4739 11.8042C27.1147 12.5177 25.6607 13.0367 24.6266 13.6163C24.4949 13.7012 24.7256 13.9414 22.6212 15.1167C22.0237 15.4579 21.2704 15.8087 22.0649 15.1591C24.5022 13.1625 28.9064 11.4476 30.8661 10.1205C31.1275 9.95349 31.3734 9.79174 31.6052 9.63254C32.6037 8.95641 31.9368 9.21515 30.7112 9.84713C29.4238 10.4851 26.3935 12.0858 26.1195 12.2484C25.9711 12.3284 27.5883 11.6435 26.0471 12.5334C24.729 13.3088 21.7999 14.1992 19.2803 16.2858C19.1102 16.3859 17.2893 18.6346 17.4036 18.6156C17.4563 18.5768 18.3597 17.7916 19.1304 17.2501C19.9069 16.6944 20.5782 16.3046 20.4068 16.5215C20.3834 16.5337 18.397 18.0859 18.1775 18.4758C17.9241 18.8788 17.973 20.7236 17.567 21.2365C16.478 22.6232 16.9896 21.5311 16.246 22.5164C16.0184 22.8341 15.7116 23.2878 15.3694 23.8891C15.336 24.146 12.8979 28.1638 12.6011 27.9832C13.0347 27.2083 13.4993 26.437 13.9426 25.7316C11.2671 29.7829 12.2413 27.9895 11.7918 28.5227C11.3333 29.1389 11.7813 29.1555 11.05 30.6256C10.7755 30.9677 8.09158 36.9185 8.04828 36.7341C9.61616 33.5494 8.68192 34.5651 8.72395 34.4126C8.94265 33.8126 9.53006 33.192 9.89776 32.3969C12.6536 26.806 9.39822 32.2213 9.96131 30.8538C10.1487 30.3857 10.8573 29.5736 10.9516 29.3798C11.2651 28.7251 10.9878 28.5655 11.2572 28.1487C11.8823 27.201 11.6068 28.5716 11.6748 28.5056C12.3997 27.7415 14.227 24.3561 12.4976 26.0766C13.1334 24.7783 13.7538 24.9635 14.0564 24.0969C14.1906 23.692 14.1667 23.5784 14.1185 23.5485C14.0675 23.5226 13.9728 23.6065 13.8242 23.7882C13.5341 24.1402 12.9604 24.9889 12.6726 25.3535C10.6156 28.0172 10.1728 29.1616 8.20972 33.2818C7.52094 34.7656 6.5786 36.3963 6.30931 37.0796C6.1017 37.5348 5.72727 41.8118 4.19076 41.4465C4.05015 42.0988 4.01698 42.9307 3.99347 43.8104C3.88969 45.3084 3.88677 46.863 3.63598 47.9732C3.26462 49.6612 2.82262 49.0241 2.769 49.1793C2.68178 49.4236 2.41623 51.483 2.26985 52.1558C2.08835 52.9444 1.90975 52.5259 1.70539 53.7879C1.24605 56.9134 1.88631 56.8287 1.8991 57.1481C2.24827 60.769 1.48021 59.1654 1.40383 59.9728C1.35994 60.4142 1.50711 64.1083 1.84899 67.3806C2.08068 69.7738 2.3902 71.977 2.43232 72.8537C2.42288 71.9897 2.42473 71.1253 2.43833 70.2594C2.97233 71.7381 2.63627 73.4152 3.27804 73.348C2.28499 73.8133 3.4986 76.8111 3.66866 77.7317C3.7305 78.0985 3.55064 78.1048 3.63711 78.5636C3.91986 80.1425 4.82266 83.4155 5.2036 84.8524C5.25378 85.05 5.29208 85.2119 5.31484 85.3307C5.64926 87.0165 5.26777 86.4267 4.67702 84.9996C3.75211 82.8198 2.59926 78.7004 2.48926 78.1846C2.68521 79.2224 3.50248 83.1987 3.90583 85.2151C4.1548 86.5098 4.13514 86.9916 3.462 85.3391C3.45572 85.3235 3.44939 85.3077 3.44302 85.2917C3.17275 84.6184 3.30427 83.2787 3.22735 82.8902C2.7062 80.2517 2.8001 82.4012 2.71167 82.2074C2.55996 81.8715 2.55787 80.0597 2.41829 79.6176C2.3747 79.4679 2.19755 80.5292 1.68092 78.0251C1.58095 78.9772 2.53232 82.9416 3.27556 85.3912C3.54646 86.3146 3.76139 87.0058 3.81438 87.2619C3.89845 87.5607 2.46516 85.9016 5.11169 91.4082C5.02046 91.367 4.92916 91.3254 4.83779 91.2834C5.76418 94.0544 6.80732 96.7793 7.54533 98.8781C7.67506 99.246 7.80782 99.6162 7.94375 99.9884C7.96705 99.5768 7.62375 97.6713 8.39297 99.9552C8.85309 101.281 8.13578 100.444 8.1708 100.567C8.36677 101.214 11.4699 109.736 16.7443 116.73C18.4775 119.254 22.1886 124.172 23.6334 125.54C24.8177 126.943 28.6765 130.559 29.0322 130.743C30.2877 131.75 33.8906 133.976 36.5716 135.185C37.574 135.652 38.4223 136.046 38.7779 136.231C39.4484 136.582 38.6641 136.553 39.2826 136.831C39.8615 137.09 39.397 136.536 39.5725 136.606C40.7037 137.189 52.6315 142.608 56.3713 142.88C54.1468 142.631 45.1974 138.692 45.6183 138.519C45.6597 138.511 47.8416 139.148 48.2572 139.417C49.0655 139.457 51.4045 141.137 52.9591 141.431C53.1363 141.457 52.5867 140.867 55.282 141.527C56.0414 141.708 57.7741 142.385 59.8151 142.631C60.1718 142.668 60.5468 142.69 60.9247 142.688C63.6325 143.42 77.8108 145.26 80.2293 145.851C80.3357 145.883 80.4132 145.913 80.4592 145.942C80.4653 145.948 80.3638 145.948 80.2169 145.947C79.6705 145.941 78.5415 145.924 79.7174 146.235C79.8945 146.281 80.0423 146.315 80.1664 146.338C81.3842 146.565 80.213 145.67 82.2678 145.864C82.5838 145.901 88.9144 146.769 89.1479 146.837C91.0539 147.553 85.3843 147.098 85.4807 147.158C85.6361 147.329 90.3111 147.964 90.5305 147.943C90.7125 147.928 86.908 146.857 91.5513 147.607C91.0009 147.629 90.4594 147.65 89.9146 147.668C92.0981 148.058 92.373 147.622 92.9161 147.648C94.6204 147.717 96.4338 148.581 99.4562 147.856C100.256 147.66 98.9552 147.361 99.0578 147.33C100.001 147.067 101.209 147.919 102.728 147.302C102.873 147.229 99.2309 147.003 105.554 146.799C105.102 146.884 104.665 146.963 104.228 147.036C104.663 147.082 106.398 147.076 108.37 146.858C109.861 146.707 111.497 146.493 111.881 146.418C114.051 145.997 112.06 145.893 114.31 145.571C112.881 146.454 120.068 145.079 119.559 144.608C120.758 145.021 126.754 142.568 129.215 141.38C129.342 141.324 129.48 141.265 129.627 141.203C131.063 140.602 133.581 139.742 133.973 139.537C134.488 139.267 134.159 138.953 135.087 138.44C135.35 138.294 138.358 137.301 140.729 135.745C141.189 135.445 141.93 134.321 140.939 134.578C139.24 135.019 136.524 136.862 136.389 136.459C136.248 136.031 140.338 134.491 141.395 133.937C146.268 131.386 143.184 132.279 143.251 132.092C143.432 131.623 146.172 130.335 146.279 130.243C146.693 129.888 144.623 130.573 144.506 130.387C144.349 130.157 146.77 128.427 146.128 128.631C145.206 128.936 142.981 130.452 142.82 130.503C140.724 131.177 143.166 129.33 143.776 128.684C143.961 128.489 142.989 128.771 143.164 128.656C145.844 126.898 144.161 129.195 146.043 128.185C147.732 127.266 145.328 127.974 145.384 127.917C145.456 127.858 147.505 126.821 147.765 126.513C147.866 126.408 142.204 128.23 142.278 127.766C143.992 127.05 145.703 126.319 147.453 125.517C147.363 125.027 145.081 126.564 144.814 126.631C144.264 126.787 145.565 125.881 145.438 125.772C145.357 125.705 143.566 126.191 144.986 125.339C145.42 125.075 146.436 124.878 147.872 123.914C148.049 123.795 148.228 123.666 148.409 123.526C148.202 123.62 148.002 123.71 147.81 123.796C141.997 126.28 146.108 123.91 146.209 123.675C146.317 123.428 143.068 124.622 146.825 122.791C146.551 121.87 146.606 122.575 145.476 122.962C144.095 123.417 146.933 121.693 142.333 124.192C142.413 123.679 146.194 121.845 146.378 121.686C146.535 121.569 145.598 121.81 145.862 121.591C146.065 121.423 146.25 121.269 146.405 121.136C148.658 119.193 146.783 120.543 147.48 119.591C147.55 119.509 150.669 117.528 148.179 118.832C147.303 119.285 146.53 119.699 145.843 120.073C142.994 121.604 141.681 122.41 140.601 121.739C142.092 120.727 143.867 119.914 145.407 119.246C147.135 118.497 148.601 117.952 149.127 117.658C150.648 116.802 148.944 117.475 149.096 117.298C149.147 117.245 150.451 116.501 150.452 116.471C150.715 115.494 147.923 117.49 145.299 119.042C144.154 119.732 143.041 120.344 142.34 120.626C142.865 120.2 143.376 119.776 143.891 119.343C143.102 119.737 142.304 120.123 141.502 120.504C145.156 118.367 141.586 120.346 140.28 120.046C139.986 119.982 142.619 119.073 139.551 119.97C141.597 118.86 140.859 119.032 142.83 118.314C142.649 118.053 138.243 119.77 136.461 120.389C142.256 117.252 139.465 119.967 144.155 116.876C144.156 116.875 144.158 116.875 144.159 116.874C144.562 116.825 144.511 116.947 144.286 117.124C143.904 117.43 142.948 117.897 143.094 117.871C143.414 117.818 143.855 117.589 144.391 117.324C145.217 116.914 146.305 116.409 147.711 116.199C148.095 116.14 146.973 117.28 148.936 116.13C149.155 116.004 150.194 114.946 150.153 114.935C149.851 114.789 148.69 115.609 148.581 115.529C148.477 115.463 149.861 114.716 149.843 114.683C149.698 114.353 148.66 115.238 148.767 115.04C149.041 114.602 153.267 111.096 147.248 115.001C152.618 112.263 148.199 114.983 145.955 115.997C145.4 116.254 145.155 116.143 144.345 116.489C144.24 116.534 144.134 116.582 144.026 116.632C143.108 117.056 142.134 117.63 141.646 117.831C141.058 118.067 144.053 116.046 139.46 118.445C140.535 117.652 142.183 116.863 143.732 116.076C145.359 115.249 146.963 114.413 147.942 113.624C151.742 110.478 144.567 114.635 143.585 114.969C143.363 115.066 143.941 114.428 143.791 114.487C143.73 114.513 143.481 114.649 143.09 114.86C141.862 115.537 139.085 116.922 138.656 116.916C138.109 116.912 140.317 116.131 140.337 115.837C140.377 115.651 134.768 117.968 137.689 116.463C139.082 115.746 141.442 114.942 142.739 114.196C143.356 113.846 143.773 113.517 143.851 113.22C143.43 113.438 143.006 113.654 142.57 113.875C140.202 115.061 137.577 116.24 134.969 117.388C136.518 116.368 138.05 115.342 139.523 114.311C136.205 115.833 133.348 117.473 129.907 118.581C137.396 114.225 127.072 119.086 126.89 119.029C126.83 118.986 129.645 116.943 130.084 116.598C127.252 117.577 118.729 121.166 123.317 118.175C122.508 118.752 120.117 119.259 120.126 119.215C120.262 118.725 125.099 116.875 124.181 116.889C123.124 116.905 122.097 117.969 120.689 118.539C120.381 118.664 120.075 118.783 119.798 118.887C114.599 120.576 115.581 118.373 110.24 119.861C110.346 119.767 110.451 119.673 110.554 119.579C108.951 119.913 107.098 120.197 105.048 120.485C101.811 121.012 95.5174 120.492 89.5434 119.847C88.298 119.442 86.1743 118.96 83.766 118.487C80.4759 117.824 76.4966 117.063 74.0259 116.69C73.1952 116.569 69.0442 116.179 68.7201 116.175C68.1268 116.183 71.2754 116.784 69.812 116.736C69.6176 116.73 66.7346 116.283 64.8021 115.874C63.9916 115.696 63.4195 115.494 63.5789 115.4C63.8388 115.44 64.3372 115.575 64.8356 115.694C65.6527 115.879 66.4682 116.061 66.6932 116.056C67.438 116.038 66.5789 115.801 64.8825 115.442C61.6369 115.081 51.8806 110.97 51.0259 110.268C51.4946 110.366 51.9571 110.46 52.4145 110.549C51.3901 110.121 50.3419 109.668 49.2719 109.199C49.1579 109.152 49.0463 109.105 48.937 109.058ZM106.404 148.14C106.878 148.242 107.643 148.22 108.529 148.116C109.48 148.009 110.629 147.783 111.482 147.722C113.364 147.622 117.246 148.272 115.447 147.222C112.939 147.595 110.642 147.807 108.513 147.989C107.794 148.059 107.083 148.108 106.404 148.14ZM66.0148 144.604C67.7729 144.716 66.5643 143.737 65.098 143.799C64.9373 143.807 63.6361 144.444 66.0148 144.604ZM84.4131 146.987C84.3404 146.968 82.849 146.8 82.7985 146.805C81.4244 146.939 85.9251 147.444 84.4131 146.987ZM6.51849 94.2469C7.17916 96.1119 6.0339 95.0301 5.86461 93.743C5.85462 93.6638 6.47431 94.1237 6.51849 94.2469ZM7.02593 95.5536C8.16099 96.8019 7.89178 99.6796 7.27106 97.649C7.21672 97.4658 6.97759 95.5123 7.02593 95.5536ZM72.2503 145.344C72.0902 145.079 70.2745 144.9 69.502 144.827C69.4869 145.045 71.4979 145.198 72.2503 145.344ZM23.5214 124.983C23.4169 124.905 30.1454 130.867 30.6401 131.218C29.437 130.516 23.3292 125.265 23.5214 124.983ZM12.6534 109.167C12.7591 109.327 14.0492 111.694 13.8811 111.708C13.0008 110.676 12.1069 108.454 12.6534 109.167ZM1.26355 75.6339C1.29255 75.494 2.58804 77.1248 1.24465 72.9701C1.0502 72.3549 1.11753 74.643 1.04991 74.4255C0.902845 73.9692 0.812938 73.603 0.762682 73.3055C0.968994 75.3224 1.32246 77.3914 1.42432 77.5788C1.89518 78.4573 1.24739 75.697 1.26355 75.6339ZM0.709305 56.4647C0.88301 56.041 0.994785 53.1721 1.01678 52.4872C1.01828 52.3691 0.50799 52.8298 0.699974 51.4986C0.869588 50.4268 1.09964 52.091 1.32646 49.9918C1.59747 47.8448 0.813015 50.646 0.828032 50.4573C0.804474 50.2102 1.61341 46.9104 1.35691 46.9517C1.11523 46.9961 0.605269 50.6192 0.49359 51.4666C0.310085 52.5715 0.126983 51.1898 0.0042976 53.048C-0.0580973 54.2095 0.579907 53.6154 0.587307 53.8607C0.564318 54.0767 0.0393862 57.9685 0.707738 56.4586C0.70826 56.4606 0.708783 56.4627 0.709305 56.4647ZM0.709288 72.7593C0.711368 72.913 0.726693 73.0922 0.762682 73.3055C0.743593 73.1228 0.726285 72.9399 0.709288 72.7593ZM100.004 148.003C98.9232 148.149 102.1 148.483 103.436 148.201C103.421 148.032 100.147 147.998 100.004 148.003ZM0.930672 70.8341C0.450217 67.8468 0.462301 70.0895 0.709288 72.7593C0.699645 71.9015 1.10421 71.8301 0.930672 70.8341ZM48.2572 139.417C48.1198 139.411 48.0183 139.444 47.9687 139.543C48.3333 139.554 48.385 139.503 48.2572 139.417ZM41.7942 136.896C39.8683 135.641 44.0687 137.579 43.9785 137.785C43.919 137.864 41.8629 136.947 41.7942 136.896ZM5.59407 91.7888C5.69536 91.9674 5.57121 88.5787 6.42808 93.263C5.4688 90.9575 6.25671 93.475 6.16045 93.4644C5.88157 93.4869 4.6954 89.3688 4.30601 88.4325C4.50518 87.572 5.25059 91.1905 5.59228 91.7837C5.59288 91.7854 5.59347 91.7871 5.59407 91.7888ZM12.2792 22.2703C11.9845 22.2427 10.9398 23.8547 10.1254 25.18C10.6958 24.7528 11.9658 22.7569 12.2792 22.2703ZM53.2639 25.43C49.5161 28.3645 47.5166 31.1084 47.3857 31.542C47.228 32.069 48.719 30.2965 51.9697 27.0894C52.1054 26.9394 53.7744 25.1419 53.2639 25.43ZM63.8318 101.057C65.0121 101.211 61.9109 99.2783 60.2374 98.2105C59.8361 97.9697 58.1947 97.3108 59.6866 98.5755C59.977 98.0815 62.5326 99.7 63.8318 101.057ZM1.04239 69.1064C1.12884 68.7572 1.10987 68.1509 1.0525 67.4487C0.961598 66.3554 0.774531 65.019 0.700894 64.1456C0.553923 64.7367 0.640202 66.2132 0.796365 67.4706C0.873619 68.1095 0.966539 68.6959 1.04239 69.1064ZM38.0016 55.5706C37.901 56.6575 37.4276 57.4656 37.4092 57.25C37.3218 56.258 37.9286 54.3136 38.0016 55.5706ZM2.37136 77.6442C2.56754 77.7266 2.1302 74.2339 1.64256 74.0588C1.78212 74.8031 2.22894 77.5826 2.37136 77.6442ZM11.2295 24.0563C11.0965 24.3417 11.527 23.8176 11.9628 23.2648C12.416 22.6888 12.713 22.2793 12.6626 22.2628C12.5808 22.2012 12.4899 22.2445 12.1298 22.7206C11.7887 23.1671 11.3089 23.8793 11.2295 24.0563ZM40.4905 74.3847C40.8953 75.4157 42.0542 77.8392 42.0547 78.1633C42.0113 78.6219 40.3793 74.9768 40.4905 74.3847ZM81.5636 77.0347C81.3454 77.1117 85.9142 79.1715 88.0224 79.2069C89.9963 79.3083 88.4234 79.0587 86.3369 78.553C84.2264 78.0677 81.6574 77.0577 81.5636 77.0347ZM40.0336 46.5545C40.0426 46.4685 40.0512 46.3882 40.0592 46.3134C40.3951 44.233 40.151 45.4659 39.8688 46.2631C39.7799 46.4966 39.6787 46.6724 39.5754 46.6133C39.6058 46.4921 39.6399 46.3574 39.6772 46.2125C40.2673 43.6446 42.2233 39.2315 41.1476 42.8499C40.9522 43.5448 40.3583 45.2073 40.0891 46.3213C40.0686 46.4041 40.05 46.4822 40.0336 46.5545ZM39.5884 48.9255C39.3901 49.1632 38.5564 50.9646 38.9504 49.3362C39.1358 48.5848 39.882 47.5153 39.5884 48.9255ZM110.965 72.4489C111.092 72.2389 111.078 72.188 110.934 72.2795C110.798 72.3624 110.57 72.5593 110.528 72.5923C103.929 79.1475 97.0483 78.5647 96.9739 78.8906C96.7575 78.9492 96.619 78.9952 96.5414 79.0304C96.1541 78.9919 94.7643 79.0625 93.9381 79.1749C93.5436 79.2264 93.2429 79.2896 93.1507 79.3778C93.3477 79.3695 93.6274 79.3613 93.9441 79.3487C94.819 79.3192 96.0984 79.2279 96.2938 79.1811C96.4025 79.157 96.4834 79.136 96.5387 79.1171C97.0126 79.0616 104.485 79.3406 110.731 72.7803C110.741 72.7267 110.94 72.4945 110.965 72.4489ZM121.65 52.0796C120.434 55.8094 121.016 56.3951 121.157 56.1706C122.522 52.4093 121.207 54.7644 121.214 54.6467C121.254 54.4203 122.107 51.4814 121.648 52.0922C121.649 52.088 121.65 52.0838 121.65 52.0796ZM113.615 69.6173C113.559 69.6714 112.988 70.2883 112.48 70.7971C111.963 71.3175 111.559 71.7084 111.536 71.741C111.071 72.3882 111.717 71.8818 112.718 70.8773C113.706 69.8866 114.716 68.5857 113.615 69.6173ZM4.13797 41.2378C4.53941 39.6977 3.72921 41.0776 3.53984 42.1103C3.52566 42.2014 3.80223 42.5701 4.13797 41.2378ZM39.2098 50.1851C39.2026 50.3905 38.7189 52.8368 38.3781 55.5817C38.2059 56.9582 38.0715 58.4455 38.0192 59.7853C37.9567 61.0993 38.0196 62.3532 37.8558 62.0189C37.2099 58.4584 39.2802 47.7733 39.2098 50.1851ZM84.1988 106.881C82.6204 106.531 84.228 107.394 85.1313 107.398C85.4634 107.4 84.5972 106.97 84.1988 106.881ZM3.82264 82.2029C3.99178 83.9679 4.76385 83.392 4.10333 82.0018C4.07765 81.947 3.81635 82.1338 3.82264 82.2029ZM72.0156 103.989C76.9423 105.688 76.2839 104.04 69.953 102.582C69.6094 102.487 69.2643 102.383 68.9354 102.277C69.2361 102.441 69.5622 102.605 69.8982 102.761C69.9427 102.792 69.9884 102.824 70.0353 102.856C69.9823 102.842 69.9311 102.828 69.8818 102.815C66.5619 101.766 65.586 101.053 64.8485 100.709C64.1968 100.362 64.1296 100.329 64.4104 100.504C64.9981 100.843 66.8904 102.034 69.8353 102.967C70.4374 103.156 70.9881 103.33 71.3378 103.451C72.0516 103.696 71.3672 103.761 72.0101 103.989C72.0119 103.989 72.0138 103.989 72.0156 103.989ZM93.5046 108.359C93.5058 108.359 93.507 108.359 93.5082 108.359C94.5074 108.196 94.9945 108.081 94.9117 107.981C94.845 107.882 94.2606 107.801 93.5543 107.742C90.5949 107.527 86.5985 106.923 84.9848 106.489C87.6824 107.535 91.7076 108.14 86.3288 107.628C90.0846 108.414 91.5559 108.434 91.7641 108.368C92.0031 108.294 91.1934 108.078 91.3708 108.081C91.76 108.096 93.184 108.389 93.5046 108.359ZM78.7999 105.541C78.5176 105.438 76.2818 105.072 75.5178 104.82C76.4987 105.49 80.6789 106.25 78.7999 105.541ZM114.303 28.9324C114.155 29.2447 114.322 29.9231 115.226 31.2095C115.114 30.7444 114.66 29.7387 114.303 28.9324ZM108.475 146.385C109.633 146.224 112.124 145.762 111.401 146.173C111.3 146.22 108.479 146.562 108.475 146.385ZM45.6541 82.6508C45.7761 82.8181 47.5521 85.2205 48.6459 86.5606C49.3539 87.4545 49.7173 87.9735 48.921 87.2593C48.833 87.1794 48.6581 86.9937 48.4335 86.7402C47.0437 85.2883 44.1052 80.8884 45.6541 82.6508ZM43.2408 38.9425C42.8329 39.6255 41.467 42.6205 41.4075 42.6774C41.0585 42.7825 42.8294 39.1024 43.2408 38.9425ZM114.8 145.149C114.946 145.127 119.182 144.262 118.757 144.481C117.908 144.997 114.19 145.379 114.8 145.149ZM6.71773 35.9617C6.85569 35.6365 6.7311 35.0958 6.77246 34.9846C6.77418 34.7496 9.7432 28.7261 8.27562 30.8689C7.82063 31.2958 4.6204 39.9013 4.4615 40.9245C4.72993 41.4732 5.5172 37.8077 5.91565 36.9298C5.97864 36.7878 6.36044 36.7938 6.71496 35.9638C6.71587 35.9631 6.71681 35.9624 6.71773 35.9617ZM119.19 37.996C119.139 38.2095 120.146 40.8865 120.73 42.7597C121.734 45.9991 121.557 47.4445 121.622 48.589C121.631 49.6783 121.613 50.2332 121.694 50.2157C121.776 48.4217 122.155 46.7391 120.944 42.6861C120.498 41.3011 119.917 39.65 119.19 37.996ZM116.982 33.9073C115.792 32.3241 118.142 36.3034 118.71 37.4845C118.927 37.4153 117.201 34.1222 116.982 33.9073ZM39.6758 54.3849C39.4831 55.1614 39.4751 52.684 39.3115 53.2104C39.199 53.5331 39.0734 55.3388 38.8834 55.9484C38.8169 56.1065 38.6946 54.1525 38.8047 53.6491C38.9505 52.9147 39.1222 53.6773 39.2631 52.8836C39.7011 50.4916 39.9982 48.4702 40.5079 46.4319C40.5679 46.1965 40.6313 45.9622 40.6985 45.7292C40.7734 45.4649 40.3957 47.5809 41.0366 45.3194C41.1432 44.9803 41.4619 42.7466 42.7344 40.2116C46.3143 35.179 48.5316 31.0659 53.7341 27.0206C53.6211 27.1625 50.0832 30.8076 49.8956 31.124C47.0184 34.1935 42.7768 40.4465 41.3049 46.6425C40.8474 48.3939 40.458 50.0777 40.164 51.5401C39.8947 52.9127 39.825 52.205 39.7049 52.8067C39.6167 53.2868 40.0814 52.7615 39.6758 54.3849ZM107.644 146.272C107.786 146.183 108 146.109 108.267 146.041C109.075 145.798 110.613 145.755 111.709 145.577C111.325 145.942 109.514 146.015 108.285 146.18C108.058 146.211 107.843 146.241 107.644 146.272ZM84.3343 15.9596C83.6142 15.8845 81.2584 15.9141 81.0502 15.8073C80.8146 15.6341 84.2214 15.6714 84.3343 15.9596ZM32.4772 8.89821C32.5421 8.86943 34.1116 8.04375 34.1671 8.00888C35.446 7.01259 30.729 9.50513 32.4772 8.89821ZM71.3415 0.326299C72.632 0.271511 73.9357 0.326527 74.3564 -3.41716e-05C73.5362 0.0737598 71.1716 0.118498 71.3415 0.326299ZM124.794 19.8456C124.343 19.9492 127.257 22.4828 127.743 22.9708C127.719 22.6592 125.168 19.7733 124.794 19.8456ZM113.069 29.3535C114.364 31.3964 113.53 31.2391 114.411 32.1447C114.529 32.2432 116.007 32.2302 114.459 30.597C114.313 30.4379 114.389 30.7522 114.301 30.8079C114.199 30.8475 114.014 30.7324 113.069 29.3535ZM66.971 101.474C66.1545 100.827 63.8772 99.6322 62.6401 98.7955C62.771 99.1523 65.5503 100.842 66.971 101.474ZM122.325 142.995C123.412 142.326 128.5 140.621 127.355 141.334C127.223 141.457 123.096 142.782 122.325 142.995ZM1.82445 62.9923C2.04095 60.8651 2.29472 65.2439 2.13879 66.603C2.09818 65.9927 1.80075 63.151 1.82445 62.9923ZM112.382 11.2348C112.415 11.263 114.325 12.2077 114.476 12.2788C115.446 12.6237 114.327 11.9493 113.402 11.4955C112.471 11.036 111.671 10.7266 112.382 11.2348ZM59.6743 1.73612C60.4579 1.90398 65.1736 1.35317 66.1495 1.0384C65.1951 0.741418 58.7592 1.4943 59.6743 1.73612ZM101.259 18.9295C104.477 20.0386 107.303 21.9971 109.221 23.8122C109.107 23.5544 107.652 22.0583 105.656 20.8378C103.69 19.5918 101.434 18.9034 101.259 18.9295ZM120.46 16.3233C120.566 16.4069 120.686 16.474 120.786 16.5532C120.677 16.4752 120.566 16.3975 120.46 16.3233ZM58.6121 23.5892C58.1977 23.9629 57.9153 24.1944 57.7199 24.3242C57.5959 24.325 57.4904 24.1591 57.5016 24.1386C57.5094 24.1222 57.5158 24.1091 57.5198 24.0999C58.5623 23.0767 60.1818 22.2333 58.6121 23.5892ZM109.206 145.515C109.599 145.122 111.846 145.09 113.201 144.784C112.835 145.124 110.192 145.43 109.206 145.515ZM99.685 107.966C101.504 107.687 95.3645 107.22 93.6068 107.04C93.0688 107.008 92.6337 106.984 92.3696 106.992C92.3313 107.045 92.7958 107.169 93.5876 107.297C94.9398 107.636 99.3519 108.06 99.685 107.966ZM2.82034 69.4576C3.08917 69.5723 3.15482 72.5927 2.94991 71.9774C2.80823 71.5895 2.64083 69.3921 2.82034 69.4576ZM88.4564 106.581C87.7825 106.384 86.1981 106.337 86.7076 106.602C87.3648 106.944 88.6298 106.637 88.4564 106.581ZM40.3826 67.0734C40.3967 67.2948 41.3552 72.128 40.5779 70.229C40.0354 68.8969 40.3869 68.6073 40.3164 68.2969C40.136 67.6799 38.675 61.7483 40.3826 67.0734ZM137.28 85.9197C136.166 86.9969 135.021 88.3564 133.942 89.4228C134.495 89.1245 136.995 86.5885 137.28 85.9197ZM2.36513 57.7191C2.32462 58.1805 2.79769 68.1301 2.22901 62.4906C2.14964 62.1886 2.03662 56.5696 2.36513 57.7191ZM113.069 29.3535C112.894 29.0826 112.677 28.7654 112.392 28.3846C112.662 28.7715 112.884 29.0864 113.069 29.3535ZM83.3002 16.5602C83.8658 16.777 80.9777 16.699 80.0616 16.6197C79.8052 16.3609 83.2483 16.5069 83.3002 16.5602ZM133.669 89.3123C132.975 89.8506 131.936 91.0282 131.151 91.7504C131.41 91.7645 133.535 89.7177 133.669 89.3123ZM128.996 25.5408C130.186 26.6826 131.5 28.2402 131.352 28.4079C131.401 28.4106 131.481 28.446 131.596 28.5207C131.714 28.5974 132.791 29.9814 133.336 30.4954C135.19 32.2528 131.397 27.7613 128.996 25.3293C127.359 23.6656 126.471 22.937 128.671 25.6261C129.008 26.0468 129.423 26.5566 129.92 27.1671C129.613 26.6225 129.306 26.0814 128.996 25.5408ZM52.9334 2.99425C51.9906 3.37672 48.9294 3.58848 49.6853 3.34614C50.2649 3.13472 53.9253 2.57402 52.9334 2.99425ZM90.8727 2.24526C90.5174 2.18122 87.2342 1.48448 87.1541 1.367C89.1134 1.38751 92.5567 2.38381 90.8727 2.24526ZM44.5667 5.16315C43.9316 5.40577 42.9873 5.27173 43.0544 5.22892C43.6427 4.85117 45.5918 4.58867 44.5667 5.16315ZM108.142 24.8692C107.223 23.7865 102.523 20.3625 101.271 19.8537C101.03 19.8276 100.399 19.6605 99.2891 19.4656C99.2924 19.4664 99.2957 19.4672 99.299 19.4681C99.2146 19.4536 98.9951 19.4042 98.6583 19.337C97.3872 18.9904 90.6658 18.1455 88.2634 17.9502C84.751 17.5576 82.9216 17.3092 88.3003 17.6296C88.7624 17.6576 89.3162 17.6862 90.0567 17.7266C90.5302 17.7554 89.7836 17.935 91.8182 18.0938C91.9568 18.1054 92.0455 17.9028 92.4867 17.9424C93.2491 17.9872 96.829 18.4353 98.7474 18.9293C99.8046 19.1718 100.642 19.4725 101.076 19.6668C101.105 19.6362 101.243 19.644 101.519 19.7116C102.76 19.9787 105.131 21.3617 106.519 22.7585C107.942 24.1375 108.572 25.264 108.142 24.8692ZM97.137 4.1425C96.5089 3.96693 94.5476 3.23084 94.3874 3.00147C95.4403 3.1859 98.6276 4.52544 97.137 4.1425ZM3.11696 58.0564C3.22601 59.2468 2.99831 62.1584 2.83144 61.2816C2.69877 60.7544 2.96381 56.6946 3.11696 58.0564ZM77.9517 1.16627C84.4576 1.02857 79.5015 1.19605 80.4921 1.4801C79.6506 1.36389 78.8016 1.25906 77.9517 1.16627ZM117.716 60.1299C118.157 58.9246 117.107 60.1036 116.747 61.4888C116.634 61.9302 117.465 60.8091 117.716 60.1299ZM65.7247 60.1965C66.2212 60.7184 65.6992 59.4726 65.3178 58.5696C64.9284 57.6633 64.5703 57.0436 64.7279 58.0123C64.7129 58.0548 65.6279 60.0787 65.7247 60.1965ZM104.942 74.3907C106.122 73.9743 107.064 73.7238 109.279 71.4396C109.316 71.3931 109.385 71.3028 109.547 71.121C109.326 71.3138 109.259 71.3548 109.207 71.3726C108.13 72.4077 108.252 72.1248 108.057 72.2505C107.872 72.3033 107.289 73.0213 104.942 74.3907ZM131.314 28.4176C131.331 28.4169 131.344 28.4172 131.352 28.4079C131.335 28.407 131.324 28.4106 131.314 28.4176ZM38.5579 7.30416C37.8847 7.87456 35.7484 8.83986 36.2668 8.29733C36.3132 8.23988 38.1583 7.24449 38.5579 7.30416ZM101.271 19.8537C101.485 19.8811 101.398 19.812 101.076 19.6668C101.048 19.696 101.123 19.7583 101.271 19.8537ZM51.338 3.69415C51.2475 3.48324 54.7046 2.91912 54.8228 2.94513C56.793 3.07202 52.8452 3.43812 51.338 3.69415ZM5.89696 80.7327C5.91657 80.912 5.14043 79.9125 5.19557 79.18C5.23751 78.6163 5.82062 80.0689 5.89696 80.7327ZM94.8631 76.814C94.5437 76.8331 94.2002 76.8493 93.8579 76.8648C92.6824 76.9216 91.4632 76.9218 91.1594 77.095C91.7381 77.1048 92.9638 77.1065 93.8633 77.0208C94.4334 76.9667 94.8789 76.8889 94.8631 76.814ZM67.2774 62.4654C67.8228 63.8482 69.635 66.3887 71.7044 68.0557C71.5654 67.9381 71.7077 68.0573 71.8736 68.2119C72.05 68.3744 72.2722 68.5809 72.502 68.79C72.5656 68.7351 72.4303 68.5297 72.2216 68.2794C72.0395 68.051 71.6894 67.7103 71.8674 67.8598C69.8858 66.2894 67.7673 63.4997 67.2774 62.4654ZM111.003 28.0933C110.964 28.0527 110.419 27.3302 109.825 26.5957C109.242 25.8652 108.606 25.1437 108.907 25.2752C109.928 25.721 111.73 28.8542 111.003 28.0933ZM4.55406 75.6028C4.5192 74.3759 5.53993 77.0271 5.39656 78.3637C5.31017 79.0573 4.54649 75.8139 4.55406 75.6028ZM32.083 10.8474C30.52 11.5349 34.091 9.27145 34.7457 9.28757C34.0574 9.64679 32.6343 10.5973 32.083 10.8474ZM85.4472 2.20371C80.3734 2.66834 83.1819 1.41635 84.0808 1.58878C84.2085 1.61193 85.5741 2.19288 85.4472 2.20371ZM133.306 136.869C133.942 136.707 131.893 138.042 131.506 137.928C131.268 137.856 132.899 136.973 133.306 136.869ZM143.77 51.8153C143.72 51.6145 143.669 51.4154 143.618 51.2175C143.646 51.3686 143.694 51.5639 143.77 51.8153ZM19.9425 19.5132C22.9496 15.7337 22.9627 17.0213 23.2738 16.7518C23.902 16.3245 25.18 15.1997 26.2974 14.6304C24.9791 15.2342 23.5956 15.9039 22.1054 16.7638C23.4744 15.5464 31.5393 10.8208 31.3914 11.0605C31.3949 11.0618 31.3982 11.0631 31.4012 11.0647C31.4239 11.0715 31.4309 11.0855 31.4244 11.1055C31.4297 11.3264 29.4653 12.3242 29.3818 12.3898C29.2968 12.4722 29.2512 13.3036 29.0318 13.4529C28.8338 13.5598 21.4786 17.68 19.9425 19.5132ZM74.8368 1.87683C75.6546 1.76124 75.8822 1.47594 76.2661 1.53358C76.3982 1.55377 76.4231 1.82078 76.869 1.88248C76.1925 1.87282 75.5148 1.8709 74.8368 1.87683ZM13.9654 25.2033C13.6989 26.002 15.1664 23.8979 15.1829 23.7768C15.7723 22.7803 16.229 22.1975 16.2672 22.1246C16.6042 21.5641 15.8972 22.1662 14.936 23.6282C14.8532 23.6585 14.1064 24.7326 13.9654 25.2033ZM49.5637 4.25128C49.5273 4.26245 49.3373 4.30669 49.0597 4.3715C47.6862 4.66708 45.4511 5.36687 45.4275 5.22807C45.9304 4.99532 47.5886 4.46218 49.0217 4.18577C49.9853 4.00164 50.4994 3.96441 49.5637 4.25128ZM77.4163 1.89349C78.6427 1.84049 80.9693 1.62135 80.6914 2.02169C80.6896 2.02164 80.6877 2.0216 80.6859 2.02156C79.6017 1.95948 78.5086 1.91642 77.4163 1.89349ZM4.75622 71.3572C5.7082 73.494 4.73999 72.5666 4.2781 70.5992C4.49041 69.9608 4.60198 71.005 4.75622 71.3572ZM6.44478 78.3484C6.61649 78.8248 7.54749 83.0294 7.67759 84.1611C7.7017 84.4294 7.66975 84.5251 7.55551 84.3592C7.53762 84.3332 7.5161 84.2831 7.49171 84.213C7.2103 83.4529 6.7024 80.3477 6.65879 80.2016C6.56826 79.9562 6.45983 81.1973 6.09859 79.2474C6.24644 79.3321 6.36171 78.1469 6.44478 78.3484ZM5.42841 73.1402C6.2584 75.255 5.47061 75.9004 5.18364 74.2463C5.07458 73.598 5.31082 72.8364 5.42841 73.1402ZM4.41554 64.0689C4.5075 64.6486 4.66972 65.9252 4.70121 67.1367C4.71344 67.6075 4.70679 68.0723 4.66586 68.4877C4.61515 68.0445 4.56756 67.598 4.52364 67.1519C4.37437 65.6395 4.25699 64.1096 4.18112 62.5637C4.34249 62.3262 4.30103 63.3716 4.41584 64.0743C4.41574 64.0725 4.41564 64.0707 4.41554 64.0689ZM67.7271 43.3595C67.67 43.6582 67.6554 43.8224 67.6587 43.9083L67.5784 44.2275C67.59 44.2915 67.6141 44.2915 67.6469 44.2432L67.7265 43.9269C67.8526 43.7371 68.1354 42.8325 68.5941 41.779C69.0897 40.6779 69.1856 40.5291 69.1743 40.4788C69.1486 40.4074 69.0952 40.4016 69.0265 40.4429C68.9555 40.4895 68.873 40.5709 68.704 40.8615C68.3319 41.4704 67.798 42.8686 67.7271 43.3595ZM141.412 124.188C141.772 123.904 141.891 123.478 142.857 123.207C142.071 123.862 141.281 124.511 140.487 125.155C139.551 124.966 141.016 124.501 141.412 124.188ZM143.899 120.674C143.767 120.724 144.061 119.607 142.713 120.923C142.18 121.433 144.012 120.808 145.782 119.958C147.081 119.334 148.341 118.607 148.696 118.218C147.945 118.518 146.773 119.195 145.691 119.785C144.991 120.168 144.343 120.501 143.899 120.674ZM151.436 111.898C151.494 111.8 149.74 112.92 149.5 113.104C148.477 114.07 151.545 112.374 151.436 111.898ZM145.327 115.853C146.061 115.299 144.772 115.894 143.89 116.375C143.68 116.491 143.483 116.606 143.36 116.692C143.36 116.763 143.643 116.668 143.971 116.529C144.528 116.289 145.235 115.92 145.327 115.853ZM81.9592 56.8019C82.7684 57.1476 83.0152 57.6366 83.0098 57.9224C82.981 58.189 82.7264 58.3001 82.0637 57.4845C82.0073 57.4124 81.8963 56.7822 81.9592 56.8019ZM149.291 112.337C148.509 113.042 150.533 111.878 150.862 111.46C150.847 111.29 149.442 112.228 149.291 112.337ZM83.6757 56.481C85.0966 57.2503 83.6895 57.8796 83.5328 57.8159C83.1528 57.6259 82.7771 57.0894 81.7222 56.0132C81.3937 55.5728 81.2587 55.1181 81.2269 54.9607C81.4819 55.361 81.7419 55.5968 81.9488 55.7408C82.5059 56.1871 82.7013 56.3352 82.8825 56.4342C83.0483 56.5228 83.1363 56.5231 83.2063 56.5023C83.3421 56.4569 83.3999 56.3227 83.6757 56.481ZM87.7555 60.4495C88.6885 61.0124 86.0208 60.1908 85.8183 59.4696C86.2557 59.8093 87.4911 60.3146 87.7555 60.4495ZM94.5528 60.8055C94.8726 60.7523 95.4863 60.6384 95.9639 60.5329C96.4519 60.4289 96.7777 60.3467 96.8967 60.4247C96.6107 60.5342 94.8844 61.0349 94.5528 60.8055ZM95.7697 59.9618C96.1272 59.738 96.3301 59.8288 96.4002 59.9681C96.4627 60.106 96.3787 60.3026 95.898 60.2635C95.8603 60.2605 95.7438 59.984 95.7697 59.9618ZM98.4745 57.6379C98.7863 56.8537 99.8969 56.958 99.1282 57.7502C98.8755 58.0008 98.4394 57.7269 98.4745 57.6379ZM85.9848 56.5213C86.6859 56.9178 87.106 58.0109 85.7338 57.0102C86.1558 57.4921 86.5507 57.9003 86.9688 58.2717C85.0095 57.3627 85.6616 56.6165 85.0859 56.1696C84.1889 55.3848 83.6576 55.8513 83.745 56.2452C83.6024 55.9817 83.4014 55.6483 82.6344 54.9166C82.1076 54.1976 81.7033 53.6276 81.1038 51.5356C81.4658 52.4105 81.8511 53.1385 82.181 53.5094C82.5131 53.8906 82.7909 54.0529 83.1663 54.2773C83.9413 54.895 84.2813 55.216 84.6052 55.4949C85.1296 55.9553 85.3487 56.4276 85.6795 56.6878C86.1918 57.0807 85.9402 56.4968 85.9824 56.5192C85.9832 56.5199 85.984 56.5206 85.9848 56.5213ZM102.086 52.1407C102.305 50.2576 102.784 51.6337 102.242 52.6019C102.215 52.6395 102.08 52.1868 102.086 52.1407ZM149.513 108.914C149.388 109.155 149.169 109.446 149.04 109.645C148.897 109.854 148.803 110.008 148.603 110.188C148.192 110.545 147.437 111.023 144.359 112.311C147.024 111.413 144.675 112.563 145.249 112.481C145.717 112.413 147.029 111.491 146.39 112.247C146.826 111.787 148.226 110.89 149.178 110.172C149.655 109.815 149.974 109.534 150.086 109.416C150.198 109.299 150.206 109.271 150.212 109.242C150.212 109.243 150.211 109.243 150.211 109.243C150.209 109.218 150.028 109.104 149.863 109C149.692 108.901 149.578 108.773 149.513 108.914ZM94.3571 58.5434C94.5892 57.9929 94.7741 58.1268 95.0279 58.2702C95.2667 58.4153 95.6252 58.5588 95.8213 58.0581C96.1562 58.4062 96.1301 58.574 95.6788 58.711C95.2338 58.8481 94.2485 58.9065 93.2365 58.9579C92.38 59.0103 91.6976 59.0545 91.455 59.3826C92.3982 59.444 92.9752 59.4289 93.2537 59.4541C93.5739 59.475 93.5191 59.529 93.2584 59.5889C92.2573 59.9061 89.0225 59.6048 91.7111 58.86C90.1073 59.0012 89.9245 58.8097 90.0188 58.7004C90.1195 58.5739 90.5321 58.4076 90.3374 58.263C89.9125 57.9903 88.4878 57.697 88.7281 57.3492C88.7288 57.3495 88.7295 57.3498 88.7302 57.3502C89.4881 57.7245 90.3268 57.9857 91.3324 58.1278C90.2177 58.8345 92.3638 58.872 93.2074 58.119C93.218 58.111 93.2284 58.103 93.2385 58.0949C93.6239 58.2532 93.9987 58.403 94.3571 58.5434ZM88.15 58.5104C88.2078 58.5893 90.288 59.35 90.1554 59.4427C89.9845 59.4689 89.0971 59.2545 88.4996 58.9518C87.8973 58.6546 87.5401 58.3477 88.15 58.5104ZM81.6642 52.0395C81.6521 51.9406 81.6739 51.8061 81.5269 51.182L81.3989 50.7436C81.8736 52.1581 82.2861 52.9304 82.1622 53.2755C81.9499 52.898 81.4706 51.8635 81.264 50.7875L81.3895 51.2175C81.5817 51.8976 81.5892 51.9539 81.6642 52.0395ZM95.5261 37.0158C95.4399 36.7786 95.6421 36.8092 95.9282 37.0841C96.2097 37.3525 96.5348 37.8795 96.1314 37.6177C96.1125 37.6057 95.9321 37.4022 95.7873 37.2618C95.6395 37.116 95.5308 37.0283 95.5261 37.0158ZM96.2485 58.3598C96.2825 58.1704 96.2326 58.3873 96.3583 58.5293C96.4645 58.6777 96.5474 58.859 96.3177 58.7977C96.2971 58.7884 96.2508 58.3753 96.2485 58.3598ZM148.194 109.752C148.119 109.565 144.475 111.932 143.68 112.323C144.277 112.311 148.611 109.898 148.194 109.752ZM82.703 51.164C82.8097 51.5153 82.8725 51.8532 82.9183 52.0296C82.9405 52.1134 82.9604 52.1597 82.9675 52.068C82.9601 51.9496 83.0135 51.8103 82.7813 50.8573L82.6311 50.3426C83.1977 52.3111 82.9914 52.7756 83.0602 52.8913C83.1404 52.9927 83.3965 52.6333 83.4203 52.655C83.4423 52.6799 83.546 52.8764 83.627 52.9907C83.7066 53.1098 83.8228 53.2415 83.9372 53.3505C84.3708 53.7206 84.5368 53.889 84.5843 53.9371C84.6669 54.0275 84.3804 53.9597 84.1856 54.0049C83.9778 54.0401 83.9591 54.2582 84.3508 54.7451C84.1973 54.5588 83.9781 54.3072 83.4997 53.8765C83.2976 53.6059 83.1565 53.4379 82.9359 53.0335C82.7123 52.6489 82.3465 51.6511 81.991 50.5509L82.1296 51.026C82.2834 51.6584 82.2729 51.8235 82.288 51.9529C82.296 52.0698 82.2947 52.0958 82.2958 52.1075C82.297 52.1228 82.3018 52.0714 82.3095 52.0619C82.335 52.028 82.4895 52.1536 82.6004 52.1013C82.6555 52.0836 82.6983 52.137 82.7075 52.1019C82.7186 52.0624 82.693 51.849 82.7025 51.1674C82.7026 51.1662 82.7028 51.1651 82.703 51.164ZM83.3033 53.0695C82.9733 52.9941 83.3166 53.5654 83.5474 53.6209C83.785 53.6984 83.6587 53.5324 83.5491 53.3866C83.4406 53.2455 83.3279 53.0833 83.3033 53.0695ZM86.9121 56.1549C87.1289 56.3064 88.4557 57.0988 88.4629 57.349C87.6592 57.3816 86.472 55.9694 86.9121 56.1549ZM100.835 50.2795C100.924 50.0313 101.004 49.5525 101.054 49.19C101.107 48.8209 101.134 48.5943 101.249 48.5841C101.221 48.8261 101.095 50.2523 100.835 50.2795ZM133.594 115.175C134.732 114.444 131.882 115.67 131.085 116.126C131.104 116.285 133.501 115.238 133.594 115.175ZM95.4377 56.3554C95.4069 56.4017 95.2545 56.2017 94.0591 57.3864C96.078 55.3098 97.0696 54.5849 97.5144 54.0411C97.9987 53.5155 98.3623 52.9163 98.5257 52.671C98.5302 52.664 98.5346 52.6573 98.5388 52.651C98.5368 52.6584 98.5346 52.6661 98.5322 52.6742C98.4552 52.9601 98.1595 53.6147 97.7031 54.204C97.2899 54.8072 96.2729 55.6111 94.3247 57.6316C95.3779 56.5887 95.5195 56.7309 95.5327 56.6515C95.5452 56.6185 95.4515 56.3614 95.4377 56.3554ZM86.4964 53.6758C86.2049 53.0528 85.4891 52.5781 84.8865 52.2094C84.855 52.2292 84.8309 52.2463 84.8275 52.245C84.6926 52.1951 84.7562 52.1306 84.4847 52.3065C84.573 52.3365 84.5321 52.366 84.65 52.4937C85.9133 53.5996 86.1252 53.8771 86.408 54.0652C86.6372 54.2162 86.7164 54.1538 86.4964 53.6758ZM99.4879 49.4855C99.7394 48.6586 99.7837 49.0417 99.6955 49.6426C99.6056 50.252 99.296 51.1 99.2229 50.7879C99.2266 50.7426 99.4461 49.6501 99.4879 49.4855ZM95.4301 56.2518C95.394 56.1988 95.3185 56.1941 94.9635 56.2379C94.6163 56.28 93.9806 56.3523 93.1472 56.3865C91.3651 56.486 90.0655 56.1363 89.7613 56.0094C90.1143 56.6657 90.6848 56.4469 91.5828 56.5728C91.8342 56.6052 91.7529 56.8033 91.7801 56.8064C92.2408 56.8487 91.908 56.5877 92.1969 56.5996C92.252 56.6009 92.6167 56.6462 93.1565 56.6533C93.9328 56.6616 94.7751 56.6023 95.1431 56.5163C95.5277 56.4286 95.4897 56.3693 95.4301 56.2518ZM86.2412 53.1109C86.1445 52.9739 85.9654 52.7209 85.1025 51.9498C85.0563 51.8256 85.1799 51.9023 85.1608 51.8426C85.1472 51.8005 84.9507 51.3251 84.9149 51.2758C84.6122 50.8945 84.7875 51.6305 84.8859 51.883C84.994 52.1361 84.8885 51.9586 85.0155 52.0543C85.9302 52.8182 86.1312 53.0307 86.2412 53.1109ZM95.2675 55.8433C95.2623 55.6893 95.2843 55.5981 95.1856 55.5827C95.0943 55.5654 94.8901 55.6103 94.6902 55.6694C94.492 55.7291 94.3148 55.8044 94.3207 55.872C94.3186 55.9392 94.5337 56.0004 94.8944 56.0147C94.9607 56.0173 95.1191 55.9316 95.2151 55.8633C95.3168 55.7946 95.3289 55.7513 95.2675 55.8433ZM98.9074 49.5348C98.9109 49.4938 99.0081 48.9901 99.0541 48.6492C99.1054 48.2778 99.1085 48.2587 99.2022 48.2817C99.2196 48.2734 99.2407 48.2775 99.2377 48.422C99.2355 48.5596 99.2024 48.8189 99.1447 49.0814C99.0274 49.6138 98.8534 50.0631 98.9074 49.5348ZM98.0147 50.3159C98.0318 50.2711 98.223 50.8329 98.4726 49.9294C98.4781 49.8748 98.203 49.528 98.5234 48.6951C98.5856 48.5324 98.8688 48.3889 98.8829 48.4063C99.181 48.6907 98.7657 49.8622 98.2957 50.541C97.8288 51.2216 97.4914 51.4152 98.0147 50.3159ZM86.3565 52.7758C86.5326 52.8486 86.5776 52.7201 86.48 52.4834C86.3805 52.2481 86.1549 51.9053 85.5533 51.4078C85.5485 51.407 85.5338 51.4221 85.5028 51.4564C85.4562 51.5116 85.3422 51.6196 85.2997 51.7127C85.6978 52.1087 86.0531 52.4858 86.3565 52.7758ZM97.902 46.596C98.0825 47.3836 97.4468 46.2618 96.8513 45.4255C96.0818 44.2849 95.5809 43.4181 95.5352 43.294C95.6641 43.3357 96.2524 44.1867 97.0469 45.2956C97.4919 45.8489 97.8855 46.5272 97.902 46.596ZM129.769 114.354C129.77 114.353 129.772 114.352 129.773 114.352C128.257 115.109 129.317 114.908 129.248 114.948C126.096 116.764 126.733 115.851 126.19 116.02C125.016 116.382 125.476 116.937 123.471 117.507C126.767 116.516 123.854 117.608 123.861 117.873C123.923 118.946 127.828 115.607 129.44 115.108C129.667 115.039 128.215 116.041 128.802 115.878C130.725 115.347 135.541 111.438 129.769 114.354ZM85.5419 51.4331C85.5983 51.3851 85.6563 51.3893 85.7043 51.4336C85.7518 51.4753 85.7651 51.5402 85.6951 51.4756C85.5601 51.3775 85.1468 50.6064 85.1992 51.1107C85.201 51.1439 85.2666 51.3693 85.3186 51.5186C85.3728 51.6752 85.3992 51.7304 85.3919 51.7102C85.3638 51.6516 85.3754 51.572 85.5419 51.4331ZM115.036 43.5182C115.767 44.7349 113.405 42.5078 113.155 41.9422C113.032 41.6545 114.714 42.9783 115.036 43.5182ZM99.8045 31.9893C98.0424 31.0183 96.5358 28.9072 98.7886 30.3678C99.0298 30.526 100.08 31.9685 99.8045 31.9893ZM93.6541 83.8925C94.3565 83.8045 94.6023 83.91 94.6118 84.0411C94.6179 84.1701 94.3714 84.3201 93.8863 84.2466C93.5379 84.193 93.6097 83.8977 93.6541 83.8925ZM121.987 57.1866C121.922 57.019 121.474 55.2564 121.647 55.2863C121.926 55.8604 122.425 58.1685 121.987 57.1866ZM93.234 83.7251C94.0378 83.9794 92.5513 84.2748 91.5273 83.5611C92.0824 83.7137 93.1603 83.7024 93.234 83.7251ZM93.6815 54.7751C94.2512 54.4211 94.99 53.8107 95.3775 53.454C95.7847 53.0797 95.9505 52.8634 96.1026 52.7073C95.9552 52.5862 95.8082 52.7238 95.4706 53.0663C95.1741 53.3769 94.2816 54.237 93.6815 54.7751ZM104.809 34.2402C104.513 33.8632 104.786 33.907 105.121 34.1026C105.456 34.2975 105.87 34.6784 105.672 34.7435C105.628 34.7264 104.819 34.2557 104.809 34.2402ZM62.5373 59.3392C62.5028 59.2239 62.4668 59.1226 62.4373 59.0599C62.4254 59.163 62.3919 59.1577 62.3455 59.0779C62.3357 59.2502 62.3413 59.5592 62.3223 59.7086C62.306 59.871 62.2823 59.9195 62.2756 59.9117C62.2606 59.884 62.3114 59.7468 62.465 59.8606C62.4723 59.8633 62.5104 59.9586 62.5401 59.8717C62.5751 59.8165 62.5565 59.3993 62.5373 59.3392ZM64.6008 50.5368C64.4333 50.9483 63.8401 52.641 63.8563 51.907C63.8359 51.7855 64.3815 50.4672 64.6008 50.5368ZM125.989 115.813C126.272 115.265 123.748 116.484 123.403 116.709C123.27 116.798 125.619 116.529 125.989 115.813ZM100.738 84.1813C100.739 84.189 100.734 84.1945 100.712 84.2031C101.358 84.0369 102.458 83.5903 102.754 83.6505C102.244 83.8277 101.282 84.2923 100.767 84.3909C100.795 84.3619 100.765 84.3098 100.738 84.1813ZM109.029 38.0004C107.86 37.4109 106.478 36.0962 107.197 36.0111C108.77 37.5335 106.643 36.1238 109.029 38.0004ZM88.2488 82.2483C88.9172 82.3721 89.3025 82.997 89.2234 83.005C88.4587 83.0774 87.541 82.2919 88.2488 82.2483ZM122.071 67.233C121.892 67.117 122.335 66.3677 122.42 66.5214C122.463 66.574 122.234 67.3335 122.071 67.233ZM93.3801 42.1019C93.0708 41.8023 93.1925 42.1807 93.5445 42.8488C93.8895 43.5066 94.5375 44.5625 94.9764 45.0309C95.2854 45.1978 94.7903 44.323 94.3274 43.5517C93.8537 42.7637 93.4179 42.138 93.3801 42.1019ZM74.1525 77.2302C74.3241 76.969 76.2684 78.6716 75.2953 78.2894C75.0604 78.2117 74.1061 77.3436 74.1525 77.2302ZM63.4649 58.1134C63.1519 58.9241 63.1362 57.604 63.4114 56.0069C63.6749 54.4347 64.1621 52.8049 64.1118 54.0172C64.0606 54.2357 63.46 58.0674 63.4649 58.1134ZM66.7068 48.3708C66.599 48.5799 67.4984 49.2135 67.846 48.1855C67.8956 48.0466 67.2522 48.3144 67.2752 48.1888C67.2243 48.1328 68.8595 46.284 69.0472 46.1941C69.1707 46.1245 69.2877 46.5018 69.4189 46.4398C69.5481 46.3732 70.68 45.0094 71.7581 44.1598C72.5558 43.5223 73.3046 42.9756 73.9333 42.4924C74.1309 42.43 74.2307 42.4847 74.2595 42.4613C74.3989 42.3495 74.5187 41.9868 74.843 41.789C75.3951 41.4527 76.079 41.1852 76.9148 41.0257C78.6756 40.6186 82.7947 40.7649 85.4065 40.6685C81.9109 40.5217 78.858 40.2067 77.0224 40.472C77.199 40.6172 77.0589 40.6803 76.8482 40.7063C76.3289 40.7568 75.2277 40.688 76.4096 40.8568C76.0849 40.8675 74.7684 41.1955 73.6456 42.17C70.4883 44.8055 69.4614 45.4866 68.3447 46.5626C67.3368 47.5128 66.8225 48.1765 66.7085 48.3687C66.7079 48.3694 66.7073 48.3701 66.7068 48.3708ZM92.9498 28.3009C93.209 28.6894 92.4133 28.2707 91.6426 27.8011C90.8657 27.3223 90.0837 26.8 90.0427 26.538C90.4554 26.6178 92.8389 28.1503 92.9498 28.3009ZM109.946 41.3727C110.084 41.5722 110.071 41.8953 110.317 42.385C110.55 42.8351 110.985 43.4134 111.894 44.1644C111.896 44.1661 111.897 44.1678 111.899 44.1695C112.468 44.641 112.05 43.8979 112.188 43.9543C112.24 43.9695 114.041 45.4411 112.821 43.9745C110.958 41.7546 112.226 44.1422 111.188 43.0006C111.142 42.9498 110.884 42.5815 110.583 42.1419C110.109 41.4319 109.526 40.5514 109.637 40.5875C109.654 40.589 110.154 41.2476 110.273 41.3237C110.728 41.6102 110.728 41.2655 110.786 41.3118C110.818 41.3395 110.928 41.4708 111.094 41.6754C111.91 42.6631 113.881 45.2171 114.474 45.468C114.611 45.5176 112.782 43.228 111.29 41.4962C110.439 40.4988 109.727 39.726 109.64 39.6669C109.493 39.567 109.075 40.07 108.907 39.9874C108.816 39.9233 107.07 37.8357 106.792 37.678C106.71 37.6239 106.644 37.5877 106.594 37.5627C107.004 37.6569 105.338 36.17 105.257 36.4186C105.216 36.4913 106.373 37.454 106.431 37.4953C106.453 37.5073 106.475 37.5154 106.495 37.5246C106.055 37.373 110.112 41.4583 108.975 40.8372C110.014 42.2304 109.195 40.2859 109.946 41.3727ZM115.644 48.3973C115.562 48.1979 115.482 48.0008 115.401 47.8031C116.188 48.8073 117.086 49.8384 118.043 50.8959C117.274 49.897 117.473 49.16 118.672 52.98C118.71 53.0869 118.742 53.1812 118.767 53.2632C118.885 53.742 118.331 53.2307 118.725 54.0402C119.061 54.7365 119.701 55.5272 119.651 55.0637C119.64 54.966 119.16 53.9685 118.838 53.2375C118.672 52.8157 118.55 52.4704 118.466 52.2028C118.156 51.2024 118.078 50.8295 118.038 50.5739C118.003 50.3312 118.024 50.2402 118.055 50.1765C118.118 50.0576 118.226 50.0844 118.218 50.0483C118.21 50.0089 118.074 49.8335 118.021 49.8677C117.961 49.8869 118.016 50.1231 118.146 50.2932C118.222 50.395 118.31 50.4966 118.4 50.5876C117.017 48.9038 116.201 47.7304 113.907 45.4873C115.114 47.23 113.958 46.6837 115.644 48.3973ZM66.5769 67.7401C66.7007 67.5375 65.8483 66.5616 65.7043 66.1873C65.5179 66.3409 66.3045 67.3024 66.5769 67.7401ZM43.7965 105.968C43.7939 106.236 43.2781 105.861 42.8318 105.366C42.3888 104.88 42.0055 104.276 42.4261 104.574C42.6216 104.73 43.5523 105.727 43.7965 105.968ZM34.1572 90.5464C34.043 89.974 35.1361 92.0416 34.8736 92.1299C34.7853 92.1708 34.1694 90.6305 34.1572 90.5464ZM117.522 70.1034C117.446 70.1725 116.345 71.4168 116.315 71.4689C115.852 72.5249 119.421 68.4837 117.522 70.1034ZM28.0051 66.392C27.9954 67.478 27.7578 66.2523 27.6584 65.1734C27.567 64.1914 27.5689 63.3328 27.7721 64.1952C27.7821 64.2397 27.8241 64.6689 27.8747 65.1549C27.9326 65.7141 28.0058 66.3386 28.0051 66.392ZM27.7287 58.1342C27.6891 58.5645 27.8106 60.5976 27.7068 60.6358C27.5135 60.6719 27.3947 58.3298 27.7287 58.1342ZM88.125 80.7816C88.4766 80.4429 85.3816 80.007 84.3196 79.6596C83.9587 80.0004 87.1089 80.4958 88.125 80.7816ZM101.263 81.6938C100.822 81.8355 100.428 81.9477 100.082 82.037C100.475 81.9113 100.261 81.9744 99.9488 81.9823C99.627 81.9997 99.1901 82.006 98.8179 82.0093C98.0527 82.0138 97.5796 82.0322 97.6802 82.0991C97.7576 82.1617 98.3845 82.2687 99.1168 82.32C99.4764 82.3455 99.8568 82.3517 100.109 82.3363C100.357 82.3266 100.478 82.2722 100.169 82.3383C100.65 82.1838 101.21 81.9737 101.831 81.6976C101.745 81.4424 101.79 81.5221 101.263 81.6938ZM90.8625 81.1327C91.2479 81.489 92.6195 81.6812 93.4339 81.7892C93.3407 81.5931 91.5391 81.3315 90.8625 81.1327ZM46.6204 107.691C46.4023 107.172 44.6473 106.171 44.8129 106.493C44.8272 106.606 46.627 107.964 46.6204 107.691ZM116.55 70.5949C116.486 70.1014 113.907 72.8873 113.732 73.1535C113.129 74.2417 116.317 70.7445 116.55 70.5949ZM75.2714 75.7061C75.0586 75.1281 73.7287 74.1847 72.9337 73.4197C73.1037 73.9709 74.6198 75.193 75.2714 75.7061ZM78.9932 77.687C78.9533 77.6672 78.2016 77.4525 77.6784 77.304C77.9275 77.3878 78.0085 77.431 78.0202 77.4401C78.1076 77.5428 78.0747 77.582 78.0319 77.5995C77.9794 77.6146 77.8855 77.5916 77.6146 77.5128C78.5444 77.8127 79.8991 78.1153 78.9932 77.687ZM130.628 110.611C130.567 110.628 129.275 111.239 129.233 111.27C128.196 112.077 132.077 110.241 130.628 110.611Z" fill="#6308BC" fill-opacity="0.08"/>
</svg>
