<svg width="267" height="263" viewBox="0 0 267 263" fill="none" xmlns="http://www.w3.org/2000/svg">
<path d="M12.0098 58.0158C11.7118 58.7452 10.4074 61.4806 9.9342 62.6418C10.0767 61.2124 13.0399 55.4164 12.0098 58.0158ZM39.5093 176.776C39.0279 176.281 38.5614 175.768 38.1167 175.244C39.0747 176.934 40.7803 178.971 42.0919 180.47C42.3038 180.717 41.5137 180.302 42.0352 180.87C42.5727 181.443 42.7366 181.057 43.5976 181.84C44.4058 182.685 49.4126 187.211 51.9733 189.397C52.0223 189.439 52.0713 189.482 52.1205 189.524C58.2928 194.886 65.9237 199.128 74.1915 203.29C67.5939 200.261 70.8967 202.179 73.9839 203.729C75.0984 204.281 76.1333 204.787 76.7749 205.071C77.3279 205.292 77.7733 204.786 86.5623 209.223C92.0561 211.864 86.6409 210.665 95.7649 213.997C95.8614 214.03 95.9596 214.064 96.0597 214.099C95.9643 214.049 95.8718 214.001 95.782 213.955C91.6623 211.759 93.052 212.192 96.0222 213.361C97.681 214.005 99.8659 214.848 101.899 215.573C102.87 215.965 110.96 218.801 114.627 219.745C115.876 220.089 117.875 220.235 119.528 220.643C120.612 220.911 121.399 221.303 122.932 221.669C123.012 221.688 123.093 221.707 123.177 221.726C131.2 223.524 139.054 224.857 146.691 225.384C142.139 226.08 150.198 226.02 150.514 225.995C152.335 226.344 144.084 226.083 147.347 226.399C150.67 226.548 153.908 226.514 157.101 226.268C158.502 226.161 159.861 226.048 161.218 225.922C157.177 226.15 166.493 224.634 168.188 224.694C167.735 224.298 173.33 223.895 178.946 222.973C184.622 222.12 189.898 220.415 192.856 219.38C193.537 219.132 190.657 219.781 193.486 218.862C193.559 218.769 193.85 218.856 195.956 217.585C196.653 217.144 196.549 217.529 196.909 217.246C197.135 217.072 198.018 215.404 199.98 214.32C200.338 214.124 199.636 214.959 199.891 214.912C200.176 214.819 201.245 214.148 205.871 209.593C203.934 210.912 206.182 208.53 210.339 204.669C214.242 201.189 218.987 195.921 220.291 194.369C219.739 194.886 219.172 195.406 218.605 195.91C221.211 193.218 221.312 192.484 221.815 191.843C222.85 190.482 224.181 188.655 224.852 187.565C225.675 186.177 226.475 184.596 227.062 183.232C228.533 179.726 228.047 179.513 229.906 175.187C229.403 176.202 228.898 177.201 228.39 178.18C229.58 175.216 230.733 172.104 231.896 168.903C229.926 176.504 232.492 167.346 232.697 166.691C233.014 165.714 232.793 167.203 233.331 165.568C233.387 165.395 233.038 165.564 233.912 163.014C234.89 160.169 235.404 159.031 235.766 158.297C236.039 157.775 236.226 157.487 236.54 156.597C236.589 156.421 236.194 156.954 237.205 153.659C240.037 143.08 237.446 153.783 237.27 154.179C237.117 154.681 239.099 151.878 236.531 158.584C236.291 159.186 236.025 159.853 235.734 160.579C236.058 159.766 236.346 159.117 236.593 158.608C237.303 157.208 237.631 157.056 237.733 156.797C237.888 156.51 239.472 151.245 239.498 150.936C240.054 148.286 239.141 150.506 239.225 149.982C239.343 149.585 241.207 143.19 240.495 141.481C241.823 138.47 241.091 143.462 239.917 148.647C239.93 149.457 241.395 143.775 241.409 143.453C241.757 141.608 241.888 140.45 241.924 139.741C241.917 138.162 241.247 139.592 241.02 138.67C240.872 138.044 241.438 135.941 240.707 137.871C240.75 133.155 241.028 135.997 241.112 135.7C241.198 135.227 240.872 133.541 240.853 133.321C240.846 132.998 241.21 134.079 241.115 132.809C241.096 132.589 240.399 130.645 240.631 133.259C240.127 129.791 239.719 130.13 240.011 128.72C238.029 126.561 240.05 126.609 239.712 125.517C238.677 122.559 238.107 123.762 238.014 123.636C237.742 123.289 237.148 122.068 236.238 120.247C233.982 115.808 232.169 110.094 231.548 108.604C232.407 109.143 234.893 117.774 236.168 119.737C236.255 119.891 236.337 120.031 236.412 120.16C237.198 121.429 237.089 121.021 236.684 120.024C235.519 117.453 233.64 112.184 235.323 114.898C234.323 113.088 233.423 111.303 232.597 109.67C232.331 108.12 232.595 108.288 232.612 108.007C232.645 107.803 232.371 106.802 231.39 104.508C231.32 104.36 231.228 104.173 231.11 103.948C230.81 103.756 230.998 104.197 231.171 104.597C231.62 105.631 232.506 107.827 232.002 107.09C231.763 106.745 231.264 105.541 230.868 104.721C230.622 104.25 230.204 103.544 230.142 103.555C230.053 103.563 230.528 104.425 230.659 104.806C230.838 105.267 230.961 105.672 230.805 105.5C230.712 105.401 230.581 105.173 230.436 104.897C230.045 103.89 224.666 95.4704 229.619 102.536C228.355 100.453 228.185 98.6425 226.378 96.7559C225.114 95.5456 230.27 103.81 221.205 92.435C221.37 91.9081 225.112 96.8601 225.172 96.954C225.347 97.0968 225.45 95.6291 225.361 95.4425C225.216 95.1081 222.244 91.6372 218.904 88.1107C216.013 85.0247 213.065 81.9532 212.111 80.64C212.51 81.6305 207.888 76.7104 204.688 73.3784C204.443 73.0948 203.968 72.7481 203.783 72.6864C203.629 72.6375 203.906 73.2594 203.747 73.1932C203.234 72.9074 200.525 71.2246 196.033 69.0037C195.349 68.6311 194.718 68.3084 194.189 68.0632C191.085 66.6462 191.321 67.1166 191.154 67.0356C189.742 66.4215 190.957 66.7103 190.084 66.3457C189.218 65.9719 184.701 64.1554 181.53 62.973C180.231 62.4828 179.26 62.1765 179.12 62.1444C178.999 62.1197 180.211 62.877 178.427 62.3684C178.117 62.3359 178.415 61.7557 173.117 60.7798C166.787 59.8652 177.376 62.1404 174.662 62.0744C170.787 60.6023 170.818 61.357 169.753 61.1454C169.396 61.0842 166.658 60.2328 163.697 60.3919C165.81 60.2275 167.975 60.2452 170.174 60.4407C168.028 60.0206 163.894 60.0601 162.195 60.1477C161.35 60.1763 162.007 59.6638 160.183 59.8984C159.801 59.9971 158.408 61.058 163.083 60.2004C163.477 60.54 161.213 60.443 160.201 60.7091C160.042 60.7507 159.535 61.4251 158.192 61.2995C158.026 61.2834 158.703 60.6721 158.364 60.4337C158.051 60.2369 156.542 60.1675 152.514 62.3321C152.256 62.4739 153.286 62.3271 153.035 62.471C152.936 62.5252 152.243 62.7624 151.565 63.0286C150.977 63.2585 150.398 63.5001 150.28 63.5679C150.016 63.719 151.302 63.4294 150.99 63.6171C149.403 64.5731 146.664 64.7613 150.308 63.2039C149.071 63.6113 147.79 64.0713 146.498 64.5587C148.14 64.5846 144.644 65.6704 142.908 66.5974C131.839 72.6158 139.526 69.0917 137.731 70.3233C134.869 72.3631 136.574 69.9495 132.256 72.8535C131.913 73.1337 137.359 70.4232 126.983 76.335C128.413 75.4107 129.93 74.4748 131.472 73.5473C130.418 73.4695 127.275 75.857 126.224 76.745C126.031 76.9087 125.894 77.0251 125.846 77.0588C122.545 79.4736 124.599 77.5387 119.913 81.7508C119.501 82.1369 118.45 82.8036 117.619 83.6807C114.166 87.281 122.701 79.4673 123.238 79.693C123.308 79.5098 114.01 87.7024 113.945 88.0877C112.485 89.1486 117.687 84.0709 116.482 84.8025C116.245 84.9124 111.734 89.2702 109.134 93.3643C108.629 93.9034 107.707 97.5304 107.446 98.9892C107.145 100.367 106.797 101.686 106.485 102.812C106.066 103.931 105.854 104.754 106.552 104.802C105.409 105.745 106.089 106.817 106.065 107.333C105.869 113.836 105.95 114.034 106.398 120.063C106.512 121.406 106.283 122.582 106.376 123.053C106.432 123.33 106.731 122.785 106.952 124.139C107.129 125.249 107.458 129.726 107.78 133.321C107.673 132.944 107.705 133.408 107.8 133.775C107.891 134.166 108.007 134.543 108.012 134.653C108.036 134.94 107.684 134.213 107.492 133.755C107.287 133.26 107.259 133.265 107.109 133.329C107.206 134.187 108.967 137.611 110.918 140.493C111.758 141.755 111.14 141.234 111.515 141.783C111.622 142.022 115.088 146.247 115.041 146.003C114.944 145.742 112.171 142.261 110.361 139.311C108.489 136.319 107.769 134.343 108.627 135.726C108.94 136.244 109.864 138.8 110.182 138.122C113.278 143.283 117.755 148.784 122.418 153.556C128.209 159.431 133.62 163.049 141.371 165.52C133.821 163.671 128.007 159.671 122.19 153.784C121.66 153.251 121.133 152.711 120.612 152.17C119.717 151.277 116.926 148.028 117.043 148.616C118.53 150.376 120.214 152.208 121.99 153.983C126.093 158.122 130.629 161.357 134.639 163.406C134.822 163.501 134.017 163.423 134.697 163.799C135.908 164.553 140.74 165.825 141.715 166.204C141.823 166.278 138.835 165.673 139.631 166.184C141.703 167.51 142.713 166.407 145.008 167.12C145.434 167.254 146.428 167.586 147.908 168.123C147.598 168.182 150.4 168.795 152.642 168.961C154.987 169.175 157.313 169.201 158.382 169.053C161.284 168.708 150.29 168.572 151.307 168.151C156.178 168.32 161.932 168.37 167.413 168.191C169.197 168.137 170.943 167.97 172.63 167.676C172.734 167.656 171.782 167.539 173.099 167.273C175.382 166.775 176.057 166.972 177.194 166.733C178.422 166.525 182.581 164.933 183.189 164.772C183.27 164.759 182.576 165.476 182.445 165.538C180.664 166.427 179.834 166.144 179.67 166.2C179.034 166.395 178.478 166.773 177.889 166.934C176.933 167.19 176.36 167.164 175.091 167.439C174.214 167.62 175.136 167.774 174.278 167.938C173.957 168.03 170.484 167.779 170.246 168.578C170.214 168.68 176.121 168.354 182.504 165.793C189.039 163.34 195.298 158.699 200.011 155.748C200.44 155.482 200.742 155.271 200.909 155.143C200.599 155.325 200.284 155.501 199.965 155.671C196.903 157.441 195.031 158.714 192.976 159.923C195.013 158.743 196.988 157.249 199.852 155.48C201.933 154.2 203.266 153.003 203.799 153.293C205.691 151.671 207.178 149.864 208.254 147.9C210.314 144.193 211.595 138.472 212.263 132.286C213.022 126.238 213.537 123.212 213.431 118.779C213.415 118.739 213.528 119.044 213.444 118.84C213.361 118.659 212.929 118.049 212.095 117.263C210.426 115.65 207.46 113.599 204.107 111.081C203.247 110.411 202.698 109.92 202.301 109.528C201.477 108.679 201.864 108.368 198.248 106.269C199.368 107.167 200.406 108.095 201.366 109.057C200.162 107.99 196.244 105.319 191.691 103.227C192.3 103.476 192.057 103.332 191.775 103.283C191.469 103.214 191.03 103.148 190.607 103.104C189.752 103.015 188.953 103.003 188.58 103.02C188.319 103.051 188.053 103.505 184.977 103.73C182.224 103.987 181.705 103.683 180.194 103.828C179.186 103.936 178.109 104.208 177.529 104.349C177.385 104.383 177.275 104.409 177.204 104.42C176.943 104.461 176.776 104.236 176.15 104.348C174.208 104.739 175.939 104.97 173.867 104.768C174.297 104.59 174.732 104.423 175.187 104.261C172.878 104.772 169.844 105.746 172.969 104.273C173.521 104.041 173.118 104.444 173.539 104.296C174.927 103.815 176.182 103.493 177.292 103.244C186.077 101.701 182.441 102.009 177.236 102.983C174.942 103.46 172.661 104.27 171.084 105.12C170.115 105.259 167.651 106.739 163.167 109.049C163.228 109.021 163.164 109.055 163.026 109.203C162.893 109.342 162.745 109.535 162.717 109.547C162.618 109.592 162.617 109.429 162.548 109.329C162.474 109.243 162.357 109.137 161.915 109.574C161.847 109.578 160.717 111.551 159.954 114.185C159.266 116.458 159.12 118.045 159.132 116.176C159.15 115.89 159.289 115.104 159.6 114.078C160.216 111.911 161.303 109.839 161.604 109.427C160.835 109.985 159.968 111.816 159.444 114.032C158.775 116.737 159.176 118.873 159.176 119.232C159.091 121.982 158.535 113.865 158.481 120.167C159.298 124.792 158.897 120.383 159.507 122.049C159.685 122.5 160.053 123.964 160.871 125.386C161.645 126.785 162.861 128.22 163.084 127.919C163.939 128.944 164.165 129.334 164.066 129.359C163.983 129.401 163.672 129.179 163.784 129.341C163.89 129.51 164.361 129.949 165.644 131.721C166.196 132.497 167.198 133.346 167.753 133.847C167.852 133.943 167.282 133.996 167.376 134.104C167.468 134.208 168.211 134.746 169.229 135.28C170.221 135.81 171.488 136.355 171.593 136.387C171.714 136.421 170.754 135.602 171.239 135.741C171.485 135.815 172.492 136.268 173.791 136.842L173.322 136.647C172.772 136.446 172.862 136.505 172.967 136.517C173.091 136.54 173.315 136.574 173.531 136.598C173.967 136.649 174.376 136.672 174.44 136.651C174.547 136.618 174.138 136.564 173.649 136.484C173.412 136.445 173.156 136.397 173.016 136.359C172.895 136.333 172.814 136.26 173.396 136.456L173.875 136.655C172.729 136.096 172.018 135.69 172.483 135.731C172.911 135.941 173.411 136.171 173.978 136.424L173.487 136.219C172.933 136.015 172.96 136.053 173.042 136.056C173.14 136.069 173.36 136.096 173.619 136.117C174.144 136.16 174.825 136.185 175.493 136.185C176.847 136.187 178.182 136.099 178.999 135.986C178.508 136.075 175.691 135.994 174.885 135.879C175.174 135.427 181.269 135.562 179.179 135.951C180.531 135.733 179.606 135.602 180.371 135.388C180.566 135.336 182.508 135.315 182.888 135.211C182.935 135.195 180.926 135.006 181.328 134.891C181.606 134.813 182.65 134.767 183.876 134.723L183.482 134.738C184.285 134.68 184.805 134.624 185.26 134.553C185.728 134.481 186.71 134.302 186.898 134.288C187.369 134.241 187.313 134.291 186.956 134.397C186.604 134.501 185.968 134.671 185.578 134.79C185.18 134.91 184.953 134.991 184.67 135.075C184.398 135.157 184.128 135.231 184.061 135.294C184.054 135.312 184.753 135.386 185.297 135.418C185.798 135.461 187.396 135.272 187.419 135.296C187.654 135.464 185.979 135.817 185.436 135.934C184.867 136.058 184.167 136.124 184.36 136.303C185.225 136.307 185.469 136.34 187.004 136.13C185.314 136.566 185.096 136.683 183.595 136.817L183.919 136.805C179.761 137.023 175.342 136.838 174.197 137.007C177.311 137.229 181.343 137.167 183.929 137.295L183.621 137.307C185.236 137.353 185.824 137.449 185.983 137.861C186.003 138.071 185.553 138.323 185.089 138.502C184.617 138.685 184.037 138.808 184.087 138.859C184.289 139.037 185.157 138.971 185.857 138.798C186.534 138.631 187.9 138.259 187.98 138.263C188.133 138.26 188.208 138.271 188.212 138.293C188.212 138.293 188.212 138.293 188.212 138.293C188.26 138.368 186.989 138.685 186.159 138.911C185.384 139.125 184.477 139.262 183.732 139.351L183.971 139.342C183.537 139.377 183.246 139.406 183.185 139.428C182.956 139.519 183.426 139.732 183.984 139.942L183.764 139.95C184.303 140.161 184.879 140.352 184.884 140.436C184.859 140.451 184.385 140.528 183.8 140.609L183.997 140.602C182.896 140.711 181.619 140.857 182.482 141.029C182.867 141.105 183.41 141.155 184.009 141.186L183.832 141.193C185.302 141.247 186.675 141.005 186.837 140.993C187.146 141.04 185.521 141.484 183.856 141.632L184.018 141.626C182.876 141.704 181.9 141.759 181.826 141.799C181.766 141.832 183.021 141.956 184.027 142.053L183.879 142.058C184.459 142.102 184.918 142.13 184.954 142.162C184.99 142.202 184.535 142.311 183.899 142.434L184.035 142.429C183.246 142.547 182.259 142.689 181.716 142.847C180.961 143.069 183.168 143.216 182.783 143.252C182.494 143.31 176.545 143.251 176.28 143.232C175.849 143.27 177.209 143.585 177.01 143.64C176.716 143.73 174.837 143.536 175.075 143.642C175.197 143.802 182.694 144.794 182.668 144.984C182.587 145.421 174.555 144.437 182.033 146.064C182.086 146.077 183.912 145.937 183.963 145.943C184.047 145.963 184.093 145.984 184.109 146.007L184.093 146.008C184.102 146.02 184.103 146.033 184.095 146.047L184.11 146.046C183.962 146.292 181.179 146.62 184.121 146.612C184.676 146.588 185.426 146.546 186.423 146.405C185.562 146.552 184.799 146.636 184.13 146.703C174.49 147.21 184.635 147.279 182.792 147.924C182.032 148.223 176.77 148.271 176.735 148.279C177.24 148.635 178.93 148.413 179.498 148.579C179.822 148.696 175.059 148.909 176.115 149.165C176.679 149.341 181.722 149.352 181.92 149.352C183.907 149.549 181.475 149.807 181.911 149.956C182.091 150.018 183.27 150.034 184.192 150.03L184.31 150.026C184.947 150.003 185.483 149.962 185.518 149.967C185.57 149.976 185.041 150.085 184.32 150.203L184.196 150.208C182.946 150.382 181.022 150.602 180.46 150.692C179.801 150.806 182.273 150.979 181.813 151.028C179.065 151.373 173.054 150.394 178.812 151.612C179.164 151.687 181.331 151.668 181.39 151.677C182.728 151.973 178.75 152.005 178.01 152.216C176.758 152.619 182.575 152.473 177.734 152.691C180.284 152.941 182.009 152.977 184.252 152.922L184.467 152.914C185.507 152.851 186.797 152.741 188.316 152.458C186.902 152.724 185.559 152.862 184.469 152.958L184.252 152.966C175.393 153.348 173.064 154.168 184.277 154.152L184.533 154.142C184.706 154.133 184.879 154.122 185.057 154.11C184.873 154.122 184.701 154.132 184.533 154.142L184.277 154.152C180.667 154.242 181.026 154.782 179.832 154.793C179.105 154.842 172.814 153.953 175.658 155.455C176.04 155.663 179.812 155.523 178.627 155.849C169.379 155.418 178.482 156.112 178.441 156.115C178.405 156.291 177.321 156.391 175.5 156.366C174.582 156.351 173.493 156.307 172.166 156.182C171.497 156.118 170.776 156.036 169.911 155.892C168.997 155.72 168.154 155.63 166.268 154.938L165.779 154.734C163.199 153.565 159.374 151.838 156.116 149.346C152.822 146.898 150.555 143.896 149.662 142.586C149.661 142.587 149.66 142.585 149.657 142.583C149.239 142.074 147.291 140.045 146.109 138.68C144.835 137.222 143.889 135.957 143.585 135.435C141.613 131.855 143.527 134.686 143.194 133.826C143.036 133.407 141.443 130.657 140.437 127.523C139.381 124.418 139.03 121.152 139.036 120.857C139.066 118.489 139.548 120.86 139.561 120.615C139.526 119.004 139.645 113.3 141.152 108.529C142.143 104.965 143.888 101.154 145.102 99.3594C144.506 99.408 140.96 107.304 142.803 102.205C145.423 96.0169 147.506 96.2018 147.471 96.1247C149.187 94.1091 151.525 92.1143 154.353 90.7596C157.791 88.8648 166.147 84.1937 172.959 83.0575C177.072 82.1789 181.173 81.6379 185.445 81.4633C189.962 81.5069 193.348 80.7907 200.782 83.6244C205.627 85.8376 211.026 88.7379 215.779 92.5359C216.402 93.0292 217.07 93.5355 217.777 94.0586C217.824 93.8855 216.993 93.1775 215.957 92.312C212.17 89.0039 204.818 85.3255 204.661 85.2434C203.739 84.5715 210.091 87.2644 216.148 92.0715C219.721 94.7999 225.306 98.838 226.532 100.228C224.533 98.2855 222.645 96.745 220.938 95.3353C222.642 96.2009 225.264 98.0336 228.384 101.186C231.464 104.188 235.045 109.701 235.938 114.988C236.569 118.31 235.738 111.844 235.602 111.993C236.458 114.071 236.784 117.127 236.673 118.319C236.626 118.718 236.544 118.802 236.433 118.323C236.397 118.073 236.354 117.734 236.291 117.296C236.327 117.653 236.353 117.996 236.371 118.325C236.667 123.024 236.326 122.513 236.008 126.547C235.982 126.76 236.436 125.002 236.216 128.303C236.156 129.331 235.66 132.829 235.519 134.783C235.399 136.263 235.289 137.507 235.322 137.893C235.354 138.228 236.229 136.169 236.294 134.866C236.306 134.527 236.236 134.243 236.018 134.119C236.667 130.75 236.712 129.703 236.548 129.73C236.397 129.676 236.118 130.293 236.327 128.613C236.301 128.078 237.067 129.423 237.085 120.439C238.204 122.109 236.399 132.66 236.321 133.453C236.271 134.751 236.673 132.981 237.175 129.554C237.704 126.089 237.79 121.401 237.412 120.1C237.909 121.005 237.765 120.078 237.606 118.3C237.53 117.039 237.356 115.517 237.01 113.847C235.295 107.652 236.194 110.246 234.807 107.221C232.6 103.401 231.677 102.92 231.052 102.217C230.402 101.6 229.882 100.972 228.099 99.0287C229.524 101.338 227.768 99.6147 225.533 97.5868C223.272 95.5327 220.765 93.2955 219.796 92.3426C223.402 95.0867 228.411 97.6102 233.672 104.704C233.445 104.244 233.216 103.805 232.978 103.372C234.325 105.151 235.638 107.308 236.608 109.804C236.386 109.432 236.156 109.071 235.92 108.721C237.744 112.39 238.235 115.875 238.279 118.287C238.334 121.46 238.003 122.551 237.991 122.993C237.845 127.247 237.048 131.979 236.723 134.912C236.294 138.858 235.67 142.973 234.687 146.971C234.215 148.235 235.614 147.361 231.532 156.642C230.102 159.429 230.962 156.951 229.666 159.479C229.577 159.643 229.478 159.827 229.367 160.033C227.715 164.734 226.936 164.15 226.116 165.301C223.593 168.544 221.905 170.329 221.65 170.603C219.354 172.838 216.11 175.339 212.8 177.287C212.014 177.753 210.682 178.651 209.512 179.445C209.455 179.487 211.343 178.587 209.127 179.956C208.405 180.362 200.299 184.49 192.595 188.104C194.655 187.33 196.667 186.469 198.621 185.545C196.648 187.13 179.241 193.171 183.577 192.047C186.393 191.601 192.395 188.464 193.339 188.843C190.34 190.116 179.119 194.196 168.641 194.506C161.215 194.919 154.255 194.741 153.111 194.583C152.776 194.545 154.861 194.372 154.396 194.321C154.096 194.342 146.735 193.915 145.449 193.521C144.833 193.392 148.427 193.688 148.114 193.543C147.837 193.413 144.868 193.352 140.085 191.944C138.854 191.564 137.555 191.242 137.354 191.31C138.064 191.474 139.185 191.799 140.035 192.096C141.94 192.719 143.049 192.929 143.6 193.096C144.101 193.238 144.035 193.315 142.624 193.103C142.297 193.047 141.296 192.787 139.966 192.306C139.565 192.134 139.137 191.965 138.955 191.928C137.425 191.624 138.386 191.987 139.897 192.517C145.722 194.34 150.634 194.267 152.119 194.42C148.923 194.277 146.171 194.507 139.835 192.705C134.686 191.152 125.031 188.104 118.559 184.243C114.734 181.716 124.69 187.219 120.27 184.501C111.391 178.558 117.625 183.355 117.315 183.225C114.738 182.127 108.737 175.511 108.129 176.297C105.803 174.032 106.257 174.285 103.887 172.051C103.564 171.741 103.184 171.376 102.74 170.945C103.065 171.368 103.396 171.793 103.726 172.212C103.804 172.309 103.882 172.406 103.96 172.503C103.865 172.427 103.769 172.349 103.671 172.267C99.1994 168.74 93.4222 159.127 94.0973 159.686C95.7531 161.372 99.2373 166.224 99.6123 166.581C100.041 167.017 101.483 167.658 104.701 171.239C105.544 172.163 106.495 173.246 107.649 174.555C109.212 175.457 106.773 173.157 104.858 171.082C102.947 169.018 101.395 167.26 104.192 169.809C100.285 166.56 88.1259 149.876 86.6627 146.092C86.4704 145.631 86.5317 148.168 84.4274 141.846C83.9786 140.206 84.3849 141.373 84.9054 142.624C85.4245 143.874 86.0649 145.145 85.8625 144.493C85.6853 143.627 84.4648 141.717 83.662 136.285C82.903 127.819 80.8069 113.311 82.5603 99.026C83.2745 93.0871 85.1043 85.7611 86.9136 82.6076C87.2852 81.8871 87.3472 82.2586 87.7346 81.5548C87.9539 81.1646 88.2791 80.5823 88.7263 79.8721C90.2061 77.3986 93.1925 73.3311 95.0667 71.4523C90.2409 76.2114 98.9631 66.3658 101.571 64.4555C105.351 61.2545 105.413 61.828 107.136 60.569C108.903 59.3167 110.91 57.856 113.148 56.3777C118.996 52.5334 125.289 48.6809 129.485 47.2117C128.839 46.606 137.378 43.3259 142.577 41.3914C142.953 41.2478 143.344 41.0971 143.681 40.9646C147.655 39.3362 153.772 37.285 147.914 38.4931C155.239 36.2782 163.35 35.4569 170.346 36.0157C171.494 36.1089 169.885 36.2195 171.855 36.3899C172.041 36.4095 172.294 36.159 173.99 36.3599C187.65 38.6783 180.833 38.1339 183.315 38.8116C184.648 39.2801 185.646 39.6447 186.354 39.8907C178.915 37.3508 169.544 36.5253 167.029 36.5644C169.219 36.7344 184.719 38.8035 188.698 40.9128C188.841 40.9702 188.23 41.0842 188.376 41.1393C188.379 41.1404 188.382 41.1416 188.386 41.1427C188.619 41.2305 189.045 41.3847 189.596 41.5892C192.319 42.5742 198.619 44.9454 197.167 44.0265C196.774 43.7729 193.68 42.5199 189.789 41.0781C189.031 40.7961 188.262 40.523 187.46 40.2531C188.967 40.7031 187.977 39.9851 188.243 40.0621C188.723 40.2035 189.303 40.3975 189.955 40.6372C193.206 41.8156 198.481 44.1692 200.619 45.1455C201.19 45.4004 201.238 45.1765 201.332 45.2164C203.613 46.2709 202.399 46.4301 205.039 46.915C208.859 49.5316 197.19 43.5325 197.859 44.4889C198.027 44.7255 201.547 46.166 206.031 48.321C209.204 49.85 216.602 52.5115 221.218 57.2528C223.291 59.2259 224.751 60.5181 224.859 60.3844C224.876 60.4985 225.075 60.8218 225.535 61.4304C226.553 62.7649 231.884 68.1845 232.876 69.0919C233.046 69.2384 233.432 68.7521 233.626 68.9503C233.821 69.1496 234.924 70.4279 236.325 72.0471C238.465 74.4992 241.257 77.8423 242.826 79.4276C241.616 77.821 240.403 76.2786 239.163 74.7514C246.947 83.7873 245.819 82.5357 243.432 79.1726C243.305 79.0156 243.198 78.8482 243.075 78.6962C241.189 76.1887 238.673 73.2009 238.664 73.1219C238.754 72.4276 251.837 88.9476 248.834 86.2179C248.47 85.6143 242.701 77.7895 245.336 81.8288C245.815 82.4684 249.652 87.6529 249.793 88.0837C250.879 89.9258 242.364 78.942 243.015 80.699C245.36 82.9603 247.762 86.452 250.006 89.9857C251.028 91.6105 251.522 91.9408 251.65 92.1582C253.46 95.5842 252.19 93.7893 252.761 94.9967C252.802 95.0905 252.922 95.3308 253.08 95.6589C253.971 97.447 255.651 101.185 254.58 100.559C257.666 108.414 258.413 108.704 257.816 107.386C257.128 105.83 255.848 101.89 253.412 95.5237C253.091 94.7447 252.759 94.0205 252.422 93.3351C252.765 93.931 253.135 94.6392 253.512 95.4827C255.49 99.9913 256.812 104.627 257.815 106.611C258.213 107.443 258.275 106.835 258.974 108.177C259.059 108.337 259.158 108.528 259.275 108.753C260.466 111.093 263.436 116.971 265.072 123.785C266.825 130.552 266.63 137.865 266.228 140.843C266.406 136.883 266.008 138.042 265.773 141.051C265.443 144.06 266.201 141.594 266.18 142.186C266.175 142.286 266.125 142.712 266.022 143.378C265.646 146.389 263.611 155.028 263.133 156.668C265.142 147.78 264.381 149.738 262.429 157.177C262.63 156.077 262.814 154.977 262.982 153.875C262.303 157.256 260.177 163.277 258.69 166.918C258.306 167.879 258.009 168.692 257.861 169.208C257.763 169.551 258.471 168.448 258.416 168.641C257.857 170.497 255.243 177.066 255.214 177.428C255.199 177.72 256.438 174.938 256.176 176.039C256.12 176.268 254.787 178.894 253.867 181.698C253.525 182.738 254.007 182.213 253.927 182.478C253.244 184.693 253.319 183.239 251.847 187.263C250.728 190.226 250.294 192.596 248.123 196.777C254.304 184.111 250.384 193.306 247.245 199.554C247.005 200.017 246.774 200.445 246.563 200.829C245.985 201.783 246.949 201.526 243.159 206.564C249.947 194.723 240.73 209.691 238.426 211.915C238.305 212.054 238.018 211.903 236.946 213.156C236.855 213.261 237.159 213.257 236.163 214.424C226.362 225.171 232.506 218.185 230.458 220.034C230.028 220.399 228.714 221.758 227.243 223.183C225.947 224.46 224.458 226.008 223.81 226.628C223.522 226.903 223.506 226.603 222.386 227.679C220.402 229.589 218.644 231.544 217.153 232.868C216.955 233.021 216.82 232.754 213.833 235.325C212.975 236.048 212.015 236.93 213.372 236.024C217.952 233.001 223.914 226.209 227.468 223.429C227.474 223.424 227.48 223.419 227.487 223.414C228.648 222.468 228.47 222.724 227.608 223.582C226.017 225.181 220.462 230.542 219.961 230.96C219.746 231.161 221.851 228.97 219.56 231.037C217.591 232.792 214.254 236.656 210.056 239.236C209.801 239.449 205.97 241.052 206.08 240.907C206.396 240.843 211.411 237.537 210.541 237.871C210.501 237.918 207.295 239.958 206.714 240.093C206.082 240.294 203.895 239.865 203.061 240.169C200.85 240.967 202.396 240.701 200.895 241.207C200.617 241.294 200.277 241.394 199.883 241.497C198.328 241.86 191.128 243.983 191.062 244.368C192.401 244.013 193.739 243.625 195.026 243.23C187.757 245.555 190.871 244.735 189.865 245.142C188.757 245.535 188.966 245.071 186.444 245.64C185.886 245.884 175.504 247.862 175.73 247.919C181.415 246.746 179.381 247.557 179.644 247.536C180.665 247.391 181.879 246.874 183.257 246.597C192.867 244.477 183.281 247.135 185.572 246.73C186.37 246.594 187.858 245.979 188.212 245.9C189.289 245.667 189.417 245.964 190.118 245.747C191.807 245.216 189.688 245.332 189.83 245.266C191.293 244.62 197.117 243.106 193.701 244.722C195.897 244.212 195.974 243.536 197.588 243.244C200.608 242.724 196.318 244.062 194.821 244.628C189.932 246.449 188.231 246.735 181.123 248.205C178.565 248.713 175.607 249.448 174.427 249.625C173.679 249.774 166.635 249.561 166.604 251.141C164.476 251.232 161.369 250.816 158.809 250.733C158.071 250.715 157.363 250.716 156.735 250.757C154.074 250.914 154.937 251.431 154.689 251.465C154.302 251.523 151.075 251.513 149.99 251.56C148.724 251.627 149.347 251.866 147.331 251.881C142.326 251.857 142.528 251.215 142.021 251.152C136.227 250.173 138.713 251.209 137.405 251.141C136.165 251.228 121.002 248.362 116.957 247.414C116.795 247.383 116.649 247.356 116.521 247.334C116.668 247.356 116.814 247.378 116.96 247.4C118.213 247.584 119.456 247.757 120.701 247.918C119.42 247.445 118.043 247.218 117.052 247.003C116.211 246.82 115.659 246.649 115.708 246.357C114.96 247.263 110.076 245.301 108.581 244.893C107.986 244.739 107.985 244.923 107.242 244.72C104.333 243.956 97.9314 241.758 96.3671 241.29C89.544 239.396 106.475 245.751 107.907 245.998C105.122 245.372 89.7376 240.407 96.6177 243.268C97.6847 243.713 99.7668 243.901 100.386 244.077C104.586 245.268 101.187 244.642 101.501 244.782C102.038 245.022 104.907 245.468 105.622 245.721C105.863 245.802 104.181 245.729 108.198 246.87C106.091 246.755 94.9955 242.919 93.5355 242.405C93.0151 242.215 95.9673 244.257 86.7781 239.927C86.8607 240.037 86.9435 240.148 87.0266 240.259C86.4826 240.048 85.9378 239.834 85.3955 239.618C80.6485 237.726 76.0636 235.654 71.6451 233.54C72.2509 233.649 75.1646 234.677 71.6522 233.063C69.6474 232.132 70.9527 233.183 70.7668 233.105C70.2 232.877 66.3551 230.957 61.8857 228.768C52.7057 224.585 39.269 216.075 33.5991 210.759C32.9285 210.177 32.307 209.658 31.848 209.277C30.3196 208.06 24.6938 203.588 24.2567 203.089C21.5891 201.116 13.4484 190.508 12.4447 187.97C11.6195 186.525 12.0982 188.06 11.4113 186.745C10.7867 185.51 11.7132 186.645 11.5356 186.274C11.0276 185.214 9.23426 181.729 7.7439 177.266C5.44341 170.738 2.58176 160.734 2.17905 157.133C2.54598 160.703 7.50126 175.072 7.64808 174.562C7.65329 174.497 6.79156 171.018 6.46911 170.318C6.35359 169.076 4.37729 165.137 3.94219 162.701C3.90258 162.418 4.55265 163.411 3.65022 159.091C3.35065 157.608 2.17376 153.668 2.12083 149.387C1.9034 147.792 1.57861 144.338 1.68679 140.051C1.88643 130.099 2.89023 114.809 2.69307 113.334C2.66743 113.28 2.25581 117.183 2.22705 114.525C2.20592 110.977 2.85404 114.215 3.23906 110.091C3.2563 109.917 3.33064 108.895 3.44701 107.487C3.72473 104.051 4.22557 98.1803 4.21903 97.9055C4.05853 94.4646 2.9121 104.219 2.88164 104.06C2.75838 103.724 3.45014 95.5991 3.53597 95.2472C3.60266 94.9418 3.56334 101.682 4.15288 93.6223C3.97442 94.5409 3.80037 95.4513 3.62848 96.3662C3.86825 92.5651 4.37391 92.2417 4.50554 91.3161C4.93605 88.4444 4.6158 85.1942 6.29733 80.4483C6.74874 79.1943 6.61385 81.3887 6.67922 81.2253C7.24119 79.7425 6.80547 77.5977 7.94861 75.3064C8.0876 75.1174 6.94133 80.8891 9.49555 70.9604C9.23587 71.6424 8.98918 72.3217 8.75585 72.9882C8.89301 72.1325 9.91658 68.0467 11.438 64.4519C12.1846 62.6427 12.8888 61.0225 13.1034 60.5702C14.7112 57.2168 13.7237 60.3644 15.2911 56.8926C13.5697 58.9265 19.0738 48.1248 19.3227 49.0145C19.5554 47.116 26.0518 38.7398 29.2055 35.4366C29.3777 35.2416 29.5656 35.0266 29.7668 34.7956C31.5867 32.6994 34.4642 29.128 34.9989 28.5728C35.7087 27.8345 35.8171 28.3444 37.128 27.0168C37.5004 26.6404 40.9654 22.2944 44.5972 18.9602C45.3003 18.3127 47.1769 17.3216 46.1142 18.7462C44.2922 21.1833 40.0613 25.0277 40.4244 25.2571C40.8107 25.4941 45.7511 19.6205 47.2113 18.1315C53.9355 11.2605 50.5205 15.6667 50.792 15.5792C51.4771 15.3488 55.0994 11.5021 55.2871 11.3667C56.0197 10.8038 53.6304 13.7069 53.75 13.9007C53.9023 14.1349 57.7963 10.8072 57.0612 11.7115C55.9937 12.9939 52.4957 16.0946 52.3124 16.3276C49.9044 19.3158 53.9474 15.913 55.1802 15.0826C55.5517 14.8317 54.4711 16.2109 54.7412 15.9668C58.8862 12.2303 54.874 14.49 57.5214 11.8654C59.9111 9.52801 57.2117 12.9059 57.3288 12.826C57.4463 12.7311 60.2631 9.88471 60.83 9.5492C61.0281 9.38445 54.4913 17.3705 55.0939 17.3188C57.264 14.8881 59.4595 12.4712 61.7671 10.0693C62.274 10.2302 58.6895 13.351 58.3993 13.7419C57.7888 14.5178 59.8699 12.7178 59.8968 12.9137C59.9217 13.0235 57.9405 15.5704 60.0586 13.5898C60.6704 13.0248 61.6242 11.6978 63.6316 9.92503C64.0209 9.58198 64.4207 9.24878 64.8864 8.87926C64.4689 9.3081 64.1098 9.68296 63.7562 10.0535C56.7916 17.5965 62.622 12.0977 62.9879 11.9664C63.3648 11.8322 59.3871 16.3745 64.5235 11.1611C65.4098 11.6167 64.6054 11.4828 63.2583 13.0628C61.6318 15.0155 65.9074 11.0324 59.3321 17.5013C59.9896 17.4137 65.1574 12.0951 65.4927 11.8738C65.499 11.8688 65.5045 11.8646 65.5093 11.8613C65.5399 11.84 65.5434 11.8501 65.529 11.8815C65.4548 12.0506 64.8083 12.9085 65.2028 12.6069C65.4158 12.4432 65.613 12.2937 65.7958 12.1567C70.5114 8.64481 67.1554 11.3907 68.9074 10.4447C69.0604 10.3396 73.9957 6.09286 70.3992 9.49986C68.9827 10.8572 67.7559 12.0272 66.6717 13.0598C62.7803 16.8077 60.9235 18.6177 60.8613 20.1885C63.1037 18.1991 65.3597 15.8256 67.339 13.7479C69.7776 11.183 71.7817 8.98752 72.6033 8.2416C74.9004 6.1686 72.6898 8.49733 73.0218 8.30633C73.1391 8.22477 75.1176 6.46415 75.1672 6.46086C76.64 6.13741 71.5122 10.1443 67.4759 13.8891C65.8531 15.3684 64.3817 16.8095 63.5529 17.7373C64.4711 17.0093 65.3982 16.2832 66.321 15.5782C65.2129 16.6925 64.1186 17.823 63.0321 18.9627C68.4846 13.8054 63.2855 18.8368 62.6037 20.773C62.4496 21.2024 65.6104 17.4272 62.1158 21.844C65.0558 18.9279 64.26 19.9922 66.7049 17.1717C66.8497 17.4507 61.3053 23.7555 59.1843 26.3438C67.3463 18.1784 62.1646 21.8591 69.1712 15.6372C69.2903 15.5347 69.4119 15.4306 69.536 15.325C70.0159 14.604 69.5849 14.8999 68.9726 15.4324C68.2652 16.0427 67.3207 16.9971 67.4452 16.8207C67.733 16.4152 68.2292 15.9091 68.843 15.2987C70.049 14.1017 71.6944 12.4846 73.2501 10.3112C73.6386 9.77443 71.3056 11.2908 74.3423 8.59173C74.6851 8.28071 76.8678 6.89855 76.8648 6.9465C76.7802 7.3792 74.8032 8.94589 74.7985 9.11967C74.8036 9.25639 76.89 7.3624 76.9233 7.38896C77.2169 7.60398 75.221 9.02566 75.5695 8.87812C76.3192 8.5289 84.4374 2.70095 74.3554 11.024C82.3434 3.58453 75.0997 9.66867 72.0664 12.8076C71.2859 13.5958 71.2363 13.9374 70.1465 15.0873C69.9083 15.3398 69.6543 15.6001 69.3914 15.8642C68.1948 17.067 66.9092 18.2803 66.3239 18.9257C65.5765 19.7666 70.3889 15.5134 63.8455 22.0766C65.5618 20.6207 67.6808 18.4237 69.8242 16.3105C72.261 13.9068 74.7489 11.5162 76.66 10.1016C83.9739 4.81148 72.4697 14.8546 71.3785 16.26C71.0753 16.5772 72.3403 15.7668 72.1407 15.9833C72.0513 16.079 71.5269 16.5736 70.7771 17.293C68.81 19.1588 65.3309 22.7567 65.0158 23.3518C64.5804 24.1541 67.2745 20.9712 67.6529 20.9538C67.8899 20.8985 60.6701 28.9974 64.7787 24.8008C66.6394 22.8997 69.3019 19.7402 71.2985 17.8307C72.3778 16.793 73.2587 16.0745 73.7433 15.9599C73.0061 16.672 72.2951 17.3687 71.5579 18.0981C68.2018 21.4355 64.841 25.0871 61.5262 28.7443C63.9498 26.5295 66.3832 24.3408 68.8187 22.2343C64.2968 27.0266 60.1397 31.1265 56.1481 36.138C67.1215 25.3693 53.3252 40.2952 53.2683 40.5717C53.2681 40.6647 57.8479 36.6432 58.599 36.0169C55.2146 40.1449 44.447 52.4967 51.4751 45.9263C50.1772 47.0821 47.734 50.5812 47.7974 50.5655C48.4601 50.4127 54.3693 43.3818 53.6387 44.7408C52.7965 46.3062 50.7638 47.7501 49.0134 49.7875C48.6552 50.2048 48.2991 50.6241 47.9836 51.0016C41.5533 59.3719 44.5835 57.9563 39.0989 67.4397C39.2681 67.2602 39.437 67.0834 39.6062 66.9082C38.3748 69.3182 37.1792 71.9912 35.9368 74.8541C32.8675 81.8802 31.6639 93.9407 30.4849 105.316C30.5035 106.496 30.4782 108.066 30.4194 109.904C30.2035 116.664 29.9704 127.576 29.7543 133.55C29.7147 134.539 29.4737 138.117 29.3136 140.58C29.2349 141.569 29.2034 142.337 29.1867 142.487C29.1234 143.026 29.0433 141.247 28.985 140.574C28.9576 140.217 28.9186 140.107 28.8566 140.572C28.8444 140.647 28.8315 140.741 28.8182 140.855C28.5068 141.223 29.4278 151.317 29.8472 150.595C29.6427 149.41 29.0256 145.89 29.0922 145.318C29.0369 142.417 30.6942 156.888 34.9605 168.314C36.0509 171.665 37.3432 173.806 37.5895 174.118C37.3974 173.549 37.2223 172.975 37.064 172.395C37.7561 173.927 38.5621 175.373 39.5093 176.776ZM8.50592 69.4042C8.63953 68.2529 9.35646 66.122 10.2988 63.9682C10.7628 62.9106 11.2417 61.8408 11.5795 60.9701C12.6868 57.9747 14.1824 51.9208 14.2501 54.8555C12.7668 58.0332 11.5269 61.0861 10.3682 63.9977C9.62567 65.8357 9.01931 67.642 8.50592 69.4042ZM0.755695 138.456C1.0057 135.495 1.66959 137.632 1.38553 140.045C1.37533 140.147 1.36417 140.249 1.35202 140.351C1.3173 140.628 0.698689 142.416 0.679144 140.032C0.677279 139.655 0.699467 139.14 0.755695 138.456ZM2.75 105.934C2.7493 105.999 2.68236 106.711 2.61397 107.413C2.54596 108.111 2.48123 108.795 2.47168 108.839C2.23134 109.999 2.26822 108.74 2.39221 107.393C2.52198 105.985 2.74018 104.502 2.75 105.934ZM81.8414 237.493C78.5647 236.097 80.6373 237.772 82.8077 238.384C82.9439 238.422 82.0559 237.585 81.8414 237.493ZM79.53 236.46C77.2579 234.784 71.7979 233.571 75.7912 235.314C76.1749 235.487 79.6293 236.544 79.53 236.46ZM1.37557 127.497C1.59791 127.853 1.37345 131.022 1.27867 132.379C1.0616 132.336 1.34972 128.829 1.37557 127.497ZM32.4638 209.403C32.9889 209.638 23.8809 201.909 22.9747 201.072C24.6282 202.804 32.5332 209.69 32.4638 209.403ZM58.2154 226.295C57.9667 226.146 54.3425 224.287 54.3684 224.475C56.0282 225.634 59.3403 227.031 58.2154 226.295ZM112.044 247.872C112.27 247.872 109.605 246.172 116.339 248.516C117.333 248.856 113.639 248.257 113.992 248.376C114.728 248.633 115.32 248.809 115.8 248.929C112.546 248.255 109.224 247.391 108.922 247.242C107.497 246.546 111.941 247.876 112.044 247.872ZM142.942 252.446C143.647 252.35 148.18 252.683 149.233 252.753C149.414 252.768 148.613 253.21 150.694 253.206C152.366 253.185 149.875 252.733 153.124 252.79C156.432 252.803 152.023 253.214 152.309 253.222C152.693 253.283 157.818 252.902 157.677 253.149C157.568 253.387 152.042 253.429 150.702 253.415C148.97 253.442 151.061 253.821 148.178 253.674C146.371 253.565 147.4 253.021 147.02 252.977C146.693 252.977 140.468 252.864 142.951 252.448C142.948 252.448 142.945 252.447 142.942 252.446ZM116.68 249.109C116.643 249.103 116.606 249.097 116.568 249.091C116.346 249.054 116.094 249.002 115.8 248.929C116.057 248.983 116.314 249.035 116.569 249.086C116.606 249.094 116.643 249.101 116.68 249.109ZM6.33251 79.5293C5.83395 81.2427 6.54995 76.0284 7.32333 74.0005C7.47056 74.0414 6.3728 79.2811 6.33251 79.5293ZM119.752 249.315C124.492 250.46 120.934 249.959 116.68 249.109C118.053 249.312 118.161 248.916 119.752 249.315ZM6.46911 170.318C6.48746 170.527 6.46118 170.671 6.36002 170.72C6.31799 170.168 6.3669 170.103 6.46911 170.318ZM10.2104 181.864C12.3829 186.095 8.6385 177.233 8.58917 177.344C8.47282 177.408 10.0822 181.705 10.2104 181.864ZM86.0761 239.292C85.7955 239.151 90.071 239.998 85.7888 238.646C85.1947 238.454 84.4424 238.218 83.4963 237.921C87.479 239.7 83.1839 238.047 83.2137 238.15C83.2377 238.264 84.2287 238.712 85.5463 239.245C87.7061 240.126 90.7243 241.186 91.6421 241.591C92.9811 241.606 87.1437 239.867 86.0848 239.295C86.0819 239.294 86.079 239.293 86.0761 239.292ZM199.435 245.257C198.849 245.729 195.873 246.682 193.668 247.33C194.581 246.787 197.849 245.779 199.435 245.257ZM206.936 181.495C200.693 185.688 196.204 187.438 195.555 187.55C194.808 187.641 197.812 186.318 203.97 182.865C204.234 182.734 207.644 180.915 206.936 181.495ZM88.3948 153.39C87.9883 151.875 90.7162 156.023 92.4443 158.605C92.8254 159.197 94.0337 161.574 92.1466 159.247C92.654 158.983 90.1039 155.132 88.3948 153.39ZM122.514 249.586C123.967 249.569 128.231 250.607 130.551 251.014C129.091 251.061 124.486 250.107 122.514 249.586ZM157.61 194.2C156.063 194.147 154.979 194.525 155.251 194.569C156.481 194.769 159.371 194.45 157.61 194.2ZM108.779 246.251C108.632 246.032 114.283 247.323 114.575 247.857C113.367 247.543 108.882 246.415 108.779 246.251ZM195.828 246.32C194.93 246.529 199.477 244.791 200.192 244.679C200.191 244.785 199.472 245.074 198.421 245.461C197.392 245.841 196.129 246.256 195.828 246.32ZM131.222 189.55C129.836 189.063 126.237 187.609 125.769 187.56C125.187 187.585 130.524 189.643 131.222 189.55ZM138.696 128.799C138.561 129.172 136.228 121.446 136.738 117.969C137.061 114.752 136.871 117.352 137.144 120.872C137.366 124.41 138.659 128.684 138.696 128.799ZM172.449 193.479C177.357 193.3 171.909 193.57 172.169 193.937C175.473 193.754 183.544 192.034 177.924 192.755C176.828 192.89 173.982 193.366 172.449 193.479ZM168.035 193.65C167.597 193.809 164.542 194.347 167.19 194.216C167.654 194.192 168.212 194.096 168.617 193.989C169.261 193.835 169.53 193.664 168.601 193.649C168.45 193.644 168.262 193.645 168.035 193.65ZM154.544 87.8183C155.603 87.3751 154.483 88.0971 153.348 88.6752C149.205 90.552 145.132 94.785 143.218 97.9837C141.186 101.219 140.349 103.58 140.222 103.774C140.06 104.089 139.95 104.288 139.878 104.401C139.756 104.904 139.204 106.555 138.782 107.816C138.473 108.733 138.213 109.491 138.05 109.659C138.169 109.218 138.358 108.514 138.587 107.758C138.968 106.475 139.496 104.992 139.614 104.745C139.688 104.586 139.746 104.468 139.791 104.387C139.932 103.807 140.791 101.164 142.936 97.7408C144.947 94.3455 149.269 90.1202 153.226 88.4225C153.819 88.168 154.423 87.8647 154.544 87.8183ZM186.223 79.3077C181.241 80.0394 180.378 79.3545 180.775 79.2508C186.125 78.4161 182.661 79.3957 182.832 79.4047C183.193 79.4024 187.067 78.932 186.207 79.3081C186.213 79.308 186.218 79.3078 186.223 79.3077ZM159.995 85.0501C159.726 85.1606 156.112 87.0827 156.088 87.0975C154.808 87.641 156.147 86.804 157.959 85.8406C159.755 84.8861 161.801 84.0408 159.995 85.0501ZM166.925 251.223C169.521 251.045 167.015 251.656 165.277 251.693C165.141 251.692 164.613 251.369 166.925 251.223ZM165.952 193.825C165.441 193.955 149.477 193.516 150.225 193.85C151.942 194.222 169.79 194.206 165.952 193.825ZM80.4414 117.792C80.5836 120.542 79.9319 117.574 80.0565 116.079C80.1012 115.527 80.4057 117.098 80.4414 117.792ZM101.422 243.625C98.6233 243.013 99.4598 242.347 101.718 243.382C101.807 243.423 101.532 243.649 101.422 243.625ZM82.9629 141.578C82.3778 139.899 81.9688 138.192 81.7758 136.517C81.3788 132.67 81.9177 132.728 82.5571 136.421C83.1128 140.087 84.4698 143.68 86.2739 147.511C86.0043 147.138 85.7248 146.732 85.4585 146.337C93.442 160.687 85.7132 148.158 83.9625 143.404C83.2776 141.669 83.5755 143.255 82.9656 141.592C82.9647 141.587 82.9638 141.583 82.9629 141.578ZM80.548 102.559C81.7166 97.1123 81.3842 99.8227 81.0504 104.135C80.7379 108.42 80.7488 114.1 80.938 116.605C80.2705 111.771 80.3634 105.131 80.0026 114.029C79.8203 100.96 80.4488 106.262 80.4078 105.811C80.4657 105.183 80.4541 103.009 80.548 102.559ZM81.1515 127.316C81.2243 127.841 81.3793 131.73 81.5787 133.143C80.9678 131.225 80.631 123.9 81.1515 127.316ZM219.586 92.4517C219.23 92.5168 218.52 92.2744 216.992 91.0067C216.792 90.8419 216.583 90.6694 216.358 90.4851C216.559 90.6027 216.795 90.7501 217.058 90.9236C217.747 91.3305 218.781 91.9845 219.586 92.4517ZM11.1409 66.467C11.3441 65.9451 11.6067 65.3056 11.8953 64.6461C12.7234 62.7581 13.7274 60.5215 13.0891 61.3753C13.0347 61.4554 12.258 63.2561 11.7489 64.5839C11.3414 65.6175 11.0825 66.4413 11.1409 66.467ZM118.258 182.799C117.568 182.709 106.995 174.46 110.436 177.562C111.23 178.71 121.818 185.44 118.258 182.799ZM183.914 191.066C182.833 191.41 178.326 192.46 178.242 192.511C177.982 192.853 183.515 191.478 183.914 191.066ZM15.9919 56.1988C16.0723 55.9514 19.4309 49.6114 18.9708 50.2376C17.904 51.4199 15.4098 57.0962 15.9919 56.1988ZM176.352 249.363C176.914 249.267 177.682 249.466 177.874 249.439C178.304 249.474 188.59 247.238 184.739 248.454C184.026 248.875 169.366 250.954 167.553 250.945C166.761 250.604 172.979 250.327 174.49 250.042C174.76 249.994 174.881 249.615 176.348 249.365C176.349 249.364 176.351 249.364 176.352 249.363ZM204.735 83.2213C204.558 83.2337 203.189 82.6451 201.557 81.9528C197.257 80.151 194.503 80.0848 192.166 79.8142C189.913 79.6207 188.394 79.5875 188.446 79.469C192.159 79.6496 195.027 79.1722 201.639 81.7779C202.637 82.2283 203.677 82.7083 204.735 83.2213ZM210.602 86.488C212.976 88.1588 207.138 84.683 205.488 83.8455C205.541 83.6195 210.258 86.1845 210.602 86.488ZM159.669 192.714C158.47 192.788 162.164 193.169 161.341 193.251C160.82 193.312 158.114 193.166 157.241 193.274C156.999 193.315 159.766 193.715 160.563 193.686C161.685 193.653 160.593 193.367 161.821 193.349C164.206 193.311 166.405 193.307 168.583 193.265C170.351 193.223 172.082 193.113 173.866 192.892C174.253 192.845 171.222 192.997 174.525 192.597C175.026 192.525 178.151 192.453 182.024 191.44C190.181 188.312 196.619 186.566 205.227 180.783C204.933 180.946 198.008 184.677 197.515 184.82C190.877 188.33 178.245 192.335 168.548 192.508C166.964 192.58 165.474 192.633 164.127 192.668C161.931 192.72 163.003 192.899 162.052 192.925C161.305 192.939 162.191 192.557 159.669 192.714ZM10.8633 67.8378C11.2235 67.3525 11.6839 66.1921 12.2692 64.8049C12.784 63.5801 13.346 62.1139 13.8536 60.9927C13.433 61.3878 12.7348 63.0781 12.0706 64.7205C11.6085 65.8462 11.2009 66.966 10.8633 67.8378ZM235.249 139.114C235.112 140.327 234.286 144.171 234.304 144.527C234.408 144.959 235.515 139.385 235.249 139.114ZM228.991 222.334C229.074 222.255 231.189 220.229 231.265 220.156C233.358 218.547 227.001 224.616 228.991 222.334ZM261.573 163.203C262.231 161.09 262.74 158.919 263.238 158.286C262.829 159.635 261.706 163.523 261.573 163.203ZM237.929 72.4556C237.924 72.6514 237.478 72.2484 236.833 71.5782C235.598 70.2908 233.64 68.027 233.123 67.4502C233.433 67.5842 235.819 69.8974 237.092 71.3397C237.599 71.9106 237.926 72.3326 237.929 72.4556ZM219.162 93.7148C217.19 92.2425 216.848 92.3459 216.235 91.9619C215.896 91.7317 215.51 91.4179 214.914 90.8741C214.604 90.6043 214.209 88.9523 216.851 91.1846C217.028 91.3458 217.23 91.5414 217.462 91.7781C217.942 92.2418 215.657 90.9257 219.162 93.7148ZM87.391 149.595C88.1789 150.478 89.9156 153.445 91.1827 155.28C90.7215 155.008 88.2329 151.123 87.391 149.595ZM22.7566 45.136C24.1246 43.5956 29.5285 36.5142 27.9507 38.0745C27.6983 38.2348 23.4475 44.0151 22.7566 45.136ZM132.526 250.131C136.029 250.349 128.867 249.204 126.606 249.04C127.614 249.224 132.273 250.129 132.526 250.131ZM251.936 91.302C251.839 91.059 249.625 87.3681 249.526 87.2552C248.715 85.772 249.924 87.4064 251.012 89.2355C252.102 91.0545 253.046 93.1278 251.936 91.302ZM254.049 182.779C254.296 181.456 257.243 173.688 258.062 172.112C257.856 173.792 253.825 184.359 254.049 182.779ZM233.355 107.034C230.871 102.936 228.194 100.484 225.969 98.4477C226.273 98.5766 228.046 100.009 229.858 102.032C231.68 103.992 233.315 106.764 233.355 107.034ZM243.432 79.1726C243.305 79.0156 243.198 78.8482 243.075 78.6962C243.198 78.8588 243.317 79.0182 243.432 79.1726ZM213.706 174.771C212.641 175.417 212.17 175.75 211.999 175.938C211.926 176.083 212.063 176.134 212.109 176.124C212.113 176.122 212.117 176.12 212.121 176.119C214.018 175.15 216.41 173.051 213.706 174.771ZM12.5397 65.0484C12.5644 65.021 12.5902 64.989 12.6172 64.9526C13.2466 64.2024 14.4512 60.7678 15.4714 58.7658C14.9331 59.2654 13.2338 63.2861 12.5841 64.9386C12.5689 64.9761 12.5541 65.0127 12.5397 65.0484ZM82.8565 92.1095C83.57 89.9022 82.6652 95.4837 82.2807 98.9818C81.926 101.529 81.8074 103.605 81.6698 104.528C81.574 104.605 81.504 102.156 81.8901 98.9199C82.1392 96.2833 82.7454 92.3667 82.8565 92.1095ZM122.005 247.714C121.829 247.418 116.946 246.662 117.941 247.01C118.552 247.241 122.113 247.912 122.005 247.714ZM81.3697 110.844C81.4512 111.998 81.2594 114.633 81.0747 113.711C80.8334 112.524 81.3431 110.546 81.3697 110.844ZM140.379 190.467C140.212 190.346 134.136 188.806 136.544 189.817C138.211 190.517 138.535 190.213 138.914 190.328C139.019 190.361 139.714 190.608 140.434 190.881C142.926 191.727 144.788 191.999 145.407 192.077C145.703 192.105 145.647 192.063 145.026 191.897C144.342 191.69 143.371 191.553 140.546 190.542C140.491 190.518 140.436 190.493 140.379 190.467ZM134.139 43.722C131.965 44.9113 129.292 46.1673 127.055 47.3839C127.874 46.734 133.077 43.9788 134.139 43.722ZM141.166 250.593C140.479 250.619 124.156 248.098 133.38 249.83C133.893 249.995 142.989 251.132 141.166 250.593ZM219.162 93.7148C219.515 93.9772 219.925 94.2923 220.413 94.6803C219.919 94.3077 219.511 93.9875 219.162 93.7148ZM234.339 140.667C234.319 139.685 233.439 144.455 233.148 145.944C233.326 146.428 234.397 140.779 234.339 140.667ZM127.014 47.7143C125.776 48.5064 123.397 49.6858 121.83 50.5949C122.003 50.2758 126.362 47.8443 127.014 47.7143ZM229.393 64.76C227.497 62.6439 225.056 60.2208 224.863 60.3384C224.847 60.2723 224.778 60.1495 224.649 59.9641C224.519 59.7809 222.536 57.8842 221.619 56.8609C221.552 56.788 221.487 56.7186 221.426 56.6529C219.548 54.7432 220.055 55.0877 221.769 56.7148C225.545 60.3119 239.496 75.1356 226.921 62.7964C227.742 63.4463 228.567 64.1011 229.393 64.76ZM249.18 193.553C248.285 195.013 246.241 199.76 246.936 198.62C247.527 197.779 250.165 192.053 249.18 193.553ZM265.154 129.302C265.276 129.881 265.876 135.418 265.942 135.575C266.142 132.305 264.944 126.548 265.154 129.302ZM241.847 205.807C241.162 206.698 240.658 208.082 240.749 207.992C241.568 207.195 243.145 204.4 241.847 205.807ZM225.009 99.6141C226.274 100.633 231.243 105.349 232.379 107.093C232.501 107.411 232.935 108.191 233.582 109.808C233.58 109.803 233.578 109.798 233.576 109.793C233.703 110.194 235.379 113.541 235.445 118.343C235.696 123.407 234.499 131.799 234.194 134.641C233.818 138.189 233.737 139.398 234.433 134.666C234.594 133.486 234.897 131.811 235.308 128.921C235.418 128.013 235.075 129.279 235.447 125.503C235.468 125.252 235.69 125.139 235.746 124.361C235.811 123.517 235.957 120.928 235.913 118.334C235.964 113.356 233.508 108.454 232.654 107.333C232.674 107.293 232.612 107.111 232.431 106.759C230.734 103.013 223.878 98.509 225.009 99.6141ZM262.507 118.995C262.809 119.988 263.858 123.209 264.106 123.518C263.819 121.799 261.852 116.635 262.507 118.995ZM140.719 249.788C138.807 249.478 133.994 249.133 135.42 249.471C136.282 249.72 142.912 250.183 140.719 249.788ZM263.539 152.051C265.992 141.146 264.072 149.437 264.148 147.711C263.972 149.159 263.77 150.602 263.539 152.051ZM174.114 82.1552C175.651 81.9183 174.513 82.4927 172.904 82.8033C172.535 82.8756 172.158 82.9339 171.765 82.9734C171.318 83.0191 171.995 82.7226 172.833 82.4696C173.268 82.3361 173.744 82.2153 174.114 82.1552ZM162.437 153.791C161.525 152.981 165.044 154.682 165.607 155.12L166.116 155.332C166.782 155.629 166.898 155.73 166.057 155.486L165.539 155.27C165.442 155.252 165.304 155.217 165.114 155.159C165.045 155.144 162.575 153.889 162.437 153.791ZM149.177 93.9239C150.208 92.7076 151.045 91.7354 154.085 90.2043C154.375 90.0687 154.747 89.894 155.281 89.6267C154.636 89.9954 154.326 90.1745 154.132 90.3008C152.837 91.0145 153.156 90.9606 152.934 91.1312C152.766 91.3356 151.824 91.6446 149.177 93.9239ZM224.859 60.3844C224.856 60.3624 224.852 60.3447 224.863 60.3384C224.869 60.3611 224.867 60.3752 224.859 60.3844ZM235.278 214.154C234.157 215.04 231.479 217.898 232.48 217.239C232.581 217.188 235.062 214.727 235.278 214.154ZM232.379 107.093C232.265 106.817 232.373 106.923 232.654 107.333C232.634 107.372 232.539 107.278 232.379 107.093ZM247.564 195.964C247.737 196.17 250.254 190.723 250.278 190.512C251.223 187.279 248.721 193.651 247.564 195.964ZM103.606 241.832C103.317 241.766 104.98 242.827 106.159 242.953C107.068 243.053 104.68 242.081 103.606 241.832ZM141.285 107.464C141.18 107.787 141.074 108.126 140.969 108.474C140.34 110.477 139.854 112.906 139.573 113.393C139.756 112.297 140.332 109.818 140.841 108.436C141.056 107.834 141.234 107.432 141.285 107.464ZM159.629 151.957C157.321 151.13 151.697 147.088 149.164 142.925C149.17 142.931 149.153 142.901 149.121 142.854C149.162 142.81 149.258 142.867 149.283 142.844C150.659 145.315 157.711 151.359 159.629 151.957ZM220.911 96.2599C220.971 96.2924 224.78 99.363 224.431 98.7865C223.806 97.7541 219.941 95.3692 220.911 96.2599ZM112 244.507C114.007 244.845 109.631 243.144 107.469 242.951C106.348 242.868 111.653 244.467 112 244.507ZM226.443 222.615C225.803 223.284 226.108 223.105 226.725 222.616C227.883 221.689 229.924 219.756 230.217 219.22C229.361 220.056 227.439 221.677 226.591 222.468C226.535 222.521 226.486 222.57 226.443 222.615ZM264.908 138.442C264.617 140.736 264.337 142.191 264.209 143.104C263.95 144.85 264.419 144.201 264.797 143.193C265.012 142.56 265.183 141.824 265.202 141.327C265.236 141.063 264.956 138.191 264.908 138.442ZM37.5703 29.7608C38.2486 28.8358 35.122 31.7525 34.954 32.3335C34.8535 32.6905 37.1369 30.3502 37.5703 29.7608ZM186.354 39.8907C186.724 40.009 187.093 40.1298 187.46 40.2531C187.181 40.1712 186.82 40.0531 186.354 39.8907ZM206.591 237.933C213.271 235.023 211.792 234.615 212.336 234.303C213.326 233.559 215.66 232.004 217.222 230.522C215.463 232.266 213.592 234.031 211.459 235.77C213.842 234.525 225.977 223.469 225.822 223.396C225.992 222.874 222.563 226.231 222.415 226.346C222.241 226.467 221.186 226.49 220.825 226.794C220.479 227.229 209.747 236.82 206.591 237.933ZM261.6 157.11C262.057 155.768 262.425 155.451 262.524 154.794C262.556 154.573 262.307 154.47 262.422 153.714C262.165 154.849 261.892 155.98 261.6 157.11ZM195.812 243.262C194.431 243.465 198.869 241.942 199.94 241.697C200.75 241.478 201.282 241.299 201.354 241.284C202.046 241.119 201.382 241.481 200.007 241.936C199.194 242.25 196.717 243.141 195.812 243.262ZM245.943 198.646C245.931 198.667 245.898 198.723 245.85 198.807C245.202 200.113 242.206 204.518 242.352 204.542C243.007 203.769 245.007 200.854 245.999 198.887C246.524 197.856 246.676 197.448 245.943 198.646ZM262.624 152.794C263.161 150.748 264.177 146.876 263.688 147.252C263.688 147.255 263.687 147.258 263.687 147.261C263.377 149.11 263.024 150.954 262.624 152.794ZM118.952 245.319C118.349 245.069 117.892 244.894 117.567 244.783C116.703 244.485 116.798 244.654 117.517 245.001C118.087 245.273 119.011 245.645 120.185 245.98C121.228 245.912 119.524 245.557 118.952 245.319ZM107.432 241.87C106.442 241.539 96.1955 238.365 97.647 239.169C98.1557 239.495 104.135 241.09 104.405 241.174C104.809 241.33 102.808 241.127 105.991 242C105.843 241.825 107.764 242.007 107.432 241.87ZM116.018 244.213C112.51 242.849 111.479 243.493 114.202 244.194C115.269 244.464 116.521 244.406 116.018 244.213ZM130.946 247.317C129.62 247.023 126.107 246.275 123.639 246.072C126.856 246.75 130.13 247.36 133.43 247.868C133.837 247.756 132.103 247.583 130.936 247.315C130.939 247.316 130.942 247.316 130.946 247.317ZM186.067 154.253C184.319 154.253 185.385 154.123 187.099 153.878C187.962 153.753 188.994 153.551 189.587 153.431C190.191 153.31 190.515 153.259 190.578 153.264C190.888 153.318 190.493 153.482 189.571 153.723C188.622 153.984 186.83 154.257 186.067 154.253ZM58.6157 18.8374C59.2335 18.333 59.8304 18.1869 60.9064 16.8115C59.5143 17.9023 58.1324 19.0043 56.7568 20.1134C56.2437 21.4949 57.9387 19.3873 58.6157 18.8374ZM64.736 15.48C64.5754 15.6659 66.1298 15.3192 63.5 17.174C62.5209 17.8787 64.4607 15.526 66.773 13.1643C68.6542 11.2405 70.7515 9.31602 71.5669 8.81046C70.5268 9.91447 68.5507 11.7094 66.8985 13.2936C66.015 14.1386 65.2314 14.9242 64.736 15.48ZM82.1034 5.21672C82.2499 5.13922 79.0692 7.59851 78.6654 7.92126C76.5124 9.32772 81.3788 5.09761 82.1034 5.21672ZM71.7273 13.7131C73.1108 12.6118 70.8754 14.8514 69.5809 16.0596C69.3944 16.2321 69.225 16.3847 69.0906 16.4986C69.03 16.4918 69.2066 16.2658 69.4827 15.9584C70.1921 15.1713 71.5484 13.856 71.7273 13.7131ZM162.589 135.481C162.394 134.96 162.103 134.569 161.83 134.314C161.428 133.851 161.126 133.676 161.007 133.708C160.893 133.755 160.946 133.975 161.367 134.629C161.476 134.813 161.642 135.038 161.886 135.294C161.972 135.39 162.613 135.557 162.589 135.481ZM79.4898 8.22957C77.8724 9.31814 81.1605 6.50273 82.1786 6.00506C82.3664 6.03181 79.7405 8.02149 79.4898 8.22957ZM163.037 133.759C163.007 133.686 162.977 133.618 162.947 133.555C161.949 131.915 161.58 131.963 161.302 132.081C161.046 132.248 160.994 132.734 161.102 132.919C161.269 133.204 161.562 133.594 161.988 134.206C162.827 135.528 165.054 136.907 165.693 137.159C163.288 135.534 163.057 134.702 162.96 134.413C162.911 134.101 163.222 134.186 163.037 133.759ZM155.748 124.012C155.367 123.043 155.457 123.85 155.876 125.015C156.28 126.175 157.157 127.654 157.632 128.015C156.953 127.068 155.928 124.568 155.748 124.012ZM156.895 111.23C157.328 109.971 158.979 107.181 159.106 106.804C158.485 107.5 156.818 110.591 156.895 111.23ZM158.557 109.08C159.595 107.816 159.045 107.026 158.339 108.802C158.313 108.875 158.513 109.127 158.557 109.08ZM165.788 103.696C167.236 103.292 168.182 101.818 166.192 102.863C165.584 103.192 165.63 103.738 165.788 103.696ZM161.768 129.575C160.702 127.977 158.882 126.497 161.16 129.668C160.187 128.584 159.366 127.588 158.668 126.58C160.94 130.761 161.809 130.012 162.878 131.515C163.245 132 163.575 132.51 163.812 132.967C164.009 133.63 163.58 133.832 163.288 133.734C164.157 134.611 167.612 137.378 172.691 139.298L172.354 139.158C172.114 139.065 172.221 139.105 172.342 139.122C172.225 139.086 172.123 139.026 172.376 139.102L172.716 139.243C168.48 137.286 165.16 134.901 164.151 132.987C164.114 132.929 164.075 132.872 164.036 132.815C162.979 131.317 162.236 130.734 161.689 130C160.775 128.786 161.829 129.671 161.773 129.582C161.771 129.58 161.769 129.577 161.768 129.575ZM179.717 98.9277C183.754 98.7842 181.125 98.2199 178.88 98.7486C178.786 98.7756 179.616 98.932 179.717 98.9277ZM84.9782 7.58772C81.0927 9.79492 83.5979 6.85782 75.2826 15.2756C78.6556 11.475 75.2396 14.8028 75.8234 13.9851C76.296 13.3161 78.5737 11.4799 77.085 12.3569C78.0357 11.7519 80.3474 9.79379 82.3572 8.36904C84.4072 6.88418 85.7693 6.34765 85.9565 6.30513C85.9539 6.30616 85.9514 6.3072 85.9488 6.30823C86.1134 6.2924 86.0429 7.13668 84.9782 7.58772ZM159.033 111.997C160.404 111.375 159.041 110.152 160.696 109.042C160.812 107.419 159.211 109.837 158.127 113.636C157.574 115.406 157.313 116.897 156.9 117.294C157.232 114.672 157.664 113.583 157.602 113.477C157.599 113.467 157.593 113.466 157.585 113.472C157.423 113.589 156.633 115.957 156.58 117.497C156.539 119.04 156.664 119.705 157.485 116.944C156.9 120.03 157.269 120.475 157.345 120.326C157.472 120.166 157.669 119.407 157.8 119.844C157.965 120.775 158.651 123.879 159.031 123.582C159.031 123.58 159.03 123.579 159.029 123.577C158.289 121.759 157.983 119.935 158.09 117.893C157.129 119.908 157.594 115.547 158.865 114.173C158.867 114.07 158.871 113.966 158.875 113.861C158.915 113.223 158.967 112.6 159.033 111.997ZM157.86 124.146C157.826 124.041 157.356 122.92 157.085 121.825C156.796 120.732 156.681 119.647 156.603 119.8C156.552 120.116 156.745 121.924 157.25 123.241C157.737 124.564 158.293 125.442 157.86 124.146ZM173.846 138.818C173.472 138.778 173.079 138.722 172.762 138.66C172.608 138.63 172.471 138.598 172.403 138.577C172.341 138.561 172.322 138.539 172.56 138.624L172.925 138.776C171.224 138.001 169.855 137.376 169.164 137.237C170.099 137.719 171.44 138.372 172.829 138.99L172.476 138.843C172.216 138.747 172.296 138.783 172.397 138.795C172.509 138.814 172.68 138.835 172.856 138.848C173.212 138.874 173.584 138.867 173.846 138.818ZM214.655 113.797C215.617 114.516 214.829 113.618 213.725 112.696C212.631 111.778 211.276 110.852 212.22 111.759C212.361 111.859 214.619 113.738 214.655 113.797ZM160.997 107.898C161.573 107.468 161.523 107.332 161.337 107.243C161.147 107.172 160.72 107.305 160.446 107.895C160.418 107.958 160.947 107.932 160.997 107.898ZM81.9668 9.79517C82.0162 9.94199 75.7864 15.1349 74.6991 16.2537C75.1545 15.3952 82.0023 9.24403 81.9668 9.79517ZM177.689 138.107C176.595 137.854 175.423 137.693 174.39 137.568C173.878 137.505 173.398 137.45 173.053 137.409C172.882 137.39 172.746 137.373 172.694 137.374C172.649 137.38 172.665 137.384 172.985 137.522L173.408 137.698C171.05 136.815 169.634 136.404 169.371 136.248C168.88 135.964 169.85 136.026 169.741 135.956C169.607 135.877 168.197 135.159 167.244 134.458C166.259 133.76 165.617 133.023 165.541 132.954C165.428 132.855 165.501 133.796 164.808 133.247C165.522 134.055 168.476 136.31 173.17 138.228L172.776 138.064C172.48 137.955 172.498 137.977 172.551 137.988C172.61 138.003 172.738 138.029 172.879 138.054C173.167 138.104 173.51 138.149 173.812 138.182C174.423 138.249 174.889 138.277 174.992 138.275C175.232 138.268 174.463 138.052 174.351 137.929C174.261 137.796 174.612 137.836 177.681 138.107C177.684 138.107 177.686 138.107 177.689 138.107ZM168.246 135.484C168.787 135.931 168.176 135.676 167.458 135.233C166.731 134.792 166.015 134.156 165.796 133.874C165.32 133.246 165.744 133.66 166.409 134.199C167.057 134.739 168.166 135.426 168.246 135.484ZM161.747 128.12C161.325 127.616 159.374 124.301 159.141 124.141C159.362 125.799 162.312 129.094 161.747 128.12ZM183.022 100.29C184.297 100.093 187.701 100.172 187.871 99.9745C186.684 99.9689 183.201 100.021 183.022 100.29ZM63.0357 30.9212C64.7961 29.2901 61.0957 33.4192 59.9372 34.5685C59.7653 34.5285 62.8834 31.0564 63.0357 30.9212ZM162.769 109.152C162.825 109.102 163.156 108.816 163.079 108.867C166.608 107.106 169.174 105.379 171.337 104.454C173.496 103.47 175.531 102.923 176.195 102.724C175.516 102.826 173.432 103.295 171.219 104.235C169.004 105.115 166.365 106.837 162.922 108.542C162.912 108.531 162.608 108.82 162.589 108.89C162.565 108.952 162.741 109.168 162.769 109.152ZM166.246 131.408C166.894 131.754 166.891 132.299 166.956 132.378C167.232 132.703 167.77 133.16 168.298 133.552C168.815 133.942 169.266 134.265 168.927 134.253C167.562 133.388 166.197 132.208 165.906 131.543C165.55 130.987 165.388 130.728 165.415 130.676C165.442 130.632 165.637 130.757 166.168 131.365C166.192 131.378 166.218 131.392 166.246 131.408ZM184.223 101.694C189.223 101.197 179.538 101.639 180.841 101.948C180.926 101.94 183.71 101.728 184.223 101.694ZM162.445 109.736C162.444 109.94 161.507 111.317 160.589 114.376C159.383 118.023 159.928 121.225 160.234 122.059C159.394 120.892 159.566 119.771 159.671 117.842C159.711 117.303 159.497 117.424 159.502 117.366C159.615 116.408 159.755 117.152 159.848 116.567C159.871 116.447 159.983 115.527 160.325 114.297C160.723 112.84 161.305 111.321 161.757 110.518C162.211 109.698 162.48 109.474 162.445 109.736ZM166.656 131.575C166.876 131.696 167.533 132.471 168.958 133.33C170.319 134.184 172.753 135.233 172.942 135.352C174.377 136.181 171.449 135.05 169.533 133.979C167.542 132.886 166.759 131.758 166.656 131.575ZM163.118 109.572C163.212 109.878 162.661 110.763 162.183 111.719C161.951 112.163 161.755 112.519 161.69 112.497C161.625 112.487 161.689 112.056 162 111.228C162.119 110.88 162.964 109.902 163.118 109.572ZM183.737 102.287C184.02 102.212 189.055 102.167 189.064 102.061C188.52 101.803 180.934 102.323 183.737 102.287ZM181.132 103.216C181.257 103.199 179.994 102.997 182.424 102.733C182.622 102.73 183.066 103.004 186.028 102.697C186.628 102.637 187.533 102.362 187.468 102.348C184.384 101.539 174.917 104.458 181.132 103.216ZM166.958 131.438C166.962 131.168 167.64 131.25 167.798 131.752C167.881 131.975 167.357 131.926 166.958 131.438ZM196.693 104.857C193.987 103.638 201.97 108.351 202.153 108.706C202.142 108.318 197.082 104.922 196.693 104.857ZM60.9711 36.6387C60.973 36.6366 60.9749 36.6345 60.9768 36.6324C58.8969 38.827 59.9673 37.2707 59.8663 37.3701C55.2729 41.9115 56.8408 41.0334 56.2171 41.8263C54.879 43.5404 54.5928 42.8192 52.3698 45.7471C56.0864 40.9388 52.5509 45.1725 52.2478 45.1433C51.0484 44.9748 57.9707 39.4303 59.8306 37.0739C60.0897 36.7427 57.7785 38.824 58.43 37.966C60.5514 35.1555 68.9611 28.2844 60.9711 36.6387ZM168.112 131.982C168.406 132.056 169.384 132.852 171.059 133.752C172.67 134.631 174.591 135.593 173.241 135.131C173.012 135.047 170.607 134.042 169.405 133.273C168.137 132.488 167.688 131.869 168.112 131.982ZM208.296 75.194C206.305 73.5219 210.283 78.0221 211.185 78.6664C211.638 78.9884 209.178 75.9344 208.296 75.194ZM231.424 104.401C231.437 104.428 231.449 104.454 231.462 104.479C232.346 106.435 234.322 109.122 232.993 105.834C232.887 105.575 232.069 104.635 231.66 104.398C231.536 104.358 231.444 104.349 231.424 104.401ZM104.616 108.384C105.074 105.644 104.375 105.799 104.312 107.801C104.298 108.523 104.603 108.472 104.616 108.384ZM179.964 61.4042C180.107 61.4663 181.046 61.7799 181.877 62.0552C182.647 62.3134 183.303 62.5107 183.275 62.4225C182.972 62.2813 182.485 62.0845 181.943 61.8793C180.541 61.3419 178.778 60.8795 179.964 61.4042ZM104.705 109.277C104.6 107.601 104.032 110.466 104.592 112.603C104.52 111.518 104.712 109.441 104.705 109.277ZM166.177 109.631C167.942 108.333 171.059 106.639 172.612 106.018C172.915 106.194 168.53 108.185 166.177 109.631ZM226.516 96.0449C228.311 97.9074 225.058 93.4229 225.08 94.0453C225.117 94.1107 226.453 95.9714 226.516 96.0449ZM151.521 169.04C149.716 169.137 155.395 169.824 153.844 169.325C153.751 169.312 151.597 169.042 151.521 169.04ZM176.637 167.862C175.415 168.194 170.1 169.051 172.206 168.941C172.533 168.976 176.612 168.127 176.637 167.862ZM56.2999 42.1401C57.1605 41.7565 53.7686 45.4148 53.2416 45.9079C53.0343 46.0975 55.1779 42.6371 56.2999 42.1401ZM107.261 93.0857C107.346 92.8699 107.499 92.5866 107.639 92.3757C108.361 91.2679 109.324 90.0052 109.466 89.6152C108.982 90.2583 108.093 91.3525 107.474 92.2669C107.226 92.6057 107.027 93.1066 107.261 93.0857ZM218.499 86.7846C218.71 87.1082 218.958 87.4568 219.228 87.8124C220.644 89.6817 222.499 91.6547 222.298 90.7226C219.534 87.6723 221.897 90.8792 219.302 87.7441C219.072 87.4706 218.807 87.1536 218.499 86.7846ZM105.471 119.077C105.424 117.824 104.85 116.9 104.833 117.041C104.665 118.406 105.347 120.334 105.471 119.077ZM153.903 60.7593C154.021 60.9217 157.03 59.9979 156.594 59.9797C156.444 59.9382 153.803 60.5753 153.903 60.7593ZM204.749 112.227C205.796 113.161 203.784 111.899 201.717 110.264C201.115 109.785 200.527 109.317 200.221 109.006C200.049 108.668 201.003 109.27 201.922 110.005C203.317 111.114 204.655 112.142 204.749 112.227ZM114.446 146.03C114.77 145.967 111.152 141.453 112.289 143.443C112.558 143.945 114.31 146.055 114.446 146.03ZM159.447 168.635C156.592 168.915 163.997 169.139 167.445 168.873C168.717 168.783 169.262 168.652 168.074 168.582C168.027 168.579 167.793 168.584 167.431 168.588C165.304 168.651 159.723 168.629 159.447 168.635ZM184.177 164.584C183.594 164.785 183.418 163.69 185.901 162.944C186.233 162.843 184.938 163.815 185.218 163.751C185.379 163.792 190.516 161.156 190.754 160.911C190.99 160.732 190.505 160.606 190.741 160.414C191.007 160.22 194.309 158.471 196.291 157.137C197.602 156.268 198.677 155.533 199.545 154.963C200.236 154.447 200.307 154.24 200.43 154.161C200.98 153.798 202.019 153.339 202.994 152.5C204.616 151.112 206.136 149.325 207.192 147.326C209.257 143.624 210.502 137.016 211.288 132.181C211.411 131.386 211.542 130.661 211.673 130.015C211.561 130.709 211.453 131.439 211.358 132.189C210.591 137.976 209.74 143.162 208.012 146.87C208.011 146.412 207.779 146.867 207.486 147.485C206.883 148.804 205.636 151.075 206.912 148.364C206.543 149.143 204.246 152.675 199.754 155.316C190.903 161.295 185.554 164.139 184.183 164.581C184.181 164.582 184.179 164.583 184.177 164.584ZM235.412 115.966C234.793 114.972 235.614 117.266 236.96 119.887C237.978 121.831 238.942 123.633 239.271 123.854C239.08 123.321 238.221 121.539 237.262 119.736C236.241 117.777 235.482 116.075 235.412 115.966ZM213.126 83.5334C212.467 82.9443 211.384 82.8856 208.393 79.2722C208.39 79.2692 208.387 79.2661 208.384 79.263C207.507 78.2053 208.727 79.1934 208.599 78.9693C208.557 78.8877 205.824 75.5544 208.357 78.0636C212.198 81.8726 208.32 78.8221 210.315 80.8848C210.573 81.1417 214.572 84.7164 214.413 84.4302C214.399 84.3999 213.23 83.2999 213.072 83.0822C212.476 82.2617 212.983 82.4515 212.893 82.3418C212.624 82.0035 206.312 76.103 205.659 74.9393C205.493 74.5992 215.529 84.5299 215.77 84.9364C215.977 85.2096 215.406 85.5508 215.6 85.8503C215.661 85.9425 217.104 87.3603 218.344 88.6274C219.156 89.4539 219.856 90.1941 220.026 90.4202C220.148 90.5823 220.236 90.7086 220.299 90.8022C219.926 90.0633 223.067 93.6723 222.776 93.7092C222.663 93.6989 220.566 91.2053 220.481 91.0996C220.452 91.0569 220.429 91.0176 220.406 90.9823C220.512 91.2465 219.454 90.1346 218.152 88.8047C216.055 86.6503 213.411 84.0005 214.309 85.2676C211.824 82.9478 215.032 85.2476 213.126 83.5334ZM203.04 73.8753C203.181 73.8895 203.312 73.8998 203.432 73.9062C202.616 73.3244 200.358 72.2407 195.571 69.96C193.375 68.8382 191.027 67.7582 188.518 66.7399C186.96 66.1115 188.605 67.2206 186.588 66.2934C184.966 65.5519 183.21 64.4679 184.166 64.7416C184.409 64.8086 187.748 66.3771 189.382 67.0322C194.191 68.974 193.071 68.1563 193.368 68.2615C193.55 68.3364 194.631 68.9199 195.77 69.5486C196.913 70.1515 197.949 70.65 198.664 70.9651C202.357 72.5553 203.567 73.1285 204.155 73.8988C204.668 74.4563 205.214 75.0574 205.808 75.7209C204.755 74.766 204.24 74.4148 203.859 74.1874C203.751 74.2198 203.666 74.2652 203.569 74.2524C203.463 74.2353 203.388 74.1773 203.04 73.8753ZM132.171 161.19C132.427 161.107 134.919 162.69 135.952 163.08C135.685 163.234 133.103 161.742 132.171 161.19ZM50.6 188.336C50.1515 188.134 50.8225 188.818 51.8743 189.806C53.1782 191.092 55.3534 192.732 54.4407 191.767C54.2242 191.539 52.9941 190.481 52.047 189.608C51.4302 189.052 50.9038 188.595 50.6 188.336ZM83.1277 208.146C84.2519 208.584 80.0253 206.212 79.891 206.46C79.8636 206.551 82.9912 208.098 83.1277 208.146ZM142.543 67.7569C142.353 67.861 139.474 69.2875 139.376 69.3248C137.308 69.9497 146.768 65.2843 142.543 67.7569ZM127.762 223C123.777 222.464 135.599 224.86 132.035 223.863C131.863 223.829 127.958 223.039 127.762 223ZM144.008 225.38C143.1 225.337 139.03 224.749 138.958 224.838C138.854 225.029 143.533 225.679 144.008 225.38ZM106.922 119.828C107.293 119.326 107.407 125.042 107.675 127.04C107.297 127.563 107.084 121.78 106.922 119.828ZM110.459 92.2059C110.111 92.6992 109.795 93.1712 109.512 93.614C109.063 94.2352 108.276 97.1298 107.963 98.9375C107.6 100.839 107.389 101.926 107.364 101.658C107.341 101.431 107.486 99.927 107.807 98.0604C108.093 96.2292 108.815 93.9484 109.274 93.4564C109.76 92.7454 110.327 91.9822 110.978 91.1806C111.208 91.3256 111.148 91.241 110.459 92.2059ZM106.905 114.687C106.601 113.847 106.607 111.205 106.646 109.52C106.816 109.804 106.792 113.378 106.905 114.687ZM43.4734 181.35C44.4125 181.908 48.9503 186.33 48.045 185.729C47.6322 185.489 42.8821 181.129 43.4734 181.35ZM140.926 69.0054C141.606 69.079 135.161 72.3988 134.641 72.6218C132.5 73.397 140.442 69.3151 140.926 69.0054ZM116.055 145.019C117.023 145.736 119.064 148.406 120.543 149.995C119.662 149.466 117.167 146.448 116.055 145.019ZM108.993 133.612C109.009 133.638 109.153 134.018 109.369 134.497C109.58 134.971 109.852 135.513 109.869 135.562C110.2 136.498 109.528 135.419 109.133 134.524C108.73 133.612 108.663 133.087 108.993 133.612ZM66.0369 35.6138C65.9675 35.7029 64.2234 37.582 64.1543 37.6418C62.3841 39.1271 67.6239 33.487 66.0369 35.6138Z" fill="#F4C03A" fill-opacity="0.34"/>
</svg>
