<svg width="266" height="249" viewBox="0 0 266 249" fill="none" xmlns="http://www.w3.org/2000/svg">
<path d="M11.3308 52.8016C11.0328 53.5309 9.72843 56.2664 9.25519 57.4276C9.39768 55.9981 12.3609 50.2021 11.3308 52.8016ZM38.8303 171.562C38.3489 171.067 37.8824 170.553 37.4376 170.03C38.3957 171.72 40.1013 173.757 41.4129 175.256C41.6247 175.503 40.8347 175.088 41.3562 175.656C41.8937 176.229 42.0576 175.842 42.9186 176.625C43.7268 177.47 48.7336 181.997 51.2943 184.182C51.3433 184.225 51.3923 184.267 51.4414 184.31C57.6138 189.672 65.2447 193.914 73.5125 198.076C66.9149 195.047 70.2177 196.965 73.3049 198.515C74.4194 199.067 75.4543 199.573 76.0959 199.857C76.6489 200.078 77.0943 199.572 85.8833 204.009C91.3771 206.65 85.9619 205.451 95.0859 208.783C95.1824 208.816 95.2806 208.85 95.3807 208.884C95.2853 208.835 95.1928 208.787 95.103 208.74C90.9833 206.545 92.373 206.978 95.3432 208.147C97.002 208.791 99.1869 209.634 101.22 210.359C102.191 210.751 110.281 213.586 113.948 214.531C115.197 214.875 117.196 215.021 118.849 215.429C119.933 215.697 120.72 216.088 122.253 216.455C122.333 216.474 122.414 216.493 122.498 216.512C130.521 218.31 138.375 219.642 146.012 220.169C141.46 220.866 149.519 220.806 149.835 220.781C151.656 221.13 143.405 220.869 146.668 221.185C149.991 221.334 153.229 221.3 156.422 221.054C157.823 220.947 159.182 220.833 160.539 220.708C156.498 220.936 165.814 219.42 167.509 219.48C167.056 219.083 172.651 218.681 178.267 217.759C183.943 216.906 189.219 215.201 192.177 214.166C192.858 213.918 189.978 214.567 192.807 213.648C192.88 213.555 193.171 213.642 195.277 212.371C195.974 211.93 195.87 212.314 196.23 212.032C196.456 211.857 197.339 210.19 199.301 209.105C199.659 208.91 198.957 209.744 199.212 209.698C199.497 209.604 200.565 208.934 205.192 204.379C203.255 205.698 205.503 203.316 209.66 199.455C213.563 195.975 218.308 190.707 219.612 189.154C219.06 189.672 218.493 190.192 217.926 190.695C220.532 188.003 220.633 187.27 221.135 186.629C222.171 185.267 223.502 183.441 224.173 182.35C224.996 180.963 225.796 179.382 226.383 178.018C227.854 174.512 227.368 174.298 229.227 169.973C228.724 170.988 228.219 171.987 227.711 172.966C228.901 170.002 230.054 166.89 231.217 163.689C229.247 171.289 231.813 162.131 232.018 161.477C232.335 160.5 232.114 161.989 232.652 160.354C232.708 160.18 232.359 160.35 233.233 157.8C234.211 154.955 234.725 153.817 235.087 153.083C235.36 152.56 235.547 152.273 235.861 151.383C235.91 151.207 235.515 151.74 236.526 148.445C239.358 137.866 236.767 148.569 236.591 148.965C236.438 149.467 238.42 146.664 235.852 153.37C235.612 153.972 235.346 154.639 235.055 155.365C235.379 154.552 235.667 153.903 235.914 153.394C236.624 151.994 236.952 151.842 237.054 151.583C237.209 151.296 238.793 146.03 238.819 145.722C239.375 143.072 238.462 145.291 238.546 144.768C238.664 144.371 240.528 137.976 239.816 136.267C241.144 133.256 240.412 138.247 239.238 143.433C239.251 144.243 240.716 138.56 240.73 138.239C241.078 136.394 241.209 135.235 241.245 134.527C241.238 132.948 240.568 134.378 240.341 133.456C240.193 132.83 240.759 130.726 240.028 132.656C240.071 127.941 240.349 130.783 240.433 130.486C240.519 130.012 240.193 128.327 240.174 128.106C240.167 127.783 240.531 128.865 240.436 127.595C240.417 127.374 239.72 125.431 239.952 128.045C239.448 124.577 239.04 124.915 239.332 123.506C237.35 121.347 239.371 121.395 239.033 120.303C237.998 117.345 237.428 118.547 237.335 118.422C237.063 118.075 236.469 116.854 235.559 115.032C233.303 110.594 231.49 104.88 230.869 103.39C231.728 103.928 234.214 112.56 235.489 114.523C235.576 114.676 235.658 114.817 235.733 114.945C236.519 116.215 236.41 115.807 236.005 114.81C234.84 112.239 232.961 106.969 234.644 109.684C233.644 107.874 232.744 106.089 231.918 104.455C231.652 102.906 231.916 103.074 231.933 102.793C231.966 102.588 231.692 101.588 230.711 99.2939C230.641 99.1461 230.549 98.9585 230.431 98.7341C230.131 98.5421 230.319 98.9829 230.492 99.383C230.941 100.417 231.827 102.612 231.323 101.875C231.084 101.531 230.585 100.327 230.189 99.5068C229.943 99.0358 229.525 98.3296 229.463 98.3404C229.374 98.3483 229.849 99.2108 229.98 99.5921C230.159 100.053 230.282 100.458 230.126 100.286C230.033 100.187 229.902 99.9584 229.757 99.6832C229.366 98.6753 223.986 90.2562 228.94 97.3214C227.676 95.2391 227.506 93.4282 225.699 91.5417C224.435 90.3314 229.591 98.5954 220.526 87.2207C220.691 86.6939 224.433 91.6459 224.493 91.7398C224.668 91.8826 224.771 90.4149 224.682 90.2282C224.537 89.8939 221.565 86.423 218.225 82.8965C215.334 79.8105 212.386 76.739 211.432 75.4258C211.831 76.4163 207.209 71.4962 204.009 68.1642C203.764 67.8806 203.289 67.5339 203.104 67.4722C202.95 67.4232 203.227 68.0452 203.068 67.979C202.555 67.6931 199.846 66.0104 195.354 63.7894C194.67 63.4169 194.039 63.0941 193.51 62.8489C190.406 61.4319 190.642 61.9024 190.475 61.8214C189.063 61.2073 190.278 61.496 189.405 61.1315C188.539 60.7576 184.022 58.9411 180.851 57.7587C179.552 57.2686 178.581 56.9622 178.441 56.9301C178.32 56.9055 179.532 57.6628 177.748 57.1542C177.438 57.1217 177.736 56.5414 172.438 55.5655C166.108 54.651 176.697 56.9262 173.983 56.8602C170.108 55.3881 170.139 56.1427 169.074 55.9311C168.717 55.87 165.979 55.0185 163.018 55.1776C165.131 55.0133 167.296 55.0309 169.495 55.2265C167.349 54.8064 163.215 54.8458 161.516 54.9335C160.671 54.9621 161.328 54.4495 159.504 54.6842C159.122 54.7829 157.729 55.8438 162.404 54.9861C162.798 55.3257 160.534 55.2287 159.522 55.4949C159.363 55.5364 158.856 56.2109 157.513 56.0853C157.347 56.0691 158.024 55.4579 157.685 55.2195C157.372 55.0227 155.863 54.9533 151.835 57.1179C151.577 57.2596 152.607 57.1128 152.356 57.2568C152.257 57.311 151.564 57.5481 150.886 57.8144C150.298 58.0443 149.719 58.2858 149.601 58.3536C149.337 58.5048 150.623 58.2152 150.311 58.4028C148.724 59.3589 145.985 59.5471 149.629 57.9897C148.392 58.397 147.111 58.857 145.819 59.3445C147.461 59.3704 143.965 60.4562 142.229 61.3831C131.16 67.4015 138.847 63.8775 137.052 65.1091C134.19 67.1488 135.895 64.7352 131.577 67.6393C131.234 67.9195 136.68 65.209 126.304 71.1207C127.734 70.1964 129.251 69.2606 130.793 68.3331C129.739 68.2553 126.596 70.6427 125.545 71.5308C125.352 71.6945 125.215 71.8109 125.167 71.8446C121.866 74.2594 123.92 72.3245 119.234 76.5365C118.822 76.9227 117.771 77.5894 116.94 78.4665C113.487 82.0668 122.022 74.2531 122.559 74.4788C122.629 74.2956 113.331 82.4882 113.266 82.8734C111.806 83.9343 117.008 78.8567 115.803 79.5882C115.566 79.6982 111.055 84.056 108.455 88.15C107.95 88.6892 107.028 92.3162 106.767 93.775C106.466 95.1526 106.118 96.4715 105.806 97.5976C105.387 98.7167 105.175 99.5396 105.873 99.5883C104.73 100.53 105.41 101.603 105.386 102.119C105.19 108.622 105.271 108.819 105.719 114.848C105.833 116.192 105.604 117.368 105.697 117.839C105.753 118.116 106.052 117.571 106.273 118.925C106.45 120.035 106.778 124.512 107.101 128.107C106.994 127.73 107.026 128.194 107.121 128.561C107.212 128.951 107.328 129.329 107.333 129.438C107.357 129.726 107.005 128.999 106.813 128.541C106.608 128.046 106.58 128.051 106.43 128.115C106.527 128.973 108.288 132.397 110.239 135.279C111.079 136.541 110.461 136.02 110.836 136.569C110.943 136.808 114.409 141.033 114.362 140.789C114.265 140.528 111.492 137.046 109.682 134.097C107.81 131.105 107.09 129.129 107.948 130.512C108.261 131.03 109.185 133.586 109.503 132.908C112.599 138.069 117.076 143.57 121.739 148.342C127.53 154.217 132.941 157.834 140.692 160.306C133.142 158.457 127.328 154.457 121.511 148.57C120.981 148.037 120.454 147.497 119.933 146.956C119.038 146.063 116.247 142.814 116.364 143.401C117.851 145.161 119.535 146.993 121.311 148.769C125.414 152.908 129.95 156.143 133.96 158.191C134.143 158.287 133.338 158.209 134.018 158.585C135.229 159.339 140.061 160.611 141.036 160.99C141.144 161.064 138.156 160.459 138.952 160.97C141.024 162.296 142.034 161.192 144.329 161.906C144.755 162.04 145.749 162.372 147.229 162.909C146.919 162.968 149.721 163.581 151.963 163.746C154.308 163.961 156.634 163.987 157.703 163.839C160.605 163.494 149.611 163.358 150.628 162.937C155.499 163.105 161.253 163.155 166.734 162.977C168.518 162.923 170.264 162.756 171.951 162.461C172.055 162.442 171.103 162.325 172.42 162.059C174.703 161.561 175.378 161.757 176.515 161.519C177.743 161.311 181.902 159.719 182.51 159.558C182.591 159.545 181.896 160.262 181.766 160.324C179.985 161.213 179.155 160.93 178.991 160.985C178.355 161.181 177.799 161.559 177.21 161.72C176.254 161.976 175.681 161.949 174.412 162.225C173.535 162.406 174.457 162.559 173.599 162.724C173.278 162.816 169.805 162.565 169.567 163.364C169.535 163.466 175.442 163.139 181.825 160.579C188.36 158.126 194.619 153.484 199.332 150.534C199.761 150.267 200.063 150.057 200.23 149.929C199.92 150.11 199.605 150.287 199.286 150.457C196.224 152.227 194.352 153.499 192.297 154.709C194.334 153.529 196.309 152.035 199.173 150.266C201.254 148.986 202.587 147.789 203.12 148.079C205.012 146.457 206.499 144.65 207.575 142.686C209.635 138.979 210.916 133.258 211.584 127.072C212.343 121.023 212.858 117.997 212.752 113.565C212.736 113.525 212.849 113.83 212.765 113.625C212.682 113.445 212.25 112.834 211.416 112.049C209.747 110.436 206.781 108.385 203.428 105.866C202.568 105.196 202.019 104.705 201.622 104.314C200.798 103.465 201.185 103.153 197.569 101.055C198.689 101.953 199.727 102.881 200.687 103.842C199.483 102.775 195.565 100.104 191.012 98.0127C191.621 98.2619 191.378 98.1182 191.096 98.0685C190.79 97.9998 190.351 97.9333 189.928 97.8897C189.073 97.8007 188.274 97.7883 187.901 97.8058C187.64 97.8365 187.374 98.2904 184.298 98.5155C181.545 98.7725 181.026 98.4688 179.515 98.614C178.507 98.7221 177.43 98.9934 176.85 99.1344C176.706 99.1691 176.596 99.1946 176.525 99.2057C176.264 99.2465 176.097 99.0219 175.471 99.1337C173.529 99.5247 175.26 99.7562 173.188 99.5542C173.618 99.3761 174.053 99.2084 174.508 99.0463C172.199 99.5574 169.165 100.531 172.29 99.0586C172.842 98.8267 172.439 99.2294 172.86 99.0819C174.248 98.6012 175.503 98.2785 176.613 98.03C185.398 96.4869 181.762 96.7947 176.557 97.7689C174.263 98.2454 171.982 99.0557 170.405 99.9058C169.436 100.045 166.972 101.525 162.488 103.835C162.549 103.807 162.485 103.841 162.347 103.988C162.214 104.128 162.066 104.321 162.038 104.332C161.939 104.378 161.938 104.215 161.869 104.115C161.795 104.028 161.678 103.923 161.236 104.359C161.168 104.364 160.038 106.337 159.275 108.971C158.587 111.243 158.441 112.831 158.453 110.962C158.471 110.675 158.609 109.89 158.921 108.864C159.537 106.697 160.624 104.625 160.925 104.213C160.156 104.77 159.289 106.602 158.765 108.817C158.096 111.523 158.497 113.658 158.497 114.017C158.412 116.767 157.856 108.65 157.802 114.953C158.619 119.578 158.218 115.168 158.828 116.835C159.006 117.285 159.374 118.75 160.192 120.172C160.966 121.57 162.182 123.005 162.405 122.705C163.26 123.73 163.486 124.12 163.387 124.145C163.304 124.186 162.993 123.965 163.105 124.127C163.211 124.296 163.682 124.735 164.965 126.507C165.517 127.283 166.519 128.132 167.074 128.633C167.173 128.729 166.603 128.782 166.697 128.89C166.789 128.994 167.532 129.532 168.55 130.066C169.542 130.596 170.809 131.141 170.914 131.173C171.035 131.207 170.075 130.387 170.56 130.527C170.806 130.6 171.813 131.054 173.112 131.628L172.643 131.433C172.093 131.231 172.183 131.291 172.288 131.302C172.412 131.326 172.636 131.359 172.852 131.384C173.288 131.435 173.697 131.458 173.761 131.437C173.868 131.404 173.459 131.35 172.97 131.27C172.733 131.23 172.477 131.182 172.337 131.145C172.216 131.119 172.135 131.046 172.717 131.242L173.196 131.441C172.05 130.882 171.339 130.476 171.804 130.517C172.232 130.727 172.732 130.957 173.299 131.209L172.808 131.005C172.254 130.801 172.281 130.839 172.363 130.841C172.461 130.854 172.681 130.881 172.94 130.902C173.465 130.946 174.146 130.971 174.814 130.971C176.168 130.972 177.503 130.885 178.32 130.772C177.829 130.861 175.012 130.779 174.206 130.665C174.495 130.212 180.59 130.348 178.5 130.736C179.852 130.519 178.927 130.387 179.692 130.173C179.887 130.122 181.829 130.101 182.209 129.997C182.256 129.981 180.247 129.791 180.649 129.677C180.927 129.599 181.971 129.553 183.197 129.509L182.803 129.524C183.606 129.466 184.126 129.41 184.581 129.339C185.049 129.267 186.031 129.088 186.219 129.074C186.69 129.027 186.634 129.077 186.277 129.183C185.925 129.287 185.289 129.456 184.899 129.575C184.501 129.695 184.274 129.777 183.991 129.86C183.719 129.943 183.449 130.017 183.382 130.08C183.375 130.098 184.074 130.172 184.617 130.204C185.119 130.247 186.716 130.058 186.74 130.082C186.975 130.25 185.3 130.603 184.757 130.72C184.188 130.843 183.488 130.91 183.681 131.088C184.546 131.093 184.79 131.126 186.325 130.916C184.635 131.351 184.417 131.469 182.916 131.603L183.24 131.591C179.082 131.809 174.663 131.624 173.518 131.793C176.632 132.014 180.664 131.953 183.25 132.081L182.942 132.093C184.557 132.139 185.145 132.235 185.304 132.647C185.324 132.857 184.874 133.108 184.41 133.287C183.938 133.47 183.358 133.594 183.408 133.644C183.61 133.823 184.478 133.756 185.178 133.583C185.854 133.417 187.221 133.045 187.301 133.049C187.454 133.046 187.529 133.057 187.533 133.078C187.533 133.078 187.533 133.078 187.533 133.078C187.581 133.154 186.31 133.471 185.48 133.697C184.705 133.911 183.798 134.047 183.053 134.137L183.292 134.128C182.858 134.163 182.567 134.192 182.506 134.214C182.277 134.305 182.747 134.517 183.305 134.728L183.085 134.736C183.624 134.947 184.2 135.137 184.205 135.222C184.18 135.237 183.706 135.313 183.121 135.395L183.318 135.387C182.217 135.496 180.94 135.642 181.802 135.815C182.188 135.89 182.731 135.941 183.33 135.972L183.153 135.978C184.623 136.033 185.996 135.79 186.158 135.778C186.467 135.825 184.842 136.27 183.177 136.418L183.339 136.412C182.197 136.49 181.221 136.544 181.147 136.585C181.087 136.618 182.342 136.741 183.348 136.839L183.2 136.844C183.78 136.888 184.239 136.916 184.275 136.948C184.311 136.987 183.856 137.097 183.22 137.219L183.356 137.214C182.567 137.332 181.58 137.474 181.037 137.633C180.282 137.855 182.489 138.002 182.104 138.038C181.815 138.096 175.866 138.037 175.601 138.018C175.17 138.056 176.53 138.371 176.331 138.426C176.037 138.516 174.158 138.322 174.396 138.427C174.518 138.588 182.015 139.58 181.989 139.77C181.908 140.206 173.876 139.223 181.354 140.85C181.407 140.862 183.233 140.722 183.284 140.729C183.368 140.749 183.414 140.77 183.43 140.793L183.414 140.793C183.423 140.806 183.423 140.819 183.416 140.832L183.431 140.832C183.283 141.077 180.5 141.406 183.442 141.398C183.997 141.374 184.747 141.332 185.744 141.191C184.883 141.337 184.12 141.422 183.451 141.489C173.811 141.995 183.956 142.065 182.113 142.71C181.353 143.009 176.091 143.057 176.056 143.065C176.561 143.421 178.251 143.199 178.819 143.365C179.143 143.482 174.38 143.694 175.436 143.951C176 144.126 181.043 144.138 181.241 144.138C183.228 144.335 180.796 144.593 181.232 144.742C181.412 144.804 182.591 144.82 183.513 144.816L183.631 144.812C184.268 144.788 184.804 144.748 184.839 144.753C184.891 144.761 184.362 144.871 183.641 144.989L183.517 144.994C182.267 145.168 180.343 145.387 179.781 145.478C179.122 145.592 181.594 145.765 181.134 145.814C178.386 146.159 172.375 145.18 178.133 146.398C178.485 146.473 180.652 146.454 180.711 146.463C182.049 146.759 178.071 146.791 177.331 147.002C176.079 147.405 181.896 147.259 177.055 147.477C179.605 147.727 181.33 147.763 183.573 147.708L183.788 147.7C184.828 147.637 186.118 147.527 187.637 147.244C186.223 147.51 184.88 147.648 183.79 147.744L183.573 147.752C174.714 148.133 172.385 148.954 183.598 148.937L183.854 148.928C184.027 148.918 184.199 148.908 184.378 148.896C184.194 148.907 184.022 148.918 183.854 148.928L183.598 148.938C179.988 149.027 180.347 149.568 179.153 149.579C178.426 149.628 172.135 148.739 174.979 150.241C175.361 150.449 179.133 150.309 177.948 150.635C168.7 150.203 177.803 150.898 177.762 150.901C177.726 151.076 176.642 151.177 174.821 151.152C173.903 151.137 172.814 151.093 171.487 150.968C170.818 150.904 170.097 150.821 169.232 150.678C168.318 150.505 167.475 150.416 165.589 149.724L165.1 149.52C162.52 148.351 158.695 146.624 155.437 144.131C152.143 141.683 149.876 138.682 148.983 137.372C148.982 137.372 148.981 137.371 148.978 137.369C148.56 136.86 146.612 134.831 145.43 133.466C144.156 132.008 143.21 130.743 142.906 130.221C140.934 126.641 142.848 129.472 142.515 128.612C142.357 128.192 140.764 125.443 139.758 122.309C138.702 119.204 138.351 115.937 138.357 115.643C138.387 113.275 138.869 115.646 138.882 115.401C138.847 113.789 138.966 108.085 140.473 103.315C141.463 99.7507 143.209 95.9398 144.423 94.1451C143.827 94.1938 140.281 102.09 142.124 96.9906C144.744 90.8026 146.827 90.9875 146.792 90.9105C148.508 88.8949 150.846 86.9001 153.674 85.5453C157.112 83.6506 165.468 78.9795 172.28 77.8433C176.393 76.9647 180.494 76.4237 184.766 76.2491C189.283 76.2927 192.669 75.5764 200.103 78.4101C204.948 80.6233 210.347 83.5236 215.1 87.3216C215.723 87.815 216.391 88.3213 217.098 88.8444C217.145 88.6713 216.314 87.9633 215.278 87.0978C211.491 83.7897 204.139 80.1112 203.982 80.0292C203.06 79.3572 209.412 82.0501 215.469 86.8573C219.042 89.5857 224.627 93.6238 225.853 95.0135C223.854 93.0712 221.966 91.5308 220.259 90.121C221.963 90.9866 224.585 92.8194 227.705 95.9713C230.785 98.9742 234.366 104.487 235.259 109.774C235.89 113.096 235.059 106.63 234.923 106.779C235.779 108.857 236.105 111.912 235.994 113.104C235.947 113.504 235.865 113.588 235.754 113.109C235.718 112.859 235.675 112.52 235.612 112.082C235.648 112.439 235.674 112.782 235.692 113.11C235.988 117.809 235.647 117.299 235.329 121.333C235.303 121.546 235.757 119.788 235.537 123.089C235.477 124.117 234.981 127.615 234.84 129.569C234.72 131.048 234.61 132.292 234.643 132.679C234.675 133.014 235.55 130.954 235.615 129.652C235.627 129.313 235.557 129.029 235.339 128.904C235.988 125.536 236.033 124.489 235.869 124.515C235.718 124.462 235.439 125.078 235.648 123.399C235.622 122.864 236.388 124.209 236.406 115.225C237.525 116.895 235.72 127.445 235.642 128.238C235.592 129.537 235.994 127.767 236.496 124.339C237.025 120.875 237.111 116.187 236.733 114.886C237.23 115.791 237.086 114.864 236.927 113.086C236.851 111.824 236.677 110.303 236.331 108.632C234.616 102.438 235.515 105.031 234.127 102.007C231.921 98.1869 230.998 97.706 230.373 97.0031C229.723 96.3861 229.203 95.758 227.42 93.8145C228.845 96.1234 227.089 94.4005 224.854 92.3726C222.593 90.3184 220.086 88.0813 219.117 87.1283C222.723 89.8724 227.732 92.396 232.993 99.4898C232.766 99.0295 232.537 98.5906 232.299 98.1581C233.646 99.9367 234.959 102.094 235.929 104.59C235.707 104.218 235.477 103.856 235.241 103.506C237.065 107.175 237.556 110.661 237.6 113.073C237.655 116.246 237.324 117.337 237.312 117.779C237.166 122.032 236.369 126.765 236.044 129.698C235.615 133.644 234.991 137.759 234.008 141.757C233.536 143.021 234.935 142.146 230.853 151.428C229.423 154.214 230.283 151.737 228.987 154.265C228.898 154.429 228.799 154.613 228.688 154.818C227.036 159.52 226.257 158.936 225.437 160.087C222.914 163.33 221.226 165.115 220.971 165.389C218.675 167.624 215.431 170.125 212.121 172.073C211.335 172.539 210.003 173.437 208.833 174.231C208.776 174.273 210.664 173.373 208.448 174.742C207.726 175.148 199.62 179.276 191.916 182.89C193.976 182.115 195.988 181.255 197.942 180.33C195.969 181.916 178.562 187.957 182.898 186.833C185.714 186.387 191.716 183.25 192.66 183.628C189.661 184.902 178.44 188.982 167.962 189.291C160.536 189.705 153.576 189.526 152.432 189.369C152.097 189.331 154.182 189.158 153.717 189.106C153.417 189.128 146.056 188.701 144.77 188.307C144.154 188.177 147.748 188.474 147.435 188.329C147.158 188.199 144.189 188.138 139.406 186.73C138.175 186.349 136.876 186.027 136.675 186.096C137.385 186.26 138.506 186.585 139.356 186.881C141.261 187.505 142.37 187.715 142.921 187.882C143.422 188.024 143.356 188.101 141.945 187.889C141.618 187.833 140.617 187.572 139.287 187.092C138.886 186.92 138.458 186.75 138.276 186.714C136.746 186.409 137.707 186.773 139.218 187.303C145.043 189.126 149.955 189.053 151.44 189.206C148.244 189.063 145.492 189.293 139.156 187.491C134.007 185.938 124.352 182.89 117.88 179.028C114.055 176.502 124.011 182.004 119.591 179.287C110.712 173.344 116.946 178.141 116.636 178.011C114.059 176.913 108.058 170.297 107.45 171.083C105.124 168.818 105.578 169.071 103.208 166.837C102.885 166.527 102.505 166.162 102.061 165.731C102.386 166.154 102.717 166.578 103.047 166.998C103.125 167.095 103.203 167.192 103.281 167.289C103.186 167.213 103.09 167.134 102.992 167.053C98.5204 163.526 92.7432 153.913 93.4183 154.472C95.074 156.157 98.5583 161.01 98.9333 161.367C99.3624 161.802 100.804 162.444 104.022 166.025C104.865 166.949 105.816 168.031 106.97 169.341C108.533 170.243 106.094 167.943 104.179 165.868C102.268 163.803 100.716 162.045 103.513 164.595C99.6062 161.345 87.4468 144.662 85.9837 140.878C85.7914 140.417 85.8527 142.953 83.7484 136.631C83.2996 134.992 83.7059 136.158 84.2264 137.409C84.7455 138.66 85.3859 139.931 85.1835 139.278C85.0063 138.413 83.7857 136.503 82.983 131.071C82.224 122.605 80.1279 108.096 81.8813 93.8118C82.5955 87.8728 84.4253 80.5469 86.2346 77.3934C86.6062 76.6729 86.6682 77.0444 87.0556 76.3406C87.2749 75.9504 87.6001 75.368 88.0472 74.6578C89.5271 72.1844 92.5134 68.1169 94.3877 66.2381C89.5619 70.9972 98.2841 61.1516 100.892 59.2413C104.672 56.0402 104.734 56.6138 106.457 55.3548C108.224 54.1025 110.231 52.6418 112.469 51.1635C118.317 47.3192 124.61 43.4667 128.806 41.9974C128.16 41.3918 136.699 38.1116 141.898 36.1772C142.274 36.0336 142.665 35.8829 143.002 35.7504C146.975 34.122 153.093 32.0707 147.235 33.2788C154.56 31.064 162.671 30.2427 169.667 30.8015C170.815 30.8947 169.206 31.0053 171.176 31.1757C171.362 31.1953 171.615 30.9447 173.311 31.1457C186.971 33.4641 180.154 32.9197 182.636 33.5974C183.969 34.0658 184.967 34.4304 185.675 34.6765C178.236 32.1366 168.865 31.3111 166.35 31.3501C168.54 31.5202 184.04 33.5892 188.019 35.6986C188.162 35.756 187.551 35.87 187.697 35.9251C187.7 35.9262 187.703 35.9273 187.707 35.9284C187.94 36.0163 188.366 36.1705 188.917 36.375C191.64 37.36 197.94 39.7311 196.488 38.8122C196.095 38.5587 193.001 37.3057 189.11 35.8638C188.352 35.5819 187.583 35.3088 186.781 35.0389C188.288 35.4889 187.298 34.7708 187.564 34.8478C188.044 34.9893 188.624 35.1832 189.276 35.423C192.527 36.6014 197.802 38.955 199.94 39.9313C200.511 40.1862 200.559 39.9623 200.653 40.0022C202.934 41.0567 201.72 41.2158 204.36 41.7007C208.18 44.3174 196.511 38.3182 197.18 39.2747C197.348 39.5113 200.868 40.9518 205.351 43.1067C208.525 44.6358 215.923 47.2973 220.539 52.0386C222.612 54.0117 224.072 55.3038 224.18 55.1702C224.197 55.2843 224.396 55.6076 224.856 56.2162C225.874 57.5507 231.205 62.9702 232.197 63.8777C232.367 64.0242 232.753 63.5378 232.947 63.7361C233.142 63.9353 234.245 65.2137 235.646 66.8329C237.786 69.285 240.578 72.6281 242.147 74.2133C240.937 72.6067 239.724 71.0643 238.484 69.5371C246.268 78.5731 245.14 77.3214 242.753 73.9584C242.626 73.8014 242.519 73.634 242.396 73.482C240.51 70.9744 237.993 67.9867 237.985 67.9076C238.075 67.2133 251.158 83.7334 248.155 81.0037C247.791 80.4 242.022 72.5752 244.657 76.6146C245.136 77.2542 248.973 82.4387 249.114 82.8694C250.2 84.7116 241.684 73.7278 242.336 75.4847C244.681 77.746 247.083 81.2377 249.327 84.7714C250.349 86.3962 250.843 86.7266 250.971 86.9439C252.78 90.3699 251.511 88.5751 252.082 89.7825C252.123 89.8762 252.243 90.1166 252.401 90.4447C253.292 92.2327 254.972 95.9708 253.901 95.3447C256.987 103.2 257.734 103.49 257.137 102.172C256.449 100.616 255.169 96.6753 252.733 90.3095C252.412 89.5304 252.08 88.8063 251.743 88.1208C252.086 88.7167 252.456 89.425 252.833 90.2685C254.811 94.777 256.133 99.4132 257.136 101.397C257.534 102.229 257.596 101.621 258.295 102.963C258.38 103.122 258.479 103.314 258.596 103.539C259.787 105.879 262.757 111.757 264.393 118.57C266.146 125.338 265.951 132.651 265.549 135.628C265.727 131.668 265.329 132.828 265.094 135.837C264.764 138.846 265.522 136.38 265.501 136.972C265.496 137.071 265.446 137.498 265.343 138.163C264.967 141.175 262.932 149.814 262.454 151.454C264.463 142.566 263.702 144.524 261.75 151.963C261.951 150.863 262.135 149.762 262.303 148.661C261.624 152.042 259.498 158.063 258.011 161.704C257.627 162.664 257.33 163.478 257.182 163.994C257.084 164.337 257.792 163.234 257.737 163.427C257.178 165.283 254.564 171.852 254.535 172.214C254.52 172.506 255.759 169.723 255.497 170.825C255.441 171.053 254.108 173.68 253.188 176.484C252.846 177.524 253.328 176.999 253.248 177.263C252.565 179.479 252.64 178.024 251.168 182.048C250.049 185.012 249.615 187.382 247.444 191.563C253.625 178.897 249.705 188.092 246.566 194.34C246.326 194.803 246.095 195.23 245.884 195.614C245.306 196.568 246.27 196.312 242.48 201.35C249.268 189.509 240.051 204.477 237.747 206.701C237.626 206.839 237.339 206.689 236.267 207.942C236.176 208.046 236.48 208.043 235.484 209.21C225.683 219.957 231.827 212.971 229.779 214.82C229.349 215.185 228.035 216.544 226.564 217.969C225.268 219.246 223.779 220.794 223.131 221.414C222.843 221.689 222.827 221.389 221.707 222.465C219.723 224.375 217.965 226.33 216.474 227.654C216.276 227.807 216.141 227.54 213.154 230.111C212.296 230.834 211.335 231.715 212.693 230.81C217.273 227.786 223.235 220.995 226.789 218.215C226.795 218.21 226.801 218.205 226.808 218.2C227.969 217.253 227.791 217.51 226.929 218.368C225.338 219.966 219.783 225.328 219.282 225.746C219.067 225.947 221.172 223.756 218.881 225.823C216.912 227.577 213.575 231.442 209.376 234.021C209.122 234.235 205.291 235.838 205.401 235.693C205.717 235.629 210.732 232.322 209.862 232.657C209.822 232.704 206.616 234.744 206.035 234.879C205.403 235.08 203.216 234.651 202.382 234.955C200.171 235.753 201.717 235.486 200.216 235.992C199.938 236.08 199.598 236.179 199.204 236.282C197.649 236.646 190.449 238.769 190.383 239.154C191.722 238.799 193.06 238.411 194.347 238.016C187.078 240.341 190.192 239.521 189.186 239.928C188.078 240.321 188.287 239.857 185.764 240.426C185.207 240.669 174.825 242.648 175.051 242.705C180.736 241.532 178.702 242.343 178.965 242.321C179.985 242.177 181.2 241.659 182.578 241.382C192.188 239.263 182.602 241.921 184.893 241.516C185.691 241.38 187.179 240.765 187.533 240.686C188.61 240.453 188.738 240.749 189.439 240.533C191.128 240.002 189.009 240.117 189.151 240.051C190.614 239.406 196.438 237.892 193.022 239.508C195.218 238.998 195.295 238.321 196.909 238.03C199.929 237.51 195.639 238.848 194.142 239.414C189.253 241.234 187.552 241.52 180.444 242.991C177.886 243.499 174.928 244.234 173.748 244.411C173 244.559 165.956 244.347 165.924 245.926C163.797 246.018 160.69 245.602 158.13 245.519C157.392 245.5 156.684 245.502 156.056 245.542C153.395 245.7 154.258 246.217 154.01 246.251C153.623 246.308 150.396 246.299 149.311 246.346C148.045 246.412 148.668 246.652 146.652 246.667C141.647 246.643 141.849 246 141.342 245.938C135.548 244.958 138.034 245.995 136.726 245.927C135.486 246.014 120.323 243.147 116.278 242.2C116.116 242.169 115.97 242.142 115.842 242.12C115.989 242.142 116.135 242.164 116.281 242.185C117.534 242.37 118.777 242.543 120.022 242.704C118.741 242.231 117.364 242.004 116.373 241.788C115.532 241.606 114.98 241.434 115.029 241.142C114.281 242.049 109.397 240.087 107.902 239.679C107.307 239.525 107.306 239.709 106.563 239.506C103.654 238.742 97.2524 236.544 95.688 236.076C88.865 234.182 105.796 240.537 107.228 240.784C104.443 240.157 89.0586 235.193 95.9387 238.053C97.0056 238.498 99.0878 238.687 99.7072 238.863C103.907 240.054 100.508 239.428 100.822 239.568C101.359 239.808 104.228 240.254 104.943 240.507C105.184 240.588 103.502 240.515 107.519 241.656C105.412 241.54 94.3165 237.705 92.8565 237.19C92.3361 237.001 95.2883 239.042 86.099 234.712C86.1817 234.823 86.2645 234.934 86.3476 235.045C85.8036 234.834 85.2588 234.62 84.7165 234.403C79.9695 232.512 75.3846 230.439 70.9661 228.326C71.5719 228.435 74.4856 229.463 70.9731 227.849C68.9684 226.918 70.2737 227.969 70.0877 227.89C69.5209 227.663 65.676 225.743 61.2067 223.554C52.0267 219.371 38.59 210.861 32.9201 205.545C32.2495 204.962 31.628 204.443 31.169 204.063C29.6405 202.846 24.0148 198.374 23.5776 197.875C20.9101 195.902 12.7694 185.294 11.7657 182.756C10.9405 181.311 11.4192 182.846 10.7323 181.53C10.1077 180.296 11.0342 181.43 10.8566 181.06C10.3485 180 8.55525 176.515 7.06489 172.052C4.76439 165.524 1.90275 155.52 1.50004 151.918C1.86696 155.488 6.82224 169.858 6.96907 169.348C6.97427 169.283 6.11255 165.804 5.79009 165.104C5.67457 163.862 3.69827 159.923 3.26318 157.487C3.22356 157.204 3.87364 158.197 2.9712 153.877C2.67164 152.394 1.49474 148.454 1.44181 144.173C1.22438 142.578 0.899597 139.124 1.00778 134.837C1.20742 124.885 2.21121 109.595 2.01405 108.12C1.98841 108.066 1.5768 111.969 1.54803 109.311C1.52691 105.763 2.17502 109.001 2.56005 104.876C2.57728 104.703 2.65162 103.68 2.76799 102.273C3.04572 98.8365 3.54656 92.966 3.54002 92.6913C3.37951 89.2503 2.23308 99.0044 2.20262 98.8453C2.07936 98.5102 2.77112 90.3849 2.85695 90.033C2.92365 89.7275 2.88433 96.4677 3.47387 88.4081C3.29541 89.3267 3.12135 90.2371 2.94947 91.152C3.18923 87.3508 3.6949 87.0275 3.82652 86.1019C4.25703 83.2302 3.93678 79.9799 5.61832 75.2341C6.06973 73.9801 5.93483 76.1745 6.0002 76.0111C6.56217 74.5283 6.12645 72.3834 7.26959 70.0921C7.40859 69.9031 6.26231 75.6749 8.81654 65.7461C8.55685 66.4282 8.31016 67.1075 8.07684 67.774C8.21399 66.9183 9.23756 62.8325 10.759 59.2377C11.5056 57.4285 12.2098 55.8083 12.4243 55.356C14.0322 52.0026 13.0447 55.1502 14.6121 51.6783C12.8907 53.7123 18.3948 42.9106 18.6437 43.8003C18.8764 41.9018 25.3728 33.5256 28.5265 30.2223C28.6986 30.0274 28.8866 29.8123 29.0878 29.5814C30.9076 27.4852 33.7852 23.9138 34.3199 23.3586C35.0297 22.6202 35.138 23.1301 36.449 21.8025C36.8214 21.4262 40.2864 17.0801 43.9182 13.7459C44.6213 13.0985 46.4979 12.1074 45.4352 13.532C43.6132 15.9691 39.3822 19.8135 39.7454 20.0428C40.1317 20.2798 45.0721 14.4062 46.5323 12.9172C53.2565 6.04626 49.8415 10.4525 50.113 10.365C50.7981 10.1345 54.4204 6.2879 54.6081 6.15249C55.3407 5.58955 52.9513 8.49264 53.071 8.68649C53.2233 8.92066 57.1173 5.59301 56.3822 6.49722C55.3147 7.77966 51.8166 10.8804 51.6334 11.1133C49.2254 14.1015 53.2684 10.6988 54.5012 9.86838C54.8727 9.61742 53.7921 10.9967 54.0621 10.7526C58.2072 7.01604 54.195 9.27581 56.8424 6.65117C59.2321 4.31377 56.5327 7.69171 56.6498 7.6118C56.7673 7.51686 59.5841 4.67048 60.151 4.33496C60.3491 4.17021 53.8123 12.1562 54.4149 12.1046C56.585 9.67389 58.7805 7.25697 61.0881 4.85505C61.595 5.016 58.0105 8.13678 57.7203 8.52767C57.1098 9.30353 59.1909 7.50354 59.2177 7.69951C59.2427 7.80929 57.2615 10.3562 59.3796 8.37552C59.9914 7.81057 60.9452 6.4836 62.9525 4.7108C63.3419 4.36774 63.7417 4.03454 64.2074 3.66502C63.7899 4.09386 63.4307 4.46872 63.0772 4.83929C56.1125 12.3823 61.943 6.88344 62.3089 6.7522C62.6858 6.61793 58.7081 11.1603 63.8444 5.94688C64.7308 6.40246 63.9264 6.2686 62.5793 7.84858C60.9527 9.80127 65.2284 5.81821 58.6531 12.287C59.3106 12.1995 64.4784 6.88089 64.8137 6.65955C64.82 6.65454 64.8255 6.65038 64.8303 6.64704C64.8608 6.62573 64.8644 6.63588 64.85 6.66731C64.7758 6.8364 64.1293 7.69425 64.5238 7.39263C64.7368 7.22899 64.934 7.07951 65.1168 6.94247C69.8324 3.43058 66.4764 6.17651 68.2284 5.23052C68.3814 5.12536 73.3167 0.878629 69.7202 4.28563C68.3037 5.64295 67.0769 6.81302 65.9927 7.8456C62.1013 11.5934 60.2445 13.4035 60.1823 14.9742C62.4247 12.9849 64.6807 10.6114 66.66 8.53364C69.0986 5.96873 71.1027 3.77329 71.9243 3.02737C74.2214 0.954363 72.0108 3.28309 72.3428 3.0921C72.4601 3.01054 74.4385 1.24992 74.4882 1.24662C75.9609 0.923181 70.8332 4.93002 66.7969 8.67486C65.1741 10.1542 63.7027 11.5953 62.8739 12.523C63.7921 11.7951 64.7192 11.069 65.6419 10.364C64.5338 11.4783 63.4396 12.6088 62.353 13.7484C67.8056 8.59113 62.6064 13.6225 61.9247 15.5588C61.7706 15.9882 64.9314 12.2129 61.4368 16.6297C64.3768 13.7137 63.581 14.778 66.0259 11.9575C66.1707 12.2364 60.6263 18.5412 58.5053 21.1295C66.6673 12.9642 61.4855 16.6449 68.4922 10.4229C68.6113 10.3205 68.7328 10.2164 68.857 10.1107C69.3369 9.38973 68.9059 9.68571 68.2936 10.2181C67.5862 10.8285 66.6417 11.7829 66.7662 11.6065C67.054 11.201 67.5502 10.6949 68.164 10.0845C69.37 8.88749 71.0153 7.27037 72.5711 5.09699C72.9596 4.56019 70.6266 6.07654 73.6633 3.3775C74.0061 3.06647 76.1888 1.68431 76.1857 1.73226C76.1012 2.16496 74.1242 3.73166 74.1195 3.90544C74.1246 4.04216 76.211 2.14816 76.2443 2.17472C76.5379 2.38975 74.542 3.81142 74.8905 3.66389C75.6402 3.31467 83.7584 -2.51328 73.6764 5.80973C81.6644 -1.6297 74.4207 4.45444 71.3874 7.59339C70.6068 8.38158 70.5573 8.72313 69.4675 9.87303C69.2293 10.1255 68.9753 10.3859 68.7124 10.65C67.5158 11.8528 66.2302 13.066 65.6448 13.7115C64.8975 14.5524 69.7099 10.2992 63.1665 16.8623C64.8828 15.4065 67.0017 13.2094 69.1452 11.0963C71.582 8.69252 74.0699 6.30196 75.981 4.88737C83.2949 -0.402752 71.7907 9.64033 70.6995 11.0458C70.3962 11.3629 71.6613 10.5526 71.4616 10.769C71.3723 10.8648 70.8479 11.3594 70.0981 12.0788C68.1309 13.9446 64.6518 17.5425 64.3368 18.1376C63.9014 18.9399 66.5955 15.757 66.9739 15.7396C67.2109 15.6843 59.9911 23.7831 64.0997 19.5865C65.9603 17.6854 68.6228 14.526 70.6195 12.6165C71.6988 11.5787 72.5797 10.8603 73.0643 10.7457C72.3271 11.4578 71.6161 12.1545 70.8789 12.8839C67.5228 16.2213 64.162 19.8728 60.8472 23.5301C63.2708 21.3153 65.7041 19.1265 68.1397 17.0201C63.6178 21.8123 59.4606 25.9122 55.4691 30.9237C66.4425 20.1551 52.6462 35.081 52.5892 35.3575C52.5891 35.4505 57.1689 31.4289 57.92 30.8027C54.5356 34.9307 43.768 47.2825 50.7961 40.712C49.4982 41.8679 47.055 45.367 47.1184 45.3512C47.7811 45.1985 53.6903 38.1676 52.9596 39.5266C52.1175 41.092 50.0847 42.5359 48.3343 44.5733C47.9761 44.9906 47.6201 45.4099 47.3046 45.7874C40.8743 54.1577 43.9045 52.7421 38.4199 62.2254C38.589 62.046 38.758 61.8691 38.9272 61.694C37.6958 64.104 36.5002 66.777 35.2578 69.6399C32.1884 76.666 30.9849 88.7265 29.8059 100.102C29.8244 101.282 29.7992 102.852 29.7404 104.69C29.5245 111.449 29.2913 122.362 29.0753 128.336C29.0357 129.325 28.7947 132.902 28.6346 135.366C28.5559 136.355 28.5244 137.123 28.5077 137.273C28.4444 137.812 28.3642 136.033 28.306 135.36C28.2785 135.003 28.2395 134.893 28.1776 135.357C28.1653 135.432 28.1524 135.526 28.1391 135.641C27.8278 136.009 28.7488 146.103 29.1682 145.381C28.9637 144.196 28.3466 140.675 28.4132 140.104C28.3579 137.203 30.0152 151.674 34.2815 163.099C35.3719 166.451 36.6642 168.592 36.9105 168.903C36.7184 168.335 36.5433 167.761 36.3849 167.181C37.0771 168.712 37.8831 170.159 38.8303 171.562ZM7.82691 64.1899C7.96052 63.0387 8.67745 60.9078 9.61974 58.754C10.0837 57.6964 10.5627 56.6265 10.9005 55.7559C12.0078 52.7605 13.5034 46.7065 13.5711 49.6412C12.0878 52.8189 10.8479 55.8719 9.6892 58.7835C8.94665 60.6215 8.34029 62.4278 7.82691 64.1899ZM0.0766792 133.242C0.326685 130.281 0.990576 132.418 0.706513 134.831C0.696311 134.933 0.685159 135.035 0.673 135.137C0.63828 135.414 0.0196724 137.202 0.000127792 134.818C-0.00173759 134.441 0.0204506 133.926 0.0766792 133.242ZM2.07099 100.72C2.07028 100.785 2.00335 101.497 1.93496 102.199C1.86694 102.897 1.80222 103.58 1.79267 103.625C1.55232 104.785 1.58921 103.525 1.71319 102.179C1.84297 100.77 2.06116 99.2877 2.07099 100.72ZM81.1624 232.279C77.8856 230.882 79.9582 232.558 82.1287 233.169C82.2649 233.208 81.3769 232.371 81.1624 232.279ZM78.851 231.246C76.5789 229.57 71.1189 228.357 75.1122 230.1C75.4959 230.273 78.9503 231.33 78.851 231.246ZM0.696552 122.282C0.918897 122.639 0.694437 125.808 0.59965 127.165C0.382583 127.122 0.6707 123.615 0.696552 122.282ZM31.7848 204.188C32.3099 204.424 23.2018 196.695 22.2956 195.858C23.9492 197.59 31.8542 204.475 31.7848 204.188ZM57.5364 221.08C57.2877 220.931 53.6635 219.072 53.6894 219.261C55.3491 220.42 58.6613 221.817 57.5364 221.08ZM111.365 242.658C111.591 242.658 108.926 240.958 115.66 243.302C116.654 243.642 112.96 243.043 113.313 243.162C114.049 243.418 114.641 243.595 115.121 243.715C111.867 243.04 108.545 242.177 108.243 242.028C106.818 241.332 111.262 242.662 111.365 242.658ZM142.263 247.232C142.968 247.135 147.501 247.469 148.554 247.539C148.735 247.554 147.934 247.996 150.015 247.992C151.687 247.971 149.196 247.518 152.445 247.576C155.753 247.589 151.344 248 151.63 248.008C152.014 248.069 157.139 247.688 156.998 247.935C156.889 248.173 151.363 248.215 150.023 248.201C148.291 248.227 150.382 248.606 147.499 248.46C145.692 248.351 146.721 247.806 146.341 247.763C146.014 247.763 139.789 247.65 142.272 247.234C142.269 247.233 142.266 247.232 142.263 247.232ZM116.001 243.894C115.964 243.889 115.927 243.883 115.889 243.877C115.667 243.84 115.415 243.788 115.121 243.715C115.378 243.769 115.635 243.821 115.89 243.872C115.927 243.879 115.964 243.887 116.001 243.894ZM5.6535 74.3151C5.15494 76.0284 5.87094 70.8141 6.64431 68.7863C6.79155 68.8272 5.69378 74.0668 5.6535 74.3151ZM119.073 244.101C123.813 245.246 120.255 244.744 116.001 243.894C117.374 244.098 117.482 243.702 119.073 244.101ZM5.79009 165.104C5.80844 165.313 5.78216 165.457 5.681 165.505C5.63897 164.953 5.68789 164.889 5.79009 165.104ZM9.53134 176.649C11.7038 180.88 7.95948 172.019 7.91016 172.13C7.79381 172.193 9.40315 176.491 9.53134 176.649ZM85.3971 234.078C85.1165 233.937 89.392 234.784 85.1098 233.432C84.5156 233.24 83.7634 233.004 82.8173 232.707C86.8 234.486 82.5049 232.833 82.5347 232.935C82.5587 233.05 83.5497 233.498 84.8673 234.031C87.027 234.911 90.0453 235.972 90.9631 236.377C92.3021 236.391 86.4646 234.653 85.4057 234.081C85.4029 234.08 85.4 234.079 85.3971 234.078ZM198.756 240.043C198.17 240.515 195.194 241.468 192.989 242.116C193.902 241.573 197.17 240.565 198.756 240.043ZM206.257 176.281C200.014 180.473 195.525 182.223 194.876 182.335C194.129 182.427 197.133 181.104 203.291 177.65C203.555 177.52 206.965 175.701 206.257 176.281ZM87.7158 148.176C87.3093 146.661 90.0372 150.808 91.7652 153.391C92.1463 153.983 93.3547 156.36 91.4676 154.033C91.975 153.768 89.4249 149.918 87.7158 148.176ZM121.835 244.372C123.288 244.355 127.552 245.393 129.872 245.8C128.412 245.847 123.807 244.893 121.835 244.372ZM156.931 188.985C155.384 188.933 154.3 189.311 154.572 189.355C155.802 189.554 158.692 189.236 156.931 188.985ZM108.1 241.037C107.953 240.818 113.604 242.109 113.896 242.643C112.688 242.329 108.203 241.201 108.1 241.037ZM195.149 241.106C194.251 241.315 198.798 239.577 199.513 239.465C199.512 239.57 198.793 239.86 197.742 240.247C196.713 240.626 195.45 241.042 195.149 241.106ZM130.543 184.335C129.157 183.849 125.558 182.394 125.09 182.346C124.508 182.371 129.845 184.428 130.543 184.335ZM138.017 123.585C137.882 123.958 135.549 116.232 136.059 112.754C136.382 109.538 136.192 112.138 136.465 115.658C136.687 119.196 137.98 123.47 138.017 123.585ZM171.77 188.265C176.678 188.086 171.23 188.356 171.49 188.723C174.794 188.54 182.865 186.82 177.245 187.541C176.149 187.676 173.303 188.151 171.77 188.265ZM167.356 188.436C166.918 188.594 163.863 189.132 166.511 189.002C166.975 188.977 167.533 188.882 167.938 188.775C168.582 188.62 168.851 188.45 167.922 188.434C167.771 188.43 167.583 188.43 167.356 188.436ZM153.865 82.6041C154.924 82.1608 153.804 82.8829 152.669 83.4609C148.526 85.3377 144.453 89.5708 142.539 92.7694C140.507 96.005 139.67 98.3657 139.543 98.5602C139.381 98.8749 139.271 99.0742 139.199 99.1863C139.077 99.69 138.525 101.341 138.103 102.602C137.794 103.519 137.534 104.276 137.371 104.445C137.49 104.004 137.679 103.3 137.908 102.543C138.289 101.261 138.817 99.7777 138.935 99.531C139.009 99.3713 139.067 99.2536 139.112 99.1725C139.253 98.5926 140.112 95.9494 142.257 92.5266C144.268 89.1313 148.59 84.906 152.547 83.2082C153.14 82.9537 153.744 82.6504 153.865 82.6041ZM185.544 74.0935C180.562 74.8251 179.699 74.1402 180.096 74.0366C185.446 73.2019 181.982 74.1814 182.153 74.1905C182.514 74.1882 186.388 73.7178 185.528 74.0939C185.534 74.0937 185.539 74.0936 185.544 74.0935ZM159.316 79.8359C159.047 79.9463 155.433 81.8685 155.409 81.8833C154.129 82.4268 155.468 81.5898 157.28 80.6264C159.076 79.6718 161.122 78.8265 159.316 79.8359ZM166.246 246.008C168.842 245.831 166.336 246.441 164.598 246.479C164.462 246.478 163.934 246.155 166.246 246.008ZM165.273 188.611C164.762 188.741 148.798 188.302 149.546 188.636C151.263 189.008 169.111 188.992 165.273 188.611ZM79.7623 112.578C79.9045 115.328 79.2529 112.36 79.3775 110.865C79.4222 110.313 79.7267 111.884 79.7623 112.578ZM100.743 238.411C97.9443 237.799 98.7807 237.132 101.039 238.168C101.128 238.208 100.853 238.435 100.743 238.411ZM82.2839 136.364C81.6988 134.685 81.2898 132.978 81.0968 131.303C80.6998 127.456 81.2387 127.513 81.8781 131.207C82.4338 134.873 83.7908 138.466 85.5949 142.296C85.3253 141.923 85.0457 141.518 84.7795 141.123C92.763 155.473 85.0341 142.944 83.2835 138.19C82.5986 136.455 82.8965 138.041 82.2865 136.378C82.2857 136.373 82.2848 136.368 82.2839 136.364ZM79.869 97.3445C81.0376 91.898 80.7052 94.6084 80.3714 98.9212C80.0589 103.206 80.0697 108.885 80.259 111.391C79.5915 106.556 79.6844 99.9166 79.3236 108.815C79.1413 95.7454 79.7698 101.048 79.7287 100.597C79.7867 99.9691 79.7751 97.7945 79.869 97.3445ZM80.4725 122.102C80.5453 122.627 80.7003 126.516 80.8997 127.929C80.2887 126.01 79.952 118.686 80.4725 122.102ZM218.907 87.2374C218.551 87.3026 217.841 87.0602 216.313 85.7924C216.113 85.6277 215.904 85.4552 215.679 85.2708C215.88 85.3884 216.116 85.5359 216.379 85.7094C217.068 86.1162 218.102 86.7703 218.907 87.2374ZM10.4619 61.2528C10.6651 60.7309 10.9277 60.0913 11.2163 59.4318C12.0444 57.5439 13.0484 55.3072 12.4101 56.161C12.3557 56.2412 11.579 58.0419 11.0698 59.3697C10.6624 60.4032 10.4034 61.2271 10.4619 61.2528ZM117.579 177.585C116.889 177.494 106.316 169.245 109.757 172.348C110.551 173.496 121.139 180.226 117.579 177.585ZM183.235 185.852C182.154 186.196 177.647 187.246 177.563 187.297C177.303 187.639 182.836 186.263 183.235 185.852ZM15.3129 50.9846C15.3932 50.7371 18.7518 44.3971 18.2918 45.0234C17.225 46.2056 14.7308 51.8819 15.3129 50.9846ZM175.673 244.149C176.235 244.053 177.003 244.252 177.195 244.225C177.625 244.26 187.911 242.024 184.06 243.24C183.347 243.66 168.687 245.74 166.874 245.731C166.082 245.39 172.3 245.112 173.811 244.828C174.081 244.78 174.202 244.401 175.669 244.151C175.67 244.15 175.672 244.149 175.673 244.149ZM204.056 78.007C203.879 78.0195 202.51 77.4309 200.878 76.7386C196.578 74.9368 193.824 74.8705 191.487 74.6C189.234 74.4065 187.715 74.3733 187.767 74.2547C191.48 74.4354 194.348 73.958 200.96 76.5636C201.958 77.0141 202.998 77.494 204.056 78.007ZM209.923 81.2738C212.297 82.9445 206.459 79.4687 204.808 78.6313C204.862 78.4053 209.579 80.9703 209.923 81.2738ZM158.99 187.5C157.791 187.574 161.485 187.954 160.662 188.037C160.141 188.097 157.435 187.952 156.562 188.06C156.32 188.101 159.087 188.501 159.884 188.471C161.006 188.439 159.914 188.153 161.142 188.135C163.527 188.096 165.726 188.093 167.904 188.05C169.672 188.009 171.403 187.899 173.187 187.677C173.574 187.63 170.543 187.783 173.846 187.382C174.347 187.311 177.472 187.239 181.345 186.226C189.502 183.098 195.94 181.352 204.548 175.569C204.254 175.732 197.329 179.463 196.836 179.606C190.198 183.116 177.566 187.121 167.869 187.294C166.285 187.366 164.795 187.419 163.448 187.454C161.252 187.506 162.324 187.685 161.373 187.711C160.626 187.724 161.512 187.343 158.99 187.5ZM10.1843 62.6236C10.5445 62.1383 11.0049 60.9779 11.5902 59.5906C12.105 58.3659 12.667 56.8997 13.1745 55.7785C12.7539 56.1735 12.0557 57.8639 11.3916 59.5063C10.9295 60.632 10.5218 61.7518 10.1843 62.6236ZM234.57 133.9C234.433 135.112 233.607 138.956 233.625 139.313C233.729 139.745 234.836 134.171 234.57 133.9ZM228.312 217.12C228.395 217.04 230.51 215.015 230.586 214.942C232.679 213.333 226.322 219.401 228.312 217.12ZM260.894 157.989C261.552 155.876 262.061 153.704 262.559 153.072C262.15 154.421 261.027 158.309 260.894 157.989ZM237.25 67.2413C237.245 67.4372 236.799 67.0341 236.154 66.364C234.919 65.0766 232.961 62.8127 232.444 62.236C232.754 62.3699 235.14 64.6832 236.413 66.1255C236.92 66.6964 237.247 67.1184 237.25 67.2413ZM218.483 88.5006C216.511 87.0283 216.169 87.1317 215.556 86.7477C215.217 86.5175 214.831 86.2037 214.235 85.6599C213.925 85.3901 213.53 83.738 216.172 85.9704C216.349 86.1316 216.551 86.3272 216.783 86.5639C217.263 87.0275 214.978 85.7114 218.483 88.5006ZM86.712 144.381C87.4999 145.263 89.2366 148.231 90.5037 150.066C90.0425 149.794 87.5539 145.908 86.712 144.381ZM22.0776 39.9218C23.4456 38.3814 28.8495 31.3 27.2717 32.8602C27.0193 33.0205 22.7685 38.8008 22.0776 39.9218ZM131.846 244.917C135.35 245.135 128.188 243.99 125.927 243.826C126.935 244.01 131.594 244.915 131.846 244.917ZM251.257 86.0877C251.16 85.8448 248.946 82.1539 248.847 82.041C248.036 80.5578 249.245 82.1922 250.333 84.0213C251.423 85.8402 252.367 87.9136 251.257 86.0877ZM253.37 177.565C253.617 176.242 256.564 168.474 257.382 166.898C257.177 168.578 253.146 179.144 253.37 177.565ZM232.676 101.82C230.192 97.7215 227.515 95.2694 225.29 93.2335C225.594 93.3624 227.367 94.7946 229.179 96.8174C231.001 98.7773 232.636 101.55 232.676 101.82ZM242.753 73.9584C242.626 73.8014 242.519 73.634 242.396 73.482C242.519 73.6445 242.638 73.804 242.753 73.9584ZM213.027 169.556C211.962 170.203 211.491 170.536 211.32 170.724C211.247 170.868 211.384 170.92 211.43 170.91C211.434 170.908 211.438 170.906 211.442 170.904C213.339 169.936 215.731 167.836 213.027 169.556ZM11.8607 59.8342C11.8853 59.8068 11.9112 59.7748 11.9382 59.7384C12.5676 58.9881 13.7721 55.5536 14.7924 53.5515C14.254 54.0511 12.5548 58.0718 11.9051 59.7243C11.8899 59.7618 11.8751 59.7985 11.8607 59.8342ZM82.1775 86.8953C82.891 84.688 81.9861 90.2694 81.6017 93.7675C81.247 96.315 81.1283 98.3912 80.9908 99.3138C80.895 99.3913 80.825 96.9413 81.211 93.7057C81.4602 91.069 82.0664 87.1524 82.1775 86.8953ZM121.326 242.5C121.15 242.204 116.267 241.448 117.262 241.796C117.873 242.026 121.434 242.698 121.326 242.5ZM80.6906 105.63C80.7722 106.784 80.5804 109.419 80.3957 108.497C80.1544 107.31 80.6641 105.331 80.6906 105.63ZM139.7 185.253C139.533 185.131 133.457 183.591 135.865 184.602C137.532 185.303 137.856 184.999 138.235 185.114C138.34 185.147 139.035 185.394 139.755 185.666C142.247 186.513 144.109 186.785 144.728 186.863C145.024 186.89 144.968 186.849 144.347 186.682C143.663 186.476 142.692 186.339 139.867 185.328C139.812 185.304 139.757 185.279 139.7 185.253ZM133.46 38.5078C131.286 39.697 128.613 40.9531 126.376 42.1697C127.195 41.5198 132.398 38.7646 133.46 38.5078ZM140.487 245.378C139.8 245.405 123.477 242.883 132.701 244.616C133.214 244.78 142.31 245.918 140.487 245.378ZM218.483 88.5006C218.836 88.763 219.246 89.078 219.734 89.4661C219.24 89.0935 218.832 88.7733 218.483 88.5006ZM233.66 135.453C233.64 134.47 232.76 139.241 232.469 140.73C232.647 141.214 233.718 135.565 233.66 135.453ZM126.335 42.5001C125.097 43.2921 122.718 44.4716 121.151 45.3807C121.324 45.0616 125.683 42.6301 126.335 42.5001ZM228.714 59.5458C226.818 57.4297 224.377 55.0066 224.184 55.1242C224.168 55.0581 224.099 54.9352 223.969 54.7499C223.84 54.5667 221.857 52.67 220.94 51.6467C220.873 51.5738 220.808 51.5044 220.747 51.4387C218.869 49.5289 219.376 49.8735 221.09 51.5006C224.866 55.0977 238.817 69.9213 226.241 57.5822C227.063 58.2321 227.888 58.8869 228.714 59.5458ZM248.501 188.339C247.606 189.798 245.562 194.546 246.257 193.406C246.848 192.565 249.486 186.839 248.501 188.339ZM264.475 124.088C264.597 124.666 265.197 130.203 265.263 130.361C265.463 127.09 264.265 121.333 264.475 124.088ZM241.168 200.593C240.483 201.483 239.979 202.868 240.07 202.778C240.889 201.981 242.466 199.186 241.168 200.593ZM224.33 94.3999C225.595 95.4188 230.564 100.135 231.7 101.878C231.822 102.196 232.256 102.977 232.903 104.593C232.901 104.589 232.899 104.584 232.897 104.579C233.024 104.98 234.7 108.327 234.766 113.129C235.017 118.193 233.82 126.585 233.515 129.427C233.139 132.975 233.058 134.184 233.754 129.452C233.915 128.271 234.218 126.597 234.629 123.707C234.739 122.799 234.396 124.064 234.768 120.289C234.789 120.038 235.011 119.925 235.067 119.147C235.132 118.303 235.278 115.714 235.234 113.119C235.285 108.142 232.829 103.24 231.975 102.119C231.995 102.078 231.933 101.897 231.752 101.545C230.055 97.7984 223.199 93.2947 224.33 94.3999ZM261.828 113.78C262.13 114.773 263.179 117.995 263.427 118.304C263.14 116.585 261.173 111.42 261.828 113.78ZM140.04 244.574C138.128 244.264 133.315 243.919 134.741 244.256C135.602 244.505 142.233 244.969 140.04 244.574ZM262.86 146.837C265.313 135.932 263.393 144.223 263.469 142.497C263.293 143.945 263.091 145.388 262.86 146.837ZM173.435 76.941C174.972 76.7041 173.834 77.2784 172.225 77.5891C171.856 77.6613 171.479 77.7197 171.086 77.7591C170.639 77.8048 171.316 77.5084 172.154 77.2554C172.589 77.1218 173.065 77.0011 173.435 76.941ZM161.758 148.576C160.846 147.767 164.365 149.468 164.928 149.905L165.437 150.117C166.103 150.415 166.219 150.516 165.378 150.271L164.86 150.056C164.763 150.038 164.625 150.003 164.435 149.944C164.366 149.93 161.896 148.674 161.758 148.576ZM148.498 88.7097C149.529 87.4934 150.366 86.5211 153.406 84.9901C153.696 84.8545 154.068 84.6798 154.602 84.4125C153.957 84.7812 153.647 84.9602 153.453 85.0865C152.158 85.8003 152.477 85.7463 152.255 85.9169C152.087 86.1213 151.145 86.4304 148.498 88.7097ZM224.18 55.1702C224.177 55.1482 224.173 55.1305 224.184 55.1242C224.19 55.1469 224.188 55.161 224.18 55.1702ZM234.599 208.94C233.478 209.825 230.8 212.683 231.801 212.025C231.902 211.974 234.383 209.513 234.599 208.94ZM231.7 101.878C231.586 101.603 231.694 101.709 231.975 102.119C231.955 102.158 231.86 102.064 231.7 101.878ZM246.885 190.75C247.058 190.956 249.575 185.508 249.599 185.297C250.544 182.065 248.042 188.437 246.885 190.75ZM102.927 236.617C102.638 236.552 104.301 237.613 105.48 237.739C106.389 237.838 104.001 236.866 102.927 236.617ZM140.606 102.25C140.501 102.572 140.395 102.911 140.29 103.26C139.661 105.262 139.175 107.692 138.894 108.178C139.077 107.083 139.652 104.604 140.162 103.221C140.377 102.62 140.555 102.218 140.606 102.25ZM158.95 146.743C156.642 145.915 151.018 141.874 148.485 137.711C148.491 137.717 148.474 137.687 148.442 137.64C148.483 137.596 148.579 137.653 148.604 137.63C149.98 140.101 157.032 146.144 158.95 146.743ZM220.232 91.0457C220.292 91.0781 224.101 94.1488 223.752 93.5723C223.127 92.5398 219.262 90.1549 220.232 91.0457ZM111.321 239.293C113.328 239.631 108.952 237.93 106.79 237.737C105.669 237.654 110.974 239.252 111.321 239.293ZM225.764 217.4C225.124 218.07 225.429 217.891 226.046 217.401C227.204 216.475 229.245 214.542 229.538 214.006C228.682 214.842 226.76 216.463 225.912 217.254C225.856 217.307 225.807 217.356 225.764 217.4ZM264.229 133.228C263.938 135.521 263.658 136.977 263.53 137.89C263.271 139.636 263.74 138.986 264.118 137.979C264.333 137.345 264.504 136.61 264.523 136.113C264.557 135.849 264.277 132.976 264.229 133.228ZM36.8913 24.5466C37.5696 23.6216 34.443 26.5382 34.275 27.1192C34.1745 27.4763 36.4579 25.1359 36.8913 24.5466ZM185.675 34.6765C186.045 34.7947 186.414 34.9155 186.781 35.0389C186.502 34.957 186.141 34.8388 185.675 34.6765ZM205.912 232.719C212.592 229.809 211.113 229.401 211.657 229.089C212.647 228.344 214.981 226.79 216.543 225.308C214.784 227.052 212.913 228.816 210.78 230.556C213.163 229.311 225.298 218.255 225.143 218.181C225.313 217.66 221.884 221.016 221.736 221.132C221.562 221.253 220.507 221.276 220.146 221.58C219.8 222.015 209.068 231.605 205.912 232.719ZM260.921 151.896C261.378 150.554 261.746 150.237 261.845 149.58C261.877 149.358 261.628 149.256 261.743 148.5C261.486 149.635 261.213 150.765 260.921 151.896ZM195.133 238.047C193.752 238.251 198.19 236.728 199.261 236.483C200.071 236.264 200.603 236.085 200.675 236.07C201.367 235.904 200.703 236.267 199.328 236.721C198.515 237.036 196.038 237.927 195.133 238.047ZM245.264 193.432C245.252 193.452 245.219 193.508 245.171 193.593C244.523 194.899 241.527 199.304 241.673 199.328C242.328 198.555 244.328 195.64 245.32 193.673C245.845 192.642 245.997 192.234 245.264 193.432ZM261.945 147.58C262.482 145.534 263.498 141.662 263.009 142.038C263.009 142.041 263.008 142.044 263.008 142.047C262.698 143.896 262.345 145.74 261.945 147.58ZM118.272 240.105C117.67 239.855 117.213 239.679 116.888 239.569C116.024 239.271 116.119 239.44 116.838 239.786C117.408 240.059 118.332 240.431 119.506 240.765C120.549 240.697 118.845 240.343 118.272 240.105ZM106.753 236.656C105.763 236.325 95.5165 233.151 96.968 233.955C97.4766 234.281 103.456 235.876 103.726 235.959C104.13 236.116 102.129 235.913 105.312 236.786C105.164 236.61 107.085 236.793 106.753 236.656ZM115.339 238.998C111.831 237.635 110.8 238.278 113.523 238.98C114.59 239.25 115.842 239.191 115.339 238.998ZM130.267 242.102C128.941 241.809 125.428 241.061 122.96 240.858C126.177 241.536 129.451 242.145 132.751 242.654C133.158 242.542 131.424 242.369 130.257 242.101C130.26 242.101 130.263 242.102 130.267 242.102ZM185.388 149.039C183.64 149.039 184.706 148.908 186.42 148.664C187.283 148.538 188.315 148.337 188.908 148.217C189.512 148.096 189.836 148.045 189.899 148.05C190.209 148.104 189.814 148.267 188.892 148.509C187.943 148.769 186.151 149.042 185.388 149.039ZM57.9367 13.6232C58.5545 13.1188 59.1514 12.9726 60.2274 11.5973C58.8352 12.6881 57.4534 13.79 56.0778 14.8991C55.5647 16.2807 57.2597 14.173 57.9367 13.6232ZM64.057 10.2658C63.8964 10.4516 65.4508 10.1049 62.8209 11.9598C61.8419 12.6644 63.7816 10.3118 66.094 7.95006C67.9752 6.02631 70.0725 4.10178 70.8879 3.59623C69.8478 4.70023 67.8717 6.49519 66.2194 8.07941C65.336 8.92435 64.5524 9.71001 64.057 10.2658ZM81.4244 0.00249052C81.5709 -0.0750179 78.3902 2.38428 77.9864 2.70703C75.8334 4.11349 80.6998 -0.116627 81.4244 0.00249052ZM71.0483 8.49882C72.4318 7.39754 70.1964 9.6372 68.9019 10.8454C68.7154 11.0179 68.546 11.1704 68.4116 11.2843C68.351 11.2775 68.5276 11.0515 68.8037 10.7442C69.5131 9.95706 70.8694 8.64174 71.0483 8.49882ZM161.91 130.267C161.715 129.746 161.424 129.355 161.151 129.1C160.749 128.636 160.447 128.461 160.328 128.494C160.214 128.54 160.267 128.761 160.688 129.415C160.797 129.599 160.963 129.823 161.207 130.08C161.293 130.176 161.934 130.342 161.91 130.267ZM78.8108 3.01534C77.1934 4.1039 80.4815 1.2885 81.4996 0.790822C81.6874 0.817574 79.0615 2.80726 78.8108 3.01534ZM162.358 128.545C162.328 128.472 162.298 128.404 162.268 128.34C161.27 126.7 160.901 126.749 160.623 126.867C160.367 127.033 160.314 127.52 160.423 127.705C160.589 127.99 160.883 128.379 161.309 128.992C162.148 130.314 164.374 131.693 165.014 131.945C162.609 130.32 162.378 129.487 162.281 129.198C162.232 128.887 162.543 128.972 162.358 128.545ZM155.069 118.797C154.688 117.828 154.778 118.635 155.197 119.801C155.601 120.961 156.478 122.44 156.953 122.8C156.274 121.853 155.249 119.354 155.069 118.797ZM156.216 106.016C156.649 104.757 158.3 101.967 158.427 101.59C157.806 102.286 156.139 105.377 156.216 106.016ZM157.878 103.865C158.916 102.602 158.366 101.812 157.66 103.588C157.634 103.661 157.834 103.913 157.878 103.865ZM165.109 98.4817C166.557 98.0782 167.503 96.6034 165.513 97.6485C164.905 97.9777 164.951 98.5239 165.109 98.4817ZM161.089 124.361C160.023 122.763 158.203 121.283 160.481 124.454C159.508 123.37 158.687 122.374 157.989 121.366C160.261 125.546 161.13 124.798 162.199 126.301C162.565 126.785 162.896 127.296 163.133 127.752C163.33 128.416 162.901 128.618 162.609 128.52C163.478 129.397 166.933 132.163 172.012 134.084L171.675 133.943C171.434 133.85 171.542 133.891 171.663 133.908C171.546 133.872 171.444 133.812 171.697 133.887L172.037 134.029C167.801 132.072 164.481 129.686 163.472 127.773C163.435 127.715 163.396 127.658 163.357 127.6C162.3 126.103 161.557 125.52 161.01 124.786C160.096 123.571 161.15 124.457 161.094 124.367C161.092 124.365 161.09 124.363 161.089 124.361ZM179.038 93.7135C183.075 93.57 180.446 93.0057 178.201 93.5343C178.107 93.5613 178.937 93.7178 179.038 93.7135ZM84.2992 2.37348C80.4137 4.58069 82.9188 1.64358 74.6036 10.0614C77.9766 6.26076 74.5606 9.58853 75.1444 8.77083C75.617 8.10191 77.8946 6.26562 76.406 7.14263C77.3566 6.53763 79.6684 4.57955 81.6782 3.15481C83.7281 1.66994 85.0903 1.13342 85.2775 1.0909C85.2749 1.09193 85.2723 1.09296 85.2698 1.094C85.4344 1.07817 85.3639 1.92245 84.2992 2.37348ZM158.354 106.782C159.725 106.161 158.362 104.938 160.017 103.828C160.133 102.204 158.532 104.622 157.448 108.421C156.895 110.192 156.634 111.683 156.221 112.08C156.553 109.458 156.985 108.369 156.923 108.263C156.92 108.253 156.914 108.251 156.906 108.258C156.744 108.374 155.954 110.743 155.901 112.283C155.86 113.826 155.985 114.491 156.806 111.729C156.221 114.816 156.59 115.261 156.666 115.112C156.793 114.952 156.99 114.193 157.121 114.63C157.286 115.56 157.972 118.665 158.352 118.368C158.352 118.366 158.351 118.364 158.35 118.363C157.61 116.545 157.304 114.721 157.411 112.679C156.45 114.694 156.915 110.333 158.186 108.958C158.188 108.856 158.192 108.752 158.196 108.646C158.236 108.009 158.288 107.386 158.354 106.782ZM157.181 118.932C157.147 118.826 156.677 117.706 156.406 116.611C156.117 115.517 156.002 114.433 155.924 114.586C155.873 114.902 156.066 116.71 156.571 118.027C157.058 119.35 157.614 120.227 157.181 118.932ZM173.167 133.603C172.793 133.564 172.4 133.507 172.083 133.446C171.929 133.416 171.792 133.383 171.724 133.363C171.662 133.346 171.643 133.324 171.881 133.41L172.246 133.562C170.545 132.786 169.176 132.162 168.485 132.022C169.42 132.505 170.761 133.158 172.15 133.776L171.797 133.628C171.537 133.533 171.617 133.569 171.718 133.581C171.829 133.599 172.001 133.621 172.177 133.633C172.533 133.66 172.905 133.653 173.167 133.603ZM213.976 108.583C214.938 109.301 214.15 108.404 213.046 107.482C211.952 106.564 210.597 105.638 211.541 106.544C211.682 106.644 213.94 108.524 213.976 108.583ZM160.318 102.684C160.894 102.254 160.844 102.118 160.658 102.028C160.468 101.957 160.041 102.091 159.767 102.681C159.739 102.744 160.268 102.718 160.318 102.684ZM81.2878 4.58094C81.3372 4.72776 75.1074 9.92062 74.0201 11.0395C74.4755 10.1809 81.3233 4.0298 81.2878 4.58094ZM177.01 132.893C175.916 132.64 174.744 132.479 173.711 132.353C173.199 132.291 172.719 132.236 172.374 132.195C172.203 132.175 172.067 132.159 172.015 132.16C171.97 132.166 171.986 132.17 172.306 132.308L172.729 132.484C170.371 131.601 168.955 131.189 168.692 131.033C168.201 130.75 169.171 130.812 169.062 130.742C168.928 130.662 167.518 129.945 166.565 129.244C165.58 128.546 164.938 127.809 164.862 127.74C164.749 127.641 164.822 128.581 164.129 128.032C164.843 128.841 167.797 131.096 172.491 133.014L172.097 132.85C171.801 132.741 171.819 132.763 171.872 132.773C171.931 132.789 172.059 132.815 172.2 132.84C172.488 132.89 172.831 132.935 173.133 132.968C173.744 133.035 174.21 133.063 174.313 133.061C174.553 133.054 173.784 132.838 173.672 132.715C173.582 132.582 173.933 132.621 177.002 132.893C177.005 132.893 177.007 132.893 177.01 132.893ZM167.567 130.27C168.108 130.717 167.497 130.462 166.779 130.019C166.052 129.578 165.336 128.942 165.117 128.66C164.641 128.032 165.065 128.446 165.73 128.985C166.378 129.525 167.487 130.212 167.567 130.27ZM161.068 122.906C160.646 122.402 158.695 119.087 158.462 118.926C158.683 120.585 161.633 123.88 161.068 122.906ZM182.343 95.0758C183.618 94.8792 187.022 94.9578 187.192 94.7603C186.005 94.7546 182.522 94.8069 182.343 95.0758ZM62.3567 25.7069C64.1171 24.0759 60.4167 28.205 59.2582 29.3543C59.0863 29.3143 62.2044 25.8422 62.3567 25.7069ZM162.09 103.938C162.145 103.887 162.477 103.602 162.4 103.653C165.929 101.892 168.495 100.164 170.658 99.2393C172.817 98.2558 174.852 97.709 175.516 97.5095C174.837 97.6121 172.753 98.0808 170.54 99.0204C168.325 99.9007 165.686 101.623 162.243 103.327C162.233 103.317 161.929 103.606 161.91 103.676C161.886 103.738 162.062 103.953 162.09 103.938ZM165.567 126.194C166.215 126.54 166.212 127.085 166.277 127.163C166.553 127.488 167.091 127.945 167.619 128.338C168.136 128.728 168.587 129.051 168.248 129.038C166.883 128.173 165.518 126.993 165.227 126.329C164.871 125.773 164.709 125.514 164.736 125.462C164.763 125.418 164.958 125.543 165.489 126.151C165.513 126.164 165.539 126.178 165.567 126.194ZM183.544 96.4802C188.544 95.9827 178.859 96.425 180.162 96.7333C180.247 96.7261 183.031 96.5139 183.544 96.4802ZM161.766 104.521C161.765 104.726 160.828 106.102 159.91 109.162C158.704 112.809 159.249 116.01 159.555 116.845C158.715 115.677 158.887 114.557 158.992 112.628C159.032 112.089 158.818 112.21 158.823 112.152C158.936 111.194 159.076 111.938 159.169 111.353C159.191 111.233 159.304 110.312 159.646 109.082C160.044 107.626 160.626 106.107 161.078 105.304C161.532 104.484 161.801 104.26 161.766 104.521ZM165.977 126.361C166.197 126.481 166.854 127.257 168.279 128.116C169.64 128.969 172.074 130.019 172.263 130.138C173.698 130.967 170.77 129.836 168.854 128.764C166.863 127.672 166.08 126.544 165.977 126.361ZM162.438 104.358C162.533 104.664 161.982 105.549 161.504 106.505C161.272 106.949 161.075 107.305 161.011 107.283C160.946 107.273 161.01 106.841 161.321 106.013C161.44 105.666 162.285 104.688 162.438 104.358ZM183.058 97.0731C183.341 96.9976 188.376 96.9524 188.385 96.8467C187.841 96.5887 180.255 97.1084 183.058 97.0731ZM180.453 98.0014C180.578 97.9848 179.315 97.7829 181.745 97.5186C181.943 97.5156 182.387 97.7902 185.349 97.4825C185.949 97.423 186.854 97.1481 186.789 97.1335C183.705 96.3243 174.238 99.2433 180.453 98.0014ZM166.279 126.224C166.283 125.954 166.961 126.036 167.119 126.537C167.202 126.761 166.678 126.711 166.279 126.224ZM196.014 99.643C193.308 98.4239 201.291 103.137 201.474 103.492C201.463 103.104 196.403 99.7081 196.014 99.643ZM60.2921 31.4244C60.294 31.4223 60.2959 31.4202 60.2978 31.4181C58.2179 33.6127 59.2883 32.0565 59.1873 32.1559C54.5939 36.6973 56.1618 35.8191 55.5381 36.6121C54.2 38.3262 53.9138 37.605 51.6908 40.5329C55.4074 35.7246 51.8718 39.9582 51.5688 39.929C50.3694 39.7605 57.2916 34.2161 59.1516 31.8597C59.4107 31.5285 57.0995 33.6097 57.7509 32.7518C59.8724 29.9412 68.2821 23.0701 60.2921 31.4244ZM167.433 126.768C167.727 126.842 168.705 127.638 170.38 128.538C171.991 129.417 173.912 130.379 172.562 129.917C172.333 129.833 169.928 128.828 168.726 128.059C167.458 127.273 167.009 126.655 167.433 126.768ZM207.617 69.9798C205.626 68.3076 209.604 72.8078 210.506 73.4521C210.959 73.7741 208.498 70.7202 207.617 69.9798ZM230.745 99.1867C230.758 99.2137 230.77 99.2397 230.783 99.2646C231.667 101.22 233.643 103.908 232.314 100.62C232.208 100.361 231.39 99.4209 230.981 99.1837C230.857 99.1436 230.765 99.1345 230.745 99.1867ZM103.937 103.17C104.395 100.43 103.696 100.585 103.633 102.587C103.619 103.309 103.924 103.258 103.937 103.17ZM179.284 56.19C179.428 56.2521 180.367 56.5656 181.198 56.8409C181.968 57.0992 182.624 57.2965 182.596 57.2083C182.293 57.067 181.806 56.8703 181.264 56.6651C179.862 56.1277 178.099 55.6653 179.284 56.19ZM104.026 104.062C103.921 102.387 103.353 105.252 103.913 107.389C103.841 106.304 104.033 104.226 104.026 104.062ZM165.497 104.417C167.263 103.119 170.38 101.425 171.933 100.803C172.236 100.979 167.851 102.971 165.497 104.417ZM225.837 90.8307C227.632 92.6932 224.379 88.2087 224.401 88.831C224.438 88.8965 225.774 90.7572 225.837 90.8307ZM150.842 163.825C149.037 163.923 154.716 164.61 153.165 164.111C153.072 164.098 150.918 163.828 150.842 163.825ZM175.958 162.647C174.736 162.98 169.421 163.837 171.527 163.727C171.854 163.761 175.933 162.913 175.958 162.647ZM55.6209 36.9259C56.4815 36.5423 53.0896 40.2005 52.5625 40.6937C52.3552 40.8833 54.4989 37.4229 55.6209 36.9259ZM106.582 87.8715C106.667 87.6556 106.82 87.3724 106.96 87.1615C107.682 86.0537 108.645 84.791 108.787 84.401C108.303 85.0441 107.414 86.1383 106.795 87.0527C106.547 87.3915 106.348 87.8924 106.582 87.8715ZM217.82 81.5703C218.031 81.894 218.279 82.2425 218.549 82.5981C219.965 84.4675 221.82 86.4404 221.619 85.5084C218.855 82.458 221.218 85.665 218.623 82.5298C218.393 82.2564 218.128 81.9393 217.82 81.5703ZM104.792 113.863C104.745 112.609 104.171 111.686 104.154 111.827C103.986 113.192 104.668 115.12 104.792 113.863ZM153.224 55.5451C153.342 55.7074 156.351 54.7837 155.915 54.7654C155.765 54.724 153.124 55.361 153.224 55.5451ZM204.07 107.013C205.117 107.947 203.105 106.685 201.038 105.05C200.436 104.571 199.848 104.103 199.542 103.791C199.37 103.454 200.324 104.056 201.243 104.791C202.638 105.899 203.976 106.927 204.07 107.013ZM113.767 140.816C114.091 140.752 110.473 136.239 111.61 138.229C111.879 138.731 113.631 140.84 113.767 140.816ZM158.768 163.421C155.913 163.701 163.318 163.925 166.766 163.659C168.038 163.569 168.583 163.438 167.395 163.368C167.348 163.365 167.114 163.369 166.752 163.374C164.625 163.436 159.044 163.414 158.768 163.421ZM183.498 159.37C182.915 159.571 182.739 158.475 185.222 157.73C185.554 157.629 184.259 158.601 184.539 158.537C184.7 158.577 189.837 155.942 190.075 155.697C190.311 155.517 189.826 155.392 190.062 155.2C190.328 155.005 193.63 153.257 195.612 151.923C196.923 151.054 197.998 150.319 198.866 149.749C199.557 149.233 199.628 149.026 199.751 148.947C200.301 148.584 201.34 148.125 202.315 147.286C203.937 145.898 205.457 144.11 206.513 142.111C208.577 138.41 209.823 131.802 210.609 126.967C210.732 126.171 210.863 125.446 210.994 124.8C210.882 125.495 210.774 126.225 210.679 126.975C209.912 132.762 209.061 137.948 207.333 141.656C207.332 141.198 207.1 141.652 206.807 142.271C206.204 143.59 204.957 145.861 206.233 143.15C205.864 143.929 203.567 147.461 199.075 150.102C190.224 156.081 184.875 158.925 183.504 159.367C183.502 159.368 183.5 159.369 183.498 159.37ZM234.733 110.752C234.114 109.758 234.935 112.052 236.281 114.672C237.299 116.617 238.263 118.419 238.592 118.64C238.401 118.106 237.542 116.325 236.583 114.522C235.562 112.563 234.803 110.861 234.733 110.752ZM212.447 78.3192C211.788 77.73 210.705 77.6713 207.714 74.058C207.711 74.0549 207.708 74.0519 207.705 74.0488C206.828 72.991 208.048 73.9791 207.92 73.7551C207.878 73.6734 205.145 70.3402 207.678 72.8494C211.519 76.6583 207.641 73.6078 209.636 75.6705C209.894 75.9275 213.892 79.5021 213.734 79.216C213.72 79.1857 212.551 78.0857 212.392 77.8679C211.797 77.0475 212.304 77.2373 212.214 77.1276C211.945 76.7892 205.633 70.8888 204.98 69.725C204.814 69.385 214.85 79.3157 215.091 79.7222C215.298 79.9953 214.727 80.3366 214.921 80.6361C214.982 80.7282 216.425 82.1461 217.665 83.4132C218.477 84.2397 219.177 84.9799 219.347 85.206C219.469 85.368 219.557 85.4944 219.62 85.588C219.247 84.849 222.388 88.458 222.097 88.4949C221.984 88.4846 219.887 85.9911 219.802 85.8853C219.773 85.8427 219.75 85.8034 219.727 85.7681C219.833 86.0323 218.775 84.9203 217.473 83.5905C215.376 81.436 212.732 78.7862 213.63 80.0534C211.145 77.7335 214.353 80.0334 212.447 78.3192ZM202.361 68.661C202.502 68.6753 202.633 68.6856 202.753 68.6919C201.937 68.1102 199.679 67.0264 194.892 64.7458C192.696 63.624 190.348 62.544 187.839 61.5257C186.281 60.8973 187.926 62.0064 185.909 61.0792C184.287 60.3377 182.531 59.2536 183.487 59.5274C183.73 59.5944 187.069 61.1629 188.703 61.818C193.512 63.7597 192.392 62.9421 192.689 63.0473C192.871 63.1222 193.952 63.7057 195.091 64.3344C196.234 64.9373 197.27 65.4357 197.985 65.7509C201.678 67.341 202.888 67.9142 203.476 68.6846C203.989 69.2421 204.535 69.8432 205.129 70.5067C204.076 69.5517 203.561 69.2006 203.18 68.9732C203.072 69.0055 202.987 69.051 202.89 69.0382C202.784 69.021 202.709 68.9631 202.361 68.661ZM131.492 155.976C131.748 155.893 134.24 157.475 135.273 157.866C135.006 158.02 132.424 156.528 131.492 155.976ZM49.921 183.122C49.4725 182.92 50.1435 183.604 51.1952 184.592C52.4991 185.878 54.6744 187.518 53.7617 186.552C53.5452 186.324 52.3151 185.266 51.368 184.394C50.7512 183.838 50.2247 183.38 49.921 183.122ZM82.4487 202.932C83.5729 203.37 79.3463 200.998 79.2119 201.246C79.1845 201.337 82.3122 202.884 82.4487 202.932ZM141.864 62.5427C141.674 62.6468 138.795 64.0733 138.697 64.1106C136.629 64.7354 146.088 60.0701 141.864 62.5427ZM127.083 217.785C123.098 217.249 134.92 219.646 131.356 218.649C131.184 218.614 127.279 217.825 127.083 217.785ZM143.329 220.166C142.421 220.123 138.351 219.535 138.279 219.624C138.175 219.815 142.854 220.465 143.329 220.166ZM106.243 114.614C106.614 114.112 106.728 119.828 106.996 121.826C106.618 122.349 106.405 116.566 106.243 114.614ZM109.78 86.9917C109.432 87.4849 109.116 87.957 108.833 88.3997C108.384 89.021 107.597 91.9156 107.284 93.7232C106.921 95.625 106.71 96.7117 106.685 96.4437C106.662 96.217 106.807 94.7128 107.128 92.8461C107.414 91.015 108.136 88.7342 108.595 88.2422C109.081 87.5312 109.648 86.7679 110.299 85.9663C110.529 86.1114 110.469 86.0267 109.78 86.9917ZM106.226 109.473C105.922 108.633 105.928 105.991 105.967 104.306C106.137 104.59 106.113 108.164 106.226 109.473ZM42.7944 176.136C43.7335 176.694 48.2713 181.116 47.366 180.515C46.9532 180.275 42.2031 175.915 42.7944 176.136ZM140.246 63.7911C140.927 63.8648 134.482 67.1845 133.962 67.4075C131.821 68.1828 139.763 64.1009 140.246 63.7911ZM115.376 139.805C116.344 140.522 118.385 143.192 119.864 144.78C118.983 144.252 116.488 141.234 115.376 139.805ZM108.314 128.398C108.33 128.423 108.474 128.804 108.69 129.283C108.901 129.757 109.173 130.299 109.19 130.347C109.521 131.284 108.849 130.205 108.454 129.309C108.051 128.398 107.984 127.873 108.314 128.398ZM65.3579 30.3995C65.2885 30.4886 63.5444 32.3678 63.4753 32.4276C61.7051 33.9128 66.9449 28.2727 65.3579 30.3995Z" fill="#F4C03A" fill-opacity="0.15"/>
</svg>
