<svg width="173" height="150" viewBox="0 0 173 150" fill="none" xmlns="http://www.w3.org/2000/svg">
<path d="M113.296 149.125C112.823 149.165 111.047 149.514 110.318 149.591C111.161 149.902 114.972 149.003 113.296 149.125ZM48.937 109.912C49.0272 109.997 49.1203 110.082 49.2164 110.167C49.5126 110.384 49.8019 110.597 50.094 110.811C49.7863 110.678 49.4616 110.528 49.1193 110.365C48.3114 109.99 47.5273 109.505 46.9459 109.212C46.822 109.15 46.9647 109.587 46.6832 109.418C46.4054 109.248 46.6736 108.958 46.3333 108.663C45.9178 108.356 44.0982 107.12 43.5281 106.392C42.4877 105.203 41.5369 103.659 39.5506 100.833C38.3858 99.1732 37.3498 97.3811 36.3032 95.4088C38.0106 99.3616 35.7341 95.7102 35.3438 94.4388C35.2684 94.1362 35.8529 94.0856 34.228 90.0581C34.1413 89.8322 34.0508 89.6022 33.957 89.3689C32.5088 85.8093 32.641 89.26 31.177 83.7058C33.3604 87.5453 31.738 83.4419 30.8502 80.5C30.7913 80.3047 30.551 79.5874 30.2844 78.6976C29.8405 77.2386 29.3272 75.1873 29.1136 74.0162C28.9915 73.368 29.1805 72.3123 29.0471 71.4559C28.9552 70.8661 28.675 70.4515 28.5605 69.573C28.4033 68.3598 28.2769 67.1576 28.1835 65.9824C27.9501 63.055 27.867 60.2557 27.9805 57.7223C26.8719 59.7998 27.6648 56.014 27.6747 55.9106C27.4788 55.0228 27.0713 58.8674 27.0282 57.3196C27.2118 55.2268 27.5505 53.4143 28.0662 51.7774C28.0983 51.6729 28.1305 51.5692 28.1625 51.4665C28.1312 51.5977 28.1099 51.704 28.0977 51.7867C28.0812 51.9996 28.1584 51.9864 28.2806 51.8408C28.7153 51.1458 29.772 48.7791 29.7626 48.1512C30.1126 48.4828 30.8342 45.7065 31.7155 43.276C32.5956 40.7515 33.443 39.2933 35.2272 36.6968C35.2236 36.7046 35.2202 36.7123 35.2168 36.7198C35.1785 36.8048 35.2212 36.7841 35.2889 36.7339C35.1885 37.0304 34.967 37.5714 35.4801 36.8491C35.3825 37.0739 35.1367 37.4737 34.9275 37.7171C34.7239 37.965 34.5983 38.0038 34.973 37.6652C35.1887 37.4768 34.9521 37.3261 35.1112 37.2423C35.2118 37.1888 36.2511 37.4766 36.9831 36.511C37.1147 36.3351 36.5543 36.4594 36.5854 36.2893C36.6659 36.0985 37.0254 35.7373 40.3492 34.0752C39.4577 34.9533 40.7503 34.4431 43.3583 33.0151C45.6164 31.7239 49.3161 29.9813 50.3131 29.5229C49.9953 29.7595 49.6778 30.0012 49.3641 30.2464C51.0208 29.2804 51.4235 29.4834 51.799 29.3384C52.5189 29.0694 53.4886 28.7115 53.8402 28.5654C54.6635 28.3158 55.6788 28.0882 56.5362 27.9855C58.5688 27.7548 58.6336 28.2791 61.1874 27.8314C60.5792 28.0033 59.9827 28.1776 59.3991 28.3551C61.1299 28.148 62.9578 27.9698 64.8472 27.7986C60.4593 27.4398 65.7659 27.6909 66.1538 27.6828C66.7278 27.6662 65.8842 27.441 66.8447 27.4063C66.9484 27.4045 66.8092 27.6854 68.3209 27.6045C71.5242 27.4264 71.03 27.1192 72.448 27.0006C72.4876 26.9976 72.4756 27.0211 72.5071 27.0509C72.5624 27.1242 72.7983 27.2234 74.0877 27.1743C79.9496 27.093 74.0509 26.9575 73.8186 26.9724C73.5649 26.9577 74.8902 26.1343 72.4395 26.3053C71.7836 26.3589 70.938 26.4521 69.8783 26.5946C71.7587 26.3465 72.1716 25.9412 72.3964 25.8297C72.4201 25.8151 72.442 25.8056 72.4647 25.8022C72.6372 25.7609 75.5989 25.6338 75.7618 25.6597C77.2212 25.7629 75.9518 26.112 76.2371 26.1576C76.457 26.1721 80.0383 25.7577 80.8454 26.7384C82.5961 25.9712 79.8783 25.8689 77.0159 25.8004C76.5905 25.6205 79.7508 25.4383 79.9249 25.4614C84.0432 25.6148 81.7267 26.2388 82.5953 26.7255C83.048 26.9846 84.7421 26.6359 83.1646 27.1482C83.4738 27.1753 83.7414 27.1983 83.9744 27.217C85.4754 27.3747 84.4093 26.9488 84.5419 26.9119C84.7729 26.8532 85.5251 27.1584 85.6244 27.1587C85.7757 27.1525 85.3132 26.8386 85.901 26.8784C86.0065 26.8884 86.8169 27.4524 85.6233 27.3749C87.181 27.6643 86.9497 27.9874 87.6905 27.5413C88.3704 29.0759 88.7585 27.1708 89.2589 27.2998C90.5974 27.6968 89.8209 28.4136 89.8654 28.4798C90.116 28.8278 92.0389 29.7141 93.9914 30.9896C94.9926 31.6303 95.8158 32.1203 96.2519 32.4161C96.12 32.0279 95.2424 31.449 94.1428 30.7565C92.9394 30.0019 91.7315 29.5332 91.4173 29.2652C90.5773 28.5439 91.2639 28.813 92.1138 29.1541C92.9559 29.491 94.0449 29.9679 93.4508 29.0782C93.7699 29.4406 94.1048 29.8199 94.4845 30.2307C94.8977 30.6183 95.3133 30.9963 95.728 31.3642C97.9743 32.0145 95.4757 30.4182 100.383 33.2577C100.655 33.6658 99.849 33.2372 98.97 32.7333C98.0975 32.2351 97.184 31.6624 97.557 32.0903C98.0399 32.6368 100.877 34.1597 100.814 34.2509C100.852 34.4349 98.3662 32.9568 98.6568 33.3479C98.8722 33.6297 100.001 34.2818 101.017 34.7971C102.056 35.324 102.856 35.6869 103.13 35.7586C103.202 35.7434 103.245 35.7012 103.211 35.6148C103.056 35.4702 102.71 35.2185 101.71 34.659C102.48 35.0556 103.041 35.117 103.475 35.1449C103.698 35.0322 104.054 35.0352 104.348 35.4338C104.53 35.6801 103.767 35.5849 103.535 35.8151C103.358 36.1279 103.071 36.0056 105.692 38.1334C105.894 38.0208 105.393 37.5226 104.885 37.1245C104.369 36.7167 103.887 36.4464 103.88 36.4202C103.842 36.3308 104.755 35.7778 104.852 35.7925C104.994 35.5418 109.566 40.4026 111.502 42.1571C111.644 42.2772 111.768 42.3711 111.878 42.4429C110.968 42.2544 116.291 47.5576 116.758 48.3971C116.87 48.601 116.048 48.1857 116.179 48.3942C116.601 49.0544 117.637 50.0902 118.734 51.1523C118.602 50.9024 118.525 50.6465 118.529 50.5375C118.531 50.4225 118.601 50.461 118.653 50.5857C118.784 50.8893 118.864 51.3675 118.843 51.5399C118.831 51.7369 118.75 51.7327 118.766 51.7836C119.076 52.6831 119.028 51.8705 119.229 52.4905C119.293 52.6813 119.424 53.0881 119.678 53.7867C120.185 55.0605 121.116 58.3574 121.142 58.6308C121.149 58.7106 120.589 57.9432 120.828 59.1048C120.861 59.2759 121.103 59.1254 121.575 60.9624C121.647 61.2405 121.713 61.5788 121.754 61.9873C121.945 64.4375 120.933 60.38 120.69 61.4879C121.62 62.9347 120.946 62.9319 121.046 63.3024C121.077 63.4162 121.676 64.355 121.547 65.1852C121.693 64.6043 121.781 63.9135 121.781 63.1117C121.977 63.9163 121.813 65.1857 121.82 65.6395C121.828 65.874 122.288 65.7649 122.165 66.2633C122.121 66.3595 121.08 66.5427 121.745 65.38C121.396 65.2319 121.547 65.8728 121.377 66.0973C121.349 66.1384 120.727 66.1148 120.999 66.5096C121.031 66.563 121.539 66.5266 121.801 66.6848C122.055 66.8235 122.097 67.3312 120.939 68.0137C120.865 68.0543 120.806 67.7193 120.728 67.7573C120.687 67.7776 120.432 68.3249 120.346 68.375C120.277 68.4122 120.262 68.0171 120.171 68.0592C119.992 68.1371 119.941 68.3639 119.957 68.5805C119.949 68.8184 120.058 68.9868 120.296 68.8558C120.401 68.8101 120.524 68.7018 120.631 68.5322C120.588 68.6755 120.538 68.8227 120.465 68.9933C120.328 69.2725 120.157 69.5825 119.967 69.9063C119.859 68.9138 119.171 70.5145 118.446 71.2379C113.77 75.8078 116.496 72.3398 115.534 72.9671C113.935 73.9675 115.833 73.8986 113.559 75.5211C113.355 75.6366 115.403 73.1166 110.886 77.5642C111.577 76.9945 112.298 76.3762 113.018 75.7425C113.082 76.6631 110.449 77.9749 110.334 78.04C110.229 78.1204 110.133 78.1944 110.056 78.2538C108.984 79.0165 109.92 78.6469 107.447 79.9024C107.208 80.0183 106.804 80.4803 106.26 80.6973C104.03 81.6008 108.851 78.8746 108.663 78.5206C108.78 78.4148 103.764 81.4882 103.588 81.504C102.962 82.1607 105.983 80.4223 105.571 81.0382C105.517 81.1796 102.4 82.7788 100.21 83.3327C100.861 83.205 99.3891 83.3629 98.8424 83.3601C97.2143 83.451 95.5882 84.1052 95.4365 83.4259C95.4324 83.3597 95.4336 83.2796 95.4403 83.1838C95.0005 84.2146 94.5961 83.4366 94.3657 83.4124C91.2497 83.0303 91.0258 82.9562 87.8957 82.1341C87.1885 81.9424 86.5001 82.1015 86.2582 81.9846C86.1181 81.9152 86.479 81.6522 85.7769 81.3636C84.8187 80.9992 78.5367 79.5942 78.0405 79.6187C77.516 79.6647 80.6196 80.4663 79.9782 80.6023C79.0318 80.3427 78.0898 80.0566 77.1855 79.7707C77.5621 79.8842 77.5322 79.8912 77.403 79.8172C77.2658 79.7437 77.0036 79.5957 76.6893 79.4045C76.2144 79.1111 76.3317 79.4494 76.1136 79.3071C76.0595 79.3093 74.2047 77.6344 74.3286 77.6053C74.4463 77.6056 75.5714 78.5053 76.524 79.1039C76.9928 79.4036 77.3993 79.6144 77.53 79.6524C77.681 79.6987 77.4725 79.57 77.2777 79.4692C77.5029 79.5028 77.5425 79.4707 77.3156 79.3451C77.3628 79.3451 77.4186 79.3477 77.4748 79.3507C77.6295 79.3631 77.7063 79.5178 77.6181 79.5213C77.5449 79.5314 77.4265 79.4357 77.6171 79.1899C75.547 78.1973 71.0843 74.3126 68.1572 70.918C66.2899 68.7965 65.154 66.9803 64.5825 65.4003C64.7863 67.0251 65.9698 68.9528 67.9129 71.1245C69.0024 72.3536 70.1878 73.5714 71.334 74.7232C71.7921 75.2019 73.4197 76.6118 73.0206 76.6609C71.3056 75.1953 69.3924 73.1985 67.7541 71.2589C66.6465 69.9534 65.7902 68.7562 65.1612 67.817C65.1122 67.7441 65.0284 68.1615 64.8284 67.8978C64.4048 67.374 64.175 65.6473 64.0122 65.4163C63.9623 65.3769 63.9426 66.4117 63.6247 66.2178C62.7878 65.6627 64.0077 65.0896 63.8218 64.3968C63.7162 64.0496 63.3616 63.0348 62.6853 59.8652C62.8145 60.7223 62.7466 60.7523 62.7434 60.7567C62.7293 60.7345 62.7257 60.5727 62.74 60.3945C62.7677 60.0264 62.8589 59.5888 62.9854 59.3459C63.2652 58.7943 63.2126 59.5642 63.2063 60.2303C63.2024 60.5503 63.2224 60.8184 63.253 60.7389C63.2672 60.7015 63.2798 60.5728 63.2782 60.3692C63.2784 60.1724 63.2575 59.8948 63.2608 59.7526C63.2966 59.8187 63.3239 59.8255 63.3409 59.7604C63.3398 59.7528 63.3387 59.7452 63.3377 59.7376C63.5477 60.7054 63.5196 60.7399 63.5541 60.7494C63.5759 60.7281 63.5967 60.5407 63.6264 60.308C63.6848 59.8303 63.7719 59.1481 63.8817 58.4268C64.1024 56.9708 64.4064 55.3242 64.8119 53.7058C64.8741 53.4435 64.9496 53.1931 65.0408 52.9524C65.0525 52.9239 65.2192 53.2783 65.3944 52.9064C65.7092 52.2753 65.4524 51.9399 65.5677 51.5761C65.663 51.1899 66.5835 49.9329 66.6477 49.6583C66.6514 49.6221 66.1306 49.6578 66.0907 49.6949C65.5184 50.1992 65.83 50.6811 65.8007 50.7338C65.695 50.9368 65.4155 51.0297 65.327 51.2133C65.1823 51.5184 65.2595 51.7568 65.103 52.1423C64.9993 52.4101 64.7929 52.0172 64.6978 52.2845C64.642 52.4026 65.0512 53.6482 64.2645 53.5448C64.1732 53.508 64.3917 51.6227 65.9355 49.4659C67.4804 47.1825 70.3579 45.0924 73.3132 42.6513C73.41 42.5774 73.4878 42.5277 73.5394 42.5038C73.4794 42.5706 73.4201 42.6388 73.3631 42.7072C71.4274 44.4926 70.6059 45.1535 69.6934 46.0391C70.5794 45.1544 71.6069 44.5078 73.52 42.8831C74.0632 42.4479 74.5046 42.1729 74.282 41.666C75.0011 41.2169 75.7732 40.896 76.6678 40.695C78.5412 40.2503 82.0457 40.273 85.7455 40.6933C89.7367 41.0849 91.323 41.1679 93.9497 41.7349C93.5369 41.6876 92.6109 41.0766 92.677 41.0588C92.6945 41.0333 93.2999 41.7812 94.1111 43.1199C95.216 44.7869 95.1446 43.8448 96.7564 46.3424C96.8642 46.5048 96.9805 46.7041 97.1041 46.9547C96.915 46.7943 96.7235 46.6409 96.5292 46.4932C95.9985 45.8996 95.5151 45.3412 95.0691 44.8319C95.315 45.1819 95.7195 45.7879 96.3175 46.6338C97.0961 47.6068 97.9689 49.1957 98.6449 51.172C98.194 49.711 98.2994 49.4766 98.2617 49.2644C98.253 49.0892 98.2484 49.0892 98.2313 49.0836C98.2228 49.085 98.0823 49.0679 97.9327 49.0979C97.7801 49.1338 97.6295 49.221 97.507 49.6576C97.2627 50.4721 97.5633 50.8188 97.4439 51.3753C97.3328 51.8551 97.0021 52.3141 96.961 52.4501C96.9374 52.5315 97.0527 52.6372 97.0732 52.7982C97.0835 52.8409 97.0854 52.8869 97.0726 52.9345C96.8976 53.538 96.5256 52.7596 96.9384 53.6492C97.0344 53.5585 97.1318 53.4581 97.2314 53.3452C97.0011 54.0116 96.708 54.9225 97.4648 54.2379C97.591 54.1096 97.3034 54.098 97.3764 53.9897C97.549 53.7331 97.7057 53.463 97.8501 53.1869C98.8322 51.201 98.9382 50.6333 98.9561 50.888C98.9525 51.1209 98.6588 52.2165 98.094 53.3089C97.7579 53.9624 97.4121 54.3812 97.0339 54.6809C96.988 55.0924 96.5171 55.4707 93.9105 58.103C94.6293 57.3388 95.1008 57.1356 95.2593 57.0457C95.4311 56.9628 95.4099 56.9803 95.4207 56.9916C95.4375 57.0405 95.4694 57.1334 95.5069 57.2437C95.5316 57.3574 95.6441 57.4658 95.5439 57.6253C95.5308 57.6414 95.4002 57.6836 94.9763 57.748C94.5639 57.8117 93.8636 57.8721 93.1703 57.9047C92.1071 57.9553 91.4461 57.9456 92.2934 58.2305C92.4114 58.2654 92.7374 58.2866 93.1831 58.272C94.3875 58.2487 95.539 57.9903 95.6221 57.957C95.4749 58.3669 94.4314 58.5175 93.188 58.4132C91.8833 58.2937 91.025 57.8017 90.8623 57.7885C90.2562 57.7263 90.7721 58.0149 91.1903 58.2337C91.6256 58.4339 91.7854 58.6855 90.2989 58.4425C88.2149 57.8918 90.2746 57.9968 89.6013 57.5461C89.4234 57.4189 88.8116 57.2907 88.2643 56.9825C87.7228 56.6899 87.2012 56.1874 87.4657 55.9327C86.7197 55.18 86.9202 55.8647 86.8054 55.8027C86.7653 55.7764 86.5991 55.6057 86.2933 55.2845C85.9501 54.9407 85.6379 54.5392 84.4901 53.5398C84.3912 53.4364 84.3593 53.4019 84.2902 53.4118C84.2662 53.4129 84.0032 53.6907 83.9704 53.7001C83.936 53.6993 83.8815 53.6333 83.805 53.4678C83.731 53.316 83.6012 52.9412 83.6032 52.8988C83.613 52.8671 84.0462 53.0341 84.0686 52.8819C84.097 52.806 83.7951 52.0689 83.4509 50.9297L83.6159 51.4951C83.8484 52.4548 83.813 52.6083 83.8417 52.7665C83.8566 52.898 83.8657 52.923 83.8807 52.9358C83.9048 52.9464 83.9237 52.9405 83.9335 52.8298C83.9378 52.7726 83.9408 52.6859 83.9276 52.5037C83.9097 52.3138 83.8966 52.0623 83.7511 51.4601L83.5837 50.8864C83.9886 52.028 84.2903 52.6852 84.4433 52.3938C84.2991 52.1138 84.1367 51.6031 83.9111 50.7799L84.0845 51.3739C84.3027 52.2232 84.3071 52.5103 84.3393 52.7193C84.3627 52.9142 84.3727 52.9775 84.3875 53.0003C84.4152 53.0371 84.4554 52.907 84.5095 52.7593C84.6172 52.4514 84.7701 52.0509 84.912 51.7908C84.8526 51.887 84.7682 52.2583 84.7213 52.566C84.6717 52.8843 84.6705 53.0691 84.688 53.0083C84.8245 53.0243 84.9227 53.0497 85.0019 52.9259C85.0807 52.8088 85.1447 52.5659 85.1881 52.307C85.2753 51.7865 85.2595 51.2727 84.963 51.7179C85.2957 51.1521 85.3444 51.5888 85.6222 51.2808C85.6893 51.2072 85.8846 50.2867 86.0202 50.1175C86.0397 50.105 86.0463 51.1009 86.1947 50.9292C86.3109 50.798 86.4781 50.1712 86.656 49.4573L86.5346 49.9393C86.563 49.8506 86.5765 49.818 86.5617 49.8595C86.5493 49.896 86.4995 50.015 86.485 50.036C86.4408 50.1092 86.7046 49.5125 86.7376 49.4016C86.8476 49.0665 86.7924 49.0938 86.6419 49.3277C86.4939 49.5554 86.2636 49.9409 86.2228 49.9227C86.1787 49.913 86.2037 49.7129 86.1489 49.7076C86.1018 49.6845 86.0264 49.7476 85.9663 49.7498C85.9463 49.7458 85.8982 49.5123 85.7134 49.6613C85.6225 49.7205 85.5962 49.6231 85.6828 49.3251C85.7614 49.0431 85.8562 48.7428 85.8503 48.7311C85.7803 48.6253 85.612 48.8577 85.4467 49.1245C85.2732 49.4073 85.1999 49.5387 85.2169 49.4697C85.2524 49.3017 85.1614 49.5117 84.993 49.4107C84.9852 49.2937 84.9456 49.2951 84.8885 49.3277C84.827 49.368 84.8256 49.2686 85.0061 48.785C84.8848 48.9897 84.7857 49.1473 84.7348 49.2108C84.6822 49.2776 84.6735 49.255 84.6652 49.231C84.6541 49.1691 84.61 49.2016 84.5358 49.3911L84.6358 48.9939C83.9772 51.0981 83.77 53.5968 83.5018 52.8712C83.5239 53.1702 83.5411 52.8072 83.5953 52.4846C83.6463 52.1365 83.7154 51.7076 83.7842 51.2811C83.9228 50.4205 84.0586 49.554 84.0984 48.8706L84.0041 49.2452C83.9996 48.9976 83.9247 48.939 83.8077 48.8943C83.6901 48.8523 83.5576 48.7683 83.3835 48.6913C83.2158 48.63 83.072 48.5888 82.9418 48.6022C82.81 48.6168 82.6678 48.7795 82.5819 48.8552L82.661 48.5409C82.6277 48.5864 82.6031 48.608 82.5895 48.5959C82.5678 48.5756 82.5516 48.5477 82.5402 48.5132L82.4623 48.8224C82.3762 48.6365 82.4793 48.3915 82.5565 48.3599C82.6174 48.3469 83.0988 47.5221 83.1017 47.4807C83.1239 47.3726 83.1234 47.3162 83.1032 47.3075C83.1032 47.3075 83.1032 47.3075 83.1031 47.3075C83.0498 47.2416 82.6365 47.9785 82.4581 48.2086C82.3734 48.3204 82.3461 48.3104 82.2902 48.3831C82.2373 48.4493 82.1697 48.5804 82.1053 48.7244L82.1793 48.4304C82.0529 48.8013 81.9581 49.0746 81.9194 49.1114C81.769 49.2469 81.5255 48.6734 81.3377 48.2374L81.2726 48.4961C81.1663 48.317 81.0721 48.189 81.0172 48.172C81.0068 48.1774 80.9641 48.2555 80.8988 48.3935L80.9599 48.1507C80.7459 48.7237 80.3834 49.7284 80.2834 49.1531C80.2351 48.8688 80.2582 48.4404 80.3123 48.0022L80.258 48.2178C80.3414 47.6073 80.4404 47.4043 80.4603 47.3064C80.449 47.2168 80.3406 47.3375 80.2452 47.4544C80.15 47.5695 80.0295 47.7834 79.8967 48.1187L79.9472 47.9184C79.7162 48.6278 79.5184 49.3102 79.4643 49.344C79.4164 49.3772 79.4357 48.3592 79.4323 47.8003L79.3873 47.979C79.3833 47.8265 79.3742 47.7266 79.3547 47.7107C79.3297 47.6923 79.2631 47.7709 79.1696 47.9193L79.2123 47.7498C79.0065 48.1552 78.692 48.8711 78.4252 49.1985C78.1309 49.559 78.2097 48.3512 78.1351 48.5497C78.0513 48.7075 77.5032 51.8511 77.5003 51.941C77.4198 52.1512 77.2428 51.4296 77.1683 51.52C77.0488 51.6666 77.0583 52.606 76.9775 52.4709C76.8151 52.5073 76.6162 48.3147 76.4267 48.2643C75.9935 48.226 76.1176 52.7922 75.3027 48.3991C75.2962 48.3675 75.6229 47.386 75.6213 47.3571C75.4851 46.7318 74.5229 49.2607 75.054 46.796C75.124 46.5367 75.2143 46.232 75.3508 45.8715C75.2101 46.195 75.097 46.4977 74.998 46.7751C73.3288 52.6076 74.4065 46.6937 73.5597 47.6079C73.1892 47.9684 72.5641 50.9614 72.5519 50.9969C72.2556 50.6474 72.6619 49.7015 72.5606 49.352C72.4826 49.1278 71.7434 51.8907 71.6067 51.2417C71.4964 50.8486 72.0473 47.9269 72.0663 47.8197C72.0884 46.645 71.5717 47.9854 71.4726 47.707C71.4201 47.5648 71.6128 46.5394 71.7166 46.0305L71.7532 45.8851C71.7997 45.6971 71.8344 45.5662 71.834 45.5514C71.8313 45.5288 71.7625 45.6554 71.6629 45.8604L71.6253 46.0096C71.3432 46.6011 70.7685 48.0351 70.589 48.4108C70.4035 48.7751 70.5095 47.2975 70.4102 47.5561C69.7685 49.0577 70.0332 52.978 69.4972 49.225C69.4649 48.9941 69.7288 47.7151 69.7266 47.6785C69.587 46.8324 69.1057 49.1742 68.8087 49.6147C68.2659 50.314 69.0872 46.7717 68.3075 49.709C68.3673 47.9312 68.5516 46.8699 68.9121 45.3872L68.9783 45.1241C69.1398 44.5696 69.3671 43.8494 69.7436 42.9966C69.3879 43.7988 69.1386 44.5422 68.9523 45.1169L68.8858 45.3812C68.1019 48.0615 67.5358 50.0016 67.2423 50.2215C66.9586 50.4372 66.8869 48.6624 67.6865 45.2111C67.1687 47.6294 66.6424 47.2802 66.4853 48.0385C66.4382 48.279 66.4003 49.3744 66.2733 50.2699C66.1461 51.1622 65.9047 51.8552 65.326 50.6817C65.1689 50.3231 65.7676 47.8985 65.3017 48.6141C64.5939 55.151 65.0239 48.5422 65.0168 48.6896C64.8681 48.6826 64.6832 49.1533 64.5052 50.0716C64.4172 50.5408 64.3295 51.1077 64.2697 51.9146C64.2413 52.3221 64.2179 52.7846 64.2292 53.4099C64.2608 54.0728 64.2262 54.7472 64.6249 56.4102L64.797 57C65.2018 59.2137 68.7796 66.3092 72.096 68.4387C71.9784 68.3271 72.1601 68.4805 72.3046 68.6192C72.4623 68.7683 72.6268 68.931 72.743 69.0529C74.5107 71.0069 77.0439 73.6024 77.715 73.9679C80.0135 75.3272 78.2632 73.9252 78.8365 74.1229C79.2671 74.5566 86.2164 77.7508 86.6531 77.5434C88.0802 77.6783 86.7316 77.0329 86.8856 77.041C87.8195 77.1237 90.9363 77.6186 93.851 77.5195C96.1748 77.4983 98.9672 77.1292 100.418 76.6824C100.241 77.1057 94.8588 77.9019 98.2825 77.808C100.353 77.7053 101.674 77.1076 102.296 76.6572C102.935 76.1946 102.938 75.8731 102.995 75.8267C104.74 75.1144 106.866 73.9843 108.827 71.8759C109.452 71.2923 114.598 66.5 116.321 62.4263C117.45 60.1603 118.334 57.8629 118.992 55.2993C119.317 54.0089 119.588 52.6628 119.739 51.058C119.816 49.3743 120.148 47.8069 119.055 44.1867C118.096 41.2952 116.558 37.6697 114.475 34.5774C113.938 33.7705 113.306 32.6848 112.481 31.341C112.796 31.2608 114.013 33.2768 114.726 34.4111C116.194 36.6487 117.197 39.0164 117.276 39.0957C117.661 39.5406 116.81 37.1721 114.944 34.2661C114.281 33.2263 113.256 31.3375 111.809 29.2175C110.417 27.1133 108.317 24.9825 107.538 24.4223C109.429 25.9415 110.785 27.512 111.86 28.8451C111.379 27.6698 110.16 25.8526 107.799 23.8486C105.487 21.8275 101.808 20.1062 98.807 19.5106C98.2636 19.389 97.7387 19.262 97.2483 19.1239C96.1279 18.8098 98.3649 18.9814 98.3155 18.9606C97.1129 18.4336 94.9554 18.2762 96.4648 18.8929C93.3431 18.027 93.6478 18.4778 91.346 18.2514C91.2416 18.2432 92.1813 18.0613 90.492 17.7864C90.1469 17.7297 89.2085 17.6334 88.4119 17.5134C86.9863 17.3103 85.3936 17.1178 85.0503 16.962C84.7987 16.8363 87.2718 16.0006 87.4549 16.9348C87.8472 16.9412 88.1845 16.9522 88.4749 16.9658C89.6908 16.9841 89.9156 17.1191 89.8587 17.2653C89.8254 17.4116 89.5911 17.5659 90.358 17.6285C90.7153 17.6863 89.7126 16.9592 94.9552 17.8962C94.1213 16.9056 89.3441 16.9012 88.4896 16.8376C88.2691 16.8172 88.0954 16.7958 87.9857 16.7708C87.4006 16.6394 87.7349 16.5823 88.5172 16.5977C89.4745 16.5389 94.0906 16.8782 95.2107 17.6059C94.5461 16.7928 95.8867 17.5887 97.7973 17.9406C98.5338 18.0768 98.8899 18.1221 99.1088 18.1299C99.864 18.2362 99.6343 18.0588 101.041 18.4784C106.857 20.82 104.413 20.244 108.574 22.7515C106.289 21.8225 108.094 23.1229 110.04 24.9592C112.025 26.8269 113.761 28.8714 114.442 29.6077C112.824 26.9461 109.611 21.6998 103.04 18.8406C103.423 18.9227 103.81 19.0181 104.195 19.1239C102.588 18.3502 100.885 17.7898 99.2581 17.4468C99.2465 17.4444 99.235 17.442 99.2234 17.4397C99.2337 17.4479 99.2439 17.4562 99.2542 17.4645C99.4853 17.5808 99.7135 17.7008 99.9384 17.8242C99.6956 17.7489 99.4563 17.6798 99.221 17.6164C95.2145 16.3683 93.9163 16.7936 93.5911 16.7365C91.6146 16.5077 89.8033 16.396 88.5565 16.2562C85.7637 15.9464 82.7295 15.7075 79.6637 15.7402C78.8274 15.8282 79.6369 15.013 73.3809 16.1334C71.5878 16.5375 72.8891 16.5928 71.6973 16.8631C71.5117 16.9076 71.2712 16.9591 70.9492 17.0269C67.6543 16.8631 67.9122 17.7044 67.0372 17.9971C64.4971 18.9436 62.9369 19.5882 62.7076 19.6975C60.8448 20.6752 58.5887 22.1983 56.6312 23.9579C56.5301 24.0558 55.7026 24.7138 55.0109 25.2471C54.9712 25.2742 55.7588 24.2655 54.5966 25.3067C54.2797 25.6445 50.5327 29.9944 46.659 34.3892C47.5136 33.1438 48.4225 31.971 49.3558 30.8734C48.8151 31.5043 46.4328 34.0266 44.6779 36.553C42.9038 39.0424 41.7293 41.3157 42.2902 39.7662C42.9708 37.7978 46.3397 34.3956 46.0616 33.5767C44.9379 35.1253 41.0442 40.5031 39.392 46.991C37.9214 52.0871 37.0654 58.3582 37.2153 59.8479C37.2246 60.114 37.5662 58.4038 37.58 58.7957C37.6452 59.1189 37.1999 60.5648 37.8758 64.7195C37.9624 65.1369 38.0801 65.7716 38.148 65.9436C38.1994 66.0769 38.1989 65.7439 38.207 65.4466C38.2146 65.1456 38.2307 64.8907 38.2838 64.9266C38.3239 64.9447 38.503 65.7609 38.7342 67.1549C38.9535 68.5086 39.2862 70.2193 39.1793 70.4316C38.8655 68.6915 38.2183 65.2575 38.2533 67.1272C38.255 67.3546 38.7073 68.6795 38.744 69.0419C38.9752 71.7184 37.8176 65.8539 37.6686 64.7601C37.219 62.1775 37.344 61.3187 37.3143 60.7672C37.2875 61.7387 37.2271 62.7391 37.5741 64.7786C37.4751 67.3991 40.785 78.882 44.4093 83.6035C46.2249 85.8465 42.4061 79.7714 44.3726 82.4122C48.5222 87.5911 45.0711 84.0894 45.1586 84.2905C45.5631 85.1352 47.1422 86.5941 48.3157 87.6937C49.2015 88.5248 49.8473 89.2223 49.4884 89.5478C51.0268 90.9918 50.6435 90.4081 52.6048 92.62C52.2771 92.3977 51.9506 92.1729 51.6257 91.9457C53.3665 94.8118 59.9772 98.2789 59.6828 97.8032C58.6705 96.6364 55.6047 94.594 55.3986 94.3613C55.0798 94.0074 54.8653 92.456 50.7939 89.5259C49.9294 87.5984 56.5925 94.7699 53.8212 91.2436C55.7443 93.532 65.266 101.172 70.2323 102.522C70.2385 102.525 70.2446 102.528 70.2505 102.532C70.4218 102.626 69.3441 103.084 72.1151 103.515C73.4321 103.717 70.3855 102.805 71.0178 102.816C72.5493 102.8 82.5068 106.367 93.6272 107.621C97.6052 108.086 103.58 108.096 106.45 107.196C106.896 107.08 106.806 106.944 107.049 106.817C107.086 106.793 107.135 106.771 107.204 106.751C108.38 106.46 112.423 105.322 114.139 104.343C110.564 106.462 117.885 103.141 119.489 101.947C122.053 100.283 121.649 100.006 122.694 99.1856C123.524 98.5134 124.477 97.7866 125.51 96.9519C128.984 94.1315 132.684 91.1742 134.17 88.6354C134.55 89.1797 136.526 86.4397 138.425 83.5766C139.151 82.503 139.835 81.3814 140.362 80.5483C142.028 78.0478 144.239 73.9921 142.855 78.0364C145.272 73.1259 146.345 67.2994 146.117 62.5477C146.081 61.7638 145.889 62.8566 145.819 61.521C145.811 61.4035 146.07 61.2153 145.968 60.0806C145.692 57.3094 145.301 55.8894 145.075 55.0986C144.624 53.6894 144.667 55.1056 144.335 54.2527C144.068 53.5701 143.887 53.055 143.77 52.6691C143.988 53.535 144.197 54.4122 144.396 55.268C145.383 59.2294 145.479 63.4525 145.42 64.7969C145.12 63.8348 145.077 59.0402 144.181 55.3217C143.846 53.72 143.499 52.2132 143.217 51.4016C143.19 51.3222 142.964 51.6873 142.939 51.6058C142.939 51.6041 142.938 51.6024 142.938 51.6007C142.759 50.901 141.466 46.4773 141.479 45.8781C141.499 45.844 141.528 45.8316 141.57 45.8453C141.594 45.8671 141.624 45.9019 141.66 45.9509C141.876 46.2314 142.862 49.0564 143.618 52.0714C143.464 51.235 143.97 51.7535 143.945 51.6052C143.735 50.3453 142.841 47.7347 141.977 45.6976C141.81 45.3682 141.579 44.7718 141.423 44.3379C141.3 43.9934 141.519 43.9385 141.5 43.8794C140.89 42.2779 140.593 43.2461 140.374 40.9749C139.095 39.1959 140.076 41.1807 140.711 42.9868C141.371 44.8778 141.685 45.7837 141.394 45.7076C141.277 45.6763 141.077 45.2243 140.49 43.5622C139.914 41.9811 138.756 38.829 136.301 35.9631C133.757 32.8983 131.061 29.476 131.314 29.2715C131.228 29.2754 131.021 29.1681 130.653 28.8979C130.249 28.6013 129.337 27.6372 128.46 26.6724C127.53 25.6452 126.61 24.6136 126.368 24.2785C126.29 24.1647 126.77 23.7775 126.657 23.6522C126.402 23.326 121.955 19.579 120.162 17.7458C121.249 18.5174 122.258 19.2915 123.219 20.0616C120.487 17.5403 118.933 16.4076 118.678 16.1221C118.398 15.8352 119.345 16.3925 120.46 17.1772C120.566 17.2607 120.686 17.3279 120.786 17.407C122.504 18.6288 124.353 20.2106 124.416 20.2043C124.653 20.1864 119.22 15.0042 115.678 13.4478C114.928 13.1061 114.664 13.0781 115.14 13.4869C115.179 13.52 115.317 13.6009 115.526 13.7191C117.396 14.698 121.088 17.3997 118.567 15.9394C118.259 15.7668 116.887 14.7463 115.419 13.9081C114.612 13.4417 114.033 13.1362 113.952 13.1133C113.481 12.9983 114.105 13.4459 115.237 14.2332C117.641 15.8275 119.852 18.0155 119.175 17.7996C118.235 16.737 116.845 15.6929 115.001 14.6517C114.165 14.1831 113.419 13.8026 112.779 13.4329C111.973 12.9688 111.948 12.6122 111.853 12.5569C110.533 11.7929 111.15 12.4701 110.715 12.2371C110.419 12.0953 108.57 10.2771 108.518 11.3281C108.045 10.9949 107.662 10.7018 107.341 10.4425C105.182 8.80768 104.176 8.10699 104.465 8.17803C104.708 8.22608 106.111 9.02664 107.625 10.006C108.574 10.6154 109.861 11.3532 111.427 12.1672C110.377 11.3727 108.819 10.5351 107.742 9.82533C106.961 9.31647 106.152 8.8025 105.578 8.42032C104.931 7.99402 105.502 7.96079 104.375 7.22674C102.626 5.72505 91.7344 1.41768 86.0401 1.56344C85.3819 1.52908 84.8323 1.50696 84.4284 1.49203C86.3415 1.73763 85.7485 2.03762 84.2783 1.91549C82.7999 1.80358 84.0698 1.41818 83.7839 1.35184C83.4845 1.22257 76.4516 1.29607 75.2704 1.35149C80.5853 1.42858 79.3713 1.76157 74.8963 1.91104C75.5485 1.98499 76.1985 2.06613 76.8456 2.15431C75.2198 2.08787 72.4747 2.38219 70.2997 2.69139C69.2242 2.85196 68.2413 2.96538 67.7496 2.94402C67.5462 2.93456 68.248 2.59101 68.1341 2.58562C67.0258 2.55087 63.041 3.13361 62.8298 3.05393C62.6645 2.98373 64.3732 2.61344 63.7237 2.54241C63.5896 2.52771 61.9574 3.03751 60.2649 3.08359C59.6365 3.10138 59.9898 2.79754 59.8307 2.79519C58.4933 2.78282 59.3336 3.15849 56.8677 3.32858C55.0413 3.46971 53.6321 3.15861 50.9173 3.74877C59.2629 2.05092 52.8818 2.9687 48.7371 3.64981C48.5932 3.67505 48.4525 3.70044 48.3149 3.72575C47.6187 3.87913 47.8349 3.20292 44.1981 4.55293C52.5858 3.12722 41.9256 5.58013 40.2884 6.44266C40.1878 6.48621 40.2641 6.80132 39.3491 7.17576C39.2701 7.20857 39.3011 6.95284 38.4412 7.29304C30.3967 10.7662 35.6069 8.6897 34.1951 9.58099C33.8462 9.81431 32.3527 10.4778 30.9765 11.169C30.2992 11.4872 29.5613 11.8234 29.2208 12.0046C29.0293 12.1073 29.2364 12.2565 28.4739 12.658C27.1148 13.3715 25.6607 13.8905 24.6266 14.4701C24.4949 14.555 24.7256 14.7952 22.6212 15.9705C22.0237 16.3117 21.2704 16.6625 22.065 16.0129C24.5023 14.0163 28.9065 12.3014 30.8662 10.9744C31.1275 10.8073 31.3734 10.6456 31.6053 10.4864C32.6038 9.81023 31.9369 10.069 30.7112 10.701C29.4238 11.3389 26.3936 12.9397 26.1195 13.1023C25.9711 13.1822 27.5883 12.4973 26.0472 13.3873C24.729 14.1626 21.8 15.053 19.2803 17.1396C19.1102 17.2397 17.2894 19.4884 17.4037 19.4694C17.4563 19.4306 18.3598 18.6454 19.1304 18.1039C19.9069 17.5482 20.5782 17.1584 20.4068 17.3753C20.3834 17.3875 18.3971 18.9397 18.1775 19.3296C17.9241 19.7326 17.973 21.5774 17.567 22.0903C16.4781 23.477 16.9896 22.3849 16.246 23.3702C16.0184 23.6879 15.7116 24.1416 15.3695 24.7429C15.336 24.9998 12.8979 29.0176 12.6011 28.837C13.0347 28.0622 13.4994 27.2908 13.9426 26.5855C11.2672 30.6367 12.2413 28.8434 11.7918 29.3765C11.3333 29.9927 11.7813 30.0093 11.0501 31.4794C10.7755 31.8215 8.09161 37.7724 8.04831 37.5879C9.61619 34.4032 8.68195 35.4189 8.72398 35.2665C8.94268 34.6664 9.53009 34.0458 9.89779 33.2507C12.6536 27.6598 9.39825 33.0752 9.96134 31.7076C10.1487 31.2395 10.8573 30.4274 10.9517 30.2336C11.2651 29.5789 10.9878 29.4194 11.2572 29.0025C11.8823 28.0548 11.6068 29.4254 11.6749 29.3594C12.3998 28.5953 14.2271 25.2099 12.4976 26.9304C13.1335 25.6322 13.7538 25.8174 14.0564 24.9507C14.1907 24.5458 14.1667 24.4322 14.1186 24.4024C14.0675 24.3764 13.9729 24.4604 13.8243 24.6421C13.5341 24.994 12.9604 25.8427 12.6726 26.2073C10.6157 28.871 10.1728 30.0154 8.20975 34.1356C7.52097 35.6194 6.57863 37.2501 6.30934 37.9334C6.10173 38.3887 5.7273 42.6656 4.19079 42.3003C4.05018 42.9526 4.01701 43.7845 3.9935 44.6643C3.88972 46.1623 3.8868 47.7168 3.63601 48.827C3.26465 50.5151 2.82265 49.878 2.76903 50.0331C2.68181 50.2774 2.41626 52.3368 2.26988 53.0097C2.08838 53.7982 1.90978 53.3797 1.70542 54.6418C1.24608 57.7672 1.88634 57.6825 1.89913 58.0019C2.2483 61.6228 1.48024 60.0192 1.40386 60.8266C1.35997 61.268 1.50714 64.9621 1.84902 68.2345C2.08071 70.6276 2.39023 72.8308 2.43235 73.7075C2.42291 72.8436 2.42476 71.9791 2.43836 71.1132C2.97236 72.5919 2.6363 74.2691 3.27807 74.2018C2.28502 74.6671 3.49863 77.6649 3.66869 78.5855C3.73054 78.9523 3.55067 78.9586 3.63714 79.4174C3.91989 80.9963 4.8227 84.2693 5.20363 85.7063C5.25381 85.9038 5.29211 86.0658 5.31487 86.1845C5.64929 87.8703 5.2678 87.2806 4.67705 85.8534C3.75214 83.6736 2.59929 79.5542 2.48929 79.0384C2.68524 80.0762 3.50251 84.0526 3.90586 86.0689C4.15484 87.3636 4.13517 87.8455 3.46203 86.1929C3.45575 86.1773 3.44942 86.1615 3.44305 86.1455C3.17278 85.4722 3.3043 84.1325 3.22738 83.744C2.70623 81.1055 2.80013 83.2551 2.7117 83.0612C2.55999 82.7253 2.5579 80.9135 2.41832 80.4715C2.37473 80.3218 2.19758 81.383 1.68095 78.8789C1.58098 79.831 2.53235 83.7955 3.27559 86.245C3.54649 87.1685 3.76143 87.8597 3.81441 88.1157C3.89848 88.4145 2.46519 86.7555 5.11172 92.262C5.02049 92.2208 4.92919 92.1792 4.83782 92.1372C5.76421 94.9082 6.80735 97.6331 7.54536 99.7319C7.67509 100.1 7.80785 100.47 7.94378 100.842C7.96708 100.431 7.62378 98.5251 8.393 100.809C8.85312 102.134 8.13581 101.298 8.17083 101.421C8.3668 102.067 11.47 110.59 16.7443 117.584C18.4776 120.108 22.1886 125.026 23.6335 126.394C24.8177 127.797 28.6766 131.412 29.0322 131.596C30.2877 132.604 33.8906 134.829 36.5716 136.039C37.574 136.505 38.4224 136.9 38.7779 137.085C39.4484 137.435 38.6641 137.407 39.2827 137.685C39.8615 137.943 39.3971 137.39 39.5725 137.459C40.7037 138.043 52.6315 143.462 56.3713 143.733C54.1469 143.485 45.1975 139.546 45.6183 139.373C45.6597 139.365 47.8416 140.001 48.2572 140.271C49.0656 140.311 51.4045 141.991 52.9591 142.285C53.1363 142.31 52.5867 141.721 55.282 142.381C56.0415 142.561 57.7742 143.239 59.8151 143.485C60.1719 143.522 60.5468 143.544 60.9247 143.542C63.6325 144.273 77.8109 146.114 80.2293 146.705C80.3358 146.737 80.4132 146.767 80.4593 146.796C80.4654 146.802 80.3638 146.802 80.2169 146.801C79.6706 146.795 78.5416 146.778 79.7175 147.089C79.8945 147.135 80.0423 147.169 80.1664 147.191C81.3843 147.419 80.213 146.524 82.2679 146.718C82.5839 146.754 88.9144 147.623 89.148 147.69C91.0539 148.407 85.3843 147.951 85.4807 148.012C85.6362 148.183 90.3111 148.818 90.5306 148.797C90.7126 148.782 86.908 147.711 91.5513 148.461C91.0009 148.483 90.4594 148.503 89.9146 148.522C92.0982 148.912 92.373 148.476 92.9161 148.502C94.6205 148.571 96.4339 149.435 99.4562 148.71C100.256 148.514 98.9553 148.215 99.0579 148.184C100.001 147.921 101.209 148.772 102.728 148.156C102.873 148.083 99.2309 147.857 105.554 147.653C105.103 147.738 104.665 147.817 104.228 147.89C104.663 147.936 106.398 147.93 108.37 147.712C109.861 147.561 111.497 147.346 111.881 147.272C114.051 146.851 112.06 146.747 114.31 146.425C112.881 147.308 120.068 145.932 119.559 145.462C120.758 145.875 126.754 143.422 129.215 142.233C129.342 142.178 129.48 142.119 129.627 142.056C131.063 141.456 133.581 140.596 133.973 140.391C134.488 140.121 134.159 139.807 135.087 139.294C135.35 139.148 138.358 138.155 140.729 136.599C141.189 136.298 141.93 135.175 140.939 135.432C139.24 135.873 136.524 137.715 136.389 137.313C136.248 136.885 140.338 135.345 141.395 134.791C146.268 132.24 143.184 133.133 143.252 132.945C143.432 132.477 146.172 131.189 146.279 131.097C146.693 130.742 144.623 131.427 144.506 131.241C144.349 131.011 146.77 129.28 146.128 129.485C145.206 129.79 142.981 131.306 142.82 131.356C140.724 132.031 143.166 130.184 143.776 129.538C143.961 129.343 142.989 129.625 143.164 129.51C145.844 127.751 144.161 130.049 146.043 129.039C147.732 128.12 145.328 128.828 145.384 128.771C145.456 128.712 147.505 127.675 147.765 127.367C147.866 127.261 142.204 129.084 142.278 128.619C143.992 127.904 145.703 127.173 147.453 126.371C147.363 125.881 145.081 127.418 144.814 127.485C144.264 127.641 145.565 126.735 145.438 126.625C145.357 126.558 143.566 127.045 144.986 126.192C145.42 125.928 146.436 125.732 147.872 124.768C148.049 124.649 148.228 124.519 148.409 124.38C148.202 124.474 148.002 124.564 147.81 124.65C141.997 127.134 146.108 124.764 146.209 124.528C146.317 124.282 143.068 125.476 146.825 123.645C146.551 122.724 146.606 123.429 145.476 123.816C144.095 124.271 146.933 122.547 142.333 125.046C142.413 124.533 146.194 122.698 146.378 122.54C146.535 122.422 145.598 122.664 145.862 122.445C146.065 122.277 146.25 122.123 146.405 121.99C148.658 120.047 146.783 121.397 147.48 120.444C147.551 120.363 150.669 118.382 148.179 119.686C147.303 120.139 146.53 120.553 145.844 120.927C142.994 122.458 141.681 123.264 140.601 122.593C142.092 121.581 143.867 120.768 145.407 120.1C147.135 119.351 148.601 118.806 149.127 118.512C150.648 117.656 148.944 118.329 149.096 118.152C149.147 118.099 150.451 117.355 150.452 117.324C150.715 116.348 147.923 118.343 145.299 119.896C144.154 120.586 143.041 121.198 142.34 121.48C142.865 121.054 143.376 120.63 143.891 120.197C143.102 120.591 142.304 120.977 141.502 121.358C145.156 119.221 141.586 121.2 140.28 120.9C139.986 120.836 142.619 119.927 139.551 120.824C141.597 119.713 140.859 119.886 142.83 119.168C142.649 118.907 138.243 120.623 136.461 121.242C142.256 118.106 139.465 120.821 144.155 117.73C144.156 117.729 144.158 117.728 144.159 117.728C144.563 117.679 144.511 117.801 144.286 117.977C143.904 118.284 142.948 118.751 143.094 118.725C143.414 118.672 143.855 118.443 144.391 118.178C145.217 117.768 146.305 117.262 147.711 117.053C148.095 116.994 146.973 118.134 148.936 116.983C149.155 116.858 150.194 115.8 150.153 115.789C149.851 115.643 148.69 116.463 148.581 116.383C148.477 116.317 149.861 115.569 149.843 115.537C149.698 115.207 148.66 116.091 148.767 115.894C149.041 115.455 153.267 111.95 147.248 115.855C152.618 113.117 148.199 115.837 145.955 116.851C145.4 117.108 145.155 116.996 144.345 117.343C144.24 117.388 144.134 117.436 144.026 117.486C143.108 117.91 142.134 118.484 141.646 118.685C141.058 118.921 144.053 116.9 139.46 119.299C140.535 118.506 142.183 117.716 143.732 116.93C145.359 116.103 146.963 115.267 147.942 114.478C151.742 111.331 144.567 115.489 143.585 115.823C143.363 115.92 143.941 115.282 143.791 115.341C143.73 115.367 143.481 115.503 143.09 115.714C141.862 116.391 139.085 117.776 138.656 117.769C138.109 117.766 140.317 116.985 140.337 116.691C140.377 116.504 134.768 118.822 137.689 117.316C139.082 116.6 141.442 115.795 142.739 115.05C143.356 114.699 143.773 114.371 143.851 114.074C143.43 114.292 143.006 114.508 142.57 114.729C140.202 115.915 137.578 117.094 134.97 118.242C136.518 117.222 138.05 116.196 139.523 115.165C136.205 116.687 133.348 118.327 129.907 119.435C137.396 115.079 127.072 119.94 126.89 119.883C126.83 119.84 129.645 117.796 130.084 117.451C127.252 118.431 118.729 122.02 123.317 119.029C122.508 119.605 120.117 120.113 120.126 120.069C120.262 119.578 125.099 117.729 124.181 117.743C123.124 117.759 122.097 118.823 120.689 119.393C120.381 119.517 120.075 119.637 119.798 119.741C114.599 121.429 115.581 119.227 110.24 120.715C110.346 120.621 110.451 120.527 110.554 120.433C108.952 120.767 107.098 121.051 105.048 121.339C101.811 121.865 95.5174 121.346 89.5434 120.7C88.298 120.296 86.1743 119.814 83.766 119.341C80.4759 118.678 76.4967 117.917 74.0259 117.543C73.1953 117.423 69.0442 117.033 68.7201 117.029C68.1269 117.037 71.2754 117.638 69.812 117.59C69.6176 117.584 66.7346 117.136 64.8021 116.728C63.9916 116.55 63.4195 116.348 63.5789 116.253C63.8388 116.294 64.3372 116.429 64.8356 116.548C65.6527 116.733 66.4682 116.914 66.6932 116.91C67.438 116.891 66.579 116.654 64.8826 116.296C61.6369 115.935 51.8806 111.824 51.0259 111.122C51.4947 111.22 51.9571 111.314 52.4145 111.403C51.3901 110.974 50.3419 110.522 49.272 110.053C49.158 110.006 49.0463 109.959 48.937 109.912ZM106.404 148.994C106.878 149.096 107.643 149.074 108.529 148.97C109.48 148.862 110.629 148.637 111.482 148.576C113.364 148.475 117.246 149.126 115.447 148.076C112.939 148.449 110.642 148.661 108.513 148.843C107.794 148.913 107.083 148.962 106.404 148.994ZM66.0148 145.457C67.7729 145.57 66.5643 144.591 65.0981 144.653C64.9373 144.661 63.6362 145.298 66.0148 145.457ZM84.4132 147.84C84.3405 147.822 82.8491 147.654 82.7985 147.659C81.4245 147.793 85.9251 148.297 84.4132 147.84ZM6.51852 95.1007C7.17919 96.9657 6.03393 95.8839 5.86464 94.5968C5.85465 94.5176 6.47434 94.9776 6.51852 95.1007ZM7.02596 96.4074C8.16102 97.6557 7.89181 100.533 7.27109 98.5028C7.21675 98.3196 6.97762 96.3661 7.02596 96.4074ZM72.2504 146.198C72.0902 145.933 70.2745 145.753 69.502 145.681C69.487 145.898 71.4979 146.052 72.2504 146.198ZM23.5215 125.837C23.4169 125.759 30.1455 131.721 30.6402 132.072C29.437 131.369 23.3292 126.119 23.5215 125.837ZM12.6534 110.021C12.7591 110.181 14.0493 112.548 13.8811 112.562C13.0008 111.53 12.1069 109.308 12.6534 110.021ZM1.26359 76.4877C1.29258 76.3478 2.58808 77.9787 1.24468 73.8239C1.05023 73.2087 1.11756 75.4968 1.04994 75.2793C0.902876 74.823 0.812969 74.4569 0.762713 74.1593C0.969024 76.1762 1.32249 78.2452 1.42435 78.4326C1.89521 79.3111 1.24742 76.5508 1.26359 76.4877ZM0.709335 57.3185C0.883041 56.8948 0.994815 54.0259 1.01681 53.3411C1.01831 53.223 0.508021 53.6837 0.700005 52.3524C0.869619 51.2806 1.09967 52.9449 1.3265 50.8457C1.5975 48.6987 0.813045 51.4998 0.828062 51.3111C0.804505 51.064 1.61344 47.7642 1.35694 47.8055C1.11526 47.8499 0.6053 51.473 0.493621 52.3204C0.310115 53.4254 0.127013 52.0436 0.00432812 53.9018C-0.0580668 55.0634 0.579938 54.4692 0.587338 54.7145C0.564349 54.9305 0.0394167 58.8223 0.707769 57.3124C0.708291 57.3144 0.708814 57.3165 0.709335 57.3185ZM0.709318 73.6132C0.711398 73.7668 0.726724 73.9461 0.762713 74.1593C0.743624 73.9766 0.726315 73.7937 0.709318 73.6132ZM100.004 148.857C98.9232 149.003 102.1 149.337 103.436 149.055C103.421 148.886 100.147 148.852 100.004 148.857ZM0.930702 71.688C0.450248 68.7006 0.462332 70.9433 0.709318 73.6132C0.699675 72.7554 1.10424 72.684 0.930702 71.688ZM48.2572 140.271C48.1198 140.264 48.0183 140.298 47.9687 140.397C48.3333 140.407 48.3851 140.357 48.2572 140.271ZM41.7942 137.75C39.8683 136.494 44.0687 138.433 43.9785 138.639C43.9191 138.717 41.8629 137.801 41.7942 137.75ZM5.5941 92.6426C5.69539 92.8213 5.57124 89.4325 6.42811 94.1168C5.46884 91.8114 6.25674 94.3288 6.16048 94.3182C5.8816 94.3408 4.69543 90.2226 4.30604 89.2863C4.50521 88.4258 5.25062 92.0443 5.59231 92.6375C5.59291 92.6392 5.5935 92.6409 5.5941 92.6426ZM12.2792 23.1241C11.9845 23.0966 10.9398 24.7085 10.1254 26.0338C10.6958 25.6067 11.9659 23.6108 12.2792 23.1241ZM53.2639 26.2838C49.5162 29.2184 47.5166 31.9622 47.3857 32.3959C47.228 32.9229 48.7191 31.1503 51.9698 27.9432C52.1054 27.7932 53.7744 25.9957 53.2639 26.2838ZM63.8318 101.911C65.0121 102.065 61.911 100.132 60.2374 99.0643C59.8362 98.8235 58.1947 98.1646 59.6866 99.4294C59.977 98.9353 62.5326 100.554 63.8318 101.911ZM1.04242 69.9602C1.12887 69.611 1.1099 69.0047 1.05253 68.3026C0.961629 67.2092 0.774562 65.8728 0.700924 64.9994C0.553954 65.5906 0.640233 67.0671 0.796396 68.3245C0.87365 68.9633 0.966569 69.5497 1.04242 69.9602ZM38.0016 56.4245C37.9011 57.5113 37.4277 58.3194 37.4092 58.1038C37.3219 57.1118 37.9286 55.1674 38.0016 56.4245ZM2.37139 78.498C2.56757 78.5804 2.13023 75.0877 1.64259 74.9126C1.78215 75.6569 2.22897 78.4364 2.37139 78.498ZM11.2295 24.9101C11.0965 25.1955 11.527 24.6714 11.9628 24.1186C12.416 23.5426 12.7131 23.1332 12.6626 23.1166C12.5809 23.055 12.4899 23.0983 12.1298 23.5744C11.7888 24.0209 11.3089 24.7331 11.2295 24.9101ZM40.4905 75.2385C40.8953 76.2695 42.0543 78.693 42.0548 79.0172C42.0113 79.4758 40.3793 75.8306 40.4905 75.2385ZM81.5636 77.8885C81.3454 77.9656 85.9142 80.0253 88.0225 80.0607C89.9964 80.1621 88.4235 79.9125 86.337 79.4068C84.2264 78.9215 81.6574 77.9115 81.5636 77.8885ZM40.0336 47.4083C40.0427 47.3223 40.0512 47.242 40.0592 47.1672C40.3952 45.0868 40.151 46.3197 39.8688 47.1169C39.7799 47.3505 39.6787 47.5262 39.5755 47.4672C39.6059 47.3459 39.64 47.2112 39.6772 47.0663C40.2673 44.4984 42.2233 40.0853 41.1477 43.7037C40.9523 44.3987 40.3584 46.0611 40.0892 47.1751C40.0686 47.2579 40.05 47.336 40.0336 47.4083ZM39.5884 49.7793C39.3901 50.017 38.5564 51.8185 38.9504 50.19C39.1358 49.4386 39.882 48.3691 39.5884 49.7793ZM110.965 73.3027C111.092 73.0928 111.078 73.0418 110.934 73.1333C110.798 73.2162 110.57 73.4131 110.528 73.4461C103.929 80.0013 97.0483 79.4185 96.9739 79.7445C96.7575 79.803 96.619 79.8491 96.5414 79.8842C96.1542 79.8457 94.7644 79.9164 93.9381 80.0287C93.5436 80.0802 93.2429 80.1434 93.1507 80.2317C93.3477 80.2233 93.6275 80.2151 93.9441 80.2025C94.8191 80.173 96.0984 80.0818 96.2938 80.0349C96.4025 80.0108 96.4834 79.9898 96.5388 79.9709C97.0126 79.9154 104.485 80.1944 110.731 73.6341C110.741 73.5806 110.94 73.3483 110.965 73.3027ZM121.65 52.9334C120.434 56.6632 121.016 57.2489 121.157 57.0244C122.522 53.2631 121.207 55.6182 121.215 55.5006C121.254 55.2741 122.107 52.3352 121.648 52.946C121.649 52.9418 121.65 52.9376 121.65 52.9334ZM113.615 70.4712C113.559 70.5252 112.988 71.1421 112.48 71.6509C111.963 72.1713 111.559 72.5623 111.536 72.5948C111.071 73.242 111.717 72.7356 112.718 71.7311C113.706 70.7404 114.716 69.4395 113.615 70.4712ZM4.138 42.0916C4.53944 40.5516 3.72924 41.9315 3.53987 42.9642C3.52569 43.0553 3.80226 43.4239 4.138 42.0916ZM39.2098 51.0389C39.2026 51.2443 38.7189 53.6906 38.3781 56.4356C38.2059 57.812 38.0715 59.2993 38.0192 60.6391C37.9567 61.9531 38.0197 63.207 37.8559 62.8727C37.2099 59.3123 39.2803 48.6271 39.2098 51.0389ZM84.1988 107.735C82.6204 107.385 84.228 108.247 85.1313 108.252C85.4634 108.254 84.5972 107.824 84.1988 107.735ZM3.82267 83.0567C3.99181 84.8217 4.76388 84.2458 4.10336 82.8557C4.07768 82.8009 3.81638 82.9876 3.82267 83.0567ZM72.0157 104.843C76.9423 106.542 76.2839 104.894 69.953 103.435C69.6094 103.341 69.2643 103.237 68.9354 103.131C69.2361 103.295 69.5623 103.459 69.8982 103.615C69.9427 103.646 69.9884 103.678 70.0353 103.71C69.9823 103.696 69.9311 103.682 69.8818 103.668C66.5619 102.619 65.586 101.906 64.8485 101.563C64.1968 101.215 64.1297 101.183 64.4104 101.358C64.9981 101.697 66.8905 102.887 69.8353 103.82C70.4375 104.01 70.9882 104.184 71.3379 104.305C72.0516 104.55 71.3672 104.615 72.0101 104.843C72.0119 104.843 72.0138 104.843 72.0157 104.843ZM93.5046 109.213C93.5058 109.213 93.507 109.213 93.5083 109.212C94.5075 109.05 94.9946 108.935 94.9117 108.835C94.845 108.736 94.2606 108.655 93.5544 108.596C90.5949 108.381 86.5985 107.777 84.9848 107.342C87.6825 108.389 91.7076 108.993 86.3288 108.482C90.0847 109.268 91.556 109.288 91.7642 109.222C92.0031 109.148 91.1934 108.932 91.3708 108.935C91.76 108.95 93.184 109.243 93.5046 109.213ZM78.8 106.394C78.5176 106.292 76.2818 105.926 75.5178 105.674C76.4987 106.344 80.6789 107.104 78.8 106.394ZM114.303 29.7862C114.155 30.0985 114.322 30.7769 115.226 32.0634C115.114 31.5982 114.66 30.5925 114.303 29.7862ZM108.475 147.239C109.633 147.078 112.124 146.616 111.401 147.027C111.3 147.074 108.479 147.416 108.475 147.239ZM45.6541 83.5046C45.7761 83.6719 47.5521 86.0743 48.6459 87.4144C49.354 88.3083 49.7174 88.8273 48.9211 88.1131C48.8331 88.0332 48.6581 87.8475 48.4335 87.594C47.0437 86.1421 44.1052 81.7422 45.6541 83.5046ZM43.2408 39.7964C42.833 40.4793 41.467 43.4743 41.4076 43.5312C41.0586 43.6364 42.8294 39.9562 43.2408 39.7964ZM114.8 146.003C114.946 145.981 119.182 145.116 118.757 145.335C117.908 145.85 114.191 146.233 114.8 146.003ZM6.71776 36.8156C6.85572 36.4903 6.73113 35.9496 6.77249 35.8384C6.77421 35.6034 9.74323 29.5799 8.27565 31.7227C7.82067 32.1496 4.62043 40.7551 4.46153 41.7783C4.72996 42.327 5.51723 38.6616 5.91568 37.7836C5.97867 37.6416 6.36047 37.6476 6.71499 36.8176C6.7159 36.8169 6.71684 36.8162 6.71776 36.8156ZM119.19 38.8499C119.139 39.0633 120.146 41.7403 120.73 43.6135C121.734 46.8529 121.557 48.2984 121.622 49.4429C121.631 50.5321 121.613 51.087 121.694 51.0695C121.776 49.2755 122.155 47.5929 120.944 43.54C120.498 42.155 119.917 40.5039 119.19 38.8499ZM116.982 34.7611C115.792 33.1779 118.142 37.1573 118.71 38.3383C118.927 38.2691 117.201 34.9761 116.982 34.7611ZM39.6758 55.2388C39.4831 56.0153 39.4751 53.5378 39.3116 54.0642C39.199 54.3869 39.0735 56.1926 38.8834 56.8022C38.8169 56.9603 38.6946 55.0064 38.8047 54.5029C38.9505 53.7685 39.1222 54.5311 39.2631 53.7374C39.7011 51.3454 39.9982 49.3241 40.5079 47.2857C40.5679 47.0503 40.6314 46.8161 40.6986 46.583C40.7734 46.3187 40.3957 48.4348 41.0367 46.1732C41.1433 45.8341 41.462 43.6005 42.7344 41.0654C46.3143 36.0328 48.5317 31.9198 53.7342 27.8744C53.6211 28.0163 50.0832 31.6615 49.8957 31.9778C47.0185 35.0473 42.7768 41.3003 41.305 47.4963C40.8475 49.2478 40.458 50.9316 40.164 52.3939C39.8947 53.7665 39.8251 53.0588 39.7049 53.6605C39.6167 54.1406 40.0814 53.6153 39.6758 55.2388ZM107.644 147.126C107.786 147.037 108 146.962 108.267 146.895C109.075 146.652 110.613 146.608 111.709 146.431C111.325 146.796 109.514 146.869 108.285 147.034C108.058 147.064 107.843 147.095 107.644 147.126ZM84.3343 16.8135C83.6142 16.7383 81.2584 16.768 81.0503 16.6611C80.8146 16.4879 84.2214 16.5252 84.3343 16.8135ZM32.4772 9.75203C32.5422 9.72326 34.1116 8.89757 34.1672 8.8627C35.4461 7.86641 30.729 10.359 32.4772 9.75203ZM71.3416 1.18012C72.6321 1.12533 73.9357 1.18035 74.3564 0.853787C73.5362 0.927581 71.1716 0.972319 71.3416 1.18012ZM124.794 20.6994C124.343 20.803 127.257 23.3366 127.743 23.8246C127.719 23.513 125.168 20.6272 124.794 20.6994ZM113.069 30.2073C114.364 32.2502 113.53 32.0929 114.411 32.9985C114.529 33.097 116.007 33.084 114.459 31.4508C114.313 31.2918 114.389 31.6061 114.301 31.6617C114.2 31.7013 114.014 31.5862 113.069 30.2073ZM66.971 102.328C66.1545 101.681 63.8772 100.486 62.6401 99.6493C62.771 100.006 65.5503 101.696 66.971 102.328ZM122.325 143.849C123.412 143.18 128.5 141.475 127.355 142.188C127.223 142.311 123.096 143.636 122.325 143.849ZM1.82448 63.8461C2.04098 61.719 2.29475 66.0978 2.13882 67.4568C2.09821 66.8465 1.80078 64.0048 1.82448 63.8461ZM112.382 12.0886C112.415 12.1168 114.326 13.0616 114.476 13.1327C115.446 13.4775 114.327 12.8031 113.402 12.3493C112.471 11.8898 111.671 11.5804 112.382 12.0886ZM59.6743 2.58994C60.4579 2.7578 65.1736 2.20699 66.1495 1.89222C65.1951 1.59524 58.7592 2.34812 59.6743 2.58994ZM101.259 19.7833C104.478 20.8924 107.303 22.8509 109.221 24.666C109.107 24.4082 107.652 22.9121 105.656 21.6916C103.69 20.4456 101.434 19.7572 101.259 19.7833ZM120.46 17.1772C120.566 17.2607 120.686 17.3279 120.786 17.407C120.677 17.329 120.566 17.2513 120.46 17.1772ZM58.6122 24.443C58.1977 24.8167 57.9153 25.0482 57.72 25.178C57.5959 25.1788 57.4904 25.0129 57.5016 24.9924C57.5094 24.976 57.5158 24.9629 57.5198 24.9538C58.5623 23.9305 60.1818 23.0871 58.6122 24.443ZM109.206 146.368C109.599 145.976 111.846 145.944 113.201 145.638C112.835 145.978 110.192 146.284 109.206 146.368ZM99.6851 108.819C101.505 108.541 95.3646 108.073 93.6068 107.894C93.0689 107.862 92.6338 107.838 92.3696 107.846C92.3313 107.899 92.7958 108.022 93.5877 108.151C94.9398 108.489 99.3519 108.914 99.6851 108.819ZM2.82037 70.3115C3.08921 70.4261 3.15485 73.4466 2.94994 72.8312C2.80826 72.4433 2.64087 70.2459 2.82037 70.3115ZM88.4564 107.435C87.7825 107.237 86.1982 107.191 86.7076 107.455C87.3649 107.798 88.6299 107.491 88.4564 107.435ZM40.3826 67.9272C40.3967 68.1486 41.3552 72.9818 40.578 71.0828C40.0354 69.7507 40.3869 69.4611 40.3164 69.1508C40.136 68.5337 38.675 62.6021 40.3826 67.9272ZM137.28 86.7735C136.166 87.8507 135.021 89.2103 133.942 90.2766C134.495 89.9783 136.995 87.4424 137.28 86.7735ZM2.36516 58.5729C2.32465 59.0343 2.79772 68.9839 2.22904 63.3444C2.14967 63.0424 2.03666 57.4234 2.36516 58.5729ZM113.069 30.2073C112.894 29.9365 112.677 29.6193 112.392 29.2384C112.662 29.6253 112.884 29.9402 113.069 30.2073ZM83.3002 17.414C83.8658 17.6308 80.9777 17.5528 80.0616 17.4735C79.8052 17.2147 83.2483 17.3608 83.3002 17.414ZM133.669 90.1661C132.975 90.7044 131.936 91.882 131.151 92.6042C131.41 92.6183 133.535 90.5715 133.669 90.1661ZM128.996 26.3947C130.186 27.5365 131.5 29.094 131.352 29.2617C131.401 29.2644 131.481 29.2998 131.596 29.3745C131.714 29.4512 132.791 30.8352 133.336 31.3493C135.19 33.1066 131.397 28.6152 128.996 26.1831C127.359 24.5195 126.471 23.7909 128.671 26.4799C129.009 26.9007 129.423 27.4105 129.92 28.0209C129.613 27.4764 129.306 26.9352 128.996 26.3947ZM52.9334 3.84807C51.9906 4.23054 48.9294 4.4423 49.6853 4.19996C50.265 3.98854 53.9253 3.42784 52.9334 3.84807ZM90.8728 3.09908C90.5175 3.03504 87.2342 2.3383 87.1541 2.22082C89.1135 2.24133 92.5567 3.23763 90.8728 3.09908ZM44.5667 6.01697C43.9316 6.25959 42.9873 6.12555 43.0545 6.08274C43.6428 5.70499 45.5918 5.4425 44.5667 6.01697ZM108.142 25.723C107.223 24.6404 102.523 21.2163 101.271 20.7076C101.03 20.6814 100.4 20.5143 99.2891 20.3194C99.2924 20.3202 99.2957 20.3211 99.299 20.3219C99.2146 20.3075 98.9952 20.258 98.6583 20.1909C97.3872 19.8443 90.6658 18.9993 88.2634 18.804C84.751 18.4114 82.9216 18.163 88.3003 18.4834C88.7624 18.5115 89.3163 18.54 90.0568 18.5805C90.5303 18.6092 89.7836 18.7888 91.8182 18.9477C91.9569 18.9592 92.0455 18.7566 92.4867 18.7962C93.2492 18.841 96.829 19.2891 98.7474 19.7831C99.8047 20.0256 100.642 20.3263 101.076 20.5206C101.105 20.49 101.243 20.4978 101.519 20.5654C102.76 20.8326 105.131 22.2155 106.519 23.6123C107.942 24.9913 108.572 26.1178 108.142 25.723ZM97.137 4.99632C96.5089 4.82075 94.5476 4.08466 94.3874 3.85529C95.4403 4.03972 98.6276 5.37926 97.137 4.99632ZM3.11699 58.9102C3.22604 60.1006 2.99834 63.0122 2.83147 62.1354C2.6988 61.6082 2.96384 57.5484 3.11699 58.9102ZM77.9517 2.0201C84.4577 1.88239 79.5015 2.04987 80.4922 2.33392C79.6506 2.21771 78.8017 2.11288 77.9517 2.0201ZM117.716 60.9837C118.157 59.7784 117.108 60.9574 116.747 62.3426C116.634 62.784 117.465 61.6629 117.716 60.9837ZM65.7247 61.0503C66.2212 61.5723 65.6992 60.3264 65.3179 59.4234C64.9284 58.5172 64.5703 57.8974 64.728 58.8661C64.7129 58.9086 65.6279 60.9325 65.7247 61.0503ZM104.942 75.2445C106.122 74.8281 107.064 74.5777 109.279 72.2934C109.316 72.2469 109.385 72.1566 109.547 71.9748C109.326 72.1676 109.259 72.2087 109.207 72.2264C108.13 73.2616 108.252 72.9787 108.057 73.1043C107.872 73.1571 107.289 73.8751 104.942 75.2445ZM131.314 29.2715C131.331 29.2707 131.344 29.271 131.352 29.2617C131.336 29.2608 131.324 29.2644 131.314 29.2715ZM38.5579 8.15798C37.8848 8.72838 35.7484 9.69369 36.2668 9.15115C36.3132 9.0937 38.1583 8.09831 38.5579 8.15798ZM101.271 20.7076C101.485 20.7349 101.398 20.6658 101.076 20.5206C101.048 20.5498 101.123 20.6121 101.271 20.7076ZM51.3381 4.54797C51.2476 4.33706 54.7046 3.77294 54.8228 3.79895C56.793 3.92584 52.8453 4.29194 51.3381 4.54797ZM5.89699 81.5865C5.9166 81.7658 5.14046 80.7663 5.1956 80.0338C5.23754 79.4701 5.82065 80.9227 5.89699 81.5865ZM94.8631 77.6679C94.5437 77.6869 94.2002 77.7032 93.8579 77.7186C92.6825 77.7754 91.4633 77.7757 91.1594 77.9488C91.7381 77.9586 92.9639 77.9604 93.8634 77.8747C94.4335 77.8205 94.8789 77.7427 94.8631 77.6679ZM67.2775 63.3192C67.8228 64.7021 69.635 67.2426 71.7044 68.9095C71.5655 68.792 71.7077 68.9111 71.8736 69.0657C72.05 69.2282 72.2722 69.4347 72.5021 69.6438C72.5656 69.5889 72.4303 69.3835 72.2217 69.1333C72.0395 68.9048 71.6895 68.5641 71.8674 68.7136C69.8859 67.1433 67.7674 64.3535 67.2775 63.3192ZM111.003 28.9471C110.964 28.9065 110.419 28.184 109.825 27.4496C109.242 26.719 108.606 25.9975 108.907 26.129C109.928 26.5748 111.73 29.708 111.003 28.9471ZM4.55409 76.4567C4.51923 75.2298 5.53997 77.881 5.39659 79.2175C5.3102 79.9111 4.54652 76.6677 4.55409 76.4567ZM32.083 11.7012C30.52 12.3888 34.091 10.1253 34.7457 10.1414C34.0574 10.5006 32.6343 11.4511 32.083 11.7012ZM85.4472 3.05753C80.3734 3.52216 83.182 2.27017 84.0808 2.4426C84.2085 2.46575 85.5741 3.0467 85.4472 3.05753ZM133.306 137.723C133.942 137.561 131.893 138.896 131.506 138.782C131.268 138.709 132.899 137.827 133.306 137.723ZM143.77 52.6691C143.72 52.4684 143.669 52.2693 143.618 52.0714C143.646 52.2225 143.694 52.4178 143.77 52.6691ZM19.9425 20.367C22.9496 16.5875 22.9627 17.8751 23.2738 17.6056C23.9021 17.1783 25.1801 16.0535 26.2975 15.4843C24.9791 16.088 23.5956 16.7577 22.1054 17.6176C23.4744 16.4003 31.5393 11.6746 31.3914 11.9143C31.395 11.9156 31.3983 11.917 31.4013 11.9185C31.4239 11.9254 31.431 11.9393 31.4244 11.9593C31.4297 12.1802 29.4654 13.178 29.3819 13.2436C29.2969 13.326 29.2512 14.1574 29.0318 14.3067C28.8338 14.4137 21.4786 18.5338 19.9425 20.367ZM74.8368 2.73065C75.6546 2.61506 75.8823 2.32976 76.2662 2.38741C76.3982 2.40759 76.4231 2.6746 76.8691 2.7363C76.1925 2.72665 75.5148 2.72472 74.8368 2.73065ZM13.9654 26.0571C13.6989 26.8559 15.1665 24.7517 15.1829 24.6306C15.7723 23.6341 16.2291 23.0513 16.2672 22.9784C16.6042 22.4179 15.8972 23.02 14.936 24.482C14.8532 24.5123 14.1064 25.5864 13.9654 26.0571ZM49.5637 5.1051C49.5273 5.11627 49.3373 5.16051 49.0597 5.22532C47.6862 5.5209 45.4511 6.22069 45.4275 6.08189C45.9304 5.84914 47.5886 5.316 49.0217 5.03959C49.9853 4.85546 50.4994 4.81823 49.5637 5.1051ZM77.4164 2.74731C78.6428 2.69431 80.9693 2.47517 80.6914 2.87552C80.6896 2.87546 80.6878 2.87542 80.686 2.87538C79.6017 2.8133 78.5086 2.77024 77.4164 2.74731ZM4.75625 72.211C5.70823 74.3478 4.74002 73.4204 4.27813 71.453C4.49044 70.8146 4.60201 71.8588 4.75625 72.211ZM6.44481 79.2022C6.61652 79.6787 7.54752 83.8832 7.67762 85.0149C7.70173 85.2832 7.66978 85.3789 7.55554 85.213C7.53765 85.187 7.51613 85.137 7.49174 85.0669C7.21033 84.3068 6.70243 81.2015 6.65882 81.0554C6.56829 80.8101 6.45986 82.0512 6.09862 80.1013C6.24647 80.1859 6.36174 79.0008 6.44481 79.2022ZM5.42844 73.994C6.25843 76.1088 5.47064 76.7542 5.18367 75.1001C5.07461 74.4518 5.31085 73.6902 5.42844 73.994ZM4.41557 64.9227C4.50753 65.5024 4.66976 66.779 4.70124 67.9905C4.71347 68.4613 4.70682 68.9262 4.6659 69.3416C4.61518 68.8984 4.56759 68.4518 4.52367 68.0057C4.37441 66.4933 4.25702 64.9634 4.18115 63.4175C4.34252 63.18 4.30106 64.2254 4.41587 64.9281C4.41577 64.9263 4.41567 64.9245 4.41557 64.9227ZM67.7271 44.2133C67.6701 44.5121 67.6554 44.6762 67.6588 44.7621L67.5784 45.0813C67.59 45.1453 67.6141 45.1453 67.647 45.097L67.7266 44.7807C67.8526 44.591 68.1354 43.6863 68.5941 42.6328C69.0897 41.5317 69.1856 41.3829 69.1743 41.3326C69.1486 41.2613 69.0953 41.2554 69.0266 41.2967C68.9556 41.3433 68.873 41.4248 68.7041 41.7153C68.3319 42.3242 67.798 43.7224 67.7271 44.2133ZM141.412 125.042C141.772 124.758 141.891 124.331 142.857 124.061C142.071 124.716 141.281 125.364 140.487 126.009C139.551 125.82 141.016 125.355 141.412 125.042ZM143.899 121.528C143.767 121.577 144.061 120.461 142.713 121.776C142.18 122.287 144.012 121.662 145.782 120.811C147.081 120.188 148.341 119.461 148.696 119.072C147.945 119.372 146.773 120.049 145.691 120.639C144.991 121.022 144.343 121.355 143.899 121.528ZM151.436 112.752C151.494 112.654 149.74 113.774 149.5 113.958C148.477 114.923 151.545 113.228 151.436 112.752ZM145.327 116.706C146.061 116.153 144.772 116.748 143.89 117.229C143.68 117.345 143.483 117.46 143.36 117.546C143.36 117.617 143.643 117.522 143.971 117.382C144.529 117.143 145.235 116.774 145.327 116.706ZM81.9592 57.6558C82.7685 58.0014 83.0153 58.4904 83.0098 58.7762C82.981 59.0428 82.7264 59.1539 82.0637 58.3383C82.0074 58.2662 81.8963 57.636 81.9592 57.6558ZM149.291 113.191C148.509 113.896 150.533 112.732 150.862 112.314C150.847 112.143 149.442 113.082 149.291 113.191ZM83.6758 57.3348C85.0966 58.1041 83.6896 58.7334 83.5328 58.6697C83.1528 58.4797 82.7771 57.9433 81.7222 56.8671C81.3937 56.4266 81.2587 55.9719 81.227 55.8145C81.482 56.2148 81.742 56.4507 81.9488 56.5946C82.5059 57.0409 82.7013 57.189 82.8825 57.288C83.0484 57.3767 83.1363 57.3769 83.2063 57.3561C83.3421 57.3107 83.3999 57.1765 83.6758 57.3348ZM87.7556 61.3033C88.6885 61.8663 86.0208 61.0446 85.8183 60.3234C86.2557 60.6632 87.4911 61.1684 87.7556 61.3033ZM94.5528 61.6594C94.8726 61.6062 95.4864 61.4922 95.964 61.3868C96.452 61.2827 96.7778 61.2005 96.8967 61.2785C96.6107 61.388 94.8844 61.8887 94.5528 61.6594ZM95.7697 60.8157C96.1272 60.5918 96.3301 60.6826 96.4002 60.8219C96.4627 60.9598 96.3788 61.1564 95.8981 61.1173C95.8604 61.1143 95.7438 60.8378 95.7697 60.8157ZM98.4746 58.4917C98.7863 57.7075 99.8969 57.8118 99.1282 58.604C98.8755 58.8546 98.4395 58.5807 98.4746 58.4917ZM85.9848 57.3751C86.686 57.7716 87.106 58.8647 85.7339 57.864C86.1559 58.346 86.5507 58.7541 86.9689 59.1255C85.0096 58.2165 85.6616 57.4704 85.0859 57.0234C84.189 56.2386 83.6576 56.7051 83.745 57.099C83.6025 56.8356 83.4014 56.5021 82.6345 55.7705C82.1076 55.0514 81.7033 54.4814 81.1039 52.3894C81.4658 53.2643 81.8512 53.9923 82.181 54.3632C82.5131 54.7445 82.7909 54.9067 83.1663 55.1311C83.9414 55.7488 84.2813 56.0698 84.6052 56.3487C85.1297 56.8091 85.3487 57.2814 85.6795 57.5416C86.1919 57.9345 85.9402 57.3507 85.9824 57.373C85.9832 57.3737 85.984 57.3744 85.9848 57.3751ZM102.086 52.9945C102.305 51.1114 102.784 52.4875 102.242 53.4557C102.215 53.4933 102.08 53.0406 102.086 52.9945ZM149.513 109.768C149.388 110.009 149.169 110.3 149.04 110.499C148.897 110.708 148.803 110.862 148.604 111.042C148.192 111.399 147.437 111.877 144.359 113.165C147.024 112.267 144.675 113.417 145.249 113.334C145.717 113.266 147.03 112.345 146.39 113.101C146.826 112.641 148.226 111.744 149.178 111.026C149.655 110.669 149.975 110.388 150.086 110.269C150.198 110.152 150.206 110.125 150.212 110.096C150.212 110.096 150.211 110.097 150.211 110.097C150.209 110.072 150.028 109.958 149.863 109.854C149.692 109.754 149.578 109.627 149.513 109.768ZM94.3571 59.3972C94.5892 58.8467 94.7742 58.9806 95.028 59.124C95.2667 59.2691 95.6252 59.4126 95.8214 58.912C96.1562 59.26 96.1301 59.4278 95.6788 59.5648C95.2338 59.702 94.2485 59.7603 93.2365 59.8117C92.38 59.8642 91.6976 59.9083 91.455 60.2365C92.3982 60.2978 92.9752 60.2827 93.2537 60.308C93.5739 60.3288 93.5192 60.3829 93.2584 60.4427C92.2573 60.7599 89.0225 60.4586 91.7111 59.7138C90.1073 59.855 89.9245 59.6635 90.0189 59.5542C90.1196 59.4277 90.5321 59.2614 90.3374 59.1168C89.9125 58.8441 88.4879 58.5508 88.7281 58.203C88.7288 58.2033 88.7295 58.2037 88.7302 58.204C89.4881 58.5784 90.3268 58.8395 91.3324 58.9816C90.2177 59.6883 92.3638 59.7258 93.2074 58.9729C93.218 58.9649 93.2284 58.9568 93.2385 58.9487C93.624 59.1071 93.9987 59.2568 94.3571 59.3972ZM88.15 59.3642C88.2079 59.4431 90.288 60.2039 90.1554 60.2965C89.9846 60.3227 89.0972 60.1083 88.4996 59.8056C87.8973 59.5084 87.5401 59.2015 88.15 59.3642ZM81.6643 52.8934C81.6521 52.7944 81.674 52.66 81.5269 52.0358L81.399 51.5974C81.8736 53.0119 82.2861 53.7842 82.1623 54.1293C81.9499 53.7518 81.4707 52.7174 81.264 51.6413L81.3895 52.0713C81.5818 52.7515 81.5892 52.8077 81.6643 52.8934ZM95.5261 37.8697C95.44 37.6324 95.6421 37.663 95.9282 37.9379C96.2097 38.2063 96.5348 38.7333 96.1314 38.4716C96.1126 38.4595 95.9321 38.256 95.7874 38.1157C95.6395 37.9698 95.5308 37.8821 95.5261 37.8697ZM96.2485 59.2136C96.2825 59.0243 96.2326 59.2411 96.3583 59.3831C96.4646 59.5315 96.5474 59.7128 96.3177 59.6516C96.2971 59.6422 96.2508 59.2291 96.2485 59.2136ZM148.194 110.605C148.119 110.419 144.475 112.786 143.68 113.177C144.277 113.164 148.611 110.752 148.194 110.605ZM82.703 52.0178C82.8097 52.3691 82.8726 52.707 82.9183 52.8834C82.9405 52.9672 82.9604 53.0135 82.9676 52.9219C82.9602 52.8034 83.0135 52.6641 82.7813 51.7111L82.6311 51.1964C83.1977 53.1649 82.9914 53.6294 83.0602 53.7451C83.1404 53.8465 83.3965 53.4872 83.4203 53.5088C83.4424 53.5337 83.5461 53.7302 83.627 53.8445C83.7066 53.9636 83.8228 54.0954 83.9373 54.2043C84.3708 54.5744 84.5368 54.7428 84.5843 54.7909C84.6669 54.8813 84.3804 54.8135 84.1856 54.8587C83.9778 54.894 83.9592 55.112 84.3508 55.599C84.1974 55.4126 83.9782 55.161 83.4997 54.7303C83.2977 54.4598 83.1565 54.2917 82.9359 53.8874C82.7123 53.5027 82.3465 52.505 81.991 51.4047L82.1297 51.8798C82.2835 52.5122 82.2729 52.6773 82.2881 52.8068C82.296 52.9236 82.2948 52.9496 82.2959 52.9614C82.297 52.9767 82.3018 52.9252 82.3095 52.9158C82.335 52.8819 82.4895 53.0074 82.6005 52.9551C82.6556 52.9374 82.6984 52.9908 82.7075 52.9557C82.7186 52.9162 82.6931 52.7029 82.7025 52.0212C82.7027 52.02 82.7028 52.0189 82.703 52.0178ZM83.3034 53.9233C82.9733 53.848 83.3166 54.4192 83.5474 54.4748C83.785 54.5522 83.6587 54.3862 83.5491 54.2404C83.4406 54.0993 83.3279 53.9371 83.3034 53.9233ZM86.9122 57.0087C87.129 57.1603 88.4557 57.9526 88.4629 58.2029C87.6593 58.2354 86.472 56.8232 86.9122 57.0087ZM100.835 51.1333C100.924 50.8851 101.004 50.4064 101.054 50.0438C101.107 49.6747 101.134 49.4481 101.249 49.4379C101.221 49.6799 101.095 51.1061 100.835 51.1333ZM133.594 116.029C134.732 115.298 131.882 116.523 131.085 116.98C131.104 117.139 133.501 116.092 133.594 116.029ZM95.4378 57.2092C95.407 57.2555 95.2546 57.0556 94.0592 58.2402C96.078 56.1636 97.0696 55.4387 97.5144 54.8949C97.9988 54.3693 98.3624 53.7702 98.5257 53.5248C98.5303 53.5178 98.5346 53.5111 98.5388 53.5048C98.5368 53.5122 98.5346 53.52 98.5322 53.5281C98.4552 53.8139 98.1595 54.4685 97.7031 55.0578C97.29 55.661 96.273 56.4649 94.3247 58.4854C95.378 57.4425 95.5196 57.5848 95.5327 57.5053C95.5453 57.4724 95.4515 57.2152 95.4378 57.2092ZM86.4965 54.5296C86.2049 53.9066 85.4891 53.432 84.8866 53.0632C84.855 53.083 84.8309 53.1001 84.8275 53.0989C84.6927 53.0489 84.7563 52.9845 84.4847 53.1603C84.573 53.1903 84.5321 53.2198 84.65 53.3475C85.9134 54.4535 86.1252 54.7309 86.4081 54.919C86.6372 55.07 86.7164 55.0076 86.4965 54.5296ZM99.4879 50.3393C99.7394 49.5124 99.7837 49.8955 99.6955 50.4964C99.6056 51.1058 99.296 51.9538 99.2229 51.6417C99.2266 51.5964 99.4461 50.504 99.4879 50.3393ZM95.4302 57.1056C95.394 57.0527 95.3185 57.0479 94.9636 57.0918C94.6163 57.1339 93.9806 57.2061 93.1473 57.2404C91.3652 57.3398 90.0656 56.9901 89.7614 56.8632C90.1144 57.5195 90.6849 57.3008 91.5828 57.4266C91.8342 57.459 91.753 57.6572 91.7801 57.6602C92.2408 57.7025 91.9081 57.4415 92.1969 57.4535C92.2521 57.4547 92.6167 57.5 93.1565 57.5071C93.9328 57.5154 94.7752 57.4561 95.1431 57.3701C95.5277 57.2824 95.4897 57.2231 95.4302 57.1056ZM86.2413 53.9647C86.1446 53.8278 85.9655 53.5747 85.1025 52.8036C85.0563 52.6794 85.1799 52.7562 85.1608 52.6964C85.1472 52.6543 84.9507 52.1789 84.9149 52.1296C84.6122 51.7483 84.7875 52.4844 84.886 52.7369C84.994 52.9899 84.8885 52.8124 85.0156 52.9081C85.9303 53.672 86.1312 53.8845 86.2413 53.9647ZM95.2676 56.6972C95.2623 56.5431 95.2843 56.4519 95.1857 56.4365C95.0944 56.4193 94.8901 56.4641 94.6902 56.5232C94.4921 56.5829 94.3149 56.6583 94.3207 56.7258C94.3187 56.793 94.5337 56.8542 94.8944 56.8685C94.9607 56.8711 95.1191 56.7854 95.2151 56.7171C95.3168 56.6484 95.329 56.6051 95.2676 56.6972ZM98.9075 50.3887C98.9109 50.3476 99.0082 49.844 99.0541 49.503C99.1054 49.1316 99.1085 49.1125 99.2023 49.1355C99.2196 49.1273 99.2407 49.1313 99.2377 49.2758C99.2355 49.4134 99.2024 49.6727 99.1447 49.9352C99.0274 50.4676 98.8534 50.917 98.9075 50.3887ZM98.0147 51.1697C98.0318 51.1249 98.223 51.6868 98.4726 50.7833C98.4781 50.7287 98.2031 50.3818 98.5234 49.5489C98.5856 49.3862 98.8689 49.2427 98.8829 49.2601C99.181 49.5446 98.7657 50.716 98.2957 51.3948C97.8288 52.0754 97.4915 52.269 98.0147 51.1697ZM86.3565 53.6296C86.5326 53.7024 86.5776 53.5739 86.48 53.3372C86.3805 53.102 86.1549 52.7592 85.5533 52.2617C85.5485 52.2609 85.5338 52.2759 85.5028 52.3102C85.4563 52.3655 85.3423 52.4734 85.2997 52.5665C85.6978 52.9626 86.0531 53.3396 86.3565 53.6296ZM97.9021 47.4499C98.0826 48.2374 97.4469 47.1156 96.8514 46.2793C96.0818 45.1387 95.5809 44.2719 95.5352 44.1478C95.6641 44.1895 96.2524 45.0405 97.0469 46.1494C97.4919 46.7027 97.8855 47.381 97.9021 47.4499ZM129.769 115.207C129.77 115.207 129.772 115.206 129.773 115.205C128.257 115.963 129.317 115.762 129.248 115.802C126.096 117.618 126.733 116.705 126.19 116.874C125.016 117.236 125.476 117.79 123.471 118.361C126.767 117.37 123.854 118.462 123.861 118.727C123.923 119.8 127.828 116.461 129.44 115.962C129.667 115.892 128.215 116.895 128.802 116.732C130.726 116.201 135.541 112.291 129.769 115.207ZM85.542 52.2869C85.5983 52.2389 85.6563 52.2431 85.7043 52.2874C85.7518 52.3291 85.7651 52.3941 85.6951 52.3294C85.5601 52.2313 85.1468 51.4602 85.1993 51.9645C85.201 51.9977 85.2666 52.2231 85.3186 52.3724C85.3728 52.529 85.3993 52.5843 85.3919 52.564C85.3638 52.5054 85.3755 52.4258 85.542 52.2869ZM115.036 44.372C115.767 45.5887 113.406 43.3617 113.156 42.796C113.032 42.5083 114.714 43.8321 115.036 44.372ZM99.8045 32.8431C98.0425 31.8722 96.5358 29.761 98.7886 31.2216C99.0298 31.3798 100.08 32.8223 99.8045 32.8431ZM93.6541 84.7464C94.3565 84.6583 94.6023 84.7638 94.6119 84.8949C94.6179 85.024 94.3714 85.174 93.8864 85.1005C93.5379 85.0468 93.6098 84.7516 93.6541 84.7464ZM121.988 58.0404C121.922 57.8728 121.474 56.1103 121.647 56.1401C121.926 56.7143 122.425 59.0223 121.988 58.0404ZM93.234 84.5789C94.0378 84.8332 92.5513 85.1286 91.5273 84.4149C92.0824 84.5675 93.1603 84.5562 93.234 84.5789ZM93.6815 55.6289C94.2513 55.2749 94.99 54.6645 95.3775 54.3078C95.7848 53.9335 95.9506 53.7172 96.1026 53.5611C95.9553 53.4401 95.8083 53.5776 95.4706 53.9202C95.1741 54.2307 94.2817 55.0908 93.6815 55.6289ZM104.809 35.094C104.514 34.717 104.786 34.7609 105.121 34.9564C105.456 35.1513 105.871 35.5322 105.672 35.5974C105.628 35.5803 104.819 35.1095 104.809 35.094ZM62.5373 60.193C62.5028 60.0777 62.4668 59.9764 62.4373 59.9138C62.4254 60.0169 62.3919 60.0115 62.3455 59.9317C62.3358 60.104 62.3413 60.413 62.3223 60.5625C62.306 60.7248 62.2824 60.7733 62.2756 60.7655C62.2607 60.7379 62.3114 60.6006 62.4651 60.7144C62.4723 60.7171 62.5104 60.8124 62.5401 60.7255C62.5751 60.6703 62.5565 60.2532 62.5373 60.193ZM64.6008 51.3907C64.4333 51.8021 63.8401 53.4948 63.8563 52.7608C63.8359 52.6393 64.3815 51.3211 64.6008 51.3907ZM125.989 116.667C126.273 116.119 123.748 117.338 123.403 117.562C123.27 117.652 125.619 117.382 125.989 116.667ZM100.738 85.0351C100.739 85.0428 100.734 85.0483 100.712 85.0569C101.358 84.8907 102.458 84.4441 102.754 84.5043C102.244 84.6815 101.282 85.1461 100.767 85.2447C100.795 85.2157 100.765 85.1636 100.738 85.0351ZM109.029 38.8542C107.86 38.2647 106.478 36.9501 107.197 36.8649C108.77 38.3873 106.643 36.9776 109.029 38.8542ZM88.2488 83.1021C88.9172 83.2259 89.3025 83.8508 89.2235 83.8588C88.4587 83.9312 87.541 83.1458 88.2488 83.1021ZM122.071 68.0868C121.892 67.9708 122.335 67.2215 122.42 67.3753C122.463 67.4278 122.234 68.1874 122.071 68.0868ZM93.3802 42.9557C93.0708 42.6562 93.1925 43.0345 93.5445 43.7027C93.8895 44.3604 94.5376 45.4163 94.9764 45.8848C95.2854 46.0516 94.7903 45.1768 94.3275 44.4055C93.8537 43.6175 93.418 42.9919 93.3802 42.9557ZM74.1525 78.084C74.3242 77.8228 76.2684 79.5254 75.2953 79.1432C75.0604 79.0655 74.1061 78.1974 74.1525 78.084ZM63.4649 58.9673C63.152 59.7779 63.1363 58.4578 63.4114 56.8607C63.6749 55.2885 64.1622 53.6587 64.1118 54.871C64.0607 55.0895 63.46 58.9212 63.4649 58.9673ZM66.7068 49.2246C66.599 49.4337 67.4984 50.0673 67.846 49.0393C67.8956 48.9004 67.2522 49.1682 67.2752 49.0426C67.2243 48.9866 68.8596 47.1378 69.0473 47.0479C69.1707 46.9783 69.2877 47.3557 69.4189 47.2937C69.5481 47.227 70.68 45.8632 71.7581 45.0137C72.5559 44.3761 73.3046 43.8294 73.9333 43.3462C74.131 43.2838 74.2308 43.3385 74.2595 43.3151C74.3989 43.2033 74.5188 42.8406 74.843 42.6428C75.3952 42.3065 76.0791 42.039 76.9149 41.8795C78.6756 41.4724 82.7948 41.6187 85.4065 41.5223C81.911 41.3755 78.8581 41.0605 77.0224 41.3258C77.199 41.471 77.0589 41.5342 76.8483 41.5602C76.3289 41.6107 75.2277 41.5418 76.4097 41.7106C76.0849 41.7213 74.7684 42.0493 73.6456 43.0238C70.4883 45.6593 69.4614 46.3404 68.3447 47.4164C67.3368 48.3666 66.8226 49.0303 66.7085 49.2226C66.7079 49.2232 66.7074 49.2239 66.7068 49.2246ZM92.9498 29.1548C93.2091 29.5433 92.4134 29.1245 91.6427 28.655C90.8658 28.1762 90.0837 27.6538 90.0428 27.3918C90.4555 27.4716 92.839 29.0041 92.9498 29.1548ZM109.946 42.2265C110.084 42.426 110.071 42.7491 110.317 43.2389C110.55 43.6889 110.985 44.2672 111.894 45.0182C111.896 45.0199 111.897 45.0216 111.899 45.0233C112.468 45.4949 112.05 44.7518 112.188 44.8081C112.24 44.8233 114.041 46.2949 112.821 44.8283C110.958 42.6084 112.226 44.996 111.188 43.8544C111.142 43.8036 110.884 43.4353 110.583 42.9957C110.109 42.2857 109.526 41.4052 109.637 41.4413C109.654 41.4429 110.154 42.1014 110.273 42.1775C110.728 42.4641 110.728 42.1194 110.786 42.1656C110.818 42.1933 110.928 42.3246 111.094 42.5292C111.91 43.5169 113.881 46.071 114.474 46.3218C114.611 46.3715 112.782 44.0818 111.29 42.35C110.439 41.3526 109.727 40.5798 109.64 40.5207C109.493 40.4208 109.075 40.9238 108.907 40.8412C108.816 40.7771 107.07 38.6895 106.792 38.5318C106.71 38.4777 106.644 38.4415 106.595 38.4165C107.004 38.5108 105.338 37.0238 105.257 37.2724C105.216 37.3452 106.373 38.3079 106.431 38.3492C106.453 38.3612 106.475 38.3692 106.495 38.3784C106.055 38.2268 110.112 42.3121 108.975 41.691C110.014 43.0842 109.195 41.1398 109.946 42.2265ZM115.644 49.2511C115.562 49.0517 115.482 48.8546 115.401 48.657C116.188 49.6611 117.086 50.6922 118.043 51.7498C117.274 50.7508 117.473 50.0139 118.672 53.8338C118.71 53.9407 118.742 54.035 118.767 54.117C118.885 54.5958 118.331 54.0845 118.725 54.894C119.061 55.5903 119.701 56.381 119.651 55.9175C119.64 55.8198 119.16 54.8223 118.838 54.0913C118.673 53.6695 118.55 53.3243 118.466 53.0566C118.156 52.0563 118.078 51.6833 118.038 51.4277C118.003 51.185 118.024 51.094 118.055 51.0303C118.118 50.9115 118.226 50.9382 118.218 50.9021C118.21 50.8627 118.074 50.6873 118.021 50.7215C117.961 50.7407 118.016 50.9769 118.146 51.147C118.222 51.2488 118.31 51.3504 118.4 51.4414C117.017 49.7577 116.201 48.5842 113.907 46.3411C115.114 48.0839 113.959 47.5375 115.644 49.2511ZM66.5769 68.5939C66.7007 68.3913 65.8484 67.4154 65.7043 67.0411C65.5179 67.1947 66.3045 68.1563 66.5769 68.5939ZM43.7966 106.822C43.794 107.09 43.2782 106.715 42.8318 106.22C42.3888 105.734 42.0055 105.13 42.4261 105.428C42.6216 105.584 43.5523 106.581 43.7966 106.822ZM34.1573 91.4003C34.0431 90.8278 35.1361 92.8954 34.8737 92.9838C34.7853 93.0246 34.1694 91.4843 34.1573 91.4003ZM117.522 70.9572C117.446 71.0263 116.345 72.2707 116.315 72.3227C115.852 73.3787 119.421 69.3375 117.522 70.9572ZM28.0052 67.2458C27.9954 68.3318 27.7579 67.1061 27.6585 66.0273C27.5671 65.0452 27.569 64.1866 27.7721 65.049C27.7821 65.0935 27.8241 65.5227 27.8747 66.0088C27.9327 66.5679 28.0058 67.1924 28.0052 67.2458ZM27.7287 58.988C27.6891 59.4184 27.8106 61.4514 27.7068 61.4896C27.5136 61.5257 27.3947 59.1836 27.7287 58.988ZM88.125 81.6354C88.4766 81.2968 85.3816 80.8608 84.3196 80.5134C83.9588 80.8542 87.1089 81.3496 88.125 81.6354ZM101.263 82.5476C100.822 82.6893 100.428 82.8015 100.082 82.8908C100.475 82.7651 100.261 82.8282 99.9489 82.8362C99.627 82.8535 99.1902 82.8598 98.8179 82.8631C98.0527 82.8676 97.5796 82.886 97.6802 82.953C97.7576 83.0155 98.3845 83.1226 99.1168 83.1738C99.4764 83.1993 99.8568 83.2056 100.109 83.1901C100.357 83.1804 100.478 83.126 100.169 83.1921C100.65 83.0377 101.21 82.8276 101.831 82.5514C101.745 82.2963 101.79 82.3759 101.263 82.5476ZM90.8626 81.9865C91.2479 82.3428 92.6196 82.5351 93.4339 82.643C93.3407 82.4469 91.5391 82.1854 90.8626 81.9865ZM46.6204 108.545C46.4024 108.026 44.6473 107.025 44.8129 107.347C44.8272 107.459 46.627 108.818 46.6204 108.545ZM116.55 71.4487C116.486 70.9552 113.907 73.7411 113.732 74.0073C113.13 75.0955 116.317 71.5983 116.55 71.4487ZM75.2714 76.5599C75.0586 75.9819 73.7287 75.0385 72.9337 74.2735C73.1038 74.8247 74.6198 76.0468 75.2714 76.5599ZM78.9932 78.5409C78.9534 78.521 78.2016 78.3063 77.6785 78.1578C77.9275 78.2416 78.0086 78.2848 78.0202 78.2939C78.1076 78.3967 78.0747 78.4358 78.0319 78.4533C77.9794 78.4684 77.8855 78.4454 77.6147 78.3666C78.5445 78.6665 79.8992 78.9691 78.9932 78.5409ZM130.628 111.465C130.567 111.482 129.275 112.092 129.233 112.124C128.196 112.931 132.077 111.095 130.628 111.465Z" fill="#6308BC" fill-opacity="0.12"/>
</svg>
