<svg width="137" height="157" viewBox="0 0 137 157" fill="none" xmlns="http://www.w3.org/2000/svg">
<path opacity="0.26" d="M21.8573 10.1139C22.2711 9.91157 23.7055 8.99279 24.3007 8.68509C23.4804 8.66024 20.4016 10.803 21.8573 10.1139ZM83.0121 32.3423C82.8894 32.1112 82.7713 31.8931 82.656 31.6861C83.1841 31.9821 83.8973 32.7067 84.634 33.3328C84.7542 33.4332 84.6769 32.9417 84.9452 33.1983C85.2209 33.4664 84.8764 33.6729 85.2601 34.1463C85.5366 34.4745 86.5658 35.5094 88.0608 37.0131C88.5368 37.4544 88.9729 37.9029 89.2081 38.1875C91.2191 40.6112 92.9845 43.72 94.9165 47.1965C95.3257 47.9362 95.718 48.6144 96.1006 49.2594C95.5235 48.0717 95.2159 47.3563 95.1389 47.0767C95.1067 46.9261 95.1509 46.9225 95.2446 47.0198C95.677 47.5442 96.9029 49.5989 97.2498 50.3859C97.3518 50.6606 96.8222 51.0849 99.2151 55.2979C100.443 57.5392 100.436 55.7753 101.41 58.0351C101.584 58.4493 101.787 59.0015 102.024 59.7452C99.7759 56.5508 101.418 59.9165 102.522 62.7647C102.729 63.2418 104.34 67.2005 104.868 69.0012C105.058 69.6154 104.986 70.6581 105.216 71.4627C105.267 71.6407 105.335 71.7992 105.411 71.9583C105.576 72.3124 105.777 72.6638 105.931 73.2419C106.987 77.1885 107.8 80.9722 108.276 84.5004C109.005 82.2917 108.885 86.0954 108.908 86.2243C109.261 87.0538 108.964 83.2228 109.284 84.7212C109.413 86.1024 109.474 87.4211 109.466 88.7322C109.464 89.6514 109.453 90.5359 109.434 91.4278C109.333 89.375 108.577 94.1237 108.838 94.9279C108.406 94.7244 108.514 97.4954 108.446 100.173C108.408 102.866 108.089 105.201 107.527 107.204C107.395 107.649 107.565 105.711 107.093 107.734C107.099 107.41 107.339 106.88 107.149 107.445C107.068 107.651 107.336 107.703 107.247 107.816C107.19 107.89 106.208 107.951 106.062 108.991C106.037 109.18 106.442 108.897 106.497 109.049C106.514 109.239 106.422 109.632 104.359 112.183C104.752 111.011 103.65 112.215 101.647 114.932C100.301 116.838 98.3262 119.211 97.774 119.89C97.9305 119.574 98.0817 119.256 98.2324 118.932C97.2962 120.346 96.8802 120.298 96.6391 120.55C96.3683 120.823 96.0806 121.122 95.8249 121.387C95.5786 121.647 95.3056 121.907 95.3526 121.921C94.9374 122.286 94.344 122.708 93.7864 123.012C92.2669 123.823 92.0166 123.359 90.044 124.57C90.4939 124.219 90.9285 123.872 91.3427 123.528C89.9925 124.252 88.5013 124.995 86.9113 125.773C90.8428 124.689 86.1664 126.164 85.8032 126.312C85.3014 126.519 86.1315 126.446 85.289 126.802C85.1952 126.84 85.2283 126.524 83.8867 127.124C82.8028 127.612 82.1655 127.963 81.7619 128.222C81.3729 128.506 81.3532 128.658 80.8607 128.884C80.787 128.91 80.9413 128.597 79.5463 129.128C75.0494 130.638 79.6456 129.331 79.8212 129.251C80.0526 129.177 79.0245 130.723 82.1457 128.996C82.3571 128.88 82.5869 128.753 82.8174 128.624C82.572 128.76 82.3462 128.895 82.1559 129.017C81.3714 129.585 81.3949 129.937 81.2741 130.005C81.1539 130.092 78.8736 130.963 78.7352 130.976C77.5556 131.239 78.4448 130.594 78.2064 130.621C78.0379 130.664 75.3288 131.927 74.4186 131.168C74.3265 131.26 74.2538 131.342 74.2003 131.413C74.1838 131.622 74.2148 131.752 74.2998 131.827C74.8291 131.918 76.2562 131.557 77.7053 131.152C78.0999 131.22 75.6485 132.162 75.4998 132.178C75.071 132.293 74.7225 132.367 74.4403 132.413C73.8056 132.394 74.1316 131.736 73.8961 131.382C73.7787 131.166 73.5147 131.662 73.7411 131.014C73.0787 130.978 73.4659 131.32 73.4352 131.38C73.3602 131.462 73.049 131.259 72.9963 131.274C72.9222 131.301 73.142 131.547 72.8515 131.588C72.7912 131.591 72.4081 131.151 73.0036 131.061C72.6455 131.042 72.4148 130.914 72.2717 130.886C72.1199 130.855 72.0361 130.917 71.7401 131.164C71.258 129.73 70.8352 131.617 70.3778 131.52C69.0369 131.17 69.7209 130.403 69.6897 130.344C69.6047 130.242 69.3794 130.106 68.9818 129.908C66.1642 128.486 61.1408 127.326 60.9021 127.106C60.9341 127.481 61.747 127.722 63.1345 128.067C64.4847 128.397 66.2284 128.864 66.8168 129.168C68.8117 130.208 67.2824 129.651 65.6985 129.231C64.1012 128.811 62.6318 128.583 63.7725 129.387C62.7514 128.813 61.8242 128.302 61.1867 127.861C60.6546 127.918 60.611 128.075 60.5292 128.168C60.4679 128.267 60.3483 128.296 60.0897 128.209C60.1755 128.238 60.192 128.243 59.8266 127.994C59.8094 127.781 59.9812 127.836 60.1101 127.907C60.2485 127.984 60.2607 128.034 60.1679 127.989C60.2595 128.013 60.3221 127.996 60.2712 127.877C60.2624 127.855 60.2483 127.831 60.2321 127.808C60.3637 127.76 60.3829 127.716 60.2296 127.586C60.0898 127.463 59.8652 127.29 59.885 127.239C59.9091 127.172 60.1474 127.316 60.2872 127.383C60.4366 127.455 60.4599 127.449 60.4924 127.345C60.5294 127.233 60.4639 127.143 60.163 126.952C59.874 126.768 59.3893 126.488 58.9745 126.258C58.5593 126.029 58.2315 125.872 58.2513 125.973C58.2581 126.061 58.6696 126.463 59.4482 127.026C58.5539 126.454 57.3972 126.768 56.5758 125.782C56.0311 125.094 60.4921 127.039 54.8219 122.782C54.4268 123.04 56.9854 124.724 57.004 124.758C57.0605 124.864 56.0328 125.32 55.9287 125.299C55.7744 125.265 54.7088 124.357 53.3711 123.14C51.468 121.425 49.1549 119.251 48.1652 118.737C48.6773 118.774 47.1512 117.389 45.568 115.997C45.8776 116.3 45.9619 116.477 45.9392 116.453C45.9191 116.438 45.8237 116.269 45.8251 116.191C45.8322 116.109 46.2649 116.153 46.2593 116.07C46.2583 115.842 45.711 115.103 44.3917 112.928C43.8996 112.241 43.4353 111.538 43.1693 111.006C42.4121 109.474 42.7776 109.51 42.7361 109.429C42.3921 108.723 42.4683 109.38 42.267 108.939C42.1094 108.595 41.4547 107.165 40.8397 105.755C40.4298 104.829 40.1354 103.973 40.1274 103.887C40.1233 103.833 40.6417 104.275 40.4477 103.51C40.438 103.384 39.9721 103.566 39.6134 101.35C39.2951 98.7622 40.5084 103.009 40.6979 101.84C39.71 100.37 40.3653 100.304 40.2421 99.8986C40.203 99.7618 39.5249 98.7279 39.5533 97.5795C39.4761 98.3973 39.4635 99.2536 39.5203 100.143C39.2721 99.2822 39.2914 97.6568 39.228 97.002C39.1918 96.6763 38.7485 96.9269 38.8086 96.2115C38.8397 96.0635 39.8562 95.5564 39.3335 97.3452C39.698 97.4925 39.4714 96.6233 39.6145 96.2411C39.6369 96.1797 40.2617 96.0174 39.9461 95.4954C39.92 95.3728 37.745 96.3825 39.8319 93.2465C39.905 93.1447 40.0064 93.6022 40.0834 93.5037C40.0999 93.4833 40.1287 93.3716 40.1663 93.2217C40.2586 92.8593 40.4172 92.2644 40.4701 92.1754C40.5476 92.0488 40.587 92.715 40.6868 92.5657C41.1947 91.8138 40.6886 90.3101 40.1383 92.1523C40.2194 91.5236 40.3257 90.8569 40.4465 90.1754C40.8865 91.1095 41.0016 89.2472 41.3877 88.3337C43.8992 82.5097 42.7479 86.6304 43.3854 85.7155C44.4368 84.2578 42.7488 84.9834 44.1446 82.7516C44.2692 82.6001 43.4995 85.4539 45.6879 80.0737C45.3237 80.7668 44.9273 81.567 44.542 82.3679C44.209 81.7873 45.1969 80.3928 45.6819 79.8416C45.8147 79.7036 45.9186 79.6012 45.9364 79.5719C46.8651 78.0906 46.0024 78.9849 47.794 76.8524C47.9577 76.6655 48.119 76.1182 48.499 75.7465C50.054 74.2078 47.0119 78.2215 47.2699 78.5277C47.2677 78.6037 50.3436 74.2082 50.4219 74.2025C50.666 73.4355 48.8741 75.8787 48.9486 75.2208C48.9273 75.1058 50.6566 72.9963 51.8357 72.1085C51.1125 72.7106 50.8383 72.743 51.0517 72.6745C51.241 72.6002 51.7884 72.4329 52.116 72.3183C52.5596 72.1601 53.0699 71.9418 53.5876 71.7117C53.6044 71.5574 53.8196 71.3576 53.9661 71.3167C54.118 71.274 54.2319 71.3785 54.2906 71.7768C54.5258 70.6709 55.0643 71.3419 55.2813 71.3144C58.1779 70.9954 58.36 71.0114 61.3033 71.1074C61.9679 71.1348 62.5446 70.825 62.7821 70.8846C62.9191 70.9208 62.6537 71.258 63.3297 71.3816C63.7671 71.4618 65.3296 71.4662 66.8071 71.4678C65.1847 71.2739 65.2735 71.0683 65.3057 71.0516C65.3903 71.0174 65.6264 71.057 65.6826 71.0292C65.8112 70.9847 65.5523 70.8387 65.4585 70.7642C65.3446 70.6828 65.5071 70.6859 65.5051 70.5199C65.4303 70.4236 66.9276 71.2191 68.2254 72.0749C68.8003 72.4443 68.6344 72.0689 68.8844 72.2351C68.9884 72.2792 70.901 73.9526 70.7619 73.966C70.6123 73.9626 68.9588 72.6902 67.6414 71.9116C66.2937 71.1021 65.5916 70.8825 66.0484 71.3189C66.2087 71.475 67.4531 71.6277 66.9803 72.063C68.9508 73.2045 71.2998 74.9648 73.3031 76.7581C76.2595 79.5239 77.3694 80.8921 79.036 85.2792C77.9613 80.8848 76.4349 79.3567 73.5989 76.5594C73.5813 76.5426 73.5615 76.524 73.5398 76.5038C73.0615 76.0437 71.6718 74.9025 72.0354 74.8288C72.5969 75.2821 73.1697 75.7792 73.7305 76.2989C75.8433 78.2486 77.1806 80.198 78.2139 82.0035C78.2577 82.0789 78.3702 81.6701 78.5514 81.945C78.8855 82.3833 79.3308 84.7863 79.6518 85.3722C79.6967 85.4097 79.4872 83.7763 79.8742 84.1511C80.8742 85.1241 79.7337 85.9198 80.2763 87.3268C80.314 87.4236 80.3744 87.5674 80.4571 87.7558C80.1687 86.7298 80.6921 87.8466 80.9273 89.1312C81.1977 90.4359 81.3514 91.9712 81.2102 92.6129C80.9068 94.0679 80.6082 88.6517 80.2671 89.2036C80.3208 91.3919 80.5778 94.0375 80.7303 96.6244C80.7934 97.501 80.7963 98.3566 80.7037 99.1807C80.6982 99.2228 80.4595 98.8221 80.3668 99.366C80.1933 100.304 80.5251 100.617 80.5013 101.099C80.4937 101.619 79.9533 103.409 79.9888 103.703C79.9972 103.74 80.4866 103.484 80.514 103.428C80.9114 102.658 80.4791 102.249 80.4928 102.175C80.5396 101.904 80.7888 101.677 80.8282 101.427C80.8919 101.012 80.758 100.757 80.8221 100.222C80.8627 99.8493 81.1546 100.256 81.1866 99.8934C81.2109 99.7428 80.5468 98.2811 81.3411 98.1862C81.448 98.176 81.5525 100.626 80.7747 103.455C80.0287 106.391 78.4029 109.238 76.7671 112.523C76.6818 112.686 76.6116 112.795 76.5634 112.851C76.6044 112.732 76.6443 112.61 76.6826 112.485C77.5682 110.415 78.0346 109.47 78.4782 108.388C78.0567 109.459 77.4266 110.449 76.4835 112.394C76.0968 113.134 75.808 113.519 76.2414 113.897C75.8442 114.496 75.4896 114.838 75.2168 115.041C74.6682 115.499 72.5992 116.339 69.8788 116.853C66.263 117.622 65.8682 117.785 63.9832 117.908C65.1618 117.812 66.7236 118.29 67.3084 118.669C67.9417 119.047 67.8849 119.124 67.6186 118.839C67.0257 118.268 65.7897 116.604 64.0359 114.51C63.9402 114.402 63.8488 114.302 63.7617 114.211C63.0383 113.498 62.923 114.353 61.8442 112.409C62.3401 112.837 62.8243 113.197 63.3022 113.504C62.8757 113.083 61.845 111.801 60.7142 109.722C60.9689 110.235 61.0326 110.463 61.0783 110.607C61.1189 110.746 61.1212 110.785 61.1171 110.786C61.1057 110.781 61.066 110.623 61.0385 110.456C60.9795 110.108 60.9536 109.706 60.9693 109.532C60.9847 109.418 61.4933 109.291 61.5289 107.946C61.5814 106.733 61.1977 106.497 61.1667 105.819C61.1539 105.442 61.2289 105.046 61.2831 104.776C61.3089 104.652 61.3286 104.564 61.3275 104.516C61.3246 104.407 61.0792 104.329 61.0762 104.074C61.0801 103.298 61.6567 104.039 61.0121 103.168C60.9422 103.326 60.8741 103.494 60.8088 103.668C60.8535 102.77 60.8801 101.545 60.332 102.734C60.2446 102.946 60.5295 102.819 60.4886 102.98C60.3398 103.57 60.2423 104.134 60.1693 104.639C59.785 108.371 59.6922 106.888 59.9078 104.607C60.0245 103.568 60.283 102.642 60.6261 102.004C60.5296 101.563 60.9562 100.681 62.1375 97.6593C61.9259 98.2629 61.6223 98.7145 61.45 98.9305C61.2709 99.1539 61.1965 99.2103 61.1747 99.212C61.1073 99.2048 61.0823 99.0932 61.013 98.9977C60.9524 98.8934 60.7958 98.8609 60.6587 98.812C60.6486 98.8061 60.6011 98.8358 60.7376 98.7531C60.8657 98.6762 61.2095 98.499 61.6504 98.3134C61.9536 98.1823 62.1271 98.1211 62.191 98.0553C62.25 97.9927 62.2522 97.9081 62.0427 97.8334C61.9783 97.8137 61.8031 97.8486 61.5102 97.9705C61.1357 98.1244 60.7982 98.304 60.6272 98.416C60.4487 98.5321 60.4352 98.5621 60.4411 98.55C60.1922 98.3297 60.6138 98.0256 61.4463 97.8142C62.3024 97.6515 62.4566 98.0904 62.4636 98.0596C62.5192 98.0015 62.4987 97.8288 62.3728 97.6758C62.3145 97.5994 62.2427 97.5295 62.2601 97.4606C62.2732 97.3932 62.3931 97.3206 62.5468 97.3073C63.0387 97.3193 62.4975 97.7411 62.5984 97.9845C62.6108 98.0553 62.7632 97.9591 63.2041 98.1698C63.5992 98.3477 64.3339 98.9506 64.0849 99.2208C64.628 99.6757 65.0201 99.8664 65.0353 99.7649C65.0737 99.6813 64.9176 99.4382 65.0418 99.512C65.1354 99.5655 65.3011 99.7327 66.1818 100.318C66.1411 100.321 66.0622 100.299 66.0578 100.311C66.0496 100.32 66.1298 100.402 66.2373 100.456C66.2734 100.473 66.5165 100.162 66.5622 100.172C66.6022 100.182 66.747 100.38 66.9775 100.816C67.1984 101.23 67.498 101.885 67.5102 101.944C67.5181 102.008 66.94 101.611 66.9834 101.871C67.0021 101.981 67.1686 102.333 67.4318 102.868L67.2269 102.435C66.9254 101.727 66.9468 101.662 66.9261 101.619C66.9195 101.596 66.9379 101.682 66.9524 101.778C66.9835 101.978 67.0064 102.221 66.9811 102.257C66.9415 102.321 66.8828 102.056 66.8198 101.831C66.7898 101.724 66.7569 101.628 66.7509 101.663C66.7555 101.71 66.7404 101.845 67.0078 102.532L67.2178 102.976C66.9685 102.584 66.8017 102.413 66.7757 102.634C66.8513 102.765 66.9317 102.912 67.0179 103.077L66.8031 102.622C66.5264 101.966 66.5175 101.832 66.4862 101.753C66.4652 101.687 66.4703 101.734 66.4751 101.817C66.4875 101.99 66.504 102.312 66.5037 102.646C66.5049 103.323 66.4477 104.063 66.3492 104.507C66.418 104.253 66.2926 102.89 66.206 102.541C65.7043 102.684 65.9796 105.649 66.3183 104.598C66.1413 105.279 65.9825 104.838 65.7934 105.228C65.7468 105.327 65.8006 106.294 65.7161 106.491C65.7 106.514 65.43 105.528 65.3323 105.737C65.2682 105.873 65.26 106.349 65.2721 106.924L65.2578 106.559C65.2533 106.715 65.2489 106.841 65.2462 106.906C65.243 106.976 65.2449 106.969 65.2445 107.025C65.2469 107.105 65.1925 107.775 65.2003 107.888C65.2114 108.178 65.254 108.143 65.3154 107.921C65.3762 107.705 65.4613 107.313 65.5229 107.154C65.5846 106.989 65.6301 107.015 65.6844 106.957C65.7377 106.908 65.7925 106.821 65.8498 106.798C65.8676 106.807 65.989 106.989 66.1025 107.08C66.2219 107.145 66.2384 108.184 66.2618 108.188C66.459 108.341 66.5989 107.244 66.6318 107.137C66.6679 107.018 66.6866 106.823 66.8786 106.872C66.9517 107.165 67.0497 106.972 67.0362 107.924C67.1444 107.414 67.2149 107.176 67.2536 107.097C67.2952 107.002 67.3268 106.819 67.3413 106.51L67.3531 106.81C67.3524 104.719 67.1178 102.628 67.3401 102.108C67.4773 103.496 67.59 105.493 67.8258 106.784L67.8146 106.499C67.8883 106.873 67.9756 107.034 68.1034 107.139C68.231 107.242 68.3916 107.364 68.6098 107.383C68.8201 107.388 69.0023 107.233 69.1343 107.085C69.268 106.93 69.3537 106.677 69.4072 106.697C69.5993 106.783 69.5923 107.115 69.5178 107.351C69.4466 107.575 69.2577 108.432 69.268 108.473C69.2836 108.564 69.3028 108.609 69.3248 108.611C69.3248 108.611 69.3248 108.611 69.3248 108.611C69.4101 108.651 69.5785 107.767 69.6822 107.433C69.7326 107.261 69.7714 107.146 69.8051 106.971C69.8385 106.801 69.8638 106.603 69.8854 106.449L69.8941 106.67C69.9066 106.501 69.92 106.389 69.9366 106.362C70.0076 106.255 70.197 106.415 70.4032 106.642L70.3952 106.437C70.6635 106.69 70.9471 106.982 71.0415 106.981C71.0554 106.97 71.0969 106.732 71.1483 106.419L71.1554 106.601C71.2118 106.057 71.306 105.489 71.5028 105.896C71.5845 106.065 71.6529 106.304 71.7093 106.571L71.7028 106.406C71.8556 107.13 71.8067 107.694 71.8168 107.817C71.8608 107.928 71.9425 107.682 72.0099 107.436C72.0784 107.191 72.1332 106.81 72.1665 106.395L72.1724 106.546C72.193 105.998 72.2079 105.544 72.2431 105.507C72.2712 105.476 72.4271 106.032 72.5668 106.524L72.5614 106.386C72.6521 106.701 72.7283 106.952 72.7668 106.969C72.8132 106.987 72.893 106.735 72.9846 106.376L72.9895 106.501C73.0656 106.105 73.1586 105.645 73.2842 105.378C73.4744 104.971 73.7133 106.103 73.7338 105.9C73.761 105.746 73.512 102.68 73.5158 102.548C73.5481 102.323 73.8801 102.997 73.9331 102.889C74.0132 102.73 73.8077 101.777 73.9162 101.892C74.0283 101.932 75.2411 105.744 75.4568 105.725C75.8721 105.653 74.6174 101.532 76.5065 105.32C76.5184 105.344 76.4733 106.146 76.4721 106.31L76.4714 106.293C76.4708 106.309 76.471 106.319 76.4719 106.321C76.539 106.447 76.6103 106.402 76.6801 106.288L76.6805 106.299C76.8694 105.969 77.0279 105.098 77.1399 106.273C77.157 106.574 77.1688 107.002 77.1265 107.598C77.1892 107.093 77.2189 106.654 77.243 106.275C77.3455 101.352 77.829 106.596 78.3949 105.591C78.6448 105.172 78.5253 102.384 78.5487 102.359C78.91 102.599 78.734 103.517 78.9194 103.804C79.0345 103.971 79.14 101.412 79.4208 101.953C79.5862 102.246 79.7617 104.928 79.7817 105.034C80.0646 106.073 80.2161 104.766 80.3842 104.987C80.4479 105.069 80.511 105.618 80.553 106.086L80.5573 106.196C80.5806 106.598 80.5836 106.972 80.5914 106.995C80.6059 107.026 80.6828 106.657 80.762 106.191L80.7575 106.075C80.8657 105.403 80.9932 104.452 81.0608 104.161C81.1485 103.8 81.418 105.108 81.4493 104.86C81.6606 103.374 80.5738 100.188 81.922 103.208C82.0049 103.395 82.0655 104.555 82.0789 104.588C82.4268 105.285 82.3021 103.148 82.501 102.727C82.8633 102.019 82.8967 105.178 82.9673 102.539C83.2758 103.865 83.3892 104.775 83.4459 105.928L83.4537 106.127C83.4639 106.751 83.4527 107.587 83.3426 108.578C83.4465 107.659 83.4797 106.78 83.5046 106.126L83.4968 105.925C83.5137 101.249 84.2412 99.9499 84.6726 105.861L84.6819 106.098C84.6855 106.241 84.688 106.386 84.689 106.544C84.6865 106.38 84.6849 106.236 84.6847 106.098L84.6753 105.86C84.6177 104.025 85.1635 104.16 85.1276 103.521C85.1256 103.131 84.1375 99.7146 85.6771 101.168C85.8802 101.37 85.8493 103.461 86.1401 102.783C85.5212 97.6674 86.3762 102.694 86.3996 102.658C86.5837 102.624 86.6419 101.961 86.5722 100.842C86.5355 100.28 86.4685 99.607 86.3349 98.7593C86.2663 98.3309 86.1826 97.8591 86.0475 97.2678C85.8819 96.6274 85.8113 96.0734 85.1483 94.5066L84.9345 94.0543C83.9761 91.4943 79.1636 85.37 77.1951 84.4603C76.948 84.2793 76.7025 84.1055 76.4531 83.9353C76.6524 84.0391 76.5922 83.9734 76.5012 83.8671C76.406 83.7595 76.2521 83.6006 76.0831 83.4282C75.7439 83.0818 75.3371 82.6797 74.9538 82.3189C74.1744 81.5844 73.4535 80.9973 73.1343 80.8151C70.7528 79.5302 72.5902 80.8791 71.9995 80.6992C71.7141 80.619 69.8894 79.5165 67.6557 78.8008C65.4436 78.0479 63.0435 77.8462 62.8314 77.8671C61.1121 78.006 62.8594 78.3803 62.6734 78.4033C61.507 78.4487 57.3085 78.8086 54.2166 80.1382C52.0726 80.9436 49.6345 82.3631 48.4802 83.3658C48.4672 82.8455 53.5677 79.8846 50.1763 81.3819C48.1363 82.3546 47.0776 83.5578 46.673 84.2553C46.2526 84.9799 46.3887 85.2755 46.3546 85.3435C45.0435 86.7566 43.7936 88.6527 43.0343 90.7836C42.5106 91.9629 39.9476 98.0883 39.6793 102.124C39.3745 104.623 39.257 107.065 39.3483 109.642C39.3982 110.935 39.4968 112.252 39.7204 113.733C40.019 115.294 40.0588 116.621 41.5245 119.689C42.8794 122.334 44.7511 125.539 47.1836 128.369C47.2914 128.495 47.4045 128.631 47.522 128.774C47.4265 128.828 47.2349 128.709 47.0094 128.518C45.0046 126.711 42.0778 121.22 42.063 121.19C41.5352 120.675 43.4043 124.869 46.7311 128.755C47.8666 130.113 49.9194 132.712 50.6377 133.336C49.4981 132.231 48.613 131.285 47.8378 130.508C48.1621 131.437 49.1553 132.735 51.0048 134.574C52.784 136.33 56.0271 139.012 60.2404 140.215C62.8807 140.964 57.7104 139.905 57.8979 139.825C60.5357 141.393 65.8925 141.289 62.1095 140.664C63.3543 140.886 64.3621 140.922 65.1892 140.902C67.0234 140.893 67.029 140.649 69.1942 140.329C69.3268 140.303 68.2549 140.759 70.323 140.53C71.076 140.456 73.5994 139.887 74.2875 139.852C74.9049 139.77 75.4006 139.714 75.5866 139.743C75.748 139.768 75.0796 140.311 74.4234 140.561C74.1968 140.691 73.9117 140.708 73.7585 140.364C72.9853 140.643 72.2421 140.841 71.8385 140.905C71.4199 140.974 71.2892 140.933 71.2671 140.858C71.2143 140.709 71.5755 140.433 70.5325 140.64C70.2257 140.639 70.9981 141.29 65.5358 141.505C66.488 142.517 73.2613 140.686 73.4619 140.653C74.097 140.624 73.4074 140.977 71.227 141.479C69.0269 141.994 66.1283 142.168 65.3501 141.842C65.7014 142.134 65.6264 142.195 65.2564 142.183C64.1573 142.206 61.7644 142.018 59.1824 141.234C56.712 140.443 56.2246 140.095 55.8348 139.987C55.4797 139.855 55.31 139.849 54.3384 139.233C51.8369 137.533 51.6608 136.985 51.241 136.546C50.8941 136.118 50.5165 135.762 49.3269 134.78C50.883 135.439 49.8864 134.341 48.6991 133.173C47.4905 131.98 46.1977 130.933 45.6928 130.613C46.9944 132.185 48.2537 134.743 52.623 138.442C52.316 138.296 52.0189 138.149 51.7318 138.002C52.8391 138.922 54.2192 139.924 56.0146 140.81C55.7577 140.603 55.5192 140.397 55.289 140.188C58.9965 142.548 63.1656 142.91 65.284 142.709C66.4579 142.583 66.9203 142.368 67.1405 142.346C69.8962 142.108 73.4344 141.226 74.5105 141.015C76.6143 140.607 78.8727 140.073 81.141 139.307C81.9345 138.919 81.3952 140.113 87.2313 136.712C89.0178 135.513 87.2737 136.219 89.0194 135.093C89.1047 135.035 89.1976 134.972 89.2987 134.904C92.566 133.679 91.949 133.002 92.6564 132.372C94.629 130.447 95.7159 129.278 95.8791 129.091C97.1845 127.42 98.5507 125.144 99.5523 122.929C99.6269 122.759 100.004 122.031 100.349 121.394C100.371 121.359 100.13 122.47 100.687 121.205C100.823 120.833 102.169 115.765 104.032 111.093C103.725 112.355 103.37 113.593 102.98 114.797C103.701 113.569 106.509 102.998 106.204 105.645C106.153 107.351 104.299 110.989 104.886 111.611C105.455 109.677 107.386 102.227 107.082 95.8157C107.008 92.0434 106.709 88.5808 106.563 87.9909C106.52 87.8092 106.377 88.9767 106.32 88.7228C106.305 88.5654 105.882 84.4831 105.624 83.7974C105.514 83.4614 105.672 85.4455 105.549 85.2881C105.429 85.0853 105.121 82.1473 103.975 78.6676C103.935 78.4718 103.923 78.3066 103.969 78.252C103.991 78.3643 104.028 78.4997 104.069 78.6312C104.718 80.4236 104.964 81.6133 105.183 82.3557C105.38 83.0597 105.515 83.2907 105.426 82.2838C105.415 82.014 104.791 80.3218 104.613 79.6864C104.473 79.1019 104.347 78.6694 104.328 78.5311C104.338 78.5101 104.353 78.5052 104.372 78.5143C105.539 80.5475 106.342 86.5476 106.392 87.4518C106.365 86.4506 106.272 85.3103 106.073 83.9764C105.82 82.5474 105.74 81.3886 104.657 78.4041C103.88 76.3894 102.072 71.4133 100.08 67.8195C98.4668 65.5298 101.723 71.6262 100.016 68.98C96.2917 63.6443 99.4501 67.2854 99.389 67.0987C98.8067 65.441 94.354 62.0771 95.161 61.4398C93.5369 59.8632 93.9464 60.459 91.8616 58.1889C92.1995 58.4093 92.5493 58.6477 92.8856 58.8796C92.5312 58.3593 92.029 57.8104 91.4384 57.2737C88.966 54.9845 84.8203 53.2058 85.08 53.5386C85.9618 54.5839 88.8842 56.3667 89.0911 56.5863C89.2778 56.7667 89.4155 57.4073 90.3605 58.4318C91.0433 59.1729 92.0993 60.0872 93.8149 61.397C94.464 62.8998 90.9908 59.159 90.1263 58.6834C89.9568 58.5745 89.9053 58.5846 90.0351 58.7814C90.1393 58.9345 90.3489 59.1953 90.6757 59.5918C90.4884 59.4002 90.2417 59.1606 89.9412 58.8823C87.2013 56.0845 78.8982 50.6807 77.0012 49.6456C76.7418 49.5016 78.3638 49.3377 74.6122 48.1009C73.6426 47.8192 74.3138 48.1185 75.0303 48.472C75.7422 48.8228 76.474 49.2321 76.0801 49.136C75.7926 49.0695 75.1477 48.8073 74.037 48.4175C72.861 48.0545 71.499 47.4192 68.2245 47.1721C63.1049 47.0892 56.2164 46.372 47.7258 48.0926C44.9899 48.6286 40.3624 50.1353 38.3697 51.5042C37.8849 51.8062 38.1862 51.8854 37.7127 52.1984C37.3812 52.4222 36.8358 52.7809 36.1717 53.298C34.683 54.3897 32.6014 56.2311 31.6987 57.3975C34.0698 54.1302 28.8084 59.9004 27.9139 61.5068C26.3346 63.8967 26.8127 63.9869 26.2304 65.0672C25.6133 66.2513 24.8425 67.576 24.0522 69.0691C22.2536 72.4724 20.4983 75.8496 20.2193 78.259C19.4452 77.7702 18.5748 83.5229 17.7584 86.3785C17.7508 86.4037 17.7431 86.4291 17.7353 86.4546C16.9831 88.8037 15.7842 92.3815 16.1234 88.8589C15.131 93.3184 14.8211 98.1275 15.2706 102.257C15.3462 102.942 15.4865 101.976 15.6152 103.127C15.6277 103.232 15.3832 103.416 15.52 104.405C17.0106 112.439 16.7937 108.373 17.2904 109.796C17.6202 110.571 17.8538 111.12 18.0144 111.54C16.4854 107.236 15.8601 101.737 15.822 100.265C16.2318 101.531 17.4072 110.594 18.7109 112.86C18.7475 112.94 18.9322 112.541 18.9662 112.624C18.9668 112.626 18.9675 112.628 18.9682 112.629C19.0954 112.943 19.4415 113.868 19.8423 114.869C20.4259 116.367 21.089 118.168 20.5869 117.639C20.4479 117.492 19.9676 116.473 19.3649 115.076C18.9946 114.22 18.6067 113.243 18.2318 112.175C18.4843 113.066 17.916 112.542 17.9582 112.7C18.1339 113.344 18.495 114.269 18.9542 115.255C19.6864 116.809 20.6844 118.644 21.1258 119.517C21.2764 119.817 21.0624 119.891 21.0853 119.941C21.7107 121.146 22.0446 120.356 22.0721 121.924C23.8755 123.804 20.1765 117.693 20.9183 117.965C21.1533 118.035 22.3593 120.705 24.0277 123.902C24.7398 125.46 27.347 130.928 29.8939 133.226C30.2223 133.625 30.3843 133.885 30.317 133.949C30.3979 133.931 30.5978 134 30.9563 134.197C31.7386 134.624 34.6457 137.357 35.115 137.925C35.1887 138.022 34.7439 138.448 34.851 138.551C35.0078 138.702 36.5332 139.838 38.0023 141.02C39.0417 141.861 40.0789 142.727 40.6326 143.358C39.7165 142.732 38.8369 142.112 37.9675 141.481C42.9782 145.666 42.2497 145.164 40.3195 143.914C40.2315 143.846 40.1303 143.794 40.0466 143.73C39.0683 143.062 37.9507 142.238 37.3376 141.793C37.0679 141.599 36.8962 141.481 36.8787 141.486C36.8484 141.496 36.9873 141.649 37.2457 141.9C38.6548 143.443 45.5372 148.507 44.2418 146.928C43.9186 146.673 39.4813 143.589 41.8466 144.894C42.2162 145.12 45.0953 147.319 45.3451 147.395C46.443 147.874 40.418 142.992 41.5173 143.222C42.6642 144.643 44.6664 145.888 46.6119 147.233C47.5091 147.848 47.6169 148.253 47.7379 148.332C49.6275 149.475 48.7048 148.589 49.369 148.95C49.5671 149.054 50.7745 149.897 52.1887 150.434C53.0944 150.787 53.6804 150.866 53.5042 150.353C55.9833 151.27 56.6861 151.587 57.1896 151.861C57.6405 152.112 57.6715 152.198 57.4611 152.171C56.9565 152.061 55.8141 151.812 52.1334 150.589C50.6063 150.038 49.4076 149.434 48.3562 148.856C49.159 149.421 50.3108 150.101 52.0706 150.766C54.6698 151.711 56.1665 152.012 56.8974 152.332C57.2815 152.494 56.9691 152.716 57.547 152.994C57.7516 153.095 58.0852 153.231 58.4678 153.399C61.6159 155.386 73.5314 157.701 77.1125 156.476C74.4636 156.636 75.2258 156.236 77.2241 156.025C79.221 155.743 77.619 156.458 78.0159 156.446C78.1388 156.439 78.9664 156.307 80.1061 156.018C82.2481 155.498 85.9209 154.211 86.7248 153.938C81.6396 155.454 82.7093 154.784 86.9076 153.291C86.2668 153.422 85.6259 153.541 84.9856 153.649C87.0627 153.115 90.7305 151.249 92.6588 150.215C92.9677 150.053 93.2399 149.927 93.4374 149.863C93.6077 149.808 93.1601 150.346 93.2574 150.315C94.136 150.014 97.3619 148.186 97.5855 148.188C97.7515 148.201 96.4055 149.099 96.9927 148.955C97.1145 148.925 98.3457 147.922 99.8284 147.316C100.378 147.09 100.175 147.491 100.317 147.44C101.512 147.001 100.621 146.941 102.771 145.937C104.366 145.168 105.752 144.976 108.063 143.371C101.322 147.848 106.027 145.175 109.658 142.897C110.025 142.656 110.341 142.439 110.611 142.253C111.156 141.846 111.261 142.539 113.903 139.89C107.087 144.471 115.488 138.07 116.536 136.651C116.608 136.57 116.401 136.322 117.042 135.626C117.095 135.567 117.184 135.803 117.788 135.162C123.308 128.903 119.654 132.807 120.498 131.458C120.648 131.2 121.259 130.475 121.93 129.644C122.521 128.948 123.357 128.016 123.668 127.611C123.796 127.443 123.549 127.39 124.06 126.729C124.97 125.552 126.039 124.5 126.708 123.558C126.788 123.427 126.481 123.311 127.834 121.391C128.216 120.837 128.728 120.212 128.311 121.12C126.9 124.198 123.3 127.767 122.312 129.711C122.281 129.771 122.256 129.822 122.236 129.866C122.012 130.282 122.093 130.256 122.361 129.956C122.91 129.418 125.724 125.762 125.97 125.389C126.068 125.258 124.921 126.523 125.912 125.105C126.75 123.886 128.986 121.852 130.278 118.959C130.389 118.786 130.969 116.111 130.878 116.179C130.837 116.416 129.071 119.834 129.175 119.221C129.192 119.196 130.245 117.019 130.26 116.603C130.299 116.157 129.415 114.605 129.542 114.034C129.88 112.508 129.916 113.582 130.14 112.538C130.17 112.382 130.203 112.199 130.235 111.99C130.21 111.63 130.917 107.188 131.322 107.191C131.204 107.962 131.069 108.737 130.932 109.469C131.866 105.296 131.664 107.089 131.877 106.508C132.082 105.875 131.653 105.98 131.829 104.541C131.932 104.19 132.582 98.3703 132.704 98.5147C132.191 101.662 132.775 100.552 132.779 100.693C132.762 101.252 132.402 101.965 132.318 102.725C131.621 108.203 132.836 102.742 132.772 104.051C132.754 104.494 132.373 105.369 132.353 105.562C132.294 106.186 132.607 106.259 132.508 106.671C132.271 107.64 132.03 106.418 131.992 106.489C131.577 107.335 131.196 110.695 132.129 108.748C132.037 110.023 131.406 110.043 131.445 110.935C131.5 111.749 131.632 111.576 131.774 111.136C131.92 110.689 132.118 109.794 132.244 109.404C133.128 106.59 133.108 105.548 133.625 101.524C133.801 100.072 134.205 98.411 134.257 97.764C134.309 97.3273 133.43 93.4888 135.013 93.4222C134.903 92.0373 133.996 89.975 133.889 88.5046C133.881 88.3782 133.877 88.2543 133.879 88.1338C133.892 86.6212 134.46 87.0827 134.48 86.9401C134.513 86.7209 134.377 84.8853 134.403 84.268C134.439 83.537 134.688 83.8815 134.67 82.7329C134.591 79.8846 133.99 80.0608 133.923 79.7769C133.015 76.5937 134.024 77.8917 133.977 77.1616C134.015 76.3961 131.688 67.5142 131.294 65.7265C131.392 66.4942 131.482 67.2587 131.569 68.0385C130.872 66.8034 131.034 65.2495 130.409 65.4084C130.673 65.2512 130.744 64.9354 130.702 64.5398C130.597 63.5371 129.777 62.0805 129.606 61.4962C129.513 61.1722 129.69 61.1431 129.565 60.7395C129.094 59.1582 127.701 55.7289 127.455 54.8693C126.447 51.1117 130.534 60.1445 130.731 60.9291C130.311 59.4142 127.384 51.0437 129.299 54.6795C129.597 55.2446 129.546 56.4563 129.648 56.7949C130.339 59.0931 130.101 57.1779 130.201 57.3411C130.371 57.6218 130.507 59.2476 130.682 59.6282C130.739 59.7574 130.821 58.778 131.543 60.9648C131.583 59.7521 129.116 53.7773 128.847 52.9721C128.749 52.6842 130.243 54.141 127.388 49.2928C127.48 49.3234 127.572 49.3542 127.664 49.3852C127.264 48.4255 126.848 47.4648 126.416 46.5046C125.548 44.574 124.639 42.7068 123.719 40.9069C123.724 41.2769 124.212 42.9473 123.284 41.0084C122.749 39.9037 123.501 40.5319 123.459 40.4279C123.321 40.0495 121.535 36.7806 119.866 33.7562C117.027 28.1823 111.636 20.7897 109.709 18.8082C109.463 18.5274 109.121 18.1176 108.727 17.6563C108.158 16.9186 106.796 15.1242 106.633 14.9506C105.766 13.7229 99.6523 8.41576 97.9926 7.55057C97.0988 6.94106 98.1349 7.23251 97.3051 6.72784C96.5209 6.26527 97.1693 7.01333 96.9322 6.88352C96.0317 6.36982 92.0466 4.00474 87.5298 2.77105C84.3988 1.83481 80.4292 0.880973 78.7694 0.753645C80.3184 0.920048 85.4453 2.50661 87.3753 3.33384C88.3393 3.68294 88.9103 3.95355 88.8428 3.98333C88.8106 3.98861 88.0777 3.82189 87.2872 3.65514C86.7733 3.56091 86.222 3.44035 86.0474 3.33701C85.3531 3.41763 83.2886 2.06029 81.9027 1.9097C81.7391 1.8966 82.2737 2.44833 79.8207 2.01671C78.9769 1.87485 76.7321 1.07811 74.1209 1.21694C72.8921 1.03458 69.6712 0.775643 65.8401 1.188C60.6699 1.73815 54.0356 2.73784 53.2829 2.54319C53.2509 2.52004 55.3398 2.06941 53.8864 2.06913C51.9414 2.07928 53.7853 2.70034 51.5596 3.10592C51.4236 3.13174 50.3173 3.2849 48.9911 3.4935C47.2511 3.7625 45.108 4.09731 44.9842 4.08784C43.1077 3.92063 48.2289 2.80847 48.1277 2.77357C47.9436 2.65476 43.6482 3.32437 43.4534 3.40234C43.2972 3.46679 46.9672 3.45774 42.6403 4.00303C43.1231 3.83236 43.5996 3.66475 44.0751 3.49865C42.032 3.71891 41.9051 4.21125 41.4119 4.33425C39.8716 4.73122 38.0091 4.38928 35.4374 5.92024C34.7616 6.32865 36.0397 6.25517 35.9553 6.31327C35.1681 6.82574 33.8087 6.34479 32.5672 7.36885C32.4478 7.48595 35.9429 6.63597 30.0554 8.67557C30.4557 8.45954 30.848 8.25455 31.239 8.05651C30.6972 8.15426 27.9484 9.06486 25.579 10.3648C24.7506 10.8046 24.0172 11.2156 23.8013 11.3518C22.031 12.4792 23.8471 11.8926 21.9458 12.9715C22.9349 11.6218 16.8493 15.5302 17.4942 15.7995C16.204 15.8731 11.7285 20.4903 10.0938 22.4776C10.0004 22.5815 9.89737 22.6938 9.78671 22.8131C8.79697 23.8703 6.99391 25.543 6.74222 25.8683C6.40916 26.2983 6.83236 26.4559 6.2446 27.2544C6.07759 27.4818 3.88863 29.4676 2.49107 31.7286C2.21952 32.1661 2.05727 33.4401 2.81184 32.8451C4.10183 31.8258 5.67436 29.1861 5.96434 29.496C6.2719 29.8248 3.37382 32.6995 2.69039 33.5844C-0.459725 37.6556 1.8437 35.7218 1.86689 35.913C1.91168 36.3961 0.0731019 38.5616 0.0195404 38.6843C-0.188078 39.1534 1.32358 37.7747 1.5077 37.8944C1.74313 38.0426 0.379311 40.4784 0.850344 40.0597C1.52398 39.4438 2.81094 37.2706 2.92975 37.1665C4.46507 35.7927 3.13622 38.3348 2.88079 39.1379C2.8046 39.3799 3.52981 38.7701 3.42637 38.9373C1.84595 41.4971 2.32821 38.8213 1.11651 40.4251C0.0353591 41.876 1.83765 40.3404 1.80803 40.4178C1.77293 40.4947 0.428991 42.1839 0.331655 42.56C0.29466 42.682 4.45236 38.9548 4.58534 39.3995C3.40104 40.6688 2.22264 41.9539 1.03983 43.324C1.33163 43.7243 2.65748 41.5086 2.86397 41.3477C3.2752 41.006 2.53169 42.2945 2.69305 42.3414C2.78763 42.377 4.14597 41.2723 3.2737 42.5596C3.02969 42.9243 2.3302 43.4242 1.56634 44.5897C1.39876 44.8464 1.24378 45.1143 1.07642 45.4373C1.31483 45.1627 1.51935 44.9338 1.72102 44.7091C5.37404 40.7674 2.91361 44.2466 2.92863 44.4922C2.946 44.746 5.26126 42.4776 2.77789 45.5025C2.80294 45.5301 2.82649 45.5557 2.84864 45.5795C3.00885 45.7518 3.09642 45.8234 3.15987 45.8197C3.30991 45.8146 3.32474 45.3661 3.88093 44.8476C4.88497 43.9349 3.16078 46.5131 6.08559 42.5939C6.23058 43.048 4.05371 45.7097 3.70141 46.2377C3.67535 46.2746 3.65835 46.3 3.65167 46.3124C3.62323 46.3668 3.68291 46.3403 3.77078 46.2912C3.94302 46.1973 4.23087 46.012 4.14065 46.2074C4.09597 46.3034 4.05441 46.3943 4.01569 46.4803C2.66212 49.5102 3.8013 47.4341 3.60712 48.5668C3.57964 48.6668 1.72571 51.5636 3.32575 49.4983C3.98795 48.6537 4.54599 47.9116 5.02878 47.2623C6.69886 45.0411 7.47243 43.9428 8.6558 44.1344C7.86226 45.4738 6.78201 46.7503 5.79454 47.8533C4.52341 49.2716 3.36431 50.3999 3.01561 50.8781C2.0606 52.1971 3.25195 50.9766 3.19964 51.185C3.17575 51.2548 2.37005 52.3801 2.3782 52.4143C2.58802 53.3998 4.27405 50.3565 5.9401 47.9657C6.56641 47.0479 7.18795 46.2178 7.62859 45.759C7.36303 46.3229 7.09418 46.8974 6.84038 47.4632C7.35448 46.8247 7.87955 46.1905 8.41039 45.5594C6.16993 48.7874 8.40273 45.7335 9.67167 45.516C9.95107 45.4701 8.0654 47.2321 10.338 45.3179C9.04419 47.0496 9.61023 46.6265 8.21136 47.9846C8.48405 48.1464 11.5566 45.0206 12.8387 43.8178C9.24502 48.6083 10.3703 45.4384 7.86346 49.4503C7.80499 49.5467 7.74547 49.6461 7.68504 49.7484C7.24089 49.9995 7.38211 49.677 7.63909 49.2771C7.89062 48.8803 8.2695 48.4104 8.17795 48.4701C7.9722 48.6042 7.75401 48.859 7.50081 49.1704C6.939 49.8637 6.17975 50.8451 4.89133 51.6403C4.58236 51.8335 5.06058 50.4182 3.85289 52.1525C3.71611 52.3451 3.27699 53.6531 3.3168 53.6489C3.64909 53.6585 4.29052 52.5281 4.42695 52.549C4.54172 52.5763 3.6712 53.7296 3.69841 53.7551C3.97326 53.9869 4.48472 52.8365 4.48015 53.0465C4.43137 53.5368 2.30312 58.1379 5.81933 52.5263C2.35168 56.8837 4.9988 52.8929 6.5062 51.1786C6.88344 50.7391 7.13695 50.7591 7.69565 50.15C7.83834 49.9957 7.98181 49.8276 8.12492 49.6521C8.65464 49.0041 9.15452 48.291 9.45098 47.9766C9.85735 47.5546 8.13941 50.4378 11.0798 46.6352C10.5268 47.6621 9.5512 48.8556 8.61581 50.031C7.49015 51.4455 6.3577 52.8718 5.82398 53.9847C3.90632 58.1219 8.31122 51.8743 9.02128 51.2139C9.17412 51.0446 8.94402 51.8265 9.05065 51.7162C9.09883 51.6657 9.34479 51.3326 9.69743 50.8659C10.5194 49.7645 12.0974 47.8367 12.4425 47.6975C12.9183 47.5015 11.3477 48.9935 11.4574 49.2625C11.4991 49.447 15.354 45.3516 13.4779 47.7468C12.6462 48.8083 11.1283 50.2322 10.2908 51.3239C9.79325 51.969 9.48173 52.5178 9.55467 52.8534C9.89779 52.4153 10.2332 51.9938 10.5875 51.5529C12.0575 49.7358 13.744 47.8214 15.4339 45.9368C14.5333 47.4053 13.6504 48.8736 12.8293 50.3155C15.0326 47.7709 16.8026 45.2726 19.3089 43.0346C14.6968 49.6308 21.5487 41.5562 21.7341 41.5378C21.8049 41.5533 20.2444 44.3965 20.0134 44.8622C22.0436 42.9645 27.9007 36.6598 25.2041 40.9963C25.6584 40.188 27.5169 38.8628 27.5284 38.9057C27.62 39.3932 24.2161 42.8041 25.0084 42.4549C25.9194 42.0561 26.3521 40.7355 27.3302 39.7132C27.5388 39.4956 27.7479 39.2821 27.9392 39.0927C31.5987 35.8363 31.6288 38.207 35.2154 35.3645C35.1659 35.4815 35.1188 35.5976 35.0736 35.7131C35.9913 35.1013 37.1284 34.4265 38.4405 33.6762C39.8236 32.6418 46.3092 31.1531 52.1765 30.0856C52.566 30.0982 53.0294 30.0944 53.5645 30.0743C56.7471 30.0005 63.1427 29.5209 66.4883 29.1355C66.8008 29.0984 67.6013 28.9609 68.4592 28.8095C69.0892 28.6413 69.8421 28.5125 69.9405 28.4809C70.2248 28.361 68.6592 28.3501 69.3588 28.1247C69.4349 28.1002 70.3274 28.0311 71.3204 28.1292C72.3005 28.2168 73.3951 28.4666 73.197 28.6101C72.6485 28.5469 71.2111 28.2036 71.0012 28.2835C70.0008 28.5671 74.063 28.7455 79.934 30.4496C81.3498 30.8159 82.1702 31.4047 82.2766 31.5732C82.0697 31.5724 81.8711 31.5834 81.6805 31.6047C82.0891 31.7777 82.5148 32.0029 83.0121 32.3423ZM28.8389 7.65416C28.0164 7.73402 26.4955 8.42658 24.9862 9.29051C24.527 9.55721 24.069 9.82129 23.6671 10.0095C22.0768 10.7128 18.2563 11.52 20.2976 11.8445C22.0046 10.8557 23.5785 10.0554 25.014 9.34079C26.3387 8.65417 27.6253 8.10584 28.8389 7.65416ZM67.0778 0.0993098C64.7079 0.481907 66.6196 1.04163 68.5177 0.666959C68.7215 0.635783 70.3032 -0.300863 67.0778 0.0993098ZM49.1454 2.63764C49.2278 2.6315 50.7389 2.366 50.7851 2.34883C51.8157 1.94272 49.1945 2.34263 48.8291 2.55192C48.7839 2.57979 48.7823 2.60331 48.8407 2.6194C48.8937 2.6318 48.9918 2.63839 49.1454 2.63764ZM125.821 46.6718C125.134 45.138 125.901 45.6069 126.323 46.5476C126.401 46.7239 126.467 46.917 126.508 47.1156C126.521 47.1816 126.065 46.9067 125.888 46.7484C125.853 46.7176 125.83 46.6911 125.821 46.6718ZM125.2 45.3951C123.986 44.2701 123.719 41.001 124.704 43.2238C124.802 43.4382 125.261 45.4442 125.2 45.3951ZM60.8279 1.00996C61.0387 1.22448 62.7244 0.929102 63.4434 0.800346C63.3994 0.586176 61.544 0.956581 60.8279 1.00996ZM109.752 19.3109C109.724 19.3752 109.165 18.7885 108.383 17.9783C107.62 17.2072 105.534 14.786 105.396 14.4288C105.891 15.0303 107.826 17.1133 108.521 17.8493C109.268 18.644 109.775 19.2518 109.752 19.3109ZM119.389 34.0955C119.38 34.0868 119.366 34.0657 119.348 34.0351C119.125 33.645 118.287 32.0218 118.442 31.9981C118.907 32.5413 119.366 33.4889 119.506 33.95C119.557 34.1571 119.533 34.2516 119.389 34.0955ZM132.174 63.0677C132.169 63.1752 131.097 62.2606 131.884 64.1931C132.018 64.5258 132.202 64.9271 132.455 65.45C132.708 65.9665 132.415 63.9499 132.504 64.1305C132.693 64.5178 132.817 64.8234 132.896 65.0806C132.81 64.709 132.72 64.3388 132.627 63.9752C132.28 62.6094 131.927 61.4552 131.836 61.3326C131.291 60.6029 132.181 63.0078 132.174 63.0677ZM135.205 80.1883C135.098 80.601 135.469 83.1571 135.575 83.7539C135.595 83.8553 136.012 83.3709 136.066 84.5627C136.098 85.5216 135.558 84.119 135.734 85.981C135.888 87.8712 136.109 85.3249 136.134 85.4879C136.182 85.6814 136.108 87.9996 136.246 88.4827C136.266 88.5398 136.291 88.5677 136.323 88.5578C136.34 88.5524 136.355 88.5259 136.367 88.4815C136.508 87.9579 136.3 85.2554 136.274 84.554C136.255 83.5606 136.681 84.7342 136.472 83.086C136.332 82.0605 135.807 82.6872 135.757 82.473C135.735 82.2843 135.622 78.7407 135.208 80.1934C135.207 80.1917 135.206 80.19 135.205 80.1883ZM133.005 65.5585C132.987 65.4228 132.954 65.2663 132.896 65.0806C132.934 65.2414 132.97 65.4012 133.005 65.5585ZM34.8928 5.93072C35.85 5.48962 32.8236 6.05184 31.6397 6.71375C31.7105 6.86582 34.7718 5.9707 34.8928 5.93072ZM132.992 67.2982C133.813 69.8756 133.524 67.8855 133.005 65.5585C133.101 66.3099 132.712 66.4433 132.992 67.2982ZM86.0474 3.33701C86.1641 3.3235 86.2486 3.27638 86.2859 3.17163C85.9774 3.21425 85.933 3.26996 86.0474 3.33701ZM93.9824 6.0213C96.6177 7.72754 90.9527 4.89567 91.0358 4.79802C91.0901 4.68878 93.8863 5.92193 93.9824 6.0213ZM126.891 48.976C126.778 48.809 127.088 52.0384 125.98 47.6314C127.068 49.7737 126.14 47.417 126.233 47.4128C126.524 47.397 127.9 51.1893 128.314 51.9677C128.154 52.7804 127.268 49.536 126.893 48.9806C126.892 48.9791 126.892 48.9775 126.891 48.976ZM133.752 112.042C134.077 111.812 134.403 110.117 134.652 108.807C134.278 109.331 133.915 111.281 133.752 112.042ZM101.432 119.934C103.467 116.183 104.193 113.357 104.143 112.954C104.086 112.478 103.393 114.319 101.868 118.094C101.807 118.265 101.105 120.346 101.432 119.934ZM81.6866 49.9239C80.6999 49.859 83.088 51.4644 84.6228 52.3698C84.9766 52.5714 86.47 53.0874 85.1474 51.9826C84.8496 52.4727 82.5851 51.1107 81.6866 49.9239ZM133.081 68.848C132.971 69.6837 133.758 71.9968 134.069 73.2681C134.167 72.43 133.461 69.9049 133.081 68.848ZM106.275 90.5022C106.176 89.6562 106.535 89.0299 106.584 89.1772C106.804 89.8411 106.581 91.4537 106.275 90.5022ZM130.895 61.4013C130.721 61.3623 131.221 63.4606 131.672 64.2553C131.769 64.4216 131.864 64.5277 131.954 64.5418C131.925 64.4576 131.888 64.342 131.846 64.2043C131.567 63.2836 131.017 61.4337 130.895 61.4013ZM134.065 110.059C134.09 109.541 133.293 112.168 133.358 112.355C133.459 112.367 133.581 112.079 133.741 111.515C133.897 110.968 134.059 110.233 134.065 110.059ZM103.061 75.2654C102.768 74.5533 101.909 72.5055 101.944 72.1977C102.039 71.8438 103.219 74.8828 103.061 75.2654ZM68.7006 76.9817C69.0261 76.8574 63.2053 75.1046 60.5958 75.692C58.2264 76.1107 60.1498 75.8678 62.7896 75.9771C65.4638 76.0474 68.6281 76.9666 68.7006 76.9817ZM106.325 98.9634C106.573 101.875 106.361 98.6485 106.76 98.7843C106.775 100.759 106.13 105.608 106.143 102.229C106.141 101.581 106.327 99.8648 106.325 98.9634ZM106.207 96.3074C106.238 96.231 106.285 96.0474 106.335 95.8386C106.495 95.3233 106.707 94.6361 106.721 95.7244C106.721 95.7576 106.72 95.7918 106.718 95.8268C106.689 96.674 106.264 97.7951 106.207 96.3074ZM40.4715 90.4072C40.44 90.6519 40.4779 90.6832 40.5747 90.5398C40.6686 90.4034 40.8005 90.1324 40.8576 90.0002C41.9302 86.7671 44.7876 83.245 46.9624 81.5989C49.1564 79.8504 50.6814 79.1421 50.8042 79.0314C51.0022 78.8901 51.1261 78.7926 51.1933 78.7286C51.5217 78.6364 52.515 78.2061 53.2828 77.8552C53.9497 77.5508 54.5133 77.2833 54.6326 77.1105C54.2887 77.2382 53.7618 77.4316 53.2035 77.6613C52.4232 77.9776 51.5392 78.3936 51.3907 78.4907C51.2896 78.5553 51.2155 78.6066 51.1659 78.6461C50.7698 78.7566 49.0419 79.4813 46.704 81.3351C44.3767 83.076 41.5356 86.8086 40.5923 89.9047C40.5709 90.0515 40.4773 90.3505 40.4715 90.4072ZM37.2177 109.639C37.6849 106.702 36.8537 106.227 36.8001 106.46C36.3746 109.618 37.0874 107.556 37.1136 107.655C37.151 107.864 36.89 110.15 37.2174 109.63C37.2175 109.633 37.2176 109.636 37.2177 109.639ZM39.3212 93.6143C39.3494 93.5539 39.5967 92.8864 39.8275 92.3087C40.0603 91.7226 40.2493 91.2597 40.2565 91.223C40.3944 90.5113 40.0335 91.1837 39.5825 92.3141C39.1369 93.4313 38.7671 94.7654 39.3212 93.6143ZM135.123 93.5915C135.177 95.0308 135.558 93.6313 135.451 92.6753C135.439 92.5919 135.068 92.3391 135.123 93.5915ZM106.261 95.0742C106.267 94.8104 105.365 86.0893 105.825 86.4401C106.018 87.4196 106.795 97.1482 106.261 95.0742ZM59.2779 45.3325C60.8104 45.3173 59.1407 44.8402 58.3073 45.0402C58.001 45.1135 58.892 45.3363 59.2779 45.3325ZM129.106 57.4854C128.826 55.9246 128.099 56.5349 128.843 57.7013C128.872 57.7473 129.117 57.5467 129.106 57.4854ZM74.6904 46.7322C72.3713 45.7112 69.7343 45.3187 68.3278 45.4013C67.9907 45.4886 67.9874 45.6319 68.3057 45.7802C70.5836 46.0952 74.4889 47.3801 78.0235 49.0687C77.8119 48.8783 77.6058 48.6938 77.3781 48.5019C85.7769 53.128 78.4853 48.7014 75.7007 47.4972C74.687 47.0337 75.6684 47.1601 74.6989 46.7335C74.696 46.7331 74.6932 46.7326 74.6904 46.7322ZM50.5234 45.9492C47.2297 47.0736 48.9575 46.8008 51.521 46.4371C54.0628 46.0885 57.2376 45.8415 58.638 45.8929C55.9276 45.4853 52.116 45.8008 57.1551 45.0874C53.5276 45.1734 52.2255 45.4675 52.0487 45.577C51.8502 45.7007 52.6238 45.7363 52.4637 45.7716C52.1023 45.8444 50.795 45.8573 50.5234 45.9492ZM64.5562 45.4263C64.8422 45.4632 66.9971 45.3248 67.7831 45.4081C66.7042 44.9619 62.6598 45.1535 64.5562 45.4263ZM45.829 130.444C45.9331 130.252 45.9387 129.993 45.6972 129.638C45.4408 129.307 45.0952 128.898 44.6459 128.378C44.8187 128.732 45.1477 129.262 45.5109 129.797C45.6114 130.004 45.7315 130.236 45.829 130.444ZM27.3323 9.99985C26.9123 10.2089 26.3699 10.498 25.8242 10.8094C24.931 11.3265 23.9612 11.8733 24.3142 11.4188C24.3448 11.3845 25.0942 10.9661 25.737 10.6514C26.5654 10.225 27.2989 9.93128 27.3323 9.99985ZM98.8374 67.8424C98.7782 67.4364 93.7971 60.9483 95.7691 62.9848C96.4991 63.4549 100.534 69.9626 98.8374 67.8424ZM105.299 105.825C105.445 105.173 105.881 102.478 105.939 102.419C106.223 102.268 105.608 105.595 105.299 105.825ZM21.6588 13.5353C21.544 13.593 17.9761 15.9645 18.2818 15.6105C18.8726 14.7988 22.1339 13.0986 21.6588 13.5353ZM134.205 98.8365C134.174 99.1399 134.458 99.578 134.453 99.6882C134.492 99.9068 133.678 105.783 134.352 103.581C134.578 103.119 134.997 94.913 134.902 93.9438C134.485 93.537 134.786 96.9347 134.677 97.7911C134.659 97.9426 134.294 97.999 134.207 98.8341C134.207 98.8349 134.206 98.8357 134.205 98.8365ZM40.222 121.654C40.2517 121.568 40.084 121.125 39.8471 120.56C38.3456 117.329 38.2087 115.321 37.922 113.642C37.6931 112.012 37.5927 110.895 37.4634 110.933C37.5263 112.117 37.632 113.343 37.8647 114.76C38.1654 116.249 38.2493 117.587 39.7071 120.633C39.8694 120.96 40.0413 121.302 40.222 121.654ZM42.1936 124.966C43.2687 126.305 41.1861 122.881 40.6677 122.016C40.4639 122.07 41.9972 124.757 42.1936 124.966ZM104.862 91.7263C104.889 91.0646 105.414 93.0606 105.465 92.6037C105.5 92.311 105.255 90.852 105.341 90.3628C105.373 90.2263 105.86 91.7165 105.866 92.1502C105.88 92.7683 105.548 92.192 105.583 92.8574C105.636 93.9099 105.722 94.894 105.8 95.855C105.895 97.174 105.937 98.475 105.86 99.8107C105.847 100.04 105.731 98.2551 105.627 100.208C105.606 100.504 105.814 102.366 105.381 104.684C103.545 109.542 103.231 113.561 100.336 118.724C100.363 118.55 101.99 114.325 102.047 114.023C103.73 109.769 105.432 101.593 105.076 95.8772C105.056 95.2628 105.035 94.6911 105.011 94.1498C104.956 92.956 105.188 93.5297 105.169 93.01C105.152 92.5983 104.803 93.1124 104.862 91.7263ZM28.2226 9.8163C27.9283 10.1726 27.0476 10.6051 26.0154 11.1558C25.4417 11.4552 24.781 11.7696 24.2652 12.0738C24.3983 11.7648 25.1462 11.3548 25.9091 10.9633C26.745 10.521 27.5988 10.1351 28.2226 9.8163ZM76.3066 139.684C77.0068 139.558 79.2678 138.831 79.5056 138.864C79.78 138.967 76.4858 139.938 76.3066 139.684ZM121.925 130.632C121.879 130.685 120.875 132.028 120.841 132.083C120.165 133.466 123.184 129.41 121.925 130.632ZM90.5073 152.855C89.3035 153.33 88.0469 153.688 87.7485 154.129C88.5089 153.806 90.7353 152.999 90.5073 152.855ZM36.5516 141.075C36.9858 140.923 34.3116 138.922 33.8364 138.535C33.8752 138.819 36.2287 141.189 36.5516 141.075ZM46.9283 129.785C46.6224 129.418 46.4983 129.191 46.4326 129.01C45.9933 128.248 46.1208 128.039 45.2447 127.218C45.0588 127.025 43.4179 127.077 45.71 129.154C46.0294 129.432 45.436 128.427 46.2542 129.163C46.3915 129.252 46.5911 129.421 46.9283 129.785ZM79.2382 49.729C79.6953 50.2912 81.4244 51.2659 82.487 51.9791C82.3798 51.6488 80.1279 50.2404 79.2382 49.729ZM15.5945 18.3518C14.8507 19.3966 11.0386 22.8923 11.7605 21.8072C11.8163 21.6511 14.9668 18.8488 15.5945 18.3518ZM133.122 74.4942C133.212 76.4665 132.337 72.5296 132.314 71.2595C132.432 71.8037 133.123 74.3613 133.122 74.4942ZM47.103 148.724C46.9713 148.653 44.8889 147.365 44.8242 147.321C43.9542 146.914 44.8571 147.618 45.8863 148.251C46.9148 148.887 48.095 149.444 47.103 148.724ZM100.53 147.579C99.7606 147.692 95.835 149.744 95.1556 150.337C96.0225 150.328 101.415 147.508 100.53 147.579ZM54.4893 137.927C51.8779 136.065 50.5024 134.509 49.3104 133.3C49.349 133.498 50.1492 134.476 51.3559 135.599C52.513 136.711 54.2879 137.902 54.4893 137.927ZM40.3195 143.914C40.2315 143.846 40.1303 143.794 40.0466 143.73C40.1378 143.792 40.2311 143.854 40.3195 143.914ZM97.4579 123.455C97.839 122.6 98.0443 122.338 98.1676 122.297C98.212 122.308 98.2531 122.33 98.281 122.349C98.295 122.38 98.2975 122.417 98.2905 122.438C97.8581 123.692 96.6042 125.263 97.4579 123.455ZM26.6207 11.2242C26.5542 11.3225 26.4225 11.4376 26.2428 11.5681C25.6751 12.0407 24.1543 12.6901 23.2356 13.3162C23.4167 12.9207 25.2432 11.919 26.1779 11.4504C26.3414 11.3649 26.4907 11.289 26.6207 11.2242ZM44.3344 48.0644C43.117 48.6549 46.0668 48.0464 47.6529 47.7986C49.6633 47.3765 51.1778 47.2233 51.8073 47.0489C51.835 46.9412 50.0512 46.9157 47.5534 47.3976C46.3989 47.5555 44.4598 47.9901 44.3344 48.0644ZM131.285 68.8114C131.001 68.7504 130.603 66.0624 130.874 66.5811C131.054 66.9141 131.466 68.8351 131.285 68.8114ZM55.4308 46.5868C56.0899 46.628 57.5547 46.3149 57.0291 46.1726C56.3528 45.9878 55.2603 46.572 55.4308 46.5868ZM103.181 81.2852C103.12 81.1359 102.999 80.4722 102.571 79.2102C102.416 78.56 102.209 77.4402 102.663 78.1658C103.028 78.7289 102.886 78.9442 102.846 79.104C102.87 79.236 102.895 79.3503 102.937 79.465C103.594 80.8544 105.33 87.7927 103.181 81.2852ZM18.1681 80.8053C18.7404 79.5758 19.2218 78.0406 19.7568 76.7669C19.3835 77.2143 18.1594 80.1772 18.1681 80.8053ZM133.374 79.3449C133.31 78.9434 131.435 69.9868 132.795 75.0183C132.904 75.286 133.87 80.3228 133.374 79.3449ZM46.9283 129.785C47.0558 129.938 47.2153 130.117 47.4213 130.335C47.2291 130.109 47.0649 129.932 46.9283 129.785ZM77.1186 138.813C76.5142 138.772 79.2972 138.006 80.218 137.784C80.5403 137.961 77.1745 138.86 77.1186 138.813ZM20.0473 76.7736C20.4531 76.0806 20.9039 74.714 21.3132 73.8151C21.0754 73.8936 20.0035 76.3836 20.0473 76.7736ZM32.6218 136.315C31.4462 135.392 30.1552 134.147 30.282 133.964C30.2365 133.97 30.16 133.95 30.048 133.897C30.007 133.878 29.8482 133.727 29.629 133.517C28.6981 132.671 27.6132 131.372 27.082 130.732C25.613 128.787 26.3599 130.705 29.4591 133.704C32.2165 136.268 37.2231 140.497 31.6818 134.91C31.9928 135.376 32.3057 135.844 32.6218 136.315ZM106.155 144.049C106.867 143.363 109.66 141.933 109.046 142.459C108.566 142.917 105.397 144.813 106.155 144.049ZM69.5093 155.65C69.8701 155.712 73.4793 156.122 73.5946 156.208C71.4197 156.433 67.7275 155.605 69.5093 155.65ZM112.954 138.716C113.409 138.25 114.302 137.995 114.259 138.062C113.905 138.632 112.295 139.635 112.954 138.716ZM50.4684 132.329C51.0609 132.936 53.6697 136.059 54.7379 137.043C54.9572 137.125 55.4558 137.421 56.5608 137.946C56.5575 137.944 56.5543 137.942 56.551 137.94C56.8065 137.992 60.0816 140.163 65.1363 139.892C68.3479 139.808 73.2914 138.616 74.0337 138.528C75.5343 138.264 75.965 138.24 74.0721 138.728C73.5731 138.864 72.7805 139.136 70.615 139.632C70.0599 139.742 70.806 139.391 68.4926 139.778C68.3402 139.801 68.29 140.021 67.8153 140.087C67.4083 140.144 66.3341 140.279 65.1606 140.356C60.4208 140.83 55.511 137.968 54.8645 137.267C54.8295 137.29 54.7018 137.247 54.4728 137.123C53.4028 136.56 51.9612 135.049 51.2439 133.957C50.4912 132.849 50.1939 132.07 50.4684 132.329ZM63.0946 154.021C63.6927 154.168 65.6538 154.832 65.838 155.056C64.7352 154.904 61.6604 153.705 63.0946 154.021ZM132.58 79.1672C132.284 78.1245 132.081 75.4399 132.374 76.2086C132.575 76.6679 132.94 80.3639 132.58 79.1672ZM83.9759 154.104C77.8285 156.086 82.4927 154.52 81.4721 154.529C82.3053 154.405 83.1403 154.264 83.9759 154.104ZM38.9769 102.519C38.9369 103.329 39.285 102.873 39.4191 102.092C39.4702 101.791 39.496 101.453 39.4713 101.101C39.4485 100.778 39.1781 101.43 39.048 102.046C39.011 102.215 38.9848 102.38 38.9769 102.519ZM84.773 92.5571C84.2783 92.2097 84.8818 93.4179 85.2333 93.9039L85.4542 94.3713C85.9662 95.4802 86.0858 95.8528 86.1986 96.0014C86.2469 96.0648 86.2721 96.0412 86.262 95.8974C86.2481 95.7483 86.2173 95.5092 86.0404 94.9365C86.0235 94.8888 85.9427 94.6671 85.7491 94.2408L85.5213 93.7588C85.3563 93.4847 84.8192 92.6101 84.773 92.5571ZM44.8274 86.7415C43.9744 87.5634 43.3195 88.2751 42.4541 90.5748C42.4241 90.6672 42.3854 90.8062 42.3013 91.0615C42.446 90.758 42.5054 90.669 42.5585 90.6124C42.9721 89.6763 42.9702 89.9195 43.091 89.7423C43.2395 89.5987 43.4011 88.8825 44.8274 86.7415ZM30.317 133.949C30.3013 133.953 30.289 133.954 30.282 133.964C30.2976 133.963 30.3086 133.957 30.317 133.949ZM117.307 134.437C117.646 133.666 119.092 131.966 118.877 132.652C118.86 132.723 117.686 134.33 117.307 134.437ZM54.7379 137.043C54.5523 136.97 54.6087 137.053 54.8645 137.267C54.8982 137.246 54.8466 137.168 54.7379 137.043ZM107.363 142.798C107.524 142.969 104.555 144.776 104.447 144.782C102.615 145.361 106.05 143.634 107.363 142.798ZM127.163 59.0713C127.13 58.9119 127.97 59.7165 127.976 60.3865C127.98 60.9027 127.286 59.6621 127.163 59.0713ZM53.6295 80.1801C53.7964 80.1082 53.968 80.0361 54.145 79.963C55.455 79.4031 57.2021 78.8968 57.5226 78.608C56.7345 78.8048 54.9423 79.3997 54.0982 79.8486C53.7934 80.007 53.601 80.1349 53.6295 80.1801ZM83.5531 91.0453C83.1585 89.6208 80.2665 85.5481 77.1827 83.7343C77.0391 83.8711 78.9326 85.1369 80.5015 86.861C82.1102 88.5773 83.2253 90.3953 83.5531 91.0453ZM48.5976 130.241C48.607 130.237 50.3164 132.186 49.9165 132.094C49.2034 131.84 48.0754 129.805 48.5976 130.241ZM128.927 63.5468C129.079 64.6583 127.813 62.3841 127.845 61.1526C127.868 60.5118 128.909 63.3534 128.927 63.5468ZM121.333 128.857C121.702 128.471 121.589 128.775 121.338 129.215C120.88 129.967 120.076 131.032 119.768 131.178C120.128 130.696 120.747 129.68 121.157 129.084C121.221 128.991 121.281 128.911 121.333 128.857ZM75.4492 155.148C81.9013 153.486 78.602 155.355 77.368 155.461C77.1902 155.486 75.2788 155.191 75.4492 155.148ZM8.47056 28.0008C7.98694 28.3777 9.19411 26.4386 9.57896 26.3991C9.81904 26.3745 8.77804 27.7607 8.47056 28.0008ZM18.0144 111.54C18.0855 111.753 18.158 111.965 18.2318 112.175C18.1869 112.014 18.1168 111.806 18.0144 111.54ZM128.233 116.415C127.288 120.948 126.681 119.852 126.53 120.21C126.164 120.849 125.525 122.375 124.78 123.333C125.688 122.263 126.623 121.097 127.56 119.716C127.276 120.34 125.754 122.98 124.374 124.96C122.975 126.995 121.855 128.545 121.748 128.551C121.383 128.607 122.947 126.667 123 126.561C123.041 126.453 122.728 125.69 122.859 125.471C123 125.327 127.731 118.628 128.233 116.415ZM86.7098 152.494C85.9748 152.854 85.8446 153.194 85.4644 153.254C85.3336 153.274 85.2289 153.028 84.7891 153.101C85.4317 152.91 86.0723 152.707 86.7098 152.494ZM131.113 109.926C131.034 109.113 130.421 111.806 130.439 112.027C130.361 112.503 130.297 112.81 130.294 112.858C130.262 113.312 130.453 112.924 130.67 112.07C130.799 111.883 131.167 110.473 131.113 109.926ZM108.813 141.57C109.233 141.335 112.13 138.833 112.169 138.994C111.765 139.479 110.084 140.963 108.861 141.729C108.374 142.032 108.209 142.083 108.775 141.602C108.787 141.592 108.8 141.581 108.813 141.57ZM84.2686 153.252C83.1254 153.667 80.9806 154.527 81.1301 154.064C81.1318 154.064 81.1335 154.064 81.1353 154.063C82.1835 153.821 83.2267 153.552 84.2686 153.252ZM129.158 67.4047C127.991 65.6265 129.039 66.3185 129.714 68.011C129.577 68.6178 129.348 67.6976 129.158 67.4047ZM126.811 61.3037C126.556 60.7905 124.684 55.2866 125.296 56.0003C125.533 56.2508 126.388 59.5085 126.451 59.6489C126.559 59.8597 126.569 58.7212 127.078 60.4424C126.925 60.3845 126.909 61.4757 126.811 61.3037ZM128.307 65.9025C128.189 65.6966 128.093 65.5042 128.017 65.3273C127.431 63.9687 128.044 63.567 128.438 64.8679C128.468 64.9711 128.489 65.0792 128.501 65.1855C128.555 65.6703 128.427 66.1108 128.307 65.9025ZM130.414 73.9332C130.178 73.2186 129.622 71.3381 129.579 69.9615C130.046 71.7043 130.475 73.4651 130.858 75.2677C130.732 75.5085 130.624 74.553 130.413 73.9284C130.413 73.93 130.413 73.9316 130.414 73.9332ZM84.9077 107.147C84.778 106.092 84.7117 106.725 84.6241 107.8C84.5786 108.342 84.5025 108.985 84.4657 109.293C84.4285 109.611 84.4238 109.736 84.4369 109.767C84.5319 109.891 84.6401 109.769 84.7518 109.285C84.8737 108.782 84.968 107.605 84.9077 107.147ZM6.88907 42.2583C6.69647 42.6455 6.77848 43.0672 6.05621 43.6623C6.45586 42.7913 6.86279 41.9244 7.27419 41.06C8.17369 40.8808 7.09505 41.8378 6.88907 42.2583ZM6.25135 46.2901C6.34314 46.2002 6.58127 47.2874 7.17418 45.6346C7.39858 45.0288 6.25769 46.0624 5.14912 47.3551C4.2085 48.4508 3.29643 49.7125 3.14439 50.2281C3.71739 49.6381 4.54973 48.4376 5.28699 47.4616C5.64855 46.9813 5.99276 46.5527 6.25135 46.2901ZM3.5346 56.7642C3.53239 56.8671 4.5704 55.2572 4.69687 55.0074C5.16023 53.7939 3.23877 56.3873 3.5346 56.7642ZM7.11739 51.0736C6.67066 51.9252 7.8273 50.5493 8.33424 49.8137C8.38616 49.737 8.43103 49.6667 8.46503 49.6071C8.44346 49.5694 8.35507 49.6291 8.23711 49.7387C7.85576 50.0991 7.17451 50.9647 7.11739 51.0736ZM69.2322 96.7558C68.8281 96.7923 68.7484 96.5344 68.7848 96.3037C68.8214 96.0793 69.0529 95.8996 69.3482 96.2947C69.3796 96.3342 69.2725 96.7518 69.2322 96.7558ZM5.21771 55.6011C5.58786 54.701 4.34274 56.4495 4.23395 56.9324C4.32604 57.0717 5.13506 55.7524 5.21771 55.6011ZM68.0903 97.6478C67.9758 97.6593 67.917 97.641 67.8898 97.5942C67.2805 97.1339 67.439 96.893 67.6047 96.6927C67.7949 96.5052 68.1009 96.4086 68.2384 96.4713C68.3161 96.5067 68.405 96.552 68.5085 96.6072C68.9595 96.6857 69.3934 97.8891 69.4597 98.2706C68.8597 97.2688 68.6254 97.3322 68.4662 97.3682C68.3131 97.4374 68.2415 97.6356 68.0903 97.6478ZM63.9301 94.0294C63.6076 93.8559 63.8952 93.8063 64.3414 93.9321C64.7813 94.0499 65.3954 94.4224 65.4967 94.7244C65.0715 94.4182 64.0998 94.1089 63.9301 94.0294ZM59.4872 95.078C59.2655 95.2113 58.8601 95.475 58.5863 95.6729C58.3023 95.8742 58.1514 95.9866 58.0366 95.9397C58.1265 95.8797 58.3147 95.6568 58.6339 95.4329C58.9427 95.2118 59.3409 95.019 59.4872 95.078ZM58.9633 96.1399C58.8319 96.4102 58.6806 96.3524 58.5679 96.2469C58.463 96.1393 58.4134 95.9648 58.7478 95.8982C58.7743 95.8928 58.9706 96.1148 58.9633 96.1399ZM57.8578 98.9489C57.8922 99.7719 56.8236 100.116 57.2175 99.0945C57.3472 98.7727 57.853 98.8569 57.8578 98.9489ZM65.5255 97.7274C65.0346 97.454 64.7627 97.1198 64.7321 96.9257C64.7261 96.7527 64.8522 96.6055 65.7137 97.2007C65.1518 96.6631 64.7778 96.2942 64.4271 95.9847C65.2619 96.2701 65.7251 96.8037 65.9808 97.1971C66.2722 97.6189 66.2448 97.8732 66.9767 98.3502C67.0798 98.4161 67.1858 98.4805 67.2949 98.5431C67.4979 98.5527 67.9168 98.0586 67.9844 97.8406C67.9799 98.0849 68.1065 98.2984 68.4262 98.8488C68.7458 99.3857 69.2594 100.411 69.8413 101.655L69.6941 101.343C69.5595 101.041 69.5481 100.983 69.533 100.954C69.5222 100.932 69.5271 100.964 69.5332 101.012C69.5113 100.968 69.4905 100.94 69.4855 100.968C69.485 101.003 69.4803 101.068 69.6019 101.384L69.7513 101.7C69.1423 100.686 68.5617 99.8006 68.1225 99.3383C67.6768 98.8602 67.432 98.7886 67.2888 98.7404C67.2545 98.7297 67.2379 98.6984 67.2224 98.6587C66.4375 98.1005 66.1724 97.7799 65.8522 97.5645C65.1578 97.0915 65.5791 97.7544 65.5291 97.73C65.5279 97.7291 65.5267 97.7282 65.5255 97.7274ZM56.2566 105.567C56.5424 107.528 55.7286 106.259 55.9783 105.156C55.994 105.111 56.2498 105.518 56.2566 105.567ZM6.52506 58.6762C6.55267 58.3787 6.61024 58.0626 6.6356 57.841C6.66629 57.6108 6.68176 57.4416 6.77319 57.2165C6.97248 56.7594 7.41082 56.0817 9.51466 53.8356C7.5966 55.5908 9.12624 53.7325 8.66614 54.0111C8.28944 54.2414 7.5614 55.5175 7.7785 54.6302C7.60719 55.1848 6.79005 56.4757 6.28101 57.436C5.74529 58.4408 5.7082 58.7063 5.70254 58.7993C5.70278 58.7984 5.70302 58.7976 5.70326 58.7968C5.7119 58.8299 5.92346 58.8612 6.1265 58.8596C6.33188 58.8535 6.51233 58.8562 6.52506 58.6762ZM60.4677 97.126C60.5189 97.6868 60.3587 97.5972 60.1455 97.5144C59.9475 97.422 59.653 97.3739 59.8383 97.7847C59.5462 97.4984 59.4178 97.4062 59.5573 97.248C59.6908 97.0928 60.2258 96.8388 60.9284 96.548C61.5229 96.2959 61.8741 96.1552 61.9317 95.7573C61.1812 95.9262 60.7459 96.0984 60.7513 96.0124C60.7429 95.9417 61.0912 95.7063 61.4427 95.5736C62.1817 95.309 62.6896 95.4162 61.9229 96.3096C62.6059 95.9066 62.6541 96.033 62.626 96.1637C62.5856 96.3084 62.458 96.552 62.5272 96.6557C62.5998 96.7662 62.7293 96.7721 62.8635 96.8225C62.9951 96.8703 63.14 96.9689 63.0523 97.1454C63.052 97.1453 63.0517 97.1452 63.0514 97.1451C62.6927 96.9927 62.5983 96.9549 62.2226 96.9635C62.3511 96.5251 62.2645 96.378 62.0381 96.4578C61.8208 96.5336 61.4643 96.8857 61.3679 97.297C61.3181 97.2785 61.2667 97.2611 61.2134 97.2449C60.9524 97.2036 60.7029 97.1645 60.4677 97.126ZM63.5364 95.9426C63.5022 95.9385 63.2118 95.8036 62.9769 95.7145C62.743 95.6194 62.4968 95.5483 62.5314 95.4635C62.6116 95.4074 63.0209 95.4365 63.3564 95.5971C63.698 95.7552 63.9481 95.9831 63.5364 95.9426ZM69.1433 101.751C69.11 101.541 69.0604 101.32 69.0204 101.184C69.0014 101.12 68.9837 101.075 68.9865 101.101C68.9947 101.135 68.9985 101.209 69.1568 101.581L69.3166 101.919C68.9301 101.162 68.6898 100.624 68.7042 100.298C68.9061 100.666 69.2068 101.192 69.529 101.812L69.3742 101.485C69.1976 101.061 69.2153 101.04 69.2055 101.035C69.204 101.042 69.2143 101.117 69.2178 101.202C69.2263 101.379 69.2112 101.601 69.1433 101.751ZM64.2024 121.456C64.4759 121.949 64.0499 121.626 63.5767 121.08C63.1084 120.541 62.6117 119.812 63.1603 120.254C63.2324 120.331 64.1959 121.447 64.2024 121.456ZM59.5427 97.4912C59.7224 97.5367 59.6565 97.3235 59.4782 97.2592C59.3093 97.1833 59.1116 97.119 59.2348 97.183C59.2448 97.1952 59.522 97.4913 59.5427 97.4912ZM7.32478 57.4469C7.47303 57.5873 9.57606 54.2184 10.0986 53.5779C9.58455 53.8099 6.89557 57.4788 7.32478 57.4469ZM68.4335 103.691C68.1321 103.115 67.9568 102.489 67.8609 101.994C67.8137 101.749 67.7848 101.535 67.7883 101.439C67.7911 101.394 67.8013 101.378 67.8377 101.441C67.8792 101.509 67.9253 101.631 68.1249 102.038L68.3088 102.427C67.9275 101.333 67.8611 100.762 67.789 100.655C67.6441 100.441 67.494 100.985 67.4563 100.939C67.4131 100.879 67.0605 100.241 66.8718 99.9796C66.6701 99.6932 66.6457 99.6794 66.6493 99.6587C66.6476 99.6285 67.0906 99.28 67.1235 99.0762C67.1119 99.2015 67.1699 99.285 67.4512 99.725C67.7281 100.151 68.2077 101.046 68.7836 102.188L68.6111 101.822C68.4296 101.397 68.4238 101.317 68.407 101.266C68.3969 101.225 68.4067 101.254 68.4178 101.301C68.4419 101.398 68.4758 101.569 68.5019 101.722C68.5556 102.036 68.5872 102.3 68.5829 102.355C68.574 102.472 68.3673 102.121 68.2498 102.084C68.1292 102.06 68.1142 102.194 68.4331 103.687C68.4333 103.688 68.4334 103.689 68.4335 103.691ZM67.3936 100.212C67.6392 100.397 67.5523 100.113 67.4068 99.8483C67.2576 99.577 67.1002 99.4202 67.031 99.4107C66.8812 99.3968 66.8908 99.468 66.9917 99.6238C67.089 99.7665 67.3609 100.18 67.3936 100.212ZM64.5237 98.0756C64.4042 98.0201 63.9464 97.7236 63.6594 97.5405C63.3603 97.3461 63.1892 97.2191 63.2058 97.085C63.4471 97.0021 63.8191 97.206 64.1628 97.5175C64.4994 97.8214 64.794 98.1993 64.5237 98.0756ZM57.9479 107.139C57.8834 107.749 58.1269 109.323 57.9165 109.408C57.9026 108.868 57.7092 107.23 57.9479 107.139ZM17.5857 47.4011C16.9186 48.4615 18.8546 46.3414 19.3494 45.6449C19.2636 45.5114 17.6398 47.3103 17.5857 47.4011ZM61.1793 98.9059C61.2088 98.88 61.5862 98.5763 61.9476 97.591C61.0458 99.9533 60.3686 101.183 60.086 102.023C59.7657 102.878 59.5849 103.711 59.5023 104.001C59.4874 103.699 59.5845 102.836 59.8523 101.939C60.0811 101.06 60.7422 99.762 61.6071 97.4685C61.2925 98.3161 60.9842 98.6025 60.9881 98.6541C60.9743 98.7089 61.1547 98.917 61.1793 98.9059ZM65.7424 100.858C65.4252 101.037 65.656 100.698 65.6654 100.701C65.6639 100.663 65.701 100.704 65.8236 100.833C65.9413 100.954 66.1069 101.112 66.186 100.933C66.0523 100.777 65.9463 100.623 65.9033 100.553C65.8579 100.48 65.8777 100.479 65.9091 100.501C65.9737 100.549 66.0308 100.654 65.7424 100.858ZM59.4448 107.665C59.3071 109.966 59.0119 105.511 59.3792 106.105C59.3909 106.146 59.452 107.432 59.4448 107.665ZM61.0193 99.2025C61.0387 99.2625 60.9733 99.3507 61.0583 99.3163C61.1385 99.2871 61.4053 99.1346 61.9015 98.9273C62.3365 98.7432 62.5013 98.7259 62.4759 98.7049C62.4521 98.6848 62.4089 98.655 62.4273 98.659C62.481 98.4163 62.4763 98.3854 62.4777 98.4148C62.4736 98.4448 62.4868 98.5282 62.414 98.5249C62.3698 98.5241 62.3408 98.3202 62.3359 98.3206C62.2126 98.3356 62.356 98.5492 62.2776 98.5709C62.2605 98.5774 62.1216 98.5692 61.7962 98.6697C61.2816 98.845 60.8998 99.0379 60.8649 99.0831C60.8179 99.1362 60.9967 99.0565 61.0193 99.2025ZM65.5426 100.996C65.4532 101.071 65.1765 100.813 65.4304 101.235C65.643 101.603 66.2832 102.901 66.3622 103.002C66.948 103.761 66.1935 102.036 65.7936 101.334C65.5839 100.963 65.4705 100.849 65.4721 100.869C65.4697 100.886 65.5417 100.975 65.5426 100.996ZM61.5207 99.3304C61.547 99.5157 61.4575 99.7136 61.4163 99.7951C61.3701 99.8818 61.3857 99.8606 61.4379 99.7962C61.4873 99.7323 61.5535 99.6343 61.5225 99.5743C61.5007 99.5097 61.3441 99.5001 61.2035 99.5021C61.1789 99.5011 61.1669 99.5781 61.2268 99.5884C61.2812 99.6024 61.4242 99.5271 61.5207 99.3304ZM59.9978 107.43C59.9863 107.57 60.1716 109.812 60.0159 109.804C59.8626 109.617 59.8235 106.156 59.9978 107.43ZM60.6696 106.239C60.6637 106.297 60.3372 105.72 60.3244 106.828C60.331 106.915 60.6918 107.122 60.5615 108.444C60.5358 108.712 60.2916 109.121 60.2743 109.094C59.4968 107.757 61.1183 103.408 60.6696 106.239ZM65.3241 101.233C65.2782 101.413 64.7925 101.659 64.9085 101.412C64.9731 101.319 65.1994 101.135 65.3241 101.233ZM60.9789 111.848C60.7555 111.143 61.2182 111.81 61.7174 112.528C62.2166 113.257 62.7784 114.002 62.806 114.096C62.5839 114.191 61.0292 112.069 60.9789 111.848ZM21.2574 46.7413C21.2564 46.7424 21.2554 46.7435 21.2545 46.7446C22.2409 45.5208 21.4097 46.0844 21.4521 46.0241C23.3985 43.2655 23.2425 44.3069 23.6404 43.959C24.503 43.2101 23.8633 42.8857 25.3585 41.6469C22.9263 43.728 24.9824 41.6971 24.8621 41.4627C24.3459 40.5303 22.3967 44.9233 21.2159 45.9515C21.0491 46.0958 21.8747 44.6767 21.4364 45.035C19.9957 46.2087 17.5206 51.4228 21.2574 46.7413ZM64.8465 101.409C64.7854 101.452 64.7434 101.453 64.8007 101.554C64.8549 101.651 65.0163 101.879 65.2412 102.23C65.6836 102.919 66.3731 104.022 66.1175 103.237C66.0704 103.1 65.4827 101.814 65.2457 101.477C64.9746 101.082 65.0397 101.315 64.8465 101.409ZM44.879 117.189C44.7901 117.071 44.738 116.986 44.7179 116.931C44.7602 116.92 44.7834 116.893 44.7898 116.852C45.1607 116.94 46.6593 118.124 46.8813 118.529C47.0295 118.798 45.2506 117.678 44.879 117.189ZM59.9608 128.179C60.1176 128.278 60.0944 128.435 59.9572 128.582C60.0308 128.756 60.1129 128.945 60.0906 129.062C60.0748 129.18 59.9332 129.221 59.7544 129.152C59.7651 129.155 59.7735 129.152 59.7755 129.141C59.8185 129.143 59.8562 128.295 59.9608 128.179ZM55.6389 69.8567C54.4485 70.3455 54.4637 69.6397 55.3522 69.5629C55.6797 69.5382 55.678 69.8418 55.6389 69.8567ZM39.2946 104.438C39.3478 104.539 39.8019 105.818 39.6408 105.836C39.3364 105.398 38.8826 103.786 39.2946 104.438ZM56.0543 69.9266C55.2763 69.8573 56.5526 69.2397 57.6125 69.7043C57.0856 69.6807 56.1267 69.9325 56.0543 69.9266ZM63.3549 99.7586C63.0006 100.242 62.5912 101.047 62.3524 101.577C62.1046 102.126 61.9835 102.511 61.8699 102.805C62.0456 102.879 62.1807 102.556 62.3992 102.015C62.5984 101.51 63.0548 100.403 63.3549 99.7586ZM56.0585 126.073C56.8931 127.052 54.6193 125.567 55.0304 125.432C55.0715 125.444 56.0316 126.042 56.0585 126.073ZM81.144 89.2269C81.2619 88.3299 81.8907 91.0691 81.4081 90.3459C81.3897 90.2977 81.1397 89.2655 81.144 89.2269ZM81.4933 100.928C81.546 100.388 81.7623 98.1238 81.905 99.0241C81.9459 99.1696 81.72 100.926 81.4933 100.928ZM23.9048 44.0696C23.8931 44.663 25.5602 42.6576 25.7622 42.3324C25.8376 42.2056 23.9168 43.2988 23.9048 44.0696ZM50.3061 71.0298C50.3463 70.9831 50.4822 70.907 50.6896 70.7322C50.3629 70.9971 49.966 71.3539 49.7788 71.3671C49.9966 71.1802 50.3063 70.8289 50.5674 70.5855C50.2411 70.816 50.1763 70.8431 50.3061 71.0298ZM51.3177 122.105C51.9694 122.38 52.7246 122.913 53.1781 123.364C53.5476 123.735 53.6873 124.042 53.346 124.088C53.1547 123.92 53.0133 123.786 52.9085 123.678C52.0687 122.813 53.6065 123.725 51.3177 122.105ZM60.7933 70.2439C60.1765 70.2741 59.7057 69.7523 59.7736 69.7267C60.4364 69.4836 61.4138 70.0418 60.7933 70.2439ZM38.6547 93.6906C38.8556 93.7661 38.5148 94.9464 38.408 94.7652C38.3596 94.7027 38.474 93.6268 38.6547 93.6906ZM64.918 114.734C65.4069 115.169 65.0722 114.57 64.3764 113.686C64.1499 113.362 63.8266 112.962 63.5852 112.823C63.2907 112.819 63.7793 113.501 64.1496 113.879C64.5761 114.358 64.8787 114.698 64.918 114.734ZM70.9306 73.486C70.7884 73.7762 68.7461 72.0376 69.759 72.4361C70.013 72.528 70.9785 73.3763 70.9306 73.486ZM80.8258 93.1693C80.9886 91.882 81.3934 94.7154 81.4363 96.6027C81.4566 97.3941 81.3609 97.8828 81.1815 97.2693C81.171 97.2343 81.1496 96.977 81.1122 96.6127C81.0149 95.3332 80.8137 93.2908 80.8258 93.1693ZM80.0723 104.172C80.1102 103.909 79.0286 103.665 79.0488 104.838C79.0501 104.995 79.5684 104.462 79.5901 104.595C79.64 104.653 78.7909 107.072 78.6688 107.212C78.5822 107.325 78.327 107.023 78.2302 107.133C78.1338 107.248 77.6432 108.935 77.0249 110.122C76.6416 110.867 76.2646 111.545 75.9408 112.146C75.7394 112.374 75.5988 112.357 75.5779 112.398C75.487 112.572 75.5129 112.967 75.3259 113.241C75.018 113.696 74.695 113.958 74.5327 114.047C74.2183 114.335 71.8294 115.219 69.687 115.851C68.9942 116.033 68.4199 116.216 67.9748 116.38C68.4716 116.238 69.0615 116.086 69.7049 115.945C72.1717 115.373 74.0591 114.901 74.7123 114.552C74.5375 114.422 74.6252 114.346 74.7239 114.325C74.8935 114.315 75.4307 114.297 74.7832 114.212C74.8736 114.209 75.5152 113.922 76.3095 112.314C77.9368 109.003 78.6034 107.925 79.2005 106.536C79.7557 105.281 80.0269 104.415 80.0713 104.175C80.0716 104.174 80.072 104.173 80.0723 104.172ZM64.4241 129.251C63.6317 128.723 66.4484 129.54 68.629 130.696C69.2106 131.029 69.5461 131.284 69.5871 131.452C69.4266 131.406 69.0554 131.241 68.5038 130.976C66.6851 130.11 64.4978 129.304 64.4241 129.251ZM50.1084 118.776C49.8095 118.416 50.0083 117.587 47.9199 116.198C47.9183 116.197 47.9166 116.195 47.9149 116.194C47.302 115.786 47.7921 116.479 47.6498 116.438C47.5976 116.426 45.6634 115.169 47.0201 116.486C49.0755 118.482 47.5984 116.258 48.7271 117.275C48.8731 117.409 50.6805 119.594 50.4947 119.544C50.4763 119.541 49.9132 118.918 49.7843 118.851C49.3002 118.6 49.3333 118.946 49.2706 118.904C49.1166 118.798 47.0891 116.607 45.8978 115.634C46.0372 115.788 46.088 115.903 46.0727 115.985C46.064 116.014 45.9784 115.955 45.7532 115.793C47.1045 117.189 50.3964 120.384 50.5705 120.468C50.7258 120.557 51.1039 120.023 51.2811 120.096C51.373 120.142 53.3238 122.181 53.6467 122.373C53.7382 122.429 53.8124 122.469 53.8681 122.496C53.7809 122.472 53.7814 122.512 53.8407 122.593C54.0738 122.926 55.2747 123.871 55.3465 123.688C55.3716 123.599 54.1007 122.598 54.0428 122.564C54.0188 122.552 53.9956 122.544 53.9755 122.535C54.0178 122.539 54.0127 122.506 53.9701 122.443C53.5524 121.868 50.0538 118.721 51.1369 119.244C49.9604 117.916 50.9676 119.813 50.1084 118.776ZM47.0502 115.512C47.0192 115.594 46.982 115.665 46.9383 115.724C46.8688 115.506 46.4201 114.608 45.2445 112.469C44.4716 111.167 43.6423 109.666 42.8654 107.934C42.5108 107.142 43.3014 107.888 42.7307 106.886C42.2725 106.077 41.4962 105.26 41.6228 105.768C41.6544 105.898 42.6549 107.554 43.0067 108.384C44.0438 110.823 43.4355 110.325 43.4928 110.48C43.5564 110.644 44.4623 111.914 44.828 112.606C44.8399 112.629 44.8517 112.651 44.8634 112.674C45.7293 114.344 45.984 115.06 46.2526 115.592C46.3746 115.842 46.4768 116.011 46.52 116.04C46.5584 116.068 46.5445 115.939 46.28 115.567C46.7064 115.841 46.8144 115.714 46.9693 115.68C47.038 115.656 47.0981 115.642 47.1298 115.635C47.1591 115.623 47.1647 115.631 47.0502 115.512ZM76.9215 81.2496C76.7638 81.4106 77.4728 82.3064 77.6303 82.7609C77.8057 82.5802 77.1018 81.6009 76.9215 81.2496ZM88.9066 37.6997C88.893 37.0683 91.1739 39.7554 90.3478 39.2216C90.168 39.0877 89.1886 38.0053 88.9066 37.6997ZM98.8663 53.5019C99.0558 54.0751 97.6946 52.0853 97.9396 51.9447C98.0261 51.9071 98.8477 53.4325 98.8663 53.5019ZM42.3487 88.2506C42.396 88.1546 42.9229 86.6284 42.9281 86.5727C42.9529 85.4364 41.2117 90.4345 42.3487 88.2506ZM106.797 75.4443C106.56 73.4696 108.066 79.2001 107.34 77.5153C107.311 77.4338 106.815 75.5411 106.797 75.4443ZM108.307 83.2342C108.271 82.813 107.829 80.9012 107.927 80.8499C108.11 80.7832 108.599 82.9844 108.307 83.2342ZM61.2024 71.645C60.9623 72.054 63.7808 71.7815 64.7782 71.8843C65.0335 71.4709 62.1614 71.6934 61.2024 71.645ZM51.7799 72.7225C51.9062 72.6199 52.0213 72.5307 52.1238 72.4545C51.312 73.143 51.065 73.1589 51.2005 73.1279C51.3266 73.0819 51.7414 72.9478 52.151 72.8269C53.0036 72.5767 53.742 72.3387 53.5513 72.3193C53.4087 72.2924 52.4581 72.4481 51.723 72.6139C51.3615 72.6942 51.0595 72.7889 51.0294 72.8044C50.9911 72.8132 51.2867 72.7464 51.947 72.2423C51.7775 72.4 51.5783 72.5986 51.3581 72.8381C51.5357 73.0401 51.4736 72.9751 51.7799 72.7225ZM58.7119 71.9205C58.2968 71.6602 57.0452 71.7818 56.2913 71.8577C56.4219 72.0285 58.0738 71.8797 58.7119 71.9205ZM84.9135 34.161C85.0049 34.503 85.6376 35.1687 86.3703 35.8674C87.0875 36.5498 87.8975 37.2162 87.6545 36.8517C87.59 36.7637 86.7148 35.8124 86.073 35.1485C85.4142 34.4669 84.9044 34.0154 84.9135 34.161ZM43.054 87.4473C43.3132 87.8612 44.5622 84.4376 44.6031 84.1511C44.7132 82.97 43.2262 87.2085 43.054 87.4473ZM69.8437 75.0329C70.0686 75.6076 71.3568 76.4594 72.0851 77.1206C71.9437 76.6155 70.5044 75.5329 69.8437 75.0329ZM64.9815 72.1444C64.9845 72.1525 65.0805 72.1888 65.2469 72.2625C65.4077 72.3328 65.6179 72.4338 65.6384 72.4368C66.0485 72.4862 65.6292 72.1822 65.3233 72.0496C65.005 71.9113 64.921 71.9786 64.9815 72.1444ZM22.1357 50.3741C22.1804 50.3374 23.0348 49.3276 23.0574 49.2846C23.6046 48.1936 21.042 51.2262 22.1357 50.3741Z" fill="#615FE0"/>
</svg>
