<svg width="141" height="158" viewBox="0 0 141 158" fill="none" xmlns="http://www.w3.org/2000/svg">
<path opacity="0.26" d="M25.4287 10.4003C25.8426 10.198 27.277 9.27917 27.8722 8.97147C27.0519 8.94661 23.973 11.0894 25.4287 10.4003ZM86.5835 32.6286C86.4609 32.3975 86.3427 32.1795 86.2274 31.9725C86.7556 32.2685 87.4688 32.9931 88.2055 33.6192C88.3257 33.7195 88.2484 33.2281 88.5167 33.4847C88.7924 33.7528 88.4479 33.9593 88.8316 34.4327C89.1081 34.7609 90.1372 35.7958 91.6323 37.2994C92.1082 37.7408 92.5443 38.1893 92.7796 38.4739C94.7906 40.8976 96.556 44.0064 98.488 47.4829C98.8972 48.2226 99.2894 48.9008 99.6721 49.5458C99.095 48.3581 98.7873 47.6427 98.7104 47.3631C98.6782 47.2125 98.7224 47.2089 98.8161 47.3062C99.2485 47.8305 100.474 49.8853 100.821 50.6722C100.923 50.947 100.394 51.3713 102.787 55.5843C104.014 57.8256 104.007 56.0617 104.981 58.3214C105.155 58.7357 105.359 59.2879 105.595 60.0315C103.347 56.8372 104.99 60.2028 106.094 63.051C106.301 63.5281 107.911 67.4868 108.439 69.2876C108.629 69.9018 108.558 70.9445 108.787 71.7491C108.839 71.927 108.907 72.0855 108.983 72.2446C109.148 72.5987 109.348 72.9502 109.503 73.5283C110.558 77.4749 111.371 81.2585 111.848 84.7868C112.577 82.5781 112.457 86.3817 112.48 86.5107C112.832 87.3402 112.535 83.5092 112.856 85.0076C112.984 86.3888 113.045 87.7074 113.038 89.0185C113.035 89.9378 113.025 90.8223 113.005 91.7142C112.905 89.6613 112.148 94.4101 112.41 95.2142C111.978 95.0108 112.085 97.7818 112.017 100.459C111.979 103.153 111.66 105.487 111.099 107.49C110.966 107.935 111.136 105.997 110.665 108.02C110.671 107.697 110.91 107.167 110.72 107.731C110.639 107.938 110.907 107.989 110.819 108.102C110.761 108.176 109.78 108.237 109.634 109.277C109.608 109.467 110.014 109.183 110.069 109.335C110.085 109.526 109.993 109.918 107.93 112.47C108.323 111.297 107.222 112.502 105.218 115.219C103.873 117.125 101.898 119.498 101.346 120.177C101.502 119.86 101.653 119.542 101.804 119.219C100.868 120.632 100.452 120.584 100.211 120.836C99.9398 121.109 99.6521 121.409 99.3963 121.674C99.1501 121.934 98.8771 122.193 98.9241 122.208C98.5089 122.573 97.9155 122.994 97.3579 123.298C95.8383 124.109 95.5881 123.645 93.6154 124.856C94.0653 124.506 94.4999 124.158 94.9142 123.815C93.564 124.539 92.0728 125.282 90.4827 126.059C94.4143 124.975 89.7378 126.45 89.3747 126.599C88.8729 126.806 89.703 126.733 88.8605 127.088C88.7666 127.126 88.7998 126.81 87.4582 127.411C86.3742 127.898 85.7369 128.25 85.3334 128.508C84.9444 128.793 84.9246 128.945 84.4322 129.17C84.3585 129.196 84.5128 128.883 83.1178 129.415C78.6209 130.925 83.217 129.617 83.3927 129.538C83.6241 129.464 82.596 131.01 85.7172 129.282C85.9285 129.166 86.1584 129.039 86.3889 128.91C86.1435 129.047 85.9177 129.181 85.7274 129.303C84.9429 129.871 84.9664 130.224 84.8455 130.292C84.7254 130.379 82.4451 131.25 82.3067 131.263C81.1271 131.526 82.0163 130.88 81.7779 130.907C81.6094 130.95 78.9002 132.213 77.99 131.454C77.8979 131.547 77.8253 131.628 77.7718 131.699C77.7553 131.909 77.7863 132.039 77.8713 132.114C78.4006 132.204 79.8277 131.844 81.2768 131.438C81.6713 131.507 79.2199 132.449 79.0712 132.465C78.6425 132.58 78.2939 132.654 78.0118 132.699C77.3771 132.68 77.7031 132.022 77.4676 131.668C77.3501 131.452 77.0862 131.948 77.3126 131.3C76.6502 131.264 77.0373 131.607 77.0067 131.666C76.9316 131.749 76.6204 131.546 76.5678 131.56C76.4937 131.587 76.7135 131.834 76.4229 131.874C76.3627 131.877 75.9796 131.438 76.5751 131.347C76.217 131.328 75.9863 131.2 75.8431 131.173C75.6913 131.141 75.6076 131.203 75.3116 131.45C74.8295 130.016 74.4067 131.904 73.9492 131.806C72.6084 131.456 73.2924 130.689 73.2612 130.63C73.1762 130.528 72.9509 130.392 72.5533 130.194C69.7356 128.773 64.7123 127.613 64.4736 127.393C64.5055 127.768 65.3185 128.009 66.706 128.354C68.0561 128.684 69.7999 129.15 70.3883 129.455C72.3831 130.494 70.8538 129.938 69.27 129.518C67.6727 129.097 66.2033 128.869 67.344 129.673C66.3229 129.099 65.3957 128.589 64.7582 128.147C64.2261 128.205 64.1825 128.361 64.1006 128.454C64.0394 128.553 63.9198 128.583 63.6612 128.495C63.747 128.525 63.7634 128.529 63.3981 128.28C63.3809 128.068 63.5526 128.123 63.6816 128.194C63.8199 128.27 63.8322 128.321 63.7394 128.275C63.831 128.299 63.8935 128.283 63.8427 128.164C63.8339 128.141 63.8197 128.118 63.8036 128.095C63.9352 128.046 63.9544 128.002 63.8011 127.872C63.6612 127.75 63.4367 127.576 63.4565 127.525C63.4805 127.458 63.7189 127.602 63.8586 127.669C64.0081 127.742 64.0313 127.735 64.0639 127.632C64.1009 127.519 64.0353 127.43 63.7344 127.238C63.4455 127.054 62.9608 126.774 62.546 126.545C62.1308 126.316 61.803 126.159 61.8228 126.26C61.8296 126.347 62.2411 126.75 63.0197 127.313C62.1254 126.741 60.9686 127.054 60.1473 126.069C59.6025 125.381 64.0635 127.325 58.3934 123.068C57.9982 123.326 60.5569 125.011 60.5754 125.045C60.632 125.15 59.6043 125.606 59.5002 125.586C59.3459 125.552 58.2802 124.644 56.9425 123.426C55.0395 121.711 52.7264 119.537 51.7367 119.023C52.2488 119.06 50.7226 117.675 49.1394 116.283C49.4491 116.587 49.5334 116.763 49.5106 116.739C49.4906 116.724 49.3952 116.555 49.3965 116.478C49.4036 116.395 49.8363 116.439 49.8308 116.356C49.8298 116.129 49.2825 115.389 47.9631 113.215C47.4711 112.527 47.0068 111.825 46.7408 111.292C45.9836 109.76 46.349 109.797 46.3076 109.716C45.9636 109.009 46.0397 109.666 45.8385 109.225C45.6809 108.882 45.0262 107.451 44.4112 106.042C44.0013 105.115 43.7069 104.259 43.6989 104.173C43.6948 104.119 44.2131 104.561 44.0191 103.796C44.0095 103.67 43.5435 103.853 43.1848 101.637C42.8666 99.0486 44.0799 103.295 44.2694 102.126C43.2814 100.657 43.9367 100.59 43.8136 100.185C43.7745 100.048 43.0963 99.0143 43.1248 97.8659C43.0476 98.6837 43.0349 99.54 43.0918 100.429C42.8436 99.5686 42.8628 97.9432 42.7995 97.2883C42.7633 96.9627 42.32 97.2133 42.3801 96.4979C42.4111 96.3498 43.4277 95.8428 42.905 97.6315C43.2694 97.7788 43.0428 96.9097 43.186 96.5275C43.2084 96.4661 43.8332 96.3037 43.5175 95.7818C43.4915 95.6592 41.3164 96.6689 43.4033 93.5328C43.4765 93.431 43.5779 93.8885 43.6549 93.7901C43.6714 93.7697 43.7001 93.658 43.7378 93.5081C43.8301 93.1457 43.9887 92.5508 44.0416 92.4618C44.1191 92.3352 44.1585 93.0014 44.2583 92.852C44.7662 92.1001 44.2601 90.5965 43.7097 92.4386C43.7908 91.81 43.8971 91.1433 44.018 90.4618C44.458 91.3958 44.573 89.5336 44.9592 88.62C47.4706 82.7961 46.3194 86.9168 46.9569 86.0018C48.0082 84.5441 46.3202 85.2698 47.716 83.0379C47.8407 82.8865 47.0709 85.7403 49.2594 80.3601C48.8952 81.0532 48.4988 81.8534 48.1135 82.6543C47.7805 82.0737 48.7683 80.6792 49.2533 80.128C49.3862 79.99 49.4901 79.8876 49.5079 79.8583C50.4365 78.377 49.5739 79.2713 51.3654 77.1388C51.5292 76.9519 51.6905 76.4046 52.0705 76.0329C53.6255 74.4942 50.5834 78.5079 50.8414 78.8141C50.8392 78.8901 53.9151 74.4946 53.9934 74.4889C54.2375 73.7219 52.4455 76.1651 52.5201 75.5072C52.4987 75.3922 54.228 73.2826 55.4071 72.3949C54.684 72.997 54.4098 73.0294 54.6232 72.9609C54.8125 72.8866 55.3599 72.7193 55.6874 72.6047C56.1311 72.4465 56.6414 72.2282 57.159 71.9981C57.1759 71.8437 57.3911 71.644 57.5376 71.6031C57.6895 71.5604 57.8034 71.6649 57.862 72.0631C58.0973 70.9573 58.6358 71.6283 58.8528 71.6008C61.7493 71.2817 61.9315 71.2978 64.8747 71.3938C65.5394 71.4212 66.1161 71.1114 66.3536 71.171C66.4905 71.2072 66.2252 71.5443 66.9011 71.668C67.3386 71.7482 68.9011 71.7525 70.3786 71.7542C68.7562 71.5603 68.845 71.3546 68.8772 71.3379C68.9618 71.3038 69.1979 71.3434 69.254 71.3156C69.3827 71.271 69.1238 71.1251 69.03 71.0506C68.9161 70.9692 69.0786 70.9723 69.0765 70.8063C69.0017 70.71 70.4991 71.5055 71.7969 72.3613C72.3718 72.7306 72.2058 72.3552 72.4559 72.5215C72.5598 72.5656 74.4725 74.2389 74.3333 74.2524C74.1838 74.249 72.5302 72.9766 71.2129 72.1979C69.8651 71.3885 69.163 71.1688 69.6199 71.6053C69.7802 71.7614 71.0246 71.914 70.5517 72.3494C72.5223 73.4909 74.8712 75.2512 76.8746 77.0445C79.831 79.8103 80.9408 81.1784 82.6074 85.5656C81.5328 81.1712 80.0064 79.6431 77.1703 76.8458C77.1527 76.829 77.133 76.8104 77.1113 76.7902C76.633 76.3301 75.2433 75.1889 75.6068 75.1152C76.1684 75.5685 76.7412 76.0656 77.302 76.5853C79.4148 78.5349 80.7521 80.4844 81.7854 82.2899C81.8291 82.3653 81.9417 81.9565 82.1228 82.2314C82.457 82.6697 82.9023 85.0727 83.2233 85.6585C83.2682 85.6961 83.0587 84.0627 83.4456 84.4375C84.4457 85.4104 83.3051 86.2062 83.8478 87.6132C83.8854 87.71 83.9459 87.8537 84.0286 88.0422C83.7402 87.0162 84.2636 88.133 84.4987 89.4176C84.7691 90.7223 84.9229 92.2576 84.7817 92.8993C84.4783 94.3543 84.1797 88.9381 83.8386 89.49C83.8922 91.6783 84.1493 94.3239 84.3018 96.9108C84.3649 97.7873 84.3678 98.643 84.2752 99.467C84.2697 99.5092 84.031 99.1084 83.9383 99.6524C83.7647 100.59 84.0966 100.903 84.0728 101.385C84.0652 101.905 83.5248 103.696 83.5603 103.989C83.5686 104.027 84.058 103.771 84.0855 103.715C84.4829 102.944 84.0506 102.535 84.0643 102.462C84.1111 102.19 84.3603 101.963 84.3997 101.713C84.4634 101.298 84.3295 101.044 84.3936 100.508C84.4342 100.136 84.7261 100.542 84.7581 100.18C84.7824 100.029 84.1183 98.5674 84.9125 98.4726C85.0195 98.4624 85.124 100.912 84.3462 103.741C83.6002 106.677 81.9743 109.524 80.3386 112.81C80.2533 112.972 80.1831 113.082 80.1349 113.138C80.1759 113.019 80.2158 112.896 80.254 112.771C81.1397 110.702 81.6061 109.756 82.0497 108.674C81.6281 109.745 80.9981 110.736 80.055 112.68C79.6683 113.421 79.3795 113.805 79.8129 114.183C79.4157 114.783 79.0611 115.125 78.7883 115.328C78.2397 115.786 76.1707 116.626 73.4503 117.139C69.8345 117.909 69.4396 118.072 67.5546 118.195C68.7333 118.099 70.2951 118.576 70.8799 118.955C71.5132 119.333 71.4563 119.41 71.19 119.125C70.5972 118.554 69.3612 116.891 67.6074 114.796C67.5117 114.688 67.4203 114.589 67.3331 114.497C66.6098 113.785 66.4945 114.64 65.4157 112.696C65.9115 113.123 66.3958 113.483 66.8737 113.791C66.4471 113.369 65.4165 112.087 64.2856 110.008C64.5403 110.521 64.6041 110.749 64.6497 110.893C64.6904 111.032 64.6927 111.072 64.6886 111.072C64.6772 111.067 64.6375 110.91 64.61 110.742C64.551 110.395 64.5251 109.992 64.5408 109.819C64.5562 109.704 65.0648 109.577 65.1003 108.233C65.1529 107.02 64.7691 106.784 64.7382 106.105C64.7254 105.729 64.8004 105.332 64.8545 105.062C64.8804 104.939 64.9001 104.85 64.8989 104.802C64.8961 104.693 64.6507 104.615 64.6477 104.361C64.6515 103.585 65.2282 104.325 64.5836 103.455C64.5137 103.612 64.4455 103.78 64.3803 103.954C64.425 103.056 64.4516 101.831 63.9035 103.02C63.8161 103.233 64.1009 103.105 64.0601 103.267C63.9112 103.857 63.8137 104.42 63.7408 104.926C63.3565 108.658 63.2636 107.174 63.4793 104.894C63.596 103.854 63.8545 102.929 64.1976 102.291C64.1011 101.849 64.5276 100.968 65.709 97.9457C65.4974 98.5493 65.1938 99.0009 65.0215 99.2169C64.8423 99.4403 64.768 99.4967 64.7461 99.4984C64.6788 99.4911 64.6538 99.3795 64.5844 99.2841C64.5238 99.1798 64.3673 99.1473 64.2302 99.0983C64.2201 99.0925 64.1726 99.1222 64.3091 99.0395C64.4372 98.9625 64.781 98.7854 65.2219 98.5998C65.525 98.4687 65.6986 98.4074 65.7625 98.3417C65.8215 98.2791 65.8236 98.1944 65.6142 98.1198C65.5498 98.1001 65.3746 98.135 65.0817 98.2569C64.7071 98.4108 64.3697 98.5904 64.1987 98.7024C64.0202 98.8184 64.0067 98.8485 64.0125 98.8363C63.7636 98.6161 64.1853 98.312 65.0178 98.1006C65.8739 97.9379 66.0281 98.3768 66.0351 98.346C66.0906 98.2879 66.0702 98.1151 65.9443 97.9622C65.886 97.8858 65.8142 97.8159 65.8315 97.747C65.8447 97.6796 65.9646 97.607 66.1183 97.5936C66.6102 97.6057 66.0689 98.0275 66.1699 98.2709C66.1823 98.3417 66.3347 98.2455 66.7756 98.4562C67.1707 98.6341 67.9054 99.2369 67.6564 99.5072C68.1995 99.962 68.5915 100.153 68.6068 100.051C68.6451 99.9676 68.489 99.7246 68.6133 99.7984C68.7069 99.8518 68.8726 100.019 69.7533 100.605C69.7126 100.608 69.6337 100.585 69.6293 100.598C69.6211 100.606 69.7013 100.688 69.8087 100.743C69.8449 100.76 70.088 100.448 70.1337 100.458C70.1736 100.468 70.3185 100.667 70.549 101.102C70.7698 101.517 71.0695 102.172 71.0817 102.231C71.0895 102.294 70.5115 101.897 70.5549 102.158C70.5736 102.267 70.7401 102.619 71.0033 103.155L70.7984 102.721C70.4969 102.014 70.5183 101.949 70.4976 101.905C70.491 101.882 70.5094 101.968 70.5238 102.065C70.555 102.264 70.5779 102.508 70.5526 102.544C70.513 102.607 70.4542 102.343 70.3913 102.117C70.3613 102.01 70.3284 101.914 70.3224 101.949C70.3269 101.997 70.3119 102.132 70.5792 102.818L70.7892 103.263C70.54 102.87 70.3731 102.699 70.3472 102.921C70.4228 103.051 70.5032 103.199 70.5894 103.363L70.3746 102.909C70.0979 102.252 70.0889 102.118 70.0577 102.039C70.0366 101.973 70.0417 102.02 70.0466 102.103C70.0589 102.277 70.0755 102.598 70.0751 102.933C70.0764 103.61 70.0192 104.35 69.9207 104.793C69.9894 104.54 69.864 103.176 69.7775 102.828C69.2758 102.97 69.551 105.936 69.8898 104.884C69.7128 105.565 69.554 105.124 69.3648 105.514C69.3183 105.614 69.372 106.581 69.2876 106.778C69.2715 106.8 69.0014 105.815 68.9038 106.023C68.8397 106.159 68.8314 106.635 68.8435 107.21L68.8292 106.846C68.8247 107.001 68.8204 107.128 68.8176 107.193C68.8145 107.263 68.8164 107.255 68.816 107.311C68.8183 107.391 68.764 108.061 68.7718 108.174C68.7829 108.465 68.8254 108.429 68.8869 108.208C68.9477 107.992 69.0327 107.599 69.0943 107.441C69.1561 107.276 69.2016 107.301 69.2559 107.243C69.3092 107.195 69.3639 107.108 69.4213 107.084C69.4391 107.093 69.5605 107.276 69.674 107.367C69.7934 107.432 69.8099 108.47 69.8333 108.475C70.0305 108.627 70.1704 107.53 70.2033 107.423C70.2393 107.304 70.2581 107.109 70.4501 107.158C70.5232 107.452 70.6212 107.259 70.6076 108.21C70.7158 107.701 70.7864 107.462 70.8251 107.383C70.8667 107.288 70.8982 107.106 70.9128 106.796L70.9245 107.096C70.9238 105.005 70.6893 102.914 70.9115 102.394C71.0488 103.782 71.1615 105.779 71.3973 107.07L71.3861 106.785C71.4597 107.16 71.5471 107.32 71.6748 107.425C71.8025 107.528 71.9631 107.65 72.1813 107.67C72.3916 107.674 72.5737 107.519 72.7057 107.371C72.8395 107.216 72.9252 106.963 72.9787 106.984C73.1707 107.069 73.1638 107.401 73.0893 107.637C73.0181 107.861 72.8291 108.719 72.8395 108.759C72.8551 108.85 72.8743 108.895 72.8963 108.897C72.8963 108.897 72.8963 108.897 72.8963 108.897C72.9816 108.937 73.1499 108.053 73.2536 107.719C73.3041 107.547 73.3429 107.432 73.3765 107.257C73.4099 107.088 73.4353 106.889 73.4569 106.736L73.4656 106.957C73.4781 106.787 73.4915 106.675 73.508 106.649C73.579 106.541 73.7685 106.702 73.9747 106.929L73.9667 106.724C74.235 106.976 74.5186 107.268 74.613 107.268C74.6268 107.256 74.6684 107.018 74.7198 106.706L74.7269 106.888C74.7833 106.344 74.8775 105.775 75.0742 106.183C75.156 106.352 75.2244 106.59 75.2807 106.857L75.2743 106.693C75.427 107.416 75.3781 107.98 75.3883 108.104C75.4323 108.214 75.514 107.968 75.5814 107.722C75.6499 107.477 75.7047 107.097 75.738 106.682L75.7439 106.832C75.7645 106.284 75.7794 105.831 75.8146 105.794C75.8427 105.762 75.9986 106.319 76.1383 106.81L76.1329 106.672C76.2236 106.987 76.2997 107.239 76.3383 107.255C76.3847 107.273 76.4644 107.021 76.5561 106.662L76.561 106.787C76.637 106.392 76.7301 105.931 76.8557 105.664C77.0459 105.257 77.2847 106.39 77.3053 106.187C77.3325 106.033 77.0835 102.967 77.0873 102.834C77.1195 102.609 77.4516 103.283 77.5046 103.176C77.5847 103.017 77.3792 102.063 77.4877 102.178C77.5998 102.218 78.8126 106.031 79.0282 106.011C79.4436 105.939 78.1889 101.818 80.0779 105.606C80.0898 105.631 80.0448 106.432 80.0435 106.596L80.0429 106.579C80.0423 106.595 80.0424 106.605 80.0434 106.608C80.1105 106.733 80.1818 106.688 80.2516 106.574L80.252 106.585C80.4409 106.255 80.5994 105.385 80.7114 106.56C80.7285 106.86 80.7403 107.288 80.6979 107.884C80.7607 107.38 80.7904 106.941 80.8145 106.561C80.9169 101.639 81.4004 106.883 81.9663 105.878C82.2163 105.459 82.0968 102.671 82.1202 102.646C82.4815 102.886 82.3055 103.803 82.4909 104.091C82.606 104.257 82.7115 101.698 82.9922 102.239C83.1576 102.533 83.3332 105.215 83.3531 105.32C83.6361 106.36 83.7876 105.052 83.9557 105.274C84.0193 105.355 84.0825 105.904 84.1245 106.373L84.1288 106.482C84.152 106.884 84.1551 107.258 84.1628 107.281C84.1773 107.312 84.2543 106.943 84.3335 106.477L84.3289 106.361C84.4372 105.689 84.5647 104.738 84.6323 104.447C84.72 104.087 84.9894 105.395 85.0208 105.147C85.2321 103.66 84.1453 100.474 85.4934 103.494C85.5763 103.681 85.637 104.842 85.6504 104.875C85.9982 105.571 85.8736 103.434 86.0725 103.013C86.4348 102.306 86.4681 105.465 86.5388 102.825C86.8473 104.151 86.9607 105.061 87.0174 106.214L87.0252 106.413C87.0354 107.037 87.0242 107.874 86.9141 108.864C87.0179 107.946 87.0512 107.067 87.0761 106.412L87.0682 106.211C87.0852 101.535 87.8127 100.236 88.2441 106.147L88.2534 106.384C88.257 106.528 88.2595 106.673 88.2605 106.831C88.2579 106.666 88.2564 106.522 88.2561 106.384L88.2468 106.147C88.1892 104.311 88.735 104.447 88.6991 103.808C88.6971 103.417 87.709 100.001 89.2485 101.455C89.4517 101.657 89.4208 103.747 89.7116 103.069C89.0927 97.9538 89.9477 102.98 89.971 102.945C90.1551 102.91 90.2134 102.247 90.1436 101.129C90.1069 100.567 90.04 99.8933 89.9064 99.0456C89.8378 98.6173 89.7541 98.1455 89.6189 97.5541C89.4533 96.9138 89.3827 96.3598 88.7198 94.793L88.506 94.3407C87.5475 91.7807 82.7351 85.6564 80.7666 84.7467C80.5194 84.5657 80.274 84.3919 80.0246 84.2217C80.2239 84.3255 80.1636 84.2598 80.0727 84.1535C79.9775 84.0459 79.8236 83.887 79.6546 83.7145C79.3154 83.3682 78.9086 82.9661 78.5253 82.6053C77.7458 81.8707 77.0249 81.2837 76.7057 81.1015C74.3243 79.8166 76.1617 81.1655 75.571 80.9855C75.2856 80.9054 73.4609 79.8028 71.2272 79.0872C69.0151 78.3343 66.615 78.1326 66.4029 78.1535C64.6835 78.2924 66.4308 78.6667 66.2448 78.6897C65.0785 78.7351 60.88 79.0949 57.7881 80.4246C55.6441 81.23 53.2059 82.6495 52.0517 83.6521C52.0386 83.1319 57.1392 80.171 53.7478 81.6683C51.7078 82.641 50.6491 83.8442 50.2444 84.5417C49.8241 85.2663 49.9601 85.5619 49.9261 85.6298C48.6149 87.043 47.3651 88.939 46.6058 91.07C46.0821 92.2493 43.519 98.3747 43.2508 102.41C42.946 104.91 42.8285 107.352 42.9197 109.928C42.9696 111.221 43.0682 112.538 43.2919 114.019C43.5905 115.58 43.6303 116.907 45.096 119.975C46.4509 122.62 48.3226 125.825 50.7551 128.655C50.8628 128.782 50.9759 128.917 51.0934 129.06C50.9979 129.115 50.8064 128.995 50.5809 128.804C48.576 126.997 45.6493 121.506 45.6345 121.477C45.1067 120.962 46.9758 125.156 50.3026 129.042C51.4381 130.4 53.4908 132.999 54.2092 133.622C53.0696 132.517 52.1844 131.571 51.4093 130.794C51.7335 131.723 52.7267 133.022 54.5763 134.861C56.3555 136.616 59.5986 139.299 63.8119 140.501C66.4521 141.25 61.2819 140.192 61.4694 140.111C64.1071 141.68 69.464 141.576 65.681 140.951C66.9258 141.173 67.9335 141.209 68.7607 141.188C70.5949 141.179 70.6005 140.936 72.7656 140.616C72.8982 140.59 71.8264 141.045 73.8945 140.817C74.6474 140.742 77.1709 140.173 77.859 140.138C78.4764 140.057 78.972 140.001 79.1581 140.029C79.3195 140.055 78.651 140.597 77.9949 140.847C77.7683 140.977 77.4832 140.995 77.3299 140.65C76.5568 140.929 75.8136 141.127 75.4099 141.191C74.9913 141.26 74.8606 141.219 74.8386 141.145C74.7858 140.996 75.147 140.72 74.104 140.926C73.7972 140.925 74.5695 141.576 69.1073 141.792C70.0595 142.804 76.8328 140.973 77.0334 140.939C77.6684 140.911 76.9788 141.263 74.7985 141.765C72.5984 142.28 69.6998 142.454 68.9215 142.129C69.2729 142.42 69.1978 142.481 68.8279 142.469C67.7287 142.492 65.3359 142.305 62.7539 141.52C60.2835 140.729 59.796 140.382 59.4063 140.274C59.0512 140.141 58.8815 140.135 57.9099 139.52C55.4084 137.82 55.2323 137.271 54.8125 136.832C54.4655 136.404 54.0879 136.049 52.8984 135.066C54.4545 135.726 53.4579 134.628 52.2705 133.46C51.062 132.266 49.7692 131.22 49.2643 130.899C50.5659 132.472 51.8251 135.029 56.1945 138.728C55.8875 138.583 55.5904 138.435 55.3033 138.288C56.4106 139.208 57.7906 140.21 59.586 141.096C59.3292 140.89 59.0906 140.684 58.8605 140.475C62.568 142.834 66.7371 143.196 68.8555 142.995C70.0294 142.869 70.4917 142.654 70.7119 142.632C73.4676 142.394 77.0058 141.512 78.082 141.302C80.1858 140.894 82.4442 140.359 84.7125 139.593C85.506 139.205 84.9667 140.4 90.8027 136.998C92.5893 135.799 90.8452 136.506 92.5909 135.379C92.6761 135.322 92.7691 135.259 92.8702 135.19C96.1374 133.966 95.5204 133.289 96.2278 132.658C98.2005 130.734 99.2874 129.564 99.4506 129.377C100.756 127.706 102.122 125.431 103.124 123.216C103.198 123.046 103.576 122.317 103.921 121.681C103.943 121.646 103.701 122.756 104.258 121.492C104.395 121.119 105.74 116.051 107.604 111.38C107.296 112.641 106.941 113.88 106.551 115.084C107.273 113.855 110.08 103.285 109.776 105.932C109.724 107.637 107.87 111.276 108.457 111.897C109.026 109.963 110.958 102.513 110.653 96.102C110.579 92.3298 110.28 88.8672 110.135 88.2773C110.092 88.0955 109.949 89.2631 109.891 89.0091C109.877 88.8518 109.454 84.7695 109.195 84.0838C109.085 83.7477 109.244 85.7319 109.121 85.5744C109 85.3717 108.693 82.4337 107.547 78.954C107.506 78.7582 107.494 78.593 107.54 78.5384C107.563 78.6507 107.599 78.786 107.641 78.9175C108.29 80.71 108.535 81.8996 108.755 82.6421C108.952 83.3461 109.086 83.577 108.998 82.5702C108.986 82.3004 108.363 80.6082 108.185 79.9727C108.044 79.3882 107.918 78.9557 107.9 78.8175C107.91 78.7965 107.924 78.7916 107.943 78.8007C109.111 80.8339 109.914 86.834 109.964 87.7382C109.936 86.737 109.843 85.5966 109.644 84.2627C109.391 82.8337 109.312 81.675 108.228 78.6905C107.452 76.6758 105.644 71.6996 103.652 68.1058C102.038 65.8162 105.294 71.9126 103.587 69.2664C99.8632 63.9307 103.022 67.5718 102.96 67.3851C102.378 65.7274 97.9255 62.3635 98.7325 61.7262C97.1084 60.1496 97.5179 60.7453 95.4331 58.4753C95.771 58.6957 96.1208 58.9341 96.457 59.166C96.1027 58.6457 95.6005 58.0967 95.0099 57.5601C92.5374 55.2709 88.3918 53.4922 88.6514 53.825C89.5333 54.8703 92.4557 56.6531 92.6626 56.8727C92.8493 57.0531 92.987 57.6937 93.932 58.7181C94.6148 59.4592 95.6707 60.3735 97.3863 61.6834C98.0354 63.1861 94.5623 59.4454 93.6978 58.9697C93.5283 58.8609 93.4767 58.871 93.6065 59.0678C93.7107 59.2209 93.9204 59.4817 94.2472 59.8782C94.0598 59.6866 93.8132 59.447 93.5126 59.1687C90.7728 56.3709 82.4696 50.9671 80.5726 49.932C80.3133 49.788 81.9353 49.6241 78.1837 48.3873C77.2141 48.1055 77.8853 48.4049 78.6018 48.7584C79.3137 49.1092 80.0455 49.5185 79.6515 49.4223C79.3641 49.3559 78.7192 49.0937 77.6085 48.7039C76.4324 48.3409 75.0705 47.7056 71.7959 47.4585C66.6764 47.3755 59.7879 46.6584 51.2973 48.3789C48.5614 48.9149 43.9338 50.4217 41.9411 51.7906C41.4564 52.0925 41.7576 52.1718 41.2842 52.4848C40.9526 52.7086 40.4073 53.0673 39.7432 53.5844C38.2545 54.6761 36.1728 56.5175 35.2702 57.6839C37.6413 54.4166 32.3799 60.1868 31.4854 61.7932C29.9061 64.1831 30.3841 64.2733 29.8018 65.3536C29.1848 66.5377 28.414 67.8624 27.6237 69.3555C25.8251 72.7588 24.0697 76.136 23.7907 78.5453C23.0167 78.0566 22.1463 83.8093 21.3298 86.6648C21.3223 86.6901 21.3146 86.7155 21.3068 86.7409C20.5546 89.0901 19.3556 92.6678 19.6949 89.1453C18.7025 93.6048 18.3926 98.4139 18.8421 102.544C18.9177 103.229 19.0579 102.262 19.1867 103.414C19.1992 103.518 18.9546 103.702 19.0914 104.691C20.582 112.725 20.3652 108.66 20.8619 110.082C21.1916 110.858 21.4253 111.407 21.5858 111.826C20.0569 107.522 19.4315 102.023 19.3935 100.551C19.8033 101.817 20.9787 110.881 22.2824 113.146C22.319 113.227 22.5037 112.827 22.5376 112.91C22.5383 112.912 22.539 112.914 22.5396 112.916C22.6669 113.23 23.013 114.155 23.4138 115.156C23.9973 116.653 24.6605 118.454 24.1583 117.925C24.0194 117.778 23.539 116.759 22.9364 115.363C22.5661 114.506 22.1781 113.53 21.8033 112.461C22.0557 113.353 21.4875 112.828 21.5297 112.986C21.7053 113.63 22.0665 114.556 22.5257 115.541C23.2579 117.096 24.2559 118.931 24.6973 119.803C24.8479 120.103 24.6338 120.177 24.6567 120.228C25.2821 121.433 25.6161 120.642 25.6436 122.21C27.447 124.091 23.7479 117.979 24.4897 118.251C24.7247 118.321 25.9307 120.991 27.5992 124.189C28.3113 125.747 30.9185 131.215 33.4654 133.512C33.7938 133.911 33.9558 134.172 33.8884 134.236C33.9694 134.218 34.1692 134.286 34.5278 134.483C35.3101 134.911 38.2171 137.643 38.6865 138.211C38.7602 138.308 38.3154 138.734 38.4225 138.837C38.5792 138.989 40.1047 140.125 41.5738 141.306C42.6132 142.147 43.6504 143.013 44.2041 143.644C43.2879 143.019 42.4083 142.398 41.539 141.768C46.5497 145.952 45.8212 145.45 43.891 144.2C43.803 144.132 43.7017 144.08 43.6181 144.016C42.6398 143.349 41.5222 142.524 40.9091 142.079C40.6394 141.886 40.4677 141.768 40.4501 141.773C40.4199 141.782 40.5588 141.935 40.8172 142.186C42.2262 143.73 49.1087 148.793 47.8133 147.214C47.4901 146.959 43.0528 143.876 45.4181 145.18C45.7877 145.406 48.6668 147.606 48.9165 147.681C50.0145 148.161 43.9895 143.279 45.0888 143.508C46.2356 144.93 48.2379 146.174 50.1833 147.519C51.0806 148.135 51.1884 148.54 51.3093 148.619C53.199 149.761 52.2763 148.876 52.9405 149.237C53.1386 149.34 54.346 150.183 55.7602 150.72C56.6659 151.073 57.2519 151.152 57.0757 150.64C59.5548 151.556 60.2576 151.873 60.7611 152.147C61.2119 152.399 61.243 152.484 61.0325 152.457C60.528 152.347 59.3856 152.098 55.7048 150.876C54.1778 150.325 52.979 149.72 51.9277 149.142C52.7305 149.707 53.8822 150.388 55.642 151.052C58.2413 151.998 59.738 152.298 60.4689 152.619C60.853 152.78 60.5406 153.002 61.1185 153.28C61.3231 153.381 61.6567 153.518 62.0393 153.685C65.1874 155.673 77.1028 157.987 80.684 156.762C78.0351 156.922 78.7973 156.522 80.7955 156.312C82.7925 156.03 81.1905 156.744 81.5874 156.732C81.7103 156.725 82.5379 156.593 83.6775 156.304C85.8196 155.784 89.4924 154.497 90.2963 154.225C85.211 155.741 86.2807 155.071 90.4791 153.578C89.8383 153.708 89.1973 153.827 88.5571 153.936C90.6342 153.401 94.3019 151.536 96.2303 150.501C96.5392 150.339 96.8114 150.214 97.0089 150.149C97.1792 150.094 96.7316 150.632 96.8289 150.601C97.7075 150.3 100.933 148.473 101.157 148.474C101.323 148.487 99.9769 149.385 100.564 149.242C100.686 149.211 101.917 148.209 103.4 147.602C103.95 147.376 103.747 147.777 103.889 147.726C105.083 147.287 104.193 147.227 106.342 146.223C107.937 145.455 109.324 145.262 111.635 143.657C104.893 148.135 109.598 145.462 113.229 143.183C113.597 142.942 113.913 142.726 114.183 142.54C114.727 142.132 114.832 142.825 117.474 140.177C110.658 144.758 119.059 138.356 120.107 136.938C120.179 136.856 119.972 136.608 120.613 135.912C120.667 135.853 120.755 136.09 121.36 135.448C126.879 129.189 123.225 133.093 124.07 131.744C124.22 131.486 124.831 130.761 125.501 129.93C126.093 129.234 126.928 128.303 127.24 127.898C127.367 127.73 127.121 127.677 127.631 127.015C128.541 125.838 129.611 124.787 130.28 123.844C130.359 123.713 130.053 123.598 131.406 121.677C131.787 121.123 132.299 120.498 131.882 121.406C130.471 124.485 126.871 128.054 125.884 129.997C125.853 130.057 125.828 130.109 125.808 130.153C125.583 130.568 125.665 130.542 125.932 130.243C126.481 129.704 129.295 126.048 129.542 125.676C129.64 125.545 128.492 126.809 129.483 125.391C130.321 124.173 132.558 122.138 133.85 119.246C133.96 119.073 134.54 116.398 134.449 116.465C134.408 116.703 132.642 120.12 132.746 119.507C132.764 119.482 133.817 117.306 133.832 116.89C133.87 116.443 132.986 114.892 133.113 114.321C133.452 112.794 133.487 113.869 133.711 112.824C133.742 112.668 133.774 112.485 133.807 112.276C133.782 111.916 134.488 107.475 134.893 107.477C134.776 108.249 134.641 109.024 134.504 109.756C135.437 105.582 135.235 107.376 135.448 106.795C135.653 106.161 135.225 106.267 135.401 104.827C135.503 104.476 136.153 98.6567 136.275 98.8011C135.763 101.949 136.347 100.838 136.351 100.979C136.334 101.538 135.973 102.251 135.889 103.011C135.193 108.49 136.407 103.029 136.344 104.337C136.325 104.781 135.945 105.655 135.925 105.848C135.865 106.472 136.178 106.546 136.08 106.957C135.843 107.927 135.601 106.705 135.563 106.775C135.148 107.621 134.768 110.981 135.701 109.035C135.609 110.309 134.977 110.329 135.017 111.221C135.071 112.036 135.203 111.862 135.346 111.423C135.492 110.975 135.689 110.081 135.815 109.69C136.699 106.876 136.679 105.835 137.197 101.81C137.373 100.359 137.776 98.6974 137.828 98.0504C137.881 97.6137 137.001 93.7751 138.585 93.7085C138.474 92.3237 137.568 90.2614 137.461 88.791C137.452 88.6646 137.449 88.5407 137.45 88.4201C137.463 86.9076 138.031 87.3691 138.051 87.2264C138.084 87.0073 137.949 85.1717 137.975 84.5544C138.011 83.8234 138.26 84.1679 138.241 83.0192C138.162 80.171 137.562 80.3472 137.494 80.0633C136.586 76.8801 137.596 78.1781 137.548 77.448C137.587 76.6825 135.259 67.8005 134.866 66.0129C134.963 66.7806 135.053 67.5451 135.14 68.3249C134.444 67.0898 134.606 65.5359 133.981 65.6947C134.244 65.5375 134.315 65.2218 134.274 64.8262C134.169 63.8234 133.348 62.3668 133.177 61.7826C133.084 61.4586 133.261 61.4295 133.137 61.0259C132.665 59.4446 131.273 56.0153 131.026 55.1556C130.019 51.3981 134.105 60.4308 134.303 61.2155C133.882 59.7006 130.955 51.3301 132.87 54.9659C133.168 55.531 133.118 56.7426 133.219 57.0812C133.91 59.3794 133.672 57.4643 133.773 57.6274C133.943 57.9082 134.078 59.534 134.254 59.9145C134.31 60.0438 134.393 59.0644 135.115 61.2512C135.154 60.0385 132.687 54.0637 132.419 53.2584C132.32 52.9706 133.815 54.4274 130.959 49.5792C131.051 49.6098 131.144 49.6406 131.236 49.6715C130.835 48.7118 130.419 47.7511 129.988 46.791C129.119 44.8604 128.21 42.9932 127.29 41.1933C127.296 41.5632 127.783 43.2337 126.855 41.2947C126.32 40.1901 127.073 40.8183 127.03 40.7143C126.892 40.3358 125.107 37.067 123.437 34.0426C120.598 28.4687 115.208 21.076 113.28 19.0946C113.035 18.8138 112.692 18.4039 112.299 17.9427C111.73 17.2049 110.367 15.4106 110.204 15.237C109.338 14.0093 103.224 8.70214 101.564 7.83695C100.67 7.22744 101.706 7.51888 100.877 7.01422C100.092 6.55165 100.741 7.29971 100.504 7.16989C99.6032 6.6562 95.618 4.29112 91.1013 3.05742C87.9703 2.12119 84.0006 1.16735 82.3408 1.04002C83.8899 1.20642 89.0167 2.79299 90.9468 3.62022C91.9108 3.96931 92.4818 4.23993 92.4143 4.2697C92.382 4.27499 91.6492 4.10826 90.8586 3.94152C90.3447 3.84729 89.7934 3.72673 89.6188 3.62339C88.9246 3.70401 86.8601 2.34667 85.4741 2.19607C85.3106 2.18297 85.8452 2.73471 83.3921 2.30308C82.5484 2.16122 80.3036 1.36448 77.6924 1.50332C76.4636 1.32096 73.2427 1.06202 69.4116 1.47438C64.2414 2.02453 57.607 3.02422 56.8543 2.82957C56.8224 2.80642 58.9113 2.35579 57.4579 2.35551C55.5129 2.36566 57.3567 2.98672 55.1311 3.3923C54.995 3.41812 53.8887 3.57128 52.5626 3.77988C50.8226 4.04888 48.6795 4.38369 48.5557 4.37421C46.6792 4.20701 51.8004 3.09485 51.6992 3.05994C51.5151 2.94114 47.2197 3.61075 47.0248 3.68871C46.8687 3.75316 50.5387 3.74412 46.2117 4.28941C46.6946 4.11874 47.1711 3.95113 47.6466 3.78503C45.6034 4.00528 45.4765 4.49763 44.9834 4.62063C43.443 5.0176 41.5806 4.67566 39.0088 6.20662C38.3331 6.61503 39.6112 6.54154 39.5267 6.59964C38.7395 7.11212 37.3801 6.63117 36.1387 7.65522C36.0192 7.77233 39.5144 6.92234 33.6269 8.96194C34.0272 8.74592 34.4194 8.54093 34.8105 8.34289C34.2686 8.44063 31.5199 9.35124 29.1504 10.6512C28.322 11.0909 27.5887 11.502 27.3728 11.6381C25.6024 12.7655 27.4186 12.179 25.5173 13.2579C26.5064 11.9082 20.4207 15.8166 21.0657 16.0859C19.7754 16.1595 15.3 20.7767 13.6653 22.764C13.5718 22.8679 13.4688 22.9802 13.3582 23.0994C12.3684 24.1567 10.5654 25.8294 10.3137 26.1547C9.98063 26.5847 10.4038 26.7423 9.81608 27.5408C9.64906 27.7681 7.4601 29.754 6.06255 32.015C5.79099 32.4525 5.62875 33.7265 6.38331 33.1315C7.6733 32.1122 9.24584 29.4725 9.53581 29.7824C9.84337 30.1112 6.94529 32.9859 6.26186 33.8707C3.11175 37.9419 5.41517 36.0082 5.43837 36.1994C5.48315 36.6825 3.64457 38.8479 3.59101 38.9707C3.38339 39.4398 4.89505 38.0611 5.07917 38.1808C5.3146 38.329 3.95078 40.7647 4.42182 40.3461C5.09545 39.7302 6.38241 37.5569 6.50122 37.4529C8.03654 36.079 6.70769 38.6212 6.45226 39.4243C6.37608 39.6663 7.10128 39.0565 6.99784 39.2237C5.41742 41.7835 5.89968 39.1076 4.68798 40.7115C3.60683 42.1624 5.40912 40.6268 5.3795 40.7042C5.3444 40.7811 4.00046 42.4703 3.90313 42.8464C3.86613 42.9684 8.02383 39.2411 8.15682 39.6858C6.97251 40.9552 5.79412 42.2403 4.6113 43.6104C4.9031 44.0107 6.22895 41.795 6.43544 41.6341C6.84667 41.2924 6.10317 42.5809 6.26452 42.6278C6.35911 42.6634 7.71744 41.5587 6.84517 42.846C6.60116 43.2107 5.90167 43.7106 5.13782 44.876C4.97024 45.1328 4.81525 45.4006 4.64789 45.7237C4.88631 45.449 5.09082 45.2202 5.29249 44.9954C8.94551 41.0538 6.48508 44.533 6.5001 44.7786C6.51747 45.0324 8.83273 42.764 6.34936 45.7889C6.37441 45.8165 6.39796 45.8421 6.42012 45.8658C6.58032 46.0382 6.66789 46.1098 6.73135 46.1061C6.88139 46.1009 6.89621 45.6525 7.4524 45.134C8.45644 44.2213 6.73225 46.7994 9.65706 42.8803C9.80206 43.3343 7.62518 45.996 7.27288 46.5241C7.24682 46.5609 7.22982 46.5863 7.22315 46.5988C7.19471 46.6531 7.25439 46.6267 7.34225 46.5776C7.51449 46.4837 7.80234 46.2984 7.71212 46.4938C7.66744 46.5898 7.62589 46.6807 7.58716 46.7666C6.23359 49.7966 7.37277 47.7205 7.17859 48.8532C7.15111 48.9532 5.29718 51.85 6.89722 49.7847C7.55942 48.9401 8.11747 48.198 8.60026 47.5486C10.2703 45.3275 11.0439 44.2292 12.2273 44.4208C11.4337 45.7601 10.3535 47.0366 9.36601 48.1397C8.09488 49.5579 6.93578 50.6863 6.58708 51.1645C5.63207 52.4835 6.82342 51.2629 6.77111 51.4714C6.74722 51.5412 5.94152 52.6665 5.94967 52.7007C6.15949 53.6862 7.84552 50.6429 9.51157 48.2521C10.1379 47.3343 10.7594 46.5042 11.2001 46.0454C10.9345 46.6093 10.6657 47.1838 10.4119 47.7496C10.9259 47.111 11.451 46.4769 11.9819 45.8458C9.7414 49.0738 11.9742 46.0199 13.2431 45.8024C13.5225 45.7565 11.6369 47.5185 13.9094 45.6043C12.6157 47.336 13.1817 46.9129 11.7828 48.271C12.0555 48.4328 15.1281 45.307 16.4102 44.1042C12.8165 48.8946 13.9418 45.7248 11.4349 49.7367C11.3765 49.833 11.3169 49.9324 11.2565 50.0348C10.8124 50.2859 10.9536 49.9634 11.2106 49.5635C11.4621 49.1666 11.841 48.6968 11.7494 48.7565C11.5437 48.8906 11.3255 49.1454 11.0723 49.4567C10.5105 50.1501 9.75122 51.1315 8.4628 51.9267C8.15383 52.1199 8.63205 50.7046 7.42436 52.4389C7.28758 52.6314 6.84846 53.9395 6.88827 53.9352C7.22057 53.9448 7.862 52.8145 7.99842 52.8354C8.11319 52.8627 7.24267 54.016 7.26988 54.0415C7.54473 54.2732 8.0562 53.1229 8.05162 53.3329C8.00284 53.8232 5.87459 58.4243 9.3908 52.8127C5.92315 57.1701 8.57027 53.1793 10.0777 51.465C10.4549 51.0254 10.7084 51.0455 11.2671 50.4364C11.4098 50.2821 11.5533 50.114 11.6964 49.9385C12.2261 49.2905 12.726 48.5774 13.0225 48.263C13.4288 47.841 11.7109 50.7242 14.6513 46.9216C14.0983 47.9485 13.1227 49.142 12.1873 50.3174C11.0616 51.7319 9.92917 53.1581 9.39545 54.271C7.47779 58.4083 11.8827 52.1606 12.5928 51.5003C12.7456 51.3309 12.5155 52.1129 12.6221 52.0026C12.6703 51.952 12.9163 51.6189 13.2689 51.1523C14.0908 50.0509 15.6689 48.1231 16.014 47.9839C16.4898 47.7879 14.9192 49.2799 15.0289 49.5489C15.0706 49.7334 18.9255 45.6379 17.0494 48.0332C16.2176 49.0946 14.6998 50.5186 13.8623 51.6103C13.3647 52.2554 13.0532 52.8042 13.1261 53.1398C13.4693 52.7017 13.8047 52.2802 14.159 51.8393C15.629 50.0221 17.3154 48.1078 19.0054 46.2231C18.1047 47.6917 17.2219 49.16 16.4008 50.6018C18.6041 48.0573 20.3741 45.559 22.8804 43.321C18.2683 49.9171 25.1201 41.8426 25.3055 41.8241C25.3764 41.8397 23.8159 44.6829 23.5849 45.1486C25.6151 43.2508 31.4722 36.9462 28.7755 41.2826C29.2298 40.4743 31.0883 39.1492 31.0998 39.1921C31.1915 39.6796 27.7875 43.0905 28.5798 42.7413C29.4909 42.3425 29.9236 41.0218 30.9017 39.9995C31.1103 39.7819 31.3193 39.5685 31.5107 39.3791C35.1701 36.1227 35.2003 38.4934 38.7868 35.6509C38.7373 35.7679 38.6902 35.884 38.6451 35.9994C39.5628 35.3876 40.6998 34.7129 42.012 33.9626C43.3951 32.9282 49.8807 31.4394 55.748 30.372C56.1375 30.3846 56.6009 30.3808 57.136 30.3606C60.3186 30.2868 66.7142 29.8073 70.0597 29.4219C70.3723 29.3848 71.1728 29.2473 72.0307 29.0959C72.6607 28.9277 73.4136 28.7988 73.512 28.7673C73.7962 28.6474 72.2306 28.6364 72.9303 28.411C73.0064 28.3866 73.8988 28.3175 74.8918 28.4155C75.8719 28.5032 76.9666 28.7529 76.7685 28.8965C76.22 28.8333 74.7826 28.49 74.5726 28.5699C73.5723 28.8534 77.6345 29.0318 83.5054 30.736C84.9213 31.1023 85.7416 31.6911 85.8481 31.8596C85.6412 31.8588 85.4426 31.8698 85.252 31.891C85.6606 32.0641 86.0863 32.2893 86.5835 32.6286ZM32.4104 7.94053C31.5878 8.0204 30.0669 8.71296 28.5577 9.57689C28.0985 9.84359 27.6405 10.1077 27.2385 10.2959C25.6483 10.9992 21.8278 11.8063 23.869 12.1308C25.576 11.1421 27.1499 10.3418 28.5854 9.62717C29.9101 8.94055 31.1968 8.39222 32.4104 7.94053ZM70.6493 0.385687C68.2793 0.768284 70.1911 1.32801 72.0891 0.953336C72.293 0.92216 73.8747 -0.0144858 70.6493 0.385687ZM52.7169 2.92402C52.7993 2.91787 54.3104 2.65238 54.3566 2.6352C55.3872 2.22909 52.766 2.62901 52.4006 2.83829C52.3554 2.86617 52.3538 2.88969 52.4122 2.90578C52.4652 2.91818 52.5633 2.92477 52.7169 2.92402ZM129.392 46.9582C128.706 45.4244 129.472 45.8933 129.894 46.834C129.973 47.0103 130.039 47.2034 130.079 47.402C130.093 47.4679 129.637 47.193 129.459 47.0347C129.425 47.004 129.401 46.9774 129.392 46.9582ZM128.772 45.6815C127.557 44.5564 127.29 41.2873 128.276 43.5102C128.374 43.7245 128.833 45.7306 128.772 45.6815ZM64.3993 1.29634C64.6102 1.51086 66.2959 1.21548 67.0149 1.08672C66.9708 0.872553 65.1154 1.24296 64.3993 1.29634ZM113.323 19.5972C113.295 19.6616 112.737 19.0749 111.955 18.2647C111.191 17.4936 109.106 15.0724 108.967 14.7151C109.463 15.3167 111.398 17.3996 112.093 18.1356C112.84 18.9304 113.346 19.5381 113.323 19.5972ZM122.96 34.3819C122.952 34.3731 122.938 34.3521 122.92 34.3215C122.697 33.9313 121.859 32.3082 122.013 32.2845C122.478 32.8277 122.937 33.7753 123.078 34.2363C123.129 34.4435 123.104 34.538 122.96 34.3819ZM135.746 63.3541C135.74 63.4615 134.669 62.547 135.456 64.4794C135.59 64.8122 135.773 65.2135 136.026 65.7363C136.279 66.2529 135.986 64.2362 136.075 64.4169C136.265 64.8042 136.388 65.1098 136.468 65.367C136.381 64.9954 136.291 64.6252 136.199 64.2616C135.852 62.8957 135.498 61.7416 135.407 61.619C134.863 60.8892 135.752 63.2942 135.746 63.3541ZM138.776 80.4746C138.67 80.8874 139.041 83.4435 139.147 84.0403C139.167 84.1417 139.584 83.6573 139.637 84.8491C139.67 85.808 139.129 84.4054 139.306 86.2674C139.46 88.1576 139.68 85.6113 139.705 85.7742C139.753 85.9678 139.679 88.286 139.817 88.769C139.838 88.8262 139.863 88.854 139.895 88.8442C139.912 88.8388 139.927 88.8123 139.939 88.7679C140.079 88.2443 139.871 85.5418 139.846 84.8404C139.826 83.847 140.252 85.0206 140.043 83.3723C139.903 82.3469 139.379 82.9736 139.329 82.7594C139.306 82.5707 139.194 79.0271 138.779 80.4797C138.778 80.4781 138.777 80.4763 138.776 80.4746ZM136.576 65.8449C136.559 65.7091 136.525 65.5527 136.468 65.367C136.505 65.5278 136.541 65.6876 136.576 65.8449ZM38.4643 6.2171C39.4214 5.776 36.3951 6.33821 35.2112 7.00013C35.282 7.15219 38.3433 6.25708 38.4643 6.2171ZM136.564 67.5846C137.384 70.162 137.096 68.1719 136.576 65.8449C136.673 66.5963 136.283 66.7297 136.564 67.5846ZM89.6188 3.62339C89.7356 3.60987 89.8201 3.56276 89.8573 3.458C89.5488 3.50063 89.5045 3.55634 89.6188 3.62339ZM97.5538 6.30768C100.189 8.01392 94.5242 5.18204 94.6073 5.0844C94.6616 4.97515 97.4578 6.20831 97.5538 6.30768ZM130.462 49.2623C130.35 49.0954 130.659 52.3248 129.551 47.9178C130.639 50.06 129.711 47.7033 129.804 47.6992C130.096 47.6834 131.471 51.4757 131.885 52.2541C131.725 53.0668 130.839 49.8223 130.465 49.267C130.464 49.2655 130.463 49.2639 130.462 49.2623ZM137.323 112.328C137.649 112.098 137.974 110.404 138.223 109.094C137.85 109.617 137.487 111.567 137.323 112.328ZM105.004 120.22C107.039 116.469 107.765 113.644 107.714 113.24C107.657 112.764 106.964 114.606 105.439 118.381C105.379 118.551 104.677 120.632 105.004 120.22ZM85.258 50.2103C84.2714 50.1454 86.6595 51.7507 88.1943 52.6562C88.548 52.8578 90.0415 53.3738 88.7189 52.269C88.4211 52.759 86.1566 51.397 85.258 50.2103ZM136.652 69.1343C136.542 69.9701 137.33 72.2832 137.64 73.5545C137.739 72.7164 137.033 70.1913 136.652 69.1343ZM109.847 90.7886C109.748 89.9425 110.107 89.3162 110.155 89.4636C110.376 90.1275 110.153 91.7401 109.847 90.7886ZM134.466 61.6877C134.292 61.6487 134.792 63.7469 135.244 64.5417C135.34 64.708 135.436 64.8141 135.526 64.8282C135.497 64.744 135.46 64.6284 135.418 64.4907C135.139 63.57 134.588 61.72 134.466 61.6877ZM137.637 110.346C137.662 109.827 136.865 112.454 136.93 112.641C137.03 112.654 137.152 112.366 137.312 111.801C137.469 111.254 137.631 110.519 137.637 110.346ZM106.632 75.5518C106.339 74.8397 105.481 72.7919 105.515 72.4841C105.611 72.1302 106.79 75.1692 106.632 75.5518ZM72.272 77.2681C72.5976 77.1438 66.7768 75.391 64.1673 75.9784C61.7979 76.3971 63.7213 76.1541 66.3611 76.2635C69.0353 76.3338 72.1996 77.253 72.272 77.2681ZM109.896 99.2498C110.145 102.162 109.933 98.9349 110.331 99.0707C110.347 101.045 109.702 105.894 109.714 102.516C109.713 101.867 109.899 100.151 109.896 99.2498ZM109.778 96.5938C109.81 96.5174 109.856 96.3338 109.907 96.1249C110.066 95.6097 110.279 94.9224 110.292 96.0108C110.292 96.044 110.292 96.0782 110.29 96.1132C110.261 96.9604 109.836 98.0815 109.778 96.5938ZM44.043 90.6935C44.0115 90.9383 44.0494 90.9696 44.1462 90.8262C44.24 90.6898 44.372 90.4188 44.4291 90.2866C45.5016 87.0534 48.3591 83.5313 50.5339 81.8853C52.7279 80.1368 54.2529 79.4285 54.3756 79.3178C54.5737 79.1765 54.6976 79.0789 54.7648 79.015C55.0932 78.9228 56.0864 78.4925 56.8543 78.1415C57.5211 77.8372 58.0848 77.5697 58.204 77.3969C57.8602 77.5245 57.3333 77.718 56.775 77.9476C55.9947 78.2639 55.1107 78.68 54.9622 78.7771C54.8611 78.8417 54.787 78.893 54.7374 78.9325C54.3413 79.043 52.6134 79.7677 50.2755 81.6215C47.9482 83.3624 45.1071 87.095 44.1637 90.1911C44.1423 90.3379 44.0488 90.6369 44.043 90.6935ZM40.7892 109.925C41.2564 106.988 40.4251 106.514 40.3716 106.746C39.9461 109.904 40.6589 107.842 40.685 107.942C40.7224 108.151 40.4615 110.437 40.7889 109.916C40.789 109.919 40.7891 109.922 40.7892 109.925ZM42.8927 93.9007C42.9208 93.8403 43.1682 93.1728 43.399 92.5951C43.6318 92.0089 43.8208 91.5461 43.8279 91.5094C43.9659 90.7977 43.605 91.47 43.154 92.6004C42.7083 93.7177 42.3386 95.0517 42.8927 93.9007ZM138.695 93.8779C138.749 95.3171 139.13 93.9176 139.022 92.9617C139.011 92.8783 138.64 92.6254 138.695 93.8779ZM109.832 95.3606C109.839 95.0968 108.937 86.3757 109.397 86.7264C109.59 87.706 110.367 97.4346 109.832 95.3606ZM62.8494 45.6189C64.3819 45.6036 62.7121 45.1265 61.8787 45.3266C61.5725 45.3998 62.4634 45.6227 62.8494 45.6189ZM132.677 57.7718C132.397 56.211 131.671 56.8212 132.414 57.9877C132.443 58.0336 132.688 57.833 132.677 57.7718ZM78.2619 47.0186C75.9428 45.9976 73.3057 45.6051 71.8992 45.6876C71.5621 45.7749 71.5588 45.9183 71.8771 46.0666C74.1551 46.3816 78.0604 47.6664 81.595 49.355C81.3834 49.1646 81.1773 48.9801 80.9496 48.7883C89.3483 53.4143 82.0568 48.9878 79.2722 47.7836C78.2585 47.3201 79.2399 47.4464 78.2703 47.0199C78.2675 47.0194 78.2647 47.019 78.2619 47.0186ZM54.0949 46.2356C50.8011 47.36 52.529 47.0872 55.0925 46.7235C57.6342 46.3749 60.8091 46.1279 62.2094 46.1792C59.4991 45.7717 55.6875 46.0872 60.7266 45.3738C57.0991 45.4598 55.797 45.7539 55.6202 45.8634C55.4217 45.9871 56.1952 46.0227 56.0352 46.058C55.6738 46.1308 54.3665 46.1437 54.0949 46.2356ZM68.1277 45.7127C68.4136 45.7496 70.5686 45.6112 71.3546 45.6945C70.2757 45.2483 66.2313 45.4399 68.1277 45.7127ZM49.4004 130.73C49.5046 130.538 49.5102 130.279 49.2687 129.925C49.0122 129.593 48.6666 129.184 48.2173 128.665C48.3902 129.018 48.7192 129.548 49.0824 130.084C49.1829 130.29 49.303 130.522 49.4004 130.73ZM30.9038 10.2862C30.4838 10.4953 29.9414 10.7844 29.3957 11.0958C28.5025 11.6129 27.5327 12.1597 27.8856 11.7052C27.9162 11.6709 28.6657 11.2525 29.3085 10.9377C30.1369 10.5114 30.8703 10.2177 30.9038 10.2862ZM102.409 68.1288C102.35 67.7228 97.3686 61.2346 99.3406 63.2712C100.071 63.7413 104.105 70.249 102.409 68.1288ZM108.87 106.111C109.016 105.46 109.453 102.764 109.511 102.705C109.794 102.554 109.18 105.882 108.87 106.111ZM25.2302 13.8217C25.1155 13.8793 21.5475 16.2509 21.8532 15.8969C22.4441 15.0852 25.7053 13.385 25.2302 13.8217ZM137.777 99.1229C137.745 99.4263 138.03 99.8643 138.025 99.9746C138.063 100.193 137.249 106.069 137.923 103.867C138.149 103.405 138.569 95.1994 138.474 94.2302C138.056 93.8234 138.358 97.2211 138.249 98.0774C138.231 98.229 137.866 98.2854 137.779 99.1205C137.778 99.1213 137.777 99.1221 137.777 99.1229ZM43.7935 121.941C43.8232 121.854 43.6555 121.412 43.4186 120.847C41.9171 117.615 41.7801 115.608 41.4935 113.928C41.2646 112.298 41.1641 111.181 41.0348 111.22C41.0978 112.404 41.2035 113.629 41.4362 115.046C41.7369 116.535 41.8207 117.874 43.2786 120.919C43.4409 121.247 43.6127 121.589 43.7935 121.941ZM45.7651 125.253C46.8402 126.591 44.7576 123.167 44.2391 122.303C44.0354 122.357 45.5686 125.043 45.7651 125.253ZM108.433 92.0127C108.461 91.351 108.985 93.347 109.036 92.89C109.071 92.5974 108.827 91.1383 108.913 90.6492C108.945 90.5126 109.431 92.0029 109.437 92.4366C109.451 93.0547 109.12 92.4784 109.154 93.1438C109.207 94.1963 109.293 95.1804 109.372 96.1414C109.466 97.4604 109.509 98.7614 109.432 100.097C109.419 100.326 109.303 98.5415 109.199 100.495C109.177 100.79 109.385 102.652 108.953 104.971C107.116 109.829 106.802 113.847 103.908 119.011C103.934 118.837 105.561 114.612 105.619 114.31C107.301 110.055 109.004 101.88 108.648 96.1636C108.628 95.5492 108.606 94.9775 108.582 94.4362C108.527 93.2424 108.759 93.8161 108.741 93.2963C108.723 92.8847 108.375 93.3988 108.433 92.0127ZM31.7941 10.1027C31.4998 10.459 30.619 10.8914 29.5868 11.4422C29.0131 11.7416 28.3525 12.0559 27.8366 12.3602C27.9697 12.0511 28.7176 11.6411 29.4806 11.2497C30.3164 10.8074 31.1703 10.4215 31.7941 10.1027ZM79.8781 139.971C80.5783 139.844 82.8393 139.118 83.0771 139.151C83.3515 139.253 80.0573 140.225 79.8781 139.971ZM125.496 130.918C125.451 130.971 124.447 132.315 124.412 132.369C123.736 133.752 126.756 129.696 125.496 130.918ZM94.0788 153.141C92.875 153.616 91.6184 153.974 91.3199 154.415C92.0804 154.093 94.3068 153.285 94.0788 153.141ZM40.1231 141.361C40.5573 141.21 37.8831 139.209 37.4079 138.821C37.4466 139.106 39.8002 141.475 40.1231 141.361ZM50.4998 130.071C50.1939 129.704 50.0698 129.478 50.0041 129.297C49.5647 128.535 49.6923 128.325 48.8162 127.505C48.6303 127.311 46.9893 127.363 49.2815 129.44C49.6009 129.718 49.0074 128.713 49.8257 129.449C49.9629 129.538 50.1626 129.707 50.4998 130.071ZM82.8097 50.0154C83.2668 50.5775 84.9959 51.5523 86.0584 52.2654C85.9512 51.9352 83.6993 50.5268 82.8097 50.0154ZM19.166 18.6382C18.4222 19.6829 14.6101 23.1787 15.332 22.0936C15.3877 21.9375 18.5383 19.1352 19.166 18.6382ZM136.693 74.7806C136.783 76.7529 135.908 72.816 135.885 71.5459C136.003 72.0901 136.695 74.6477 136.693 74.7806ZM50.6745 149.01C50.5428 148.939 48.4604 147.651 48.3957 147.607C47.5257 147.2 48.4286 147.905 49.4578 148.538C50.4863 149.173 51.6665 149.73 50.6745 149.01ZM104.102 147.865C103.332 147.978 99.4064 150.031 98.7271 150.624C99.5939 150.614 104.986 147.794 104.102 147.865ZM58.0608 138.213C55.4493 136.351 54.0738 134.796 52.8818 133.586C52.9205 133.785 53.7207 134.763 54.9274 135.885C56.0845 136.997 57.8594 138.188 58.0608 138.213ZM43.891 144.2C43.803 144.132 43.7017 144.08 43.6181 144.016C43.7093 144.079 43.8025 144.141 43.891 144.2ZM101.029 123.741C101.411 122.887 101.616 122.625 101.739 122.583C101.783 122.595 101.825 122.617 101.852 122.635C101.866 122.667 101.869 122.704 101.862 122.725C101.43 123.979 100.176 125.55 101.029 123.741ZM30.1921 11.5105C30.1257 11.6089 29.994 11.7239 29.8143 11.8545C29.2465 12.3271 27.7258 12.9765 26.807 13.6025C26.9882 13.2071 28.8147 12.2054 29.7494 11.7368C29.9128 11.6512 30.0621 11.5754 30.1921 11.5105ZM47.9059 48.3508C46.6885 48.9413 49.6383 48.3328 51.2244 48.085C53.2348 47.6629 54.7493 47.5097 55.3787 47.3353C55.4064 47.2276 53.6227 47.202 51.1248 47.684C49.9704 47.8419 48.0313 48.2765 47.9059 48.3508ZM134.856 69.0978C134.572 69.0368 134.175 66.3488 134.445 66.8674C134.626 67.2005 135.037 69.1215 134.856 69.0978ZM59.0023 46.8731C59.6614 46.9144 61.1262 46.6013 60.6006 46.459C59.9243 46.2742 58.8317 46.8584 59.0023 46.8731ZM106.752 81.5715C106.691 81.4223 106.57 80.7586 106.142 79.4966C105.987 78.8464 105.781 77.7265 106.234 78.4522C106.599 79.0153 106.457 79.2306 106.417 79.3904C106.442 79.5224 106.467 79.6367 106.508 79.7514C107.165 81.1408 108.902 88.0791 106.752 81.5715ZM21.7396 81.0917C22.3119 79.8622 22.7932 78.327 23.3282 77.0533C22.955 77.5007 21.7309 80.4635 21.7396 81.0917ZM136.945 79.6312C136.882 79.2298 135.007 70.2732 136.366 75.3047C136.476 75.5724 137.441 80.6092 136.945 79.6312ZM50.4998 130.071C50.6273 130.224 50.7868 130.403 50.9928 130.621C50.8006 130.395 50.6364 130.218 50.4998 130.071ZM80.69 139.1C80.0856 139.058 82.8687 138.292 83.7895 138.071C84.1117 138.247 80.7459 139.146 80.69 139.1ZM23.6187 77.06C24.0246 76.367 24.4754 75.0003 24.8846 74.1015C24.6469 74.18 23.575 76.67 23.6187 77.06ZM36.1933 136.601C35.0176 135.678 33.7266 134.434 33.8534 134.251C33.8079 134.256 33.7315 134.236 33.6194 134.184C33.5785 134.164 33.4197 134.013 33.2005 133.803C32.2696 132.958 31.1847 131.658 30.6535 131.018C29.1844 129.074 29.9314 130.991 33.0306 133.99C35.788 136.554 40.7945 140.784 35.2533 135.196C35.5643 135.663 35.8772 136.131 36.1933 136.601ZM109.727 144.336C110.439 143.649 113.231 142.22 112.617 142.746C112.137 143.203 108.969 145.099 109.727 144.336ZM73.0808 155.936C73.4416 155.998 77.0508 156.408 77.166 156.494C74.9912 156.719 71.299 155.891 73.0808 155.936ZM116.525 139.003C116.981 138.537 117.874 138.282 117.831 138.349C117.476 138.919 115.867 139.922 116.525 139.003ZM54.0399 132.616C54.6324 133.222 57.2412 136.346 58.3094 137.33C58.5287 137.412 59.0273 137.707 60.1323 138.232C60.129 138.23 60.1258 138.228 60.1225 138.227C60.3779 138.279 63.653 140.45 68.7077 140.178C71.9194 140.095 76.8629 138.902 77.6052 138.814C79.1058 138.551 79.5365 138.526 77.6436 139.015C77.1446 139.15 76.352 139.422 74.1865 139.918C73.6313 140.028 74.3775 139.677 72.0641 140.064C71.9117 140.087 71.8615 140.308 71.3868 140.373C70.9798 140.43 69.9056 140.566 68.7321 140.643C63.9922 141.117 59.0825 138.254 58.4359 137.553C58.401 137.576 58.2733 137.534 58.0443 137.41C56.9742 136.846 55.5327 135.335 54.8153 134.243C54.0627 133.135 53.7653 132.357 54.0399 132.616ZM66.6661 154.308C67.2642 154.454 69.2252 155.118 69.4095 155.343C68.3066 155.19 65.2319 153.991 66.6661 154.308ZM136.151 79.4535C135.855 78.4109 135.652 75.7263 135.946 76.495C136.147 76.9543 136.512 80.6502 136.151 79.4535ZM87.5474 154.39C81.4 156.373 86.0641 154.806 85.0435 154.815C85.8768 154.691 86.7117 154.55 87.5474 154.39ZM42.5484 102.806C42.5083 103.616 42.8564 103.16 42.9906 102.378C43.0417 102.078 43.0675 101.739 43.0428 101.388C43.02 101.064 42.7496 101.716 42.6194 102.333C42.5824 102.501 42.5563 102.667 42.5484 102.806ZM88.3445 92.8435C87.8498 92.4961 88.4532 93.7043 88.8048 94.1902L89.0257 94.6577C89.5377 95.7666 89.6573 96.1392 89.7701 96.2877C89.8184 96.3512 89.8436 96.3275 89.8335 96.1838C89.8195 96.0347 89.7888 95.7956 89.6119 95.2229C89.595 95.1751 89.5142 94.9535 89.3206 94.5272L89.0928 94.0452C88.9278 93.7711 88.3906 92.8964 88.3445 92.8435ZM48.3989 87.0278C47.5458 87.8497 46.891 88.5614 46.0256 90.8612C45.9956 90.9536 45.9569 91.0925 45.8728 91.3479C46.0174 91.0444 46.0769 90.9554 46.13 90.8988C46.5435 89.9627 46.5417 90.2059 46.6625 90.0287C46.811 89.8851 46.9725 89.1689 48.3989 87.0278ZM33.8884 134.236C33.8728 134.239 33.8604 134.241 33.8534 134.251C33.8691 134.249 33.88 134.244 33.8884 134.236ZM120.879 134.723C121.217 133.952 122.663 132.252 122.448 132.939C122.431 133.01 121.258 134.617 120.879 134.723ZM58.3094 137.33C58.1238 137.256 58.1802 137.339 58.4359 137.553C58.4697 137.532 58.418 137.455 58.3094 137.33ZM110.935 143.084C111.096 143.255 108.127 145.062 108.018 145.068C106.186 145.648 109.622 143.921 110.935 143.084ZM130.734 59.3577C130.701 59.1983 131.541 60.0029 131.547 60.6729C131.551 61.1891 130.857 59.9484 130.734 59.3577ZM57.201 80.4665C57.3679 80.3946 57.5395 80.3224 57.7165 80.2494C59.0265 79.6894 60.7736 79.1832 61.0941 78.8943C60.3059 79.0912 58.5138 79.6861 57.6696 80.135C57.3649 80.2934 57.1724 80.4213 57.201 80.4665ZM87.1246 91.3316C86.73 89.9072 83.838 85.8345 80.7542 84.0207C80.6105 84.1575 82.5041 85.4233 84.073 87.1474C85.6817 88.8637 86.7968 90.6817 87.1246 91.3316ZM52.1691 130.528C52.1785 130.523 53.8879 132.472 53.4879 132.38C52.7749 132.127 51.6468 130.092 52.1691 130.528ZM132.498 63.8332C132.651 64.9447 131.384 62.6704 131.416 61.439C131.44 60.7982 132.48 63.6398 132.498 63.8332ZM124.905 129.143C125.273 128.758 125.16 129.062 124.909 129.501C124.452 130.253 123.647 131.319 123.339 131.465C123.699 130.982 124.318 129.966 124.729 129.37C124.792 129.277 124.853 129.198 124.905 129.143ZM79.0206 155.434C85.4727 153.772 82.1735 155.641 80.9395 155.748C80.7617 155.772 78.8503 155.478 79.0206 155.434ZM12.042 28.2872C11.5584 28.6641 12.7656 26.725 13.1504 26.6855C13.3905 26.6609 12.3495 28.0471 12.042 28.2872ZM21.5858 111.826C21.657 112.039 21.7295 112.251 21.8033 112.461C21.7584 112.3 21.6883 112.092 21.5858 111.826ZM131.804 116.702C130.86 121.234 130.252 120.139 130.102 120.497C129.735 121.135 129.097 122.662 128.352 123.619C129.259 122.55 130.195 121.383 131.132 120.002C130.847 120.627 129.326 123.266 127.945 125.247C126.547 127.281 125.426 128.832 125.32 128.837C124.954 128.893 126.519 126.953 126.572 126.847C126.613 126.74 126.3 125.976 126.43 125.757C126.571 125.614 131.303 118.915 131.804 116.702ZM90.2813 152.78C89.5463 153.14 89.4161 153.48 89.0359 153.54C88.9051 153.561 88.8003 153.314 88.3606 153.388C89.0032 153.196 89.6438 152.994 90.2813 152.78ZM134.685 110.213C134.605 109.4 133.993 112.092 134.01 112.314C133.932 112.79 133.869 113.096 133.865 113.144C133.833 113.599 134.024 113.21 134.242 112.356C134.37 112.17 134.739 110.76 134.685 110.213ZM112.385 141.857C112.804 141.621 115.701 139.12 115.741 139.28C115.336 139.766 113.656 141.249 112.433 142.015C111.946 142.318 111.781 142.37 112.346 141.888C112.359 141.878 112.372 141.867 112.385 141.857ZM87.84 153.538C86.6969 153.953 84.552 154.813 84.7016 154.351C84.7033 154.35 84.705 154.35 84.7067 154.349C85.7549 154.107 86.7981 153.838 87.84 153.538ZM132.73 67.691C131.563 65.9129 132.611 66.6048 133.285 68.2974C133.149 68.9042 132.92 67.984 132.73 67.691ZM130.382 61.5901C130.127 61.0768 128.255 55.5729 128.867 56.2867C129.104 56.5371 129.96 59.7949 130.022 59.9352C130.131 60.1461 130.14 59.0076 130.65 60.7288C130.497 60.6709 130.481 61.7621 130.382 61.5901ZM131.878 66.1888C131.76 65.9829 131.665 65.7906 131.589 65.6137C131.002 64.2551 131.616 63.8533 132.009 65.1543C132.04 65.2575 132.06 65.3656 132.072 65.4719C132.126 65.9567 131.998 66.3972 131.878 66.1888ZM133.985 74.2196C133.749 73.505 133.194 71.6245 133.151 70.2478C133.617 71.9906 134.046 73.7515 134.429 75.5541C134.304 75.7949 134.195 74.8393 133.984 74.2148C133.984 74.2164 133.985 74.218 133.985 74.2196ZM88.4792 107.433C88.3495 106.379 88.2832 107.011 88.1956 108.086C88.1501 108.628 88.0739 109.272 88.0372 109.579C88 109.897 87.9952 110.023 88.0083 110.053C88.1034 110.178 88.2116 110.056 88.3232 109.571C88.4451 109.069 88.5394 107.891 88.4792 107.433ZM10.4605 42.5447C10.2679 42.9319 10.35 43.3536 9.62769 43.9487C10.0273 43.0777 10.4343 42.2108 10.8457 41.3464C11.7452 41.1672 10.6665 42.1242 10.4605 42.5447ZM9.82282 46.5764C9.91461 46.4866 10.1527 47.5738 10.7457 45.9209C10.9701 45.3152 9.82916 46.3488 8.72059 47.6415C7.77997 48.7372 6.8679 49.9989 6.71586 50.5144C7.28886 49.9245 8.1212 48.724 8.85846 47.7479C9.22002 47.2677 9.56424 46.8391 9.82282 46.5764ZM7.10608 57.0506C7.10386 57.1535 8.14187 55.5436 8.26835 55.2937C8.7317 54.0803 6.81024 56.6737 7.10608 57.0506ZM10.6889 51.36C10.2421 52.2116 11.3988 50.8357 11.9057 50.1001C11.9576 50.0234 12.0025 49.953 12.0365 49.8935C12.0149 49.8558 11.9265 49.9155 11.8086 50.0251C11.4272 50.3854 10.746 51.2511 10.6889 51.36ZM72.8037 97.0422C72.3996 97.0787 72.3199 96.8208 72.3563 96.5901C72.3929 96.3657 72.6244 96.186 72.9197 96.5811C72.951 96.6206 72.8439 97.0382 72.8037 97.0422ZM8.78919 55.8874C9.15933 54.9874 7.91421 56.7359 7.80542 57.2187C7.89751 57.3581 8.70653 56.0388 8.78919 55.8874ZM71.6618 97.9342C71.5472 97.9456 71.4885 97.9273 71.4613 97.8805C70.852 97.4203 71.0105 97.1794 71.1762 96.979C71.3664 96.7916 71.6724 96.695 71.8099 96.7577C71.8876 96.7931 71.9764 96.8383 72.08 96.8936C72.531 96.9721 72.9649 98.1755 73.0312 98.557C72.4312 97.5552 72.1969 97.6186 72.0377 97.6546C71.8845 97.7238 71.8129 97.922 71.6618 97.9342ZM67.5015 94.3158C67.1791 94.1422 67.4667 94.0927 67.9129 94.2185C68.3528 94.3363 68.9669 94.7088 69.0682 95.0108C68.6429 94.7046 67.6712 94.3953 67.5015 94.3158ZM63.0586 95.3644C62.8369 95.4977 62.4315 95.7614 62.1578 95.9593C61.8738 96.1605 61.7228 96.273 61.608 96.2261C61.698 96.1661 61.8862 95.9432 62.2053 95.7193C62.5142 95.4982 62.9124 95.3054 63.0586 95.3644ZM62.5348 96.4263C62.4033 96.6966 62.2521 96.6387 62.1394 96.5333C62.0345 96.4257 61.9849 96.2512 62.3192 96.1846C62.3458 96.1792 62.542 96.4012 62.5348 96.4263ZM61.4293 99.2353C61.4637 100.058 60.3951 100.402 60.789 99.3809C60.9187 99.0591 61.4245 99.1433 61.4293 99.2353ZM69.097 98.0137C68.6061 97.7403 68.3342 97.4062 68.3036 97.2121C68.2975 97.0391 68.4237 96.8918 69.2851 97.4871C68.7233 96.9495 68.3493 96.5806 67.9986 96.2711C68.8334 96.5565 69.2966 97.09 69.5523 97.4835C69.8437 97.9053 69.8163 98.1595 70.5481 98.6366C70.6512 98.7025 70.7573 98.7669 70.8663 98.8295C71.0694 98.839 71.4883 98.345 71.5559 98.127C71.5514 98.3713 71.678 98.5848 71.9977 99.1352C72.3173 99.6721 72.8309 100.697 73.4128 101.941L73.2656 101.63C73.131 101.328 73.1196 101.269 73.1045 101.241C73.0937 101.218 73.0986 101.251 73.1047 101.298C73.0828 101.254 73.062 101.226 73.057 101.254C73.0564 101.289 73.0518 101.355 73.1733 101.671L73.3228 101.987C72.7138 100.972 72.1332 100.087 71.6939 99.6247C71.2483 99.1466 71.0035 99.075 70.8603 99.0267C70.8259 99.016 70.8093 98.9848 70.7939 98.9451C70.0089 98.3869 69.7439 98.0663 69.4237 97.8509C68.7292 97.3779 69.1505 98.0407 69.1005 98.0164C69.0993 98.0155 69.0981 98.0146 69.097 98.0137ZM59.828 105.853C60.1139 107.815 59.3 106.546 59.5498 105.443C59.5654 105.397 59.8212 105.805 59.828 105.853ZM10.0965 58.9626C10.1241 58.665 10.1817 58.349 10.2071 58.1274C10.2378 57.8971 10.2532 57.728 10.3447 57.5029C10.544 57.0458 10.9823 56.368 13.0861 54.122C11.1681 55.8772 12.6977 54.0189 12.2376 54.2975C11.8609 54.5277 11.1329 55.8039 11.35 54.9165C11.1787 55.4711 10.3615 56.7621 9.85248 57.7223C9.31676 58.7271 9.27967 58.9927 9.27401 59.0856C9.27425 59.0848 9.27449 59.084 9.27474 59.0831C9.28338 59.1163 9.49494 59.1475 9.69798 59.146C9.90335 59.1399 10.0838 59.1425 10.0965 58.9626ZM64.0391 97.4124C64.0904 97.9731 63.9302 97.8836 63.717 97.8008C63.519 97.7084 63.2245 97.6602 63.4098 98.0711C63.1177 97.7848 62.9893 97.6926 63.1288 97.5344C63.2622 97.3792 63.7973 97.1252 64.4998 96.8343C65.0944 96.5823 65.4456 96.4415 65.5031 96.0437C64.7527 96.2126 64.3174 96.3848 64.3228 96.2988C64.3143 96.228 64.6627 95.9927 65.0142 95.86C65.7532 95.5954 66.2611 95.7026 65.4944 96.596C66.1774 96.1929 66.2256 96.3193 66.1975 96.4501C66.157 96.5948 66.0295 96.8384 66.0987 96.9421C66.1713 97.0526 66.3007 97.0585 66.4349 97.1089C66.5666 97.1567 66.7114 97.2553 66.6238 97.4318C66.6235 97.4317 66.6232 97.4316 66.6228 97.4314C66.2642 97.2791 66.1698 97.2413 65.7941 97.2499C65.9226 96.8115 65.836 96.6644 65.6096 96.7441C65.3923 96.82 65.0358 97.172 64.9393 97.5834C64.8896 97.5649 64.8381 97.5475 64.7849 97.5312C64.5239 97.49 64.2744 97.4508 64.0391 97.4124ZM67.1079 96.2289C67.0737 96.2249 66.7833 96.0899 66.5484 96.0009C66.3145 95.9058 66.0682 95.8347 66.1028 95.7498C66.1831 95.6937 66.5924 95.7229 66.9279 95.8835C67.2695 96.0416 67.5196 96.2695 67.1079 96.2289ZM72.7148 102.037C72.6814 101.827 72.6319 101.606 72.5919 101.471C72.5729 101.406 72.5552 101.361 72.558 101.388C72.5661 101.422 72.57 101.496 72.7283 101.867L72.8881 102.206C72.5016 101.449 72.2613 100.911 72.2756 100.584C72.4776 100.953 72.7782 101.478 73.1004 102.099L72.9457 101.771C72.769 101.347 72.7867 101.327 72.777 101.321C72.7755 101.329 72.7858 101.403 72.7892 101.489C72.7977 101.665 72.7827 101.887 72.7148 102.037ZM67.7738 121.742C68.0474 122.235 67.6214 121.913 67.1482 121.366C66.6799 120.827 66.1831 120.098 66.7318 120.54C66.8039 120.617 67.7674 121.733 67.7738 121.742ZM63.1142 97.7776C63.2939 97.8231 63.228 97.6099 63.0497 97.5456C62.8807 97.4697 62.683 97.4054 62.8063 97.4694C62.8163 97.4816 63.0935 97.7777 63.1142 97.7776ZM10.8963 57.7332C11.0445 57.8737 13.1475 54.5048 13.6701 53.8643C13.156 54.0962 10.467 57.7651 10.8963 57.7332ZM72.005 103.977C71.7036 103.401 71.5283 102.775 71.4323 102.281C71.3851 102.035 71.3563 101.822 71.3598 101.726C71.3625 101.68 71.3728 101.665 71.4092 101.727C71.4506 101.796 71.4968 101.918 71.6964 102.324L71.8803 102.713C71.499 101.619 71.4326 101.048 71.3605 100.941C71.2156 100.727 71.0654 101.271 71.0278 101.226C70.9846 101.165 70.632 100.528 70.4432 100.266C70.2416 99.9796 70.2172 99.9658 70.2208 99.945C70.219 99.9149 70.6621 99.5664 70.695 99.3626C70.6834 99.4878 70.7414 99.5714 71.0226 100.011C71.2996 100.438 71.7792 101.332 72.3551 102.474L72.1825 102.109C72.001 101.683 71.9952 101.603 71.9785 101.553C71.9684 101.512 71.9781 101.541 71.9893 101.587C72.0134 101.684 72.0473 101.855 72.0733 102.008C72.127 102.322 72.1586 102.586 72.1544 102.641C72.1454 102.758 71.9388 102.407 71.8213 102.37C71.7006 102.347 71.6857 102.48 72.0046 103.973C72.0047 103.974 72.0049 103.976 72.005 103.977ZM70.9651 100.499C71.2106 100.683 71.1238 100.399 70.9783 100.135C70.8291 99.8633 70.6716 99.7066 70.6025 99.697C70.4527 99.6832 70.4623 99.7544 70.5632 99.9101C70.6604 100.053 70.9324 100.466 70.9651 100.499ZM68.0952 98.3619C67.9757 98.3064 67.5179 98.01 67.2308 97.8269C66.9318 97.6325 66.7607 97.5055 66.7773 97.3713C67.0186 97.2885 67.3906 97.4924 67.7343 97.8039C68.0708 98.1078 68.3655 98.4857 68.0952 98.3619ZM61.5194 107.426C61.4549 108.035 61.6984 109.61 61.488 109.694C61.474 109.154 61.2807 107.517 61.5194 107.426ZM21.1571 47.6875C20.4901 48.7478 22.4261 46.6278 22.9209 45.9313C22.8351 45.7978 21.2113 47.5967 21.1571 47.6875ZM64.7507 99.1922C64.7802 99.1664 65.1577 98.8627 65.5191 97.8774C64.6173 100.24 63.9401 101.469 63.6575 102.31C63.3372 103.164 63.1563 103.997 63.0738 104.287C63.0589 103.986 63.156 103.123 63.4237 102.225C63.6525 101.346 64.3137 100.048 65.1786 97.7548C64.8639 98.6025 64.5557 98.8888 64.5596 98.9404C64.5457 98.9953 64.7262 99.2034 64.7507 99.1922ZM69.3139 101.144C68.9967 101.324 69.2275 100.984 69.2368 100.987C69.2353 100.949 69.2724 100.991 69.395 101.12C69.5128 101.24 69.6784 101.399 69.7574 101.22C69.6238 101.063 69.5178 100.909 69.4748 100.84C69.4293 100.766 69.4492 100.766 69.4806 100.788C69.5452 100.835 69.6023 100.94 69.3139 101.144ZM63.0162 107.952C62.8786 110.253 62.5833 105.798 62.9506 106.392C62.9624 106.432 63.0234 107.718 63.0162 107.952ZM64.5908 99.4889C64.6102 99.5489 64.5448 99.6371 64.6298 99.6027C64.7099 99.5735 64.9768 99.421 65.473 99.2137C65.9079 99.0295 66.0728 99.0122 66.0473 98.9913C66.0236 98.9711 65.9804 98.9414 65.9987 98.9454C66.0525 98.7027 66.0478 98.6718 66.0491 98.7012C66.0451 98.7312 66.0583 98.8145 65.9854 98.8112C65.9413 98.8105 65.9123 98.6065 65.9074 98.6069C65.7841 98.622 65.9275 98.8356 65.849 98.8573C65.832 98.8638 65.6931 98.8556 65.3676 98.9561C64.8531 99.1314 64.4712 99.3243 64.4364 99.3694C64.3894 99.4226 64.5682 99.3428 64.5908 99.4889ZM69.1141 101.282C69.0246 101.357 68.748 101.099 69.0018 101.522C69.2145 101.889 69.8547 103.188 69.9337 103.289C70.5194 104.047 69.7649 102.323 69.3651 101.621C69.1553 101.249 69.042 101.135 69.0436 101.155C69.0411 101.173 69.1131 101.261 69.1141 101.282ZM65.0922 99.6167C65.1185 99.8021 65.029 100 64.9877 100.081C64.9416 100.168 64.9572 100.147 65.0093 100.083C65.0587 100.019 65.125 99.9207 65.0939 99.8606C65.0722 99.7961 64.9156 99.7865 64.7749 99.7884C64.7504 99.7875 64.7384 99.8644 64.7983 99.8748C64.8527 99.8888 64.9957 99.8135 65.0922 99.6167ZM63.5693 107.717C63.5577 107.857 63.7431 110.098 63.5874 110.091C63.4341 109.904 63.395 106.442 63.5693 107.717ZM64.2411 106.526C64.2352 106.583 63.9086 106.007 63.8959 107.114C63.9025 107.202 64.2633 107.408 64.1329 108.731C64.1073 108.999 63.8631 109.407 63.8458 109.38C63.0683 108.043 64.6898 103.694 64.2411 106.526ZM68.8956 101.52C68.8496 101.7 68.364 101.945 68.4799 101.698C68.5446 101.605 68.7709 101.421 68.8956 101.52ZM64.5504 112.134C64.3269 111.429 64.7897 112.096 65.2888 112.815C65.7881 113.544 66.3499 114.289 66.3774 114.383C66.1554 114.477 64.6007 112.356 64.5504 112.134ZM24.8288 47.0277C24.8279 47.0288 24.8269 47.0299 24.8259 47.031C25.8123 45.8072 24.9812 46.3708 25.0236 46.3105C26.97 43.5519 26.814 44.5933 27.2118 44.2454C28.0745 43.4965 27.4348 43.1721 28.93 41.9333C26.4978 44.0144 28.5539 41.9835 28.4336 41.7491C27.9174 40.8166 25.9682 45.2097 24.7873 46.2379C24.6206 46.3822 25.4462 44.9631 25.0078 45.3213C23.5672 46.4951 21.0921 51.7092 24.8288 47.0277ZM68.418 101.695C68.3569 101.739 68.3148 101.74 68.3722 101.841C68.4264 101.938 68.5877 102.166 68.8127 102.516C69.255 103.205 69.9445 104.308 69.689 103.523C69.6419 103.386 69.0542 102.1 68.8172 101.763C68.5461 101.368 68.6112 101.601 68.418 101.695ZM48.4505 117.475C48.3616 117.358 48.3095 117.273 48.2894 117.217C48.3317 117.207 48.3548 117.179 48.3613 117.138C48.7322 117.226 50.2308 118.411 50.4527 118.816C50.6009 119.085 48.8221 117.965 48.4505 117.475ZM63.5323 128.465C63.6891 128.565 63.6659 128.721 63.5286 128.868C63.6023 129.043 63.6844 129.232 63.662 129.348C63.6463 129.467 63.5047 129.507 63.3259 129.438C63.3366 129.441 63.3449 129.438 63.347 129.428C63.39 129.43 63.4277 128.581 63.5323 128.465ZM59.2104 70.1431C58.02 70.6319 58.0352 69.926 58.9237 69.8493C59.2511 69.8246 59.2494 70.1281 59.2104 70.1431ZM42.8661 104.724C42.9193 104.826 43.3734 106.105 43.2123 106.122C42.9079 105.684 42.454 104.073 42.8661 104.724ZM59.6258 70.213C58.8477 70.1437 60.1241 69.5261 61.184 69.9907C60.657 69.9671 59.6982 70.2189 59.6258 70.213ZM66.9264 100.045C66.572 100.528 66.1626 101.334 65.9239 101.863C65.676 102.413 65.555 102.798 65.4413 103.091C65.6171 103.165 65.7522 102.843 65.9707 102.301C66.1699 101.796 66.6263 100.69 66.9264 100.045ZM59.6299 126.36C60.4646 127.338 58.1908 125.853 58.6018 125.719C58.643 125.73 59.6031 126.328 59.6299 126.36ZM84.7155 89.5133C84.8333 88.6163 85.4622 91.3555 84.9796 90.6323C84.9611 90.5841 84.7112 89.5519 84.7155 89.5133ZM85.0648 101.214C85.1174 100.674 85.3337 98.4102 85.4764 99.3105C85.5173 99.456 85.2915 101.212 85.0648 101.214ZM27.4762 44.356C27.4645 44.9493 29.1316 42.9439 29.3336 42.6187C29.409 42.4919 27.4883 43.5852 27.4762 44.356ZM53.8775 71.3162C53.9178 71.2695 54.0537 71.1934 54.2611 71.0186C53.9344 71.2835 53.5375 71.6403 53.3503 71.6535C53.5681 71.4665 53.8778 71.1153 54.1389 70.8719C53.8126 71.1023 53.7477 71.1294 53.8775 71.3162ZM54.8892 122.392C55.5409 122.666 56.296 123.2 56.7495 123.651C57.119 124.022 57.2588 124.329 56.9175 124.374C56.7262 124.206 56.5848 124.072 56.48 123.964C55.6402 123.1 57.178 124.012 54.8892 122.392ZM64.3648 70.5303C63.7479 70.5605 63.2772 70.0387 63.3451 70.0131C64.0078 69.7699 64.9852 70.3282 64.3648 70.5303ZM42.2262 93.977C42.4271 94.0524 42.0862 95.2328 41.9794 95.0516C41.9311 94.989 42.0455 93.9132 42.2262 93.977ZM68.4894 115.02C68.9784 115.455 68.6437 114.857 67.9478 113.972C67.7214 113.649 67.3981 113.248 67.1566 113.109C66.8622 113.106 67.3508 113.788 67.7211 114.166C68.1476 114.644 68.4502 114.985 68.4894 115.02ZM74.5021 73.7724C74.3598 74.0626 72.3176 72.324 73.3305 72.7225C73.5844 72.8144 74.55 73.6626 74.5021 73.7724ZM84.3973 93.4557C84.5601 92.1684 84.9649 95.0018 85.0078 96.8891C85.028 97.6805 84.9323 98.1692 84.753 97.5556C84.7425 97.5206 84.7211 97.2634 84.6837 96.8991C84.5863 95.6195 84.3852 93.5772 84.3973 93.4557ZM83.6438 104.458C83.6817 104.195 82.6001 103.951 82.6203 105.124C82.6216 105.281 83.1398 104.748 83.1616 104.882C83.2114 104.939 82.3624 107.359 82.2403 107.498C82.1536 107.612 81.8984 107.309 81.8016 107.419C81.7053 107.534 81.2147 109.221 80.5964 110.408C80.2131 111.154 79.836 111.832 79.5123 112.432C79.3108 112.66 79.1702 112.643 79.1494 112.684C79.0584 112.858 79.0844 113.254 78.8973 113.527C78.5894 113.982 78.2665 114.245 78.1042 114.334C77.7898 114.621 75.4009 115.506 73.2584 116.138C72.5656 116.319 71.9914 116.502 71.5463 116.666C72.0431 116.524 72.633 116.372 73.2764 116.232C75.7432 115.66 77.6305 115.187 78.2838 114.838C78.109 114.708 78.1967 114.632 78.2953 114.612C78.465 114.601 79.0021 114.583 78.3547 114.498C78.4451 114.496 79.0867 114.208 79.881 112.601C81.5083 109.289 82.1749 108.212 82.772 106.822C83.3271 105.568 83.5984 104.701 83.6428 104.461C83.6431 104.46 83.6434 104.459 83.6438 104.458ZM67.9956 129.538C67.2032 129.009 70.0199 129.826 72.2004 130.982C72.7821 131.315 73.1175 131.571 73.1586 131.738C72.9981 131.692 72.6269 131.528 72.0752 131.262C70.2566 130.396 68.0693 129.591 67.9956 129.538ZM53.6798 119.062C53.381 118.703 53.5798 117.873 51.4914 116.485C51.4897 116.483 51.4881 116.482 51.4864 116.48C50.8735 116.072 51.3636 116.766 51.2213 116.724C51.169 116.712 49.2349 115.456 50.5915 116.772C52.647 118.769 51.1699 116.545 52.2985 117.562C52.4446 117.696 54.2519 119.88 54.0662 119.83C54.0477 119.828 53.4846 119.204 53.3558 119.137C52.8717 118.887 52.9047 119.232 52.8421 119.191C52.6881 119.084 50.6606 116.894 49.4693 115.92C49.6087 116.074 49.6595 116.189 49.6441 116.272C49.6355 116.3 49.5499 116.242 49.3247 116.079C50.6759 117.475 53.9679 120.67 54.142 120.754C54.2973 120.843 54.6754 120.31 54.8526 120.382C54.9445 120.428 56.8953 122.468 57.2182 122.66C57.3097 122.716 57.3839 122.755 57.4396 122.783C57.3523 122.758 57.3529 122.799 57.4121 122.88C57.6453 123.212 58.8462 124.157 58.9179 123.975C58.9431 123.885 57.6722 122.884 57.6143 122.851C57.5902 122.839 57.5671 122.831 57.5469 122.822C57.5892 122.826 57.5841 122.792 57.5416 122.729C57.1239 122.154 53.6253 119.007 54.7084 119.531C53.5319 118.203 54.5391 120.099 53.6798 119.062ZM50.6217 115.798C50.5906 115.881 50.5535 115.951 50.5098 116.01C50.4403 115.793 49.9916 114.895 48.8159 112.755C48.043 111.453 47.2138 109.952 46.4369 108.22C46.0823 107.428 46.8729 108.175 46.3022 107.172C45.844 106.364 45.0676 105.546 45.1943 106.055C45.2258 106.184 46.2264 107.84 46.5781 108.671C47.6153 111.11 47.007 110.612 47.0643 110.767C47.1279 110.93 48.0338 112.201 48.3994 112.892C48.4114 112.915 48.4232 112.938 48.4349 112.96C49.3008 114.63 49.5555 115.346 49.824 115.878C49.9461 116.128 50.0483 116.297 50.0914 116.326C50.1299 116.355 50.116 116.225 49.8515 115.854C50.2779 116.128 50.3859 116 50.5407 115.967C50.6094 115.943 50.6696 115.929 50.7013 115.921C50.7306 115.909 50.7362 115.918 50.6217 115.798ZM80.4929 81.536C80.3353 81.6969 81.0443 82.5928 81.2017 83.0473C81.3772 82.8665 80.6733 81.8873 80.4929 81.536ZM92.4781 37.986C92.4645 37.3547 94.7454 40.0417 93.9192 39.5079C93.7395 39.3741 92.7601 38.2917 92.4781 37.986ZM102.438 53.7882C102.627 54.3615 101.266 52.3717 101.511 52.231C101.598 52.1935 102.419 53.7189 102.438 53.7882ZM45.9201 88.537C45.9675 88.4409 46.4943 86.9148 46.4996 86.8591C46.5244 85.7228 44.7832 90.7209 45.9201 88.537ZM110.368 75.7307C110.131 73.7559 111.637 79.4865 110.911 77.8017C110.883 77.7202 110.386 75.8275 110.368 75.7307ZM111.878 83.5205C111.842 83.0994 111.4 81.1876 111.499 81.1363C111.681 81.0696 112.171 83.2708 111.878 83.5205ZM64.7739 71.9314C64.5338 72.3403 67.3523 72.0679 68.3496 72.1707C68.6049 71.7573 65.7328 71.9797 64.7739 71.9314ZM55.3514 73.0089C55.4777 72.9063 55.5928 72.8171 55.6953 72.7409C54.8835 73.4294 54.6365 73.4453 54.7719 73.4142C54.8981 73.3682 55.3129 73.2342 55.7224 73.1132C56.5751 72.8631 57.3135 72.625 57.1227 72.6057C56.9802 72.5788 56.0296 72.7344 55.2945 72.9002C54.933 72.9805 54.6309 73.0753 54.6009 73.0908C54.5625 73.0995 54.8582 73.0328 55.5185 72.5286C55.349 72.6864 55.1498 72.8849 54.9295 73.1245C55.1072 73.3265 55.0451 73.2614 55.3514 73.0089ZM62.2834 72.2068C61.8682 71.9466 60.6167 72.0681 59.8628 72.1441C59.9934 72.3149 61.6452 72.1661 62.2834 72.2068ZM88.485 34.4473C88.5764 34.7894 89.2091 35.4551 89.9417 36.1538C90.659 36.8362 91.469 37.5026 91.226 37.1381C91.1615 37.0501 90.2862 36.0988 89.6445 35.4348C88.9857 34.7532 88.4759 34.3017 88.485 34.4473ZM46.6254 87.7336C46.8846 88.1476 48.1337 84.724 48.1746 84.4375C48.2847 83.2564 46.7977 87.4949 46.6254 87.7336ZM73.4151 75.3193C73.64 75.8939 74.9283 76.7458 75.6566 77.407C75.5152 76.9018 74.0759 75.8193 73.4151 75.3193ZM68.5529 72.4308C68.556 72.4389 68.652 72.4751 68.8183 72.5488C68.9792 72.6192 69.1893 72.7202 69.2099 72.7232C69.62 72.7726 69.2006 72.4686 68.8947 72.336C68.5765 72.1977 68.4924 72.265 68.5529 72.4308ZM25.7072 50.6605C25.7518 50.6238 26.6063 49.614 26.6289 49.571C27.176 48.48 24.6135 51.5125 25.7072 50.6605Z" fill="#615FE0"/>
</svg>
