<svg width="120" height="124" viewBox="0 0 120 124" fill="none" xmlns="http://www.w3.org/2000/svg">
<path d="M8.91237 33.8681C9.17296 35.5726 9.4614 37.4594 9.76623 39.4134C10.3319 42.9241 11.1125 46.7905 11.7133 49.9614C12.008 51.4943 11.6856 50.7552 11.883 51.8152C12.1087 53.0242 12.3727 54.177 12.6253 55.3403C12.8046 56.1667 12.9796 56.9842 13.1387 57.8305C13.2648 58.5034 12.8311 57.7281 12.9697 58.4328C13.2984 60.0867 13.677 61.7692 14.0046 63.431C14.4403 65.6074 14.8727 67.7862 15.2576 70.0571C15.7787 73.2584 16.3215 76.1881 16.6289 79.7334C16.7953 84.8492 17.004 89.9682 17.167 95.1004C17.2979 99.0318 17.6554 103.094 17.7619 107.181C17.8376 109.921 18.1389 112.663 18.3854 115.553C18.4407 116.264 18.5391 116.961 18.698 117.591C18.7771 117.905 18.8731 118.203 18.9778 118.444C19.0615 118.673 19.2633 118.905 19.1257 118.767C19.0532 118.696 18.8459 118.665 18.9004 118.676C18.9396 118.68 19.1352 118.643 19.3575 118.561C19.8157 118.396 20.3944 118.099 20.9883 117.793C22.1839 117.176 23.5141 116.488 25.0345 116.063C25.397 115.962 25.7643 115.865 26.1281 115.772C30.9476 114.561 36.5295 113.708 41.8851 113.03C43.8601 112.781 45.8044 112.607 47.6521 112.466C48.4573 112.405 47.9637 112.214 48.1159 112.186C50.503 111.775 49.7276 112.268 51.283 112.25C52.3375 112.238 53.4025 112.217 54.4719 112.167C59.6876 111.906 65.1302 111.891 69.8425 111.281C69.9374 111.269 70.0326 111.257 70.1282 111.245C72.6208 110.919 70.0655 110.778 72.6073 110.722C72.7841 110.717 72.1783 111.027 72.8669 110.968C74.427 110.836 77.3686 110.407 78.5739 110.259C80.8957 109.977 81.2823 109.92 83.4688 109.601C83.9822 109.525 84.5126 109.449 85.0514 109.371C87.4657 109.016 90.1493 108.739 92.3883 108.058C92.6094 107.988 92.8283 107.922 93.0445 107.858C93.7295 107.657 92.7566 107.67 93.8412 107.338C94.7913 107.053 96.9884 106.517 98.0306 106.122C98.2337 106.049 98.4048 105.994 98.538 105.954C99.5015 105.671 99.1485 105.997 99.3281 105.978C99.7184 105.948 100.214 105.776 100.395 105.574C101.031 105.029 100.545 103.242 100.496 103.007C100.236 101.473 99.7309 99.874 99.4188 98.1728C98.7437 94.3468 97.6384 90.8895 96.401 87.2325C95.8217 85.4082 95.2824 83.6267 94.6871 81.7941C93.6312 78.5293 92.4843 75.1525 91.3519 71.8575C90.5953 69.6938 89.9524 67.442 89.4808 65.363C89.364 64.8668 89.2514 64.384 89.1377 63.9014C88.0592 59.3601 87.4297 55.1289 86.7951 50.8053C86.6124 49.7086 86.4151 48.6041 86.1956 47.4764C86.0696 46.8317 85.9376 47.6404 85.7823 46.8563C85.1804 43.6521 84.2981 40.5812 83.8324 37.1242C83.4206 33.8256 83.2572 30.5379 82.8971 27.37C82.6726 25.2787 82.6505 23.3112 82.5975 21.323C82.578 20.469 82.8764 21.5571 82.8717 20.7034C82.8594 19.2081 82.8681 17.464 82.7655 15.6962C82.6512 13.7899 82.323 11.8115 81.788 10.0968C81.7482 9.89863 81.5008 9.74606 81.6452 9.83687C81.1687 9.74807 80.4243 10.2464 79.826 10.7059C79.2188 11.1771 78.6886 11.6544 78.3032 12.0779C77.2625 12.6456 76.1071 13.2006 74.9051 13.6716C72.4105 14.6659 69.697 15.3579 67.4933 15.5949C65.4034 15.7984 67.3654 15.232 64.8589 15.6928C64.2938 15.7876 65.0619 15.9345 64.211 16.056C64.0537 16.078 63.8952 16.0995 63.7374 16.1204C60.3794 16.5771 56.6953 17.122 53.3575 17.711C52.6467 17.8378 52.871 18.0202 52.6738 18.0866C52.0631 18.2873 51.2817 18.3972 50.5064 18.4535C49.191 18.547 47.9139 18.5237 47.5227 18.5613C43.9693 18.8581 41.4476 19.6274 38.1678 20.1764C37.1882 20.2875 36.1903 20.4367 35.1262 20.6127C34.1286 20.7799 35.3557 20.86 34.3973 21.0335C32.4573 21.3896 30.4159 21.7777 28.3304 21.9656C25.2394 22.2455 22.2509 22.7211 19.4092 23.555C18.3621 23.8579 19.2433 23.3214 18.7379 23.4562C17.6943 23.741 17.054 24.036 16.4408 24.3173C15.6888 24.6535 14.9454 24.937 13.7134 25.0776C13.2302 25.1318 13.4698 24.884 13.379 24.8749C11.9626 24.7111 10.9575 25.4082 10.6739 25.5035C10.5838 25.5297 10.4955 25.5563 10.4094 25.5835C9.7612 25.7859 9.15128 25.9838 8.54257 26.1711C8.23793 26.2643 7.93583 26.355 7.61191 26.4389C7.25637 26.5112 7.04314 26.6389 6.30656 26.5987C6.16412 26.5781 6.03499 26.5587 5.82389 26.4779C5.63921 26.4045 5.26382 26.217 5.07079 25.7621C4.88814 25.2917 5.00341 24.9755 5.06118 24.7974C5.13131 24.6092 5.20859 24.4884 5.27059 24.395C5.53803 24.0135 5.76978 23.8102 6.00281 23.5893C6.46619 23.1652 6.92867 22.7943 7.38952 22.4172C8.31543 21.6634 9.26232 20.8842 10.2576 19.9354C10.6227 19.5853 9.60987 20.1647 10.6413 19.1936C11.2034 18.6607 11.7613 18.1198 12.3132 17.5693C13.9698 15.7907 16.5686 14.9064 18.7052 14.5269C22.7678 13.6853 26.8398 12.8964 30.7951 11.9165C33.3247 11.2903 35.8464 10.7586 38.3352 10.302C39.7848 10.0396 38.7938 10.4432 38.8897 10.4484C40.4417 10.5229 41.3044 9.84774 41.7754 9.74245C43.3529 9.39727 44.9159 9.18758 46.3828 9.01996C48.2934 8.80045 50.0297 8.41283 51.3817 7.76384C52.7463 7.48413 54.1123 7.18617 55.4831 6.88987C58.5746 6.21924 61.6575 5.50825 64.7025 4.72029C68.1932 3.81123 71.6955 2.92466 75.2096 2.11097C77.4838 1.57711 79.7797 1.20732 81.9663 0.718446C83.8793 0.283161 85.7883 0.183994 87.5875 0.0143858C87.7997 0.0154757 88.0704 -0.0930319 88.6 0.268924C88.8531 0.46148 88.9936 0.795804 89.0153 1.01218C89.0413 1.2192 89.0182 1.36581 88.9947 1.48729C88.8901 1.93041 88.7487 2.14613 88.6172 2.3886C88.35 2.84801 88.0692 3.23741 87.7909 3.62167C87.2365 4.38445 86.6522 5.11775 86.1942 5.82767C85.5154 6.94853 84.4405 8.15789 83.7009 8.86752C83.6662 8.91661 83.639 8.95444 83.6088 8.99675C83.6041 9.00304 83.5915 9.02111 83.5857 9.02909C83.5821 9.03415 83.581 9.03545 83.5754 9.04349C83.5747 9.04447 83.5743 9.04505 83.5752 9.04355C83.5758 9.04262 83.5763 9.0417 83.5794 9.0369C83.5812 9.03402 83.5827 9.0317 83.5899 9.01969C83.5953 9.00769 83.592 9.02596 83.6369 8.92538C83.6434 8.87476 83.6944 8.90115 83.6845 8.57316C83.6727 8.48476 83.6439 8.33328 83.5 8.17483C83.3587 8.01309 83.1115 7.93961 82.9694 7.94874C82.6781 7.97081 82.6316 8.04846 82.5764 8.07542C82.4258 8.19282 82.4563 8.18672 82.4343 8.20636C82.3595 8.30534 82.4074 8.24275 82.4001 8.25177C82.4112 8.23686 82.4288 8.21226 82.4441 8.19098C82.5062 8.10462 82.5651 8.02322 82.6288 7.93476C82.7505 7.76635 82.874 7.59576 82.9977 7.42556C83.1145 7.26395 83.1212 7.7028 83.356 7.37616C84.4284 5.88736 84.9821 5.04794 85.342 4.41781C86.0013 3.39454 86.0192 2.76167 87.7554 1.33789C87.9219 1.20526 88.2193 1.06038 88.4648 0.953591C89.604 0.385502 90.5021 1.04283 90.8896 1.71288C91.2689 2.50651 91.306 3.18938 91.3278 3.29905C91.4217 4.15675 90.8154 3.4234 90.8651 3.69936C91.1397 5.84956 92.1884 5.45081 92.5743 8.28698C92.5853 8.3751 92.3058 8.0408 92.318 8.27935C92.3376 8.65385 92.4071 9.01466 92.4916 9.35949C92.579 9.71706 92.6716 10.0722 92.7289 10.4361C93.0082 12.109 92.6063 12.9005 93.8284 15.2517C93.9942 15.5422 94.4406 14.8456 95.3815 17.2566C95.4836 17.5108 95.6845 17.9952 95.9469 18.578C96.7697 20.3343 97.4831 23.0861 97.6684 24.037C97.9272 25.3332 97.499 24.5012 97.5115 24.5955C97.6367 25.4618 97.695 26.0341 97.7218 26.4327C97.8121 27.6356 97.5612 27.2585 97.5834 28.627C97.6404 30.446 98.5216 29.6779 98.8358 30.3297C99.1531 30.9787 99.6645 33.522 99.7496 34.1567C99.8402 34.7901 99.4869 34.0697 99.5929 34.6236C99.6839 35.099 99.7635 35.4754 99.8368 35.7746C100.303 37.7903 100.588 36.2298 100.979 37.2476C101.924 39.7534 101.629 41.945 102.14 44.1745C102.203 44.423 102.263 44.6736 102.322 44.9272C102.477 45.6456 102.514 45.0196 102.669 45.6608C103.152 47.8912 102.921 49.3643 103.398 51.5141C103.469 51.8311 103.553 52.1633 103.651 52.5148C103.769 52.9703 104.711 55.1231 104.72 56.6652C104.719 56.8841 104.394 56.3372 104.593 57.3973C104.694 57.9325 104.831 58.6112 104.98 59.3416C105.272 60.7805 105.574 62.4081 105.864 63.513C106.19 64.7425 106.176 63.2541 106.442 64.8277C106.568 65.527 106.07 64.2938 106.326 65.6053C106.415 66.045 106.575 66.7064 106.78 67.4366C107.188 68.8856 107.672 70.6107 107.895 71.4462C108.232 72.7048 108.285 71.9528 108.328 72.0514C108.587 72.6415 109.281 75.0539 109.323 75.2724C109.594 76.4634 109.836 77.6444 110.076 78.815C110.665 81.6615 111.402 84.4594 112.072 87.2559C112.727 89.8998 113.287 92.6004 114.248 95.0268C114.953 96.6752 115.474 98.3768 115.83 100.138C115.842 100.206 115.851 100.246 115.86 100.337C115.857 100.382 115.89 100.395 115.833 100.611C115.808 100.689 115.717 100.871 115.49 100.933C115.261 100.986 115.134 100.896 115.075 100.86C115.006 100.811 114.981 100.78 114.954 100.75C114.827 100.588 114.802 100.52 114.744 100.421C114.643 100.237 114.553 100.06 114.463 99.8831C114.283 99.5281 114.108 99.1795 113.927 98.8347C113.567 98.1605 113.176 97.418 112.743 96.9563C112.589 96.8261 112.61 96.8481 112.524 96.872C112.424 96.9106 112.247 97.0755 112.102 97.2648C111.661 97.8834 112.172 97.6195 112.107 97.7152C110.822 100.127 111.308 97.9169 110.155 99.5743C110.623 99.5557 110.402 100.304 109.393 101.607C109.213 101.809 109.022 102.032 108.826 102.277C108.229 103.039 108.723 102.761 108.682 102.842C108.033 104.139 107.115 104.738 106.885 104.894C106.627 105.077 106.411 105.303 106.215 105.539C105.753 106.104 105.222 106.629 104.722 106.74C104.02 106.865 105.278 105.968 103.492 106.773C103.294 106.972 103.538 107.012 103.684 107.106C103.762 107.15 103.825 107.201 103.817 107.27C103.815 107.304 103.792 107.344 103.758 107.387C103.743 107.408 103.723 107.431 103.719 107.445C103.716 107.442 103.733 107.521 103.874 107.276C103.855 107.347 103.832 107.432 103.83 107.46C103.829 107.449 103.841 107.505 103.842 107.331C103.837 107.278 103.831 107.195 103.765 107.071C103.75 107.034 103.638 106.879 103.508 106.816C103.375 106.742 103.232 106.729 103.139 106.739C102.924 106.774 102.965 106.785 102.912 106.803C102.879 106.82 102.859 106.833 102.846 106.842C102.782 106.89 102.831 106.846 102.85 106.818C102.9 106.753 102.964 106.664 103.028 106.572C103.155 106.39 103.288 106.191 103.423 105.987C103.697 105.576 103.985 105.14 104.289 104.688C104.909 103.78 105.533 102.824 106.383 101.827C107.306 100.813 107.995 99.5319 109.01 98.2516C109.073 98.1769 109.113 98.1288 109.201 98.0395C109.241 98.0056 109.275 97.9511 109.447 97.8497C109.523 97.8128 109.633 97.7459 109.867 97.7564C109.947 97.7512 110.219 97.8339 110.338 97.9741C110.472 98.1124 110.514 98.2503 110.534 98.341C110.569 98.5467 110.54 98.6129 110.533 98.6727C110.459 98.9797 110.397 99.0681 110.333 99.2187C110.203 99.499 110.073 99.7471 109.939 99.9978C109.674 100.494 109.4 100.973 109.126 101.438C108.574 102.368 108.045 103.238 107.451 104.04C106.623 105.141 105.66 105.967 104.814 106.464C104.201 106.83 103.606 107.075 103.054 107.251C99.9569 108.162 98.5481 108.307 96.2923 108.508C95.6271 108.555 95.0883 108.585 94.6454 108.61C91.9505 108.795 92.8951 109.004 90.4214 109.416C87.563 109.961 88.8326 108.909 88.3855 108.775C87.9417 108.653 87.5245 108.922 86.9945 108.922C86.51 108.923 87.3694 108.627 86.5973 108.737C86.5276 108.747 86.4404 108.762 86.3393 108.779C85.1699 109.005 81.924 109.773 81.5167 110.018C80.6917 110.529 82.1026 110.794 79.2954 111.012C79.1999 111.019 79.0983 111.027 78.9919 111.035C78.8093 111.049 79.3696 110.742 78.6713 110.808C76.8321 110.991 74.9657 111.284 73.086 111.56C70.0802 112.022 67.0578 112.708 64.0693 113.27C63.318 113.408 62.5723 113.51 61.8314 113.618C61.0648 113.728 61.7052 113.354 61.2545 113.416C56.6118 114.056 58.3307 114.202 55.8992 115.141C56.3474 114.403 54.8785 114.256 51.3795 114.943C49.8305 115.25 49.6562 115.445 49.1358 115.715C48.949 115.811 48.7202 115.917 48.3816 116.041C47.9801 116.185 46.4667 116.303 46.2239 116.49C45.4304 117.104 46.9204 117.278 43.3012 117.859C43.142 117.884 43.5919 117.543 43.0466 117.646C39.514 118.316 39.2112 118.879 35.399 119.739C34.7001 119.893 33.8664 120.051 32.9534 120.197C30.5921 120.591 27.7057 120.788 25.3303 121.003C24.667 121.066 24.04 121.117 23.4615 121.159C23.4605 120.445 20.2466 120.834 18.8377 121.191C18.6301 121.175 18.4205 121.156 18.2092 121.132C18.06 121.105 17.8404 121.108 17.5729 120.818C17.4467 120.673 17.3866 120.456 17.3924 120.304C17.3953 120.149 17.4323 120.039 17.4692 119.949C17.6277 119.609 17.81 119.456 18.0346 119.295C19.7616 118.189 21.6896 118.185 23.279 117.963C24.0075 117.872 23.5658 118.155 23.6608 118.163C23.9251 118.184 24.1707 118.177 24.3969 118.148C25.4423 118.015 26.1223 117.595 26.5208 117.526C28.2438 117.238 29.8633 117.143 31.3697 116.871C32.242 116.708 33.1596 116.722 33.6378 116.408C33.6559 116.381 33.5727 116.499 33.5914 116.548C33.6008 116.585 33.5853 116.522 33.5412 116.463C33.4534 116.335 33.3028 116.184 33.1479 116.042C32.8322 115.752 32.475 115.48 32.1152 115.133C30.8733 113.871 30.9134 112.101 30.9326 110.564C30.9397 110.388 30.4554 110.003 31.0272 108.712C31.0655 108.632 31.0397 110.31 31.4186 107.972C31.5544 107.048 31.8556 105.784 31.7529 104.489C31.5234 102.446 30.8786 100.121 30.2657 98.2456C30.0171 97.4935 29.1075 95.6176 29.1544 93.9234C29.1624 93.7014 29.3427 93.9131 29.3737 93.589C29.4218 93.0951 29.328 92.7299 29.2557 92.3407C29.1765 91.9124 29.1097 91.472 29.2952 90.8356C29.6466 89.6266 29.8259 87.1846 29.4368 83.8879C29.4249 83.7837 28.9985 83.0103 28.9765 81.9711C28.9478 80.6652 28.9541 78.9285 28.8604 77.4059C28.8352 76.9912 28.8065 76.5925 28.7749 76.2226C28.7031 75.395 28.4976 75.9464 28.4808 75.8031C28.1641 72.9803 27.9188 70.5618 27.8218 68.0665C27.7461 65.9253 27.4158 63.7432 27.022 61.2089C26.9792 60.9322 26.932 60.6519 26.8806 60.3676C26.716 59.2797 25.5711 56.3234 25.3758 54.1768C25.3608 54.0007 25.3578 53.8496 25.3641 53.7193C25.4949 52.1027 26.6193 53.5708 25.8194 48.8253C25.5742 47.1029 24.392 44.9682 24.4535 42.0529C24.4664 41.4488 24.5416 40.8138 24.6987 40.1507C24.7152 35.8781 25.2261 31.7925 25.3733 27.6566C25.3751 27.6116 25.377 27.5857 25.381 27.5563C25.3802 27.5496 25.3929 27.5208 25.3733 27.5723C25.3661 27.5868 25.3551 27.6106 25.3208 27.6425C25.2962 27.6929 25.0861 27.7276 25.0334 27.6714C24.9367 27.5976 24.9736 27.6126 24.9602 27.6009C24.9618 27.6016 24.9964 27.7109 25.0104 27.7717C25.0476 27.9208 25.0807 28.0822 25.1114 28.2373C25.1736 28.554 25.2302 28.8749 25.2856 29.196C25.3962 29.8402 25.5009 30.4859 25.6066 31.1355C25.8175 32.4342 26.0307 33.7435 26.2607 35.0658C26.3546 35.6072 26.4548 36.1394 26.563 36.6665C26.6321 37.0123 27.2432 37.9837 27.3928 38.763C27.615 39.9265 27.5616 40.6005 27.7541 41.4256C28.273 43.8127 29.2681 45.8709 30.2138 47.9877C30.5862 48.9831 30.865 50.0066 31.123 51.0523C31.4274 52.316 31.1144 51.9251 31.4616 53.4341C31.8054 54.9408 32.3057 55.8856 32.6588 57.9572C32.7967 58.7667 32.8157 59.6059 32.8665 60.5149C32.9129 61.3587 32.9677 62.2514 33.1302 63.235C33.6828 63.2055 34.017 64.6072 34.4036 67.1451C34.475 67.6353 34.6239 67.0903 34.6675 67.3217C34.8482 68.2664 34.727 69.159 34.8789 70.0532C34.9155 70.2711 35.1073 70.2721 35.1482 70.4493C35.1968 70.6554 35.2333 70.8786 35.2607 71.1148C35.4528 72.5596 35.2981 74.5411 35.2436 74.9123C35.0559 76.5847 35.3288 77.3411 35.2585 78.6165C35.1833 79.8826 34.989 77.9976 34.9625 79.4793C34.9234 81.4962 34.9361 83.8905 34.9438 86.1929C34.9486 87.3734 34.9014 88.5212 34.8183 89.5747C34.7159 90.8061 35.0389 89.988 35.0302 90.1647C34.8619 92.728 34.2305 95.284 34.6402 96.7452C34.452 96.9602 34.3138 97.145 34.2138 97.3158C33.5538 98.4688 34.552 98.7638 34.26 101.943C34.2372 102.222 33.6073 102.604 33.5312 101.475C33.4602 100.393 33.705 98.7935 33.7004 97.2792C33.7002 97.2215 33.6996 97.1641 33.6987 97.107C33.6825 96.7406 33.3104 94.573 33.3137 94.2835C33.2972 92.0176 34.255 91.828 34.3187 91.7118C35.0321 90.4405 34.5668 87.8547 34.5162 87.2053C34.5005 86.8608 34.4845 86.5284 34.4678 86.1955C34.336 83.5565 34.3937 81.2436 34.2027 78.9742C34.0586 77.2989 33.4424 77.1702 33.3974 75.8631C33.3316 73.9337 33.3609 72.6118 33.4059 71.2151C33.4736 69.5633 33.5458 68.0663 32.8624 65.9227C32.573 65.0924 32.1156 66.0468 32.0498 62.9497C32.0459 62.8238 32.0433 61.813 31.8483 60.7664C31.7382 60.1742 31.5843 59.5765 31.3651 59.1266C31.2876 58.9677 31.1001 59.0182 31.0316 58.8019C30.5753 57.3449 30.4972 56.3203 30.0501 54.7337C29.6004 53.1537 29.0515 51.2358 28.6112 49.5267C28.5361 49.2398 28.4747 48.928 28.4204 48.6337C28.3029 47.9475 28.078 47.0197 27.9842 46.6299C27.5658 45.0713 26.651 43.5404 26.6924 42.5044C26.746 41.4805 27.6607 43.1954 27.2458 40.6841C26.7337 40.7093 26.1812 40.616 25.6517 40.572C25.2628 38.7985 24.9835 37.0536 24.7471 35.2888C24.5739 33.9876 24.3982 32.6858 24.2102 31.3918C24.1158 30.7443 24.0187 30.0989 23.9137 29.4623C23.8613 29.1455 23.8067 28.8286 23.7488 28.5295C23.7211 28.3865 23.6887 28.2309 23.6635 28.1286C23.6578 28.1051 23.6518 28.0831 23.6509 28.0792C23.6591 28.0896 23.6233 28.0404 23.7339 28.2631C23.7548 28.3015 23.7823 28.3493 23.8274 28.4135C23.85 28.4457 23.8773 28.482 23.9123 28.5234C23.9298 28.5442 23.9493 28.5662 23.9714 28.5896C23.9825 28.6013 23.9942 28.6133 24.0066 28.6257C24.0333 28.6522 24.0661 28.6828 24.1027 28.7138C24.2479 28.8341 24.4881 29.0053 24.8815 29.0756C25.2705 29.1537 25.7673 29.0321 26.0504 28.8342C26.2225 28.7168 26.2358 28.6934 26.3018 28.6328C26.3566 28.5792 26.4017 28.5277 26.4398 28.4797C26.5158 28.3833 26.5647 28.3011 26.6015 28.2319C26.7392 27.9543 26.7344 27.8683 26.7462 27.836C26.7556 27.7917 26.7598 27.7622 26.7627 27.7406C26.7714 27.6651 26.7669 27.6862 26.7669 27.6981C26.7258 28.8181 26.6738 29.9342 26.6176 31.0548C26.5828 31.744 26.8931 31.0549 26.8614 31.7954C26.7274 34.923 26.2838 37.6052 26.2988 40.7247C26.3023 41.157 26.3179 41.5951 26.3447 42.0363C26.4686 44.1212 26.7262 46.2954 26.9428 48.3326C26.6323 49.3946 26.7919 51.3405 27.2166 53.3488C27.4072 54.3006 27.6649 55.2862 27.8711 56.1864C28.0914 57.1462 27.9272 57.1218 28.0451 57.8235C28.4708 60.4954 28.6783 59.16 28.9152 59.8779C29.0233 60.2245 29.1021 60.5424 29.1583 60.8371C29.5655 63.0652 28.8639 63.7666 29.2394 67.1036C29.2459 67.175 29.3556 67.524 29.4842 67.968C29.7126 68.7166 30.0589 69.7317 30.1009 69.9361C30.5248 71.9539 29.9144 70.2903 29.9837 71.5762C30.0974 73.607 30.1343 75.1217 30.3842 77.2915C30.4241 77.6444 30.4665 78.0138 30.5128 78.4043C30.6168 79.2296 31.0643 81.1911 30.8076 82.7668C30.7745 82.9755 30.568 82.8657 30.5606 83.0321C30.4474 86.0435 31.0947 86.0955 31.3866 87.7845C31.6265 89.1651 31.4956 91.1788 31.4053 92.171C31.382 92.3585 31.3653 92.5143 31.352 92.6021C31.246 93.4681 31.1487 92.7678 31.124 92.1932C31.1082 91.8533 31.1008 91.5523 31.0877 91.5251C30.8258 91.0193 30.7854 91.4652 30.818 92.2173C30.8357 92.6992 30.929 93.3466 31.0201 93.9278C30.4232 94.2354 30.8969 96.2355 31.2836 95.3904C31.3213 95.294 31.0363 94.2131 31.0201 93.9278C31.8313 95.0398 32.4333 97.1364 32.5222 99.7386C32.5395 100.97 32.0311 99.8944 32.9095 103.468C32.9912 103.849 33.0628 104.118 33.1321 104.309C33.3436 105.026 33.6422 104.915 33.6607 106.164C33.6355 108.987 32.3712 112.762 33.448 113.791C33.7707 114.134 34.2953 114.48 34.9047 115.142C35.2214 115.479 35.5282 116.064 35.533 116.538C35.5353 116.988 35.5272 116.984 35.5947 116.855C35.6522 116.729 35.6885 116.517 35.709 116.653C35.7147 116.719 35.7294 116.894 35.6253 117.216C35.5293 117.538 35.219 117.972 34.8803 118.197C34.8627 118.209 34.8446 118.222 34.8258 118.235C33.1667 119.151 32.4333 118.86 31.7798 119.034C30.3823 119.267 29.0843 119.321 27.7609 119.526C27.5662 119.557 28.0695 119.748 27.402 119.828C26.4981 119.939 25.6466 120.064 24.8242 120.229C22.5117 120.67 20.3915 120.684 19.4203 121.348C19.5239 121.253 19.5525 121.3 19.7445 120.913C19.7885 120.802 19.8524 120.642 19.8615 120.347C19.8778 120.063 19.7581 119.576 19.4838 119.256C18.8936 118.625 18.578 118.721 18.4691 118.68C19.9378 118.854 21.5972 118.822 23.3386 118.673C23.8338 118.631 24.4037 118.567 25.0241 118.484C27.4237 118.174 30.3427 117.778 32.4457 117.381C32.711 117.333 32.9623 117.288 33.1986 117.246C37.7728 116.399 43.6396 115.376 47.6042 114.492C48.1347 114.37 48.51 114.274 48.8216 114.185C50.0291 113.838 49.8028 113.696 50.6764 113.383C52.7778 112.624 56.7334 112.486 57.2657 112.486C57.2816 112.485 55.0371 112.956 56.2607 112.86C57.011 112.992 57.2415 112.492 57.2657 112.486C57.614 112.475 62.1552 111.749 63.0036 111.548C63.4651 111.436 63.1653 111.254 63.3971 111.2C63.4725 111.182 63.5511 111.163 63.6124 111.147C66.5887 110.414 69.5051 109.644 72.6745 109.07C74.7054 108.72 76.7704 108.34 78.953 108.099C79.8486 108.003 80.7389 107.911 81.6247 107.816C81.7319 107.807 81.6039 108.087 81.8561 108.063C83.6163 107.897 85.0433 107.636 86.2817 107.279C87.7347 106.88 89.0557 106.57 90.564 106.3C92.0049 106.047 93.3119 105.909 94.4896 105.881C95.6594 105.857 96.6815 105.877 97.5742 105.991C99.003 105.759 100.862 105.478 102.353 105.088C102.959 104.938 103.472 104.724 103.871 104.504C105.128 103.742 104.824 103.109 104.91 103.037C105.045 102.85 105.174 102.66 105.297 102.466C105.788 101.661 106.325 100.665 106.79 99.8179C107.026 99.3842 107.256 98.9595 107.465 98.5554C107.569 98.3562 107.673 98.1487 107.737 98.0082C107.752 97.9758 107.765 97.9461 107.765 97.9491C107.764 97.9551 107.763 97.9543 107.748 98.0108C107.745 98.1048 107.672 98.0171 107.697 98.7139C107.711 98.7186 107.704 99.5975 108.605 100.241C108.819 100.391 109.069 100.499 109.303 100.556C109.525 100.608 109.642 100.615 109.79 100.618C110.07 100.621 110.28 100.573 110.439 100.524C111.083 100.277 110.981 100.245 111.094 100.182C111.236 100.065 111.231 100.057 111.252 100.037C111.277 100.009 111.257 100.027 111.234 100.053C110.576 100.814 109.783 102.241 108.482 103.682C108.245 103.937 107.927 104.347 107.621 104.76C107.256 105.252 106.807 105.897 106.305 106.627C106.052 106.994 105.793 107.374 105.5 107.787C105.352 107.996 105.213 108.194 105 108.461C104.944 108.529 104.884 108.604 104.787 108.707C104.745 108.752 104.659 108.843 104.535 108.945C104.456 109.005 104.318 109.134 103.981 109.277C103.937 109.275 103.267 109.669 102.291 109.221C102.066 109.11 101.859 108.952 101.701 108.782C101.623 108.698 101.551 108.605 101.5 108.528C101.463 108.474 101.431 108.421 101.403 108.369C101.289 108.16 101.233 107.978 101.2 107.83C101.136 107.533 101.146 107.354 101.154 107.216C101.16 107.129 101.167 107.082 101.175 107.028C101.191 106.926 101.209 106.85 101.226 106.783C101.252 106.681 101.271 106.624 101.293 106.556C101.336 106.43 101.36 106.367 101.397 106.273C101.661 105.672 101.932 105.498 102.094 105.356C102.252 105.233 102.361 105.171 102.448 105.122C102.618 105.028 102.714 104.986 102.801 104.947C102.971 104.871 103.078 104.826 103.18 104.779C103.379 104.688 103.528 104.609 103.663 104.523C103.928 104.354 104.12 104.172 104.282 103.961C104.657 103.482 105.005 103 105.317 102.571C106.074 101.521 106.764 100.695 107.527 99.8875C107.684 99.7398 108.026 99.1895 108.334 98.5395C108.444 98.3112 108.123 98.4304 108.151 98.3581C108.936 96.2867 108.951 97.4571 109.259 97.0958C109.648 96.6452 109.987 96.2399 110.509 95.7384C110.79 95.4944 111.063 95.1785 111.799 94.9022C112.162 94.7711 112.722 94.7229 113.19 94.8817C113.672 95.0407 113.958 95.2865 114.188 95.5193C114.926 96.3643 115.241 97.0288 115.813 97.9573C115.924 98.1426 116.163 98.4117 116.448 98.7109C116.59 98.8587 116.747 99.0205 116.892 99.147C116.956 99.1985 117.059 99.2983 117.024 99.1836C116.972 99.1251 117.078 99.1272 116.599 98.7247C116.437 98.6285 115.783 98.0672 114.603 98.4603C114.083 98.6535 113.724 99.0382 113.55 99.322C113.37 99.6136 113.314 99.8268 113.277 99.9816C113.209 100.297 113.222 100.408 113.218 100.501C113.216 100.711 113.205 100.671 113.185 100.669C112.959 100.251 112.74 99.8304 112.625 99.4673C112.185 98.1535 112.619 98.5578 112.062 97.2102C112.01 97.099 111.866 97.1739 111.53 96.3686C111.515 96.3326 111.499 96.2967 111.484 96.2609C110.309 93.3445 109.808 90.7452 109.11 88.0154C108.627 86.0489 108.104 84.0518 107.611 82.0633C107.452 81.4149 107.38 82.3147 107.148 81.3746C107 80.77 106.856 80.1524 106.72 79.5179C105.933 75.6737 105.006 71.8526 104.058 68.2637C104.055 68.2539 104.053 68.2443 104.051 68.2348C103.789 67.1958 104.164 67.8003 104.154 67.5552C104.087 66.0447 103.138 64.1405 103.06 63.8072C102.722 62.44 102.458 61.1481 102.187 59.9649C101.578 57.3095 100.984 54.7418 100.541 52.0224C100.109 49.3503 100.217 46.9469 99.5331 45.042C99.202 44.0637 98.9825 43.1677 98.7544 42.2554C98.6279 41.793 97.4385 38.5982 97.5507 37.1376C97.5536 37.0938 97.5805 36.7946 97.5535 36.3832C97.5126 35.8164 97.3745 35.035 96.9874 34.3791C96.9445 34.3083 96.9636 35.2516 96.5394 33.7182C96.122 32.1838 95.1393 29.7408 94.8623 27.3169C94.854 27.2427 94.8474 27.1583 94.8418 27.0643C94.7999 26.2582 94.8427 24.674 94.0236 23.043C93.9774 22.9394 92.903 21.2433 92.4719 20.1537C92.3296 19.7911 92.2509 19.4568 92.2648 19.182C92.2862 18.9579 92.9079 18.9121 91.6693 16.6141C91.4362 16.1706 91.6175 17.0687 91.0807 15.8681C90.3951 14.3112 89.8113 12.2452 89.1785 10.1324C89.0457 9.67226 88.9353 9.23432 88.8277 8.81881C88.6871 8.35126 88.0949 6.49279 88.2277 5.34004C88.2451 5.15761 88.5197 5.44278 88.4254 4.86125C88.3307 4.30283 88.1688 3.86183 88.0348 3.66396C88.2628 3.97606 88.4527 4.11237 88.7825 4.2417C89.0827 4.36044 89.7547 4.44225 90.3797 4.05185C89.499 4.56363 89.203 4.71592 88.7958 5.04665C88.4178 5.35352 88.0794 5.71865 87.7578 6.15576C87.1979 6.9248 86.6091 7.75752 86.0176 8.55523C85.6404 9.06552 85.4703 9.1428 85.2952 9.21751C85.2059 9.25745 85.1156 9.29679 84.9975 9.39028C84.9363 9.44021 84.8706 9.50016 84.7926 9.5834C84.7541 9.62439 84.7144 9.66839 84.6676 9.72446C84.6567 9.73715 84.65 9.74401 84.625 9.77772C84.619 9.78596 84.6263 9.77641 84.5904 9.82622C84.5843 9.83455 84.577 9.84467 84.5608 9.86593C84.5374 9.89363 84.5415 9.90034 84.4092 10.0417C84.3684 10.0821 84.3242 10.1324 84.1858 10.24C84.1119 10.2942 84.0198 10.3667 83.8098 10.4654C83.6019 10.5434 83.2312 10.7569 82.4593 10.5768C82.088 10.4833 81.677 10.2186 81.4361 9.91036C81.1884 9.60287 81.088 9.30482 81.0393 9.08945C80.9527 8.65386 81.0028 8.46203 81.0208 8.31911C81.072 8.05111 81.1122 7.98046 81.1379 7.90911C81.2344 7.68624 81.2399 7.70001 81.2588 7.66199C81.2991 7.59362 81.2976 7.59838 81.305 7.58629C81.3221 7.56007 81.3209 7.5627 81.3251 7.55663C81.3321 7.54686 81.3349 7.54349 81.3373 7.54059C81.3426 7.53416 81.3488 7.52636 81.3563 7.51667C81.3778 7.49032 81.407 7.45209 81.4296 7.42347C81.4404 7.40944 81.4522 7.39399 81.465 7.37698C81.7235 7.02429 81.8154 6.96933 81.9342 6.84606C82.0439 6.74035 82.143 6.64719 82.2423 6.55033C82.4388 6.35944 82.6343 6.15659 82.8283 5.93248C83.2153 5.48752 83.5876 4.96164 83.8843 4.44175C84.227 3.85808 84.5153 3.42054 84.7205 3.05073C85.3961 1.83028 84.1418 2.68123 85.1934 1.08699C85.3473 0.844797 85.4949 0.576579 85.5065 0.529737C85.5077 0.524856 85.497 0.537329 85.4677 0.627599C85.4479 0.73089 85.3571 0.86245 85.401 1.44708C85.4335 1.7463 85.5419 2.2093 85.8929 2.67384C86.2258 3.12753 86.7422 3.42042 87.0381 3.51811C87.6976 3.72578 87.8616 3.64409 87.9978 3.64658C86.0356 3.87749 84.3345 4.00049 82.8201 4.35137C80.4156 4.89437 78.2065 5.22513 76.0481 5.70219C72.5591 6.46171 69.0843 7.26816 65.5956 8.14693C65.0012 8.29635 64.4062 8.4432 63.8127 8.58826C62.4886 8.90874 63.6315 8.83082 61.6832 9.30682C60.1034 9.68986 58.2743 10.1267 56.3118 10.5791C53.4109 11.2304 50.2432 12.0648 46.8353 12.5135C42.673 13.0562 38.612 13.8551 35.8233 14.2965C30.8738 15.1286 36.9504 13.4159 33.19 14.1846C32.6188 14.3053 32.0511 14.5006 31.5313 14.717C30.359 15.1987 29.391 15.7404 29.0872 15.8276C25.3776 16.8901 22.5627 17.2594 19.4201 17.9193C18.9016 18.0284 18.4013 18.1416 17.9354 18.28C17.2816 18.485 17.9847 18.5447 17.4594 18.72C16.4611 19.0728 15.7139 19.4959 14.9368 20.2267C14.1695 20.9599 13.4066 21.6612 12.6831 22.3402C11.9169 23.0569 12.1894 23.0725 11.4675 23.7027C10.7086 24.3647 9.97563 24.9761 9.30604 25.5411C8.97789 25.8179 8.64757 26.1033 8.44327 26.2921C8.39575 26.335 8.35724 26.3717 8.34731 26.3733C8.33817 26.3666 8.35877 26.3602 8.46415 26.1068C8.51413 25.9576 8.61293 25.7651 8.61714 25.244C8.64714 24.7639 8.29794 23.8806 7.83366 23.5134C7.41877 23.1515 7.1253 23.08 6.97225 23.0328C6.79856 22.988 6.74472 22.9905 6.6905 22.9876C6.29005 22.9694 6.31555 23.0169 6.32289 23.017C6.34591 23.0231 6.42387 23.0158 6.51354 23.0021C6.58432 22.9916 6.40128 23.109 6.38378 23.1769C6.39162 23.2337 6.27002 23.3575 7.00523 23.1368C7.72107 22.915 8.59657 22.6405 9.5163 22.4039C11.8605 21.8302 13.8974 21.8607 15.4498 21.2268C15.5963 21.1717 15.7409 21.1157 15.8866 21.0579C16.738 20.7233 16.5964 20.2754 18.6693 19.9491C19.114 19.894 18.699 20.5258 20.9483 19.4626C21.3083 19.2453 25.2878 17.8484 27.3071 18.0965C27.4645 18.1116 27.6899 18.1496 27.9702 18.1912C28.5654 18.2982 29.4079 18.4027 30.1445 18.2439C30.2856 18.2113 29.6791 18.0602 30.5472 17.9047C32.7645 17.5022 35.2248 16.9764 37.7877 16.6791C38.4478 16.5989 39.3002 16.3852 40.1807 16.1653C41.0511 15.9473 39.6873 15.9995 40.9955 15.6822C43.7053 15.0191 46.9815 14.4956 49.9495 14.163C50.9448 14.0502 51.9115 13.9353 52.8163 13.8263C54.1104 13.6697 53.2484 14.002 53.3453 14.0108C54.9094 14.1531 55.7357 13.5302 56.2355 13.4271C58.8234 12.8995 60.9412 12.7094 63.3272 12.4517C63.7889 12.4032 64.2511 12.3474 64.7197 12.2763C65.4793 12.159 64.9076 11.9981 65.0561 11.9571C66.5722 11.5294 65.4843 12.1195 66.4668 12.0079C68.7722 11.7368 71.1946 11.0396 73.4335 10.0899C73.841 9.91853 74.2368 9.73943 74.6213 9.55373C75.5167 9.11013 74.391 9.35589 75.186 8.95498C75.9779 8.54723 76.7352 8.10067 77.6068 7.58222C78.0507 7.32379 78.5143 7.03805 79.1961 6.72814C79.8378 6.44267 81.014 6.00243 82.4065 6.3054C84.706 7.05783 84.8465 8.1846 85.2243 9.10083C85.8163 11.1848 86.1737 13.2562 86.3494 15.3547C86.4832 17.0395 86.5253 18.6367 86.5586 20.1948C86.5793 21.2707 86.3386 20.604 86.3011 20.8301C86.0327 22.3905 86.605 24.5808 86.6903 25.063C86.8085 25.7976 86.8872 26.3716 86.9521 26.8431C87.1107 28.0168 87.1291 28.9213 87.2866 30.3278C87.5152 32.388 87.7183 34.4806 87.9997 36.6019C88.6288 40.5893 89.9527 45.5752 90.6396 50.1485C91.2651 54.4574 91.893 58.3129 92.69 61.8485C92.7742 62.2276 92.86 62.6055 92.9476 62.983C93.5858 65.8248 94.1541 68.1805 94.9738 70.6417C96.6864 75.923 98.2392 80.9823 99.8546 86.0445C100.741 88.6441 101.766 91.4678 102.497 94.5305C102.681 95.304 102.772 94.4599 102.931 95.1281C103.111 95.9048 103.271 96.679 103.414 97.4587C103.642 98.7125 104.038 100.099 104.331 101.706C104.48 103.229 105.313 105.542 103.008 108.195C101.224 109.722 100.237 109.615 99.5447 109.972C97.3303 110.828 95.2547 111.198 93.5046 111.74C91.5125 112.329 89.7077 112.612 87.9029 112.921C87.2084 113.036 88.2498 113.142 87.1395 113.333C86.6781 113.412 86.1953 113.491 85.7054 113.571C83.7219 113.893 81.518 114.185 79.6723 114.371C78.5433 114.485 80.0196 114.054 78.8836 114.172C76.2383 114.446 73.4153 114.791 70.6936 115.143C70.4212 115.178 70.3128 115.209 70.2839 115.237C70.2698 115.251 70.2741 115.264 70.2882 115.277C70.3499 115.335 70.6072 115.389 70.3087 115.46C70.2074 115.484 70.0449 115.509 69.795 115.536C64.6024 116.09 59.646 116.11 54.7816 116.458C50.4697 116.726 46.4665 116.727 42.425 117.167C41.4111 117.271 40.3945 117.383 39.3751 117.501C38.6838 117.582 37.9908 117.13 36.5413 117.481C36.4569 117.65 36.4929 117.826 36.4721 117.995C32.9953 118.615 29.4891 119.308 26.2162 120.216C25.2371 120.489 24.1961 121.002 22.9989 121.629C22.3868 121.941 21.7579 122.289 20.8636 122.626C20.4111 122.786 19.8738 122.967 19.0964 123.008C18.3384 123.067 17.1676 122.797 16.4076 122.147C15.4525 121.305 15.2842 120.751 15.0119 120.203C14.7766 119.664 14.6241 119.169 14.4994 118.686C14.2551 117.723 14.1333 116.814 14.0608 115.917C13.831 113.199 13.5079 110.279 13.4231 107.335C13.3196 103.384 12.9613 99.4289 12.7952 95.2704C12.791 95.155 12.7866 95.0381 12.7822 94.9198C12.7583 94.2947 12.5109 95.3876 12.4626 94.1757C12.2687 89.4082 12.002 84.7254 11.8607 79.9391C11.7347 78.1769 11.3672 75.687 11.0837 73.4692C10.9893 72.7675 11.5619 73.0344 11.1133 70.9891C11.0369 70.6267 10.385 67.54 10.1137 66.7598C10.0759 66.6551 9.95238 67.2633 9.749 66.2701C9.62013 65.6406 9.49142 65.0155 9.35969 64.3792C8.83629 61.8082 8.17295 59.1293 7.63091 56.4188C7.09253 53.7954 6.55781 51.1483 6.0762 48.5544C5.90098 47.6067 6.36167 48.5581 6.23938 47.8828C5.79372 45.401 5.23963 42.8324 4.80973 40.203C4.4262 37.8068 4.08914 35.4283 3.90893 33.1781C3.67151 30.0565 4.25601 31.1521 4.49713 29.4588C4.52949 29.2191 4.33958 27.303 4.58288 27.1793C5.18855 26.8639 5.97183 27.7172 6.60628 27.2709C6.74031 27.1775 6.34279 24.652 6.83586 26.1226C6.86776 26.2263 7.16685 28.0518 7.33628 28.4894C7.4521 28.7939 7.64592 28.2017 7.82032 28.8298C7.99526 29.4564 7.86041 30.1828 8.11322 31.2261C8.3708 32.2672 8.59505 31.7685 8.91237 33.8681ZM108.584 98.7345C108.717 98.5484 108.826 98.3065 108.814 98.3108C108.81 98.331 108.8 98.3186 108.788 98.473C108.787 98.5111 108.786 98.5594 108.794 98.6252C108.797 98.6455 108.818 98.9006 109.015 99.1407C109.198 99.407 109.674 99.5424 109.803 99.5218C109.992 99.5228 110.112 99.4816 110.194 99.4503C110.367 99.3745 110.363 99.3612 110.397 99.3421C110.423 99.3245 110.438 99.3128 110.449 99.305C110.471 99.2885 110.47 99.2933 110.473 99.2946C110.471 99.3134 110.454 99.3575 110.437 99.4075C110.347 99.6928 110.499 99.8093 110.739 99.6523C110.774 99.6308 110.806 99.6119 110.813 99.6179C110.805 99.6289 110.831 99.6222 110.7 99.7295C110.65 99.7646 110.677 99.759 110.499 99.8568C110.321 99.9144 110.093 100.154 109.293 99.9305C108.826 99.775 108.486 99.3335 108.39 99.0589C108.276 98.7403 108.298 98.6877 108.285 98.6028C108.276 98.4474 108.288 98.3619 108.296 98.3002C108.324 98.1344 108.33 98.1497 108.329 98.1478C108.327 98.1545 108.321 98.1767 108.31 98.2083C108.291 98.27 108.263 98.3563 108.231 98.4575C108.209 98.5306 108.538 98.8027 108.584 98.7345ZM24.6707 29.5873C24.6733 29.1229 24.6364 28.6959 24.5714 28.335C24.539 28.1558 24.4997 27.9934 24.4576 27.8761C24.4466 27.8453 24.437 27.8241 24.4314 27.8178C24.429 27.8157 24.4285 27.8208 24.4366 27.8426C24.4445 27.8608 24.4562 27.8896 24.493 27.9445C24.5125 27.9725 24.5359 28.0051 24.5826 28.0522C24.6624 28.1363 24.95 28.3605 25.3562 28.2634C25.7752 28.1186 25.7586 28.0104 25.8348 27.937C25.8883 27.86 25.9104 27.8065 25.9265 27.767C25.9578 27.6814 25.9547 27.6791 25.9604 27.6619C25.968 27.6341 25.9701 27.6277 25.9724 27.6294C25.9767 27.6319 25.9803 27.6497 25.9847 27.6748C26.0767 28.3887 26.3354 28.5503 26.5415 27.6914C26.5458 27.6814 26.5501 27.6753 26.5541 27.6754C26.5584 27.6777 26.5646 27.6761 26.5613 27.7302C26.5584 27.7599 26.5582 27.7838 26.5382 27.8667C26.52 27.9321 26.4968 28.0222 26.4137 28.1751C26.3709 28.2514 26.3114 28.3453 26.2099 28.4543C26.1501 28.5151 26.1271 28.5447 25.9941 28.6428C25.8537 28.7434 25.6596 28.8386 25.4403 28.8818C24.445 29.0358 24.0493 28.3625 24.0673 28.4176C23.9903 28.3295 23.9506 28.2673 23.9207 28.2195C23.8617 28.121 23.8518 28.0929 23.8413 28.0744C23.8212 28.0349 23.8158 28.0256 23.8132 28.0274C23.8046 28.0377 23.8191 28.1241 23.8288 28.1897C23.8531 28.3391 23.8883 28.5019 23.9294 28.6521C24.0116 28.9534 24.1212 29.2262 24.2295 29.4181C24.447 29.8109 24.6692 29.9323 24.6707 29.5873ZM30.5287 51.9257C30.1945 49.3328 28.861 49.2952 29.7928 51.878C29.8448 52.0276 30.5475 52.0784 30.5287 51.9257ZM5.61277 37.04C5.62017 37.015 5.43206 35.6433 5.41704 35.6147C5.02902 34.9263 5.40394 37.666 5.61277 37.04ZM34.5518 74.3582C34.6742 73.5427 34.2687 71.2206 34.1425 72.2483C34.0503 73.0776 34.407 75.3776 34.5518 74.3582ZM101.916 45.1069C101.922 45.0855 101.795 44.5809 101.681 44.3272C101.639 44.2297 101.604 44.1639 101.585 44.1756C101.543 44.2034 101.529 44.2791 101.535 44.3758C101.561 44.7467 101.827 45.4898 101.916 45.1069ZM35.1282 113.207C35.0787 112.903 35.0222 112.604 34.9655 112.311L34.9621 112.294C33.9571 107.181 34.694 104.364 35.4775 110.099C35.6768 111.201 34.6884 107.799 34.861 109.214C34.9873 110.34 35.3286 111.241 35.5795 112.194L35.576 112.176C35.746 112.709 35.9076 113.251 35.9953 113.842C36.0869 114.602 36.1642 115.273 36.2823 116.135C36.3274 116.498 35.5376 114.968 35.3306 113.91C35.2299 113.555 35.1385 113.283 35.1251 113.197C35.1261 113.2 35.1272 113.204 35.1282 113.207ZM109.677 98.591C109.666 98.6001 109.638 98.6269 109.571 98.7056C109.327 98.9797 108.83 99.7189 108.825 99.7462C108.706 100.303 109.444 99.2752 109.713 98.8208C109.815 98.6409 109.85 98.5349 109.677 98.591ZM85.0117 6.89647C85.043 6.8747 85.4817 6.30245 85.8825 5.64068C86.3191 4.93938 86.8932 4.1784 86.9103 4.12528C87.2362 3.25781 86.2409 4.34195 85.561 5.44776C84.9961 6.41716 84.4249 7.2877 85.0117 6.89647ZM23.405 121.144C21.9246 121.563 20.0528 121.644 18.8448 121.192C20.3739 121.312 21.8948 121.251 23.405 121.144Z" fill="#D85FA1"/>
<path d="M58.4667 67.0438C59.0196 65.4456 59.989 63.5487 61.2392 62.0047C61.4255 61.7694 61.621 61.5545 61.8203 61.3595C62.4489 60.7807 62.2509 61.197 62.696 60.855C63.5756 60.2259 64.3696 59.7563 65.2126 59.505C65.4901 59.4263 65.2482 59.7868 65.5313 59.703C66.6994 59.3692 67.7025 59.1347 68.6633 58.9139C69.1207 58.8082 69.605 58.7508 70.0982 58.7594C74.1667 59.0039 76.0207 61.929 77.5352 63.7908C78.6974 65.3564 78.6247 66.9357 78.4485 68.2099C77.0757 72.9622 73.4957 73.9117 71.2551 75.7354C71.1848 75.7869 71.109 75.8435 71.0447 75.8925C69.3937 77.1679 67.3803 78.6734 66.0726 80.2527C65.9139 80.4459 66.1784 80.4831 66.1603 80.5304C66.0828 80.732 66.0174 80.8411 65.9532 80.9004C65.7701 81.0735 65.6055 80.8867 65.3329 81.1407C64.0571 82.3343 62.8046 83.7946 62.0108 85.1991C62.008 85.21 61.996 85.2466 61.9931 85.2755C61.9877 85.2944 62.0029 85.3556 62.0039 85.2017C61.9807 85.1163 62.0527 84.9575 61.7019 84.5165C61.6175 84.3894 61.4741 84.274 61.4369 84.2154C61.3897 84.1514 61.4152 84.114 61.4246 84.0793C61.433 84.0465 61.42 84.0052 61.261 83.9691C61.1187 83.9251 60.7487 83.9746 60.653 84.0951C60.6367 84.1204 60.8065 84.3023 60.7457 84.3569C60.7743 84.4673 61.4317 83.677 61.6312 83.3956C62.0811 82.8256 62.1462 82.7121 62.5384 82.1066C62.941 81.4847 63.4377 80.7851 63.945 80.0522C64.1189 79.8029 64.2905 79.557 64.4519 79.3148C64.5873 79.1118 64.2004 79.228 64.4018 78.8905C64.6024 78.5491 65.2591 77.7649 65.52 77.5448C65.7802 77.3214 65.8327 77.5541 65.9042 77.5361C66.5003 77.3944 66.8416 76.2119 66.9161 76.0982C67.1402 75.7772 67.3568 75.4747 67.5528 75.189C67.7232 74.952 67.8992 74.7841 68.0501 74.6526C68.1245 74.5881 68.1966 74.5306 68.2413 74.4943C68.2619 74.4777 68.2797 74.4619 68.257 74.4814C68.2429 74.4953 68.2234 74.5067 68.1456 74.5984C68.1045 74.6542 68.0468 74.704 67.9457 74.9337C67.9036 75.0384 67.8343 75.2322 67.8445 75.5095C67.8499 75.8036 67.9925 76.147 68.1749 76.3497C68.2059 76.4039 68.4053 76.5195 68.5041 76.5174C68.6042 76.5228 68.5708 76.5016 68.4867 76.5256C68.3101 76.5682 67.9953 76.7234 67.6926 76.9107C67.0656 77.2941 66.439 77.7984 65.6728 78.364C65.6131 78.4068 65.5534 78.4544 65.4941 78.5068C64.5081 79.3844 63.8917 81.2134 63.427 82.7796C63.4102 82.8358 63.3925 82.8971 63.3733 82.9634C63.2537 83.3129 63.1793 83.875 62.5787 84.5134C61.8712 85.1835 61.082 85.3018 60.342 85.2033C58.5656 84.8738 57.5647 83.8103 56.5615 83.005C56.3933 82.8642 56.4039 83.2451 56.2003 83.0757C55.8403 82.7764 55.501 82.5002 55.2023 82.3031C53.0464 80.8463 51.3717 79.1078 49.7793 77.3201C49.5887 77.103 50.0262 77.1881 49.8478 76.9619C49.8111 76.9157 49.7737 76.8682 49.7355 76.8196C48.7322 75.4944 46.9069 73.6167 45.4352 73.6053C45.2805 73.4477 45.1214 73.2803 44.9626 73.1034C43.8516 71.8389 43.7867 70.3502 43.9208 69.3651C44.0604 68.5915 44.3096 69.3383 44.2402 68.417C44.2321 68.2083 43.971 68.4596 43.9807 68.1416C44.0127 67.353 44.1927 66.5385 44.4894 65.7395C44.9108 64.701 45.7643 64.3719 46.2472 64.1144C46.5039 63.9902 46.3585 63.8198 46.4211 63.7565C46.686 63.4997 47.0742 63.436 47.3865 63.4299C47.8074 63.3871 48.1805 63.4446 48.3077 63.4371C50.2263 63.3246 51.6423 63.6452 53.0726 64.2703C53.401 64.4176 53.128 63.9836 53.4485 64.1178C54.1251 64.406 54.7404 64.7088 55.2769 64.9006C56.2855 65.2581 57.261 65.7041 58.1513 66.2034C58.4859 66.3926 58.0634 66.4623 58.2173 66.564C58.887 67.0089 59.2509 66.6828 59.8747 67.1059C60.0048 67.1937 59.8331 67.3405 59.8485 67.3737C60.0893 67.896 60.6515 67.5999 60.7502 67.6319C60.8794 67.6745 60.9995 67.7181 61.1108 67.7612C61.2125 67.8028 61.2855 67.831 61.4315 67.9115C61.4836 67.9425 61.5514 67.9758 61.6754 68.0824C61.6985 68.1114 61.8552 68.2079 61.9917 68.5308C62.0583 68.6938 62.1107 68.9698 62.0287 69.2555C61.9375 69.5601 61.7903 69.7082 61.6699 69.8149C61.4163 70.0186 61.258 70.038 61.1543 70.0648C61.0494 70.0858 60.9832 70.0868 60.9676 70.0879C60.7583 70.0916 60.716 70.0735 60.65 70.0648C60.4283 70.0231 60.2917 69.976 60.1475 69.9265C59.8618 69.8259 59.6111 69.7122 59.3563 69.5972C58.8456 69.3659 58.346 69.1339 57.7162 68.9841C57.5484 68.9443 57.8468 69.3075 57.3786 69.1795C56.3462 68.8896 55.3329 68.5971 54.2321 68.1293C52.5391 67.3655 50.5237 67.0942 48.5171 66.7502C48.47 66.7391 48.4234 66.7317 48.3777 66.7276C48.1397 66.7228 48.2687 66.5084 48.2582 66.4839C48.0983 66.3422 47.9528 66.3966 47.8988 66.4908C47.8397 66.5867 47.8626 66.7143 47.8783 66.7782C47.8803 66.8033 47.8801 66.8226 47.8737 66.8337C47.5707 67.3231 47.1181 68.3594 47.1189 69.234C47.1324 69.358 47.1744 69.4744 47.2481 69.5818C46.7727 71.1529 48.5266 72.8751 50.0596 74.6794C51.6507 76.6326 53.1845 78.5184 54.8237 80.3548C55.1428 80.715 55.4587 81.081 55.7663 81.4595C55.8102 81.5125 55.5458 81.6031 55.6334 81.7076C56.6716 82.9921 56.7171 82.4412 57.8364 83.1243C58.1455 83.3061 58.1021 84.5278 58.0429 84.6221C58.0388 84.6494 58.0321 84.6732 58.0235 84.6939C57.9095 84.9363 57.5306 84.7612 57.5273 84.8593C57.5177 85.0632 57.573 85.1521 57.6639 85.2861C57.685 85.3098 57.7111 85.356 57.7222 85.4179C57.7243 85.4485 57.7408 85.4857 57.6788 85.572C57.6212 85.6552 57.4844 85.6852 57.4336 85.6859C57.3003 85.6885 57.2343 85.6631 57.1823 85.667C57.1279 85.6659 57.065 85.6517 57.0194 85.6538C56.6306 85.6389 56.2228 85.5861 55.9497 85.1256C55.9345 85.0956 56.2023 85.1019 56.1762 85.0129C56.1014 84.7454 55.8935 84.5572 55.8398 84.293C55.7207 83.6854 56.1617 83.2349 55.4568 82.5982C55.3669 82.5154 54.8099 82.9839 54.4531 82.1594C54.3082 81.8331 53.6459 80.4 53.518 79.9725C53.3861 79.5477 53.7135 79.7389 53.71 79.7059C53.5272 78.4972 53.8162 78.8629 54.0085 78.1553C54.2064 77.4518 53.2853 77.9805 53.0888 77.7944C53.0016 77.7126 52.9363 77.4771 52.8987 77.2315C52.8528 76.9323 52.8385 76.6077 52.8438 76.4822C52.8538 76.2552 53.0773 76.454 53.0601 76.2616C52.9403 74.9832 52.3852 75.9236 52.09 75.5933C51.393 74.8178 51.8735 73.8472 51.6457 72.9888C51.5842 72.757 51.483 73.0002 51.3954 72.806C51.0495 72.034 51.1059 71.4734 50.5676 70.6498C50.525 70.5844 50.3398 70.4203 50.1753 70.2019C50.126 70.1293 50.0844 70.0699 50.0434 69.9886C50.0318 69.9637 50.0179 69.9318 50.0033 69.886C50.0025 69.884 49.9929 69.8508 49.9851 69.8061C49.9811 69.7811 49.9755 69.7509 49.9734 69.6894C49.9802 69.6236 49.9445 69.5418 50.0744 69.2757C50.1398 69.1478 50.3215 68.9503 50.5707 68.8878C50.8208 68.8223 51.0072 68.8893 51.0824 68.9187C51.2615 68.9965 51.3106 69.0598 51.3547 69.0994C51.4316 69.1793 51.4454 69.2083 51.464 69.2345C51.5253 69.3335 51.5086 69.3087 51.5228 69.3325C51.5604 69.4007 51.5704 69.4204 51.5921 69.4691C51.6596 69.6237 51.6825 69.766 51.6549 69.929C51.6369 70.0138 51.3782 69.9006 51.4795 70.2522C51.629 70.7748 51.9585 71.6881 52.2366 72.1997C52.4421 72.5776 52.5545 72.0031 52.6646 72.5391C52.7133 72.7778 52.3734 72.4373 52.4788 72.8787C52.5847 73.3201 53.0141 74.3714 53.1772 74.7805C53.3404 75.1891 53.4814 74.8782 53.5096 74.9059C53.5229 74.9196 53.5377 74.9367 53.5533 74.9559C53.5992 75.0152 53.6477 75.0746 53.6965 75.1233C53.7193 75.1459 53.7457 75.1624 53.7342 75.1305C53.7197 75.1092 53.721 75.0863 53.6173 75.016C53.5108 74.9284 53.1833 74.8972 53.0223 75.0016C52.8513 75.0995 52.829 75.1657 52.807 75.1854C52.7865 75.2118 52.7798 75.2208 52.7762 75.2196C52.7692 75.218 52.7695 75.1968 52.7701 75.1713C52.7699 75.128 52.7718 75.0822 52.7741 75.0692C52.9742 72.6307 53.0214 69.6454 52.7561 67.4444C52.7678 67.5388 53.0612 67.6939 53.1407 67.6512C53.2269 67.6363 53.2187 67.625 53.2127 67.6307C53.1921 67.6406 53.1377 67.6837 53.0903 67.7314C52.9921 67.8291 52.8932 67.9575 52.8229 68.0787C52.5937 68.4733 52.4588 68.9516 52.3373 69.4743C52.2702 69.7537 52.5681 69.6388 52.5604 69.6821C52.4948 70.0787 52.3447 70.2255 52.2106 70.2175C52.0743 70.2129 51.9344 70.1049 51.7641 70.1285C51.7108 70.1417 51.6515 70.2034 51.5346 70.1726C51.451 70.1211 51.4608 70.0546 51.437 69.9846C51.0644 70.3818 50.8712 69.876 50.5819 69.2787C50.4314 68.9845 50.3131 69.2269 50.2826 69.2068C49.817 68.8734 50.0526 68.4248 50.0909 68.3118C50.2352 67.9003 49.7705 67.7426 49.851 67.4685C49.9237 67.1865 50.425 67.4953 50.1039 66.9178C49.8548 66.8593 49.6611 67.4919 49.3625 67.1393C49.3583 67.1345 49.354 67.1297 49.3498 67.1249C49.2506 67.0212 49.1375 66.9238 49.0452 66.8755C49.002 66.8514 48.9583 66.8429 48.9786 66.856C48.9904 66.8611 49.0218 66.8756 49.1056 66.867C49.185 66.8616 49.3441 66.7989 49.4382 66.6767C48.6341 67.5699 49.4847 70.1751 49.9334 71.1608C50.4952 72.4113 50.7843 72.8557 51.0743 73.5864C51.0833 73.6147 51.0944 73.6421 51.109 73.6696C51.2563 73.9208 51.5605 73.9195 51.6642 73.8708C51.7841 73.7565 51.678 73.6427 51.9491 73.3081C52.3983 72.667 52.7736 73.5114 52.9993 73.5614C53.2368 73.5847 53.1902 73.3391 53.3813 73.2715C53.574 73.2004 53.4324 73.5825 53.7262 73.2798C54.03 72.973 54.389 71.8569 54.2992 71.6273C54.1187 71.1453 53.4897 71.3052 54.1637 70.5363C54.1734 70.5246 54.1834 70.5129 54.1936 70.5011C54.2404 70.4483 54.3081 70.7644 54.4768 70.5584C54.6963 70.334 54.8553 70.0016 55.4674 69.8789C55.7841 69.8427 56.0489 70.0072 56.1893 70.1392C56.3389 70.2774 56.4351 70.4161 56.5232 70.5535C57.2626 71.7305 57.8172 73.0077 58.2545 74.2531C58.3422 74.4951 58.0093 74.3951 58.0595 74.5399C58.2558 75.0795 58.415 75.3969 58.7358 75.4118C58.907 75.3689 58.9814 75.2662 59.0685 75.1412C59.1596 75.0146 59.2717 74.8645 59.3811 74.674C59.418 74.9943 59.4906 75.2693 59.82 75.3216C60.1297 75.3932 60.7059 75.0482 60.9043 74.3775C61.1135 73.59 60.7692 73.6787 60.6116 73.2118C60.5628 73.0754 60.7483 72.5705 60.6069 72.4832C60.147 72.2123 59.7279 72.7077 59.7827 71.5449C59.7846 71.4925 60.0433 71.6228 60.0324 71.4433C59.9409 70.2719 59.4566 70.2305 59.1103 69.0038C59.0586 68.824 59.0119 68.6237 58.9653 68.3848C58.9443 68.2746 58.921 68.1458 58.9001 68.0059C58.8892 67.933 58.8806 67.8687 58.87 67.7713C58.8656 67.7252 58.8615 67.6862 58.8574 67.5991C58.856 67.5588 58.8554 67.5147 58.8589 67.4572C58.8823 67.3653 58.8142 67.1941 59.1294 66.8217C59.2432 66.7186 59.3578 66.6261 59.4764 66.5443C59.6371 66.4336 59.7438 66.3629 59.9991 66.2644C60.2047 66.1867 60.6121 66.1108 60.9778 66.2983C61.3509 66.4931 61.477 66.7652 61.554 66.9371C61.8057 67.6584 61.7175 68.0753 61.7287 68.4839C61.012 68.4881 61.1532 69.5618 61.6044 70.0593C61.52 70.8251 61.4459 71.6439 61.2759 72.359C61.2175 72.6046 61.0319 72.4115 61.005 72.4397C60.5835 72.8679 61.0165 73.2627 61.0107 73.4273C60.9288 75.1967 60.2953 76.5638 60.4123 78.2539C60.4188 78.3113 60.8998 78.4783 60.4913 78.8405C60.4647 78.8663 60.3072 78.3898 60.2158 78.9271C60.2097 78.9737 60.204 79.0237 60.1987 79.0756C60.1935 79.1267 60.1872 79.1768 60.18 79.2247C60.1709 79.2924 60.1607 79.3566 60.1496 79.4126C60.145 79.4338 60.1363 79.4848 60.1272 79.5251C60.1225 79.5459 60.1177 79.5659 60.1119 79.5869C60.0935 79.6057 60.1491 79.6158 59.983 79.8474C59.9331 79.9063 59.7723 80.0355 59.5493 79.9945C59.3332 79.9459 59.2694 79.8264 59.2351 79.778C59.1742 79.6695 59.1784 79.6385 59.1685 79.6006C59.1622 79.5628 59.162 79.5487 59.16 79.5237C59.1569 79.4788 59.1554 79.425 59.1563 79.3973C59.1601 79.1093 59.1835 78.7981 59.199 78.5036C59.2308 77.883 59.2417 77.2422 59.1282 76.6904C59.0733 76.4309 58.6698 75.7428 58.9996 75.2109C59.0444 75.1392 59.188 75.2209 59.2704 75.1177C59.5332 74.7895 59.026 74.5938 59.4687 74.2102C59.9121 73.8257 60.2548 73.0201 60.0011 71.912C59.9941 71.8727 59.5998 71.6034 59.6243 71.2483C59.6644 70.6942 59.7908 69.9072 59.8726 69.3438C59.9218 69.0591 59.6434 69.1912 59.6479 69.1405C59.6527 69.0967 59.6716 68.9994 59.6964 68.9357C59.7321 68.8474 59.7963 68.7292 59.9522 68.6656C60.1061 68.6081 60.2317 68.6462 60.3147 68.6777C60.4791 68.747 60.5686 68.8271 60.6613 68.9069C60.8385 69.0668 60.975 69.2317 61.1034 69.3977C61.3592 69.7328 61.5645 70.0664 61.7656 70.4145C62.1631 71.1069 62.5221 71.8404 62.9863 72.6923C63.0861 72.876 63.4024 73.1903 63.6815 73.562C63.8942 73.8393 64.0837 74.11 64.2272 74.2302C64.3355 74.3154 64.5385 74.3021 64.7007 74.3411C64.8725 74.3702 65.0466 74.4193 65.2243 74.4204C65.5823 74.4188 66.0306 74.0446 66.0534 73.0549C66.0789 72.2222 64.605 71.1921 65.5101 69.9618C65.5067 69.2481 65.5442 68.5577 65.6182 67.8758C65.6555 67.537 65.702 67.1942 65.7646 66.8722C65.7974 66.7035 65.8347 66.5405 65.8802 66.4009C65.907 66.3187 65.9295 66.2629 65.9607 66.2095C65.9723 66.1893 65.9895 66.1738 65.9799 66.1851C65.9791 66.1959 65.8943 66.2255 65.8587 66.2075C66.6967 66.5549 67.1109 67.6037 67.5716 68.5687C67.6185 68.6678 68.1437 68.8832 68.2115 69.1471C68.3111 69.5352 68.1678 69.7982 68.2262 70.0747C68.367 70.7559 68.5681 71.3918 68.8128 71.9953C68.8153 72.0015 68.8175 72.0044 68.8158 72.0003C68.8102 71.9953 68.8286 72.0045 68.7873 71.9718C68.7676 71.9555 68.7088 71.955 68.686 71.9756C68.6601 71.9968 68.6672 71.9941 68.6613 72.001C68.6457 72.0327 68.6562 72.0067 68.6545 71.9996C68.656 71.9723 68.6554 71.9511 68.655 71.9199C68.6537 71.868 68.6509 71.8109 68.6476 71.7513C68.6412 71.6417 68.6329 71.5196 68.6255 71.4091C68.6102 71.1786 68.5967 70.9469 68.5905 70.7116C68.5779 70.2792 68.7972 70.419 68.7792 69.901C68.76 69.3846 68.4606 69.057 68.5473 68.3513C68.6134 67.8167 69.143 67.2486 69.1561 66.5413C68.7091 66.5541 68.6027 66.2494 68.4688 65.7014C68.4584 65.6694 68.4615 65.6265 68.4506 65.6385C68.3767 65.6611 68.439 65.6393 68.4625 65.6689C68.5227 65.7118 68.5826 65.771 68.646 65.8356C68.7612 65.9542 68.8238 65.6983 68.8881 65.7514C69.1569 65.9759 69.1636 66.3158 69.4085 66.5261C69.4674 66.5773 69.6364 66.4871 69.6944 66.5248C70.1949 66.8421 70.2095 67.7882 70.2121 67.9502C70.2151 68.195 70.2747 68.3665 70.3472 68.4913C70.3363 68.4985 70.3772 68.4492 70.2086 68.4338C70.0498 68.4901 70.1077 68.5106 70.0931 68.5081C70.0926 68.5064 70.0973 68.4812 70.0987 68.4605C70.1028 68.4131 70.1031 68.3643 70.1053 68.3105C70.1091 68.2052 70.1182 68.0957 70.1602 67.9721C70.298 67.5589 70.3998 68.1976 70.4972 67.7081C70.6098 67.1628 70.6496 66.4975 70.7911 65.9465C70.9339 65.4387 71.1623 65.3286 71.6344 65.4271C71.67 65.4335 71.7009 65.4374 71.7277 65.4386C71.9865 65.4536 71.815 65.2031 71.867 65.2088C72.7461 65.3237 73.3692 65.9438 74.049 65.8005C73.7383 67.2255 74.6103 65.9494 75.2606 67.1532C75.3044 67.2529 74.8528 67.6833 74.5859 67.4794C74.3242 67.2845 74.1049 66.7806 73.6421 66.6267C73.5245 66.5714 72.7334 66.7836 72.6637 66.8002C72.0559 66.8229 72.2485 65.9413 72.2259 65.874C72.1385 65.6273 71.9333 65.533 71.7106 65.5249C71.5327 65.517 71.3577 65.5777 71.2959 65.6595C71.2294 65.7429 71.2922 65.8063 71.3039 65.8104C71.3627 65.8182 71.317 65.9172 71.2934 66.0858C71.2314 66.5778 71.1655 67.289 71.2311 67.9286C71.2522 68.1517 71.3508 68.3043 71.4549 68.4695C71.5062 68.5537 71.5622 68.6309 71.5953 68.768C71.6057 68.8481 71.6358 68.9057 71.5653 69.1486C71.5516 69.1957 71.5021 69.3238 71.4025 69.4664C71.3426 69.5447 71.3124 69.607 71.1154 69.7672C70.9402 69.9062 70.6456 70.0523 70.3085 70.0714C69.6496 70.1177 69.2102 69.6958 69.1441 69.6292C69.0237 69.5113 68.9583 69.419 68.9069 69.3436C68.8069 69.2774 68.7345 69.2128 68.6821 69.1078C68.3455 68.4211 68.3283 67.8987 68.21 67.4222C68.1523 67.1864 68.0728 66.9658 67.9276 66.7684C67.8564 66.6723 67.766 66.5781 67.6688 66.5199C67.6238 66.4944 67.5602 66.4634 67.5683 66.5252C67.5708 66.5402 67.5869 66.5725 67.6386 66.6275C67.6584 66.6493 67.7148 66.7026 67.8155 66.7628C67.8678 66.7934 67.9278 66.8253 68.0219 66.8589C68.1527 66.9034 68.3438 66.9463 68.5867 66.9184C69.1142 66.8752 69.5351 66.415 69.6294 66.167C69.7157 65.9812 69.7301 65.8891 69.7481 65.806C69.7739 65.6622 69.7775 65.6438 69.7881 65.6037C69.7888 65.6012 69.7895 65.5988 69.7903 65.5966C69.9741 65.8711 70.607 65.5361 70.168 66.636C70.1404 66.706 69.7207 67.5308 70.0545 67.967C70.0966 68.0219 70.2902 68.0067 70.3117 68.0812C70.4517 68.5817 70.3202 68.9334 70.4284 69.4834C70.5362 70.0398 70.6864 70.692 70.6432 71.3738C70.6357 71.4886 70.6028 71.6189 70.5549 71.7597C70.5309 71.8328 70.5035 71.9094 70.4708 72.0067C70.4524 72.0752 70.4407 72.0952 70.4049 72.256C70.3944 72.2992 70.3891 72.3188 70.3645 72.4118C70.3102 72.5384 70.3567 72.6907 69.942 73.1827C69.7621 73.4159 69.0772 73.8177 68.4465 73.6732C67.8332 73.5437 67.5991 73.2416 67.467 73.094C67.3396 72.9295 67.326 72.8858 67.2865 72.8126C67.2238 72.6844 67.2037 72.6123 67.1862 72.5519C67.2135 72.3413 67.2559 72.1667 67.2673 72.0706C67.35 71.4631 66.8119 71.0332 67.0302 70.6476C67.2506 70.2614 67.8646 70.7464 67.8472 69.8865C67.3516 69.9856 66.8333 70.0508 66.331 70.136C66.1554 69.453 65.9931 68.804 65.795 68.2856C65.6114 67.7536 65.3215 67.4716 65.3995 67.5243C65.64 67.6125 65.9945 67.6414 66.2961 67.5562C66.6208 67.4626 66.7628 67.3486 66.8965 67.2383C67.152 66.9989 67.1589 66.9215 67.1997 66.8577C67.2563 66.7374 67.2349 66.7652 67.23 66.7901C67.2124 66.849 67.1853 66.9867 67.1655 67.1342C67.1421 67.318 67.4375 67.1634 67.4201 67.3708C67.3526 68.2753 67.1104 69.1809 67.1038 70.2672C67.098 71.1164 67.3139 72.0764 67.2238 73.0912C66.8728 73.3759 66.7465 73.8176 66.3884 74.6405C66.2724 74.8724 66.1736 75.1256 65.8053 75.5222C65.631 75.7043 65.298 75.9768 64.8529 76.1093C64.3887 76.2603 63.8428 76.1998 63.5305 76.0844C63.3626 76.0282 63.1976 75.9453 63.092 75.8821C62.9921 75.8229 62.9035 75.7611 62.8233 75.6988C62.6585 75.57 62.5453 75.4542 62.4629 75.3648C62.3754 75.2693 62.2975 75.173 62.2278 75.0786C62.1727 75.0035 62.1221 74.9282 62.0752 74.8528C62.0182 74.7612 61.9825 74.6848 61.9589 74.6192C61.9186 74.4547 61.9918 74.3769 61.93 74.2001C61.6285 73.3485 61.4092 73.9684 61.2149 73.8038C60.3864 73.1073 61.3307 72.4233 60.6642 71.4383C60.6269 71.3785 59.7027 71.1074 59.6214 71.0669C59.0775 70.7503 59.735 70.8542 59.5575 70.55C59.4738 70.4071 59.3922 70.2816 59.3954 70.254C59.4155 70.2419 59.3913 70.2688 59.7213 70.3793C59.8709 70.4249 60.2998 70.4999 60.731 70.2672C60.9352 70.157 61.0671 70.0253 61.1617 69.9026C61.2401 69.7992 61.2847 69.7102 61.3143 69.6399C61.3913 69.4299 61.3518 69.5034 61.3522 69.5326C61.3433 69.5862 61.3396 69.6335 61.3357 69.7117C61.3301 69.8528 61.3369 70.0303 61.3616 70.2217C61.393 70.4763 61.7365 71.118 61.4171 71.6172C61.3752 71.6816 61.1737 71.6355 61.1593 71.6888C60.9183 72.6685 61.5592 72.7233 61.7575 73.2928C61.9563 73.8646 61.4967 74.7298 61.3666 74.908C61.0292 75.3696 61.2328 74.5461 61.2015 74.5202C60.8239 74.2138 60.8756 74.8576 60.8356 75.349C60.2076 75.4096 60.2361 76.1014 60.7972 75.8582C60.8584 75.8295 60.8053 75.4476 60.8356 75.349C61.4436 75.7894 61.5119 76.5372 60.9363 77.3685C60.6685 77.7506 60.3474 77.3908 60.4754 78.5695C60.5058 78.8264 60.6299 78.9114 60.7608 78.9707C60.8926 79.0392 61.0312 79.1177 61.1007 79.2617C61.1095 79.2763 61.1191 79.2841 61.1185 79.2376C61.116 79.2164 61.1247 79.2418 61.1053 79.1499C61.0957 79.1091 61.0834 79.0548 61.0452 78.9564C60.999 78.8575 60.9624 78.7095 60.6987 78.4375C60.5643 78.3068 60.3403 78.1347 60.0023 78.0494C59.6593 77.9598 59.2822 78.0137 59.0244 78.1297C58.5026 78.3799 58.3989 78.6357 58.3099 78.762C58.1654 79.0267 58.1721 79.0852 58.152 79.1396C58.1144 79.2638 58.124 79.1727 58.118 79.1431C58.1152 79.0287 58.1153 78.932 58.1246 78.7764C58.2147 77.6596 58.627 76.7324 58.7175 75.856C58.762 75.4499 58.4634 75.8041 58.4861 75.5231C58.545 74.7813 58.8263 74.1702 58.8506 73.4294C58.8525 73.3623 58.5832 73.4846 58.6152 73.2588C58.8392 71.5725 59.2392 70.0345 59.2417 68.505C59.2396 68.3841 59.2275 68.2312 59.2068 68.1194C59.1944 68.0161 59.1281 67.8884 59.192 68.0751C59.2352 68.1515 59.3185 68.442 59.8485 68.72C60.1035 68.8443 60.3845 68.8857 60.6058 68.872C60.8477 68.8534 60.9317 68.8181 61.0299 68.7844C61.3244 68.6528 61.2 68.7005 61.1401 68.7882C61.542 68.3565 61.592 68.037 61.6389 67.8553C61.6765 67.6696 61.6742 67.5594 61.6758 67.5354C61.6777 67.4511 61.6741 67.4069 61.6722 67.3781C61.6677 67.3233 61.6687 67.3349 61.6705 67.3388C61.6758 67.361 61.6847 67.4008 61.6977 67.4574C61.7197 67.5537 61.7478 67.6757 61.77 67.783C62.1058 69.3343 62.2443 71.4419 62.2907 73.1001C62.2848 74.2333 62.5202 74.0413 62.5551 74.6727C62.5829 75.2716 61.9836 76.4986 60.8224 76.9763C59.7048 77.4251 58.9897 77.1006 58.8745 77.073C58.8669 77.0717 59.1983 77.0738 59.4705 77.0095C59.7306 76.9458 59.8954 76.8659 59.5003 76.8645C59.049 76.6478 58.901 77.0682 58.8745 77.073C58.8366 77.0593 58.7061 77.0418 58.52 77.006C57.7546 76.8654 57.511 76.5168 57.3443 76.3516C57.1832 76.1644 57.1017 76.025 57.0308 75.9039C56.8929 75.6603 56.8074 75.4666 56.7253 75.288C56.5668 74.9363 56.4402 74.6556 56.3718 74.553C56.2819 74.4183 56.106 74.5972 56.063 74.5249C55.5135 73.5957 55.0022 72.767 54.4455 72.0132C54.4283 71.9866 54.4068 71.9993 54.5777 72.1413C54.6672 72.2093 54.8232 72.3229 55.1139 72.4068C55.3976 72.4942 55.8084 72.4877 56.0792 72.3988C56.6306 72.2051 56.668 72.0476 56.6959 72.0371C56.7102 72.016 56.6631 72.0682 56.6111 72.1411C56.4241 72.41 56.2298 72.6803 56.0253 72.9515C55.9999 72.9804 55.8156 72.7854 55.7585 72.8554C54.9032 73.8395 54.8745 74.6451 53.6639 75.8715C53.2806 76.1982 52.6929 76.6429 51.6403 76.667C50.507 76.7287 49.0725 75.8935 48.7437 74.6821C48.7529 74.5658 48.7691 74.4385 48.8003 74.313C48.4439 73.7204 48.1045 72.6428 47.9395 71.9976C47.7738 71.3556 47.2732 71.4634 47.2388 71.4125C46.7231 70.606 46.4445 69.8369 46.3148 68.9271C46.2281 68.0353 46.0863 66.8545 47.003 65.3195C47.0779 65.2035 47.1645 65.0807 47.265 64.9548C47.8835 64.1476 48.9404 64.0344 49.4126 64.1309C49.9398 64.2166 50.2575 64.3939 50.5313 64.5664C51.0636 64.9198 51.3854 65.3166 51.645 65.715C52.1059 66.4277 52.4258 67.0936 52.6509 67.5443C52.8208 67.8878 52.9126 68.1673 53.0003 68.4182C53.0437 68.5429 53.0859 68.6605 53.13 68.7593C53.1589 68.837 53.2696 69.0047 53.1635 68.8001C53.0317 68.6077 53.3623 68.6676 53.3229 68.6011C53.2842 68.5385 53.2239 68.4456 53.0756 68.3023C52.991 68.2225 52.8804 68.1303 52.7262 68.0355C52.5532 67.929 52.2653 67.7927 51.9142 67.7352C51.5549 67.6675 51.042 67.7105 50.6619 67.8697C50.2964 68.0172 50.0695 68.1968 49.8933 68.3636C49.5735 68.6869 49.5206 68.8259 49.4361 68.9732C49.3339 69.1046 49.4664 69.0271 49.5629 69.0799C49.669 69.1119 49.7886 69.1694 49.8402 69.1519C50.3177 68.8929 50.5024 68.5495 50.8684 67.3301C50.8934 67.2579 50.8944 67.1326 50.8977 66.968C50.9314 66.6692 50.9549 66.3258 51.0929 65.9514C51.1663 65.7626 51.2594 65.5679 51.4737 65.3404C51.5855 65.2263 51.7233 65.1011 51.9807 64.9619C52.2394 64.8422 52.6393 64.6049 53.5127 64.7122C54.4755 64.8158 55.2758 65.7117 55.4294 66.1177C55.6058 66.4855 55.625 66.6485 55.6406 66.7123C55.6565 66.7956 55.6617 66.8572 55.6629 66.9109C55.6661 67.024 55.6446 67.0598 55.6309 67.1269C55.6018 67.2572 55.5785 67.3822 55.6473 67.6685C55.6582 67.7141 55.8377 67.7055 55.8682 68.0626C55.9999 69.7425 55.9759 71.4208 56.0028 73.1274C56.0043 73.3597 56.2856 73.0569 56.2914 73.4011C56.2971 73.9085 56.2964 74.4229 56.2391 75.0591C56.2249 75.209 56.203 75.4013 56.1693 75.6C56.1128 75.8525 56.1382 75.9984 55.8469 76.6695C55.799 76.7692 55.7401 76.8801 55.6587 77.0063C55.5697 77.136 55.5056 77.2525 55.2332 77.5228C54.8146 78.0236 53.4317 78.5462 52.4676 78.1566C51.4644 77.7525 51.4583 77.5395 51.2236 77.3295C51.1338 77.2269 51.0641 77.1342 51.005 77.049C50.9569 76.9789 50.9308 76.9371 50.8991 76.8852C50.652 76.4577 50.6169 76.3118 50.5302 76.0839C50.3717 75.6077 50.186 75.0569 50.0366 74.5515C49.9371 74.2142 50.201 74.3447 50.2267 74.2523C50.3791 73.685 49.6534 73.2609 49.6031 73.1638C49.348 72.6749 49.1302 72.1985 48.9364 71.7383C48.8387 71.5064 48.7461 71.2763 48.6609 71.0608C48.62 70.9569 48.5692 70.831 48.5586 70.7979C48.5592 70.7977 48.5627 70.8047 48.5826 70.8419C48.612 70.8767 48.5278 70.8085 48.8438 71.2367C48.9815 71.359 48.9929 71.5709 49.8436 71.9773C49.9586 72.0237 50.091 72.0683 50.2543 72.1038C50.4644 72.1492 50.7223 72.176 51.0109 72.1491C51.5927 72.1103 52.2484 71.7646 52.5914 71.3793C53.2781 70.5754 53.2127 70.1262 53.2629 69.8811C53.2897 69.3992 53.2412 69.3196 53.2293 69.2128C53.2129 69.1262 53.1962 69.0645 53.1945 69.0577C53.1508 68.9042 53.1614 68.9554 53.1615 68.9559C53.1706 68.99 53.1816 69.0283 53.2009 69.0887C53.6182 70.3991 53.9755 71.6931 54.6247 73.1225C54.6866 73.2562 55.5846 74.1341 55.31 74.7664C55.2924 74.8101 55.0057 75.4406 55.464 75.7444C55.4927 75.7635 55.6221 75.3875 55.7803 75.9062C55.8052 75.9881 55.8376 76.0764 55.8744 76.1706C56.053 76.6247 56.3683 77.2174 56.3827 77.855C56.3874 78.0929 56.1502 78.7772 56.7755 79.2443C56.8176 79.2779 58.0318 79.8634 57.6492 80.4492C57.5858 80.5434 56.9847 80.7627 57.6286 81.349C57.7521 81.4584 57.7565 81.1468 58.0143 81.4719C58.4048 81.9563 58.6373 82.7851 59.2181 83.2185C59.2677 83.2537 59.4516 83.3291 59.5785 83.3893C59.634 83.4108 59.7076 83.4597 59.6142 83.3526C59.58 83.3163 59.5659 83.2977 59.4347 83.1796C59.3726 83.1255 59.2912 83.0577 59.1658 82.972C59.0671 82.914 58.7207 82.6358 58.0295 82.5026C57.8527 82.4705 57.6482 82.4501 57.4198 82.4569C57.1885 82.4599 56.7907 82.5178 56.4646 82.6468C55.7739 82.9008 55.2527 83.4429 55.014 83.8568C54.9534 83.9559 54.8906 84.0812 54.8662 84.1364C54.842 84.1899 54.8208 84.2412 54.802 84.2903C54.7646 84.3886 54.7368 84.4779 54.7151 84.5591C54.6721 84.7216 54.6526 84.8517 54.6417 84.9596C54.6208 85.1807 54.634 85.2922 54.6426 85.3468C54.6524 85.4122 54.6651 85.4612 54.6786 85.4997C54.7125 85.5866 54.7738 85.5356 54.8367 85.5411C54.8987 85.5407 54.968 85.6074 54.9796 85.6017C54.9851 85.592 54.984 85.5587 54.9758 85.5072C55.0563 85.5939 54.8997 85.2711 54.6358 84.9608C54.3738 84.6359 54.0309 84.2609 53.7133 83.8404C53.4682 83.5197 53.8565 83.4253 53.6162 83.0576C53.4787 82.8483 53.2346 82.5389 52.9642 82.2684C52.7496 82.0541 52.5258 81.8625 52.3303 81.7613C51.8762 81.5234 51.8634 82.2895 51.3155 81.7886C49.7122 80.3156 48.4468 78.5961 47.2481 76.9827C46.7498 76.297 46.0557 75.5176 45.34 74.5525C45.0182 74.1001 45.1315 74.6133 44.6432 73.8923C43.9313 72.894 42.8481 70.4502 43.652 68.1352C43.9733 67.4365 43.7373 66.2518 45.4589 64.315C46.6047 63.2517 47.9191 63.1131 48.8933 63.2596C49.1861 63.3248 49.4617 63.3947 49.7103 63.4711C51.4194 64.0005 49.1903 63.9957 50.5098 64.2871C51.1424 64.4273 51.9698 63.921 52.1458 63.9341C53.4836 64.0109 54.5091 64.4482 55.619 64.9507C55.7657 65.0202 55.969 65.0963 56.1936 65.16C56.4319 65.227 56.2931 64.9046 56.4915 64.9621C57.1851 65.1593 57.9255 65.5098 58.633 65.6972C58.9501 65.78 58.948 65.5752 59.2331 65.6728C59.905 65.8988 60.545 66.1594 61.0606 66.4592C61.0973 66.4837 60.757 66.6627 61.1036 66.7422C61.1156 66.7453 61.127 66.7467 61.0756 66.7424C61.0511 66.7421 60.9879 66.7293 60.7848 66.7395C60.7646 66.7428 60.5692 66.7429 60.2745 66.8327C60.0034 66.9713 59.3076 66.9963 58.8015 68.344C58.6074 69.02 58.7912 69.6267 58.9482 69.9321C59.1127 70.2542 59.2591 70.4013 59.3637 70.5097C59.4227 70.5679 59.4494 70.5902 59.4626 70.602C59.4794 70.6167 59.4952 70.63 59.5101 70.6423C59.5399 70.6668 59.5664 70.6872 59.5902 70.7049C59.7782 70.8398 59.8178 70.8473 59.8382 70.8593C59.8619 70.8704 59.8708 70.8731 59.871 70.8719C59.8713 70.8694 59.8547 70.859 59.8262 70.8442C58.9522 70.4237 58.2177 69.9198 57.4202 69.7004C57.1299 69.6215 56.9265 70.0166 56.5006 69.4761C56.4124 69.3658 56.7819 68.9372 55.9391 69.073C55.7905 69.087 54.4851 69.2265 54.0826 68.6679C54.0645 68.6428 54.0431 68.6068 54.0182 68.5639C53.8016 68.32 53.5165 67.8875 53.1819 67.8012C53.1262 67.7884 53.2345 68.1003 52.9113 67.9816C51.7974 67.5522 50.9821 67.1343 50.3161 67.0926C50.1444 67.0829 50.3411 67.3684 50.1049 67.3534C49.6804 67.3365 49.2718 67.35 48.745 67.485C48.2494 67.6298 47.8643 67.719 47.661 67.7728C47.4706 67.8192 47.5105 67.5801 47.4885 67.5646C47.3113 67.4414 47.3057 67.4918 47.4016 67.5224C47.494 67.557 47.6785 67.5628 47.7519 67.4927C47.8544 67.3978 47.9555 67.2552 48.0207 67.1131C47.9061 67.6362 47.6206 68.143 47.6319 68.7493C47.6373 68.9352 47.8795 68.8162 47.8984 68.8537C48.0911 69.2172 47.676 68.9394 47.6283 69.1724C47.4748 69.8233 47.7687 70.5027 47.7833 70.3971C47.7827 70.3946 47.784 70.39 47.7871 70.3839C47.9358 70.4591 47.9257 70.1362 48.0941 70.299C49.1851 71.3549 50.8844 72.5455 52.3449 74.2102C52.359 74.2267 52.373 74.2432 52.3871 74.2597C52.6148 74.5275 52.3107 74.5203 52.3285 74.6058C52.4503 75.2012 53.2962 75.3891 53.446 75.4728C54.1315 75.8585 54.2166 76.1941 54.7256 76.6157C55.6376 77.3646 56.6049 78.1633 57.5446 78.7896C59.5469 80.3026 60.6518 81.3837 60.8704 81.3234C60.5357 81.3098 60.2595 81.3141 59.781 81.7653C59.7007 81.8493 59.6414 81.9299 59.6011 81.9934C59.4092 82.3609 59.5596 82.1145 59.6795 81.6745C60.451 79.5324 61.0584 77.3925 63.5102 75.4348C63.969 75.1177 64.5622 74.6214 65.2544 74.1209C65.6089 73.8673 65.9897 73.602 66.5029 73.3314C67.0306 73.0937 67.638 72.6767 69.0101 72.7976C69.4513 72.8672 69.48 72.8283 69.4784 72.7485C69.4794 72.6805 69.459 72.5772 69.8916 72.7357C70.4506 72.954 70.936 73.3372 71.2543 73.7104C71.6146 74.1104 71.8916 74.7875 71.8978 75.3636C71.9134 75.9046 71.7766 76.2814 71.6906 76.4918C71.4881 76.9463 71.365 77.0594 71.2708 77.1845C71.0928 77.3943 71.0215 77.4488 70.9583 77.5084C70.8437 77.6102 70.8011 77.642 70.7645 77.6724C70.6974 77.7268 70.6807 77.7417 70.6744 77.7482C70.665 77.7573 70.7187 77.7208 70.8134 77.5962C69.3873 79.4834 68.0961 80.7199 67.1305 82.2142C66.9531 82.4843 66.7625 82.7979 66.5711 83.1226C66.4554 83.3182 66.854 83.1807 66.6754 83.5006C66.3084 84.161 65.7623 85.0164 65.1731 85.7023C64.8826 86.0384 65.0436 85.4256 64.7548 85.7633C64.4218 86.1432 64.0912 86.548 63.5563 87.0485C63.2643 87.3 62.983 87.5985 62.2283 87.9294C61.8602 88.0794 61.2617 88.2517 60.5263 88.1298C59.7744 88.0106 59.152 87.5758 58.8094 87.2024C58.1366 86.3984 58.1841 86.029 58.1067 85.7468C58.0311 85.1722 58.055 85.1321 58.0202 85.0825C57.9937 85.0533 57.9536 85.1279 57.9175 85.1989C57.8813 85.2711 57.8476 85.3345 57.8211 85.2367C57.7962 85.1418 57.7797 84.8869 57.8462 84.5247C57.9543 83.9685 58.1153 83.5326 58.4064 83.0339C59.6538 80.9716 61.0015 79.3931 62.4073 77.853C63.3167 76.8658 64.268 76.0317 65.2724 75.2623C65.4723 75.1101 66.0019 75.3682 66.3193 74.9421C66.2469 74.8022 66.1258 74.6698 66.03 74.5367C66.7789 73.8451 67.5453 73.187 68.3267 72.5521C69.8873 71.3419 71.1214 70.6474 72.2343 69.7642C73.3303 68.9508 74.1451 67.9012 74.1424 67.6C74.2285 67.121 74.1765 66.6867 74.1244 66.5747C74.1174 66.5551 73.8556 66.6841 73.8564 66.6833C73.8597 66.6891 73.8705 66.7083 73.8911 66.7343C72.5771 65.0575 71.3141 63.9054 70.4826 63.5005C70.3932 63.4595 70.5282 62.9414 70.165 63.0035C70.122 63.0108 69.8686 63.0544 69.6752 63.1626C69.4931 63.233 69.3394 63.3014 69.2642 63.3558C69.2329 63.3806 69.4713 63.5694 69.1494 63.6537C67.3695 64.0905 65.9884 64.5736 65.4913 65.1284C65.4342 65.1934 65.3757 65.2619 65.3182 65.3306C65.1503 65.5335 65.0984 65.1571 64.975 65.305C64.0908 66.3834 63.5544 67.9721 62.8521 69.2063C62.3906 70.0385 62.091 69.5703 61.5242 69.9311C61.4389 69.9885 61.2867 70.5456 61.0412 70.521C60.3998 70.4902 59.7905 70.0158 59.1007 70.0092C59.0268 70.0087 58.9686 70.2722 58.9175 70.5379C58.8918 70.6571 58.8696 70.8252 58.8335 70.8449C58.7974 70.8789 58.7351 70.7273 58.6737 70.4892C58.6488 70.3626 58.7076 69.5428 58.6452 69.353C58.5997 69.2085 58.2904 69.3616 58.2596 69.0817C58.2312 68.7991 58.518 68.597 58.532 68.1735C58.5494 67.7481 58.2074 67.8159 58.4667 67.0438ZM47.4057 68.9333C47.5289 68.2454 46.6228 68.2318 46.9679 68.9773C46.9866 69.012 47.401 68.9694 47.4057 68.9333ZM65.9395 67.0617C65.9209 66.7961 65.7488 66.729 65.651 66.8031C65.9269 66.9495 66.3149 66.8259 66.4045 66.7929C66.5339 66.7484 66.5929 66.7388 66.6355 66.7635C66.6723 66.7894 66.7007 66.8447 66.615 66.9781C66.5639 67.0455 66.5061 67.129 66.3034 67.2281C66.1048 67.3282 65.7577 67.372 65.481 67.2907C65.4787 67.3025 65.4763 67.3138 65.4738 67.3248C65.4279 67.4705 65.4872 67.3969 65.6337 67.3307C65.7718 67.259 65.9473 67.1546 65.9395 67.0617ZM69.365 70.4349C69.0969 71.3195 70.3741 71.419 70.0711 70.4727C70.0537 70.4195 69.3803 70.3827 69.365 70.4349ZM62.2578 67.5956C62.2429 67.5976 62.058 68.0047 62.0658 68.0195C62.2378 68.3449 62.6025 67.5397 62.2578 67.5956ZM69.5407 68.0837C69.5648 67.7627 69.0191 67.1718 68.991 67.5694C68.9672 67.8862 69.5125 68.4846 69.5407 68.0837ZM52.0498 72.8181C52.0401 72.8306 52.1406 73.1455 52.2094 73.1135C52.431 73.0102 52.2109 72.6016 52.0498 72.8181ZM73.8693 65.1094C74.2915 65.8175 74.4962 66.492 74.5281 66.9041C74.5563 67.2638 74.43 67.4302 74.1343 67.1914C73.9837 67.0681 73.7961 66.8382 73.587 66.4804C73.3904 66.1487 74.3303 66.9835 74.1334 66.5234C73.7816 65.6927 72.9164 65.544 72.7368 64.5919C72.7052 64.4194 73.815 65.0162 73.8723 65.1115C73.8713 65.1108 73.8703 65.1101 73.8693 65.1094ZM48.4026 68.3909C48.4074 68.3774 48.3724 67.9231 48.3659 67.9133C48.0567 67.6655 48.1265 68.6407 48.4026 68.3909ZM54.7171 80.7708C54.717 80.7609 54.661 80.697 54.5777 80.6079C54.3615 80.3782 53.9739 79.9782 53.9446 79.9718C53.4698 79.9294 53.9495 80.5976 54.3437 80.8488C54.5438 80.9776 54.7162 81.0006 54.7171 80.7708ZM61.7096 68.5038C62.0058 69.0366 61.9974 69.6878 61.605 70.057C61.665 69.5592 61.6996 69.0362 61.7096 68.5038Z" fill="#D85FA1"/>
</svg>
