<svg width="144" height="111" viewBox="0 0 144 111" fill="none" xmlns="http://www.w3.org/2000/svg">
<path d="M4.5 106.5C5.66673 105.332 6.61779 104.379 10.765 99.0567C14.6101 94.122 21.7959 84.5025 25.7557 79.1571C30.2725 73.0597 31.1297 71.5665 32.0118 70.3307C32.9147 69.0658 35.3547 65.1004 39.9385 58.8591C47.69 48.3046 51.1656 46.6579 51.871 46.2436C52.1823 46.0607 52.5763 46.4136 52.815 46.7093C54.0064 48.1855 54.5845 50.5426 56.347 53.1949C57.1182 54.3556 57.8832 55.0328 58.5885 55.3869C60.12 56.1558 63.289 52.5682 67.1198 49.9123C70.5878 47.5079 75.073 45.369 78.9532 42.9539C85.0944 39.1316 87.5782 37.805 93.0141 34.7029C97.7711 31.9883 106.5 26.8097 112.058 23.4013C119.821 18.6408 122.23 16.558 123.46 15.5009C127.386 12.1284 132.211 8.79219 134.785 6.46564C136.399 5.00611 130.493 6.99327 127.021 7.69797C125.395 8.02799 124.125 8.5266 120.558 9.5801C112.144 12.0649 106.094 14.1925 104.918 14.4864C102.618 15.0615 100.794 15.9595 99.2578 16.5527C98.9084 16.6876 98.5525 16.7882 98.5472 16.9068C98.4739 18.5465 103.948 15.7329 106.668 14.8458C107.821 14.47 113.462 12.7937 121.297 10.198C126.171 8.58301 130.344 7.23407 133.475 6.11329C136.331 5.09069 138.494 4.3976 138.966 4.51268C140.714 4.93913 137.677 8.16186 136.91 10.4654C135.762 13.9121 134.382 17.121 133.432 20.4975C132.974 22.1271 131.553 25.9669 129.847 31.2716C128.491 34.9402 127.657 37.203 127.245 38.6177C127.067 39.2144 126.95 39.565 126.83 40.2803" stroke="#F4C03A" stroke-width="9" stroke-linecap="round"/>
</svg>
