<svg width="110" height="110" viewBox="0 0 110 110" fill="none" xmlns="http://www.w3.org/2000/svg">
<path d="M25.9998 57.4248C26.9217 66.193 27.3861 71.7173 28.0757 76.1257C28.6998 80.1147 29.4655 83.979 29.9229 86.4049C30.5733 89.8539 37.5336 86.0792 41.235 85.7291C46.5453 85.2269 53.4758 84.6929 68.108 84.3429C74.1011 84.1995 78.6506 83.0709 82.7089 82.3813C84.2566 82.1183 86.289 81.6847 88.5972 81.3416C93.398 80.6279 90.0042 69.4577 89.0789 66.446C88.2195 63.6489 87.2317 60.4469 86.3063 57.2065C85.1967 53.3209 84.6879 51.1935 83.7694 50.0394C81.2854 46.918 75.6978 50.2578 70.1493 50.6078C65.5026 50.9009 59.9774 51.644 53.0599 51.9941C47.4849 52.2762 41.9558 53.0303 38.8367 53.8413C34.3244 54.1879 31.1013 55.1097 28.0896 56.0351C27.393 56.2673 26.7068 56.496 25.3066 56.7317" stroke="#F4C03A" stroke-width="2" stroke-linecap="round"/>
<path d="M25.3067 56.7316C23.4629 54.6592 21.1617 52.351 19.0753 49.8107C18.544 49.1637 18.1535 48.4278 18.0322 47.7312C17.9109 47.0346 18.1396 46.3484 18.6005 45.8806C20.7145 43.7348 23.9065 41.9539 26.6825 40.7929C29.3821 39.6639 32.2242 38.9457 35.0002 38.0204C37.7762 37.095 40.5419 36.1731 43.3179 34.6725C45.9267 33.2623 48.8595 32.25 51.6355 31.089C54.3351 29.9599 57.1772 29.2418 59.9532 28.202C63.2015 26.9855 66.188 25.0829 68.964 23.5823C69.6498 23.2115 70.3468 23.0035 71.0434 23C73.8371 22.9861 75.8919 26.4553 77.9783 28.9957C79.0331 30.28 79.829 31.7717 80.179 33.0402C80.9224 35.734 75.2265 36.1593 72.4505 37.3203C69.7509 38.4493 66.9089 39.1675 64.1328 40.2072C61.0683 41.355 58.5912 43.3263 55.8152 44.9414C53.0361 46.5581 50.2735 47.4852 47.4975 48.4105C44.7215 49.3359 41.9559 50.7152 39.1798 52.5659C38.4832 53.0303 37.797 53.4878 35.7037 54.6522" stroke="#F4C03A" stroke-width="2" stroke-linecap="round"/>
<path d="M30.8518 40.0967C29.7081 43.5277 28.5644 46.9588 27.8609 49.0694C27.1573 51.18 26.9286 51.8662 26.6964 52.5628C26.4642 53.2594 26.2354 53.9456 25.3066 55.3457" stroke="#F4C03A" stroke-width="2" stroke-linecap="round"/>
<path d="M41.9421 37.3232C40.3271 42.1683 39.4052 44.9339 37.9046 47.7099C37.3258 49.0927 36.8614 50.4859 36.2861 51.8688C35.9395 52.5654 35.4821 53.2516 35.0107 54.6517" stroke="#F4C03A" stroke-width="2" stroke-linecap="round"/>
<path d="M54.4184 31.085C53.9609 33.8298 53.4965 36.1587 52.9212 38.1169C52.1172 40.3037 51.1884 42.1683 50.3808 43.5511C50.0308 44.2477 49.8021 44.9339 49.5664 45.6409" stroke="#F4C03A" stroke-width="2" stroke-linecap="round"/>
<path d="M63.4296 26.9268C62.9721 29.6716 62.5077 31.7718 62.0467 33.269C61.5858 34.9949 61.1214 36.6238 60.7748 38.2353C60.657 39.1607 60.657 40.3043 59.9639 42.1758" stroke="#F4C03A" stroke-width="2" stroke-linecap="round"/>
<path d="M73.1332 26.9267C72.2183 30.129 71.5182 32.4649 71.0572 33.8477C70.825 34.5443 70.5963 35.2305 70.3641 35.9271C70.1319 36.6237 69.9032 37.3099 68.9744 38.71" stroke="#F4C03A" stroke-width="2" stroke-linecap="round"/>
<path d="M36.3965 65.0491C44.4716 62.9697 48.6235 62.5122 52.9001 61.5869C56.9147 60.7183 60.6425 60.4328 71.5837 58.4712C76.557 58.1177 79.3642 57.889 80.747 57.428C81.4436 57.1958 82.1298 56.9671 82.1437 56.7314" stroke="#F4C03A" stroke-width="2" stroke-linecap="round"/>
<path d="M39.1699 69.9009C51.6326 67.5927 56.2489 66.6709 60.5255 65.7455C64.584 64.8674 68.7254 64.3558 71.8514 63.6661C73.5773 63.2052 75.6637 62.9695 77.7396 62.8551C78.6719 62.7408 79.3581 62.512 82.1445 62.2764" stroke="#F4C03A" stroke-width="2" stroke-linecap="round"/>
<path d="M35.7041 76.833C48.1598 75.4467 54.6268 74.9892 59.711 74.1783C66.349 73.1194 70.569 72.9098 74.967 71.9845C75.8992 71.7523 76.5854 71.5235 77.282 71.2913C77.9786 71.0591 78.6648 70.8304 80.7581 70.5947" stroke="#F4C03A" stroke-width="2" stroke-linecap="round"/>
<path d="M19.2158 47.0189C19.3888 46.9616 19.7356 46.673 20.0116 46.3392C20.276 46.0195 20.6918 45.8037 21.04 45.5564C21.3432 45.341 21.735 45.2526 22.0831 45.0926C22.4429 44.9273 22.7781 44.731 23.1984 44.5133C23.5738 44.3187 24.1672 44.0652 24.604 43.8178C24.9373 43.6292 25.299 43.4845 25.6471 43.2819C26.0088 43.0715 26.3421 42.8186 26.6903 42.6009C27.0149 42.3978 27.3852 42.2101 27.7334 41.978C28.0765 41.7493 28.3414 41.4278 28.5166 41.1952C28.7985 40.821 28.5466 42.4101 28.4449 42.8303C28.3446 43.2448 28.1989 43.714 28.155 44.0621C28.1096 44.4218 27.9381 44.7571 27.8221 45.1052C27.706 45.4534 27.5904 45.8002 27.4743 46.1484C27.3583 46.4965 27.1853 46.8433 27.0397 47.1915C26.8981 47.53 26.808 47.8865 26.692 48.2346C26.5728 48.5923 26.3734 48.987 26.2574 49.379C26.1335 49.7975 26.0257 50.1466 25.8953 50.5812C25.7513 51.0611 25.5911 51.4505 25.5472 51.7986C25.4973 52.1941 25.3007 52.6379 25.2142 53.0878C25.1942 53.1921 25.1564 53.276 25.0843 53.306C24.6825 53.473 24.202 52.7874 23.7956 52.4532C23.2487 52.0034 22.8685 51.5705 22.4482 51.1206C22.0837 50.7305 21.7958 50.3239 21.5637 49.9758C21.335 49.6326 20.9561 49.4251 20.7809 49.1065C20.5946 48.7675 20.5788 48.3246 20.4189 47.9764C20.3351 47.7942 20.1729 47.7144 20.0712 47.6713C19.7281 47.5262 20.7492 47.0207 21.1269 46.8312C21.4808 46.6536 21.8219 46.4696 22.1844 46.324C22.6151 46.151 23.0389 46.0923 23.4735 45.9041C23.8991 45.7198 24.2559 45.5707 24.604 45.3825C24.9409 45.2004 25.3564 44.9918 25.7341 44.7454C26.1399 44.4806 26.4299 44.2381 26.5603 44.1508C26.8 43.9902 26.3734 44.844 26.2143 45.3938C25.9996 46.136 25.7076 46.4956 25.4902 46.9729C25.0302 47.9831 24.8956 48.3211 24.7796 48.6836C24.6105 49.2119 24.5184 50.2865 24.4754 51.2575C24.4614 51.5714 24.3463 51.5113 24.2446 51.4101C23.7332 50.9009 23.5048 50.3239 23.2445 49.8315C23.0427 49.4498 22.8685 48.8479 22.5204 48.4832C22.1729 48.1193 21.8245 47.9465 21.7515 47.86C21.4671 47.5231 22.4878 47.2815 22.8655 47.0485C23.0152 46.9561 23.2136 46.9903 23.387 46.9755C23.4752 46.968 23.5604 47.0468 23.6048 47.1767C23.6778 47.8291 23.7647 48.1481 23.8225 48.3215C23.8517 48.4089 23.8803 48.495 23.9099 48.6706" stroke="#F4C03A" stroke-width="2" stroke-linecap="round"/>
<path d="M42.9475 36.2401C43.1778 36.1827 43.6985 36.0089 44.0762 35.9072C44.4195 35.8147 44.7712 35.6612 45.4801 35.3287C45.9132 35.1255 46.3359 35.0527 46.6984 34.9223C47.182 34.7483 47.8693 34.5033 48.3357 34.4003C48.7249 34.3143 49.175 34.0965 49.6248 33.9083C50.0149 33.7451 50.4789 33.5749 50.8566 33.4445C51.2445 33.3106 51.5515 33.0533 51.8997 32.8508C52.2614 32.6404 52.4226 32.4162 52.4369 32.3431C52.5515 31.7596 52.3947 33.9765 52.2491 34.4998C52.1283 34.934 52.0175 35.3395 51.9014 35.7894C51.8062 36.1583 51.6124 36.4991 51.4668 36.8473C51.3252 37.1858 51.2351 37.5423 51.1047 37.8904C50.9659 38.2612 50.8005 38.5854 50.6844 38.9335C50.5684 39.2817 50.4528 39.6285 50.4089 39.9767C50.3635 40.3364 50.192 40.6716 50.076 41.0198C49.9624 41.3603 49.9312 41.7148 49.8295 42.0629C49.7298 42.4042 49.5835 42.7579 49.4675 43.1782C49.3635 43.5548 49.1489 43.888 49.0328 44.2361C48.9193 44.5766 48.8881 44.9311 48.7864 45.2936C48.6721 45.7008 48.6273 46.0611 48.4391 46.4093C48.3926 46.4953 48.3665 46.5827 48.3087 46.6414C47.946 47.0096 46.8071 47.2781 45.9934 47.5685C44.6414 48.0509 43.9072 48.09 43.3839 48.25C42.93 48.3887 42.6015 48.5542 42.1812 48.8146C41.8168 49.0403 41.3845 49.2201 41.0364 49.38C40.649 49.558 40.3414 49.9155 39.9933 50.1476C39.6451 50.3797 39.2409 50.6683 38.8489 50.8865C38.3636 51.1565 38.0813 51.4228 37.7762 51.525C37.2695 51.6946 37.9631 50.3536 38.007 49.9038C38.076 49.1962 38.2517 48.2082 38.4412 47.8753C38.6693 47.4746 38.7454 47.1077 38.948 46.7596C39.2027 46.3218 39.5556 45.6317 39.7451 45.1806C39.9236 44.7555 40.0493 44.413 40.2519 44.0505C40.4798 43.6426 40.6283 43.2829 40.9182 42.8626C41.1686 42.4996 41.4106 42.066 41.657 41.7178C41.9137 41.3552 42.106 41.0228 42.3381 40.6747C42.5618 40.3392 42.7145 39.9797 42.8745 39.6316C43.0398 39.2718 43.1787 38.8792 43.2948 38.5015C43.4166 38.105 43.4969 37.6327 43.7433 37.2989C43.9799 36.9783 44.4809 36.9651 44.8729 36.849C45.3447 36.7094 45.8717 36.6174 46.2638 36.5013C46.6904 36.375 47.0313 36.1827 47.3795 36.0523C47.7503 35.9134 48.0745 35.7481 48.4947 35.5455C48.8828 35.3585 49.2045 35.0822 49.5526 34.9366C49.8912 34.795 50.2476 34.6476 50.9135 34.6602C51.0517 34.6628 51.0317 34.8753 50.9887 35.0353C50.7978 35.745 50.4823 36.2384 50.3224 36.6008C50.1312 37.0341 49.9312 37.4258 49.743 37.8178C49.5366 38.2477 49.4097 38.6723 49.3514 39.0778C49.2504 39.7814 49.1489 40.237 49.105 41.018C49.0801 41.4602 48.975 41.8017 48.9311 42.1498C48.8788 42.5645 48.7142 43.0187 48.5982 43.3668C48.4821 43.715 48.3665 44.0618 48.2505 44.41C48.1313 44.7676 47.8171 45.1049 47.469 45.2801C47.1322 45.4495 46.7166 45.6561 46.1082 45.8882C45.6339 46.0691 45.2389 46.2072 44.5735 46.4384C43.4461 46.8301 43.0361 46.9895 42.6737 47.0478C42.1979 47.1242 41.8192 47.3946 41.3845 47.6124C40.9457 47.8322 40.5153 48.0031 40.1815 48.0626C39.6891 48.1505 40.1067 46.8504 40.3244 46.2241C40.5499 45.5755 40.8317 44.8772 41.0342 44.4421C41.3323 43.8017 41.4402 43.3699 41.6427 42.9787C41.9362 42.4119 42.0487 41.979 42.4533 40.895C42.6645 40.3292 42.831 39.9797 43.0479 39.5598C43.4151 38.849 43.6985 38.3576 43.9463 37.9656C44.2429 37.4962 44.7712 37.4866 45.4223 37.4427C45.9396 37.4078 46.5654 37.2832 47.0461 37.2111C47.4644 37.1483 47.7276 37.0807 47.901 37.0659C47.9892 37.0584 48.0745 37.1372 48.1331 37.2241C48.5579 37.8534 48.1927 39.02 48.1488 39.7289C48.1135 40.2979 48.0188 40.9898 47.7728 41.8725C47.6259 42.3996 47.4973 43.1039 47.3955 43.6272C47.3066 44.0848 47.2652 44.4104 47.1356 44.5695C46.6725 45.1383 45.6457 45.0771 45.0794 45.2797C44.3834 45.5286 43.848 45.5987 43.2109 45.8734C42.5819 46.1445 42.2529 46.2654 42.0939 46.2515C41.6096 46.2092 42.0765 44.8233 42.4385 43.7076C42.9384 42.167 43.2648 40.7925 43.4964 40.2713C43.7552 39.6892 44.1627 39.0531 44.4965 38.5889C44.6515 38.3733 44.7434 38.1534 44.8734 38.0086C45.1828 37.664 46.016 37.9491 46.4954 38.0651C46.5986 38.0901 46.6836 38.1229 46.7279 38.2811C46.951 39.0773 46.5706 39.8563 46.3672 40.6421C46.3014 40.8962 46.0795 42.0538 45.6596 43.6902C45.4661 44.4444 45.3241 44.8146 45.2228 45.2053C45.1581 45.4548 45.1207 44.0496 45.135 41.7322C45.1423 40.5564 45.265 40.0388 45.3089 39.6172C45.3573 39.1519 45.584 38.8488 45.5557 38.8044C44.8794 37.7431 44.0497 41.4818 43.7598 42.062C43.5135 42.5551 43.3543 43.2186 43.1222 43.9162C42.8703 44.6733 42.6293 45.1919 42.4989 45.6122C42.3397 46.1253 41.9061 46.6696 41.6301 47.0178C41.3427 47.3803 41.0942 47.7128 40.7469 47.9887C40.2496 48.384 39.7625 48.7559 39.3848 48.931C39.3012 48.9698 39.2113 48.9888 39.21 49.0036C39.1777 49.3696 40.105 48.1231 41.2481 46.2302C41.9543 45.0607 41.8174 44.4426 41.8896 43.9066C42.0077 43.029 42.0487 42.5006 42.1647 42.066C42.3206 41.4821 42.5702 40.7916 42.6141 40.3996C42.6654 39.9417 42.7736 39.5451 42.8458 39.1104C42.9221 38.6505 42.9475 37.6101 43.1061 36.9368C43.1787 36.7634 43.2656 36.5887 43.3669 36.4152C43.4108 36.3279 43.4395 36.2418 43.469 36.0662" stroke="#F4C03A" stroke-width="2" stroke-linecap="round"/>
<path d="M64.8531 26.3307C64.8244 26.7932 64.7088 27.2556 64.6505 28.7586C64.6193 29.5645 64.4184 30.0651 64.3319 30.5019C64.2459 30.9364 64.1872 31.4577 64.1433 31.9501C64.1086 32.3396 63.9264 32.6747 63.8104 33.0228C63.6943 33.3709 63.5787 33.7178 63.477 34.0946C63.348 34.5727 63.3179 34.9348 63.274 35.2829C63.2287 35.6426 63.0572 36.0353 62.9554 36.413C62.8642 36.7517 62.7964 37.108 62.6803 37.4561C62.5668 37.7966 62.4782 38.1511 62.4048 38.4992C62.3865 38.5858 62.3617 38.6726 62.39 38.7026C62.6289 38.9562 63.1128 38.2119 63.8938 37.4748C64.2944 37.0967 64.6775 36.8506 65.04 36.589C65.4296 36.3078 65.8075 36.1257 66.1557 36.0522C66.3305 36.0153 66.5038 35.951 66.6055 35.9649C67.0473 36.0253 65.698 36.9324 65.1156 37.3692C64.6695 37.7037 64.3332 37.9494 63.9851 38.0941C63.5295 38.2836 63.2032 38.7022 62.855 38.8621C62.4721 39.0381 62.0158 39.2811 61.7672 39.4563C61.3508 39.7496 62.6781 39.3994 63.0693 39.3268C63.7889 39.1933 64.415 38.5892 64.8805 38.3275C65.3557 38.0604 65.7206 37.8642 66.1552 37.6321C66.6696 37.3574 67.1984 37.1392 67.633 36.9511C68.0586 36.7668 68.4154 36.5603 68.7348 36.386C69.0759 36.1999 69.1977 35.5763 69.3729 35.1264C69.5311 34.7201 69.7193 34.0133 69.8944 33.4605C70.0305 33.0308 70.1261 32.6781 70.2278 32.2578C70.3138 31.9026 70.3869 31.5481 70.5173 31.1999C70.6698 30.7926 70.9084 30.418 71.111 30.0699C71.3263 29.6997 71.43 29.288 71.6182 28.9398C71.795 28.6127 71.8646 28.2448 72.0528 27.8967C72.2349 27.5598 72.3862 27.2017 72.4879 26.8536C72.5863 26.5168 72.647 26.1586 72.6048 25.6375C72.5521 24.9863 72.0402 24.7678 71.7938 24.4483C71.5614 24.1471 71.0266 24.3888 70.6785 24.5191C70.2942 24.6631 69.9835 24.9677 69.5489 25.2141C69.0659 25.488 68.6796 25.6927 68.245 25.8231C67.7904 25.9594 67.3479 26.242 66.9263 26.4172C66.5154 26.5879 66.1587 26.7358 65.7097 26.9527C65.1267 27.2343 64.8539 27.6051 64.7953 27.692C64.5523 28.0519 65.6337 27.4329 66.3426 27.0565C66.8249 26.8004 67.2853 26.5637 68.5127 25.9569C69.831 25.3052 70.2113 25.1433 70.589 25.0272C70.9398 24.9195 71.284 24.8529 71.6464 24.7808C72.0893 24.6927 72.587 24.6791 73.0069 24.7221C73.1733 24.7392 73.2259 24.8512 73.2555 25.0677C73.3909 26.0598 73.1407 26.4159 72.9525 26.764C72.7704 27.1009 72.5618 27.459 72.4018 27.8072C72.2365 28.167 72.0402 28.5022 71.8081 28.9224C71.5881 29.3209 71.3448 29.7191 71.0406 30.1538C70.6717 30.6806 70.2443 31.3412 69.8962 31.8919C69.5346 32.4638 69.2012 32.9928 68.9395 33.4427C68.7303 33.8023 68.5631 34.1524 68.2737 34.6588C68.0101 35.1198 67.7512 35.4859 67.7073 35.6024C67.6542 35.7433 68.2398 33.9942 68.8761 31.6211C69.4951 29.3122 69.9227 28.8551 70.2269 27.8558C70.4522 27.116 70.5607 26.7671 70.6768 26.4189C70.7928 26.0708 70.8797 25.81 70.8802 25.737C70.8812 25.5655 70.0748 26.9296 69.0903 28.45C68.5945 29.2158 67.8721 30.1764 67.0176 31.4651C66.4278 32.3545 66.1292 32.9633 65.8393 33.5148C65.5441 34.0764 65.1156 35.1921 65.0121 35.6315C64.8055 36.5093 66.0979 33.3179 66.6907 31.6976C66.9103 31.0975 67.0254 30.6501 67.2705 29.9873C68.0711 27.8225 68.0694 27.0279 68.1415 26.6076C68.159 26.5059 68.1563 26.4194 68.1133 26.375C68.0702 26.3307 67.9842 26.3307 67.8825 26.4168C67.6253 26.6344 67.4904 26.967 67.1884 27.9297C66.9241 28.7718 66.5134 30.3554 66.22 31.3547C65.6704 33.2267 65.3468 33.6013 65.2734 33.979C65.2055 34.3281 65.1721 34.5879 65.2003 34.6896C65.4407 35.5549 66.0701 32.2748 66.1422 30.8735C66.1771 30.1962 66.157 29.1054 66.1426 28.5869C66.1306 28.1525 65.8406 29.4192 65.4929 31.3016C65.2577 32.5746 65.2877 33.2527 65.3307 33.6735C65.3814 34.1685 65.7223 32.4469 65.7945 31.5511C65.8684 30.633 65.7806 29.9825 65.7371 30.0529C65.751 31.1395 65.8093 31.5733 65.8236 31.9349C65.838 32.0957 65.8666 32.2105 65.8962 32.5025" stroke="#F4C03A" stroke-width="2" stroke-linecap="round"/>
<path d="M26.084 58.2326C28.2267 57.7693 28.7474 57.7111 29.1682 57.6389C29.7276 57.543 30.5399 57.3651 31.2688 57.2621C31.6835 57.2035 32.195 57.0452 32.9052 56.857C33.4127 56.7225 33.8188 56.6106 34.1813 56.5667C34.6664 56.5079 35.1227 56.4071 35.7147 56.335C37.3142 56.14 37.7305 56.2333 38.0786 56.1468C38.4348 56.0583 38.831 55.9151 39.3091 55.7704C40.245 55.4871 40.773 55.3936 41.4097 55.3497C41.8224 55.3212 42.1638 55.2197 42.5984 55.118C43.0246 55.0183 43.6676 55.0163 44.2501 54.9298C44.7509 54.8554 45.2063 54.7555 45.6409 54.6834C46.0726 54.6117 46.538 54.5243 47.0461 54.4804C47.5622 54.4358 47.901 54.3209 48.3934 54.1766C48.7874 54.0611 49.2623 54.0027 49.7265 53.8867C50.1907 53.7706 50.7105 53.7124 51.2042 53.5538C51.6634 53.4062 52.2456 53.1926 53.144 52.8875C53.7533 52.6805 54.4188 52.7562 55.1433 52.684C56.2708 52.5718 57.0823 52.5823 57.7668 52.5102C58.4179 52.4416 58.8817 52.4085 59.3463 52.3363C60.094 52.2202 60.6793 52.1477 61.1279 52.0756C62.0026 51.9349 62.5326 51.9739 62.9829 51.9017C63.7715 51.7753 64.7058 51.7131 65.3582 51.6409C65.9512 51.5753 66.9902 51.5392 67.7634 51.4671C68.5008 51.3983 69.0243 51.308 69.459 51.2641C70.0112 51.2083 70.7038 51.1341 71.4861 51.0902C72.0464 51.0588 73.0751 50.9307 73.891 50.8586C75.1061 50.7511 76.088 50.7569 76.7613 50.6847C77.1101 50.6473 77.5137 50.583 78.0357 50.5109C78.4688 50.451 79.0488 50.4092 79.4704 50.337C79.9154 50.2608 80.3823 50.2353 80.76 50.1488C81.1643 50.0562 81.6288 50.0041 82.4676 50.0319C82.7578 50.0415 82.7606 50.5517 82.8471 50.9294C82.8879 51.1076 82.9918 51.2776 83.0357 51.4223C83.1939 51.9439 81.5749 51.5966 81.125 51.6405C80.7286 51.6792 80.1562 51.7704 79.7051 51.8721C79.2925 51.9652 78.4785 51.9739 77.7931 52.046C77.286 52.0994 76.8234 52.1477 76.344 52.2199C75.8663 52.2917 75.1718 52.4085 74.7646 52.4806C74.363 52.5518 73.7236 52.5823 73.2581 52.6545C72.7687 52.7303 72.418 52.7562 71.839 52.9005C71.0733 53.0913 70.0136 53.1908 69.4633 53.263C68.5986 53.3764 68.1881 53.3647 67.7817 53.4512C67.2917 53.5555 66.9416 53.5959 66.1462 53.6398C65.4618 53.6776 64.6536 53.7698 64.0447 53.8715C63.3844 53.9818 62.9725 53.9732 62.3509 54.0453C60.7788 54.2278 59.3893 54.147 58.3227 54.2192C56.9474 54.3122 55.448 54.3209 54.2093 54.393C52.5712 54.4885 51.1312 54.4947 50.0781 54.5812C49.5498 54.6246 49.2084 54.726 48.7159 54.7699C48.3329 54.804 47.934 54.8998 47.5276 54.9437C47.0319 54.9973 46.3433 55.131 45.6165 55.2188C44.541 55.3488 43.9649 55.4214 43.3847 55.4653C42.7448 55.5137 42.1673 55.5952 41.7326 55.6391C41.2878 55.6841 40.8929 55.7987 40.4287 55.8851C39.9857 55.9677 39.6464 56.0594 39.1109 56.1603C38.4777 56.2795 37.508 56.4923 36.7921 56.6675C36.422 56.7581 36.025 56.8418 35.4886 56.9283C35.0296 57.0023 34.6915 57.1026 34.0548 57.2469C33.4834 57.3763 32.7791 57.5076 32.431 57.5515C32.0781 57.596 31.736 57.6815 29.8727 58.0718C29.2205 58.2084 28.8674 58.29 28.2741 58.3339C27.7285 58.3743 27.3896 58.5508 27.0702 58.7677C26.7779 58.9661 26.8959 59.5052 26.895 60.4597C26.8941 61.4451 27.301 62.0557 27.4453 62.6633C27.5257 63.002 27.5035 63.3022 27.547 63.9494C27.6461 65.4252 27.5331 66.4898 27.4896 67.0362C27.3123 69.2645 27.5617 70.02 27.706 71.007C27.8826 72.2147 27.8225 72.7477 27.8947 73.0959C27.9717 73.4673 27.9964 73.8778 28.0972 74.4133C28.2113 75.0192 28.4293 75.4703 28.6909 76.1805C28.965 76.9244 29.3855 78.2485 29.6328 78.9917C29.7786 79.4298 29.8497 80.0183 29.9231 82.9378C29.9446 83.7912 30.0531 84.25 30.2556 85.0319C30.4957 85.9587 30.7189 86.5396 30.8646 86.9173C30.8977 87.0032 30.9224 87.0907 30.9802 87.1494C31.2316 87.4047 31.7325 87.122 32.2393 87.0781C32.4881 87.0566 32.7183 87.0056 32.9352 86.9912C33.7702 86.936 33.1547 84.5733 33.0964 84.153C33.0252 83.6391 32.5479 82.6366 32.4153 82.0377C32.3097 81.5605 32.2558 81.0962 32.1837 80.7481C32.1125 80.4045 32.082 79.7662 32.0098 79.2703C31.9552 78.8949 31.9081 78.0294 31.8216 77.4162C31.743 76.8589 31.6473 75.7137 31.5752 74.9822C31.5238 74.4609 31.4735 73.9978 31.4013 73.4762C31.346 73.0764 31.3579 72.7217 31.3144 71.9597C31.2106 70.1393 31.2136 68.6091 31.0832 68.088C30.9686 67.6301 30.9519 66.8158 30.8076 65.6688C30.7112 64.902 30.6911 64.3784 30.5325 63.5387C30.3786 62.7239 29.9696 61.5167 29.8075 60.7261C29.6329 59.8746 29.7062 58.8133 29.6198 58.7972C28.7223 58.6303 29.3298 60.3728 29.3146 62.6716C29.3085 63.5945 29.6167 65.0877 29.9366 66.2551C30.3311 67.695 30.3434 68.3405 30.4156 69.1385C30.5241 70.3385 30.3434 70.7484 30.2713 71.5855C30.1191 73.3506 30.3434 73.7613 30.4156 74.2112C30.4735 74.5721 30.5173 74.9783 30.6038 75.4855C30.6651 75.8452 30.978 77.1715 31.4413 78.9239C31.7841 80.2206 32.2836 81.1797 32.5014 81.6C32.7039 81.9908 32.7478 82.4836 32.7917 82.8317C32.8475 83.2741 32.9512 84.0744 33.0234 84.7137C33.0911 85.3138 33.0669 85.8164 33.1247 85.9042C33.2387 86.0773 33.212 84.3517 33.1977 82.4406C33.1902 81.4465 33.1251 80.9232 33.0677 80.0588C32.9643 78.4997 32.72 77.3584 32.6187 77.0115C32.5194 76.6714 32.3158 75.8563 32.0116 74.6419C31.7431 73.5705 31.8221 72.6087 31.6343 71.7707C31.4329 70.8718 31.2996 70.259 31.1849 69.5253C30.9285 67.8862 30.4608 66.5516 30.2291 66.0595C29.928 65.42 29.8219 64.6392 29.7497 64.2319C29.7193 64.0605 29.6776 63.7403 29.5619 63.3352C29.5112 63.1574 29.4463 63.0449 29.4168 63.2153C29.3091 63.8361 29.4446 64.6904 29.5315 65.3702C29.5997 65.903 29.6758 67.061 29.8497 68.5522C29.9396 69.3233 30.0522 70.4798 30.2982 72.0145C30.4916 73.221 30.6042 74.1351 30.6764 75.4225C30.7688 77.0725 30.7485 78.4832 30.9071 79.2629C31.2924 81.1567 31.849 82.4506 31.9225 83.1642C31.948 83.4127 31.995 83.7579 31.995 84.0339C31.995 84.4547 31.6491 82.0055 31.3883 79.8493C31.222 78.4747 31.2709 77.7356 31.2275 77.2732C31.1842 76.8125 31.1266 76.0006 30.9962 75.0309C30.9165 74.4378 30.8659 73.6535 30.6637 72.5548C30.4797 71.5539 30.1704 70.9257 29.954 70.3638C29.2245 68.4698 29.3003 67.0766 29.3003 67.2248C29.3003 68.0041 29.3003 70.2129 29.5728 72.6273C29.8453 75.0417 30.3904 77.5948 30.6998 78.9961C31.1829 81.1837 31.3865 82.2228 31.4587 82.7C31.4911 82.9146 31.4735 83.2607 31.4878 83.3663C31.5022 83.472 31.5308 83.3285 31.5313 82.351C31.5317 81.3735 31.503 79.5663 31.4739 78.5493C31.4398 77.3592 31.3865 77.0393 31.3722 76.779C31.3657 76.6614 31.3292 76.576 31.3144 76.7325C31.2014 77.9286 31.3865 78.8587 31.5156 80.4721C31.6083 81.63 31.9029 83.4624 32.0502 84.4512C32.2494 85.7878 32.2845 86.2223 32.3423 86.2236C33.0467 86.2395 32.574 85.1244 32.7187 84.7467C32.9032 84.2653 33.7023 84.1961 34.08 84.1226C34.5678 84.0277 35.2096 83.9927 35.9185 83.7466C36.3231 83.6062 37.089 83.6154 37.9326 83.4711C38.3381 83.4017 39.5473 83.3546 40.3961 83.2825C41.0338 83.2283 41.5536 83.1234 42.0769 83.0795C42.6344 83.0327 43.4364 82.92 44.2487 82.8478C45.0591 82.7759 46.6162 82.7461 47.4668 82.674C47.8164 82.6443 48.1618 82.5723 49.4622 82.2115C50.2884 81.9823 51.2321 81.8768 52.173 81.7325C53.0224 81.6023 54.0137 81.5291 55.4311 81.2405C55.9817 81.1284 56.964 81.0945 57.6516 81.0223C58.3023 80.9541 59.1146 80.7763 59.6214 80.6746C60.2916 80.5401 61.5729 80.486 62.4887 80.4139C63.517 80.3328 64.212 80.3121 65.8471 80.0236C66.5561 79.8984 67.484 79.8775 68.3424 79.8054C69.1098 79.7409 69.7476 79.7037 71.1071 79.4872C71.8888 79.3628 72.5883 79.269 72.9365 79.1969C73.28 79.1257 73.861 79.0952 74.4282 79.023C74.9624 78.9551 75.4848 78.8066 76.3536 78.6032C77.0065 78.4503 78.0596 78.4867 79.1931 78.3424C79.7729 78.2686 80.2953 78.2259 80.7161 78.1537C81.3036 78.053 81.8305 78.052 82.6702 77.9077C83.5305 77.7599 84.0628 77.7913 84.4109 77.7191C84.7866 77.6413 85.3076 77.4731 86.6528 77.4292C87.4255 77.404 88.35 77.2992 89.0459 77.2554C89.2819 77.2405 89.5105 77.1828 89.7278 77.2975C90.0391 77.4619 89.773 77.9642 89.6865 78.195C89.409 78.9357 88.2161 79.469 87.399 79.8041C86.6557 80.1089 86.1247 80.253 83.4377 80.6729C82.3363 80.845 81.6053 80.8337 80.2227 80.9628C79.2093 81.0574 77.578 81.3501 76.6209 81.4831C74.9763 81.7116 74.0148 81.703 72.6735 81.789C71.8173 81.844 70.6151 82.0472 69.6502 82.2076C67.9919 82.4832 67.1728 82.6592 66.7551 82.7022C65.9582 82.7843 65.2612 82.92 64.5554 82.9773C63.2402 83.0842 62.104 83.2677 61.5112 83.282C60.5647 83.3049 59.7579 83.412 58.2688 83.4989C56.203 83.6195 55.7575 83.8466 55.106 83.8905C54.7146 83.9169 54.3371 83.9631 53.5456 84.0492C50.6129 84.368 49.9925 84.5994 49.3827 84.6729C48.8304 84.7394 47.9671 84.8602 46.9365 84.9623C45.2903 85.1255 44.6603 85.2375 44.2244 85.3392C43.7143 85.4582 43.2973 85.4409 42.9205 85.513C42.2631 85.6389 41.444 85.7016 40.9938 85.7738C40.4333 85.8636 40.081 85.8755 39.6464 85.9476C39.1865 86.024 38.7197 86.0494 37.4519 86.1215C35.0153 86.2602 33.5006 86.0502 33.7175 85.9055C34.1807 85.5964 35.0914 85.3261 35.8172 85.1662C36.5488 85.005 37.4089 84.8046 38.3081 84.7168C38.8885 84.6601 39.4682 84.5716 39.9741 84.5572C40.4531 84.5437 41.3762 84.4847 42.821 84.4273C44.3887 84.365 45.4375 84.137 46.0147 84.1083C46.8249 84.068 47.8106 83.9631 48.7077 83.9488C49.3193 83.939 50.0133 83.8762 52.3008 83.7041C54.1322 83.5663 57.3135 83.1877 60.2877 82.953C63.2619 82.7183 65.9297 82.6036 67.3901 82.5301C69.0237 82.4479 69.372 82.3984 70.7085 82.2406C71.8755 82.1029 74.0244 81.7673 75.1901 81.6048C76.8454 81.3739 77.5432 81.211 78.4394 81.0371C79.41 80.8488 80.5266 80.8337 81.1789 80.7616C81.7719 80.696 82.2947 80.5451 83.2778 80.2843C84.317 80.0087 85.2745 79.648 86.9709 79.299C87.3672 79.2175 87.5694 79.1247 87.7863 79.0091C87.89 78.9538 87.9745 78.8935 87.861 78.8926C87.7476 78.8918 87.4321 78.9491 87.0687 79.0504C86.7053 79.1517 86.3037 79.2951 82.927 79.871C79.5504 80.4469 73.2108 81.4509 69.8301 81.9681C66.4495 82.4853 66.2201 82.4853 65.8723 82.5284C65.0616 82.6287 64.4207 82.7461 63.6435 82.8178C61.9987 82.9696 60.7123 83.1808 60.2499 83.1951C59.7857 83.2095 59.3215 83.2677 58.7013 83.2964C57.7626 83.3398 56.9745 83.4415 55.7375 83.4989C54.7295 83.5457 52.9515 83.671 52.0783 83.7158C51.2051 83.7606 51.2912 83.7319 51.3929 83.6884C51.4946 83.6449 51.6093 83.5876 53.2175 83.2712C54.8256 82.9547 57.9237 82.381 60.8966 82.0281C63.8695 81.6752 66.6234 81.5604 68.3002 81.4439C70.5003 81.2911 71.1115 81.0371 71.3996 80.9072C72.6499 80.3433 73.8923 80.3417 74.2404 80.2978C74.3282 80.2867 74.4138 80.2548 74.3721 80.2687C74.3304 80.2826 74.1583 80.34 71.9181 80.642C69.678 80.9441 65.3751 81.4891 63.0294 81.7699C60.6837 82.0507 60.4255 82.0507 60.5793 82.0507C62.0704 82.0507 62.7925 81.9638 63.3145 81.9638C63.4578 81.9638 62.1953 82.1654 60.9618 82.2676C60.5136 82.3047 59.8257 82.3967 57.7068 82.4553C55.588 82.514 52.0596 82.5427 49.826 82.6005C47.5924 82.6583 46.7605 82.7444 46.1885 82.7887C45.3311 82.8552 44.2022 82.9191 42.8271 83.0495C41.5043 83.1749 40.3453 83.2677 39.5177 83.3398C38.3167 83.4445 37.162 83.4415 36.4296 83.3694C35.818 83.3091 34.8949 83.0938 34.5172 83.0217C34.1726 82.9558 33.8223 82.7479 33.4598 82.3997C33.0659 82.0214 32.7496 81.7047 32.6183 81.3279C32.446 80.8332 32.4879 80.4582 32.4875 80.313C32.4863 79.9255 33.066 81.0928 33.3846 81.4839C33.9044 82.1222 34.4273 82.687 34.8476 82.9048C35.2106 83.0928 35.4713 83.2964 35.5586 83.3398C35.8745 83.497 34.6915 83.0365 34.1704 82.6609C33.636 82.2758 33.3876 81.8212 32.9239 81.0106C32.7813 80.7615 32.72 80.5451 32.6761 80.3999C32.5893 80.1129 33.2103 80.9763 33.5584 81.4261C33.8791 81.8405 34.3682 82.3376 34.7898 82.6727C34.8876 82.7504 35.0062 82.8313 35.0079 82.8326C35.3991 83.126 34.3143 81.9081 34.1543 81.4439C33.9911 80.9702 33.7353 80.4026 33.4306 79.894C32.8684 78.9556 32.4036 77.7669 32.1406 77.228C31.8618 76.6565 31.6195 76.2579 31.4596 75.7072C31.3016 75.1634 31.011 74.608 30.7933 73.983C30.639 73.5402 30.6042 73.1859 30.4312 72.766C29.9806 71.6722 30.1991 70.2599 30.1552 69.7813C30.0719 68.8726 30.0253 67.5947 29.9814 66.8988C29.9535 66.4578 29.8514 65.9431 29.7354 65.435C29.5382 64.5719 29.5906 63.3926 29.5754 61.8318C29.5677 61.0414 29.7054 60.5814 29.8214 60.1611C29.9301 59.7674 30.1105 59.3644 30.3569 59.0019C30.8142 58.3292 31.4422 57.3946 31.8199 57.1178C32.1287 56.8914 32.5722 56.7844 32.8639 56.6249C33.1409 56.4734 32.1706 57.1008 31.7795 57.4198C31.183 57.9063 30.9537 58.3178 30.692 58.6659C30.3809 59.0799 30.3434 59.8234 30.2713 60.5753C30.0939 62.4241 30.4303 63.184 30.5168 63.7651C30.5346 63.8843 30.5746 63.9681 30.6325 63.9837C30.6903 63.9994 30.7763 63.942 30.8207 63.7116C31.0346 62.6001 30.7781 61.7167 30.7059 60.93C30.6263 60.0625 30.7781 59.4826 30.8502 58.9154C30.8849 58.643 30.9224 58.4073 31.0523 58.2483C31.3259 57.9133 31.7325 57.7406 32.8739 57.4516C33.4203 57.3132 33.7327 57.1608 33.8201 57.1317C34.1752 57.0133 32.8382 57.5076 32.4166 57.6237C31.9263 57.7587 31.4752 58.0292 30.9828 58.3182C30.7525 58.4534 30.5764 58.6951 30.4599 58.8546C30.2264 59.1744 31.6421 58.2065 32.2828 57.9436C32.9206 57.6818 33.3841 57.5668 33.8188 57.5229C34.0528 57.4992 34.3403 57.4503 34.5294 57.479C35.0926 57.5644 32.4975 58.1996 31.7356 58.5938C31.3255 58.806 31.1275 59.3314 30.765 59.7956C30.4044 60.2574 30.1991 60.5779 30.0109 61.0126C29.9146 61.2349 29.9088 62.0218 29.9518 62.9784C29.9653 63.2781 30.0809 63.1892 30.1252 63.0732C30.3452 62.4973 30.3434 61.8279 30.5886 60.4836C30.7192 59.7669 31.1814 59.3366 31.5448 58.9293C31.6206 58.8444 31.6751 58.7559 31.719 58.7833C31.8765 58.8815 31.7064 59.274 31.5465 59.7086C31.3735 60.1789 31.1849 60.6927 31.0536 61.1721C30.9571 61.5246 30.9519 62.1687 30.8798 62.895C30.8596 63.0975 30.865 63.3561 30.8793 63.4031C31.0031 63.8081 31.0093 62.5233 31.0962 61.7575C31.2853 60.0915 31.6178 59.5974 31.8203 59.118C31.9975 58.6986 32.341 58.2639 32.7322 57.7132C32.9745 57.3721 33.6136 57.0469 34.509 56.6132C35.5276 56.1197 36.397 56.0307 37.046 55.9299C38.0724 55.7704 38.8606 55.6248 39.7094 55.5244C41.5736 55.3039 42.9748 54.9589 43.4655 54.8433C44.6735 54.5587 45.78 54.38 46.6975 54.3065C47.0885 54.2752 47.4664 54.234 49.0324 54.0762C50.4281 53.9356 53.0367 53.6029 54.6253 53.4403C56.6971 53.2283 57.4334 53.2491 57.9102 53.2056C59.0807 53.0989 60.1856 53.017 61.3287 52.8005C61.9795 52.6773 62.6769 52.5823 63.4023 52.438C63.8058 52.3578 64.1564 52.3216 64.8218 52.1773C65.3926 52.0535 66.0375 52.0608 66.5756 51.9886C67.2817 51.894 68.0925 51.8869 69.4229 51.8148C70.255 51.7696 71.8338 51.8 72.704 51.8143C74.0097 51.8359 74.5877 51.9443 75.3109 51.9882C75.8711 52.0222 76.3836 52.1477 76.9199 52.2342C77.4285 52.3162 77.8909 52.3789 78.4555 52.4228C79.2505 52.4846 80.4118 52.5528 80.9764 52.5967C81.3805 52.6281 81.7731 52.7562 82.1508 52.9148C82.4937 53.0589 82.8458 53.2186 83.2661 53.595C83.6423 53.932 83.948 54.3191 84.2227 54.7394C84.4977 55.1601 84.8451 55.6231 85.0203 55.9712C85.1852 56.299 85.3667 56.8383 85.5418 57.2895C85.7127 57.7296 85.8604 58.144 85.9908 58.5786C86.1272 59.0332 86.295 59.4757 86.3389 59.8973C86.3903 60.3901 86.6428 60.8387 86.6867 61.1868C86.7311 61.5397 86.8166 61.8818 86.9183 62.23C87.0167 62.5667 87.0774 62.925 87.1934 63.3883C87.3361 63.9579 87.3382 64.3732 87.3821 64.9673C87.4136 65.3935 87.512 65.9083 87.5559 66.4742C87.6198 67.2981 87.6859 68.4014 87.7876 68.8504C87.9002 69.3477 87.9467 69.7627 87.9906 70.3133C88.0847 71.4945 88.0058 73.1824 87.9619 73.6748C87.9277 74.0579 87.8319 74.5141 87.7159 75.0222C87.5998 75.5303 87.4268 75.9345 87.2669 76.3122C87.1069 76.6901 86.761 77.0645 86.0377 77.803C85.5234 78.3281 84.8781 78.6014 84.5004 78.8335C84.411 78.8885 84.327 78.9491 84.3257 78.993C84.3224 79.1046 85.245 78.6362 86.6332 77.6826C88.6362 76.3067 88.7568 75.6198 89.2923 74.681C89.9807 73.4741 89.8591 72.753 89.903 71.9402C89.9573 70.9342 89.8608 75.2043 89.773 76.1079C89.6866 76.9975 89.2819 77.5566 88.905 77.9638C88.2643 78.6563 86.907 78.8048 85.7783 79.1373C85.542 79.2069 85.4571 79.2395 85.4414 79.2112C85.3825 79.1048 85.657 78.8935 86.2325 78.2607C87.5195 76.8453 88.496 75.5059 88.7712 74.8835C89.0101 74.3431 88.9611 74.0256 88.9615 73.8947C88.9632 73.3932 88.0666 75.2652 87.226 76.1657C86.6742 76.7569 86.182 76.9498 85.7613 77.1962C85.1178 77.5731 84.4435 77.7321 83.8793 77.863C83.1354 78.0355 82.5876 78.2259 82.5146 78.2402C82.1322 78.3153 83.4247 77.9947 84.0762 77.72C85.0983 77.289 86.2638 76.7203 86.9739 76.2574C87.5869 75.8579 87.9754 75.3582 88.0771 75.2708C88.3166 75.065 86.9974 76.0197 85.8648 76.616C85.4787 76.8193 85.1094 76.9211 84.49 77.1663C83.3486 77.618 82.2138 77.8773 81.5914 78.0077C81.2323 78.0829 80.9655 78.1094 80.1315 78.3254C78.2256 78.819 76.7643 79.0656 76.2741 79.1956C74.8682 79.5682 74.3304 79.6741 73.3911 79.9488C72.5143 80.2052 72.0998 80.2252 71.3631 80.4412C69.5156 80.9829 68.4541 81.1223 67.5796 81.3257C66.9809 81.465 66.2757 81.6439 65.3504 81.8903C64.2708 82.1778 63.6974 82.3688 63.0737 82.4127C62.942 82.4271 62.856 82.4558 62.7686 82.4706C62.6812 82.4853 62.5952 82.4853 62.3327 82.5723" stroke="#F4C03A" stroke-width="2" stroke-linecap="round"/>
<path d="M33.318 57.1373C32.4124 61.1218 31.7648 63.9895 31.2866 65.7677C30.3168 69.3745 29.7972 70.6688 29.7492 71.3384C29.7341 71.5484 30.3817 70.7758 31.43 69.2295C32.4783 67.6831 34.1083 65.057 35.1065 63.3419C37.0622 59.9815 37.0665 58.3804 37.1146 57.3897C37.1404 56.8569 36.3421 59.8664 35.1113 63.0132C33.7512 66.4909 32.9503 68.0248 33.3153 67.5006C33.7462 66.8817 34.0027 66.1052 34.3217 65.33C34.6862 64.4443 35.5531 62.2318 36.4676 59.3751C36.9249 57.9469 36.9307 57.3678 36.9767 57.0028C36.9996 56.8204 36.9321 56.6378 36.8182 56.6125C36.7043 56.5871 36.5232 56.7229 35.4564 58.7625C34.3896 60.8021 32.4426 64.7414 31.417 66.8386C30.3913 68.9359 30.3461 69.0717 30.4133 69.119C30.4805 69.1664 30.6616 69.1211 31.9322 66.8565C33.2028 64.5918 35.5573 60.1092 36.7928 57.8679C38.0284 55.6266 38.0737 55.7624 37.9611 56.4663C37.8486 57.1702 37.577 58.438 36.5314 61.0834C35.4859 63.7288 33.6747 67.7133 32.7644 69.698C31.854 71.6828 31.8993 71.5469 33.2357 69.0998C34.5721 66.6527 37.1983 61.8984 38.6191 59.2455C40.0399 56.5926 40.1757 56.185 40.223 56.1562C40.2704 56.1274 40.2251 56.4897 39.9754 57.4234C39.7257 58.3571 39.2729 59.8513 38.0208 62.9302C36.7688 66.0092 34.7313 70.6276 35.1985 70.4712C35.6656 70.3148 38.6993 65.2436 40.4433 62.2236C42.6312 58.4347 42.9679 57.3225 42.9912 57.1606C43.0541 56.7238 42.6043 58.4133 42.1714 59.688C41.895 60.5019 41.6027 61.6871 40.6017 64.6028C39.6008 67.5185 37.9255 72.1369 37.0398 74.6293C36.1541 77.1217 36.1088 77.3481 36.3798 76.8761C36.6508 76.4041 37.2394 75.2269 38.1992 72.9904C39.159 70.7539 40.4721 67.4938 41.3749 64.8182C42.2777 62.1426 42.7305 60.1504 42.8959 59.192C43.0612 58.2336 42.9254 58.3694 42.5837 59.1638C42.2421 59.9583 41.6987 61.4072 40.2416 64.1685C38.7844 66.9299 36.4299 70.9597 35.3075 72.8998C34.1852 74.8399 34.3663 74.5683 34.9124 73.4322C35.4585 72.2961 36.364 70.3038 38.0078 67.2173C39.6516 64.1308 42.0061 60.0104 43.1284 57.8878C44.2508 55.7652 44.0697 55.7652 43.8632 55.901C43.3665 56.2278 42.9254 56.8148 41.9025 57.8144C39.8484 59.8216 38.1711 61.7063 37.6655 62.166C36.3751 63.339 40.5352 60.2053 43.1524 59.43C44.8407 58.93 47.3545 58.5642 51.9201 58.1272C56.4857 57.6902 63.0511 57.2827 66.2296 57.1407C69.408 56.9987 69.0005 57.1345 63.9005 57.4083C58.8004 57.682 49.0202 58.0895 48.0796 57.7787C47.139 57.4679 55.3345 56.4265 61.0053 55.9127C66.6762 55.3988 69.574 55.4441 71.1348 55.4901C72.6955 55.536 72.8314 55.5813 67.3094 55.7405C61.7874 55.8997 50.6036 56.1713 44.978 56.3113C39.3524 56.4512 39.6241 56.4512 45.2655 56.2022C50.9068 55.9532 61.9096 55.4551 68.3474 55.2438C74.7852 55.0325 76.3247 55.1231 77.0498 55.215C77.775 55.3069 77.6392 55.3975 70.6189 56.1459C63.5986 56.8944 49.698 58.2981 42.3559 59.0212C35.0139 59.7442 34.6517 59.7442 34.6009 59.7442C34.5501 59.7442 34.8218 59.7442 41.3234 58.9971C47.8251 58.25 60.5484 56.7558 68.7556 55.9408C76.9627 55.1258 80.2681 55.0352 81.9029 55.0112C83.5378 54.9872 83.4019 55.0325 79.1889 55.5086C74.9759 55.9847 66.6899 56.8903 61.5158 57.3794C56.3416 57.8686 54.5305 57.9139 53.6654 57.8919C52.8003 57.87 52.9361 57.7794 55.6096 57.0989C58.2831 56.4183 63.4902 55.1505 67.4404 54.3615C71.3907 53.5726 73.9263 53.3009 75.9117 53.161C77.8971 53.021 79.2555 53.021 79.8194 53.1116C80.3833 53.2021 80.1117 53.3832 79.7906 53.5445C79.4695 53.7057 79.1073 53.8415 76.2266 54.3416C73.3459 54.8418 67.9577 55.7021 63.8915 56.2358C59.8254 56.7696 57.2445 56.9507 59.3787 56.6365C61.513 56.3223 68.4407 55.5072 72.3038 55.0874C76.7491 54.6042 77.5884 54.7128 77.8861 54.8493C77.9914 54.8976 77.8669 55.0764 77.6392 55.2369C77.4114 55.3975 77.0492 55.5786 75.2325 56.1473C73.4159 56.716 70.1558 57.6669 63.473 58.8812C56.7903 60.0955 46.7837 61.5444 41.923 62.2003C37.0624 62.8561 37.6511 62.675 40.8521 61.7441C44.0532 60.8131 49.8489 59.1378 54.4646 58.0936C59.0803 57.0495 62.3404 56.6872 64.3141 56.5006C66.2879 56.314 66.8765 56.314 63.2631 57.1517C59.6497 57.9893 51.8165 59.6647 44.9965 60.7767C38.1766 61.8888 32.6073 62.3869 29.8741 62.6661C27.1409 62.9453 27.4125 62.9906 31.8766 62.7649C36.3407 62.5392 44.989 62.0411 49.9875 61.8298C54.986 61.6185 56.0727 61.7091 56.9721 61.8236C58.5576 62.0256 59.6127 62.3498 60.2294 62.6009C60.4882 62.7063 60.6198 62.8067 60.6219 63.0119C60.6273 63.5508 60.0764 64.0869 59.1441 64.7469C58.4991 65.2034 57.442 65.8144 53.4191 67.0691C49.3961 68.3239 42.4232 70.1803 38.016 71.2499C33.6089 72.3194 31.9788 72.5458 36.0292 71.3494C40.0797 70.1529 49.8599 67.5267 56.2113 65.9927C62.5627 64.4587 65.1888 64.0965 63.8023 64.6344C62.4159 65.1722 56.9371 66.6211 51.149 67.6845C45.3608 68.7479 39.4293 69.3818 35.9888 69.7083C32.5483 70.0349 31.7785 70.0349 31.5405 69.8538C31.3024 69.6727 31.6194 69.3104 32.3486 68.7616C33.0779 68.2128 34.2099 67.4883 37.9625 65.9831C41.7152 64.4779 48.0542 62.214 52.3612 60.844C56.6682 59.4739 58.751 59.0664 60.3673 58.8339C61.9836 58.6013 63.0703 58.556 63.5622 58.6459C64.0541 58.7358 63.9183 58.9622 62.988 59.5995C62.0577 60.2368 60.3371 61.2782 56.2813 62.7203C52.2254 64.1624 45.8863 65.9735 41.7831 67.0424C37.6799 68.1112 36.0046 68.3829 35.6169 68.2738C35.2293 68.1647 36.1802 67.6667 39.0019 66.6856C41.8236 65.7046 46.4873 64.2557 50.7236 63.2149C54.9599 62.1742 58.6275 61.5856 61.4904 61.2597C64.3532 60.9338 66.3002 60.8886 67.1448 60.9784C67.9893 61.0683 67.6723 61.2947 64.2716 62.249C60.8709 63.2033 54.396 64.8786 49.5436 65.8548C44.6912 66.8311 41.6576 67.0575 40.2306 67.0835C38.8036 67.1096 39.0753 66.9285 39.6454 66.6314C40.2155 66.3344 41.0758 65.9269 42.9226 65.3321C44.7694 64.7373 47.5767 63.9675 52.1245 63.1182C56.6723 62.2689 62.8755 61.3633 66.954 60.9194C71.0326 60.4756 72.7984 60.5208 73.7761 60.5894C74.7537 60.6581 74.8895 60.7486 74.8689 60.8858C74.813 61.2585 74.1637 61.5719 73.0948 62.0727C72.3549 62.4193 71.1657 62.8452 67.7519 63.5991C64.3381 64.3531 58.7236 65.3945 54.2917 65.9989C49.8599 66.6033 46.7809 66.7391 45.2627 66.7186C43.7445 66.698 43.8803 66.5169 44.8559 65.9708C45.8314 65.4247 47.6426 64.5191 50.8622 63.4413C54.0818 62.3636 58.655 61.141 63.2069 60.2396C67.7588 59.3381 72.1508 58.7948 74.6624 58.5149C77.174 58.2349 77.6721 58.2349 77.8834 58.3029C78.1089 58.3753 75.9638 59.8238 72.2441 61.9471C70.499 62.9433 68.9319 63.5724 66.7352 64.3524C64.5385 65.1324 61.7312 65.9927 60.1944 66.4359C58.6577 66.8791 58.4766 66.8791 58.7002 66.5848C58.9239 66.2905 59.5578 65.7018 61.5144 64.561C63.471 63.4201 66.7311 61.7447 69.384 60.5647C72.0369 59.3848 73.9839 58.7508 75.4397 58.3337C76.8955 57.9166 77.8011 57.7355 79.1052 57.5969C80.4094 57.4583 82.0847 57.3678 82.8798 57.4117C83.675 57.4556 83.5391 57.6367 83.0843 58.0243C82.6294 58.4119 81.8597 59.0006 80.2406 59.9151C78.6216 60.8296 76.1765 62.0521 73.2416 63.2026C70.3067 64.3531 66.9561 65.3945 65.0489 65.9536C63.1417 66.5127 62.7795 66.558 63.3173 65.9927C63.8552 65.4274 65.3041 64.2502 66.7976 63.2362C68.2911 62.2222 69.7853 61.4072 71.7323 60.5119C73.6793 59.6166 76.0338 58.6658 78.0391 58.0175C81.5764 56.8739 83.3978 56.8162 83.6036 57.044C84.1548 57.654 83.037 59.3244 80.5761 62.9522C78.8464 65.5022 77.1809 66.6033 76.9744 66.7412C76.8301 66.8375 78.2209 64.928 80.1604 61.7351C82.1466 58.4653 82.9409 56.4526 83.0328 56.609C83.1809 56.861 82.9436 57.6257 82.9196 59.4026C82.8956 61.1794 82.9409 63.9867 82.9869 65.614C83.0431 67.6049 83.17 68.1579 83.3066 68.4776C83.3717 68.6302 83.5336 68.7067 83.6942 68.7081C83.8547 68.7095 84.0358 68.6189 84.1971 68.4817C84.5286 68.1995 84.7699 67.0712 84.9757 65.3142C85.304 62.5116 84.6368 61.1218 84.112 60.1854C83.8834 59.7775 83.6324 59.5659 83.4705 59.7888C83.3086 60.0118 83.2181 60.691 83.262 62.9199C83.3059 65.1489 83.487 68.907 83.6482 71.0468C83.8094 73.1866 83.9453 73.5941 84.1058 73.804C84.2663 74.0139 84.4475 74.0139 84.6087 73.7649C85.0456 73.09 85.091 72.1424 85.1369 71.0729C85.212 69.3252 84.8646 67.3003 84.3864 65.2484C83.8353 62.8836 83.0809 61.3029 82.8291 60.8447C82.7717 60.7401 82.8037 60.9297 83.2798 62.5625C83.7559 64.1953 84.6615 67.2743 85.2865 69.766C85.9115 72.2577 86.2284 74.0688 86.4143 74.8207C86.6003 75.5726 86.6455 75.2104 86.6462 74.82C86.6476 74.0209 86.555 72.1987 86.5097 69.755C86.4786 68.0758 86.2353 67.2921 86.1893 67.1995C85.8426 66.5009 86.3711 69.1595 86.3725 73.8349C86.373 75.4275 85.917 76.2518 85.4381 76.8452C84.982 77.4105 84.2718 77.7625 83.0212 78.1954C82.1486 78.4974 80.7291 78.7641 75.7045 79.2217C70.6799 79.6793 62.077 80.2679 57.713 80.5259C53.3491 80.7838 53.4849 80.6933 53.6681 80.6466C53.8513 80.6 54.0777 80.6 58.1109 79.9434C62.1442 79.2869 69.9774 77.9738 73.8543 77.2973C77.7311 76.6209 77.4141 76.6209 72.6324 77.1416C67.8507 77.6623 58.6138 78.7037 52.814 79.2629C47.0142 79.822 44.9313 79.8673 46.643 79.4831C48.3547 79.0989 53.924 78.2839 58.1514 77.864C62.3788 77.4442 65.0955 77.4442 66.3366 77.5347C67.5776 77.6253 67.2607 77.8064 62.4337 78.2846C57.6067 78.7627 48.2792 79.5325 43.5874 79.9517C38.8955 80.3708 39.1219 80.4161 42.8835 80.2357C46.6451 80.0552 53.935 79.6477 57.464 79.5284C60.993 79.409 60.5402 79.5901 56.662 80.272C52.7838 80.954 45.4939 82.1312 41.3084 82.7377C37.1228 83.3441 36.2625 83.3441 36.0457 83.2309C35.6791 83.0395 37.2916 82.477 41.2617 81.8177C44.6749 81.2509 50.9823 80.5698 54.8584 80.1732C59.9908 79.6482 61.4444 79.822 61.4691 79.9812C61.4935 80.1384 60.9957 80.2761 60.2658 80.4826C59.5358 80.6891 58.4492 80.9155 53.1577 81.2133C47.8662 81.511 38.403 81.8733 34.0034 81.8787C29.6038 81.8842 30.5546 81.522 34.8026 80.6109C39.0506 79.6999 46.5669 78.251 51.6388 77.4366C56.7107 76.6223 59.1105 76.4864 60.2109 76.4844C61.3113 76.4823 61.0397 76.6182 56.8699 77.2315C52.7001 77.8448 44.6405 78.9315 40.1942 79.4913C35.748 80.0511 35.1593 80.0511 35.3768 79.87C35.5943 79.6889 36.6357 79.3267 40.2285 78.5967C43.8213 77.8668 49.934 76.7801 53.1735 76.2203C56.413 75.6605 56.5941 75.6604 52.6349 75.8416C48.6758 76.0227 40.5709 76.3849 36.2371 76.5489C31.9034 76.7128 31.5864 76.6676 31.5137 76.599C31.441 76.5304 31.6221 76.4398 35.066 75.8724C38.51 75.3051 45.2113 74.2637 49.3879 73.7045C53.5645 73.1454 55.0134 73.1001 52.0244 73.5296C49.0353 73.9591 41.5642 74.8646 37.4439 75.3311C33.3235 75.7977 32.7801 75.7977 32.6814 75.7071C32.5826 75.6165 32.9448 75.4354 37.1612 74.346C41.3776 73.2566 49.4373 71.2643 53.793 70.2153C58.1487 69.1664 58.5562 69.1211 58.6076 69.1657C58.6591 69.2103 58.3421 69.3461 54.5113 69.9594C50.6804 70.5728 43.3452 71.6594 39.2269 72.2193C35.1086 72.7791 34.4294 72.7791 34.4191 72.598C34.4088 72.4168 35.088 72.0546 38.8564 71.0303C42.6249 70.0061 49.462 68.3308 54.5915 67.3772C59.7211 66.4236 62.9359 66.2424 64.6825 66.1718C66.4292 66.1011 66.6103 66.1464 66.4546 66.2829C66.2989 66.4194 65.8008 66.6458 61.3106 67.3964C56.8205 68.1469 48.3533 69.4147 42.8369 70.0905C37.3204 70.7662 35.0112 70.8115 34.048 70.7443C33.0848 70.677 33.5375 70.4959 39.6344 69.4518C45.7313 68.4076 57.4585 66.5059 64.2016 65.5036C70.9447 64.5013 72.3484 64.456 72.7319 64.5232C73.1154 64.5905 72.4362 64.7716 68.5546 65.295C64.6729 65.8185 57.6094 66.6788 53.2688 67.0993C48.9282 67.5199 47.5246 67.4746 46.7109 67.406C45.8973 67.3374 45.7162 67.2468 45.7361 67.087C45.756 66.9271 45.9824 66.7007 47.2762 66.0634C48.5701 65.4261 50.9246 64.3846 53.8129 63.3954C56.7011 62.4061 60.0517 61.5005 63.4758 60.8529C66.8998 60.2053 70.2958 59.843 72.3848 59.6564C75.1482 59.4096 76.1244 59.5151 76.3775 59.7875C76.8662 60.3132 75.3985 61.1589 73.9448 62.273C72.8428 63.1176 70.861 64.338 69.6317 65.1043C68.4023 65.8706 67.9495 66.097 67.6483 66.2589C67.3471 66.4208 67.2113 66.5114 68.2054 65.3129C69.1995 64.1143 71.3276 61.624 72.5144 60.2732C73.8479 58.7555 74.2048 58.5107 74.4559 58.4181C74.7742 58.3007 75.1173 60.2794 75.7114 62.6318C76.1069 64.1978 76.263 65.1832 76.5593 65.7999C76.6897 66.0712 76.901 66.1903 77.1075 66.2376C77.314 66.285 77.5404 66.2397 77.7476 66.0805C78.2075 65.7272 78.4583 64.9623 78.732 63.9373C79.1083 62.5283 79.1457 60.3974 79.1231 58.2953C79.1102 57.097 78.9179 56.454 78.7128 55.9518C78.6155 55.7135 78.4624 55.5402 78.3245 55.6053C78.1866 55.6705 78.0508 55.9875 77.9808 57.577C77.9108 59.1666 77.9108 62.0192 77.9335 63.6924C77.9616 65.7741 78.0933 66.3742 78.2298 66.6712C78.2915 66.8053 78.4569 66.8324 78.5495 66.7878C78.7541 66.6893 78.7794 66.1505 78.8253 64.2666C78.8635 62.7002 78.7807 59.8924 78.7348 58.2878C78.6797 56.3648 78.5969 55.8132 78.6195 55.606C78.652 55.3091 78.9152 56.5843 79.5518 58.379C80.04 59.7551 80.7318 62.1207 81.3314 63.7638C81.931 65.4068 82.3838 66.2671 82.6397 66.5292C82.8615 66.7563 82.9423 63.8372 82.7605 59.7964C82.6166 56.5985 82.119 55.0805 82.0957 55.1237C81.7697 55.7278 82.5732 57.2196 83.0301 58.9086C83.4071 60.3025 83.535 61.5225 83.7635 62.5495C84.2838 64.8886 84.9071 67.3785 85.1808 67.8594C85.3165 68.0978 85.5492 66.027 85.3222 62.8774C85.0104 58.5527 83.9947 57.9619 83.8575 57.9146C83.7629 57.8819 83.8108 58.32 84.2183 59.8417C84.6258 61.3633 85.4408 64.08 85.9739 65.7286C86.6745 67.8952 87.0119 68.5242 87.1031 68.6395C87.5725 69.2324 86.9227 66.429 86.1921 62.8911C85.9374 61.658 85.4148 60.6196 84.9345 59.8629C84.8251 59.6904 84.7713 60.1476 85.2241 62.9385C85.6768 65.7293 86.5824 70.8911 87.0489 73.6634C87.5154 76.4357 87.5154 76.6621 87.0853 76.9372C86.6551 77.2123 85.7948 77.5292 84.2876 77.8736C82.7804 78.218 80.6523 78.5803 77.9033 78.9253C75.1543 79.2704 71.849 79.5874 70.282 79.7054C68.7151 79.8234 68.9868 79.7328 69.2626 79.6182C69.5384 79.5037 69.81 79.3678 71.9875 78.7092C74.165 78.0506 78.2401 76.8734 79.0263 76.3122C79.8125 75.751 77.1864 75.8416 75.3128 75.9561C73.4392 76.0707 72.3978 76.2065 71.6802 76.3218C70.9626 76.4371 70.6004 76.5276 71.9985 76.2573C73.3967 75.987 76.5662 75.3531 78.9234 74.9813C81.2807 74.6094 82.7296 74.5189 83.4081 74.5401C84.0866 74.5614 83.9508 74.6972 83.7449 74.8578C81.8809 76.3117 79.5587 78.4485 79.4661 78.6777C79.3638 78.9307 80.6029 77.9079 82.401 76.223C83.5455 75.1506 85.2405 73.7231 86.013 73.0219C86.6424 72.4506 84.7877 73.9536 82.001 76.3979C80.2481 77.9355 79.4668 78.5405 79.488 78.6784C79.8758 81.1925 84.9057 75.1144 84.8872 75.1102C84.5019 75.0246 83.7367 76.1928 82.5917 77.1107C80.1048 79.1044 78.3252 80.3228 78.7965 79.8968C79.5526 79.2133 81.3054 77.5237 82.3509 76.5701C84.1181 74.9584 84.9057 74.3817 85.0683 74.2884C85.7238 73.9122 83.133 75.4738 81.5359 76.0906C80.0841 76.6512 78.8301 76.6209 78.1667 76.5304C77.8516 76.4873 78.7272 75.2118 80.0053 73.6819C81.0115 72.4775 82.4758 71.5044 83.983 70.522C84.9891 69.8662 85.729 69.7152 86.1406 69.873C86.3709 69.9613 86.2806 70.5288 86.1447 70.9432C85.8715 71.7766 84.5517 72.8175 82.4552 74.3227C79.9494 76.1217 78.1866 76.8034 78.2298 76.4419C78.4004 75.0153 80.2351 73.3375 81.7191 71.6704C82.8173 70.4366 83.9425 69.6727 85.0375 68.988C87.0026 67.7591 88.2907 67.8396 88.7016 67.9528C88.9103 68.0102 89.022 68.2923 89.092 68.5448C89.3798 69.5834 88.3881 70.7154 86.4274 72.7928C84.1066 75.2516 82.8078 75.3847 82.2144 75.5905C81.9449 75.6839 81.7115 75.6604 81.6628 75.4114C81.5184 74.6732 82.388 72.9739 83.3916 70.76C83.8679 69.7096 84.3953 68.8631 84.6293 68.5558C84.7455 68.403 84.3638 69.6603 83.2709 71.7335C81.7777 74.5661 80.7456 75.9362 80.9054 75.5493C81.1436 74.9726 81.0666 73.1139 81.0214 70.6695C80.9701 67.9011 79.6534 65.8336 79.0332 65.2333C78.8568 65.0626 78.8246 67.8162 79.0524 71.7226C79.2578 75.2454 79.9223 75.7963 80.1274 75.9342C80.2225 75.9981 80.3778 75.8004 80.4931 75.572C80.6084 75.3435 80.6989 75.0265 80.7682 73.0521C80.8375 71.0777 80.8828 67.4554 80.8835 65.8384C80.8839 64.7185 80.8828 67.6324 81.0426 71.4269C81.1148 73.1409 81.2491 73.6009 81.363 73.7388C81.4954 73.8992 81.6607 73.1482 81.7067 71.6718C81.8048 68.5213 81.5249 66.1052 81.2292 65.33C81.0649 64.8991 80.7071 64.4642 80.4759 64.4347C80.2448 64.4052 80.1089 64.8127 79.9031 66.1999C79.6973 67.5871 79.4256 69.9416 79.2857 71.3583C79.1058 73.179 79.191 74.0098 79.3049 74.6952C79.3518 74.9775 79.464 75.1089 79.6012 75.043C81.1518 74.2987 80.29 70.4108 79.9251 68.5098C79.5424 66.5166 77.8258 65.4658 76.5888 64.8909C76.3302 64.7707 76.086 64.821 75.9014 64.8662C75.5634 64.9492 75.26 66.001 74.9629 68.6182C74.7694 70.3229 74.8017 72.8202 74.8463 74.239C74.8909 75.6577 75.0267 75.9294 75.1872 76.1599C75.3478 76.3904 75.5289 76.5715 75.7127 76.6875C75.8966 76.8034 76.0777 76.8487 76.2389 76.8041C76.5739 76.7114 76.9023 75.8951 77.3586 74.4146C77.9825 72.3897 78.1386 70.0911 78.2532 68.3095C78.3268 67.1639 78.0494 66.3797 77.6172 65.6723C77.38 65.2842 76.868 65.0103 76.499 64.847C76.1299 64.6838 75.8582 64.6838 75.673 64.8196C75.4877 64.9554 75.3972 65.2271 75.2826 67.0424C75.168 68.8576 75.0322 72.2083 74.9849 74.0702C74.9375 75.9321 74.9828 76.2038 75.0514 76.4117C75.12 76.6195 75.2106 76.7554 75.3704 76.8254C75.5303 76.8953 75.7567 76.8953 75.9186 76.8274C76.6487 76.5211 76.7651 73.7121 77.0855 70.4925C77.4661 66.6678 75.9487 65.0103 75.192 64.2056C75.056 64.0609 74.895 64.0444 74.7344 64.1795C74.5739 64.3147 74.3928 64.6316 74.2995 66.606C74.2062 68.5805 74.2062 72.2028 74.2288 74.1367C74.2515 76.0707 74.2968 76.2065 74.4106 76.186C74.7623 76.1224 74.9828 74.2129 75.0974 71.4948C75.2225 68.5267 73.9839 66.4318 72.9521 65.1674C72.7453 64.914 72.428 64.8237 72.2427 65.1612C72.0575 65.4988 71.967 66.3138 72.0335 68.0241C72.1 69.7344 72.3264 72.3153 72.4883 73.7807C72.6811 75.5254 72.9247 75.9788 73.1298 76.2985C73.3131 76.5841 73.5654 74.5381 73.6114 71.1332C73.636 69.3128 73.339 68.3472 72.9741 67.5027C72.6578 66.771 72.0603 66.1958 71.4661 66.0106C71.2299 65.9369 71.1437 66.5498 71.165 68.3452C71.1862 70.1405 71.3221 73.2648 71.46 75.1006C71.5979 76.9365 71.7337 77.3893 71.8716 77.4414C72.2585 77.5877 72.2853 75.0828 72.24 72.2728C72.1955 69.5129 71.1464 67.7106 70.3897 66.676C70.2548 66.4916 70.0927 66.4236 69.9548 66.3543C69.8169 66.285 69.6811 66.2397 69.6111 66.4428C69.3962 67.0664 69.9486 69.3763 70.6793 72.9355C71.3675 76.2881 71.5979 78.4005 71.849 78.9274C72.3004 79.8746 71.8297 75.3504 71.2157 73.0713C70.4266 70.1422 69.2228 68.527 68.9031 68.5023C68.3787 68.4618 68.6259 69.9375 68.853 71.7575C69.2403 74.8614 69.6783 77.1656 69.7236 78.0095C69.7471 78.4475 69.8594 78.8986 69.9514 78.8375C70.0433 78.7765 70.1338 78.1878 70.0899 76.481C70.046 74.7741 69.8649 71.9668 69.6811 70.2942C69.4454 68.1507 68.8578 67.2496 68.4235 66.6314C68.2902 66.4417 68.2157 66.6019 68.1923 66.8983C68.169 67.1947 68.169 67.6475 68.418 69.2164C68.6671 70.7854 69.1652 73.4569 69.4897 74.9916C69.8141 76.5262 69.95 76.8432 69.9747 76.3499C70.0651 74.5446 69.5438 72.1493 68.9511 70.1865C68.4238 68.4405 67.7135 67.476 67.3711 67.1103C67.2255 66.9548 67.0741 66.9257 66.9588 67.2873C66.8436 67.6488 66.753 68.4186 66.8648 69.8339C66.9767 71.2492 67.2936 73.2867 67.5475 74.676C67.9274 76.7552 68.2596 77.6253 68.4194 77.8318C68.5168 77.9576 68.3995 75.6797 68.0572 72.504C67.7324 69.4906 66.7544 67.8917 66.2062 66.9086C66.0023 66.5428 65.8392 66.5141 65.7919 67.3058C65.7445 68.0975 65.7898 69.7275 65.9263 71.5181C66.0629 73.3087 66.2893 75.2104 66.4285 76.2806C66.5678 77.3509 66.6131 77.532 66.5911 76.4707C66.5692 75.4094 66.4786 73.1001 66.2961 71.3446C65.9939 68.4372 65.4715 67.1096 65.3116 67.0389C65.1924 66.9862 65.1971 67.5569 65.2643 69.2158C65.3315 70.8746 65.5127 73.7725 65.606 75.1068C65.6772 76.126 65.1559 73.4884 64.2874 69.8764C63.9735 68.5709 63.8716 68.3472 63.7797 68.1627C63.6878 67.9781 63.5972 67.8423 63.5732 68.1798C63.5492 68.5174 63.5945 69.3324 63.8442 70.7937C64.4528 74.3551 65.1038 76.6195 65.241 76.5084C65.9264 75.9532 65.0612 74.0236 64.4013 71.9263C63.5965 69.3688 62.5901 67.9781 62.4076 67.9308C61.9772 67.8192 62.1771 69.1156 62.4268 70.4808C63.1878 74.6409 64.1872 75.8388 64.4856 76.2758C64.5032 76.3015 64.286 75.762 63.8072 74.2602C63.3283 72.7585 62.6038 70.2681 62.1853 68.9173C61.7669 67.5665 61.6763 67.4307 61.6296 67.5192C61.583 67.6077 61.583 67.9246 61.8547 69.6047C62.1263 71.2849 62.6697 74.3185 62.9722 75.7682C63.2748 77.2178 63.3201 76.9914 63.117 75.6975C62.9139 74.4036 62.4611 72.0491 62.092 70.5192C61.723 68.9894 61.4513 68.3555 61.266 68.1421C61.0808 67.9287 60.9903 68.1551 61.1474 69.7433C61.3045 71.3315 61.712 74.2746 61.9445 75.8587C62.1771 77.4428 62.2224 77.5786 62.1778 77.558C61.9321 77.4446 61.2688 75.2228 60.3317 72.0237C59.8244 70.2922 59.5276 68.9907 59.116 68.2546C58.6744 67.4649 59.0666 70.7141 59.4528 72.6261C60.0671 75.6666 60.8503 77.6253 61.0328 77.6733C61.6262 77.8295 61.218 75.8964 60.9223 74.1875C60.4003 71.9805 59.8473 70.1323 59.4364 69.1273C59.2518 68.7108 59.116 68.4844 58.976 68.2512" stroke="#F4C03A" stroke-width="2" stroke-linecap="round"/>
<path d="M57.4666 66.8789C57.4666 66.9242 57.4666 66.9695 57.693 68.3285C57.9194 69.6876 58.3722 72.359 58.6281 73.8031C58.884 75.2473 58.9293 75.3831 58.9526 75.3625C59.3799 74.9855 57.752 71.6181 56.9418 69.5332C56.6231 68.713 56.5995 71.8541 56.5515 74.6923C56.5114 77.0596 56.7353 69.35 56.5988 69.0989C56.5286 68.9698 56.3717 68.8931 56.2565 68.937C54.9312 69.4419 55.1807 72.7267 54.8837 74.1228C54.7439 74.78 54.7225 75.4737 54.7451 75.9093C54.7867 76.7102 54.6786 73.292 53.9479 71.413C53.7026 70.7822 53.3065 70.4024 52.9641 70.2638C51.7081 69.7554 52.0702 72.9147 51.9563 73.2111C51.8937 73.374 51.7972 73.5527 51.7505 73.0801C51.5929 71.4825 51.5228 70.2186 51.1578 70.0814C50.5143 69.8395 49.9682 70.353 48.3347 71.6915C46.9255 72.8462 44.3467 74.977 41.9984 76.6845C39.6501 78.3921 37.6125 79.6146 36.4497 80.3123C35.0605 81.1459 34.6914 81.3311 34.4629 81.2412C32.7611 80.5718 35.4666 76.6729 35.741 75.3906C36.0006 74.1778 35.9249 73.2399 35.8796 73.008C35.7308 72.2462 35.2429 75.6026 34.5349 77.8165C34.2062 78.8445 34.0533 79.7134 34.028 80.066C34.0026 80.4187 34.1384 80.2375 34.2537 79.9631C34.5128 79.3462 34.7339 77.6855 35.0083 75.3118C35.4141 71.802 34.7366 70.3571 34.5089 70.1952C34.075 69.8868 33.6417 72.7158 33.0929 75.5265C32.6537 77.7755 32.7691 78.9039 32.837 79.4074C32.8579 79.5628 33.0407 79.4582 33.1786 79.1172C33.542 78.2189 33.6376 77.1737 33.7062 75.9903C33.9051 72.5595 33.4112 71.1845 33.0895 70.5595C32.6089 69.6261 33.6376 72.6842 33.7741 73.3682C34.2549 75.7767 36.4216 78.6706 37.1577 79.1598C37.5814 79.4413 37.5714 77.5894 37.5261 76.2866C37.5091 75.797 37.3903 75.663 37.1851 75.593C36.2102 75.2605 35.4254 75.8414 34.1693 76.8217C33.3799 77.4378 32.9996 78.355 32.7252 79.0171C32.6049 79.3071 32.6319 79.5433 32.7903 79.7052C33.5493 80.4805 35.2745 79.8245 39.2741 78.6439C42.2966 77.7516 47.2583 76.0143 50.3222 75.0607C54.3473 73.8079 55.816 73.6035 56.3429 73.3524C56.4927 73.281 56.2812 73.1466 56.0973 73.0999C55.9134 73.0533 55.7323 73.0533 54.2127 73.2118C52.6931 73.3702 49.8406 73.6872 47.5108 73.8958C45.181 74.1043 43.4604 74.1949 42.7778 74.2415C42.0951 74.2882 42.5027 74.2882 44.7275 73.9033C46.9523 73.5184 50.9822 72.7487 54.009 72.3295C57.0358 71.9103 58.9375 71.8651 59.6002 71.887C60.2629 71.909 59.629 71.9995 56.8574 72.0462C54.0858 72.0928 49.1957 72.0928 46.337 72.0476C43.4782 72.0023 42.799 71.9117 42.6529 71.7745C42.5068 71.6373 42.9143 71.4562 46.7465 71.1591C50.5788 70.8621 57.8234 70.4546 61.397 70.3352C64.9706 70.2158 64.6536 70.3969 64.2866 70.5355C63.9196 70.6741 63.512 70.7647 60.0647 70.8566C56.6173 70.9485 50.1424 71.0391 46.4899 71.0404C42.2026 71.0421 41.3693 70.858 41.276 70.79C41.1863 70.7247 41.7261 70.5863 45.6482 70.4031C49.5703 70.2199 57.0413 69.9935 61.2749 69.9222C66.2775 69.8379 67.2071 70.1253 67.2997 70.3078C67.447 70.5981 65.7554 70.7647 60.9174 71.1296C57.1272 71.4156 50.6007 71.4946 47.4003 71.52C44.1999 71.5454 44.5169 71.4095 48.8005 71.1811C53.0842 70.9526 61.3249 70.6357 65.457 70.5177C69.589 70.3997 69.3626 70.4902 69.0649 70.5822C68.7671 70.6741 68.4049 70.7647 64.7998 70.8339C61.1946 70.9032 54.3575 70.9485 50.2014 70.9039C46.0454 70.8593 44.7776 70.7235 44.0339 70.6535C43.2902 70.5835 43.1091 70.5835 43.1064 70.5383C43.0928 70.3145 43.8789 70.2638 47.53 70.1726C50.7729 70.0916 56.841 70.0814 60.1477 70.0807C63.4544 70.08 63.8167 70.1253 63.8674 70.2391C63.9182 70.353 63.6465 70.5341 63.3028 70.6727C62.9591 70.8113 62.5516 70.9019 59.4665 70.9259C56.3813 70.9499 50.6309 70.9046 47.8497 70.8586C45.0685 70.8127 45.4307 70.7674 47.1115 70.7441C48.7923 70.7207 51.7807 70.7207 53.5239 70.7434C55.6756 70.7713 56.3662 70.858 56.642 70.9259C56.9686 71.0063 54.6456 71.4507 51.7032 71.7478C46.9219 72.2305 45.9905 72.0928 45.6001 72.0928C45.572 72.0928 45.889 72.0928 48.5652 72.0476C51.2415 72.0023 56.2674 71.9117 59.015 71.8877C62.0795 71.8609 62.542 72.0009 62.6799 72.1148C62.5461 72.274 60.8214 72.5484 57.1977 72.8228C55.1588 72.9161 52.7137 72.9161 50.3318 72.9161" stroke="#F4C03A" stroke-width="2" stroke-linecap="round"/>
<path d="M38.5322 62.8995C41.5481 62.5798 42.4166 62.4878 44.142 62.3067C45.5543 62.1585 48.0408 61.7634 49.5274 61.5315C52.1225 61.1267 53.2081 60.888 54.0341 60.8187C54.7731 60.7567 55.4967 60.6136 56.4338 60.5216C57.708 60.3967 58.9681 60.1114 59.8202 59.9042C60.5127 59.7358 61.5312 59.6531 62.8593 59.5838C63.7818 59.5357 64.6897 59.3787 65.6954 59.2868C66.8235 59.1836 68.0705 58.9204 68.9898 58.7839C69.7273 58.6744 70.4525 58.5554 71.2078 58.3723C72.042 58.17 73.0567 58.0533 73.9067 57.9373C74.5296 57.8524 75.3453 57.7322 76.0108 57.5717C76.1713 57.5483 76.3524 57.5483 76.5137 57.5257C76.6749 57.503 76.8107 57.4578 76.9507 57.4111" stroke="#FAEBC4" stroke-width="2" stroke-linecap="round"/>
<path d="M36.8857 70.7208C38.1096 70.4944 40.8593 69.8536 42.0722 69.6012C43.252 69.3556 44.5173 69.0304 45.936 68.7779C47.3561 68.5252 49.8108 68.2538 51.3812 68.0912C52.0825 68.0186 53.0709 67.7489 54.7812 67.3386C57.1385 66.7731 58.9283 66.6045 59.6336 66.5366C61.8265 66.3254 62.7221 66.1023 63.8184 65.9651C66.2253 65.6639 67.1128 65.3257 68.2331 65.1872C69.5942 65.0188 71.2208 64.5958 72.5339 64.2727C73.4537 64.0463 74.4782 64.0442 75.3694 63.9749C76.2652 63.9053 77.3596 63.7698 78.023 63.7005C78.32 63.6326 78.5958 63.5407 78.8695 63.4494C79.0074 63.4035 79.1433 63.3582 79.2832 63.3115" stroke="#FAEBC4" stroke-width="2" stroke-linecap="round"/>
<path d="M39.2178 77.8555C42.0923 77.6278 43.8335 77.3534 44.9751 77.2614C46.7256 77.1205 47.7192 76.9417 48.6591 76.8724C49.7353 76.7931 51.015 76.6673 51.7689 76.5754C52.8614 76.4422 53.6659 76.2557 54.4452 76.1864C55.2363 76.1161 56.2262 75.9346 56.9609 75.7981C57.7823 75.6455 58.4242 75.5697 59.2242 75.5004C60.1269 75.4222 61.2123 75.2486 62.037 75.1121C63.0029 74.9521 63.6382 74.7464 64.506 74.5632C65.8664 74.2761 67.3401 74.1509 69.0764 73.9231C70.4908 73.7376 71.0475 73.6487 71.8014 73.4429C72.868 73.1518 73.5172 73.0999 74.2033 72.9167C74.9754 72.7105 75.8031 72.5511 76.7176 72.4591C77.933 72.337 79.0028 72.0928 79.7376 71.9789C80.51 71.8592 81.1542 71.7278 81.7731 71.5446C81.9336 71.4987 82.1147 71.4534 82.2759 71.4074C82.4371 71.3615 82.573 71.3162 82.7129 71.2695" stroke="#FAEBC4" stroke-width="2" stroke-linecap="round"/>
</svg>
