<svg width="110" height="110" viewBox="0 0 110 110" fill="none" xmlns="http://www.w3.org/2000/svg">
<path d="M22.6455 46.3568C23.6076 42.232 24.7017 39.767 25.6018 37.6922C26.3504 35.9668 27.047 34.3911 27.8026 32.7375C28.6903 31.9138 30.4781 30.8113 32.7449 29.6428C33.7854 29.1556 34.6029 28.8831 36.271 28.1895" stroke="#8E87D3" stroke-width="4" stroke-linecap="round"/>
<path d="M47.6358 44.7891C47.488 45.0847 45.6381 48.3411 42.9136 53.1551C41.95 54.8578 41.889 55.0868 42.0357 54.7945C43.4438 51.989 43.9763 49.0533 44.6101 46.2179C44.7444 45.6174 44.7243 45.3176 43.4679 47.2347C42.2115 49.1518 39.6987 53.2906 38.4042 55.5336C37.1097 57.7765 37.1097 57.9982 37.1466 58.0016C37.1836 58.005 37.2575 57.7832 37.3336 57.3308" stroke="#8E87D3" stroke-width="4" stroke-linecap="round"/>
<path d="M35.3177 24.6329C33.9113 25.8893 31.3626 28.8837 30.8038 29.7437C30.1703 30.7188 28.9035 31.719 28.3761 32.6921C27.9132 33.5461 27.4075 34.4827 26.8095 35.4166C26.1602 36.4306 25.8397 37.3942 25.0559 38.3281C24.2479 39.2908 23.9719 40.3057 23.6729 41.2396C23.3301 42.3105 23.0761 43.2172 22.7401 44.1141C22.3823 45.0695 21.6606 46.2003 21.2463 47.3235C20.8047 48.5205 20.9843 49.7837 20.7614 50.8329C20.5394 51.8784 20.3885 53.2192 20.2754 57.0176C20.1646 58.1464 20.0884 59.1161 20.0515 60.2348C20.0145 60.6883 19.9406 60.91 20.0884 61.3624" stroke="#98EDF0" stroke-width="4" stroke-linecap="round"/>
<path d="M37.0732 33.1055C34.9779 37.5364 29.6763 48.0537 29.0712 51.231C28.3096 55.2297 28.4779 61.3462 28.474 63.7785C28.4688 66.9466 32.8271 70.5391 36.2656 75.3976C37.8816 77.6809 41.0216 79.4796 44.3906 81.1865C46.5115 82.261 48.9621 82.6411 54.5514 83.0353C64.9606 83.7695 71.9899 82.9092 73.1089 82.2548C77.5486 79.6586 81.7716 75.9554 84.4185 73.127C85.8861 71.5587 86.9304 68.9938 87.9304 67.0129C88.3409 66.1997 88.9224 64.9138 89.3193 61.0624C90.1275 53.2182 89.1923 47.3047 88.5335 45.5367C87.0314 41.505 85.3589 39.8149 81.0732 35.5535C77.8568 32.3554 74.7796 31.2685 72.9284 30.2199C69.842 28.4717 67.1129 28.1149 64.6645 27.3935C59.4089 25.845 56.0018 24.9613 52.5037 24.5C44.16 23.3999 41.9779 25.4816 39.9918 26.4652C37.15 27.8724 35.4938 28.241 33.97 29.2246C32.2283 30.3487 31.3906 32.7034 29.4085 34.9366C28.0359 36.483 27.4224 38.6165 26.7577 40.1953C25.9034 42.2243 25.5652 47.2653 25.9601 50.1804C26.2686 52.4581 27.8033 56.5922 29.4621 59.9035C30.5599 62.0951 32.5652 64.1057 34.0256 65.9486C35.8927 68.3049 37.4621 69.8926 39.3807 71.0101C41.2468 72.0971 42.6208 73.7006 44.7359 75.6066C47.0012 77.648 48.97 77.9107 50.6248 78.502C52.7184 79.2501 55.0494 79.8817 57.5672 80.0808C59.5745 80.2395 61.6684 80.6701 63.5871 80.8692C67.4631 81.2713 73.8351 80.9382 77.599 79.1051C82.0075 76.9582 83.7558 74.5048 85.48 72.5337C87.4297 70.3049 88.6526 67.4091 89.3867 65.1109C90.1297 62.785 89.851 59.7931 88.601 55.1336C87.6904 51.7392 85.8907 50.1982 83.972 48.0931C82.0432 45.9769 76.6685 41.4153 71.2141 37.9759C69.1264 36.6594 66.851 35.4786 64.726 34.6843C63.5902 34.2597 58.1526 34.2881 49.8966 34.6133C44.0503 34.8436 41.1803 36.9096 39.6644 38.6106C35.5982 43.1734 34.0414 49.1023 32.843 54.767C31.8881 59.2806 35.2002 65.1227 38.714 70.6711C40.9051 74.1307 44.597 74.7492 46.7875 75.8726C49.4525 77.2395 51.478 78.431 54.72 79.4875C57.0639 80.2513 59.5494 80.0157 64.6307 78.7089C69.2313 77.5258 72.105 74.9068 74.4343 72.926C76.3281 71.3155 77.9383 70.0345 79.0673 68.5897C80.3159 66.9919 79.7954 63.7351 79.7339 50.6988C79.7183 47.3866 78.347 46.5124 77.2935 45.5958C73.846 42.5968 69.7557 41.5178 65.9323 40.7294C56.3339 38.7502 50.597 44.1196 47.7934 46.5676C45.7656 48.3382 44.6208 51.097 42.1089 57.0613C40.1955 61.6045 41.5652 66.329 42.8212 68.708C44.8565 72.5632 51.0811 73.1802 56.9561 74.623C59.6022 75.2728 61.5375 74.5008 62.726 73.6493C64.9694 72.0421 68.0018 66.6522 70.0057 62.4185C71.0948 60.1177 71.2002 56.3872 70.7399 53.2848C70.3983 50.9828 68.2954 49.6699 66.5117 48.4834C64.642 47.2397 59.9859 47.2968 56.9224 48.1463C55.6894 48.4882 55.0653 49.7882 54.603 50.8368C54.1591 51.8435 54.1367 53.5923 54.2676 55.6264C54.4231 58.0404 56.9065 59.1151 58.4958 60.3667C60.3652 61.8388 62.851 63.8455 65.1089 63.9874C66.1347 64.0519 66.1724 62.2805 66.3708 61.2339C66.663 59.6926 66.3073 58.3385 65.6506 57.2919C63.52 53.8965 60.8907 53.4779 59.3014 52.8177C58.5315 52.4978 57.5811 52.4215 56.6565 52.6817C55.6676 52.9599 55.724 55.1691 55.7895 57.1381C55.8295 58.3419 56.5137 59.3792 57.4363 60.6249C59.5461 63.4735 63.5176 63.9795 66.1645 64.0525C68.3851 64.1136 68.0256 60.0493 67.7637 58.8036C67.0804 55.554 61.1605 55.7091 56.7339 55.7052C54.647 55.7033 52.9541 56.8839 51.5018 57.9324C50.2147 58.8617 49.6406 59.9074 49.4422 60.889C49.3243 61.4724 49.3748 62.2608 49.5712 62.858C50.5573 65.8562 54.9224 67.7875 59.8708 70.2178C61.4558 70.9962 63.6446 70.949 66.6149 70.7539C72.6652 70.3564 77.6605 61.1334 79.0693 56.7045C80.2072 53.127 77.8192 49.804 76.0375 48.0912C73.254 45.4153 68.97 45.9881 63.2855 45.7851C59.3914 45.646 57.0573 47.6832 53.3569 51.6823C50.8994 54.3383 50.7002 58.4449 50.6307 61.5433C50.5448 65.3786 54.1208 70.271 58.0871 73.1743C60.6346 75.0391 63.5216 74.4969 64.9065 74.3668C69.1433 73.9688 74.0891 68.7336 77.603 64.5945C82.0155 59.3968 81.3827 54.2821 81.4522 50.3992C81.5255 46.2979 78.224 42.7162 75.0514 39.6867C72.6291 37.3737 68.4423 36.3971 64.8768 35.3466C62.1631 34.547 58.1327 34.6823 53.4422 34.8124C47.2096 34.9853 42.1129 39.0107 39.5295 41.3739C38.255 42.5399 37.6049 45.0459 37.2736 48.779C36.886 53.1461 38.5176 59.2175 40.5633 65.582C42.0347 70.1598 44.47 73.0383 46.7121 75.5297C51.7547 81.133 59.1446 82.9013 63.0474 83.4965C66.3605 84.0018 69.3391 83.4335 71.2518 83.0412C73.354 82.6101 76.8629 80.2956 81.6149 76.4324C86.5684 72.4054 88.1288 67.6772 88.4601 65.1858C88.7544 62.973 88.0018 61.2319 86.7538 59.1407C84.4311 55.2486 79.5613 50.7382 74.5435 46.4729C70.8287 43.3153 67.9026 42.1761 64.4839 41.1946C58.0423 39.3451 50.9899 39.0186 46.4958 39.0836C41.7734 39.152 35.2557 43.071 31.3311 46.7548C26.3116 51.4664 26.7636 59.596 26.4244 65.0222C26.1567 69.3031 29.3906 73.6927 31.5097 76.0008C33.3416 77.9961 36.1367 78.8252 46.8807 83.3487C54.5829 86.5915 61.1129 84.62 66.0871 83.1122C70.4424 81.792 75.0137 78.1945 78.7141 74.9798C82.3821 71.7932 82.5732 69.3801 83.6288 66.4334C86.0554 59.6593 85.351 57.2938 85.0256 55.1888C84.6884 53.0072 83.2399 51.641 80.5395 48.036C77.3467 43.7737 74.6526 42.4481 72.3351 40.7984C68.7461 38.2435 63.4383 36.1488 59.7676 34.5542C56.2946 33.0455 53.4859 33.2395 46.7617 33.3006C41.9814 33.3441 36.966 35.3288 32.8688 37.1008C28.3112 39.0718 24.9144 42.8187 23.1902 44.9888C20.8477 47.9371 20.4065 54.1008 21.849 59.1643C24.8763 69.7914 29.9224 70.4129 31.972 72.518C34.839 75.4625 39.8351 76.9882 43.7994 78.6281C51.8186 81.9454 57.6922 81.5925 60.9998 80.8751C67.5611 79.4518 71.0573 75.6874 73.5712 73.9785C76.5116 71.9797 79.1208 68.9938 81.97 66.3605C83.7162 64.7467 84.6883 61.1176 85.2835 56.399C86.3227 48.1613 83.1208 42.5979 81.4562 39.8129C80.1385 37.6084 78.478 35.4786 76.4998 32.6561C75.2385 30.8565 73.3272 29.5656 70.4859 27.9868C66.4756 25.7584 63.6684 26.5381 52.2696 26.7293C43.9957 26.868 39.4938 31.505 36.2855 33.5608C34.5142 34.6958 33.2478 37.1658 30.6664 41.368C29.2527 43.6694 28.3509 48.0537 27.6168 53.1882C27.5494 57.3648 27.8113 60.6919 28.5355 62.4599C28.9978 63.4474 29.6525 64.6181 30.724 66.2186" stroke="#8E87D3" stroke-width="4" stroke-linecap="round"/>
<path d="M67.6476 44.3181C63.2069 45.417 61.6533 45.6381 58.9345 46.1859C56.8909 46.5976 54.6521 47.1758 53.5935 48.3275C51.7915 50.2881 49.6512 52.779 47.3191 56.6778C46.2975 58.3858 45.2104 61.3455 44.5887 63.5069C44.3569 64.3126 44.3103 65.9752 44.4753 68.0079C44.6654 70.349 46.9707 70.9349 48.306 71.9232C49.5812 72.8671 51.3048 73.2448 56.8991 73.1392C62.0988 73.0411 64.6404 69.5094 66.3074 68.4666C67.8866 67.4787 69.3079 66.9817 70.6431 66.1006C72.2879 65.0153 74.4154 62.6984 75.3139 61.1524C76.0537 59.8796 75.869 58.1842 75.7057 56.3148C75.5505 54.5398 74.7622 52.5744 74.2621 51.2528C73.7294 49.8452 72.4351 48.3968 70.5998 46.7435C68.9787 45.2833 63.5802 44.0014 58.7694 42.3432C55.8971 41.3531 51.7849 40.6883 48.211 41.3994C45.048 42.0288 43.6502 43.216 40.9314 44.7521C38.8019 45.9552 36.649 48.9248 36.0322 51.1819C34.7098 56.0212 38.516 60.3555 40.3596 62.6258C42.1504 64.8311 43.6368 66.2029 44.9721 67.3034C46.9572 68.9395 51.1848 71.4761 53.1935 72.5288C55.6355 73.8085 57.4125 74.2348 62.0166 74.2925C64.0801 74.3184 66.1907 73.5814 68.2994 72.867C69.7191 72.386 72.9552 71.1692 77.781 68.8098C84.0171 65.7609 85.1973 63.794 86.3691 62.3635C88.355 59.9394 88.3178 56.2043 88.5945 54.2838C89.2309 49.8667 88.3178 48.2846 87.8211 46.7452C86.9473 44.0375 85.2106 43.0048 83.9887 41.6287C82.6612 40.1337 81.5433 39.0449 79.7713 37.3967C76.1024 33.9838 74.102 33.4352 71.2149 32.168C69.3578 31.353 67.9877 31.2308 66.3207 30.8448C64.473 30.4168 61.3332 30.4587 58.3244 30.1848C54.4447 29.8316 52.4317 30.4587 49.5445 31.0065C48.431 31.1187 47.5375 31.2275 46.4307 31.3925C45.7639 31.4486 44.8837 31.4486 43.9769 31.4486" stroke="#8E87D3" stroke-width="4" stroke-linecap="round"/>
<path d="M33.3769 29.0996C34.3854 32.185 35.5085 33.7276 36.3534 35.8778C37.194 38.0168 36.5271 41.0106 35.6856 42.3911C34.604 44.1655 33.3837 45.6453 31.193 47.85C29.5935 49.4599 28.8843 50.942 27.9838 52.2679C27.0832 53.5937 26.6313 54.9146 26.3513 56.3497C26.1617 57.3218 26.1827 58.2283 25.9027 58.8888C25.6037 59.5941 24.9482 60.1054 24.2753 60.4364C23.9554 60.5938 23.6025 60.549 23.2635 60.4397C21.894 59.9984 21.6867 58.2383 21.0121 56.9124C20.4086 55.7263 21.2347 54.2657 21.5703 52.9399C21.9061 51.6133 22.3545 50.0747 22.6952 47.2078C22.9308 45.2246 23.8183 44.0033 24.2686 42.6775C24.7312 41.3153 25.7273 40.0307 26.3479 38.7049C27.0127 37.2847 27.8657 36.0582 28.9315 35.0071C30.056 33.8983 31.3465 32.9662 32.6973 32.0823C33.0363 31.8605 33.3702 31.642 33.4865 31.6934C35.6912 32.6655 30.908 37.7002 29.7275 39.3008C27.9322 41.735 25.5115 45.9697 24.6109 47.6878C23.575 49.6643 22.3613 51.6041 21.0712 53.5341C20.0538 55.0561 20.0003 56.5698 20.0526 57.8427C20.152 60.2639 23.589 52.392 24.8841 49.5251C25.8143 47.4662 26.8539 45.9896 27.6954 44.6091C28.7648 42.8549 30.7798 41.249 32.36 39.4233C33.5724 38.0225 34.7227 37.4883 34.8947 37.485C37.6347 37.4323 31.4746 41.4476 30.6247 42.9986C29.8251 44.4575 28.4391 46.4133 26.6937 48.5138C24.8539 50.7278 23.0358 53.5904 22.3613 55.628C22.0988 56.4208 22.2466 57.6556 22.3022 58.0562C22.5408 59.7731 25.4912 51.6372 27.805 48.1447C29.5801 45.4652 32.021 42.3481 33.1492 41.6247C34.3224 40.8726 31.0227 44.6521 29.1676 47.1317C27.6499 49.5053 26.0714 51.6074 25.6228 52.2679C25.3968 52.6006 25.1742 52.9283 24.9448 53.266" stroke="#98EDF0" stroke-width="4" stroke-linecap="round"/>
<path d="M79.5485 32.0469C77.7584 32.1579 73.0813 32.8273 69.3514 33.7255C66.4121 34.4333 63.9693 35.1821 61.1647 37.0288C58.7394 38.6259 57.6838 40.5643 55.7777 42.914C55.0251 43.8417 54.5377 44.601 54.3695 45.4959C54.0566 47.1601 55.6515 48.5234 56.3295 49.8706C56.6475 50.5026 56.7787 51.2179 56.9469 51.889C57.277 53.2056 55.6649 54.5785 54.2618 55.702C52.2447 57.3172 50.0591 58.7295 48.4861 59.6277C46.6536 60.674 45.234 61.4207 42.4344 64.0496C41.3584 65.06 40.5199 65.5718 39.9596 66.0747C38.3039 67.561 39.507 73.3963 39.1722 75.7729C38.9817 77.1258 38.9485 78.4623 38.7214 79.7541C38.4787 81.1343 41.1827 81.0458 42.5303 81.5504C43.9657 82.0879 45.2205 82.7278 46.2889 83.6798C47.296 84.5772 49.1439 84.5241 51.4959 84.8033C56.0733 85.3467 59.6691 85.1969 62.2701 83.9136C65.5005 82.3197 62.6167 74.5534 62.4434 71.4166C62.315 69.0923 64.178 66.702 64.7971 65.3548C65.4603 63.9116 66.7554 62.6653 68.103 61.932C69.582 61.1272 71.3518 60.4182 72.8138 59.6899C74.1405 59.029 75.504 57.9558 77.0753 56.3294C78.2785 55.084 78.7611 53.5827 80.0482 50.7839C81.6046 47.3992 80.3358 42.1454 80.5562 40.7981C80.7833 39.4099 82.237 38.7781 82.7417 37.9405C83.0168 37.484 82.9133 36.7698 82.8023 36.2602C82.6094 35.3749 81.5741 35.0744 80.5058 34.1258C79.0977 32.8755 76.3048 33.6145 74.2321 33.9509C69.7129 34.6843 65.3422 36.4065 61.8916 37.7622C59.1983 38.8203 57.3474 39.5552 56.6138 40.788C55.7034 42.3182 55.0997 44.1503 54.7615 46.167C54.5756 47.2753 55.2073 48.1904 55.6548 48.8615C56.1024 49.5326 56.6643 49.8757 57.2245 50.0422C58.9397 50.552 57.233 54.6861 56.6138 56.2621C56.0331 57.7404 55.0997 58.9516 52.3052 61.863C50.9387 63.2867 49.2718 63.7754 47.0863 64.6736C45.4539 65.3445 44.2245 66.4666 43.2117 67.6994C42.6997 68.3227 42.3133 69.1577 41.9768 70.219C41.2121 72.6311 42.7575 74.0892 42.8164 76.2741C42.8395 77.1327 42.4244 77.7929 42.4227 78.4085C42.4218 78.7115 42.8651 78.9131 43.2588 79.0275C43.6525 79.1418 44.0967 79.1418 44.4365 78.9753C45.8477 78.2839 46.452 74.3449 47.7475 66.11C48.0394 64.2546 47.9191 63.1296 47.9191 62.7242C47.9191 61.3256 47.2461 67.469 46.9669 70.214C46.7019 72.8183 47.0207 74.7654 47.3555 75.1034C47.8102 75.5626 50.1433 70.658 52.8368 65.1059C54.0341 62.6379 49.1574 77.9914 49.1506 80.4269C49.1496 80.7862 49.8169 80.9315 50.3233 80.9348C50.8297 80.9382 51.3849 80.7162 51.8375 80.2688C53.9067 78.2232 53.9724 75.3372 55.4765 70.6631C56.723 66.7894 58.6462 59.7724 59.7869 55.8921C61.0955 51.4405 61.4895 50.4408 61.6022 49.9901C62.0953 48.0181 60.3757 56.247 58.8043 63.138C58.3475 65.1412 58.0136 66.2412 58.2912 66.4161C59.9023 67.4313 60.8064 59.002 62.5998 51.6653C64.1963 45.1345 64.0703 43.3799 63.9037 42.2026C63.843 41.7733 63.404 41.8023 62.9548 42.1908C60.6123 44.2169 60.0392 46.727 59.0819 48.4679C58.8746 48.8449 58.801 49.1962 58.8548 49.1457C60.3346 47.7587 61.4861 44.2848 61.5483 40.0782C61.5596 39.3181 61.0487 39.2255 60.5995 39.1683C60.1503 39.1111 59.5951 39.1111 59.1425 39.3331C58.2177 39.7868 57.9025 41.0117 57.7343 42.4078C57.5008 44.3457 57.8992 46.1686 58.5133 47.4553C59.6776 49.895 61.7115 49.6503 62.3828 49.652C64.6032 49.6575 65.4095 45.2873 66.0875 43.5465C66.2367 43.1635 66.3113 42.8182 66.2019 42.5356C66.0925 42.253 65.7594 42.031 65.3657 42.1387C62.3361 42.967 62.0514 48.52 62.2179 50.1448C62.284 50.7889 62.7176 50.9925 63.0558 51.1624C63.706 51.489 64.6255 51.4466 65.6888 51.1674C67.9029 50.586 70.3356 46.8683 73.0342 42.1572C74.3562 39.8492 74.3902 38.1053 73.9999 37.5452C73.5434 36.8902 72.0416 37.3148 70.5863 37.9287C67.8414 39.0866 67.1053 44.0157 66.9842 47.8472C66.9516 48.8804 68.4412 48.9775 69.279 49.0347C71.7226 49.2015 74.481 45.0787 76.4596 41.4776C77.2518 40.0357 77.1931 38.4451 77.0265 37.3804C76.9598 36.9536 76.5269 36.8707 76.0221 36.8136C73.6093 36.5402 71.8161 38.4316 70.1892 39.7789C68.567 41.1223 67.886 43.3631 67.9381 45.3832C67.9622 46.3137 69.1141 46.7338 69.8965 47.0702C70.3223 47.2533 70.9009 47.1845 71.3534 47.018C73.0509 46.3935 74.3801 44.6145 76.3452 41.9805C77.0825 40.9922 77.6373 40.0127 78.3657 39.1734C78.6849 38.8056 78.7611 38.4451 78.8183 39.2726C78.8755 40.1001 78.8755 42.0983 78.931 42.7391C79.0433 44.0348 79.323 40.4601 79.3802 40.233C79.8626 38.3184 76.0894 47.1442 73.6668 51.9933C73.2707 52.786 73.0476 53.3405 72.8777 53.2379C71.0426 52.1299 72.8188 49.546 72.9871 48.6428C73.3526 46.6803 72.1459 53.2262 72.3679 55.189C72.4431 55.8534 73.0342 55.7087 73.4295 55.4295C73.8249 55.1503 74.158 54.7063 74.1631 54.8106C74.2575 56.7613 73.1553 57.7204 73.3219 58.4486C73.3953 58.7698 73.8215 58.8439 74.1042 58.7346C74.7302 58.4924 74.9488 57.6161 75.117 56.6675C75.3798 55.1858 74.8411 53.5827 74.1698 52.518C73.891 52.0759 73.4985 52.0084 73.1604 52.1732C71.4843 52.9902 70.4702 54.5785 68.5102 56.2587C67.7582 56.9034 66.7823 57.9289 66.4341 58.5546C66.0858 59.1803 66.4189 59.4023 67.0902 59.5167C68.741 59.798 70.1236 59.4091 70.7949 58.9061C71.1467 58.6426 71.4662 58.2922 71.6378 57.8986C71.8094 57.5051 71.8094 57.061 71.6428 56.7213C71.4763 56.3815 71.1431 56.1595 70.6939 56.0451C70.2447 55.9308 69.6895 55.9308 69.1814 56.0973C66.6128 56.9391 64.8644 61.4072 63.8482 64.164C63.6675 64.6541 63.7338 65.0066 63.9004 65.1782C64.0669 65.3497 64.4 65.3497 64.7382 65.1832C69.1176 63.0268 72.2535 53.9259 72.7616 51.455C72.898 50.792 72.8188 50.0035 72.6523 49.6032C72.4857 49.2029 72.1526 49.2029 71.7034 49.5359C70.5653 50.3797 68.0172 54.3295 64.543 59.5941C62.4562 62.7563 61.9403 64.3372 61.7721 65.0083C61.6887 65.3409 61.7149 65.6794 61.9925 65.5734C64.4689 64.6282 66.5199 58.9919 68.5522 53.2009C68.8813 52.2632 68.781 51.9008 68.6145 51.6737C68.4479 51.4466 68.1148 51.3356 67.7766 51.5005C66.9619 51.8976 64.8745 56.2301 61.6813 62.6132C58.2994 69.3734 58.3501 73.847 58.9642 76.7787C59.2006 77.9074 59.5816 78.8021 60.0846 79.4732C60.3483 79.8249 60.6987 80.1443 61.0924 80.0383C63.9708 79.2636 63.0608 73.3256 63.0053 71.4721C62.9654 70.1389 61.9437 74.5333 61.5483 78.7348C61.477 79.4933 61.0487 79.4782 60.766 79.3117C59.5186 78.5769 59.2518 76.5718 58.6327 74.5518C58.3757 73.7132 57.5694 72.9791 56.3968 72.1398C55.7228 71.6575 54.669 71.4115 54.0431 71.5175C53.4172 71.6235 53.1952 72.1785 53.0252 72.742C51.7627 76.9283 53.074 82.8388 53.9135 83.3989C54.2928 83.6519 54.642 83.737 55.0912 83.6831C57.0612 83.4471 57.5627 81.5033 59.6876 77.364C60.3115 76.1486 60.369 75.3339 60.1469 74.6611C60.047 74.3584 59.4807 74.4323 58.9742 74.6544C56.3847 75.7897 55.2141 78.4623 54.6504 80.4235C54.5067 80.9236 54.4267 81.3755 54.2029 81.5487C53.9792 81.722 53.646 81.611 53.3634 81.1652C51.8907 78.8429 51.5127 76.7938 50.6732 75.7291C50.3256 75.2883 49.9447 75.2195 49.6621 75.3843C49.3794 75.5492 49.1574 75.9932 49.0985 76.3885C49.0396 76.7837 49.1506 77.1168 49.3744 77.3993C49.8409 77.9884 50.6076 78.2437 51.2789 78.3564C51.6124 78.4124 51.9502 78.247 52.1218 77.9123C52.5352 77.1059 52.2934 75.8957 52.1823 74.8882C51.9541 72.8169 48.7132 71.6336 47.2512 71.0146C46.5362 70.7119 45.9036 70.2846 45.2878 70.2829C43.7594 70.2788 44.4432 73.1944 44.4971 73.9782C44.5539 74.8047 46.341 74.7687 47.6853 74.6577C48.261 74.6102 48.5853 74.3247 48.868 73.9883C49.1506 73.6519 49.3727 73.2079 49.3761 72.7571C49.3794 72.3063 49.1574 71.8623 48.7654 71.5781C46.9847 70.2869 44.5644 70.3956 43.1612 70.5621C42.7275 70.6136 42.9795 71.0617 43.316 71.3443C44.682 72.4914 49.3391 72.414 52.2883 71.6336C54.2451 71.1158 54.0835 67.94 54.0347 65.6929C54.0251 65.2517 53.2019 65.3497 53.1935 65.3497C51.6751 65.3497 55.988 63.5601 57.0563 62.3273C57.3442 61.995 57.6704 61.6562 57.6754 61.4846C57.6805 61.313 57.3474 61.313 57.0092 61.424C56.2972 61.6578 54.9953 62.9849 52.1487 66.2748C47.318 71.8577 44.7797 76.222 44.667 77.1168C44.5543 78.0112 45.0018 78.8021 45.2811 79.4732C45.5794 80.1899 46.2333 80.7094 46.9601 81.0458C48.4521 81.7364 50.1534 81.7186 51.6154 82.1677C52.9435 82.5757 54.5276 82.7278 58.5587 82.7312C60.7745 82.733 61.7115 82.0584 62.3273 81.7237C63.722 80.9655 63.3973 77.258 63.007 74.7216C62.4542 71.1298 61.2707 68.0611 61.0975 64.6315C61.0484 63.6614 61.6005 62.8874 62.1035 62.1036C63.386 60.1053 69.8645 58.0769 72.8138 56.5514C74.4011 55.7303 75.1675 53.6971 76.2358 52.069C77.6004 49.9893 78.5323 47.8708 79.7689 46.4596C81.9567 43.9629 80.8877 38.2163 82.1798 37.0978C82.513 36.8094 82.6845 36.4267 82.4658 36.2551C80.5613 36.1946 79.2187 36.864 77.257 37.372C76.7489 37.4292 76.3048 37.4292 75.8472 37.4292" stroke="#98EDF0" stroke-width="4" stroke-linecap="round"/>
<path d="M33.7939 29.3713C34.9863 30.9828 36.498 32.6977 40.1859 33.7828C43.1141 34.6443 44.5385 32.8204 45.8432 32.5475C47.2505 32.2532 48.9887 32.0647 51.2693 32.0082C54.9563 31.9168 59.8538 32.0647 60.235 31.5819C60.6139 31.1019 59.642 30.3434 59.155 29.8056C57.8559 28.3714 54.6509 29.1581 53.2924 28.727C51.7346 28.2326 47.8354 27.2269 45.2014 26.4663C42.4854 25.6821 37.3907 26.5681 35.7536 26.9475C35.3982 27.0299 35.1036 27.4271 34.8837 27.805C34.6638 28.1828 34.5563 28.6091 34.6622 28.9886C34.8822 29.777 35.7454 30.1237 36.3954 30.3385C37.0453 30.5533 39.2053 30.6631 41.2219 30.6631C42.5381 30.6631 38.0325 30.5565 37.3825 30.3417C35.735 29.7973 44.8675 30.1237 45.5712 30.2852C47.5481 30.7388 37.3744 28.7254 38.0781 28.6721C41.2698 28.4304 45.8416 28.6156 48.2818 28.7787C49.3247 28.8484 50.1876 29.0483 50.6779 29.0483C51.7082 29.0483 47.7051 28.5122 45.9084 28.3491C45.1879 28.2837 44.1182 28.0795 43.3005 28.0795C39.4621 28.0795 53.869 29.2615 55.6707 29.6393C56.0518 29.6942 56.4819 29.6942 56.8647 29.7475C57.2475 29.8008 57.57 29.9074 58.5539 30.3401" stroke="#F4C03A" stroke-width="4" stroke-linecap="round"/>
<path d="M90.7773 62.5039C86.555 63.2554 82.7672 64.7647 80.977 65.8466C78.2327 67.5049 76.295 70.271 75.3472 71.7286C74.0297 73.7548 73.2862 75.1295 72.7814 76.4267C72.3054 77.65 72.1696 79.0163 72.1111 80.8512C72.0971 81.2899 72.2766 81.6075 72.4989 81.8262C72.7212 82.0448 73.0522 82.1517 73.3882 82.1533C74.7984 82.1601 76.2816 80.435 77.679 79.2965C79.071 78.1624 81.9515 75.7968 84.641 73.7384C86.2188 72.5308 87.6548 70.9318 88.1563 69.6346C88.8634 67.8054 90.2156 65.7494 90.4998 64.5056C90.5701 64.1981 89.8947 64.0198 89.3364 64.1234C86.4977 64.6504 84.7664 66.2806 82.9845 67.3575C79.8683 69.241 76.8566 72.8557 75.7902 75.183C75.6282 75.5366 76.2816 75.6737 76.6744 75.6219C78.586 75.3697 79.8521 72.8752 81.2979 71.2039C83.9937 68.0877 84.7564 66.7178 85.2027 66.4458C86.3189 65.7653 81.1157 71.5407 78.6903 74.106C77.5668 75.2944 75.8537 77.0664 73.0672 80.2002C72.6339 80.6875 73.0522 80.8561 73.3882 80.6974C75.8245 79.5465 78.3945 76.2243 81.5169 74.0104C83.4076 72.6699 83.7568 70.6144 84.4772 69.0936C84.627 68.7776 85.0873 68.7681 85.4233 68.8734C86.9993 69.3672 86.7656 71.4597 86.7104 72.1092C86.6553 72.2241 86.5449 71.9035 86.5984 71.578C86.6519 71.2524 86.8726 70.9318 86.4313 70.2775" stroke="#F4C03A" stroke-width="4" stroke-linecap="round"/>
<path d="M33.1162 50.6471C32.8176 51.3093 32.4578 53.015 32.367 54.23C32.344 54.537 32.2779 54.7772 32.3661 54.9615C32.7826 55.8321 33.5335 57.0831 33.6262 58.911C33.6968 60.3047 32.6971 61.4084 32.5181 61.6519C32.4376 61.7615 32.2204 61.6546 32.099 61.5333C31.5046 60.9395 31.6771 59.6516 31.2292 57.5875C31.1232 57.0988 31.1375 56.7948 31.2562 56.5194C31.7611 55.348 32.5154 54.5437 32.9048 53.2969C33.1696 52.4493 33.5947 51.7453 33.8645 50.8633C34.1333 49.9845 34.9726 49.3738 35.4529 48.6131C36.0494 47.6683 36.7714 46.6995 37.4604 45.7563C38.4606 44.3871 38.7501 43.5362 39.0514 42.6542C39.3161 41.8794 39.592 41.0443 39.7413 39.8594C39.9888 37.895 39.592 36.7901 39.4427 35.8734C39.3228 35.1373 38.9336 34.415 38.8428 32.3216C38.7967 31.2595 37.7967 30.7044 37.2544 30.2475C37.0768 30.0978 38.2069 30.0331 39.136 30.1234C40.0284 30.2102 40.1892 31.6713 40.7288 32.432C41.4362 33.4291 42.4665 33.6196 43.1869 33.7117C43.9313 33.8069 44.6251 34.0465 45.3455 34.1979C46.0564 34.3473 46.7837 34.4113 48.3649 34.5627C53.4188 35.0467 54.3963 34.4113 55.3884 34.2298C56.1643 34.0878 56.8571 33.7436 57.5776 33.6515C58.322 33.5563 59.0157 33.1964 59.7658 32.9227C60.6637 32.5952 61.3542 32.2842 61.8965 32.0407C62.6766 31.6904 59.7425 31.9778 58.6659 32.1903C56.0649 32.7037 55.4253 33.2547 54.6455 33.6187C53.2965 34.2482 52.9069 35.6846 52.3655 36.5667C51.8943 37.3341 51.5254 38.0562 51.136 38.9382C50.6753 39.9815 50.8059 41.5222 50.3867 42.4043C49.9997 43.2187 49.5467 43.8938 49.1581 44.7147C48.7933 45.4855 47.7515 45.7217 47.0319 45.812C46.7736 45.8444 46.7873 46.0829 46.8467 46.2662C47.1012 47.0525 48.1616 47.4219 49.5404 47.8487C50.3546 48.1008 50.9228 48.1534 51.1629 48.3349C51.7245 48.7594 50.3274 49.7314 49.5485 50.7648C48.9498 51.5591 48.1112 52.8873 47.6579 53.928C47.2345 54.9002 46.0714 55.631 45.1719 56.2695C44.19 56.9665 43.0745 57.8785 42.4719 58.6711C41.9432 59.3665 41.5131 60.1296 41.0328 60.8602C40.0777 62.3132 38.2788 64.7486 37.4361 65.4217C36.6911 66.0168 35.5806 66.8173 34.7972 67.4585C34.2114 67.938 34.2567 68.886 34.0462 69.6467C33.8097 70.5013 33.8357 71.8595 33.6864 73.2322C33.5053 74.898 34.0732 75.5153 34.4329 76.0005C34.5954 76.2196 34.5553 76.4858 34.5553 75.9175C34.5553 71.7486 35.5122 69.685 35.8729 68.8021C36.3872 67.5429 36.6527 66.5838 36.8928 65.6096C37.1299 64.648 37.1923 63.7854 37.1941 62.7519C37.1957 61.8733 35.9979 61.2934 35.6355 60.4707C35.267 59.6345 35.2748 58.9803 35.2451 58.7058C35.1826 58.1278 34.6164 60.3084 34.1676 61.7696C33.6837 63.3452 32.1089 66.7954 31.2886 69.0073C30.9811 69.8366 30.7777 70.5278 30.8668 71.045C30.9877 71.7474 32.5118 70.5314 33.2637 70.2897C34.1212 70.0141 33.9544 68.5284 34.075 67.2514C34.1411 66.5507 35.1489 69.3055 35.783 70.8607C36.0299 71.4665 35.9943 72.1696 35.9646 72.8373C35.951 73.1449 35.8756 73.3846 35.845 72.9668C35.6319 70.0559 36.7067 67.8717 37.4316 66.4907C37.6702 66.0362 39.2178 63.862 41.4655 60.8529C42.7149 59.1802 43.8408 58.0134 44.8356 57.1561C45.7894 56.3339 46.7801 55.0326 47.952 53.845C49.694 52.0798 49.5431 50.8332 49.6951 50.0725C49.7858 49.6186 49.8453 49.009 49.8156 48.3714C49.794 47.9061 49.4873 47.5477 49.0691 47.2741C48.6114 46.9746 48.0483 47.3015 47.6894 47.5742C46.1414 48.7506 44.9309 51.676 44.8383 54.1643C44.7916 55.4175 45.4669 55.9356 45.7359 56.2394C45.8649 56.3851 46.0642 56.4227 46.2449 56.1828C47.2471 54.853 46.906 53.752 46.9969 52.87C47.019 52.6547 47.0859 52.475 47.1165 52.5626C47.1471 52.6502 47.1471 53.0114 47.2955 53.1974C47.4439 53.3835 47.7407 53.3835 47.9826 53.233C48.9555 52.6278 49.0034 51.4425 49.4541 50.1354C49.8748 48.9151 50.1439 47.6736 50.6521 46.0646C51.6326 42.9602 51.6441 42.0768 51.8231 41.3462C52.0112 40.5783 52.8385 39.2857 53.4412 38.245C54.0657 37.1663 55.2993 36.0568 55.9586 35.3864C56.5275 34.8078 57.3968 34.5354 58.1172 34.0784C58.7697 33.6645 59.6741 33.4408 60.4557 33.1353C61.1487 32.8643 61.8938 32.8315 63.0919 32.7394C64.0542 32.5269 64.8907 32.4046 65.6723 32.2532C65.8531 32.2222 66.0312 32.2222 66.2146 32.2222" stroke="#8E87D3" stroke-width="4" stroke-linecap="round"/>
<path d="M82.1318 54.6445C81.5145 56.8872 81.1964 58.3376 81.2582 58.8732C81.2865 59.1194 81.4434 59.2908 81.6613 59.382C82.6647 59.8019 83.4396 58.8187 83.6893 58.7579C84.4344 58.5765 83.0074 60.303 82.3526 61.1096C81.7089 61.9025 81.4471 62.5707 81.1674 62.9579C80.6963 63.6101 79.1459 63.583 77.8971 64.2393C75.2818 65.6139 73.4698 66.5625 72.438 67.1616C71.6006 67.6478 70.4764 68.3509 69.5999 68.9795C68.8005 69.5528 68.4783 70.5577 68.1322 71.4519C67.8053 72.2964 67.9133 73.1795 67.6963 74.283C67.5021 75.2701 66.918 76.3951 66.4494 77.5325C66.0079 78.6038 66.2913 79.6804 66.4774 79.8896C66.5609 79.9835 66.787 79.8038 66.9133 79.5954C67.475 78.6688 67.2884 77.6005 67.5999 76.971C68.2316 75.6943 68.0386 80.8124 67.9451 81.0521C67.6828 81.7242 67.7262 79.3889 67.5709 78.137C67.4308 77.0075 67.352 75.8711 67.352 75.6583C67.352 75.458 67.352 76.6848 67.3212 76.9629C67.2286 76.9459 67.165 76.1107 67.1958 75.1289C67.2267 74.6782 67.2884 74.3241 67.352 73.6016" stroke="#8E87D3" stroke-width="4" stroke-linecap="round"/>
<path d="M67.6226 37.8229C67.5009 37.8229 66.3425 38.065 64.5606 38.7346C63.8032 39.0192 63.631 39.7674 63.5056 40.2306C63.3801 40.6938 63.3801 40.9965 63.4714 41.1827C63.6334 41.5131 64.2987 41.4918 64.9434 41.4616C65.8973 41.4168 66.5141 40.3948 66.8516 39.7537C67.1014 39.2791 65.9146 41.2864 63.7638 45.0728C61.6566 48.7824 62.5796 51.0825 63.1929 52.4336C63.426 52.9471 64.0534 53.1097 64.758 53.2014C66.564 53.4365 68.2904 52.0768 70.503 49.88C73.7443 46.6618 74.2004 44.0051 74.5693 42.9026C74.7828 42.2645 74.5712 41.6771 74.3268 41.402C74.1902 41.2482 73.8389 41.3084 73.6212 41.3992C73.219 41.567 72.9129 42.1009 71.9048 43.5575C67.9964 49.2049 67.8089 50.2937 67.5018 50.9349C67.3702 51.2096 67.3164 51.3944 68.1677 49.3994C69.019 47.4044 70.7842 43.2273 71.5414 41.6203C72.2986 40.0132 71.9943 41.1029 71.8375 41.8459C71.6807 42.5889 71.6807 42.9521 71.772 43.0787C71.8633 43.2053 72.0459 43.0842 72.2009 42.931C72.8005 42.3382 74.1266 39.9215 75.796 37.9192C76.6459 36.8997 77.5815 35.9902 77.8886 35.6242C78.0317 35.4537 78.074 35.2583 77.8315 35.1647C75.9955 34.4565 74.0233 36.1682 73.0983 36.5983C71.9763 37.1201 71.0093 37.5147 70.0547 37.6697C69.2076 37.8072 68.3642 38.0063 67.2298 38.1586C64.2043 38.5647 62.4652 39.1033 61.4774 39.5335C59.7923 40.2674 58.2817 42.222 57.7246 43.1089C57.6051 43.2993 57.6619 43.5061 57.7837 43.7207C58.3291 44.6824 59.4401 44.7315 60.7313 45.281C61.2679 45.5093 61.7182 45.5883 61.9948 45.7708C62.6096 46.1763 61.5392 47.4796 58.1369 52.9051C56.768 55.0881 55.821 55.6761 54.991 56.5915C53.779 57.9281 53.0542 60.0055 52.7747 62.3977C52.7234 62.8371 52.5008 63.0728 52.3154 63.2278C51.672 63.7658 50.8407 63.8726 49.9488 64.0249C49.1293 64.1648 48.4409 63.7515 48.1033 63.6589C47.9515 63.6172 47.8266 63.8689 47.8552 64.023C47.8838 64.1771 48.0664 64.2982 48.2823 64.3606C50.2004 64.9149 53.1021 60.5779 53.9414 59.9899C54.6886 59.4665 52.5008 61.1796 51.7012 61.5777C50.2002 62.3249 49.1806 63.7479 48.6254 64.4505C48.3036 64.8576 48.1937 65.3384 48.1015 65.7951C47.975 66.4218 48.1919 66.9894 48.4676 67.3251C48.7433 67.6607 49.4185 67.725 50.1859 67.6645C51.8553 67.5328 53.9027 65.3475 55.1367 64.0304C55.4492 63.6969 55.81 63.3296 55.7546 63.2938C55.2473 62.9659 53.2497 65.2044 50.6101 67.7369C48.433 69.8258 46.9099 72.2984 45.6196 74.4365C45.1028 75.2929 44.938 75.7271 44.9353 75.794C44.8906 76.8748 47.5647 72.6341 48.9887 70.3016C49.7618 69.0352 49.7303 67.8498 49.6998 67.3921C49.6854 67.1749 49.6085 66.9949 49.4554 66.7803C49.3023 66.5656 49.0588 66.3235 48.6595 66.1987C47.7479 65.914 46.9044 66.1345 46.1702 66.5289C43.1662 68.1428 42.1712 71.0198 41.7091 72.2113C41.5373 72.6544 41.7949 72.8579 42.0411 72.9817C43.1072 73.5178 44.5581 73.1074 46.1573 72.5286C48.5809 71.6515 49.4794 69.6879 50.4644 68.4946C50.7624 68.1336 50.9551 67.5526 50.9587 67.3022C50.9775 66.029 47.7086 70.1612 44.8836 73.4605C43.3822 75.2141 43.2152 76.3434 42.9367 77.3212C42.8523 77.6175 42.9053 77.9908 43.0271 78.299C43.6686 79.9231 46.7716 79.8326 47.7289 79.6198C48.9015 79.3592 49.6048 78.0018 49.8834 77.2671C50.0136 76.9234 49.8538 76.4719 49.6703 75.9839C49.1532 74.6092 47.0298 74.2081 46.2283 74.0237C45.4495 73.8446 44.7536 75.1804 44.0148 76.5241C43.4305 77.5871 43.4587 78.6072 43.4891 79.0649C43.5036 79.2821 43.5804 79.4621 43.7031 79.5859C43.9538 79.8389 44.3791 79.9537 44.808 80.1372C45.0414 80.237 45.3586 80.1995 45.7284 79.9574C47.5464 78.7671 47.7621 77.4496 47.763 77.2955C47.7634 77.2299 47.5204 77.5652 47.4568 77.811C47.3932 78.0569 47.454 78.299 47.5767 78.4843C47.8152 78.8445 48.2527 78.9759 48.712 79.0677C50.2118 79.3672 51.8146 77.6973 54.0263 75.5299C54.962 74.6128 55.1386 73.5991 55.2944 72.8937C55.4107 72.3676 55.5702 74.021 55.8459 74.4182C55.9705 74.5975 56.1826 74.6337 56.3984 74.5438C57.8869 73.9238 59.8644 71.5885 61.2552 69.8402C61.5063 69.5245 61.5946 69.2587 61.7182 69.2247C63.031 68.8642 62.028 72.7974 61.8445 73.2863C61.7662 73.4948 61.5392 73.533 61.4452 73.3523C61.1624 72.8091 61.412 72.0691 61.5346 71.793C61.8519 71.079 61.8417 73.5935 62.1175 73.8082C62.2416 73.9048 62.4541 73.7201 62.5787 73.5669C62.7032 73.4138 62.764 73.2322 62.8258 73.0175C62.8876 72.8029 62.9485 72.5607 63.0112 71.9443" stroke="#98EDF0" stroke-width="4" stroke-linecap="round"/>
<path d="M73.9039 61.1035C72.5405 62.4601 70.4091 64.8266 70.1282 65.5729C69.7881 66.4763 69.0981 67.249 68.6926 67.9953C68.2734 68.7669 67.9744 69.7944 67.8798 70.6041C67.7896 71.3761 67.4125 72.0938 67.1934 72.9948C67.0082 73.7563 66.8507 74.5163 66.7561 77.5825C66.6822 79.9762 66.4761 83.0879 65.6398 85.9072C64.4336 89.9738 60.2993 86.7551 58.7729 86.9731C55.9548 87.3756 55.1788 86.8184 54.4287 86.633C53.6782 86.4475 52.8077 86.3228 51.994 86.074C50.6738 85.6704 48.6237 85.7637 47.8736 85.515C47.1235 85.2662 46.3762 85.1414 45.6262 84.8013C44.897 84.4707 44.1288 84.15 43.3478 83.8072C42.4355 83.4066 41.8813 82.6593 41.5348 81.8841C41.0379 80.7725 41.3157 79.0667 41.0048 77.6617C40.6082 75.8692 41.3756 75.0827 41.6893 74.3364C41.9944 73.6107 42.1885 72.8467 42.6558 71.915C43.2055 70.8188 44.2449 69.6826 44.9959 68.654C45.9705 67.3192 46.9306 67.0068 47.8043 66.3555C49.2759 65.2586 49.9272 64.7707 51.2991 63.4691C52.1661 62.6466 52.9239 62.1619 53.8294 61.6337C54.7853 61.076 55.5459 60.2985 56.0488 60.0162C57.6 59.1454 52.8714 62.8365 50.6586 64.7288C48.241 66.7962 47.3164 68.6093 46.6553 69.95C45.9591 71.3618 45.3162 72.4628 44.4088 74.1725C43.917 75.099 43.6269 76.13 43.5941 78.1769C43.5765 79.2739 44.125 80.3524 44.2805 81.5031C44.3265 81.8434 44.3123 82.2755 44.405 82.5587C44.4977 82.8419 44.6832 82.9649 44.8096 82.8745C45.634 82.2852 45.496 81.1686 46.1178 80.7959C47.5643 79.9289 48.8035 80.8555 50.8571 79.744C52.658 78.7693 53.6749 77.8126 53.9558 77.8117C54.22 77.8108 53.8041 78.6157 53.335 79.5167C52.7772 80.5878 51.684 82.0928 50.7148 82.6863C50.5108 82.8112 50.3093 82.8419 50.1211 82.9351C49.9329 83.0283 49.7474 83.1513 49.8373 83.3991C50.3396 84.7837 51.6128 84.7053 52.3629 85.1395C53.1422 85.5905 53.8603 86.1327 54.6413 86.4448C55.5566 86.8106 56.606 86.7551 58.197 86.8492C59.118 86.9036 59.8535 87.1277 62.3136 87.2218C62.8525 87.2425 63.0375 87.3141 63.0094 87.4687C62.5163 90.183 55.5534 87.9998 54.8033 87.5964C54.0984 87.2173 53.3059 87.0681 52.5558 86.974C51.7808 86.8768 51.0585 86.5091 50.3084 86.2296C49.4581 85.9128 48.6237 85.4544 47.9036 84.9876C47.2787 84.5826 49.74 84.6457 51.92 83.5621C53.4599 82.7967 54.9166 80.6804 56.0769 78.5645C56.7815 77.2795 57.1079 76.2641 58.0425 73.8166C58.968 71.3927 59.5426 70.3646 60.6027 66.3676C61.02 64.7942 61.2919 63.7794 61.6974 62.8151C62.027 62.0311 62.9101 61.0476 64.3475 59.0612C65.0699 58.0631 65.4722 56.5792 65.8496 55.3615C66.0915 54.581 66.2251 52.9791 66.3806 51.6049C66.5694 49.9353 65.9779 49.1815 65.5087 48.4352C64.9991 47.6246 65.1651 46.3864 65.0705 45.6094C64.901 44.2171 64.6669 42.3503 64.3841 41.5099C64.0948 40.6503 64.974 39.7415 65.4741 38.9319C65.9393 38.1787 66.7832 37.7514 67.4088 37.0685C68.1916 36.2138 69.218 35.888 69.9681 35.3905C70.6909 34.911 71.4654 34.7066 72.2155 34.4579C73.0215 34.1906 73.9002 33.9613 74.6812 33.7433C75.5586 33.4983 76.4586 33.4022 77.4278 33.1535C78.3234 32.9236 79.3316 32.8432 80.2371 32.8106C81.2774 32.7732 82.5155 33.0892 83.421 33.5849C84.4137 34.1282 84.6393 35.1986 85.3258 35.7594C86.0435 36.346 86.6358 37.1253 86.9823 37.839C87.3768 38.6516 86.3324 39.9763 85.8914 40.976C85.5736 41.6963 85.2686 42.7118 84.924 43.7702C84.6008 44.7628 83.7104 46.0622 83.2693 47.2799C82.991 48.0483 82.7702 48.8014 81.8057 50.7225C80.9194 52.4878 78.721 53.3965 77.4353 53.8968C76.8139 54.1386 75.1663 54.8257 72.7662 55.5394C69.7514 56.4359 67.1728 55.8264 66.0406 55.6689C65.0542 55.5317 63.9814 54.9543 63.2313 54.8304C61.8338 54.5995 60.7338 57.6823 60.3892 58.5227C59.7574 60.0635 59.4827 62.4638 59.2655 63.553C59.0268 64.7493 58.7336 65.572 57.9882 67.277C57.3611 68.7113 55.5571 69.6677 54.0579 71.0047C51.8025 73.016 51.1821 74.2666 50.6511 75.1377C50.3093 75.6939 50.0565 76.1952 49.9319 76.5669C49.8692 76.7542 49.8074 76.9387 49.5564 77.5014" stroke="#98EDF0" stroke-width="4" stroke-linecap="round"/>
<path d="M56.1221 22.5C75.1432 22.5001 90.5 36.8259 90.5 54.4219C90.4998 72.0176 75.1431 86.3427 56.1221 86.3428C37.1009 86.3428 21.7443 72.0177 21.7441 54.4219C21.7441 36.8259 37.1008 22.5 56.1221 22.5Z" stroke="#5D4403"/>
</svg>
