<svg width="178" height="113" viewBox="0 0 178 113" fill="none" xmlns="http://www.w3.org/2000/svg">
<path opacity="0.86" d="M165.699 42.5444C169.005 42.32 171.868 44.818 172.092 48.124L174.647 85.7395L177.739 101.262L165.979 95.7258L9.58297 106.348C6.27688 106.573 3.41473 104.075 3.19018 100.769L0.406581 59.7848C0.182033 56.4787 2.68012 53.6166 5.98621 53.392L165.699 42.5444Z" fill="#F098D4"/>
<path opacity="0.37" d="M87.8162 0.470976C84.5103 0.246649 81.6479 2.74465 81.4234 6.0506L80.5548 18.8385C80.532 19.174 80.5395 19.5052 80.5707 19.8292L79 27.7086L84.7888 24.9833C85.2178 25.1139 85.6678 25.1996 86.1345 25.2313L154.437 29.8704C157.743 30.0949 160.605 27.5968 160.83 24.2908L161.698 11.5029C161.923 8.19681 159.425 5.33469 156.119 5.11007L87.8162 0.470976Z" fill="#615FE0"/>
<path d="M32.2367 83.115L27.7075 82.9021C28.3309 82.8698 28.8234 82.6132 29.185 82.1323C29.5639 81.65 29.8419 80.9932 30.0191 80.1618C30.1949 79.3132 30.2906 78.3318 30.3062 77.2177C30.339 76.1023 30.3297 74.8945 30.2783 73.5945L30.0333 67.902L43.9771 66.7908L45.2741 83.0673L41.1272 83.3977L40.1029 70.5424L33.8826 71.0381L34.0155 73.6879C34.0532 74.8152 34.0601 75.884 34.0363 76.8944C34.0297 77.9035 33.9645 78.8302 33.8405 79.6747C33.7151 80.502 33.5197 81.2131 33.2541 81.8081C33.0058 82.4017 32.6667 82.8373 32.2367 83.115ZM27.6835 90.1289L27.1373 82.9476L47.6901 81.3098L48.2622 88.489L44.3745 88.7988L44.0751 85.0407L31.2717 86.061L31.5711 89.8191L27.6835 90.1289ZM50.4782 84.5305L49.3671 70.5867L53.3843 70.2666L54.0452 78.5603L60.1748 69.7255L63.8811 69.4301L64.9922 83.3739L60.9749 83.6941L60.314 75.4003L54.2104 84.2331L50.4782 84.5305ZM77.2244 82.3992L77.0075 79.6778L76.7009 79.1024L76.3126 74.2298C76.2438 73.3659 75.9222 72.7134 75.3481 72.2723C74.7911 71.8298 73.9684 71.6519 72.8799 71.7386C72.1369 71.7978 71.4122 71.9773 70.7058 72.277C70.0152 72.5581 69.4353 72.9173 68.9659 73.3546L67.2893 70.6452C68.0069 70.049 68.8896 69.5614 69.9375 69.1823C70.9854 68.8032 72.0622 68.5696 73.168 68.4814C75.2933 68.3121 76.9833 68.6817 78.2381 69.5902C79.4929 70.4987 80.205 72.0156 80.3744 74.1409L81.0084 82.0977L77.2244 82.3992ZM72.9904 82.9453C71.9018 83.032 70.9543 82.9249 70.1479 82.624C69.3401 82.3059 68.7033 81.8436 68.2377 81.2374C67.7721 80.6311 67.5076 79.9306 67.4443 79.1358C67.3782 78.3064 67.5191 77.5649 67.8669 76.9112C68.232 76.2561 68.8414 75.7207 69.6951 75.3049C70.5474 74.8718 71.6819 74.5988 73.0988 74.4859L76.805 74.1906L76.993 76.5491L73.7273 76.8093C72.777 76.8851 72.1328 77.0929 71.7947 77.4328C71.474 77.7714 71.3322 78.1739 71.3693 78.6404C71.4106 79.1588 71.6424 79.5576 72.0646 79.837C72.5027 80.0977 73.0759 80.1998 73.7843 80.1433C74.4582 80.0896 75.0506 79.8859 75.5614 79.5322C76.0709 79.1613 76.4218 78.6551 76.6141 78.0138L77.3849 79.8303C77.1627 80.7522 76.6815 81.4774 75.9411 82.0059C75.2007 82.5344 74.2172 82.8475 72.9904 82.9453ZM84.8803 82.076C84.5693 82.1008 84.239 82.1011 83.8893 82.0768C83.5396 82.0525 83.1619 82.0043 82.7562 81.9323L82.6992 78.5983C82.8042 78.6073 82.9093 78.6163 83.0143 78.6254C83.118 78.6171 83.213 78.6095 83.2994 78.6026C83.7832 78.5641 84.1523 78.3956 84.4068 78.0971C84.6612 77.7986 84.8389 77.4106 84.94 76.9331C85.0397 76.4382 85.0913 75.8864 85.095 75.2775C85.1159 74.6673 85.1175 74.0325 85.0997 73.3731L84.861 67.7583L96.7832 66.8083L97.8943 80.7521L93.8511 81.0743L92.9259 69.4631L93.9115 70.3757L87.7949 70.8631L88.5675 69.7582L88.6649 73.2716C88.7122 74.5198 88.6994 75.6684 88.6265 76.7175C88.5709 77.7653 88.4092 78.6823 88.1415 79.4688C87.8724 80.2379 87.478 80.8518 86.9581 81.3106C86.4368 81.752 85.7443 82.0072 84.8803 82.076ZM108.33 80.1292C106.844 80.2476 105.498 80.0419 104.29 79.5121C103.1 78.981 102.126 78.2066 101.367 77.189C100.623 76.1528 100.197 74.9435 100.086 73.5613C99.9749 72.1617 100.205 70.9001 100.776 69.7765C101.363 68.6343 102.203 67.7153 103.295 67.0197C104.403 66.3054 105.7 65.8891 107.186 65.7707C108.655 65.6537 109.993 65.86 111.2 66.3898C112.406 66.9023 113.38 67.668 114.122 68.687C114.864 69.7059 115.291 70.9238 115.404 72.3407C115.514 73.723 115.284 74.9845 114.714 76.1254C114.143 77.249 113.303 78.1679 112.195 78.8822C111.087 79.5965 109.799 80.0121 108.33 80.1292ZM108.066 76.8117C108.74 76.758 109.332 76.5543 109.843 76.2006C110.354 75.8469 110.742 75.3726 111.008 74.7776C111.272 74.1653 111.372 73.4618 111.309 72.667C111.244 71.8549 111.034 71.1762 110.677 70.6307C110.321 70.0853 109.862 69.6785 109.302 69.4101C108.741 69.1418 108.124 69.0345 107.45 69.0882C106.777 69.1419 106.184 69.3456 105.673 69.6993C105.162 70.053 104.766 70.528 104.483 71.1243C104.217 71.7193 104.117 72.4229 104.181 73.2349C104.245 74.0298 104.455 74.7085 104.813 75.2712C105.187 75.8152 105.654 76.2214 106.214 76.4897C106.775 76.7581 107.392 76.8654 108.066 76.8117ZM118.74 79.091L117.629 65.1472L128.8 64.257L129.064 67.5745L121.004 68.2168L121.841 67.2633L122.758 78.7709L118.74 79.091ZM132.054 78.0301L130.942 64.0863L134.96 63.7662L135.621 72.0599L141.75 63.2251L145.456 62.9297L146.568 76.8735L142.55 77.1937L141.889 68.9L135.786 77.7327L132.054 78.0301Z" fill="#FFFDFA"/>
</svg>
