<svg width="110" height="110" viewBox="0 0 110 110" fill="none" xmlns="http://www.w3.org/2000/svg">
<path d="M63.1219 60.0674C62.5381 59.7281 62.3448 60.1157 62.1444 60.5229C61.0456 62.79 59.9682 65.0685 58.8324 67.3168C58.3402 68.2916 57.6947 69.1919 57.1963 70.1582C56.8301 70.8657 56.4662 70.7282 55.9989 70.3046C54.3956 68.8578 52.709 67.4866 51.2458 65.9107C50.7775 65.4079 50.1692 65.0342 49.8132 64.415C49.6376 64.1051 49.2744 63.8648 48.8216 63.9062C48.3654 63.3833 48.1214 62.6104 47.1805 62.6507C47.4909 62.0387 47.257 61.5913 46.8172 61.0804C44.6543 58.5726 42.6358 55.9679 41.0211 53.1084C40.6821 52.5058 40.3389 52.1604 39.528 52.4649C39.1534 52.6087 38.6449 52.7828 38.2025 52.4682C38.4661 52.0907 38.9591 52.1984 39.3189 52.0191C38.7976 51.9195 38.1796 52.373 37.79 51.7253C37.9499 51.4537 38.2469 51.4267 38.5237 51.3602C39.5648 51.1163 39.5918 51.0617 39.0925 50.1893C38.9561 49.9493 38.7876 49.7272 38.6936 49.4727C38.6051 49.0075 38.2301 49.0767 37.8777 49.0591C37.5654 49.0459 37.1395 49.2473 37.0218 48.7484C38.6442 48.466 38.6254 48.473 38.0606 46.9786C36.5577 42.9948 36.5507 39.0988 39.2272 35.5421C41.8292 32.0879 46.8194 30.1618 51.9287 32.4448C53.0524 32.9468 54.1698 33.5102 55.0064 34.4347C55.4942 34.9724 55.8669 34.9222 56.3246 34.3062C58.091 31.9482 60.0517 29.7484 62.7248 28.2503C64.5654 27.2226 66.4946 26.5901 68.6556 27.2873C70.6562 27.9295 71.7552 29.4006 71.8569 31.3996C71.9953 34.0614 71.1991 36.5576 70.4175 39.0519C69.8584 40.833 69.1608 42.575 68.5198 44.3335C68.3984 44.6703 68.2486 45.0153 68.8376 45.0693C68.3905 45.8707 69.2339 45.3709 69.3937 45.566C69.5131 46.1488 69.0081 46.2759 68.6338 46.4943C67.6743 47.0456 67.3091 47.8323 67.5045 48.9331C67.2567 49.5701 68.0827 49.1238 68.1209 49.4738C66.5453 49.6664 66.0666 50.8123 65.6107 52.0161C64.9669 53.7189 64.2776 55.4132 63.5616 57.0922C63.4273 57.4073 63.5817 57.5984 63.6303 57.8445C63.1614 58.5225 62.9165 59.2525 63.1129 60.0732L63.1219 60.0674Z" fill="#F098D4"/>
<path d="M63.1214 60.0669C62.5256 59.281 62.7464 58.3393 63.6388 57.8382C66.9398 60.8089 70.1744 63.8344 73.08 67.1567C73.3666 67.4857 73.6473 67.6988 74.1611 67.6359C74.9077 67.5447 75.1641 68.0127 74.9476 68.5899C74.7711 69.0641 74.9356 69.3287 75.2138 69.668C76.4541 71.1639 77.6135 72.7162 78.6049 74.3731C78.9559 74.9556 79.1895 75.1137 79.8996 74.7562C81.3336 74.0349 82.7973 74.1407 84.1703 75.0229C84.5755 75.2814 84.8326 75.6467 85.0305 76.0472C85.6543 77.3243 85.3592 77.7244 83.9113 77.626C82.1947 77.5092 80.48 77.4061 78.764 77.2938C78.3412 77.2662 77.9766 77.2314 77.7154 76.764C74.6125 71.249 70.1987 66.7062 65.6068 62.3019C64.8012 61.5323 63.9432 60.8112 63.1117 60.0681L63.1214 60.0669Z" fill="#060306"/>
<path d="M47.1862 62.6509C47.8136 61.9068 48.0621 62.6045 48.4179 62.9344C48.7116 63.2065 48.9005 63.5054 48.828 63.911C45.4249 69.3579 42.3153 74.9323 40.7321 81.1414C40.6067 81.6281 40.4055 81.8861 39.8896 82.0424C38.0437 82.5994 36.2118 83.1874 34.3898 83.8114C33.7258 84.0373 33.5158 83.8716 33.4283 83.2336C33.1616 81.3621 34.8434 79.7518 37.127 79.762C37.5169 79.7657 37.9228 79.8141 38.2926 79.9229C38.796 80.0713 39.0016 79.9529 39.1009 79.4554C39.4877 77.532 40.4102 75.7765 41.1322 73.9615C41.3082 73.5199 41.5059 73.1644 41.1359 72.659C40.7543 72.1409 40.9961 71.64 41.7289 71.5924C42.1781 71.5609 42.3534 71.3294 42.507 71.012C43.9131 68.1473 45.5782 65.4096 47.191 62.6503L47.1862 62.6509Z" fill="#030304"/>
<path d="M37.0274 48.7477C37.4294 48.9833 37.8542 48.81 38.2683 48.8107C38.6382 48.8122 39.0448 48.7578 38.8421 49.3286C37.9201 49.9733 36.9248 49.689 35.9525 49.4998C34.8429 49.2808 33.8978 48.7149 32.9653 48.1335C32.6362 47.9264 32.2824 47.755 31.9575 47.5427C27.1683 44.3946 22.6628 45.4353 18.5582 48.3919C15.8982 50.3084 13.4631 52.4635 11.368 54.9411C11.3041 55.0142 11.2402 55.0874 11.1824 55.1691C11.124 55.2462 11.0874 55.3394 11.0181 55.4085C11.1726 55.385 11.1651 55.2226 11.2629 55.1453C11.4352 54.9282 11.6362 54.7403 11.8786 54.6033C12.1713 54.4369 12.4706 54.3909 12.7501 54.6321C13.0193 54.8699 12.8812 55.1201 12.7459 55.356C12.5632 55.677 12.3538 55.9826 12.1765 56.3076C12.1063 56.4422 12.0531 56.5934 11.9215 56.7122C12.1405 56.6201 12.1413 56.41 12.2497 56.266C12.5039 55.927 12.8002 55.536 13.2829 55.7851C13.8459 56.0803 13.5306 56.5482 13.3792 56.954C13.2686 57.2615 13.0493 57.531 13.0422 58.0546C14.051 56.1019 15.2505 54.4618 16.5912 52.9165C17.8939 51.4179 19.3125 50.0451 21.0552 48.9874C22.7025 47.988 24.4848 47.4341 26.4341 47.5225C27.6544 47.5787 28.8281 47.9066 29.7246 48.8004C29.78 48.9523 29.771 49.1027 29.6607 49.2329C29.065 49.1657 28.5764 48.838 28.0393 48.6237C26.516 48.0118 25.0236 48.3436 23.531 48.7454C19.2981 50.5509 16.6644 53.8456 14.431 57.5068C14.0937 58.0661 13.827 58.6727 13.2608 59.0733C12.7485 59.4346 12.1764 59.5045 11.9591 58.8544C11.7996 58.3745 11.6472 58.0898 11.124 57.8691C10.5169 57.6119 10.9878 56.733 10.1349 56.3005C9.41997 55.9399 10.222 55.0672 10.6208 54.561C13.6139 50.7603 17.1799 47.543 21.8032 45.6011C25.3169 44.1215 28.7949 44.4664 32.0498 46.4907C33.0358 47.1029 34.0478 47.6885 35.0705 48.2449C35.6622 48.5693 36.3114 48.7746 37.0122 48.7449L37.0274 48.7477Z" fill="#141414"/>
<path d="M69.3269 45.6256C68.8347 45.667 68.3799 46.4834 68.021 46.0232C67.7036 45.6139 68.706 45.5194 68.8511 45.0676C69.6158 44.6054 70.2402 43.983 70.7746 43.3156C73.7164 39.6795 77.6519 38.545 82.3013 39.0922C84.511 39.3542 86.6873 39.7322 88.8093 40.397C91.1221 41.1224 93.5033 41.4848 95.9552 41.3205C96.3326 41.7364 96.3284 41.7416 95.5876 42.0188C93.0372 42.4706 90.6209 41.8885 88.2154 41.1697C85.2245 40.2798 82.1613 39.8327 79.0167 39.9418C76.0436 40.0438 73.8054 41.4422 71.9379 43.4954C71.4453 44.0364 70.9295 44.5522 70.4021 45.0554C70.11 45.3338 69.8445 45.6976 69.3311 45.6204L69.3269 45.6256Z" fill="#1B1A1C"/>
<path d="M68.1296 49.4687C67.9551 49.49 67.7824 49.5251 67.6066 49.5373C67.309 49.5596 66.8598 49.8059 66.7526 49.4923C66.5896 49.0222 67.2677 49.1866 67.4544 48.9304C67.5744 48.6917 67.8202 48.615 68.0563 48.5395C70.1333 47.8702 71.6855 46.537 73.0649 44.9868C74.2093 43.6988 75.485 42.614 77.2247 42.0373C78.3234 41.6743 79.4145 41.723 80.5164 41.7423C84.4909 41.8259 88.2122 42.9019 91.812 44.4222C91.9791 44.4904 92.1167 44.595 92.2338 44.73C92.5518 45.8626 91.7362 45.1269 91.3987 45.1821C88.8816 44.3323 86.4158 43.3175 83.7381 42.9494C82.3212 42.7539 80.8997 42.5962 79.4669 42.608C77.6649 42.6229 76.1243 43.25 74.8803 44.4942C73.9699 45.4036 73.076 46.325 72.1431 47.2138C71.0141 48.29 69.6608 49.0248 68.1247 49.4693L68.1296 49.4687Z" fill="#1A181B"/>
<path d="M91.4051 45.1857C91.5046 44.8328 92.2401 45.6671 92.0947 44.8587C92.3136 44.6219 92.5652 44.7312 92.8105 44.7946C93.4762 45.0119 94.166 45.0816 94.9791 45.0802C94.7102 45.0244 94.5441 45.0354 94.3833 45.013C93.9981 44.9714 93.6729 44.8292 93.4602 44.5004C93.3143 43.8322 93.8497 43.8181 94.2902 43.7596C94.6926 43.7104 95.1031 43.8282 95.5053 43.7417C95.2954 43.7207 95.085 43.7324 94.8799 43.7108C94.4521 43.6464 94.2514 43.4049 94.2851 43.0041C94.3178 42.6313 94.6174 42.5154 94.9401 42.4246C95.3204 42.3221 95.7145 42.3206 96.1645 42.2236C95.9001 42.0925 95.5764 42.1041 95.5057 41.8047C95.6674 41.6542 96.2463 41.8495 95.9422 41.3219C96.3757 41.1756 96.8009 41.329 97.1992 41.4297C97.5823 41.5275 98.1007 42.0009 97.8972 42.1705C97.1523 42.8123 97.5803 43.9921 96.6143 44.4603C96.448 44.5413 96.2644 44.5684 96.3347 44.7932C96.7025 45.9291 95.8127 45.8745 95.122 45.8702C93.8395 45.8636 92.559 45.7634 91.39 45.1829L91.4051 45.1857Z" fill="#2E2C2E"/>
<path d="M29.6698 49.2314C29.6509 49.0937 29.632 48.956 29.6179 48.8177C30.1456 48.6038 30.4938 48.986 30.8762 49.1866C32.9592 50.2856 34.9829 51.5271 37.4945 51.5468C37.6425 51.5474 37.7624 51.6307 37.8473 51.7464C38.3823 51.9097 38.8941 51.6884 39.4211 51.6847C39.7018 51.683 40.1643 51.4258 40.2096 51.8637C40.2455 52.2327 39.7443 52.1726 39.4572 52.2357C39.046 52.328 38.6309 52.3927 38.2178 52.4712C34.8778 52.5574 32.1261 51.2555 29.6746 49.2308L29.6698 49.2314Z" fill="#2C2A2C"/>
<path d="M95.5198 41.8078C96.0041 41.8886 96.4932 41.9688 96.9787 42.0588C97.0243 42.0672 97.0569 42.1613 97.1472 42.2809C96.4576 42.7153 95.6601 42.5794 94.9283 42.7062C94.6969 42.7438 94.3911 42.7065 94.405 43.0595C94.4158 43.3896 94.5997 43.5445 94.9553 43.4777C94.887 44.1301 94.3159 43.7752 93.9872 43.8947C93.5884 44.0415 93.5669 43.9928 93.6189 44.4438C93.9386 44.4747 94.0857 44.9002 94.4738 44.7827C94.4855 45.2993 94.0276 45.1593 93.8013 45.1263C93.4639 45.0742 93.1087 45.1083 92.7849 44.9751L92.1039 44.8624C88.5109 43.2479 84.7601 42.2082 80.7673 41.9915C77.9463 41.8369 75.555 42.5866 73.7073 44.7121C72.7537 45.8088 71.741 46.8707 70.4876 47.6867C69.5647 48.2896 68.5903 48.7681 67.4652 48.9383C67.2254 48.8789 66.9731 48.8724 67.0852 48.504C67.3624 47.5786 67.4561 46.573 68.675 46.2233C68.9547 46.1425 69.268 45.9828 69.3384 45.6335C70.0395 44.9597 70.8174 44.3419 71.4357 43.6035C74.1629 40.3437 77.7355 39.2583 82.0066 39.707C84.7621 39.9956 87.3974 40.7003 90.0526 41.4072C91.8274 41.8764 93.6627 42.2121 95.5307 41.8157L95.5198 41.8078Z" fill="#FAEBC4"/>
<path d="M61.2738 44.5195C59.4809 44.7807 57.8087 44.341 56.1624 43.7301C55.4874 43.4812 55.4345 43.0957 55.7712 42.5318C57.6692 39.336 61.481 38.772 64.7289 40.8534C66.3392 41.8841 66.3011 42.2528 64.6524 43.3131C63.7464 43.8953 62.4305 44.3641 61.278 44.5144L61.2738 44.5195Z" fill="#FCF9FD"/>
<path d="M42.4816 42.7046C43.8759 41.3346 45.6529 41.2808 47.4299 41.5863C48.657 41.8004 49.6898 42.5376 50.7397 43.184C51.3911 43.5851 51.2838 43.953 50.8113 44.3888C50.2162 44.9376 49.5209 45.3306 48.7651 45.6424C47.7202 46.0735 46.6194 46.2781 45.496 46.3174C45.0347 46.3318 44.3485 46.5043 44.3256 45.6903C44.3622 45.4898 44.4771 45.3217 44.5866 45.1497C45.2825 44.0424 45.1214 43.4787 43.927 42.7846C43.4923 42.455 43.0419 42.8368 42.6038 42.769C42.5661 42.7456 42.5235 42.7228 42.4858 42.6994L42.4816 42.7046Z" fill="#FBFBFD"/>
<path d="M54.3692 50.5291C51.7549 50.8393 49.6153 50.7648 47.4895 50.3245C47.1751 50.2603 46.866 50.1627 46.5611 50.06C46.3546 49.9919 46.1133 49.886 46.1691 49.6458C46.2481 49.3235 46.553 49.4262 46.7897 49.4626C47.0366 49.5024 47.2813 49.5612 47.5253 49.6154C52.5211 50.6757 57.1448 49.8864 61.3772 47.1427C61.463 47.0856 61.5225 46.9803 61.6163 46.9455C61.922 46.8381 62.255 46.3913 62.5322 46.7589C62.7489 47.0451 62.2957 47.2265 62.0553 47.4146C59.6817 49.2636 56.9086 50.1767 54.3692 50.5291Z" fill="#330F2C"/>
<path d="M44.5941 45.5169C44.4101 45.9361 44.5571 46.1095 45.0327 46.1634C45.9288 46.2639 46.7941 46.1395 47.6308 45.8785C48.0043 45.7628 48.3725 45.6805 48.7568 45.6429C46.0749 46.9695 43.4719 46.4989 40.8961 45.3295C40.5546 45.1752 40.5202 44.8527 40.6792 44.6466C41.2092 43.947 41.5754 43.0948 42.4774 42.6999L42.4665 42.6919C42.6514 42.926 42.5459 43.1629 42.4792 43.3951C42.1902 44.6299 42.6 45.2099 43.8753 45.3434C44.1252 45.3689 44.3786 45.3472 44.5886 45.5129L44.5941 45.5169Z" fill="#FAE8F7"/>
<path d="M60.4906 42.0799C60.6121 42.9659 60.021 43.6869 59.0889 43.7915C58.1714 43.8943 57.3862 43.3089 57.2763 42.4355C57.1625 41.5346 57.7218 40.8688 58.692 40.7549C59.6719 40.6398 60.3634 41.1527 60.49 42.0753L60.4906 42.0799Z" fill="#08090A"/>
<path d="M44.5927 45.5171C43.0013 45.8096 42.3742 45.4429 42.0584 44.1466C41.9642 43.7474 42.0842 43.5087 42.3303 43.2546C42.7384 42.78 43.141 42.3014 43.9057 42.5579C45.5877 43.1411 45.8346 44.2218 44.5927 45.5171Z" fill="#090A0B"/>
</svg>
