<svg width="114" height="110" viewBox="0 0 114 110" fill="none" xmlns="http://www.w3.org/2000/svg">
<path d="M40.0541 3.19213C40.5412 1.14173 43.4588 1.14173 43.9459 3.19214L49.2145 25.3733C49.5097 26.6163 50.8787 27.2675 52.0293 26.7125L71.7034 17.2226C73.5682 16.3231 75.4033 18.5025 74.1994 20.187L60.818 38.9093C60.1191 39.8872 60.4345 41.2564 61.4909 41.8299L81.2409 52.5531C83.0406 53.5302 82.383 56.2598 80.3357 56.3101L58.3954 56.8496C57.1601 56.88 56.2476 58.0122 56.4804 59.2257L60.8413 81.9614C61.2363 84.0204 58.6 85.2223 57.3046 83.5739L43.5725 66.0994C42.7718 65.0804 41.2282 65.0804 40.4275 66.0994L26.6954 83.5739C25.4 85.2223 22.7637 84.0204 23.1587 81.9614L27.5196 59.2257C27.7524 58.0121 26.8399 56.88 25.6046 56.8496L3.66426 56.3101C1.61698 56.2598 0.959381 53.5302 2.75912 52.5531L22.5091 41.8299C23.5655 41.2564 23.8809 39.8872 23.182 38.9093L9.8006 20.1869C8.5967 18.5025 10.4318 16.3231 12.2966 17.2226L31.9707 26.7125C33.1213 27.2675 34.4903 26.6163 34.7855 25.3733L40.0541 3.19213Z" fill="#312FC3"/>
<path d="M94.8698 26.5985L85.0936 55.4382L113.495 48.4321L88.5686 65.1079L113.53 78.5215L85.1163 75.2306L94.9573 102.788L76.352 81.0698L66.4682 109.876L66.3766 79.8932L41.3929 96.4697L59.8578 72.2514L31.4642 68.8421L59.8457 61.7201L41.3279 39.9201L66.346 53.227L66.3688 23.2368L76.3172 50.7461L94.8698 26.5985Z" fill="#F1A4D2"/>
</svg>
