<svg width="333" height="148" viewBox="0 0 333 148" fill="none" xmlns="http://www.w3.org/2000/svg">
<path opacity="0.55" d="M70.4381 34.5483C61.1237 36.9179 50.5464 39.6085 39.9702 42.6436C30.3155 45.5086 20.5616 48.9199 14.512 55.8679C11.5579 58.945 9.22525 62.3317 7.61737 65.8149C5.15761 71.9368 6.18471 68.7728 5.03851 73.207C4.45157 76.0589 4.25057 78.9233 4.25213 81.8194C4.24888 85.2343 5.71642 88.7605 7.24595 92.4397C7.91218 94.0191 9.30849 95.7481 10.77 97.3718C12.8203 99.5747 10.0656 97.0021 12.271 99.2976C15.6281 102.686 19.2394 105.816 22.8518 108.919C28.0207 113.326 34.1132 116.648 40.3508 119.842C45.4321 122.452 50.7419 124.634 56.352 126.467C61.8921 128.284 67.5375 129.766 73.2458 131.1C93.8874 135.781 114.865 139.179 135.828 141.739C152.532 143.827 169.268 144.343 185.973 142.386C203.776 140.421 221.547 137.314 239.23 133.808C246.302 132.264 253.666 131.217 259.777 127.924C266.156 124.507 272.029 119.995 276.679 114.487C280.751 109.123 283.408 102.133 286.293 95.5638C288.433 90.5914 289.667 85.3218 290.137 79.8815C290.411 76.9134 290.518 73.8362 290.636 70.6795C290.137 64.0858 282.731 58.3298 276.704 53.2502C270.732 48.4709 263.159 45.5888 255.737 42.6627C247.392 39.4435 238.377 38.0067 229.734 36.5814C225.472 35.909 221.252 35.3253 217.124 34.8013C213.549 34.3537 215.659 34.8101 214.978 34.7385C204.286 33.6751 207.869 33.7399 200.899 32.9374C190.621 31.8004 179.883 30.864 169.074 30.2404C150.759 29.1906 132.224 29.0644 115.363 29.4808C112.754 29.5469 111.328 29.6146 110.577 29.6676C107.997 29.8614 112.769 29.8519 103.927 30.0351C103.134 30.0568 106.006 29.7318 102.889 29.8522C98.3764 30.028 91.337 30.4964 85.54 31.7599C82.2175 32.4315 79.2722 33.1428 77.3495 33.6305C67.502 36.2735 65.6065 36.909 57.1646 40.3503C56.8855 40.4705 56.6019 40.5957 56.3136 40.7264C48.016 44.3407 40.1629 51.4026 34.9615 60.1364C32.4334 64.1593 32.4756 69.2653 33.5516 73.7905C34.3273 76.7491 33.4021 72.8069 34.8447 77.4638C35.3828 79.0672 36.3489 81.5581 37.5831 84.2611C39.7713 88.9945 45.3904 93.0661 47.5552 94.8948C51.0441 97.65 49.4591 96.611 50.0602 97.1184C50.6575 97.613 51.3591 98.1674 52.1481 98.7698C57.8363 103.229 68.9848 108.107 70.5493 108.784C72.5801 109.704 74.6062 110.58 76.6316 111.42C85.97 115.263 95.3341 118.096 104.606 120.364C111.927 122.269 119.213 122.943 126.661 123.065C140.467 123.384 154.228 122.766 168.428 121.369C169.214 121.291 169.98 121.213 170.769 121.13C189.897 119.07 209.863 115.855 228.545 112.11C234.058 110.981 239.461 109.782 244.611 108.328C248.408 107.257 252.034 106.009 255.51 104.498C262.697 101.383 269.345 97.4286 274.467 92.09C277.591 88.8082 279.319 84.4057 280.709 79.9473C283.743 70.3475 284.291 59.4036 279.104 50.0329C278.933 49.718 278.735 49.4038 278.521 49.0995C276.789 46.9485 278.756 49.536 276.419 47.0707C271.013 42.1785 264.027 38.802 257.377 35.2348C249.908 31.3315 241.585 29.0849 233.352 26.7354C216.932 22.1754 200.218 18.6442 183.349 16.2413C178.156 15.5057 172.942 14.8849 167.717 14.3545C163.879 13.9734 168.848 14.233 165.012 13.8472C153.181 12.6702 137.801 11.6832 123.669 11.67C109.74 11.5968 97.0708 12.7399 90.2729 14.1536C88.3422 14.4078 86.3613 14.7019 84.3596 15.0388C77.0896 16.2387 69.5138 18.1442 62.5062 20.9294C55.6189 23.6045 49.2384 26.835 44.0816 30.1894C38.3681 34.0899 41.0864 32.0197 38.8344 33.7279C38.1441 34.2979 36.9474 35.2641 35.1577 37.2766C33.5463 39.1979 35.7505 36.8043 33.4374 39.747C28.9145 45.7971 26.3627 53.4863 24.587 61.25C23.4124 68.1252 26.3471 75.4479 28.2677 82.2081C28.6614 83.4855 29.0942 84.7387 29.564 85.9614C30.7474 88.9332 30.6186 88.0386 30.997 88.8577C32.5784 92.1976 34.9767 96.4287 37.5419 100.001C40.1459 103.7 43.1814 106.422 44.2261 107.373C46.196 109.121 48.1972 110.714 50.1773 112.236C58.7559 118.79 67.7261 122.437 77.121 125.164C82.8475 126.779 88.9309 127.681 95.4782 128.479C100.058 129.002 94.6702 128.162 99.0777 128.636C100.206 128.752 101.338 128.863 102.474 128.968C116.799 130.322 131.516 130.069 145.958 129.117C153.502 128.617 160.98 127.943 168.313 127.21C173.311 126.703 168.739 127.395 171.128 127.16C181.664 126.089 183.951 125.423 194.027 124.202C196.152 123.937 194.977 124.267 195.366 124.235C199.003 123.929 202.319 123.383 204.716 122.937C206.362 122.631 207.579 122.373 208.209 122.273C215.474 121.072 221.786 120.126 227.454 118.155C236.627 114.84 244.362 109.663 253.514 102.947C253.893 102.665 254.268 102.376 254.643 102.077C256.377 100.625 252.372 103.768 257.161 99.6075C260.319 96.689 263.105 93.3311 265.779 89.8415C271.437 82.4176 276.04 73.8533 277.92 64.6369C279.439 57.5599 276.33 50.5674 272.841 44.1547C269.229 37.8551 262.214 34.0257 255.859 30.1636C248.735 26.0371 240.61 23.7687 232.75 21.3018C226.513 19.4167 220.253 17.6721 214.054 16.0029C207.653 14.2951 212.267 15.3351 211.871 15.2096C205.375 13.1848 200.999 12.5524 198.898 12.0532C192.809 10.6082 186.858 9.20248 181.202 7.98004C171.46 5.85671 162.508 4.40909 155.216 4.0979C151.344 3.73671 147.462 3.51589 143.567 3.37192C131.462 2.95262 119.313 3.06253 107.261 3.92779C99.4448 4.52028 91.661 5.54622 84.101 7.4681C76.0814 9.43575 68.7716 13.4795 61.9353 18.1699C55.7964 22.2885 51.1035 28.1937 47.6332 34.7617C44.7055 40.5685 44.0074 47.5168 43.1036 54.1554C42.0673 62.4289 43.1521 70.8711 45.7672 78.7997C48.867 88.7708 55.7201 96.988 63.2441 104.219C67.7897 108.605 72.9597 112.396 78.1958 116.011C78.9462 116.523 77.4773 115.789 78.9779 116.807C80.3771 117.751 81.6618 118.589 82.8403 119.339C95.3184 126.857 95.5765 126.227 103.553 129.43C104.719 129.862 106.052 130.349 107.629 130.872C110.057 131.763 116.133 133.652 119.845 134.48C121.287 134.828 122.344 135.068 122.612 135.128C126.099 135.89 122.401 135.541 123.575 135.778C133.319 137.56 131.866 136.474 145.106 137.692C145.521 137.726 143.763 137.779 144.875 137.885C144.977 137.895 145.078 137.904 145.18 137.913C148.536 138.218 151.874 138.305 155.167 138.407C162.927 138.549 165.768 139.037 177.583 137.503C178.299 137.403 178.125 137.279 179.065 137.025C180.071 136.743 182.395 136.345 188.524 135.449C193.24 134.886 213.908 131.028 219.622 129.594C225.352 128.281 221.466 129.392 221.877 129.305C223.518 128.94 224.919 128.616 226.113 128.335C236.2 125.833 232.318 127.019 239.21 125.215C246.876 122.998 244.469 122.837 247.458 121.608C248.844 121.018 251.917 119.789 255.016 118.389C258.599 116.809 262.098 114.814 263.373 113.988C265.764 112.442 262.908 114.561 265.009 113.139C268.967 110.35 270.681 108.23 271.623 107.104C273.668 104.088 271.406 106.906 273.205 103.514C275.541 98.1091 276.504 92.7207 277.698 87.6154C279.011 81.6744 279.361 75.6946 278.755 69.2809C278.411 66.0651 278.581 68.7009 278.189 65.8518C278.013 64.6666 277.824 63.5343 277.625 62.442C276.451 56.0876 273.566 51.6124 269.766 46.4875C268.101 44.1392 265.879 41.8792 263.024 39.6596C261.467 38.1922 252.452 32.9121 246.409 29.794C245.673 29.3932 247.488 30.1388 245.115 28.9171C244.762 28.7364 244.306 28.5123 243.73 28.2489C237.182 25.0858 224.347 22.0679 216.675 20.5767C216.142 20.4709 215.708 20.3888 215.361 20.326C212.11 19.7538 216.773 20.8712 210.329 19.5565C207.155 18.9303 213.081 19.8622 207.115 18.7124C201.19 17.5301 185.906 15.2292 180.066 14.5515C174.242 13.8358 177.406 14.4341 176.933 14.3879C174.079 14.0848 162.876 13.0407 161.882 12.9887C160.045 12.8287 158.208 12.681 156.383 12.5482C140.333 11.3791 124.604 11.3478 109.082 12.2251C102.247 12.6168 95.462 13.0518 88.9119 14.8035C82.5099 16.4277 76.1971 18.4404 70.0541 20.8535C62.1658 24.0012 54.474 27.9138 47.8868 33.3448C41.1793 38.9459 38.068 47.7057 36.4388 56.3027C36.3032 57.0197 36.2273 57.5091 36.184 57.8391C36.0132 59.2267 36.4059 57.7046 36.3325 58.1672C35.2544 71.0627 35.2415 60.8336 35.2164 69.9797C35.5588 68.8035 35.5381 72.7176 37.109 79.5694C37.352 80.6224 37.7106 81.7336 38.1722 82.8844C39.9424 86.9178 39.1623 84.6357 39.3276 85.0022C42.4474 90.7221 45.054 94.522 45.6457 95.5466C47.8905 99.0855 50.9304 102.481 52.7245 104.876C52.8037 104.982 52.8807 105.085 52.9553 105.186C54.7959 107.516 49.9665 102.637 56.0283 109.128C57.9176 110.738 53.4816 105.924 58.3696 110.474C62.1261 113.814 67.0033 117.174 72.3443 120.754C76.8883 123.878 82.3485 126.173 88.0153 128.252C101.163 133.145 115.698 135.671 127.685 137.244C134.405 138.117 140.37 138.694 144.96 139.095C165.279 140.75 171.874 140.847 183.744 141.284C194.284 141.59 197.746 141.48 200.121 141.408C202.589 141.309 203.872 141.227 210.642 140.982C223.974 140.354 217.526 141.299 219.452 141.388C221.347 141.447 223.392 141.16 225.739 141.079C228.08 140.992 223.037 141.484 228.525 141.094C234.041 140.8 248.946 138.551 250.823 137.983C253.254 137.369 251.737 137.396 253.357 137.011C254.412 136.749 256.798 136.35 262.418 135.268C263.239 135.107 260.618 135.845 263.76 135.217C271.042 133.739 278.344 131.938 285.563 129.73C294.101 127.138 302.433 123.615 309.958 118.779C317.943 113.809 323.36 105.745 327.31 97.4962C328.805 94.3373 327.687 97.264 328.546 95.4172C328.87 94.7096 329.171 94.0339 329.452 93.3895C332.417 85.8875 331.548 82.2988 331.546 80.2936C331.36 78.2271 331.117 77.4045 330.628 74.3436C330.482 73.4058 330.239 72.2673 329.719 70.8915C330.665 73.707 331.266 64.9699 317.307 55.9053C314.398 53.9722 312.621 52.9992 311.362 52.3025C309.091 51.0942 308.362 50.8265 304.718 49.1669C303.027 48.3613 296.796 45.4938 295.602 45.1598C291.644 44.03 297.586 46.5248 282.077 40.7172C281.397 40.4705 283.64 41.0472 281.28 40.2073C280.554 39.9502 279.889 39.7175 279.216 39.4851C265.681 34.9611 263.142 34.5187 246.937 30.3829C238.095 28.1824 224.609 25.1617 211.935 23.0359C205.489 21.9396 199.258 21.0364 194.013 20.3534C194.423 19.762 179.686 18.1413 173.66 18.0218C163.536 17.0124 152.571 16.1861 142.755 15.544C139.38 15.3257 141.608 15.281 141.184 15.237C136.794 14.7828 133.361 14.738 130.905 14.7337C129.69 14.7309 128.754 14.7401 128.022 14.7164C114.994 14.3112 103.237 14.1005 91.6384 15.2265C83.2576 16.0148 74.9445 17.6274 66.7328 20.9049C65.5966 21.3495 64.4791 21.8654 63.3809 22.4422C62.6948 22.8634 61.6532 23.5927 56.5901 26.8405C56.271 27.0761 62.1486 22.4536 53.6244 28.8192C53.0099 29.3046 52.359 29.8272 51.6757 30.3819C48.181 33.1316 45.039 37.9466 42.3871 43.39C39.0943 50.6932 39.5033 59.7875 39.4516 67.3542C39.4595 68.1777 39.5074 68.9875 39.5872 69.7788C39.6908 73.3767 42.7738 81.8194 45.278 88.6703C45.2849 88.6905 45.2919 88.7108 45.2988 88.731C45.6203 89.6283 45.1031 88.7084 45.588 90.0101C47.3138 94.1878 49.0721 96.0315 51.8545 100.566C53.4517 103.128 56.293 107.091 60.2784 112.06C63.3112 115.952 67.9967 119.657 73.8189 122.582C74.2064 122.788 76.9716 123.934 80.6916 125.627C81.051 125.791 81.424 125.959 81.8106 126.128C88.6828 129.226 99.3213 130.958 107.093 131.93C110.828 132.385 108.462 131.884 109.109 131.959C111.599 132.241 114.024 132.487 116.4 132.71C137.902 134.572 154.911 135.38 179.29 135.713C182.749 135.748 190.757 135.631 198.523 135.448C201.886 135.372 205.208 135.286 208.109 135.235C218.654 134.898 207.897 136.877 232.104 134.644C238.789 133.928 246.615 132.378 256.435 130.608C260.941 129.793 265.881 128.964 271.323 127.974C274.723 127.201 278.073 126.311 281.355 125.287C290.459 122.474 299.006 118.5 307.002 113.727C313.155 110.069 318.031 104.717 322.343 99.0966C329.191 90.2905 329.114 78.3171 327.405 67.536C327.035 65.0898 325.771 62.8886 324.268 60.9655C323.372 59.6772 319.703 56.4781 317.108 53.96C316.989 53.8413 316.872 53.724 316.756 53.608C313.157 50.1137 310.738 48.486 307.603 46.5172C302.884 43.6572 298.082 41.2758 293.327 38.9691C284.224 34.6098 274.678 32.0587 264.837 29.6257C264.712 29.5954 264.591 29.5659 264.473 29.5371C259.203 28.294 261.024 28.5012 254.302 27.1102C247.422 25.7622 242.793 25.1905 233.404 23.81C226.302 22.7937 219.219 21.5432 209.74 20.7178C209.448 21.0251 206.21 20.8404 200.295 20.5233C197.763 20.3888 194.719 20.2322 191.217 20.0874C188.995 19.9972 191.37 20.2818 190.317 20.2477C186.022 20.1134 182.054 19.8077 177.972 19.7454C176.981 19.7304 176.928 19.8882 176.113 19.8859C169.216 19.8593 157.86 19.2443 155.909 19.1541C148.429 18.7816 144.934 18.9558 139.191 18.8213C133.463 18.6973 142.03 18.6229 135.335 18.5355C125.017 18.4109 112.476 18.4904 100.953 18.8196C96.9826 18.9323 93.1313 19.0754 89.5326 19.2419C83.9207 19.5165 87.7605 19.5406 86.9569 19.5847C75.3618 20.1984 63.6062 21.1891 57.3088 22.6417C52.5505 22.7458 50.9855 23.2034 47.2591 24.1664C44.6204 24.8808 40.8851 25.7861 34.2649 27.6683C33.0169 28.0429 31.2439 28.0064 36.0638 26.4986C39.0175 25.5994 42.9734 24.6384 47.1745 23.7665C49.8319 23.2117 52.5842 22.6883 55.255 22.2016C56.8765 21.8436 66.2114 20.1305 67.5179 20.0112C77.5886 18.7715 79.0919 19.5821 79.6259 19.5591C85.7094 19.5681 97.2354 18.595 100.286 18.4894C100.505 18.4804 100.724 18.4715 100.943 18.4628C114.574 17.9318 126.243 17.9892 137.715 17.9244C145.338 17.8968 146.09 17.4041 152.078 17.5069C171.989 17.9407 178.892 18.848 197.664 19.2818C199.312 19.329 199.622 19.2265 200.382 19.1768C201.515 19.117 203.582 19.1125 212.102 20.0751C213.002 20.1616 223.64 21.5317 229.809 22.0677C230.577 22.1301 230.581 21.9671 231.602 22.0823C238.431 22.8768 242.966 23.6687 250.358 24.9395C254.817 25.7173 259.809 26.6945 264.868 27.892C268.2 28.6794 271.565 29.5426 274.844 30.4957C279.827 31.9027 286.036 34.3925 288.3 35.4271C290.142 36.2323 292.016 37.0717 293.824 37.9474C298.296 40.105 302.535 42.1509 305.148 43.8357C308.776 46.2773 301.343 42.1453 310.934 48.3285C311.524 48.2182 312.57 48.42 313.386 48.4962C314.991 49.6752 316.544 50.9548 317.975 52.3901C321.943 56.5674 327.389 60.4439 328.666 67.349C330.262 78.0404 330.512 90.4382 323.265 99.8017C319.551 104.639 315.408 109.342 310.271 113.015C307.668 114.788 310.386 113.271 307.735 114.956C307.683 114.988 307.628 115.021 307.572 115.055C299.141 120.107 290.845 123.82 281.759 126.599C277.751 127.831 273.564 128.882 269.167 129.813C265.123 130.672 260.952 131.451 256.691 132.193C249.255 133.493 241.543 134.628 234.063 135.421C227.184 135.721 211.082 136.991 198.561 137.176C197.904 137.189 197.254 137.201 196.611 137.21C192.154 137.27 192.445 137.132 189.281 137.117C177.324 136.999 182.93 137.394 179.65 137.457C165.583 137.594 164.398 136.636 147.848 136.032C146.969 136.013 136.229 135.993 134.749 135.917C125.346 135.534 133.213 135.654 127.342 135.218C123.33 134.906 119.77 134.579 116.254 134.216C110.344 133.585 104.521 132.981 96.6841 131.698C93.5013 131.138 86.1541 130.089 80.023 127.043C79.2251 126.65 78.4472 126.256 77.6932 125.857C76.8561 125.414 77.4027 125.492 76.7243 125.147C65.0727 118.942 64.2003 118.122 59.1837 112.955C58.9903 112.731 58.7912 112.5 58.5858 112.26C53.4202 106.405 46.5274 96.2614 45.5756 93.8543C42.6822 87.8946 48.1239 98.2219 48.5296 98.3465C51.0463 101.289 46.3265 95.4938 43.8414 89.221C43.6733 88.7792 43.5069 88.3426 43.3441 87.9146C43.4359 86.8472 40.2188 77.9829 40.9265 81.3551C40.984 81.7559 42.8726 86.659 43.3441 87.9146C41.4365 83.6643 37.721 76.6094 37.7492 67.3536C37.8031 65.1985 37.8895 62.9702 38.046 60.6971C38.2408 58.015 38.3799 57.9465 38.543 56.5104C38.8927 55.099 38.3123 52.1919 40.8532 44.2098C41.0398 43.7297 41.2287 43.2962 41.4115 42.9111C43.9704 37.8131 42.5291 39.4207 45.913 34.1771C47.1824 32.3773 48.713 30.5932 50.585 29.0479C55.004 25.4035 60.0725 21.5165 66.11 19.2615C74.1989 16.1605 82.8444 14.5545 90.4589 13.7616C90.8504 13.7195 91.1916 13.6834 91.4865 13.6519C95.2886 13.2641 90.8514 13.4865 94.3844 13.1643C104.504 12.3165 113.422 12.5635 123.554 12.7787C124.468 12.8011 122.229 12.5208 125.385 12.623C127.273 12.6866 129.124 12.7594 130.989 12.8413C152.534 13.85 171.912 15.4809 194.69 18.3508C199.456 18.9635 205.721 19.8118 212.29 20.8689C222.191 22.4444 232.767 24.5686 240.076 26.279C252.69 29.1927 266.868 33.23 279.809 37.7575C288.512 40.7951 296.687 43.9425 303.487 47.0456C308.42 49.3103 310.598 50.539 311.975 51.2596C313.638 52.154 314.105 52.2936 316.592 53.7766C323.001 57.2491 332.652 66.3635 332.556 74.1522C332.744 76.3837 332.864 78.1144 332.88 78.7432C332.899 78.7864 332.626 75.9985 332.393 74.1684C332.121 72.2206 331.848 71.0968 332.257 73.9739C332.26 74.0436 332.263 74.1127 332.266 74.181C332.409 77.2154 332.874 78.6358 332.88 78.7432C332.897 79.5838 333.598 87.2946 330.61 93.8875C328.633 98.5394 326.336 102.821 325.425 104.359C324.275 106.324 325.097 105.333 324.475 106.35C321.07 111.834 316.605 116.882 311.01 120.437C303.385 125.415 294.869 129.075 286.19 131.753C275.599 135.041 264.749 137.496 253.755 139.344C252.306 139.587 250.853 139.82 249.396 140.041C248.905 140.113 249.612 139.784 248.455 139.954C232.314 142.234 221.879 143.074 208.453 143.605C205.551 143.705 202.776 143.761 200.129 143.784C190.545 143.857 182.664 143.533 176.459 143.014C166.345 142.717 151.872 141.641 143.558 140.781C135.248 139.932 134.044 140.17 133.317 140.111C131.268 139.911 129.297 139.699 127.403 139.476C112.272 137.597 101.038 135.483 87.2093 130.459C83.4065 129.036 79.3432 127.475 75.0871 125.142C73.8441 124.457 72.4728 123.629 71.0518 122.666C65.1631 118.652 56.8981 113.323 51.1279 106.177C47.3558 101.583 43.9296 97.0948 41.4954 93.432C38.356 88.6586 36.166 84.693 35.0447 80.0391C34.3455 76.905 33.7709 73.6824 33.4575 69.8604C33.3644 68.6238 33.2601 69.887 33.2273 69.5096C32.7543 59.2138 33.4629 64.169 33.557 62.0588C33.7412 60.4361 33.9858 58.9566 34.2848 57.5115C35.5748 52.3222 36.0452 47.0466 41.404 38.0657C42.25 36.7578 43.9546 34.1015 46.5306 31.7255C48.8793 29.5274 51.669 27.4309 53.9387 26.0222C60.0756 22.4082 57.8236 23.8699 64.4877 20.6321C65.0731 20.3809 64.8603 20.2364 69.1015 18.5177C69.1078 18.5152 69.114 18.5127 69.1203 18.5102C75.2472 16.0964 81.6453 14.0355 88.289 12.3452C95.0007 10.5421 102.095 10.074 108.934 9.67823C117.279 9.20127 125.676 8.97777 133.902 9.03776C136.874 9.0671 133.068 8.78447 137.364 8.84002C143.641 8.94031 150.085 9.21542 156.591 9.68953C170.999 10.7518 185.573 12.6552 198.91 14.8729C203.671 15.6795 200.658 15.3533 201.685 15.5713C206.269 16.5457 212.292 17.4869 215.812 18.0956C217.138 18.3217 218.098 18.4883 218.497 18.5695C228.332 20.6359 237.606 22.6348 246.185 26.7126C255.512 31.3953 265.057 36.127 271.709 45.1161C275.171 49.7624 278.885 55.4285 279.988 62.014C281.274 69.1616 281.926 76.8144 280.869 84.8442C280.806 85.3137 280.668 86.5111 280.375 88.1516C279.382 93.3103 277.828 103.733 273.269 108.516C273.228 108.558 273.188 108.6 273.148 108.642C272.882 109.035 267.682 114.048 262.41 117.259C262.069 117.438 265.995 115.529 259.345 119.192C258.36 119.7 257.281 120.233 256.123 120.773C249.463 123.945 240.033 127.421 231.605 129.532C230.486 129.818 228.824 130.203 226.713 130.68C222.926 131.536 217.718 132.669 211.739 134.113C211.148 134.312 196.766 137.798 191.456 138.051C190.594 138.069 191.429 137.557 180.13 139.301C178.755 139.501 179.856 139.428 179.365 139.546C179.079 139.612 178.283 139.745 176.205 139.996C167.512 141.081 155.787 141.523 144.959 140.838C144.881 140.834 144.804 140.83 144.726 140.825C142.831 140.746 134.727 140.346 128.359 139.055C127.362 138.854 129.293 138.989 125.918 138.423C123.722 138.046 121.512 137.637 119.301 137.187C113.668 136.089 107.837 134.418 102.442 132.128C95.1904 129.142 88.1325 125.561 81.5663 121.353C80.9189 120.938 80.2731 120.518 79.6328 120.096C74.7759 116.824 77.4016 118.283 72.465 114.704C69.7352 112.669 65.4767 109.469 61.6946 105.812C58.7747 102.982 55.9894 100.104 54.0993 97.9609C49.9635 92.9684 53.7638 99.0443 48.1495 90.9602C45.9423 87.4643 44.1526 83.6836 42.8621 79.7495C40.0962 71.4964 38.9173 62.5296 40.0155 53.7806C40.9745 46.9928 41.499 40.1421 44.9249 33.2711C48.4977 26.5171 53.6239 20.0455 60.2291 15.6592C67.1781 10.9155 74.9162 6.64122 83.3711 4.59027C89.2844 3.10021 95.2992 2.14865 101.323 1.51082C106.008 1.04664 104.139 1.14095 107.028 0.857466C107.918 0.776423 109.271 0.667018 111.41 0.543455C120.679 0.0198581 131.804 -0.189259 143.679 0.20384C156.114 0.495604 169.409 2.3832 181.814 5.10208C200.252 9.09336 217.373 13.7183 229.302 17.2885C231.006 17.802 232.417 18.2401 233.558 18.6031C247.331 23.0876 224.767 16.3214 240.322 21.2594C246.868 23.3564 253.937 25.8366 257.262 27.7641C258.039 28.1795 258.624 28.5006 258.97 28.7032C265.529 32.6491 271.774 36.3242 275.429 42.7704C278.949 49.306 282.474 56.8967 280.758 65.1783C280.18 68.1737 279.273 71.1261 278.119 74.1019C276.668 77.6636 278.337 74.2682 277.031 77.2792C274.731 82.3807 271.71 87.2782 268.255 91.7438C264.872 96.1354 261.177 100.421 256.976 103.848C256.254 104.44 255.684 104.884 255.218 105.244C253.329 106.692 253.313 106.848 250.466 108.856C243.299 113.803 236.612 118.147 228.456 121.016C226.986 121.513 225.444 121.972 223.885 122.352C222.977 122.568 229.03 120.802 221.489 122.703C216.426 123.83 210.876 124.662 205.09 125.495C196.984 126.648 188.442 127.734 180.275 128.787C176.124 129.311 176.007 129.729 167.032 130.413C165.146 130.54 167.506 129.902 157.105 131.255C156.255 131.361 151.674 131.921 146.181 132.392C140.372 132.9 133.564 133.245 129.095 133.149C126.807 133.113 120.962 132.803 115.907 132.692C115.22 132.676 117.963 132.976 113.768 132.845C109.944 132.708 106.067 132.463 102.18 132.107C93.6245 131.278 84.937 130.351 76.3043 127.986C73.7847 127.264 71.2805 126.469 68.8119 125.579C64.9593 124.137 70.6032 126.557 64.8821 124.309C59.3516 122.041 53.5247 118.931 48.1813 114.879C43.3848 111.225 38.4029 107.252 34.6584 102.104C31.1298 97.3185 28.321 92.0726 26.483 87.0541C24.475 81.2278 26.0406 85.1993 25.9012 84.7681C25.734 84.1848 25.5764 83.6192 25.4266 83.0691C23.8556 77.3355 22.5832 73.854 22.1033 71.7093C21.3059 68.0609 20.6648 64.4047 21.4976 60.5375C23.7497 51.0069 26.7073 42.0533 34.0167 34.3376C36.7816 31.6076 34.6786 33.392 35.223 32.8397C35.8758 32.2077 36.4243 31.7247 36.8758 31.3441C40.3783 28.5181 37.2917 31.2159 40.8436 28.6594C47.001 24.4063 54.061 20.8517 61.3403 17.9791C67.4677 15.5285 73.8908 13.7247 80.0441 12.5139C84.9733 11.5764 79.4404 12.3644 83.77 11.5831C83.7923 11.5793 83.8149 11.5754 83.8377 11.5715C96.9023 9.32884 110.359 8.68568 123.673 8.70616C137.263 8.74803 150.747 9.43938 163.763 10.6348C168.613 11.0959 165.544 10.9955 166.551 11.1273C172.104 11.8575 179.758 12.5631 183.793 13.0291C184.804 13.142 185.578 13.2324 186.049 13.2932C196.695 14.7211 200.77 15.6497 210.062 17.5293C217.922 19.1596 226.04 21.0914 234.288 23.3714C242.425 25.6866 250.936 27.9171 259.009 32.1168C266.869 36.6435 275.716 39.5732 281.97 48.4789C287.627 58.6182 287.033 70.8699 283.817 80.905C282.356 85.5927 280.468 90.502 276.84 94.3278C271.025 100.371 264.042 104.301 257.257 107.302C257.108 107.367 256.958 107.433 256.807 107.498C247.546 111.507 238.162 113.404 229.187 115.271C209.098 119.22 190.175 122.122 171.086 124.158C156.517 125.647 141.855 126.454 126.595 126.141C119.239 126.046 111.404 125.362 103.873 123.405C103.739 123.373 103.604 123.34 103.467 123.307C100.102 122.475 103.436 123.551 100.537 122.82C91.9557 120.603 83.5227 117.927 75.3359 114.514C66.6898 110.828 58.1835 106.886 50.3036 101.276C44.6888 96.8721 38.3025 93.1519 34.4184 85.696C30.9884 77.8447 26.806 67.767 32.2192 58.4581C34.4326 54.8304 37.0053 51.3559 40.0119 48.2424C42.3488 45.9227 38.7501 49.0488 42.6172 45.4158C46.1948 42.2073 50.7562 39.2193 55.7586 37.0867C61.9269 34.4406 68.3938 32.3598 74.1293 30.8411C79.143 29.5531 72.4782 31.4858 77.5244 30.218C79.9405 29.6302 82.3987 29.0874 84.8993 28.5918C93.2943 26.8453 102.049 26.6367 110.479 26.3351C111.899 26.2908 113.317 26.2503 114.736 26.2133C119.967 26.0858 112.071 26.0223 118.876 25.8854C135.743 25.591 152.518 25.7981 169.268 26.7142C189.645 27.8836 209.935 29.8824 230.286 33.0953C239.175 34.6056 248.189 36.0578 256.974 39.4739C256.999 39.4836 257.023 39.4933 257.048 39.503C260.028 40.718 262.535 42.0208 268.866 44.8836C269.393 44.9973 269.434 44.8519 269.701 44.8316C272.887 46.4009 276.032 48.2145 278.902 50.5114C284.866 55.9209 292.834 60.21 294.214 70.8065C294.015 79.3737 293.309 88.7033 289.613 96.9704C286.651 103.642 284.269 110.391 279.454 116.802C274.434 122.745 268.248 127.482 261.485 131.111C254.472 134.83 247.085 135.772 239.948 137.353C222.239 140.863 204.443 143.985 186.362 145.995C179.318 146.752 172.214 147.253 165.078 147.297C162.196 147.301 167.18 147.556 161.595 147.529C152.742 147.424 144.018 146.653 135.374 145.652C114.357 143.12 93.5885 139.815 72.3638 134.921C70.4752 134.472 68.5884 134.004 66.7005 133.51C63.5553 132.632 65.2401 132.823 56.0012 130.07C54.5028 129.736 43.1828 125.586 38.6765 123.134C38.1786 122.89 37.756 122.683 37.4252 122.522C36.9667 122.296 39.2233 123.709 35.0732 121.538C29.9995 118.832 24.8847 115.85 20.2805 111.934C14.3704 106.555 7.807 102.254 3.3091 94.0775C1.8136 90.4127 0.0314569 86.4352 0.0124168 81.8155C-0.244703 71.7223 3.49988 61.2034 10.3353 53.9107C10.7846 53.4127 11.1112 53.0771 11.3399 52.8511C12.6041 51.6165 10.6248 53.8965 12.5046 51.9725C19.5283 44.7062 29.4638 41.4607 38.8041 38.634C51.2682 35.047 63.7649 31.9036 75.3887 29.1401C88.7279 26.0185 84.3267 27.4612 90.9351 26.2654C91.0969 26.2365 91.2633 26.2065 91.4344 26.1755C92.4514 25.9717 100.966 24.1005 101.45 24.2638C102.672 24.5569 98.6896 25.9504 100.482 26.1609C100.667 26.1898 103.608 25.5571 105.575 25.3497C106.55 25.2418 107.266 25.2782 107.413 25.3059C107.525 25.3548 107.006 25.3166 105.444 25.573C105.048 25.5178 96.8792 27.3002 94.8699 27.8919C93.497 28.2741 96.0629 27.9088 93.2213 28.6474C92.6721 28.7903 92.1644 28.9148 91.5818 29.0514C89.1477 29.6231 86.3041 30.1887 82.4665 31.2019C77.7405 32.4601 79.8903 32.1678 70.4381 34.5483ZM106.36 135.099C98.8512 133.161 97.5575 133.59 105.78 135.345C106.178 135.424 106.753 135.195 106.36 135.099ZM326.362 93.2449C325.261 95.6778 323.945 97.7517 322.707 99.3747C319.182 103.941 317.703 105.977 321.306 102.002C321.971 101.236 322.594 100.47 323.17 99.7286C326.814 94.9401 327.329 90.6765 326.362 93.2449ZM261.874 28.2539C262.867 28.5041 263.782 28.7327 264.617 28.938C273.033 31.0804 274.189 30.5818 264.768 28.3075C264.226 28.1817 263.621 28.0462 263.004 27.9134C262.282 27.7573 261.208 28.0866 261.874 28.2539ZM57.8992 34.5459C58.0039 34.5252 64.0529 32.9825 64.1961 32.9394C67.3573 31.8836 55.2618 34.9657 57.8992 34.5459ZM158.619 18.6621C162.296 18.8691 172.891 19.0124 168.328 18.7021C164.651 18.4398 154.038 18.3888 158.619 18.6621ZM279.085 68.9213C279.118 69.0411 279.439 73.5067 279.467 73.4164C279.72 73.0996 279.079 66.8783 279.085 68.9213ZM4.49269 62.5742C3.36545 54.2491 5.64812 46.9672 7.91152 42.4252L7.91825 42.4152C11.2269 39.0486 13.6663 37.4207 13.9456 37.3336C14.2627 37.2891 12.3152 38.595 8.34425 42.8187L8.44472 42.6701C7.64055 44.4444 6.7714 46.6264 6.07877 49.2976C5.50568 51.7644 5.95411 49.068 6.70901 46.6093C7.46318 44.151 8.38952 41.9237 7.10549 44.914C4.34046 51.918 4.24388 58.123 5.3988 64.3462L5.39253 64.3176C6.39685 67.9168 7.873 71.5613 9.44471 75.7969C10.1137 77.4818 6.00229 68.7272 4.82554 64.4663L4.82157 64.4482C4.62702 63.505 4.52042 62.8035 4.48558 62.5282C4.48794 62.5436 4.49031 62.5589 4.49269 62.5742ZM102.221 133.22C102.065 133.203 96.0893 131.591 95.9528 131.527C92.6425 130.875 104.706 134.165 102.221 133.22ZM64.9298 106.202C64.8678 106.136 64.0935 105.458 63.0393 104.429C59.9315 101.525 54.642 95.6075 54.4846 95.2908C51.1197 91.5392 58.2061 100.582 62.8474 104.627C65.0272 106.659 66.4146 107.658 64.9298 106.202ZM193.77 20.3061C187.045 19.6827 179.019 18.8413 173.691 18.0251C180.367 18.6935 187.082 19.4391 193.77 20.3061Z" fill="#A31261"/>
</svg>
