<svg width="564" height="539" viewBox="0 0 564 539" fill="none" xmlns="http://www.w3.org/2000/svg">
<path d="M511.121 53.2186H42.7734V521.785H511.121V53.2186Z" fill="#FFFEFE"/>
<path d="M486.209 146.644H67.462V147.043H486.209V146.644Z" fill="#DCB798"/>
<path d="M486.24 183.198H67.494V183.597H486.24V183.198Z" fill="#DCB798"/>
<path d="M486.272 219.737H67.5259V220.136H486.272V219.737Z" fill="#DCB798"/>
<path d="M486.305 256.275H67.5579V256.674H486.305V256.275Z" fill="#DCB798"/>
<path d="M486.336 292.813H67.5899V293.212H486.336V292.813Z" fill="#DCB798"/>
<path d="M486.368 329.351H67.6218V329.75H486.368V329.351Z" fill="#DCB798"/>
<path d="M486.384 365.89H67.6378V366.289H486.384V365.89Z" fill="#DCB798"/>
<path d="M486.416 402.428H67.6699V402.827H486.416V402.428Z" fill="#DCB798"/>
<path d="M486.448 438.966H67.7018V439.365H486.448V438.966Z" fill="#DCB798"/>
<path d="M486.48 475.504H67.7338V475.904H486.48V475.504Z" fill="#DCB798"/>
<path opacity="0.54" d="M115.512 409.689C146.13 389.829 162.317 381.252 162.53 385.622C163.118 397.685 159.822 404.222 159.602 411.959C159.5 415.559 161.477 418.453 163.558 419.92C168.977 423.74 177.726 407.658 184.66 399.89C190.209 393.675 196.158 391.722 199.286 391.922C207.581 392.454 208.282 404.248 210.99 405.501C225.001 411.988 249.219 390.054 261.118 390.662C271.479 391.192 271.387 405.489 275.136 408.623C284.64 416.57 299.799 395.922 307.729 391.107C312.625 388.135 317.779 388.788 320.7 390.035C327.306 392.857 328.649 401.74 331.358 402.787C337.553 405.182 344.51 397.176 352.453 392.361C356.364 389.991 362.064 389.628 367.907 390.662C373.039 391.571 375.455 400.448 378.583 407.551C379.77 410.248 381.297 410.517 383.592 409.489C389.627 406.784 393.848 403.006 396.556 402.379C402.499 401.004 405.973 405.915 408.054 407.796C413.909 408.849 421.395 409.689 429.538 409.482C432.717 409.275 433.958 408.862 437.745 408.435" stroke="#615FE0" stroke-width="5" stroke-linecap="round"/>
<g opacity="0.8">
<path opacity="0.8" d="M129.583 36.6772C125.522 32.3739 120.853 28.7265 116.743 24.4711C115.272 22.9354 113.193 20.9997 111.994 19L0 124.215C4.06146 126.407 8.31478 132.278 10.7612 134.774C18.5004 142.661 26.2236 150.579 33.643 158.754L145.237 53.9225C139.209 49.1873 134.892 42.3563 129.551 36.7092L129.583 36.6772Z" fill="#E7AE4A"/>
</g>
<g opacity="0.8">
<path opacity="0.8" d="M558.499 84.2537C559.954 78.5266 560.53 72.6075 561.921 66.8644C562.417 64.8007 562.961 62.0012 564 59.9215L415.197 21.7195C415.533 26.3268 412.862 33.0617 412.063 36.4692C409.552 47.2355 407.01 58.0018 404.084 68.6561L552.359 106.73C553.127 99.0993 556.565 91.7885 558.483 84.2537H558.499Z" fill="#E7AE4A"/>
</g>
</svg>
