<svg width="564" height="540" viewBox="0 0 564 540" fill="none" xmlns="http://www.w3.org/2000/svg">
<path d="M516.198 54.7738L48.2556 54.4714L48 455.94L116.378 520.613L515.894 520.884L516.198 54.7738Z" fill="#FFFCE9"/>
<path d="M116.378 520.613L48 455.94L116.41 455.988L116.378 520.613Z" fill="#ECE6C9"/>
<g opacity="0.8">
<path d="M448.427 21.0051L215.718 19C215.207 22.5647 214.248 26.368 214.104 28.2776C213.098 41.1836 213.098 54.1691 214.04 67.091L450.296 69.1279C449.833 58.4021 449.417 47.6764 449.194 36.9506C449.098 32.1287 448.283 26.3044 448.427 21.021V21.0051Z" fill="#FF279D"/>
</g>
<path opacity="0.37" d="M148.204 378.902C169.507 380.57 176.992 381.41 186.603 382.45C208.258 384.795 216.688 383.917 231.07 384.958C256.469 386.796 274.828 385.585 279.192 386.212C293.911 388.327 301.547 388.506 326.154 389.14C332.52 389.303 351.149 390.187 378.1 390.393C387.672 390.6 388.914 391.014 396.587 391.227C404.261 391.44 418.329 391.44 432.823 391.44" stroke="#A3790C" stroke-width="5" stroke-linecap="round"/>
</svg>
