<svg width="94" height="57" viewBox="0 0 94 57" fill="none" xmlns="http://www.w3.org/2000/svg">
<path opacity="0.63" d="M19.4874 29.3043C19.6032 29.6641 19.5714 30.1918 19.509 30.6273C19.4894 30.7616 19.2956 30.7279 19.2747 30.8243C19.235 31.0168 19.3548 31.1619 19.3063 31.3577C19.2895 31.4231 18.9863 31.4064 18.9755 31.4744C18.9174 31.8418 19.0647 32.1551 19.0905 32.5211C19.2213 34.3309 19.7121 36.0943 20.3291 37.8609C20.5321 38.4428 20.6087 39.2399 21.0014 39.7616C21.0473 39.822 21.2578 39.6664 21.2832 39.6695C21.6731 39.7197 21.1753 39.8892 21.1802 40.0507C21.1995 40.688 21.4927 41.2742 21.8578 41.7043C22.0145 41.8876 22.337 41.4241 22.2089 41.7741C22.2006 41.7982 21.9342 41.8856 21.9419 41.9563C21.9599 42.1167 22.1466 42.3317 22.1882 42.4406C22.267 42.6513 22.2884 42.6805 22.3971 42.8589C22.5439 43.1039 22.6149 43.4625 22.8385 43.6833C22.8866 43.7294 23.0714 43.5013 23.1687 43.5599C23.2657 43.6186 23.4005 43.8563 23.3995 43.9698C23.3982 44.0834 23.1952 44.1782 23.1632 44.2207C22.8925 44.5789 23.5614 44.496 23.5964 44.5187C23.6563 44.5614 23.7117 44.6061 23.7632 44.6526C24.1584 44.9607 24.2851 45.4613 24.7008 45.7388C25.0448 45.9652 25.4751 46.0301 25.7967 46.1202C26.1148 46.2115 26.3905 46.3307 26.6825 46.3095C26.7717 46.3003 26.8618 46.286 26.9529 46.2649C27.0084 46.2523 26.884 45.9395 26.95 45.9235C27.6512 45.7525 28.3427 45.5849 29.1286 45.518C29.2074 45.5114 29.2216 45.8172 29.3078 45.8263C29.829 45.8827 30.8083 46.0548 30.4917 44.796C30.7947 44.6981 31.1656 44.554 31.5454 44.6287C31.7906 44.6761 31.7898 45.042 31.9253 44.8066C31.9559 44.7537 31.7562 44.5505 31.8119 44.4895C32.0466 44.233 32.4035 44.1163 32.602 43.8165C32.6421 43.7549 32.4911 43.5575 32.4825 43.5098C32.415 43.1225 32.9681 43.4704 33.0399 43.4739C33.5842 43.4948 33.7912 43.1911 34.1262 42.9551C34.2052 42.8994 33.9161 42.6989 33.9845 42.636C34.3435 42.3118 34.7535 42.0321 35.2193 41.8501C35.3237 41.8099 35.4236 42.0929 35.4827 42.0849C35.7431 42.045 35.4442 41.5979 35.6825 41.5534C35.7324 41.5433 35.8661 41.7475 35.8894 41.7629C36.2547 42.005 35.9666 41.4741 35.9836 41.4431C36.1959 41.0359 36.8 41.3363 37.0567 41.0016C37.0868 40.9612 36.8029 40.8 36.8996 40.7007C37.5435 40.0366 38.3191 39.4556 39.1666 39.0117C39.2965 38.9437 39.378 39.1821 39.4038 39.197C39.8119 39.4257 39.4786 38.9231 39.4974 38.8753C39.6564 38.5091 40.2524 38.6364 39.95 37.9484C41.2573 37.0634 42.1058 35.6959 43.6694 35.0789C43.6888 35.0705 43.8659 35.307 43.9038 35.2893C44.3628 35.0778 43.9795 34.8139 43.822 34.1932C43.7826 34.0373 44.4221 34.3571 44.4716 34.378C44.6535 34.4557 44.8963 34.8271 44.9395 34.8345C45.2864 34.8856 44.2648 33.8661 44.4764 33.6638C44.4847 33.6592 44.6401 33.878 44.6761 33.8801C44.7879 33.8881 44.7694 33.76 44.8861 33.7752C45.1548 33.8115 45.6812 34.2783 45.5883 33.804C45.5757 33.7429 44.9757 33.1839 45.1917 33.0325C45.2784 32.9724 45.6032 32.6461 45.7328 32.597C45.8626 32.5475 45.9792 32.8 45.9937 32.802C46.4845 32.819 46.4881 33.0141 46.9676 33.2721C47.4455 33.529 46.5714 32.6669 46.5294 32.5186C46.4878 32.3704 46.8706 32.4064 46.9844 32.4371C47.098 32.4679 47.1558 32.6432 47.2347 32.647C47.7541 32.6687 46.9371 32.092 46.893 31.8671C46.7885 31.3347 47.5709 31.8502 47.8234 31.7388C47.8918 31.7085 47.7088 31.5953 47.7422 31.5382C47.8771 31.3136 48.1775 31.4232 48.2118 31.0395C48.2173 30.9771 48.0196 30.4172 48.4 30.6143C48.4545 30.643 48.5624 30.8512 48.6755 30.8173C48.8446 30.7669 49.0906 30.6119 49.1666 30.4421C49.2229 30.3163 48.866 30.1344 49.0618 30.1149C49.1489 30.1065 49.1972 30.3565 49.3487 30.3273C49.4994 30.2985 49.7447 30.0676 49.836 29.977C49.9269 29.8864 49.6868 29.7204 49.6819 29.6992C49.6565 29.5756 49.7518 29.3098 49.7683 29.2959C50.5731 28.5438 51.6547 28.2505 52.3797 27.4523C52.437 27.3898 52.2046 27.1939 52.2114 27.182C52.3557 26.9026 52.682 27.6617 53.0047 27.7419C52.5999 27.2895 52.7608 27.3 52.8767 27.121C52.9324 27.0344 52.7437 26.8849 52.7356 26.8606C52.6255 26.4913 52.9933 26.7871 53.072 26.8448C53.363 27.056 53.1892 26.6709 53.3844 26.8117C53.5782 26.9516 53.6734 27.3111 53.8215 27.1882C53.7294 26.9843 53.2644 26.6288 53.3232 26.4651C53.546 25.8434 54.6487 25.5603 55.0357 25.3327C55.4233 25.1028 55.516 24.9866 55.7732 24.8972C56.2378 24.7376 55.8523 24.4965 55.9811 24.1686C56.112 23.8404 56.5903 24.7704 56.7529 24.9282C56.8129 24.9871 56.8375 24.9947 56.8504 24.9845C56.8679 24.9716 56.8589 24.9038 56.9273 24.951C57.0361 25.0263 57.0268 25.2126 57.1512 25.1868C57.275 25.1612 57.3371 24.6506 57.2462 24.4324C57.0555 23.9689 56.651 23.6133 57.018 23.5943C57.0393 23.5935 57.1357 23.8551 57.2098 23.8404C57.7902 23.7183 58.2846 23.4217 58.853 23.2848C58.931 23.2667 59.0342 23.5594 59.0813 23.5517C59.5735 23.4728 59.1649 23.1259 59.0796 22.5106C59.4306 23.1816 59.7916 23.5008 60.0917 23.3202C60.2715 23.2123 60.0671 22.951 60.0606 22.6818C60.0585 22.6007 60.3042 22.7152 60.2459 22.569C60.0558 22.0906 59.6386 21.681 60.0647 21.6841C60.0838 21.685 60.1862 21.9478 60.2416 21.9334C60.6015 21.8414 60.3593 21.3678 60.6534 21.1127C60.8834 20.9129 61.5077 20.9113 61.8271 20.779C62.2616 21.5083 62.4356 21.1755 62.2445 20.6069C62.4466 20.5126 62.6342 20.3606 62.8594 20.3192C62.9368 20.3048 63.0223 20.5402 63.0439 20.5582C63.381 20.8413 63.1694 20.304 63.1989 20.2602C63.5307 19.807 64.1153 19.9594 64.3219 19.3439C64.3292 19.3218 64.0507 18.8012 64.3855 19.1026C64.4081 19.1237 64.4057 19.4378 64.616 19.3361C64.826 19.2346 65.3646 19.2809 65.5017 18.8809C65.5352 18.7843 65.4597 18.2719 65.787 18.5122C65.8312 18.545 65.8979 18.7021 65.9724 18.7673C66.2109 18.9742 65.9521 18.4346 66.3108 18.8102C66.6691 19.1862 67.0708 19.3883 67.171 18.9221C67.1748 18.908 66.9983 18.4633 67.0909 18.4168C67.2388 18.3432 67.4861 18.3106 67.6324 18.22C67.702 18.1767 67.5069 17.9514 67.5164 17.9395C67.9025 17.5187 68.3751 17.542 68.9375 17.3396C69.0422 17.3022 69.1016 16.8015 69.4443 16.9655C69.8188 17.1455 70.3494 18.5057 70.6302 17.9391C70.7411 17.7133 70.0373 16.0058 70.8512 16.6223C71.0155 16.436 71.2192 16.3131 71.4252 16.2155C71.8671 16.0052 72.3542 15.8863 72.6663 15.4293C72.6876 15.3989 72.5083 14.9108 72.5803 14.8746C72.686 14.8228 72.865 14.9923 72.9431 14.9624C73.2797 14.8381 73.4376 14.4976 73.7365 14.3421C73.8484 14.2832 73.9472 14.513 74.0823 14.441C74.2157 14.3696 74.1234 14.0416 74.379 14.0579C74.5752 14.0692 75.0812 14.5264 75.3021 14.4646C74.9294 13.9266 75.0572 13.8539 75.1572 13.5651C75.1764 13.5092 74.9989 13.3574 75.0008 13.3216C75.0048 13.1724 75.1844 13.2734 75.1772 13.1179C75.1754 13.0806 75.0399 12.9029 75.0303 12.8627C74.9408 12.517 75.4356 12.7637 75.5247 12.8034C75.86 12.9579 75.7301 12.6868 75.9079 12.7061C76.0868 12.7238 76.0543 12.9693 76.2167 12.9328C76.5562 12.8542 76.8228 12.5497 77.0458 12.3282C77.1341 12.2386 76.8578 12.0968 76.8654 12.0792C76.9806 11.847 77.3925 11.854 77.0236 11.3678C78.3212 12.2073 77.0069 11.1582 77.4589 11.0731C77.495 11.0665 78.1002 11.4708 78.115 11.6278C78.1292 11.7853 77.8429 11.7826 77.8699 12.0111C77.878 12.0635 78.2519 12.6755 78.2592 12.7293C78.3336 13.1342 77.5031 12.4307 77.4522 12.3988C76.8868 12.0653 77.2421 12.7532 77.223 12.8435C77.1557 13.2405 76.8449 13.3192 76.7492 13.6227C76.6846 13.8205 77.1292 14.3753 77.001 14.4539C76.5688 14.7153 75.8496 14.0148 76.0075 14.9667C76.0401 15.1694 76.5685 15.7483 75.9343 15.4493C75.8933 15.4313 75.3705 15.1149 75.4534 15.486C75.4636 15.533 75.5916 15.7198 75.5824 15.7491C75.5181 15.9416 75.3305 15.85 75.2338 16.0176C75.1391 16.1837 75.0349 16.405 74.8291 16.4455C74.7035 16.4714 74.355 16.1925 74.2524 16.1351C73.96 15.9677 74.0825 16.4664 73.8085 16.2124C73.5358 15.9553 73.4022 15.391 73.0698 15.3216C73.3716 15.8269 73.671 16.3518 73.9691 16.8632C73.4846 17.138 72.9241 17.2541 72.4685 17.5581C72.4122 17.5963 72.6348 17.8317 72.5783 17.8799C72.5436 17.9092 72.5064 17.9332 72.4674 17.9537C72.2453 18.0696 71.9617 18.0602 71.7691 18.2647C71.5935 18.4519 71.5331 18.8779 71.3576 19.0808C70.8778 18.5828 70.6698 18.9727 70.3986 19.0625C70.3054 19.0932 70.2189 18.9354 70.1301 18.92C69.7964 18.866 70.2048 19.3154 70.1914 19.4323C70.1321 19.9325 69.4238 18.7868 69.1302 19C69.1148 19.0107 69.2821 19.7465 69.2771 19.8014C69.2504 20.1565 69.1204 19.6039 68.9831 19.6238C68.7348 19.6587 68.5068 19.5948 68.3803 19.9147C68.3441 20.0087 68.4089 20.4908 68.0983 20.2729C68.0578 20.2443 67.946 20.0347 67.9249 20.031C67.553 19.9828 67.9273 20.6278 67.9108 20.9315C67.8949 21.2348 67.4075 20.9261 67.2855 20.8261C66.9692 20.5679 67.2934 20.6305 67.2805 20.5943C67.1272 20.164 67.0027 20.328 66.8579 20.3702C66.4655 19.753 66.3134 19.8949 66.7101 20.4161C66.7537 20.4729 66.8158 20.3565 66.8579 20.3702C67.1161 21.0514 66.971 21.2449 66.4152 20.7962C66.1549 20.5857 66.0612 20.215 65.8279 20.5105C65.7218 20.6444 66.0329 21.0448 65.983 21.2346C65.8683 21.6681 65.269 21.4798 65.0229 21.7139C64.9338 21.7987 65.1759 21.9747 65.12 22.0408C64.972 22.2169 64.7004 22.139 64.5679 22.3424C64.5561 22.3611 64.7463 22.5833 64.69 22.6215C64.2661 22.916 63.7867 22.9897 63.3247 23.2641C63.1012 23.3969 62.7876 23.774 62.5421 23.8866C62.1164 24.0835 61.4096 24.0252 61.1241 24.3214C60.9378 24.5131 61.1381 24.7285 61.1476 24.9538C61.1651 25.391 60.4865 25.0093 60.3858 24.9475C60.3828 24.9453 60.5359 24.7699 60.357 24.7068C60.1349 24.4815 60.3872 24.9451 60.3858 24.9475C60.3203 24.9078 59.9105 25.0864 59.8635 25.1811C59.8388 25.2322 60.0067 25.4495 59.9911 25.4717C59.6184 25.9941 59.1565 26.3686 58.5834 26.5847C58.5716 26.5857 58.4197 26.3199 58.394 26.3255C58.1558 26.373 58.078 26.5763 58.0236 26.8042L58.0941 26.7567C58.07 26.8787 58.052 27.0082 58.0178 27.127C57.9193 27.469 57.6996 27.536 57.2569 27.2088C57.1249 27.3862 56.7435 27.3789 56.5179 27.3714C56.2924 27.3637 56.6295 27.855 56.6244 27.8736C56.4679 28.4619 56.0449 28.3564 55.6173 28.6218C55.4137 28.7467 55.0982 29.1061 54.9391 29.3174C54.8134 29.4854 54.6305 29.4539 54.5412 29.6412C54.5291 29.6664 54.716 29.8559 54.7165 29.8687C54.7553 30.2459 54.4237 29.6806 54.317 29.6182C53.9297 29.3914 53.711 29.2806 53.6292 29.605C53.6099 29.6797 54.0665 30.5128 54.0157 30.6263C53.948 30.7731 53.7758 30.4812 53.7103 30.6418C53.7045 30.6553 53.8392 30.8115 53.7611 30.8653C53.4008 31.1167 52.9589 31.3365 52.6261 31.6525C52.5803 31.695 52.8551 31.8897 52.7926 31.955C52.4995 32.2608 52.1437 32.558 51.7328 32.7189C51.631 32.7577 51.5263 32.5443 51.4645 32.5082C51.0887 32.2918 51.3435 32.8665 51.3277 32.8959C50.9549 33.6169 50.1629 33.6073 49.7629 34.3279C49.7417 34.368 49.9392 35.059 49.4586 34.7554C49.4265 34.7354 48.9378 34.4218 49.1067 34.7903C49.1173 34.8133 49.3809 34.9634 49.2457 35.0493C49.1104 35.1354 49.0582 35.4493 48.683 35.3654C48.5646 35.3391 48.0618 35.0418 48.2203 35.5072C48.2322 35.5388 48.6973 36.4907 48.1356 36.0618C48.0433 35.9909 47.5493 35.4417 47.6319 35.8852C47.6484 35.9706 47.8234 36.0317 47.8048 36.1911C47.7771 36.4359 47.4599 36.4646 47.5194 36.8622C47.53 36.9325 47.7506 37.4147 47.3876 37.2352C47.3308 37.2071 47.1905 37.0003 47.1184 37.0309C46.7742 37.1764 46.6272 37.5453 46.2518 37.6685C46.1192 37.7124 45.8902 37.3799 45.7214 37.3937C45.5526 37.4075 45.2907 37.5161 45.3177 37.7424C45.3447 37.9688 45.892 38.324 45.779 38.5027C45.2837 39.2824 44.3798 39.6312 43.6887 40.2099C43.586 40.2958 43.8228 40.3848 43.6811 40.5245C43.1621 41.0393 42.3775 42.0606 41.575 42.1367C40.9342 42.1968 41.2142 41.5442 40.8187 41.6909C40.6292 41.7615 40.9726 42.4459 40.954 42.4939C40.7805 42.9673 40.324 42.9351 40.0882 43.2752C40.0392 43.3458 40.2979 43.5172 40.2538 43.5748C40.1071 43.772 39.819 43.8447 39.6575 44.0152C39.585 44.0926 39.7482 44.2538 39.6627 44.3035C39.4594 44.4246 39.2433 44.4812 38.9285 44.4649C38.9001 44.4631 38.8254 44.1552 38.6859 44.2577C38.4599 44.4247 38.0613 44.4785 37.95 44.848C37.9162 44.9594 38.2391 45.3704 37.8514 45.2178C37.7702 45.186 37.4246 44.6599 37.5719 45.234C37.5973 45.3291 37.7249 46.1571 37.2777 45.9051C37.1594 45.8394 36.7412 45.5127 36.6973 45.6467C36.6923 45.6666 36.9121 45.8524 36.8509 45.9327C36.6305 46.2129 36.3308 46.3954 36.0866 46.6767C36.0224 46.7516 36.307 46.9059 36.2052 47.0104C35.9254 47.2984 35.4761 47.5146 35.0965 47.6525C34.9573 47.7023 34.91 47.4462 34.8868 47.43C34.5166 47.1625 34.7447 47.6983 34.7149 47.7568C34.5319 48.1099 34.1533 48.0246 33.9133 48.2485C33.8458 48.3101 34.0388 48.5146 34.0358 48.5447C33.9945 48.845 33.8671 48.3498 33.7389 48.3613C33.3814 48.3904 33.0639 48.5903 32.7839 48.7755C32.6806 48.8441 32.9504 49.0621 32.8549 49.1208C32.2845 49.4771 31.6232 49.7486 30.9317 49.8341C30.8023 49.8491 30.7865 49.5923 30.7418 49.5498C30.4374 49.2499 30.3815 49.8389 30.3373 49.9085C30.1499 50.2219 29.9737 50.0528 29.7508 50.1672C29.0789 50.5124 28.2177 50.7226 27.3761 50.807C26.5599 50.9055 25.8 50.8205 25.177 50.6769C23.0954 50.1404 22.0201 49.0904 20.7918 47.8805C20.7149 47.8 20.5478 48.1015 20.4768 48.0325C20.295 47.8504 20.1278 47.6554 19.9733 47.4506C19.5325 46.8711 19.1797 46.2436 18.7215 45.6747C18.6749 45.6159 18.4745 45.8742 18.3907 45.7848C18.2166 45.6015 18.063 45.326 18.0167 45.0621C17.9934 44.9334 18.3043 44.9339 18.2768 44.8078C18.2135 44.5141 18.0795 44.2463 17.8908 44.0198C17.8102 43.9238 17.6306 44.2436 17.5467 44.1058C16.9715 43.1712 16.4187 42.2299 16.3187 41.062C16.3119 40.9818 16.8643 40.6497 16.6866 40.5589C16.52 40.6229 16.3303 40.7114 16.1555 40.7866C15.3978 39.3924 15.0264 37.8487 14.5673 36.3329C14.5478 36.2687 14.2607 36.4846 14.2212 36.3602C13.9934 35.6402 13.6934 34.9506 13.8269 34.1104C13.8399 34.0272 14.4284 33.9177 14.287 33.7236C14.2616 33.6918 14.1039 33.3774 13.9583 33.3211C13.9365 33.3137 13.6787 33.4377 13.6459 33.3316C13.4598 32.7104 13.3889 32.0209 13.4573 31.3406C13.4689 31.2308 13.7797 31.2982 13.7908 31.2205C13.8677 30.675 13.5761 30.1123 13.8125 29.5611C13.9734 29.1901 14.4945 29.2981 14.9927 29.1043C15.0626 29.0756 15.0692 28.8675 15.3637 28.8548C16.1031 28.8223 16.9143 28.8957 17.7022 28.8487C17.8714 28.8376 17.6878 28.6404 18.0986 28.7558C18.1258 28.7632 18.264 28.9051 18.4045 28.9375C18.5015 28.9594 18.7992 28.9074 18.9239 28.9524C19.0484 28.996 18.7996 29.056 18.9484 29.1314C19.0993 29.2044 19.4366 29.1535 19.4874 29.3043ZM55.5038 27.3475C55.1993 27.2205 55.8172 28.0658 55.8049 27.7599C55.8036 27.7442 55.519 27.3535 55.5038 27.3475ZM72.5188 16.5758C72.0935 16.2932 72.311 16.9546 72.6303 17.1786C72.949 17.4025 72.6479 16.6613 72.5188 16.5758ZM74.2948 15.0753C73.8809 14.9096 74.6467 16.1819 74.7221 15.7759C74.7272 15.7524 74.3194 15.0846 74.2948 15.0753ZM15.1871 29.8972C15.2005 29.8932 15.2016 29.7472 15.1878 29.7451C14.8497 29.6932 14.8481 29.9913 15.1871 29.8972ZM75.9623 13.4323C75.774 13.3272 75.7317 13.6555 75.9669 13.7881C76.1591 13.893 76.2003 13.5607 75.9623 13.4323ZM48.1748 32.1098C48.1623 32.1001 48.0812 32.1557 48.1424 32.2192C48.3398 32.4235 48.3849 32.273 48.1748 32.1098ZM78.5537 10.4668C78.185 10.939 76.9961 10.4893 77.4361 10.0892C77.5169 10.0129 77.6331 10.4987 77.8011 10.4462C78.114 10.3399 77.5513 9.78962 78.0369 9.78578C78.1276 9.78296 78.5789 10.4396 78.5546 10.4686C78.5543 10.468 78.554 10.4674 78.5537 10.4668ZM54.6644 26.4065C54.6533 26.3975 54.5387 26.4689 54.5445 26.4817C54.6896 26.7893 54.9195 26.6465 54.6644 26.4065ZM43.6067 35.5352C43.5808 35.5191 43.3366 35.7148 43.3481 35.7414C43.6065 36.2464 44.1014 35.852 43.6067 35.5352ZM61.8434 20.7956C61.7957 20.4335 61.926 20.3085 62.2437 20.6069C62.1071 20.6636 61.9797 20.737 61.8434 20.7956Z" fill="#312FC3"/>
</svg>
