<svg width="1920" height="644" viewBox="0 0 1920 644" fill="none" xmlns="http://www.w3.org/2000/svg">
<path d="M188.923 78.9106C190.608 78.2408 197.442 75.6901 200.419 74.6241C197.053 75.8535 182.829 81.2851 188.923 78.9106ZM506.013 10.7832C503.398 11.0911 500.774 11.4185 498.159 11.7554C505.581 10.8389 515.673 9.7542 522.62 9.3684C523.746 9.29207 520.827 9.54504 523.492 9.35969C523.963 9.32623 524.328 9.29731 524.644 9.27014C526.099 9.14293 526.303 9.07888 529.518 8.80581C533.892 8.35135 553.96 7.17304 560.94 6.87923C570.587 6.40945 580.293 6.00115 590.052 5.62162C606.381 4.99014 622.845 4.43508 639.174 3.93483C612.283 4.84846 639.388 4.01853 646.915 3.76963C648.594 3.71717 648.312 3.58343 675.293 2.82336C692.44 2.354 676.603 2.96606 705.216 2.09197C683.212 2.57455 704.841 1.97618 722.09 1.52892C725.059 1.44715 749.08 0.866107 759.693 0.639209C761.869 0.590805 764.758 0.505993 767.676 0.428086C769.743 0.373597 771.684 0.324967 773.677 0.287114C776.933 0.226281 779.517 0.213183 784.419 0.141494C806.084 -0.387687 827.757 0.58221 849.312 2.80608C850.493 2.91298 851.779 3.02918 852.971 3.13689C851.013 2.98526 849.832 2.89754 849.307 2.86441C848.75 2.82831 848.812 2.84364 849.304 2.89433C851.616 3.13466 863.778 4.17775 864.538 4.25093C869.98 4.78338 845.307 2.5858 855.081 3.48986C868.702 4.70558 882.327 5.91354 895.958 7.13452C884.775 6.10859 910.779 8.32817 915.559 8.82172C914.153 8.60342 942.505 11.2317 964.281 13.4516C975.043 14.5379 984.216 15.6198 987.444 16.0327C989.449 16.4563 976.232 13.9195 1007.03 19.0732C1010.34 19.6995 1009.09 19.5117 1010.81 19.8374C1011.85 20.0305 1018.17 21.1351 1024.82 22.5493C1026.46 22.8971 1019.86 21.6264 1026.01 22.874C1028.94 23.4721 1034.8 24.6276 1045.9 26.8757C1032.3 23.8553 1093.37 36.6946 1104.49 39.619C1102.26 39.0779 1100.04 38.5408 1097.8 38.0055C1108.85 40.6149 1110.84 41.069 1113.33 41.6625C1123.37 44.0667 1137.08 47.5504 1146.38 49.9831C1148.51 50.5378 1150.23 50.986 1151.72 51.3733C1157.75 52.9502 1159.8 53.4319 1169.93 56.2449C1166.95 55.4021 1163.95 54.5624 1160.96 53.7327C1169.69 56.1006 1178.4 58.5288 1187.1 61.0097C1166.91 55.4275 1191.45 62.2329 1193.05 62.7163C1195.63 63.4522 1191.92 62.4337 1196.22 63.6676C1196.66 63.7967 1196.03 63.5604 1202.66 65.4832C1216.48 69.5214 1214.29 68.953 1220.08 70.6721C1220.61 70.8327 1218.77 70.2286 1228.77 73.2303C1260.54 82.8711 1228.61 73.1928 1227.38 72.8501C1225.78 72.3905 1236.65 75.7674 1209.63 67.6801C1218.7 70.3789 1219.59 70.7351 1220.61 71.0399C1221.53 71.3035 1237.22 76.0326 1238.09 76.308C1245.81 78.6415 1239.03 76.5147 1240.54 76.9664C1241.79 77.3262 1260.64 83.2284 1265.1 84.487C1274.1 87.4779 1259.87 82.9394 1244.72 78.3069C1242.49 77.6441 1259.15 82.8271 1260 83.1043C1281.44 89.8482 1269.6 86.0066 1274.3 87.4125C1276.78 88.1572 1285.48 91.0219 1277.45 88.3477C1296.86 94.5527 1285.08 90.8465 1286.33 91.2516C1288.25 91.8811 1294.99 94.0357 1295.87 94.3279C1297.12 94.7405 1292.77 93.361 1297.68 94.9745C1298.5 95.2437 1306.43 97.7743 1296.23 94.4097C1300.61 95.8398 1303.52 96.7939 1305.49 97.4413C1309.77 98.8507 1310.26 99.0186 1313.33 100.13C1322.8 103.145 1320.11 102.587 1323.76 103.872C1333.55 107.394 1330.74 106.253 1331.27 106.424C1334.79 107.458 1361.03 117.972 1367.41 122.268C1367.49 122.312 1367.56 122.354 1367.64 122.396C1367.57 122.362 1367.49 122.321 1367.4 122.276C1364.33 120.302 1346.95 112.214 1342.83 110.83C1328.98 105.317 1362.28 118.977 1352.18 114.939C1356.37 116.733 1360.55 118.684 1364.57 120.836C1366.23 121.764 1366.95 122.187 1367.33 122.409C1368.65 123.145 1365.76 121.786 1381.16 129.583C1384.41 131.157 1367.13 122.441 1370.62 124.144C1372.67 125.177 1384.17 131.008 1384.41 131.112C1384.66 131.212 1374.24 125.94 1375.89 126.739C1379.52 128.457 1417.4 147.99 1388.52 133.212C1396.59 137.337 1400.64 139.603 1407.63 143.186C1412.14 145.533 1386.97 132.035 1424.86 152.03C1425.63 152.504 1409.72 144.047 1409.29 143.848C1408.7 143.551 1411.5 145.201 1412.01 145.479C1412.98 146 1425.07 152.31 1437.07 158.813C1447.04 164.149 1456.59 170.142 1460.05 172.574C1457.68 170.422 1478.24 185.846 1485.35 193.584C1486.96 195.014 1488.11 196.083 1488.61 196.534C1489.41 197.254 1486.49 194.497 1487.34 195.269C1492.8 199.937 1506.1 213.972 1512 220.624C1512.7 221.396 1513.32 222.077 1513.87 222.679C1518.54 227.875 1517.89 227.134 1518.23 227.506C1521.13 230.785 1518.79 228.193 1520.56 230.188C1521.56 231.288 1524.66 234.879 1528.53 238.54C1535.34 245.317 1542.41 254.078 1543.04 254.74C1543.3 255.05 1540.43 251.539 1544.34 256.179C1545 257.008 1544.63 256.455 1555.97 270.426C1569.54 287.339 1546.6 258.64 1552.29 265.627C1560.97 276.52 1560.71 276.135 1563.05 279.098C1563.8 280.049 1568.82 286.54 1574.57 294.064C1575.13 294.797 1575.66 295.501 1576.22 296.247C1575.67 295.508 1575.13 294.807 1574.56 294.068C1570.49 288.765 1566.39 283.501 1562.25 278.278C1565.36 282.236 1570.44 288.746 1574.53 294.093C1576.49 296.657 1578.18 298.966 1579.35 300.607C1581.08 303.097 1579.64 301.043 1583.3 306.517C1583.98 307.764 1587.49 312.015 1577.5 298.026C1576.75 296.881 1581.53 303.492 1583.59 306.719C1583.9 307.209 1585.28 309.027 1587.66 313.302C1587.95 313.812 1586.43 311.342 1586.92 312.292C1587.24 313.293 1590.61 317.382 1596.32 332.771C1596.68 333.758 1595.47 330.303 1595.83 331.268C1596.04 331.781 1597.72 336.605 1598.56 339.17C1598.82 339.934 1599 340.49 1599.06 340.687C1599.25 341.244 1598.85 339.962 1598.6 339.158C1598.45 338.684 1598.36 338.395 1598.49 338.792C1598.53 338.911 1598.58 339.031 1598.62 339.151C1600.44 344.551 1602.35 351.205 1598.85 340.207C1600.06 343.945 1601.22 347.734 1602.29 351.552C1601.24 347.461 1604.09 357.5 1605.19 362.911C1608.62 380.263 1607.78 383.343 1607.98 382.566C1607.98 381.828 1607.65 377.434 1607.92 380.465C1608.5 390.214 1608.17 382.814 1608.26 397.207C1608.19 398.514 1608.72 381.275 1607.93 414.991C1608.02 410.018 1608.16 405.068 1608.25 400.061C1608.08 402.959 1607.84 418.013 1607.85 419.169C1607.82 421.471 1607.81 423.019 1607.8 424.279C1607.47 430.297 1608.52 426.884 1606.07 443.446C1605.73 445.221 1604.85 449.061 1603.6 452.76C1600.72 460.294 1603.01 455.448 1605 448.255C1607.03 441.053 1607.64 431.558 1607.68 431.066C1607.65 430.799 1607.41 440.685 1604.43 450.467C1601.55 460.348 1595.85 468.956 1595.8 469.508C1593.12 474.586 1603.95 453.721 1601.75 457.594C1601.71 458.123 1598.15 464.614 1594.38 472.331C1590.61 482.374 1580.09 491.858 1570.46 496.725C1562.38 500.972 1554.9 500.44 1551.75 500.727C1538.81 500.985 1533.11 500.646 1533.03 500.868C1529.42 500.695 1526.23 500.834 1524.59 500.846C1523.5 500.853 1522.49 500.862 1521.49 500.872C1504.17 500.109 1503.24 498.806 1487.88 493.898C1484.32 492.649 1481.37 491.51 1480.12 491.068C1479.39 490.811 1480.72 491.353 1477.16 490.085C1475.97 489.663 1473.35 488.711 1470 487.544C1459.22 483.935 1442.38 475.781 1440.8 474.944C1438.67 473.93 1452.92 480.676 1450.4 479.407C1440.01 474.66 1430.27 469.67 1420.18 464.252C1419.18 463.715 1418.53 463.362 1418.13 463.142C1416.79 462.393 1417.73 462.894 1416.33 462.094C1415.4 461.844 1401.68 452.515 1402.33 452.847C1402.89 453.216 1409.82 458.562 1418.12 463.171C1430.03 469.672 1443.31 476.166 1436.15 472.66C1433.83 471.531 1425.77 467.245 1427.02 468.006C1424.02 466.43 1421.05 464.842 1418.08 463.24C1393.93 448.867 1373.63 430.153 1353.45 411.38C1342.99 402.295 1336.5 388.124 1334.92 374.845C1334.74 373.943 1334.6 373.036 1334.5 372.127C1334.6 373.032 1334.75 373.938 1334.93 374.843C1336.49 387.538 1342.73 402.039 1353.49 411.341C1363.12 420.449 1373.01 429.374 1382.92 437.642C1385.75 440.072 1395.7 447.964 1394.53 446.947C1381.29 436.669 1366.59 423.703 1353.51 411.319C1348.3 406.407 1343.8 400.88 1340.87 395.031C1340.54 394.366 1341.81 396.78 1340.56 394.286C1338.52 390.866 1335.95 380.533 1335.01 374.827C1334.6 372.767 1334.49 371.163 1334.44 370.445C1334.43 370.183 1334.59 372.769 1335.05 374.819C1335.41 376.525 1335.69 377.885 1335.46 376.574C1335.35 375.94 1335.24 375.352 1335.13 374.802C1334.17 368.761 1334.18 366.534 1335.05 360.717C1335.32 358.999 1336.45 353.878 1338.71 348.04C1341.11 340.851 1347.79 333.635 1354.1 330.367C1357.88 328.223 1361.26 326.903 1363.19 326.2C1367.68 324.753 1360.57 326.564 1354.06 330.298C1348.12 333.427 1343.63 339.005 1344.41 338.047C1347.11 334.849 1350.47 332.257 1354.03 330.241C1362.37 325.432 1372 323.16 1381.15 322.406C1389.77 321.624 1398.25 321.205 1406.48 320.816C1406.85 320.8 1403.68 320.895 1408.3 320.682C1416.29 320.334 1418.42 320.346 1422.31 320.232C1426.52 320.088 1441.39 319.782 1443.38 319.802C1443.62 319.801 1440.63 319.908 1440.17 319.918C1433.68 320.049 1431.37 320.031 1430.79 320.041C1428.57 320.089 1426.41 320.178 1424.38 320.235C1421.05 320.329 1419.22 320.355 1414.83 320.513C1411.81 320.625 1414.72 320.571 1411.8 320.682C1410.72 320.707 1399.19 321.116 1398.1 321.328C1397.86 321.266 1437.75 319.453 1468.28 319.85C1484.95 319.938 1498.61 322.905 1501.87 323.542C1493.86 321.857 1485.74 320.678 1477.55 320.129C1494.24 321.02 1513.62 326.183 1514.9 326.747C1520.94 328.409 1526.91 330.314 1532.8 332.346C1543.64 335.947 1555.32 338.468 1566.26 342.902C1590.88 352.699 1615.97 360.701 1640.41 371.973C1653.12 378.706 1665.86 385.384 1678.24 392.866C1680.15 394.025 1682.04 395.19 1683.93 396.383C1693.1 402.351 1688.17 398.964 1702.87 409.327C1699.12 406.582 1695.33 403.881 1691.48 401.268C1694.23 403.101 1700.3 407.301 1707.03 412.274C1719.09 421.302 1733.43 432.441 1736.96 434.751C1737.02 434.794 1737.08 434.838 1737.15 434.887C1737.89 435.393 1739.42 436.37 1746.94 441.785C1754.25 447.051 1755.39 447.943 1759.3 450.743C1762.59 453.092 1766.32 455.672 1767.3 456.357C1767.41 456.432 1767.51 456.501 1767.6 456.569C1768.16 456.971 1768.59 457.301 1770.16 458.401C1775.89 462.514 1771.35 459.044 1776.88 463.358C1775.52 462.322 1774.15 461.307 1772.76 460.31C1779.69 465.309 1788.49 472.911 1778.78 464.999C1777.05 463.654 1778.56 464.776 1777.28 463.788C1773.62 460.948 1770.3 458.656 1767.5 456.72C1742.54 439.103 1753.17 446.733 1767.47 456.757C1773.52 460.83 1779.97 465.829 1784.56 469.708C1789.04 473.204 1812.14 494.721 1812.82 495.549C1813.86 496.575 1809.94 492.866 1815 497.794C1815.65 498.412 1825.21 507.681 1831.73 514.188C1836.91 519.342 1840.07 522.604 1835.31 517.835C1834.74 517.276 1833.42 515.953 1831.69 514.231C1826.54 509.11 1817.77 500.527 1815.14 498.007C1819.11 501.918 1825.72 508.362 1831.67 514.243C1837.98 520.455 1843.47 526.082 1844.55 527.214C1853 536.021 1828.17 510.416 1847.25 530.229C1861.73 545.619 1848.2 531.112 1853.79 537.01C1855.59 538.91 1861.66 545.454 1866.53 550.55C1870.18 554.37 1873.05 557.456 1872.91 557.224C1878.49 563.274 1875.18 559.78 1875.87 560.528C1876.57 561.186 1887.37 573.442 1889.73 578.432C1890.05 578.997 1888.96 577.255 1889.3 577.84C1889.42 578.047 1889.79 578.678 1890.29 579.592C1892.49 583.591 1897.2 592.925 1897.46 593.351C1897.65 593.702 1895.99 590.397 1896.71 591.739C1897.26 592.782 1900.46 598.997 1902.98 602.989C1904.26 605.034 1905.26 606.597 1905.41 606.827C1905.64 607.178 1904.47 605.344 1903 602.976C1900.45 598.918 1897.39 592.93 1898.32 594.639C1899.63 597.103 1901.24 600.047 1903.05 602.947C1906.79 608.933 1910.92 615.162 1912.99 618.324C1912.23 617.166 1907.73 610.245 1906.21 607.831C1906.99 608.912 1916.62 623.815 1913.27 618.756C1915.39 621.985 1913.98 619.754 1915.19 621.569C1915.35 621.816 1916.22 623.173 1917.09 624.559L1917.23 624.828C1917.8 626.201 1918.43 627.56 1918.66 628.004C1918.69 628.083 1917.76 626.043 1917.27 624.809L1917.13 624.533C1916.73 623.887 1916.49 623.491 1916.71 623.831C1916.81 623.977 1916.96 624.209 1917.15 624.517L1917.3 624.797C1918.13 626.818 1920.38 631.684 1922.86 635.317C1924.93 638.214 1926.11 641.311 1926.28 641.799C1927.17 644.454 1925.43 638.765 1922.81 635.353C1921.76 633.805 1920.96 632.429 1920.78 632.131C1920.75 632.077 1921.58 633.613 1922.75 635.39C1924.77 638.127 1926.38 642.478 1926.35 642.539C1926.51 643.006 1924.76 638.178 1922.67 635.447C1921.54 633.764 1920.79 632.444 1921.05 632.933C1921.55 633.795 1922.08 634.643 1922.63 635.475C1923.83 637.245 1925.02 639.334 1925.81 641.433C1925.09 639.563 1923.92 637.421 1922.58 635.503C1920.5 632.409 1918.57 628.727 1916.98 624.929L1916.86 624.697C1911.81 616.689 1906.8 609.111 1904.97 606.255C1909.07 612.701 1913.39 619.216 1916.82 624.727L1916.93 624.951C1918.9 629.733 1921.05 633.414 1922.47 635.579C1923.46 637.086 1923.98 638.077 1923.94 638.08C1923.92 638.091 1923.2 636.907 1922.33 635.669C1921.1 633.895 1919.81 631.596 1919.89 631.754C1920.08 632.159 1921.03 633.877 1922.26 635.716C1924.35 638.523 1925.87 642.591 1925.91 642.795C1926.02 643.118 1926.06 643.267 1926.06 643.269C1926.06 643.269 1926.06 643.269 1926.06 643.269C1926.05 643.32 1924.73 639.114 1922.24 635.734C1920.11 632.612 1918.46 629.2 1918.29 628.872C1917.65 627.761 1920.69 633.808 1920.74 633.769C1920.42 633.685 1915.7 623.902 1917.23 627.231C1918.12 629.331 1920.16 633.298 1921.95 635.925C1923.1 637.612 1923.86 639.037 1923.91 639.155C1924.21 639.788 1923.4 638.071 1921.92 635.946C1919.33 632.291 1916.51 625.966 1916.41 625.664C1916.18 625.481 1920.09 633.536 1920.35 633.689C1920.39 633.928 1917.12 627.96 1916.12 625.445C1916.1 625.396 1916.08 625.352 1916.06 625.313L1916.02 625.226C1915.79 624.877 1915.83 624.954 1916 625.239L1916.04 625.323C1916.36 626.177 1917.5 628.71 1917.19 628.043C1917.12 627.875 1916.63 626.838 1916 625.34L1915.96 625.262C1913.4 621.145 1908.45 613.562 1908.14 613.07C1907.5 612.096 1909.49 615.252 1909.18 614.802C1908.75 614.165 1905.98 609.835 1906.33 610.405C1906.51 610.744 1912.95 620.767 1915.75 625.392L1915.78 625.434C1916.38 626.924 1916.8 627.861 1916.78 627.839C1916.75 627.799 1916.28 626.801 1915.72 625.458L1915.7 625.424C1913.08 621.24 1908.26 613.637 1915.58 625.502L1915.58 625.515C1915.69 625.789 1915.81 626.073 1915.93 626.365C1915.95 626.508 1918.01 630.821 1918.1 630.921C1919.49 633.52 1912.05 620.152 1921.21 636.417C1921.22 636.43 1921.23 636.444 1921.24 636.457C1921.23 636.444 1921.22 636.43 1921.21 636.417C1918.05 631.657 1916.5 627.989 1915.45 625.571C1911.04 618.661 1913.41 622.431 1915.38 625.628L1915.36 625.606C1916.27 627.839 1917.19 629.76 1916.43 628.248C1916.23 627.841 1915.79 626.891 1915.26 625.65L1915.28 625.687C1912.84 621.807 1908.41 615.027 1908.38 614.987C1909.05 616.12 1911.42 619.713 1912.19 620.962C1912.62 621.643 1906 611.518 1907.45 613.824C1908.12 614.89 1913.76 623.603 1915.1 625.799L1915.07 625.731C1915.19 626.016 1915.26 626.198 1915.29 626.25C1917.32 630.943 1914.74 625.224 1915.18 626.258C1915.36 626.996 1918.88 633.982 1919.08 634.104C1919.17 634.335 1916.35 629.423 1914.89 625.807L1914.94 625.903C1914.18 624.718 1913.54 623.73 1913.23 623.241C1912.54 622.189 1914.27 624.941 1914.87 625.942L1914.82 625.835C1914.96 626.191 1915.02 626.342 1914.91 626.078C1914.88 626 1914.84 625.92 1914.81 625.839L1914.86 625.948C1911.07 619.961 1903.31 607.858 1910.88 619.857C1911.35 620.597 1914.26 625.17 1914.34 625.31C1916.09 628.169 1910.75 619.733 1909.73 618.262C1908.01 615.719 1915.81 627.775 1909.3 617.759C1911.33 620.933 1912.98 623.517 1914.6 626.116L1914.52 625.962C1915.97 629.399 1917.57 632.82 1920.34 636.998C1920.74 637.601 1921.15 638.211 1921.54 638.854C1921.16 638.224 1920.75 637.613 1920.34 636.998C1917.69 633.034 1915.86 629.22 1914.49 625.973L1914.57 626.132C1906.45 613.49 1904.77 611.075 1914.42 626.225L1914.33 626.041C1915.18 628.087 1916.23 630.404 1917.63 632.927C1915.77 629.52 1914.9 627.413 1914.3 626.053L1914.39 626.242C1913.05 624.151 1912.87 623.953 1911.84 622.332C1910.83 620.733 1902.82 608.179 1906.33 614.036C1906.78 614.773 1911.71 622.338 1910.12 619.994C1898.36 601.762 1909.85 619.634 1909.85 619.651C1909.77 619.577 1905.53 613.21 1900.21 604.718C1895.72 597.536 1891.54 588.491 1887.52 581.101C1883.67 574.096 1878.98 569.014 1877.22 566.899C1872.06 560.981 1866.98 555.789 1864.13 552.838C1863.17 551.841 1862.46 551.11 1862.07 550.692C1856.86 545.198 1861.22 549.719 1860.07 548.477C1858.89 547.224 1844.14 531.603 1843.38 530.863C1840.52 527.849 1843.49 530.847 1843.19 530.534C1841.45 528.675 1835.66 522.679 1829.43 516.508C1823.05 510.18 1816.33 503.646 1813.41 500.819C1813.59 501.023 1825.14 512.311 1817.9 505.33C1809.36 497.13 1809 496.593 1808.78 496.366C1794.96 483.307 1781.23 470.097 1765.54 459.548C1755.26 452.437 1745.2 445.044 1735.07 437.824C1724.75 430.537 1714.96 422.6 1704.89 415.192C1696.87 409.291 1688.74 403.631 1680.3 398.402C1680.74 398.637 1696.48 408.866 1704.87 415.225C1708.02 417.532 1710.21 419.207 1710.38 419.339C1711.32 420.08 1708.99 418.295 1704.84 415.257C1698.13 410.298 1686.59 402.204 1676.31 396.06C1667.88 390.955 1660.45 386.955 1658.3 385.754C1663.16 388.432 1667.99 391.156 1672.75 393.982C1665.58 389.803 1650.49 381.544 1638.64 375.327C1637.07 374.504 1635.47 373.764 1633.97 373.097C1629.98 371.338 1637.61 374.794 1637.42 374.782C1633.04 372.649 1625.63 369.658 1631.16 371.886C1619.96 367.317 1621.57 367.992 1612.87 364.632C1612.42 364.463 1616.15 365.922 1609.24 363.326C1606 362.104 1588.7 355.63 1586.36 354.783C1585.41 354.444 1594.13 357.907 1595.26 358.168C1614.06 365.299 1601.29 360.357 1608.6 363.11C1609.71 363.566 1607.16 362.535 1625.43 369.658C1621.97 368.348 1600.83 360.261 1597.18 358.928C1589.66 356.161 1620.56 367.758 1626.12 369.995C1623.43 369.07 1628.35 370.793 1634.94 373.77C1636.7 374.577 1637.82 375.151 1638.53 375.53C1640.9 376.794 1639.84 376.253 1642.74 377.789C1653.24 383.373 1648.94 380.973 1657.52 385.7C1650.09 381.448 1667.88 391.118 1676.15 396.324C1677.12 396.927 1677.97 397.452 1678.64 397.878C1677.81 397.364 1676.98 396.857 1676.13 396.346C1666.34 390.432 1656.19 385.002 1646.04 379.603C1646.66 379.949 1647.28 380.295 1647.91 380.642C1645 379.091 1642.09 377.549 1639.19 376.013C1639.66 376.249 1640.13 376.483 1640.6 376.721C1639.87 376.335 1639.17 375.974 1638.49 375.615C1625.28 369.385 1621.35 368.337 1620.23 367.775C1603.65 361.343 1584.26 354.281 1567.44 347.758C1566.4 347.357 1566.08 347.246 1564.77 346.752C1562.9 346.098 1559.18 344.431 1548.16 341.17C1542.15 339.445 1547.86 340.995 1540.99 339.087C1534.38 337.359 1532.91 336.741 1531.46 336.231C1531.02 336.071 1530.58 335.912 1529.99 335.709C1522.82 333.273 1518.38 332.049 1517.71 331.846C1508.78 329.159 1495.47 326.16 1485.32 325.082C1485.13 325.06 1490.4 325.73 1483.82 324.951C1482.62 324.833 1476.48 324.056 1468.25 323.955C1460.51 323.859 1451.04 323.85 1442.15 324.011C1446.95 323.957 1451.74 323.932 1456.54 323.934C1450.9 323.755 1411.39 324.791 1421.06 324.623C1427 324.443 1441.43 324.033 1443.02 324.161C1435.07 324.237 1404.88 324.745 1381.58 326.784C1369.47 327.644 1360.11 331.745 1356.2 334.073C1355.28 334.594 1354.64 334.998 1354.31 335.211C1353.91 335.462 1355.29 334.545 1356.18 334.038C1356.7 333.736 1357.03 333.552 1356.69 333.732C1356.63 333.768 1356.45 333.867 1356.17 334.022C1354.85 334.752 1351.38 336.887 1348.76 339.688C1346.07 342.435 1344.34 345.754 1343.93 346.592C1343.66 347.146 1344.25 345.854 1345 344.571C1345.75 343.279 1346.7 342.023 1346.52 342.241C1346.4 342.4 1344.1 345.407 1342.61 349.501C1340.42 355.017 1339.07 361.602 1339.08 362.245C1339.45 358.835 1341.89 351.265 1342.65 349.517C1342.83 349.063 1342.86 349.005 1342.67 349.523C1342.56 349.836 1342.37 350.357 1342.1 351.119C1341.75 352.008 1340.25 356.653 1340.03 357.763C1338.9 363.245 1339.83 357.026 1342.71 349.538C1344.84 343.043 1350.67 337.596 1352.53 336.42C1348.52 339.363 1344.83 343.8 1342.74 349.548C1339.89 357.101 1337.58 365.778 1339.23 373.979C1340.92 385.064 1344.38 394.937 1350.73 402.06C1353.75 405.559 1351.4 403.049 1349.38 400.47C1347.4 397.885 1345.7 395.281 1348.64 399.572C1363 415.965 1352.42 403.949 1352.82 404.5C1353.63 405.367 1354.91 406.704 1356.47 408.191C1362.07 413.575 1370.53 421.363 1370.64 421.258C1376.7 426.665 1374.69 425.004 1383.44 432.436C1382.28 431.446 1381.15 430.468 1380.01 429.467C1389.56 437.935 1411.01 454.165 1409.49 452.832C1404.94 449.885 1393.9 441.231 1393 440.447C1391.63 439.289 1387.52 436.577 1373.03 423.609C1366.86 418.541 1396.39 443.709 1382.88 432.366C1388.52 437.067 1405.34 451.431 1420.01 459.668C1429.11 464.605 1436.82 468.505 1439.21 469.663C1439.97 470.01 1436.48 468.249 1447.35 473.548C1452.53 476.04 1440.03 470.077 1442.39 471.226C1444.67 472.285 1455.79 478.15 1471.34 483.704C1486.09 488.563 1503.78 497.135 1521.45 496.851C1540.84 496.29 1559.79 498.456 1568.52 493.102C1570.89 491.827 1572.76 490.663 1574.13 489.753C1575.23 489.01 1574.85 489.323 1575.91 488.569C1579.06 486.7 1588.15 477.975 1590.59 470.745C1590.89 470.022 1591.2 469.358 1591.49 468.759C1591.12 469.526 1590.82 470.189 1590.58 470.742C1589.29 473.592 1589.55 473.019 1590.54 470.726C1592.93 465.387 1599.5 453.826 1600.38 449.12C1603.2 438.361 1602.62 438.908 1603.27 434.104C1603.56 431.071 1603.73 427.747 1603.76 424.248C1603.89 405.904 1605.07 383.335 1602.79 371.293C1603.01 371.977 1599.28 352.737 1594.85 340.406C1594.23 338.53 1593.65 336.807 1593.13 335.327C1590.22 326.426 1584.07 314.513 1589.31 325.834C1584.91 315.378 1578.24 305.548 1571.33 296.546C1568.49 292.853 1565.7 289.245 1562.98 285.773C1561.42 283.786 1563.59 286.483 1560.95 283.117C1560.7 282.806 1560.35 282.419 1558.05 279.524C1539.02 255.847 1548.29 267.345 1544.74 262.908C1542.73 260.448 1541.23 258.644 1540.12 257.321C1551.54 270.856 1564.11 286.993 1567.45 291.321C1564.74 287.496 1543.12 260.486 1536.4 252.9C1536.17 252.631 1537.01 253.53 1536.78 253.259C1536.78 253.253 1536.77 253.247 1536.77 253.242C1535.41 251.693 1530.18 245.47 1525.9 241.326C1522.05 237.684 1519.52 234.777 1521.05 236.503C1521.45 236.934 1523.12 238.785 1525.85 241.38C1529.12 244.534 1533.62 249.684 1538.42 255.321C1536.1 252.61 1537.78 254.678 1537.37 254.2C1534.82 251.27 1530.37 245.929 1525.81 241.428C1521.13 236.987 1517.18 232.288 1515.02 229.877C1514.02 228.736 1514.06 228.844 1513.9 228.657C1512.16 226.692 1511.5 225.93 1510.96 225.316C1510.26 224.512 1509.77 223.964 1507.36 221.413C1503.83 217.457 1506.98 220.875 1510.99 225.293C1515.19 229.971 1520.4 235.888 1519.68 234.983C1519.37 234.655 1515.93 230.709 1511.04 225.247C1503.43 216.81 1492.23 204.688 1482.8 196.446C1475.17 189.227 1469.58 184.352 1469.54 184.454C1469.36 184.291 1468.65 183.669 1467.13 182.452C1463.96 179.507 1447.69 169.015 1444.69 167.517C1444.2 167.235 1444.35 167.438 1443.73 167.082C1443.17 166.757 1439.71 164.742 1435.19 162.288C1428.03 158.385 1418.3 153.194 1413.48 150.701C1417.71 152.947 1421.95 155.209 1426.17 157.486C1400.58 143.892 1404.47 146.092 1413.03 150.587C1413.46 150.809 1413.87 151.03 1414.27 151.245C1420.9 154.753 1429.34 159.307 1429.46 159.383C1429.98 159.55 1386.42 136.813 1394.81 141.121C1396 141.69 1416.15 152.246 1406.2 146.975C1404.46 146.042 1391.47 139.357 1390.78 139.008C1386.26 136.593 1414.62 151.205 1411.18 149.37C1404.29 145.829 1395.48 141.227 1387.57 137.208C1383.97 135.378 1383.06 134.974 1382.6 134.743C1375.97 131.382 1379.69 133.218 1377.49 132.098C1376.44 131.57 1366.33 126.516 1365.43 125.879C1365.35 125.822 1365.35 125.811 1365.45 125.854C1365.5 125.874 1365.58 125.909 1365.69 125.961C1365.61 125.919 1365.53 125.877 1365.46 125.837C1330.58 109.127 1344.97 115.405 1365.41 125.934C1370.16 128.488 1375.25 131.021 1380.18 133.538C1376.37 131.615 1370.9 128.909 1365.39 125.964C1358.95 122.304 1352.21 119.25 1348.08 117.515C1345.36 116.379 1346.96 117.081 1342.35 115.226C1337.02 113.032 1320.25 106.81 1304.14 101.532C1291.57 97.367 1279.49 93.4936 1274.14 91.7837C1281.64 94.155 1279.44 93.3929 1273.67 91.5613C1267.89 89.7305 1272.72 91.3432 1271.59 90.9935C1270.39 90.5926 1243.22 82.065 1238.67 80.72C1259.16 86.9996 1254.57 85.5137 1237.17 80.1683C1239.68 80.9161 1242.22 81.6788 1244.73 82.4328C1234.54 79.2969 1213.08 72.7703 1207.15 71.0775C1206.23 70.8089 1209.54 71.835 1209.02 71.6844C1203.83 70.1563 1186.17 65.0151 1185.34 64.8113C1184.64 64.6236 1192.17 66.8184 1189.37 66.037C1188.78 65.8739 1181.52 63.7282 1174.34 61.7453C1171.68 61.01 1173.27 61.5001 1172.6 61.3163C1167 59.7912 1170.33 60.6139 1160.09 57.8414C1156.77 56.9477 1153.81 56.1742 1150.67 55.3591C1146.67 54.3229 1142.39 53.2221 1136.58 51.7248C1143.94 53.6234 1148.35 54.8064 1150.65 55.4245C1153.53 56.1997 1153.01 56.0688 1150.65 55.4457C1146.16 54.2584 1135.05 51.3805 1127.71 49.5763C1125.42 49.0206 1127.38 49.5495 1113.67 46.1852C1142.88 53.1713 1105.38 44.024 1097.67 42.3331C1097.25 42.2359 1097.1 42.1425 1093.34 41.2818C1093.02 41.21 1093.46 41.3442 1089.96 40.5537C1056.62 33.1788 1077.95 37.879 1071.62 36.4411C1068.92 35.8255 1052.66 32.4467 1048.29 31.5675C1047.3 31.3644 1047.74 31.4134 1043.85 30.6229C1036.96 29.2236 1030.77 28.0308 1026.19 27.1188C1025.98 27.076 1025.85 27.0395 1025.2 26.9C1024.21 26.6858 1022.15 26.2557 1017.01 25.2411C1014.58 24.7619 1011.85 24.2466 1015.29 24.945C1018.07 25.5096 1021.46 26.1939 1025.19 26.9416C1036.76 29.2436 1051.58 32.1961 1061.34 34.3127C1073.09 36.8164 1035.98 29.0923 1034.03 28.7647C1033.32 28.6224 1040.59 30.0513 1033.22 28.5655C1031.04 28.1262 1028.28 27.5878 1025.18 26.9829C1019.25 25.8273 1012.16 24.4254 1006.01 23.2637C1005.29 23.109 997.816 21.7192 998.16 21.7896C998.474 21.7887 1010 23.8735 1008.32 23.5526C1008.12 23.4991 1000.81 22.1601 999.856 22.0005C998.691 21.7761 995.567 21.0443 993.998 20.8095C989.966 20.2082 992.594 20.6393 989.975 20.2706C984.407 19.416 964.861 17.3342 964.191 17.3659C967.412 17.6921 970.667 18.0288 973.89 18.3771C968.745 17.8332 965.713 17.5398 963.891 17.3623C959.473 16.9376 962.843 17.2919 961.007 17.1211C958.289 16.8709 959.048 16.8722 952.98 16.281C951.641 16.1363 926.241 13.7816 926.695 13.861C940.755 15.1119 935.537 14.7192 936.187 14.7797C938.647 15.0141 941.807 15.2611 945.101 15.5729C968.321 17.7968 944.902 15.6336 950.382 16.1773C952.264 16.363 956.038 16.6857 956.835 16.7657C959.423 17.0242 959.483 17.0845 961.202 17.2491C965.275 17.6419 960.533 17.0963 960.849 17.124C961.558 17.1844 962.671 17.2892 963.886 17.4084C969.124 17.9179 976.929 18.7978 969.813 18.1199C975.114 18.7017 975.729 18.6679 979.916 19.18C988.201 20.2267 975.77 18.7462 972.375 18.4287C969.055 18.093 966.399 17.832 963.869 17.5824C957.261 16.9348 951.89 16.3935 939.384 15.2319C933.178 14.6561 925.807 14.0277 922.937 13.7678C921.123 13.6004 904.003 11.8759 903.475 12.0971C896.82 11.47 886.375 10.357 879.518 9.75183C873.348 9.20729 875.312 9.47746 874.732 9.42918C873.842 9.35532 866.39 8.6819 863.876 8.47036C860.917 8.22149 862.382 8.38871 857.71 7.98513C853.341 7.6076 850.586 7.35478 848.917 7.19241C846.034 6.91271 845.919 6.86331 845.153 6.7904C831.271 5.47878 837.327 6.16444 834.265 5.90865C831.395 5.10544 791.269 4.02365 782.699 4.57524C786.179 4.50409 789.618 4.44265 793.065 4.39831C786.905 4.38203 780.346 4.5929 780.206 4.48681C779.362 4.61927 772.898 4.71175 767.764 4.79626C765.575 4.83107 763.449 4.86599 762.334 4.89113C760.832 4.92506 760.957 4.95184 759.035 4.99494C751.665 5.15634 734.956 5.5361 730.944 5.65451C713.568 6.15076 757.975 5.15708 761.481 5.11692C754.484 5.2419 714.907 6.26961 733.084 5.89966C735.924 5.8416 740.894 5.64322 742.467 5.60281C753.161 5.32967 744.76 5.59778 745.594 5.58461C747.026 5.56072 754.009 5.33245 755.913 5.29889C756.532 5.2887 752.547 5.436 762.728 5.21731C757.74 5.36972 729.045 6.00873 725.304 6.12806C723.968 6.17045 732.351 6.07297 707.832 6.59459C708.117 6.59907 708.401 6.60357 708.684 6.60808C695.026 6.97888 681.372 7.36842 667.718 7.77607C669.199 7.70438 676.863 7.42355 667.212 7.71896C661.646 7.89073 665.765 7.83081 665.257 7.84764C661.937 7.96013 621.777 9.12631 590.232 10.3291C574.305 10.93 560.656 11.5764 554.925 11.8861C549.124 12.1504 532.978 13.2774 531.763 13.426C530.21 13.5491 527.861 13.7561 525.002 13.9769C514.311 14.5163 497.375 16.6294 493.23 17.1733C490.035 17.5878 493.087 17.2472 490.202 17.6177C487.528 17.9637 490.297 17.5523 489.501 17.6538C487.674 17.8866 482.689 18.5417 476.017 19.4605C458.368 21.8788 429.495 26.0999 420.836 27.3357C428.107 26.2652 464.415 20.961 463.687 21.0515C463.514 21.0692 454.708 22.2753 452.866 22.5586C449.853 22.9422 439.55 24.5549 433.929 25.3452C433.299 25.4344 435.771 24.9975 425.756 26.4418C422.299 26.9408 413.272 28.3188 404.164 29.5995C395.654 30.874 363.693 35.5853 340.923 39.1227C328.461 41.0506 318.788 42.6652 317.107 42.9801C316.979 42.999 326.682 41.4288 320.138 42.5398C311.435 44.0466 319.201 42.564 309.08 44.3128C308.419 44.4175 303.124 45.4084 296.931 46.5939C288.645 47.9892 279.17 50.324 278.648 50.4554C270.259 52.5039 294.53 46.8993 294.223 47.2212C293.341 47.2105 273.192 51.8477 272.391 52.1874C271.61 52.3751 287.977 48.089 268.29 53.1898C270.546 52.6002 272.804 52.0257 275.061 51.47C265.821 53.8616 264.928 54.1005 262.683 54.702C258.716 55.7953 254.57 57.0185 249.652 58.4805C245.996 59.5682 241.911 60.7764 237.168 62.1712C234.227 63.0373 239.073 61.5022 238.708 61.6102C235.173 62.639 230.742 64.1524 225.452 65.7469C225.057 65.8897 237.25 61.8131 215.903 68.8082C217.37 68.3268 218.843 67.8484 220.313 67.3756C217.28 68.298 195.826 75.8177 193.003 76.9908C186.104 79.6008 189.858 78.1203 186.645 79.3503C185.97 79.6115 184.988 79.9947 183.538 80.5699C188.904 78.4739 163.602 88.7704 165.062 88.1794C161.561 89.6983 140.336 99.0595 130.829 104.306C129.046 105.254 126.734 106.515 124.345 107.892C118.53 111.245 112.043 114.901 110.678 115.658C108.332 116.961 109.013 116.503 104.788 118.834C103.618 119.538 90.9398 126.36 80.2263 132.776C78.1452 134.016 73.8579 136.691 77.5978 134.228C84.0023 130.018 96.9569 123.038 96.7454 123.056C96.4938 123.089 79.2628 132.756 75.03 135.827C73.3803 136.928 71.9774 137.922 70.783 138.811C57.0494 149.042 66.5828 141.813 66.0947 142.15C64.7425 143.08 54.0102 151.169 53.5729 151.511C51.7057 152.896 59.276 147.1 59.3587 147C59.4655 146.847 49.1098 154.606 51.4394 152.819C54.7554 150.244 64.3383 143.129 64.9278 142.687C72.7758 136.75 61.9122 144.749 58.9231 146.942C58.0111 147.609 61.5882 144.881 60.8344 145.443C49.4221 153.968 58.5356 147.351 50.9749 153.083C44.2814 158.203 52.8437 151.539 52.5899 151.739C52.2457 151.981 44.2459 158.132 43.0135 159.099C42.3151 159.505 63.1203 143.504 62.2415 144.139C55.5453 149.191 48.8665 154.24 42.3112 159.435C41.7261 159.759 51.2824 152.422 52.2796 151.681C54.2546 150.153 48.6923 154.347 48.9032 154.16C49.0352 154.032 55.5046 149.019 49.6063 153.496C47.5866 155.058 43.3333 158.296 36.1352 164.143C61.3792 144.011 43.8099 157.867 43.0183 158.409C42.2783 158.953 54.3506 149.393 39.6582 160.972C38.9396 161.355 39.9137 160.673 44.096 157.359C49.2308 153.358 37.2206 162.454 56.1873 148.031C55.0454 148.75 39.8606 160.451 39.1303 161.142C38.445 161.683 41.7468 158.995 40.5497 159.936C26.587 171.194 36.1425 163.435 32.1053 166.702C31.6392 166.865 19.3493 178.577 28.6983 169.66C46.4297 154.168 54.8316 148.927 57.7576 146.227C43.7012 156.513 27.441 170.03 23.9768 174.08C18.3941 179.963 24.1308 173.823 23.4422 174.55C23.2994 174.69 21.6002 176.455 20.2576 177.98C19.2885 179.072 18.4515 179.993 18.4238 180.022C17.5729 180.894 18.3985 179.973 20.2024 177.931C25.4555 171.21 43.3082 157.074 50.1583 151.941C47.7254 153.769 45.2995 155.609 42.8896 157.469C46.1519 154.906 49.4058 152.41 52.7042 149.9C37.0591 161.842 52.1194 150.277 55.9629 147.234C56.8391 146.531 46.5609 154.377 58.2553 145.424C49.5715 151.969 52.3156 149.826 44.534 155.887C44.6755 155.629 62.2672 142.201 69.2862 136.954C44.5913 155.49 58.6179 144.863 37.5635 161.275C33.7412 164.451 43.6874 156.425 42.8852 157.118C40.0096 159.482 32.9638 164.698 25.4427 172.157C24.2563 173.403 29.3915 168.248 21.8616 175.948C21.5916 176.238 20.8984 176.975 20.1111 177.85C18.5242 179.616 16.4391 181.838 16.4801 181.789C16.8315 181.365 18.6548 179.369 20.0454 177.791C20.9559 176.76 21.7216 175.94 21.792 175.852C21.8606 175.769 21.0134 176.664 20.0277 177.776C18.6389 179.344 16.879 181.267 16.8664 181.275C16.7226 181.371 18.9968 178.89 19.9998 177.751C20.3891 177.312 20.5999 177.079 20.4189 177.272C20.3333 177.364 20.1851 177.525 19.989 177.741C17.2359 180.823 4.27184 194.622 19.8919 177.655C21.2094 176.171 22.7756 174.493 24.6507 172.638C22.6867 174.594 21.1384 176.277 19.9091 177.67C12.657 185.717 15.253 182.906 19.9387 177.697C22.9617 174.24 27.2462 170.106 30.333 167.392C32.5377 165.451 33.0739 164.933 36.2886 162.262C40.4236 158.84 45.4227 154.995 47.6101 153.304C49.994 151.483 36.4404 161.712 55.9701 146.853C45.9965 154.312 28.2978 167.702 20.1854 177.123C20.0498 177.273 19.9176 177.42 19.7888 177.564C12.104 185.95 14.7069 183.067 19.7029 177.488C24.922 171.347 34.2167 163.572 35.954 162.17C36.8519 161.424 33.8006 163.885 34.4026 163.384C35.2656 162.428 54.1607 147.82 56.0481 146.433C57.8909 144.985 49.0867 151.709 48.4881 152.132C48.0321 152.378 70.9989 135.035 58.5424 144.38C49.9173 150.768 34.3913 163.075 31.8635 165.297C43.8527 155.109 56.5058 145.899 69.0209 136.456C69.1217 136.381 69.2228 136.305 69.3244 136.23C69.2224 136.305 69.1208 136.379 69.0195 136.454C62.1833 141.515 55.3088 146.602 48.5386 151.73C55.6353 146.287 62.3448 141.284 68.9406 136.349C75.5009 131.478 82.4529 127.522 89.6827 123.385C54.6143 143.848 100.979 116.561 101.6 116.589C101.769 116.481 87.7903 124.097 85.5635 125.393C97.8888 118.422 135.165 97.4644 113.287 109.638C115.489 108.42 119.361 106.206 122.374 104.454C124.846 103.018 126.769 101.964 126.711 101.99C126.371 102.156 124.632 103.085 122.339 104.393C116.062 107.99 105.435 113.927 107.915 112.491C111.597 110.361 116.709 107.581 122.323 104.365C122.706 104.146 123.095 103.924 123.49 103.701C155.471 86.9955 146.568 91.2357 179.849 77.3674C179.178 77.6217 178.508 77.8764 177.838 78.1327C180.239 77.1697 182.644 76.2181 185.054 75.2778C205.822 67.1803 227.042 60.3707 248.345 54.0749C262.117 50.021 275.935 46.1677 290.095 43.3286C291.81 42.9753 293.856 42.5759 296.169 42.1669C307.167 39.8959 324.553 37.0033 340.214 34.5603C349.657 33.082 358.494 31.7348 365.087 30.7409C369.085 30.1329 388.616 27.2624 390.101 27.0552C392.841 26.6643 377.81 28.9154 384.612 27.9345C386.035 27.7174 419.15 22.8476 416.77 23.1471C413.061 23.6822 401.458 25.4231 399.554 25.6926C389.458 27.1149 445.281 18.8342 475.369 14.7332C485.115 13.3949 492.178 12.493 493.41 12.3274C491.14 12.5965 488.865 12.8724 486.598 13.1519C493.075 12.31 499.492 11.5025 506.013 10.7832ZM213.59 69.8333C209.915 71.1247 200.694 74.3074 195.307 76.3483C192.747 77.3079 189.589 78.5416 186.772 79.6751C181.379 81.8437 177.209 83.5916 180.704 82.024C182.717 81.2155 184.733 80.4152 186.752 79.6225C195.609 76.1455 204.569 72.9049 213.59 69.8333ZM380.364 33.3062C372.565 34.4445 378.6 33.4089 384.979 32.5089C385.679 32.4109 390.892 31.7742 380.364 33.3062ZM299.02 46.3466C299.371 46.272 305.989 45.0027 306.231 44.9739C312.24 43.8886 292.094 47.7084 299.02 46.3466ZM694.571 6.896C685.898 7.14341 692.189 7.08202 697.566 6.8865C697.905 6.87413 695.142 6.87981 694.571 6.896ZM688.406 7.06515C681.672 7.15011 668.123 7.75343 678.898 7.42051C679.944 7.38761 688.717 7.0609 688.406 7.06515ZM352.62 37.4527C353.498 37.2773 361.511 36.0752 364.942 35.5665C364.876 35.612 355.982 36.9322 352.62 37.4527ZM556.446 11.757C556.76 11.6262 528.726 13.397 526.811 13.7425C531.243 13.2207 556.1 11.7421 556.446 11.757ZM628.687 8.89181C627.979 8.90826 618.259 9.23837 618.52 9.25816C623.272 9.1334 631.908 8.81145 628.687 8.89181ZM772.413 5.01746C772.905 5.00757 765.702 4.94285 782.922 4.77062C785.444 4.74764 776.431 4.93563 777.318 4.93C779.199 4.90949 780.696 4.89114 781.895 4.87373C776.573 4.9649 771.144 5.07738 767.771 5.14565C766.113 5.17923 764.957 5.20186 764.681 5.204C762.544 5.22133 765.134 5.16029 767.77 5.10673C770.044 5.06037 772.262 5.02157 772.413 5.01746ZM847.537 7.20875C847.794 7.22749 848.267 7.26674 848.905 7.32171C852.283 7.6127 860.118 8.32672 862.155 8.51868C862.569 8.5579 860.756 8.47097 865.517 8.89101C869.33 9.22723 863.648 8.64245 871.076 9.31873C878.579 10.0018 868.542 9.15936 869.197 9.22184C870.098 9.30741 881.698 10.3101 881.336 10.3227C881.077 10.3323 868.609 9.19527 865.536 8.92766C861.601 8.58481 866.362 9.06596 859.777 8.46499C855.663 8.0893 857.941 8.1961 857.07 8.11322C856.654 8.07374 851.961 7.66977 848.899 7.3914C846.426 7.16671 845.082 7.03173 847.559 7.21107C847.552 7.2103 847.545 7.20952 847.537 7.20875ZM784.064 4.83736C783.438 4.84952 782.748 4.86136 781.895 4.87373C782.622 4.86124 783.32 4.84938 784.064 4.83736ZM235.15 62.8162C239.055 61.6358 227.498 65.2547 223.131 66.6558C223.036 66.6336 234.522 62.9861 235.15 62.8162ZM791.523 4.6716C803.447 4.6381 794.692 4.66411 784.064 4.83736C787.427 4.77365 787.504 4.70174 791.523 4.6716ZM452.866 22.5586C453.357 22.4959 453.69 22.46 453.73 22.4729C452.404 22.6413 452.302 22.645 452.866 22.5586ZM480.514 18.7347C486.557 17.8865 480.867 18.6328 475.996 19.3079C473.306 19.6803 470.803 20.0377 470.86 20.0444C470.88 20.0498 473.541 19.6844 476.002 19.349C478.256 19.0413 480.316 18.7625 480.514 18.7347ZM705.686 6.59738C704.814 6.61597 718.4 6.07741 698.665 6.74057C709.194 6.47316 698.095 6.79431 698.25 6.80541C698.694 6.83363 716.362 6.31669 720.293 6.23652C723.369 6.07911 708.557 6.53582 705.709 6.59677C705.701 6.59697 705.694 6.59717 705.686 6.59738ZM982.939 19.952C980.58 19.7049 973.013 18.855 967.937 18.3432C970.331 18.5399 977.855 19.3347 982.939 19.952ZM1477.42 324.411C1474.08 324.195 1471.03 324.101 1468.25 324.082C1442.41 324.062 1441 323.932 1468.25 324.003C1468.82 324.008 1469.4 324.017 1469.98 324.029C1470.61 323.975 1479.52 324.498 1477.42 324.411ZM1425.81 462.362C1427.67 463.401 1424.37 461.69 1420.14 459.414C1417.81 458.16 1415.24 456.544 1413.09 455.122C1411.74 454.244 1406.85 450.813 1412.5 454.613C1412.35 454.576 1416.18 457.243 1420.15 459.39C1422.2 460.488 1424.27 461.579 1425.81 462.362ZM798.25 4.5857C801.753 4.50799 812.401 4.64792 818.001 4.95122C814.578 4.79086 803.252 4.55956 798.25 4.5857ZM1363.3 330.63C1359.96 331.908 1357.88 333.148 1358.43 332.859C1360.85 331.544 1367.13 329.272 1363.3 330.63ZM763.687 5.0719C763.497 5.06418 765.394 5.01229 767.767 4.95834C771.938 4.86231 777.761 4.7646 778.393 4.80439C776.473 4.83252 771.489 4.92637 767.768 5.00005C765.583 5.04272 763.821 5.07666 763.687 5.0719ZM973.359 18.8547C971.159 18.5984 982.507 19.7892 985.902 20.2619C985.632 20.2351 974.794 18.997 973.359 18.8547ZM1339.7 376.722C1340.21 380.052 1342.21 387.77 1342.69 388.518C1342.85 389.638 1339.84 378.332 1339.7 376.722ZM1852.17 540.608C1852.44 540.919 1843.61 531.609 1839.66 527.532C1832.19 519.713 1851.91 540.198 1852.17 540.608ZM1397.2 325.55C1407.65 325.059 1396.04 325.608 1396.52 325.66C1403.54 325.224 1421 324.566 1408.99 324.979C1406.65 325.062 1400.48 325.365 1397.2 325.55ZM1387.6 326.137C1386.51 326.221 1379.01 326.931 1385.47 326.385C1388.46 326.149 1393.29 325.752 1387.6 326.137ZM1795.73 484.698C1789.03 478.241 1820.14 507.646 1820.94 508.707C1821.42 509.188 1821.7 509.465 1821.87 509.641C1822.89 510.61 1827.7 515.353 1829.12 516.818C1829.26 516.97 1829.37 517.083 1829.43 517.15C1829.33 517.052 1829.23 516.944 1829.11 516.827C1827.13 514.859 1822.92 510.712 1822.41 510.199C1822.17 509.966 1822 509.794 1821.88 509.674C1819.88 507.639 1797.13 485.802 1795.73 484.698ZM1739.51 441.435C1748.27 447.632 1749.73 448.875 1748.97 448.336C1739.44 441.551 1745.7 445.917 1745.41 445.703C1744.75 445.217 1737.99 440.412 1739.53 441.455C1739.53 441.448 1739.52 441.442 1739.51 441.435ZM1784.89 475C1785.26 475.281 1791.94 481.195 1792.23 481.483C1797.68 486.372 1778.69 469.616 1784.89 475ZM904.234 12.1846C910.662 12.7812 904.35 12.2668 900.078 11.8615C899.728 11.828 898.563 11.6592 904.234 12.1846ZM1382.51 326.562C1382.41 326.57 1382.03 326.603 1381.57 326.648C1377.73 326.803 1364.01 328.956 1356.13 333.944C1351.36 336.621 1348.86 339.535 1349.38 338.995C1349.94 338.451 1352.31 336.135 1356.15 333.987C1363.64 329.313 1376.38 326.967 1381.57 326.682C1383.9 326.455 1384.65 326.391 1382.51 326.562ZM1498.63 492.911C1492.27 490.923 1499.22 493.091 1502.63 493.98C1503.9 494.324 1500.24 493.41 1498.63 492.911ZM744.549 5.42922C737.559 5.64092 738.997 5.45725 745.069 5.36348C745.309 5.3598 744.827 5.42089 744.549 5.42922ZM1448.54 473.866C1469.74 483.083 1464.35 481.83 1437.3 468.523C1438.15 468.939 1438.99 469.349 1439.85 469.76C1408.92 453.739 1437.65 468.868 1445.38 472.426C1448.3 473.814 1445.87 472.611 1448.52 473.857C1448.53 473.86 1448.53 473.863 1448.54 473.866ZM1533.17 496.518C1547.41 496.644 1535.35 496.568 1521.45 496.678C1513.72 496.833 1505.53 494.955 1501.3 493.77C1512.61 496.902 1527.62 497.701 1507.35 495.09C1513.85 496.421 1518.38 496.548 1521.45 496.53C1532.66 496.451 1525.07 496.558 1526.04 496.553C1527.51 496.548 1532.19 496.51 1533.17 496.518ZM1476.4 485.209C1475.87 485.023 1473.84 484.287 1471.43 483.44C1468.33 482.364 1464.64 480.908 1462.81 480.166C1464.56 480.851 1468.14 482.253 1471.44 483.399C1476.83 485.283 1481.39 486.988 1476.4 485.209ZM1678.91 398.001C1679.61 398.395 1681.37 399.358 1687.76 403.573C1685.78 402.283 1681.65 399.658 1678.91 398.001ZM206.518 71.9986C201.512 73.7198 191.638 77.3833 194.683 76.3059C195.005 76.1586 206.503 72.0059 206.518 71.9986ZM1351.92 403.721C1352.13 403.964 1353.89 405.96 1356.37 408.294C1362.42 414.052 1371.64 422.341 1366.41 417.555C1365.36 416.593 1360.49 412.123 1356.4 408.256C1351.85 403.972 1348.86 400.026 1351.92 403.721ZM1422.3 324.441C1419.86 324.503 1409.98 324.885 1409.75 324.916C1409.11 324.968 1421.24 324.494 1422.3 324.441ZM181.507 81.3167C180.841 81.5313 165.895 87.7011 167.556 87.0637C170.666 85.7579 183.727 80.4318 181.507 81.3167ZM927.635 14.2019C928.982 14.324 930.763 14.5415 931.232 14.5854C932.328 14.6769 957.035 16.9885 947.58 16.1628C946.006 16.0038 910.473 12.7066 905.848 12.2949C904.068 12.0601 919.243 13.505 922.941 13.8387C923.597 13.8974 924.006 13.8735 927.624 14.2012C927.628 14.2014 927.631 14.2017 927.635 14.2019ZM1711.73 420.75C1712.5 421.281 1730.53 435.112 1734.89 438.076C1735.46 438.49 1735.78 438.723 1735.74 438.703C1735.45 438.498 1735.16 438.293 1734.88 438.09C1726.98 432.502 1719.36 426.569 1711.73 420.75ZM1699.87 411.96C1696.55 409.556 1700.61 412.424 1704.71 415.435C1706.79 416.96 1708.88 418.535 1710.03 419.413C1710.04 419.441 1707.33 417.392 1704.69 415.463C1702.42 413.8 1700.21 412.205 1699.87 411.96ZM1367.75 328.878C1365.01 329.615 1373.48 327.49 1371.59 328.004C1370.35 328.196 1364.25 329.939 1362.42 330.808C1361.87 330.964 1367.96 328.844 1369.81 328.494C1372.39 327.881 1369.87 328.393 1372.71 327.79C1375.7 327.192 1378.63 326.843 1381.56 326.562C1387.85 325.986 1394.01 325.65 1400.36 325.309C1401.18 325.265 1394.72 325.571 1401.84 325.197C1402.96 325.141 1409.59 324.855 1418.16 324.555C1435.25 323.855 1448.21 323.751 1468.26 323.834C1470.41 323.847 1472.64 323.903 1474.96 324.015C1474.62 323.993 1471.73 323.828 1468.26 323.797C1462.73 323.74 1455.74 323.742 1455.09 323.746C1436.07 323.746 1402.67 324.555 1381.55 326.45C1380.38 326.565 1379.25 326.684 1378.17 326.817C1372.94 327.54 1375.48 327.231 1373.25 327.613C1371.51 328.001 1373.53 327.335 1367.75 328.878ZM209.162 71.0412C206.751 71.7961 198.423 74.7853 193.141 76.7863C195.017 76.1246 203.929 72.8141 209.162 71.0412ZM1583.72 353.803C1581.06 352.806 1572.82 349.649 1572.14 349.404C1571.25 349.097 1583.15 353.641 1583.72 353.803ZM1065.52 35.2407C1065.78 35.2902 1072.45 36.7296 1072.72 36.7918C1078.68 38.1266 1058.64 33.8088 1065.52 35.2407ZM1223.59 76.2165C1228.56 77.7008 1233.56 79.1991 1235.21 79.7566C1232.06 78.7851 1223 76.0732 1223.59 76.2165ZM1431.6 160.521C1431.28 160.32 1432.84 161.147 1435.14 162.387C1439.15 164.536 1445.22 168.043 1446.8 169.01C1446.15 168.626 1439.46 164.769 1435.11 162.44C1433.2 161.405 1431.81 160.649 1431.6 160.521ZM1678.07 397.235C1686.12 402.248 1684.47 401.122 1689.47 404.472C1690.27 405.044 1692.84 406.911 1684.15 401.156C1682.57 400.152 1688.83 403.986 1678.07 397.235ZM1432.92 466.29C1430.83 465.272 1424.55 461.961 1420.08 459.534C1419.92 459.448 1419.76 459.361 1419.6 459.272C1419.69 459.321 1419.86 459.411 1420.08 459.526C1422.29 460.7 1430 464.804 1432.92 466.29ZM154.588 92.6163C150.429 94.2645 131.992 103.378 136.584 101.183C137.198 100.788 151.916 93.7287 154.588 92.6163ZM822.367 4.98173C830.804 5.4439 813.346 4.34226 807.797 4.43146C810.318 4.41551 821.796 4.90349 822.367 4.98173ZM1383.65 135.397C1384.03 135.586 1392.02 139.678 1392.39 139.874C1398.93 143.279 1376.25 131.666 1383.65 135.397ZM1172.01 61.1894C1175.15 61.9923 1195.67 67.8587 1200.25 69.26C1195.82 67.984 1168.12 60.1283 1172.01 61.1894ZM1643.9 378.185C1649.91 381.365 1655.59 384.42 1661.04 387.444C1659.9 386.808 1644.54 378.526 1643.9 378.185ZM1413.03 150.587C1413.46 150.809 1413.87 151.03 1414.27 151.245C1413.85 151.02 1413.44 150.8 1413.03 150.587ZM1501.17 327.386C1495.63 326.252 1496.77 326.584 1497.11 326.637C1501.28 327.419 1507.41 328.769 1501.17 327.386ZM203.002 73.105C201.121 73.7003 192.153 77.0197 187.035 79.0241C188.528 78.4628 198.818 74.5709 203.002 73.105ZM1556.98 496.149C1564.07 496.07 1535.31 496.979 1529.05 496.737C1528.62 496.668 1556.14 496.715 1556.98 496.149ZM796.105 4.30276C795.562 4.24249 783.298 4.42963 785.919 4.42415C787.58 4.40668 796.453 4.32016 796.105 4.30276ZM1514.59 496.452C1511.93 496.277 1505.82 495.004 1507.98 495.4C1510.74 495.958 1515.27 496.532 1514.59 496.452ZM1340.44 355.121C1340.26 355.674 1339.11 359.736 1338.71 362.92C1338.3 366.101 1338.32 368.344 1338.52 365.188C1339 360.809 1339.26 360.112 1339.45 359.086C1339.52 358.543 1341.04 352.966 1342.45 349.44C1343.66 346.452 1344.34 344.946 1342.41 349.427C1341.9 350.768 1341.21 352.62 1340.44 355.121ZM1599.75 357.596C1601.28 363.404 1602.69 370.525 1603.34 376.748C1603.26 374.192 1600.53 360.033 1599.75 357.596ZM843.029 6.51861C841.55 6.08622 801.652 3.67639 824.311 5.03025C825.626 5.01846 847.466 6.95513 843.029 6.51861ZM1678.07 397.235C1677.52 396.894 1676.92 396.53 1676.26 396.13C1675.72 395.797 1675.13 395.44 1674.5 395.062C1675.13 395.438 1675.72 395.794 1676.26 396.129C1676.92 396.527 1677.51 396.892 1678.07 397.235ZM1580.16 352.34C1582.23 353.092 1571.88 349.153 1568.83 347.986C1567.88 347.669 1579.88 352.247 1580.16 352.34ZM1603.44 377.216C1603.88 380.793 1604.19 387.348 1604.19 391.85C1604.26 391.076 1603.73 378.748 1603.44 377.216ZM1456.57 174.949C1462.63 178.885 1469.5 184.42 1469.6 184.508C1469.71 184.609 1469.97 184.828 1470.41 185.208C1470.89 185.549 1476.6 190.67 1479.02 193.071C1486.2 200.28 1472.76 185.912 1460.49 177.658C1448.16 169.48 1439.6 163.753 1463.16 179.448C1461 177.898 1458.8 176.403 1456.57 174.949ZM1144.15 53.6036C1140.18 52.5137 1128.95 49.7349 1131.86 50.4887C1133.89 50.9961 1148.13 54.6788 1144.15 53.6036ZM1296.34 98.7994C1295.18 98.4031 1284.42 94.9555 1284.15 94.8974C1290.29 96.8912 1301.67 100.58 1296.34 98.7994ZM1113.4 45.8624C1110.9 45.255 1107.64 44.5572 1107.95 44.6328C1110.5 45.2611 1117.62 46.9195 1113.4 45.8624ZM1661.14 387.213C1657.79 385.317 1646.95 379.571 1644.56 378.367C1644.12 378.127 1642.94 377.487 1640.77 376.325C1640.78 376.329 1640.79 376.332 1640.79 376.336C1640.56 376.213 1639.84 375.827 1638.7 375.223C1625.47 368.234 1550.05 341.137 1607.74 362.613C1609.69 363.355 1607.04 362.294 1614.97 365.32C1615.48 365.515 1615.76 365.658 1617.35 366.273C1620.09 367.362 1631.8 371.727 1638.66 375.286C1641.13 376.586 1643.11 377.629 1644.09 378.142C1644.12 378.165 1644.36 378.297 1644.88 378.579C1649.49 381.044 1663.76 388.648 1661.14 387.213ZM1317.56 105.878C1315.39 105.108 1308.64 102.838 1307.89 102.626C1311.28 103.752 1322.5 107.62 1317.56 105.878ZM841.798 6.28123C837.187 5.8181 825.536 4.95406 829.055 5.25601C831.211 5.39758 847.098 6.782 841.798 6.28123ZM1249.03 83.7832C1274.37 91.713 1255.08 85.6595 1258.97 86.8245C1255.68 85.8112 1252.36 84.7956 1249.03 83.7832ZM1761.82 457.09C1758.6 454.81 1761.95 457.085 1765.51 459.588C1765.77 459.771 1766.03 459.956 1766.29 460.142C1766.84 460.527 1766.36 460.209 1765.49 459.62C1764.45 458.918 1762.87 457.832 1761.82 457.09ZM1893.49 592.797C1891.81 589.558 1900.21 605.237 1896.84 599.17C1896.66 598.896 1893.59 593.031 1893.49 592.797ZM1805.84 493.633C1803.73 491.716 1802.37 490.397 1796.46 484.928C1805.2 493.018 1797.19 485.47 1805.84 493.633ZM1469.54 184.454C1469.58 184.485 1469.61 184.511 1469.6 184.508C1469.56 184.473 1469.55 184.458 1469.54 184.454ZM1089.12 40.2193C1085.89 39.4358 1076.8 37.431 1079.49 38.0747C1079.78 38.1385 1087.76 39.9422 1089.12 40.2193ZM1644.56 378.367C1644.94 378.582 1644.74 378.478 1644.09 378.142C1644.06 378.121 1644.23 378.203 1644.56 378.367ZM1137.69 51.8606C1137.41 51.8135 1147.5 54.4312 1150.69 55.2856C1151.2 55.4218 1151.54 55.5099 1151.61 55.5297C1155.19 56.4529 1153.8 56.0685 1150.7 55.243C1146.96 54.2448 1140.8 52.6514 1137.69 51.8606ZM748.375 4.94578C747.629 4.96664 752.369 4.94433 755.259 4.84554C757.494 4.76866 751.141 4.86703 748.375 4.94578ZM1825.57 512.74C1826.73 513.881 1828.09 515.225 1829.4 516.533C1831.58 518.706 1833.52 520.665 1834.02 521.214C1833.04 520.22 1831.14 518.305 1829.38 516.554C1827.3 514.481 1825.53 512.719 1825.57 512.74ZM1890.38 586.627C1889.64 585.234 1888.63 583.307 1887.45 581.139C1884.78 576.119 1880.07 570.293 1876.51 566.24C1876.45 566.146 1883.98 574.417 1887.47 581.126C1888.75 583.472 1889.79 585.498 1890.38 586.627ZM1671.69 393.211C1671.39 392.995 1661.63 387.462 1662.94 388.262C1664.89 389.374 1674.41 394.813 1671.69 393.211ZM770.242 4.51826C772.821 4.45273 771.01 4.45418 767.758 4.50241C764.908 4.54394 760.926 4.62543 758.366 4.71562C756.285 4.7887 763.74 4.64235 767.759 4.56723C769.09 4.54185 770.038 4.52349 770.242 4.51826ZM1060.74 33.966C1054.23 32.6175 1070.34 36.0653 1072.58 36.5225C1069.6 35.8685 1063.04 34.4399 1060.74 33.966ZM1278.63 92.9555C1258.71 86.4878 1269.53 90.1769 1273.05 91.2701C1273.57 91.4303 1279.11 93.1097 1278.63 92.9555ZM108.581 116.312C105.999 117.776 115.69 112.436 116.911 111.684C117.654 111.238 110.237 115.382 108.581 116.312ZM1540.12 257.321C1539.55 256.649 1538.98 255.981 1538.42 255.321C1538.84 255.812 1539.4 256.47 1540.12 257.321ZM1001.72 21.9918C1016.11 24.8103 1014.63 24.502 1015.88 24.7218C1017.78 25.1006 1021.45 25.8609 1025.25 26.6352C1026.83 26.956 1028.47 27.2852 1030 27.5898C1028.4 27.2757 1026.81 26.9629 1025.25 26.657C1020.95 25.8125 1016.69 24.9699 1012.43 24.1484C1013.89 24.4373 1018.97 25.4588 1025.24 26.7254C1038.64 29.4009 1057.46 33.3075 1058.03 33.4224C1059.22 33.6203 1046.63 31.0249 1046.24 30.95C1045.72 30.8375 1043.76 30.3177 1042.6 30.0762C1041.7 29.8893 1033.86 28.3033 1025.26 26.5837C1015.41 24.5883 1004.59 22.4726 1001.72 21.9918ZM1236.86 79.93C1240.06 80.9223 1240.98 81.2532 1242.47 81.6997C1242.98 81.8524 1243.07 81.8332 1244.81 82.3567C1242.17 81.5479 1239.5 80.7324 1236.86 79.93ZM975.673 18.6155C971.536 18.0791 990.076 20.2222 990.638 20.3986C993.78 20.8296 979.068 18.9684 975.673 18.6155ZM1130.85 50.0871C1130.18 49.9004 1116.26 46.4526 1116.37 46.526C1120.07 47.4142 1138.65 52.0852 1130.85 50.0871ZM1246.96 83.0171C1251.79 84.5077 1260.85 87.3861 1259.84 87.0026C1259.83 87.0003 1259.83 86.9981 1259.82 86.9958C1255.55 85.6644 1251.24 84.3316 1246.96 83.0171ZM787.443 4.09281C778.079 4.11652 782.545 4.17264 790.798 4.11964C793.307 4.04891 788.972 4.08979 787.443 4.09281ZM757.542 4.56217C754.953 4.58868 728.144 5.25823 732.228 5.21882C733.701 5.19936 749.104 4.7779 749.804 4.76885C750.874 4.75034 745.986 4.9244 754.176 4.72519C753.705 4.71422 758.439 4.54857 757.542 4.56217ZM779.694 4.13558C770.481 4.21221 768.299 4.41387 775.322 4.28053C778.079 4.23039 781.02 4.12591 779.694 4.13558ZM817.55 4.31165C814.224 4.12509 805.372 3.90153 799.246 3.97398C807.431 3.97662 815.611 4.14531 823.763 4.6702C824.704 4.70028 820.455 4.44327 817.528 4.31068C817.535 4.311 817.543 4.31133 817.55 4.31165ZM1918.66 634.806C1916.72 631.337 1918.08 633.951 1920.17 637.109C1922.13 639.755 1923.42 643.271 1923.51 643.614C1923.98 645.154 1922.49 640.237 1920.13 637.138C1919.53 636.243 1919.02 635.415 1918.66 634.806ZM59.176 145.692C57.5373 146.907 56.4255 147.67 52.8465 150.425C56.5045 147.696 60.128 145.021 63.7923 142.323C66.5769 140.117 60.9677 144.364 59.176 145.692ZM45.182 155.93C45.6909 155.539 42.8156 157.557 49.4495 152.574C53.8919 149.185 29.815 167.833 26.1462 171.995C30.4152 167.658 40.8132 159.294 45.182 155.93ZM6.21923 192.249C5.96998 192.497 13.9265 184.102 14.8235 183.114C19.6466 178.009 7.6036 190.937 6.21923 192.249ZM32.0305 165.817C27.8847 169.355 37.0067 161.464 39.8716 159.304C40.1556 159.074 32.6306 165.238 32.0305 165.817ZM1882.46 569.372C1878.8 564.728 1875.13 560.932 1881.07 567.79C1881.35 568.113 1882.61 569.571 1882.46 569.372ZM13.8824 183.939C17.6022 180 9.41736 188.776 6.91617 191.347C6.66967 191.571 13.3288 184.548 13.8824 183.939ZM1879.98 566.019C1874.9 560.062 1876.5 562.32 1877.16 563.049C1879.93 565.942 1888.55 576.877 1889.64 579.611C1878.14 562.195 1882.07 569.084 1879.98 566.019ZM1855.38 539.723C1850.42 534.461 1863.01 547.989 1865.51 550.472C1863.02 547.88 1856.79 541.224 1855.38 539.723ZM1824.75 508.185C1821.99 505.441 1813.69 497.357 1812.27 496.063C1815.34 498.979 1823.57 507.074 1824.75 508.185ZM1818.53 501.944C1814.22 497.696 1813.04 496.767 1818.11 501.613C1818.31 501.801 1818.69 502.103 1818.53 501.944ZM1793.66 478.462C1790.72 475.739 1787.22 472.864 1792.05 477.144C1793.46 478.399 1793.98 478.761 1793.66 478.462ZM1873.65 558.533C1869.78 554.311 1864.64 549.026 1872.99 557.946C1870.76 555.553 1868.51 553.194 1866.24 550.829C1865.52 550.086 1864.82 549.356 1864.12 548.62C1864.87 549.419 1865.56 550.151 1866.22 550.844C1875.02 560.151 1874.55 559.597 1877.43 562.782C1881.67 567.628 1881.2 567.368 1880.35 566.392C1881.96 568.313 1886.31 573.137 1889.96 579.772C1893.87 586.94 1897.88 595.357 1901.31 601.092C1897.97 595.466 1894.13 587.333 1890.04 579.729C1887.05 574.19 1883.22 569.508 1880.2 565.923C1878.11 563.468 1876.01 561.188 1874.16 559.163C1871.2 555.948 1873.86 558.764 1873.67 558.549C1873.66 558.544 1873.66 558.538 1873.65 558.533ZM1758.1 450.891C1748.61 444.03 1754.54 448.465 1759.95 452.271C1760.19 452.433 1758.33 451.063 1758.1 450.891ZM2.87734 194.925C11.9119 185.405 8.09888 189.826 19.4609 177.273C21.6661 174.77 24.5712 171.714 28.5423 168.1C18.5239 177.715 27.9924 168.636 26.0604 170.532C24.4469 171.997 18.8537 177.938 22.1445 174.522C21.5185 175.166 20.6073 176.126 19.5289 177.333C13.2298 184.429 -0.584575 198.63 -1.19227 199.502C-1.18477 199.494 -1.17727 199.485 -1.16976 199.477C-1.65341 200.015 -0.570978 198.558 2.87734 194.925ZM1824.97 507.876C1822.33 505.034 1821.01 504.122 1815.6 498.674C1810.26 493.731 1822.76 505.668 1831.5 514.414C1835.09 517.978 1838.02 520.987 1838.94 521.995C1835.43 518.416 1833 516.005 1831.45 514.469C1827.91 510.963 1828.88 511.954 1831.43 514.493C1837.1 520.1 1850.22 533.707 1837.9 520.816C1854.6 538.172 1843.42 526.461 1846.03 529.106C1848.82 531.949 1858.08 541.913 1857.65 541.363C1857.65 541.357 1857.64 541.352 1857.64 541.346C1851.95 535.281 1846.26 529.191 1840.43 523.232C1845.45 528.574 1836.45 519.246 1831.58 514.334C1831.01 513.756 1830.51 513.24 1830.09 512.811C1828.39 511.166 1826.68 509.518 1824.97 507.876ZM1857.75 541.779C1857.2 541.179 1844.79 527.998 1845.55 528.885C1847.24 530.626 1864.79 549.356 1857.75 541.779ZM1904.41 605.945C1903.87 605.087 1903.28 604.155 1902.68 603.179C1899.43 597.983 1896.05 591.171 1894.64 588.541C1896.92 593.026 1900.2 599.353 1902.65 603.193C1903.37 604.33 1903.98 605.278 1904.41 605.945ZM1659.27 382.863C1651.99 378.893 1674.33 391.278 1667.89 387.646C1667.59 387.45 1659.64 383.044 1659.27 382.863ZM1811.43 494.761C1805.36 488.899 1808.17 491.796 1812.69 496.069C1812.95 496.32 1811.7 495.027 1811.43 494.761ZM11.5972 185.7C11.7615 185.486 15.4537 181.621 19.3814 177.202C23.7052 172.265 29.1476 167.457 30.7416 166.077C29.8537 166.876 24.0206 171.967 19.418 177.235C15.2965 181.877 11.3964 185.934 11.5972 185.7ZM1910.72 615.468C1908.25 611.559 1905.43 607.189 1902.86 603.065C1898.34 595.713 1894.99 588.759 1894.38 587.687C1893.51 585.982 1894.94 588.623 1894.74 588.234C1894.53 587.836 1892.55 583.873 1890.24 579.619C1887.42 574.356 1883.28 569.385 1882.96 568.966C1882.51 568.413 1884.77 571.371 1882.09 568.084C1883.68 570.045 1887.13 574.149 1890.15 579.669C1894.46 587.617 1899.11 597.402 1902.76 603.124C1904.73 606.28 1906.12 608.434 1906.37 608.828C1907.2 610.08 1901.16 600.553 1910.7 615.449C1910.71 615.456 1910.71 615.462 1910.72 615.468ZM1892.19 583.396C1893.47 585.916 1892.05 583.137 1890.16 579.661C1888.62 576.794 1886.47 573.693 1885.54 572.431C1882.17 568.025 1887.56 574.594 1890.19 579.643C1891.28 581.637 1892.1 583.228 1892.19 583.396ZM1871.34 555.832C1870.88 555.325 1868.79 553.094 1866.44 550.638C1863.28 547.336 1859.74 543.573 1859.23 543.068C1861.16 545.157 1863.93 548.094 1866.4 550.675C1869.99 554.418 1872.84 557.455 1871.34 555.832ZM1750.8 445.31C1747.7 443.084 1739.2 436.912 1738.68 436.598C1741.8 438.819 1750.29 444.993 1750.8 445.31ZM70.3232 134.969C65.0507 138.69 77.232 130.009 81.0507 128.024C81.2338 127.844 70.7029 134.513 70.3232 134.969ZM1810.66 493.525C1809.27 491.788 1774.95 460.546 1768.78 457.764C1774.81 460.526 1808.78 491.428 1810.09 493.055C1810.54 493.476 1810.86 493.72 1810.66 493.525ZM1880.23 565.288C1883.05 568.485 1884.7 570.788 1885.02 571.219C1886.63 573.32 1888.95 576.72 1890.44 579.512C1891.92 582.253 1892.89 584.17 1892.31 583.118C1891.76 582.058 1891.11 580.835 1890.4 579.53C1885.52 570.36 1875.16 559.862 1880.23 565.288ZM1748.29 443.19C1735.57 434.049 1759.95 451.68 1756.79 449.312C1756.58 449.165 1749.61 444.14 1748.29 443.19ZM1814.39 497.079C1815.6 498.213 1823.32 505.665 1831.81 514.109C1841.57 523.744 1851.87 534.783 1854.57 537.676C1849.97 532.891 1846.36 528.927 1840.12 522.537C1838.43 520.813 1838.86 521.301 1838.68 521.115C1835.74 518.141 1837.97 520.337 1836.16 518.509C1835.86 518.215 1834.16 516.497 1831.78 514.139C1824.68 507.058 1811.74 494.575 1814.39 497.079ZM1881.83 567.128C1882.57 568.047 1887.05 573.117 1890.51 579.469C1894.5 586.877 1898.41 594.72 1898.75 595.246C1901.12 599.849 1895.62 589.248 1890.48 579.489C1886.91 572.94 1882.36 567.838 1881.83 567.128ZM1811.38 494.088C1815.06 497.417 1831.44 513.563 1820.17 502.6C1819.04 501.506 1814.58 497.116 1811.38 494.088ZM1749.7 444.093C1749.2 443.736 1740.63 437.525 1737.06 435.011C1736.18 434.384 1735.61 433.983 1735.56 433.953C1735.8 434.131 1736.33 434.509 1737.05 435.025C1742.02 438.558 1755.89 448.59 1749.7 444.093ZM1756.64 448.94C1756.32 448.711 1759.39 450.987 1753.18 446.529C1752.66 446.154 1751.73 445.414 1743.91 439.802C1742.32 438.661 1739.83 436.934 1740 437.062C1748.08 443.058 1772.75 460.341 1756.64 448.94ZM1882.21 567.503C1881.23 566.284 1883.75 569.106 1885.77 571.923C1886.61 573.133 1885 570.88 1882.21 567.503ZM1708.12 413.254C1710.77 415.208 1709.65 414.343 1706.97 412.359C1701.94 408.574 1691.1 401.08 1690.22 400.584C1690.94 400.998 1703.12 409.497 1706.94 412.39C1707.59 412.863 1708.01 413.174 1708.12 413.254ZM82.7838 126.584C82.7773 126.588 82.7708 126.592 82.7643 126.596C89.723 122.586 85.4395 125.113 85.7616 124.924C100.645 116.591 96.6765 118.776 98.9888 117.459C103.967 114.665 103.226 115.226 111.587 110.489C97.7495 118.303 110.369 111.224 110.782 111.035C112.443 110.341 92.2211 121.203 85.3316 125.214C84.3642 125.763 91.5178 121.768 89.0493 123.183C80.9164 127.448 56.5668 143.153 82.7838 126.584ZM1887.32 574.093C1887.84 574.84 1889.19 576.797 1890.62 579.412C1894.94 587.552 1901.66 600.615 1899.03 595.663C1898.64 595.079 1894 585.831 1890.56 579.444C1888.12 575.009 1885.97 572.273 1887.32 574.093ZM1473.88 183.272C1479.11 187.71 1467.07 177.321 1464.51 175.823C1463.36 174.95 1471.65 181.216 1473.88 183.272ZM1378.56 128.28C1371.4 124.672 1363.89 120.918 1372.7 125.468C1373.63 125.949 1379.38 128.725 1378.56 128.28ZM1521.25 500.64C1521.33 500.64 1521.41 500.639 1521.49 500.639C1529.64 500.628 1529.05 500.524 1522.99 500.57C1522.25 500.577 1521.78 500.588 1521.49 500.599C1520.92 500.619 1521.07 500.639 1521.25 500.64ZM1541.75 253.46C1541.23 252.798 1534.86 245.461 1535.04 245.748C1537.45 248.427 1545.24 257.636 1541.75 253.46ZM1518.5 500.617C1523.64 500.662 1514.76 500.687 1508.62 499.513C1511.72 500.149 1517.96 500.659 1518.5 500.617ZM1798.91 482.024C1795.81 479.211 1787.03 471.308 1781.72 467.045C1781.26 466.42 1795.45 478.704 1798.91 482.024ZM1408.86 143.931C1402.09 140.444 1416.52 148.024 1415.22 147.289C1415.04 147.187 1409.12 144.059 1408.86 143.931ZM1345.18 337.392C1343.28 339.662 1345.26 337.098 1347.75 334.934C1350.22 332.75 1353.1 331.027 1350.95 332.394C1350.65 332.393 1345.27 337.007 1345.18 337.392ZM1419.54 320.477C1415.33 320.559 1397.47 321.397 1404.41 321.109C1405.48 321.04 1419.23 320.501 1419.54 320.477ZM99.3786 117.191C97.3872 118.224 108.828 111.889 110.475 110.968C111.104 110.627 102.015 115.83 99.3786 117.191ZM1575.42 493.468C1579.39 491.341 1587.94 483.209 1588.9 481.264C1585.91 486.198 1574.23 494.402 1575.42 493.468ZM1439.49 160.25C1438.75 159.829 1437.92 159.367 1437.04 158.881C1431.29 155.714 1424.01 151.859 1426.12 153.073C1436.47 158.61 1426.25 153.04 1437.03 158.894C1437.77 159.297 1438.59 159.747 1439.49 160.25ZM1490.69 494.716C1494 495.857 1496.62 496.553 1496.24 496.434C1492.59 495.281 1487.41 493.547 1490.69 494.716ZM1593.83 326.679C1593.91 326.428 1589.08 316.138 1589.65 317.55C1589.97 317.948 1593.95 326.813 1593.83 326.679ZM1681.53 394.78C1677.2 392.031 1690.53 400.296 1694.29 403.041C1696.16 404.296 1682.14 395.04 1681.53 394.78ZM1403.23 453.403C1402.67 453.268 1417.4 462.979 1411.6 459.121C1410.13 458.221 1403.35 453.502 1403.23 453.403ZM1366.16 325.161C1359.92 327.264 1371.2 323.092 1381.16 322.526C1389.6 321.764 1396.76 321.421 1390.83 321.733C1390.44 321.763 1386.09 322.005 1381.16 322.467C1374.49 322.935 1366.7 324.912 1366.16 325.161ZM1446.57 319.802C1444.55 319.822 1445.56 319.6 1453.92 319.624C1455.01 319.626 1449.89 319.706 1450.78 319.713C1451.21 319.703 1463.33 319.681 1468.28 319.736C1469.43 319.745 1470.2 319.762 1470.36 319.764C1471.27 319.779 1470.19 319.695 1471.12 319.709C1472.17 319.649 1483.48 320.318 1489.34 321.24C1500.38 322.872 1501.52 323.345 1502.43 323.475C1505.03 324.024 1509.39 325.043 1514.59 326.467C1520.22 328.003 1526.44 329.946 1532.86 332.161C1543.33 335.649 1555.54 338.316 1566.34 342.711C1579.02 347.638 1590.89 352.09 1599.36 355.316C1588.13 351.078 1577.24 346.996 1566.32 342.77C1559.89 340.271 1553.28 338.163 1546.55 336.306C1550.52 337.33 1533.72 332.764 1532.84 332.243C1532.77 332.22 1532.77 332.219 1532.84 332.241C1533.14 332.333 1534.76 332.917 1538.6 334.023C1537.56 333.717 1535.54 333.132 1532.85 332.211C1520.08 327.471 1489.88 319.274 1468.28 319.77C1457.12 319.695 1448.59 319.789 1446.59 319.802C1446.59 319.802 1446.58 319.802 1446.57 319.802ZM1350.15 113.999C1354.79 115.736 1331.16 106.291 1329.06 105.806C1332.23 106.861 1349.61 113.635 1350.15 113.999ZM1453.84 168.301C1455.8 169.606 1457.99 170.408 1468 177.911C1468.01 177.918 1468.02 177.925 1468.03 177.932C1470.91 180.178 1467.6 177.661 1468.12 178.077C1468.36 178.17 1477.15 185.464 1469.8 179.477C1458.22 170.8 1468.81 178.506 1462.57 174.003C1461.87 173.351 1449.58 165.641 1450.24 166.16C1450.31 166.193 1454.06 168.469 1454.65 168.861C1456.94 170.339 1455.8 169.665 1456.12 169.872C1457.35 170.235 1475.98 183.883 1478.05 186.635C1479.57 186.489 1448.78 164.433 1447.15 164.449C1446.35 163.977 1446.75 164.081 1445.91 163.585C1445.68 163.446 1441.23 160.9 1437.13 158.701C1434.09 157.063 1431.28 155.555 1430.56 155.164C1430.06 154.894 1429.68 154.684 1429.4 154.532C1431.38 155.625 1419.4 149.234 1419.77 149.398C1420 149.496 1428.26 153.902 1428.54 154.06C1428.67 154.13 1428.78 154.192 1428.88 154.249C1428.2 153.864 1432.37 156.082 1437.15 158.663C1444.27 162.456 1452.55 167.463 1449.05 165.32C1456.98 170.08 1447.9 164.691 1453.84 168.301ZM1488.48 196.1C1487.77 195.461 1487.06 194.825 1486.34 194.193C1495.46 202.321 1504.74 212.299 1514 222.56C1517.08 225.956 1520.05 229.438 1523.1 232.763C1526.26 236.135 1522.65 232.261 1526.83 236.596C1527.44 237.205 1528.06 237.816 1528.66 238.394C1531.66 241.332 1533.72 243.823 1532.25 242.196C1532.03 241.975 1530.66 240.41 1528.62 238.444C1526.19 236.163 1523.26 232.978 1521.39 230.893C1516.62 225.535 1514.71 223.39 1513.95 222.598C1513.17 221.761 1513.68 222.341 1513.38 222.012C1512.73 221.307 1506.48 214.354 1502.95 210.637C1496.43 203.786 1492.38 199.758 1485.43 193.495C1482.99 191.328 1480.3 188.595 1476.81 185.397C1483.23 191.298 1481.17 189.439 1485.52 193.401C1486.29 194.096 1487.26 194.967 1488.48 196.1ZM1347.27 404.879C1346.67 404.56 1340.34 395.515 1339.15 391.593C1339.15 392.283 1344.43 402.038 1347.27 404.879ZM556.878 7.09607C553.67 7.2931 577.842 6.19025 571.469 6.43419C570.047 6.48006 559.932 6.93308 556.878 7.09607ZM665.558 3.19479C668.795 3.08102 655.757 3.42566 655.789 3.47387C655.803 3.48806 665.141 3.20863 665.558 3.19479ZM1605.82 365.251C1606.02 365.853 1607.42 374.798 1607.38 375.094C1608.49 380.981 1603.12 351.702 1605.82 365.251ZM797.725 0.0700028C786.403 0.0430882 820.492 0.344977 810.069 0.183645C809.535 0.135147 798.28 0.0417292 797.725 0.0700028ZM845.024 2.45339C842.363 2.2039 830.352 1.15322 830.191 1.18337C829.959 1.16715 843.672 2.37094 845.024 2.45339ZM1488.38 494.166C1489.52 494.692 1475.51 489.52 1469.98 487.611C1469.81 487.552 1469.65 487.496 1469.5 487.443C1469.31 487.366 1469.5 487.427 1469.98 487.589C1472.63 488.438 1483.92 492.626 1488.38 494.166ZM1585.79 485.517C1580.67 490.824 1575.23 494.229 1570.5 496.794C1561.18 501.493 1553.91 500.507 1549.74 500.867C1545.44 500.952 1543.64 500.925 1543.98 500.921C1544.35 500.902 1546.84 500.917 1551.32 500.777C1555.69 500.466 1562.62 500.847 1570.47 496.742C1576.25 493.611 1582.93 489.306 1588.52 482.336C1588.58 482.271 1588.8 482.249 1585.79 485.517ZM1502.38 498.541C1504.77 499.158 1512.44 500.764 1517.77 500.911C1516.8 501.099 1505.99 499.672 1502.38 498.541ZM528.064 8.88258C532.221 8.39775 550.828 7.30358 547.497 7.54663C546.74 7.52859 526.521 8.9822 528.064 8.88258ZM1606.87 370.843C1607.03 369.224 1608.8 389.595 1608.43 391.131C1608.65 397.411 1607.73 372.448 1606.87 370.843ZM1402.51 453.267C1399.58 451.259 1391.52 445.054 1386.52 440.926C1388.83 442.8 1397.99 450.064 1402.51 453.267ZM1443.43 476.46C1443.05 476.304 1434.92 472.286 1434.57 472.084C1427.93 468.748 1450.94 480.086 1443.43 476.46ZM72.988 132.042C73.2304 131.831 79.0932 128.153 79.3138 128.056C84.5679 124.802 67.0012 135.948 72.988 132.042Z" fill="#F4C03A" fill-opacity="0.58"/>
</svg>
