<svg width="1920" height="1030" viewBox="0 0 1920 1030" fill="none" xmlns="http://www.w3.org/2000/svg">
<path d="M130.767 900.681C131.796 901.33 134.596 903.07 137.425 904.791C139.594 906.113 141.777 907.412 143.177 908.239C142.059 907.555 139.811 906.209 137.444 904.76C132.138 901.522 126.239 897.813 130.767 900.681ZM495.304 1016.27C492.196 1015.9 489.07 1015.48 485.995 1015.06C494.783 1016.27 506.724 1017.43 514.928 1018.07C516.291 1018.17 512.78 1017.84 515.96 1018.1C519.165 1018.35 518.533 1018.37 523.145 1018.72C526.914 1019.02 540.372 1019.92 550.679 1020.51C554.55 1020.73 558.012 1020.93 560.318 1021.06C591.04 1022.79 622.106 1024.29 652.927 1025.62C621.097 1024.16 653.178 1025.55 662.09 1025.94C664.071 1026.02 663.747 1026.18 695.689 1027.42C716.015 1028.16 697.213 1027.34 731.137 1028.59C712.852 1028.06 720.007 1028.33 732.911 1028.76C738.414 1028.94 745.04 1029.13 751.14 1029.26C754.616 1029.41 783.302 1029.76 795.893 1027.75C800.211 1027.26 806.705 1026.43 812.351 1025.64C813.921 1025.42 815.27 1025.22 816.796 1025C818.993 1024.68 821.498 1024.32 824.94 1023.84C851.845 1020.09 878.311 1016.43 905.254 1012.51C889.481 1014.63 917.603 1010.65 918.857 1010.44C925.255 1009.46 896.256 1013.69 907.715 1011.99C916.716 1010.68 925.746 1009.35 934.728 1007.96C941.773 1006.86 948.8 1005.73 955.824 1004.4C942.674 1006.95 973.317 1001.2 978.682 998.994C977.862 999.303 986.385 996.774 998.19 993.03C1019.98 986.339 1053.01 975.23 1060.11 972.674C1062.39 971.825 1047.51 977.38 1082.13 964.819C1085.85 963.439 1084.43 963.918 1086.4 963.19C1087.56 962.76 1094.73 960.23 1102.22 957.239C1104.94 956.07 1087.44 963.129 1125.89 947.695C1122.32 949.194 1123.34 948.804 1127.18 947.239C1139.73 942.315 1181.57 923.669 1190.94 919.156C1188.49 920.312 1186.02 921.467 1183.56 922.614C1195.76 916.96 1197.96 915.948 1200.71 914.668C1211.77 909.49 1226.86 902.211 1237.09 897.217C1249.03 891.377 1249.13 891.44 1262.98 884.481C1259.69 886.154 1256.42 887.803 1253.12 889.463C1262.72 884.695 1272.29 879.876 1281.81 874.987C1263.97 883.978 1277.96 876.931 1284.95 873.353C1286.71 872.455 1288 871.79 1288.34 871.612C1291.14 870.157 1287.08 872.225 1291.8 869.758C1292.28 869.5 1291.62 869.933 1298.83 866.068C1313.8 857.894 1311.42 859.022 1317.62 855.418C1318.18 855.043 1316.25 856.432 1326.85 849.803C1359.42 826.967 1326.9 850.292 1325.37 850.7C1323.6 851.581 1335.36 844.942 1306.36 861.769C1316.16 856.241 1317.07 855.493 1318.14 854.876C1319.19 854.427 1335.66 843.861 1336.43 843.032C1344.2 837.295 1337.43 842.413 1338.94 841.297C1339.49 840.902 1343.89 837.526 1348.45 833.524C1353.81 829.043 1360.3 824.014 1362.66 822.225C1370.28 816.06 1360.5 823.627 1348.42 833.493C1346.72 834.951 1344.93 836.499 1343.05 838.015C1342.03 838.828 1345.05 836.383 1348.4 833.459C1352.27 830.18 1357.18 826.325 1357.64 825.949C1378.43 809.424 1367 818.655 1371.59 815.098C1373.99 813.233 1382.43 806.364 1374.66 812.722C1393.5 797.589 1382.03 806.732 1383.26 805.738C1385.08 804.259 1391.67 798.943 1392.47 798.275C1393.67 797.288 1389.46 800.679 1394.21 796.785C1394.97 796.162 1402.68 789.919 1392.83 798.025C1405.99 787.232 1404.91 788.136 1409.27 784.379C1418.38 777.029 1415.71 778.834 1419.23 775.856C1419.48 775.638 1419.73 775.426 1419.97 775.222C1428.46 767.931 1425.94 770.221 1426.44 769.819C1430.16 767.26 1454.32 742.912 1458.7 735.436C1456.96 738.355 1441.32 756.391 1437.24 759.812C1424.61 772.226 1454.65 741.93 1445.55 751.005C1449.24 747.073 1452.8 742.963 1456.13 738.692C1461.87 730.667 1454.03 742.059 1468.87 720.317C1471.34 716.751 1458.4 735.716 1461.01 731.943C1462.19 730.372 1466.78 723.371 1469.48 719.623C1470.61 718.059 1471.38 716.966 1471.44 716.899C1471.5 716.819 1470.65 718.048 1469.51 719.638C1467.31 722.69 1464.22 727.398 1465.03 726.201C1465.62 725.371 1467.33 722.764 1469.55 719.668C1477.98 708.021 1491.08 686.938 1474.55 712.378C1480.58 703.442 1483.34 698.632 1488.21 690.689C1491.23 685.604 1474.83 713.816 1498.77 673.145C1499.18 672.452 1499.59 671.738 1500.01 671.002C1500.12 670.769 1499.61 671.649 1498.74 673.128C1496 677.832 1489.68 688.632 1489.44 688.984C1489.03 689.651 1490.87 686.241 1491.21 685.66C1491.59 685.001 1494.58 679.936 1498.59 673.04C1503.03 665.487 1508.26 655.551 1513.68 647.572C1518.8 639.671 1522.45 632.681 1524.2 629.546C1522.36 633.434 1542.7 595.006 1544.74 590.727C1545.32 589.605 1543.23 593.837 1543.85 592.637C1547.31 585.989 1555.74 569.031 1560.75 558.71C1561.38 557.431 1561.92 556.31 1562.42 555.262C1567.5 544.537 1566.8 545.881 1567.1 545.287C1569.2 540.502 1567.49 544.314 1568.77 541.376C1571.27 537.188 1581.55 505.504 1581.4 503.758C1581.52 503.283 1580.29 508.555 1582.02 501.538C1582.25 500.468 1582.22 500.931 1585.22 487.041C1585.65 485.012 1586.11 482.841 1586.65 480.214C1590.4 461.298 1586.7 480.661 1585.33 487.065C1584.89 489.192 1584.76 489.881 1585.34 487.282C1585.35 487.213 1585.36 487.144 1585.38 487.075C1588.63 471.064 1588.49 471.583 1589.32 467.207C1589.59 465.657 1591.63 454.301 1593.07 441.815C1592.02 450.783 1590.59 459.715 1588.95 468.513C1590.62 459.851 1593.12 442.795 1593.68 435.509C1593.99 431.967 1593.71 434.877 1594.28 427.161C1594.31 425.521 1595.27 419.049 1593.32 439.241C1593.22 440.861 1594.18 431.253 1594.44 426.783C1594.48 426.116 1594.79 423.445 1594.96 417.732C1594.79 416.37 1594.81 431.245 1595.1 392.819C1595.1 391.576 1595.18 395.897 1595.17 394.682C1595.18 393.831 1595.04 384.058 1595.03 382.993C1595.02 381.891 1595.13 386.599 1595.11 385.287C1595.06 378.523 1594.76 369.709 1594.98 383.602C1594.89 378.93 1594.8 374.324 1594.72 369.675C1594.91 374.635 1594.64 362.357 1594.6 355.955C1594.59 354.376 1594.58 352.869 1594.58 351.438C1593.51 316.58 1594.43 341.987 1594.21 335.121C1593.35 323.624 1594.25 332.386 1592.04 315.413C1591.94 314.636 1592.66 319.354 1592.66 319.287C1592.42 319.247 1592.92 314.115 1587.31 294.605C1589.06 300.325 1590.46 306.162 1591.51 312.041C1591.1 308.605 1586.44 291.046 1585.77 289.817C1582.13 279.099 1582.74 281.353 1581 275.303C1580.31 272.815 1579.33 268.937 1576.59 262.757C1575.73 260.792 1573.62 256.599 1571.08 252.768C1566.09 245.789 1568.81 249.053 1572.73 255.299C1576.7 261.544 1580.19 271.495 1581.09 275.279C1581.31 276.064 1581.46 276.562 1581.49 276.669C1581.52 276.728 1581.36 276.218 1581.11 275.273C1580.2 271.659 1577.17 261.865 1571.69 253.53C1566.39 245.087 1559.04 238.611 1556.86 236.837C1556.51 236.549 1556.29 236.373 1556.21 236.308C1554.61 235.121 1555.26 235.561 1556.84 236.859C1561.12 239.934 1570.07 250.825 1567.49 247.812C1567.11 247.398 1563.45 242.464 1556.8 236.907C1543.46 225.841 1520.85 231.425 1506.23 230.036C1498.96 229.921 1493.31 231.654 1490.44 232.565C1475.68 237.956 1470.33 242.362 1470.03 242.049C1466.35 244.297 1463.02 246.063 1461.33 247.015C1458.14 248.822 1455.44 250.324 1453.09 251.602C1440.32 258.926 1438.14 260.566 1424.39 270.688C1420.83 273.378 1417.9 275.757 1416.66 276.726C1415.94 277.295 1417.24 276.174 1413.72 278.966C1411.77 280.508 1406 285.189 1399.76 290.471C1390.1 298.851 1381.07 309.986 1379.94 311.238C1378.09 313.315 1390.47 299.325 1388.32 301.88C1379.13 311.864 1371.03 321.936 1362.76 332.735C1359.37 337.201 1361.13 334.947 1359.67 336.885C1358.99 337.687 1347.51 353.381 1348.02 352.724C1348.6 350.782 1385.8 303.492 1375.98 315.931C1373.99 318.262 1367.35 326.76 1368.34 325.357C1356.1 340.944 1344.65 357.018 1333.54 373.411C1321.51 390.141 1316.6 411.211 1314.84 431.004C1313.06 445.126 1315.31 459.198 1318.53 472.637C1315.49 459.728 1313.07 445.518 1314.89 431.011C1316.62 412.496 1320.9 392.415 1331.43 376.741C1331.94 375.944 1332.68 374.79 1333.59 373.444C1336.98 368.423 1342.18 360.955 1341.39 362.16C1338.86 365.809 1336.29 369.538 1333.63 373.471C1321.75 389.696 1316.51 412.156 1314.92 431.015C1314.3 435.918 1314.2 440.696 1314.39 445.211C1314.43 446.071 1314.34 442.914 1314.49 446.132C1314.49 451.518 1317.14 467.293 1318.67 472.834C1318.84 473.556 1318.99 474.107 1319.08 474.468C1319.13 474.619 1318.94 473.896 1318.69 472.829C1318.04 470.116 1317.03 465.119 1317.56 467.489C1318.04 469.603 1318.45 471.31 1318.8 472.803C1319.92 477.309 1320.52 479.944 1322.84 485.16C1323.81 487.236 1327.21 494.48 1334.16 500.514C1342.01 507.976 1354.62 512.355 1362.15 513.104C1364.18 513.417 1365.88 513.625 1367.1 513.78C1371.04 514.239 1367.63 513.958 1362.14 513.171C1353.3 512.616 1340.49 505.761 1342.21 506.531C1348.26 510.208 1355.33 512.308 1362.13 513.246C1381.26 515.802 1400.22 516.689 1418.28 517.29C1418.71 517.302 1414.96 517.24 1420.43 517.404C1429.93 517.658 1432.42 517.591 1437.04 517.624C1439.72 517.641 1446.01 517.658 1451.64 517.592C1456.63 517.55 1461.09 517.067 1462.2 516.93C1462.5 516.905 1458.88 517.198 1458.33 517.22C1455.47 517.421 1453.3 517.482 1451.64 517.511C1448.79 517.557 1447.55 517.595 1447.1 517.598C1444.47 517.615 1441.89 517.582 1439.5 517.574C1435.54 517.557 1433.39 517.571 1428.17 517.486C1424.59 517.419 1428.05 517.431 1424.59 517.361C1423.32 517.364 1409.61 517.054 1408.34 516.836C1408.17 516.796 1427.89 517.752 1451.64 517.466C1477.17 517.718 1504.62 504.894 1518.11 497.425C1522.45 495.108 1525.77 493.732 1527.21 493.088C1524.1 494.456 1521.06 495.861 1518.12 497.449C1512.67 500.394 1507.1 503.207 1501.4 505.733C1506.98 503.259 1512.79 500.342 1518.13 497.47C1529.78 491.641 1540.77 487.308 1541.62 486.487C1545.31 484.633 1548.91 482.629 1552.44 480.492C1577.63 464.84 1604.03 451.624 1628.52 433.931C1641.65 423.068 1654.86 412.248 1667.32 400.477C1677.73 390.681 1687.5 380.188 1696.84 369.431C1701.6 363.973 1706.21 358.41 1710.83 352.882C1718.99 343.207 1714.49 348.053 1727.68 333.169C1727.91 332.924 1728.13 332.671 1728.37 332.412C1728.14 332.667 1727.92 332.921 1727.69 333.174C1724.28 336.997 1720.95 340.879 1717.64 344.803C1719.54 342.572 1723.19 338.282 1727.74 333.22C1737.99 321.767 1752.06 305.795 1758.94 298.441C1760.35 296.924 1761.46 295.729 1762.11 295.017C1762.75 294.233 1763.99 293.42 1771.65 284.013C1778.3 275.604 1779.22 274.065 1782.59 269.472C1785.42 265.572 1788.52 261.202 1789.35 260.009C1789.96 259.13 1790.18 258.753 1791.69 256.566C1796.41 249.702 1792.65 255.378 1797.22 248.459C1796.09 250.111 1794.93 251.789 1793.81 253.412C1799.45 245.207 1807.05 233.717 1798.76 245.976C1797.32 248.081 1798.58 246.301 1797.52 247.856C1754.48 308.21 1789.39 260.383 1803.68 238.696C1806.44 234.554 1818.53 216.205 1824.74 206.534C1826.85 203.265 1828.29 201.008 1828.45 200.745C1829.36 199.28 1825.89 204.646 1830.35 197.553C1831.49 196.179 1857.29 153.392 1847.94 168.763C1846.05 171.95 1833.62 192.43 1830.46 197.273C1837.72 185.776 1854.12 158.484 1856 155.459C1863.44 143.108 1841.58 179.12 1858.37 151.305C1859.07 150.154 1859.68 149.154 1860.25 148.225C1870.12 131.952 1859.52 149.61 1864.27 141.822C1867.29 137.338 1880.91 112.362 1880.31 112.876C1884.3 103.887 1881.89 109.116 1882.39 108.008C1882.54 107.631 1883.53 105.282 1884.66 102.045C1886.82 95.9164 1889.78 86.7422 1891.05 82.8829C1891.29 82.1692 1890.48 84.3936 1890.72 83.6548C1891.11 82.2411 1896.72 66.119 1897.57 64.4129C1897.59 64.3439 1897.61 64.2959 1897.62 64.2704C1897.66 64.192 1897.63 64.2602 1897.57 64.4155C1897.31 65.1121 1896.38 67.6187 1896.92 66.2498C1897.04 65.9516 1897.29 65.3096 1897.64 64.442C1899.55 59.6198 1904.44 47.7827 1904.77 47.0243C1905.3 45.7539 1897 65.9719 1898.45 62.6286C1902.18 53.2798 1908.6 38.1531 1911.12 31.9713C1910.5 33.488 1906.78 42.5416 1905.48 45.6754C1906.2 44.2537 1914.13 24.7692 1911.35 31.4055C1911.67 30.6395 1911.89 30.11 1912.05 29.7368L1912.11 29.5357C1912.61 27.8042 1912.18 29.4396 1912.77 27.4413C1912.93 26.7905 1914.81 20.6729 1915.26 19.5317C1915.28 19.3674 1913.31 25.6631 1913.74 24.4124C1914.11 23.2162 1915.87 17.5535 1918.07 12.4578C1920.26 7.69739 1921.42 2.67725 1921.58 1.94946C1922.42 -1.76733 1920.19 8.2818 1918 12.4265C1917.59 13.3784 1917.3 14.0787 1917.2 14.3054C1917.18 14.349 1917.48 13.5778 1917.97 12.4122C1919.67 8.96832 1921.65 1.22778 1921.59 1.09985C1921.78 0.455688 1919.44 9.41357 1917.85 12.3622C1917.47 13.2453 1917.28 13.687 1917.42 13.3205C1917.55 12.9962 1917.68 12.6726 1917.82 12.3495C1919.19 9.2298 1920.37 5.8172 1921.15 2.44788C1920.44 5.38275 1919.29 8.90131 1917.76 12.3235C1915.46 17.6462 1913.47 23.7507 1911.94 29.489L1911.88 29.6697C1908.63 37.7529 1905.66 44.7978 1904.39 47.7868C1906.95 41.6317 1909.55 35.3801 1911.84 29.653L1911.9 29.4774C1913.78 22.3616 1915.96 16.2839 1917.66 12.2803C1919.14 8.85223 1919.77 6.59821 1919.72 6.61273C1919.7 6.60797 1918.55 9.84863 1917.47 12.1985C1916.78 13.7738 1916.26 15.0739 1916.31 14.9381C1916.42 14.6033 1916.83 13.5447 1917.41 12.1751C1919.29 8.31555 1921.11 1.21509 1921.12 0.883423C1921.2 0.500122 1921.24 0.317383 1921.23 0.317017C1921.23 0.317017 1921.23 0.317017 1921.23 0.317017C1921.22 0.282227 1919.79 7.10638 1917.38 12.1597C1915.98 15.4025 1914.98 18.2593 1914.85 18.5925C1914.27 20.0063 1917 12.4083 1917.03 12.4349C1916.76 12.6234 1912.46 24.8295 1913.85 20.6896C1914.49 18.6507 1915.75 15.1087 1917.07 12.029C1918.54 8.72131 1919.48 5.62183 1919.53 5.42615C1919.79 4.43573 1918.81 8.06342 1917.03 12.0096C1915 16.6409 1913.18 22.3455 1913.08 22.6496C1912.88 22.9114 1916.42 12.8611 1916.65 12.6152C1916.68 12.3414 1913.72 19.8818 1912.8 22.9509C1912.04 25.2114 1914.14 18.5933 1913.77 19.7565C1913.63 20.155 1912.14 24.58 1910.92 29.2145L1910.9 29.2755C1909.01 33.9875 1907.02 38.7982 1906.83 39.238C1906.3 40.5119 1907.94 36.4083 1907.68 36.9991C1907.33 37.8387 1905.01 43.4754 1905.3 42.7364C1905.42 42.4224 1908.32 35.3406 1910.72 29.2043L1910.73 29.165C1912 24.2349 1913.4 20.0079 1913.36 20.0659C1913.27 20.1713 1911.48 25.8043 1910.63 29.137L1910.62 29.1641C1909.64 31.5826 1909.19 32.6819 1910.55 29.138L1910.56 29.1188C1910.94 27.6046 1911.54 25.2691 1912.57 21.9162C1912.59 21.7509 1914.45 16.4055 1914.54 16.2687C1915.67 13.119 1909.8 28.5333 1916.25 11.6785C1916.57 10.934 1916.91 10.1268 1917.27 9.24121C1916.93 10.0939 1916.58 10.902 1916.25 11.6768L1910.37 29.0653C1910.3 29.0354 1910.28 29.0287 1910.18 28.9872L1912.98 19.657C1912.58 20.7383 1911.21 24.9255 1910.12 29.0016L1910.13 28.9697C1908.48 33.0759 1906.86 36.9778 1906.84 37.0126C1907.38 35.5527 1909.35 30.8457 1909.96 29.2247C1910.33 28.3419 1904.85 41.577 1906.03 38.5781C1906.38 37.7208 1908.31 33.0317 1909.96 28.9L1909.94 28.9531C1910.87 25.4744 1911.83 22.4244 1911.91 22.1565C1913.75 16.402 1911.41 23.4317 1911.81 22.1643C1911.97 21.2908 1915.14 12.6239 1915.31 12.4324C1915.31 12.0172 1911 23.7869 1910.43 26.3391C1909.85 28.2351 1911.93 21.0906 1911.54 22.4166C1910.95 24.2498 1910.27 26.5778 1909.66 28.8772L1909.69 28.791C1906.74 36.1154 1903.95 42.991 1908.77 30.8354C1908.89 30.53 1909.21 29.7236 1909.6 28.7562L1909.57 28.853C1910.14 26.67 1911.02 23.7357 1911.06 23.612C1911.81 21.0886 1910.5 25.1431 1909.5 28.8362L1909.54 28.7322C1908.8 30.565 1908.09 32.2864 1907.8 32.9519C1906.94 34.9561 1908.92 30.094 1909.46 28.7013L1909.42 28.8147C1909.54 28.3702 1909.57 28.2661 1909.42 28.8127L1909.45 28.6984C1909.2 29.3163 1908.6 30.7997 1907.44 33.6357C1908.15 31.8655 1908.8 30.2344 1909.42 28.6828L1909.38 28.8019C1911 22.7764 1912.48 17.9269 1915.29 11.2667C1915.93 9.76825 1916.59 8.20251 1917.18 6.44989C1916.61 8.13416 1915.95 9.71405 1915.28 11.2659C1912.27 18.3174 1910.52 24.3868 1909.31 28.7836L1909.35 28.6566C1905.43 38.2083 1904.82 39.5453 1909.22 28.6043L1909.17 28.7472C1910.15 25.1284 1911.51 20.2147 1913.91 14.0805C1909.67 25.6155 1910.36 24.4024 1909.29 27.8958C1909.24 28.0759 1909.16 28.3577 1909.06 28.7182L1909.12 28.5627C1907.61 32.4045 1902.23 45.573 1904.87 38.6446C1905.24 37.7004 1909.3 27.8107 1907.98 30.8912C1898.26 54.6412 1907.77 31.387 1907.75 31.3545C1907.67 31.5078 1901.2 46.8354 1894.61 63.2336C1888.51 78.916 1883.63 95.7102 1881.76 100.589C1881.71 100.721 1881.67 100.853 1881.62 100.984C1877.59 112.459 1871.93 121.796 1870.69 124.153C1866.32 131.914 1870 125.503 1869.04 127.246C1868.38 128.522 1861.75 139.711 1857.5 146.544C1855.74 149.41 1854.43 151.544 1854.24 151.861C1851.7 156.096 1854.36 151.837 1854.09 152.281C1850.93 157.526 1833.39 186.838 1828.19 194.844C1828.33 194.601 1838.44 178.279 1832.07 188.432C1824.62 200.205 1824.28 200.951 1824.1 201.264C1823.36 202.42 1822.64 203.537 1821.89 204.699C1801.23 236.004 1781.59 268.531 1756.3 296.002C1745.7 307.461 1735.45 319.224 1725.05 330.792C1718.68 337.842 1712.58 345.103 1706.52 352.368C1706.8 351.978 1716.65 339.979 1725.02 330.76C1730.42 324.768 1734.9 319.699 1735.15 319.419C1736.39 317.978 1731.83 323.134 1724.98 330.732C1715.38 341.237 1702.45 357.358 1694.03 366.975C1690.56 370.953 1687.93 373.903 1686.82 375.144C1689.24 372.441 1691.63 369.708 1694.01 366.963C1695.94 364.748 1697.84 362.506 1699.73 360.254C1698.17 362.066 1696.21 364.355 1693.96 366.917C1685.9 376.245 1674.03 389.088 1664.71 397.718C1664.49 397.926 1664.27 398.132 1664.05 398.336C1661.97 400.27 1663.18 399.126 1664.68 397.688C1665.95 396.473 1667.41 395.047 1667.35 395.111C1666.51 395.905 1665.58 396.782 1664.65 397.659C1660.85 401.241 1657.14 404.607 1661.37 400.815C1650.7 410.416 1652.25 409.009 1643.86 416.193C1643.42 416.562 1647.03 413.468 1640.33 419.089C1638.46 420.66 1631.69 426.287 1626.04 430.924C1622.37 433.897 1618.76 436.171 1617.79 436.814C1616.93 437.387 1623.77 432.677 1625.97 430.835C1626.3 430.569 1626.56 430.376 1626.7 430.282C1644.98 415.063 1632.6 425.497 1639.7 419.581C1640.74 418.633 1638.39 420.844 1655.89 405.61C1652.59 408.526 1632.16 425.825 1628.57 428.698C1621.25 434.714 1651.29 409.792 1656.52 404.971C1653.99 407.045 1658.46 403.325 1664.56 397.563C1664.68 397.451 1664.8 397.339 1664.92 397.227C1671.76 390.655 1668.75 393.492 1672.4 389.887C1682.21 379.873 1678.24 384.112 1686.02 375.547C1681.53 380.667 1687.37 374.344 1693.85 366.821C1698.11 361.903 1702.6 356.418 1704.9 353.634C1701.21 358.043 1697.53 362.441 1693.76 366.744C1687.81 373.557 1681.78 380.261 1675.47 386.696C1676.05 386.084 1676.63 385.472 1677.2 384.857C1674.52 387.651 1671.78 390.403 1669 393.114C1669.46 392.686 1669.91 392.262 1670.36 391.833C1668.17 393.971 1666.22 395.83 1664.48 397.476C1654.78 406.519 1651.87 408.884 1650.85 409.819C1643.08 416.576 1634.53 423.663 1625.91 430.766C1617.06 437.716 1606.72 443.536 1597.43 449.122C1594.68 450.74 1596.55 449.575 1576.42 461.426C1570.01 465.214 1576.09 461.704 1568.81 465.981C1559.63 471.224 1559.88 471.242 1557.18 472.858C1554.52 474.447 1552.22 475.829 1550.31 476.981C1546.71 479.144 1544.48 480.311 1544 480.573C1536.63 484.816 1525.74 488.7 1516.13 493.75C1513.44 495.196 1510.82 496.554 1508.37 497.774C1508.16 497.877 1513.79 495.011 1506.75 498.535C1504.36 499.7 1481.86 511.27 1460.25 512.918C1465.81 512.367 1471.32 511.363 1476.74 509.979C1473.76 510.805 1462.1 513.371 1451.59 513.327C1439.63 513.438 1429.39 513.211 1435.45 513.261C1439.22 513.281 1445.92 513.327 1451.59 513.275C1456.38 513.243 1460.4 512.804 1461.24 512.655C1459.18 512.878 1455.84 513.185 1451.59 513.232C1429.37 513.741 1382.54 511.924 1362.81 508.888C1358.1 508.2 1355.1 507.326 1354.07 507.015C1353.2 506.812 1358.47 508.241 1357.29 507.928C1356.82 507.823 1351.95 506.738 1347.35 504.409C1342.72 502.174 1338.53 498.729 1337.6 497.911C1336.38 497.03 1342.99 502.167 1342.5 501.681C1342.33 501.569 1339.81 499.972 1336.91 497.398C1331.19 492.828 1326.47 483.38 1326.29 482.514C1327.9 488.397 1339.25 500.09 1333.47 493.855C1332.68 493.105 1329.33 488.546 1328.75 487.331C1325.55 480.689 1329.03 490.401 1336.98 497.319C1342.43 502.314 1349.4 505.483 1351.61 506.207C1346.76 504.416 1341.68 501.459 1337 497.299C1329.99 491.278 1325.2 481.939 1322.86 471.828C1319.51 458.182 1317.62 444.031 1319.18 432.003C1319.19 431.851 1319.21 431.706 1319.23 431.569C1319.67 427.92 1319.51 429.124 1319.19 431.563C1318.56 435.722 1318.42 443.743 1318.71 435.85C1318.81 434.245 1318.96 432.819 1319.11 431.554C1321.53 411.821 1319.52 428.856 1319.63 428.093C1320.01 421.367 1324.36 399.69 1325.11 399.896C1328.4 391.05 1326.87 393.698 1333.3 381.969C1332.41 383.506 1331.57 385.035 1330.77 386.606C1332.39 383.53 1334.59 379.77 1337.21 375.899C1345.85 363.025 1356.52 348.049 1355.42 349.558C1351.56 354.695 1342.05 368.461 1341.29 369.615C1340.68 370.498 1339.58 372.019 1337.01 375.761C1334.5 379.531 1330.36 385.474 1326.26 396.181C1324.64 400.516 1327.46 391.987 1331.13 385.335C1334.77 378.695 1338.24 373.545 1332.76 382.292C1333.7 380.674 1335.09 378.379 1336.91 375.695C1348.47 358.025 1375.15 322.529 1380.16 317.238C1380.83 316.506 1377.83 320.021 1387.16 309.182C1391.64 304.044 1380.81 316.407 1382.86 314.038C1384.52 312.233 1391.29 303.442 1402.37 293.578C1416.24 282.001 1434.91 266.306 1455.01 255.131C1474.02 244.616 1492.16 233.151 1506.16 234.145C1512.38 234.25 1517.28 234.25 1520.46 234.254C1522.05 234.255 1521.5 234.216 1523.06 234.217C1527.79 234.454 1546.27 233.174 1552.5 238.772C1549.11 236.538 1547.87 236.455 1548.55 236.655C1549.19 236.932 1551.53 237.898 1554.13 240.103C1560.02 244.747 1567 253.563 1569.12 257.488C1575.47 269.037 1574.51 268.633 1576.42 274C1576.65 274.767 1576.88 275.552 1577.09 276.351C1585.67 297.707 1590.96 329.763 1590.62 346.748C1590.58 346.53 1590.61 348.293 1590.63 351.457C1590.64 360.662 1591.11 380.684 1591.24 391.274C1591.41 402.384 1591 418.484 1591.13 403.503C1591.2 422.676 1589.36 442.7 1586.27 460.419C1585.76 463.355 1586.51 459.323 1585.63 464.309C1585.55 464.774 1585.41 465.37 1584.61 469.665C1583.12 477.506 1582.02 482.63 1581.27 486.197C1578.61 498.492 1580.69 489.243 1579.58 494.373C1578.77 498.044 1578.13 500.743 1577.64 502.719C1578.97 497.352 1580.21 491.721 1581.39 486.223C1584.7 470.958 1587.04 456.827 1587.7 452.138C1587.32 455.46 1584.66 471.523 1581.43 486.231C1579.39 495.835 1577.22 504.788 1575.96 509.329C1575.86 509.729 1576.29 508.351 1576.18 508.757C1576.17 508.765 1576.17 508.773 1576.17 508.782C1575.49 513.272 1565.54 539.949 1567.45 534.419C1568.02 532.939 1573.07 520.818 1576.89 505.718C1575.81 509.79 1576.55 506.733 1576.36 507.451C1574.34 516.25 1566.73 536.971 1563.3 544.043C1562.58 545.667 1562.59 545.544 1562.46 545.812C1559.49 552.301 1560.84 549.684 1557.55 556.243C1557.42 556.507 1557.31 556.749 1557.2 556.969C1555.95 559.59 1556.22 559.076 1557.25 556.994C1560.08 551.579 1567.33 534.916 1566.58 536.631C1566.35 537.243 1562.78 545.951 1557.32 557.027C1546.34 579.673 1529.13 612.553 1529.08 612.361C1528.96 612.602 1528.42 613.653 1527.35 615.694C1525 620.299 1513.84 640.511 1511.6 643.681C1511.23 644.259 1511.29 643.97 1510.86 644.643C1510.77 644.775 1510.6 645.029 1510.39 645.336C1508 648.531 1500.76 661.322 1495.2 671.069C1493.18 674.545 1491.36 677.654 1490.05 679.852C1491.76 676.923 1493.46 673.985 1495.16 671.044C1496.3 669.07 1497.43 667.081 1498.55 665.086C1497.32 667.257 1496.19 669.237 1495.15 671.035C1481.7 694.046 1484.31 689.374 1489.69 680.258C1489.98 679.764 1490.26 679.283 1490.54 678.811C1492 676.302 1493.59 673.557 1495.07 670.991C1498.09 665.754 1500.6 661.213 1500.67 661.114C1500.74 660.938 1498.36 665.203 1495.03 670.965C1487.06 685.045 1472.82 707.619 1477.07 700.972C1478.05 699.756 1491.84 676.668 1485.06 688.127C1483.93 690.172 1474.75 704.781 1474.19 705.493C1471.12 710.739 1491 678.718 1488.56 682.61C1483.85 690.471 1477.78 700.527 1471.89 709.193C1469.21 713.138 1468.48 714.049 1468.14 714.534C1467.3 715.73 1466.67 716.611 1466.2 717.265C1463.85 720.6 1465.64 718.113 1464.23 720.151C1463.34 721.546 1453.45 735.673 1455.4 733.057C1417.82 775.42 1447.4 747.109 1466.18 717.251C1466.21 717.206 1466.24 717.162 1466.28 717.118C1466.24 717.162 1466.21 717.206 1466.18 717.25C1459.9 726.72 1447.46 743.964 1440.41 750.651C1437.99 753.15 1439.41 751.669 1435.24 755.806C1432.38 758.631 1425.71 764.986 1417.31 772.071C1400.58 786.297 1377.93 804.664 1370.03 810.947C1377.3 805.152 1375.25 806.874 1369.6 811.379C1363.98 815.859 1368.66 812.033 1367.55 812.901C1366.79 813.556 1354.89 822.834 1345.77 830.379C1341.27 834.322 1337.31 837.38 1335.8 838.475C1340.56 834.954 1343.68 832.174 1345.79 830.399C1349.91 826.991 1349.54 827.323 1345.82 830.437C1343.37 832.546 1339.63 835.845 1334.35 839.65C1336.84 837.874 1339.31 835.989 1341.68 834.043C1332.33 842.305 1309.4 855.713 1302.98 859.123C1301.98 859.672 1305.53 857.643 1304.97 857.954C1300.87 860.268 1289.26 866.522 1283.07 869.689C1280.98 870.769 1279.44 871.553 1279.23 871.658C1278.76 871.891 1281.45 870.495 1283.05 869.65C1284.25 869.018 1284.93 868.652 1283.64 869.311C1283.55 869.353 1283.35 869.46 1283.03 869.623C1280.99 870.688 1274.03 874.317 1267.17 877.757C1264.26 879.22 1265.99 878.296 1265.26 878.664C1259.1 881.73 1262.78 879.99 1251.51 885.582C1243.25 889.664 1237.08 892.617 1225.63 898.179C1263.12 879.784 1231.65 895.296 1215.85 902.781C1213.33 903.97 1215.47 902.902 1200.36 910.062C1232.59 894.983 1191.24 914.524 1182.7 918.339C1182.24 918.552 1182.1 918.679 1177.93 920.583C1177.57 920.743 1178.07 920.481 1174.18 922.24C1137.26 938.713 1160.87 928.194 1153.87 931.352C1150.89 932.709 1132.81 940.416 1127.91 942.406C1127.09 942.743 1127.15 942.744 1125.59 943.397C1124.99 943.648 1124.16 943.995 1122.96 944.487C1115.25 947.645 1108.29 950.357 1103.17 952.352C1102.57 952.579 1102.58 952.675 1092.84 956.377C1090.11 957.409 1087 958.554 1090.9 957.064C1099.48 953.786 1113.19 948.475 1125.58 943.357C1131.78 940.804 1137.65 938.313 1142.44 936.239C1150.71 932.631 1137.18 938.514 1125.55 943.293C1118.83 946.063 1112.75 948.49 1111.95 948.805C1111.15 949.126 1119.31 945.893 1111.04 949.206C1104 952.028 1090.98 956.956 1080.37 960.877C1079.55 961.19 1071.09 964.365 1071.49 964.219C1071.83 964.119 1084.91 959.338 1083.01 960.055C1082.79 960.145 1074.5 963.192 1073.41 963.597C1072.11 964.095 1068.58 965.608 1066.82 966.24C1062.24 967.881 1065.21 966.772 1062.26 967.82C1055.94 970.115 1033.88 977.608 1033.12 977.735C1036.77 976.529 1040.44 975.303 1044.07 974.073C1023.76 980.842 1032.4 977.893 1029.51 978.843C1026.41 979.835 1027.29 979.63 1020.43 981.84C1019.41 982.184 1005.43 986.595 996.994 989.201C993.148 990.396 990.437 991.236 990.607 991.173C993.334 990.33 995.365 989.698 996.991 989.192C1004.73 986.781 1000.77 987.956 1001.37 987.767C1004.16 986.891 1007.75 985.82 1011.5 984.637C1037.81 976.245 1011.25 984.64 1017.46 982.638C1019.58 981.957 1023.89 980.615 1024.77 980.328C1027.72 979.365 1027.73 979.304 1029.71 978.665C1034.29 977.177 1028.97 978.997 1029.33 978.883C1033.46 977.61 1049.42 972.191 1039.43 975.45C1045.4 973.42 1046.12 973.279 1050.85 971.621C1060.23 968.306 1046.15 973.187 1042.32 974.438C1028.57 978.974 1024.53 980.35 1004.98 986.48C1002.34 987.302 999.558 988.162 996.923 988.975C992.396 990.374 988.366 991.614 986.298 992.25C984.258 993.015 964.824 998.655 964.14 998.308C956.521 1000.13 944.337 1002.35 936.283 1003.6C935.448 1003.73 934.723 1003.84 934.102 1003.93C929.561 1004.61 931.24 1004.28 930.656 1004.36C929.633 1004.52 920.862 1005.85 917.899 1006.27C914.448 1006.77 916.154 1006.48 910.642 1007.27C896.919 1009.24 897.304 1009.27 895.888 1009.48C879.52 1011.89 886.677 1010.73 883.037 1011.24C879.661 1011.73 832.243 1018.41 822.26 1019.76C826.325 1019.21 830.38 1018.67 834.445 1018.12C827.211 1019.19 819.435 1020.18 819.35 1020.3C818.994 1020.31 817.772 1020.45 816.186 1020.66C811.114 1021.34 801.772 1022.71 798.375 1023.11C796.608 1023.33 796.735 1023.29 794.527 1023.54C785.901 1024.8 766.304 1025.23 761.533 1025.06C741.101 1024.99 793.365 1024.87 797.339 1023.03C789.275 1025.17 742.619 1024.75 764.069 1024.77C767.373 1024.78 773.263 1024.77 775.106 1024.71C787.623 1024.21 777.794 1024.56 778.758 1024.52C780.436 1024.48 788.662 1023.97 790.829 1023.7C791.554 1023.59 786.885 1024.14 798.797 1022.72C792.961 1024.11 759.395 1025.11 754.88 1024.65C753.291 1024.57 763.22 1024.81 734.23 1024.11C734.571 1024.11 734.91 1024.11 735.247 1024.11C734.528 1024.09 733.799 1024.06 733.06 1024.04C717.678 1023.55 702.173 1022.95 686.741 1022.33C688.515 1022.43 697.552 1022.85 686.136 1022.38C679.573 1022.11 684.432 1022.24 683.833 1022.21C677.917 1022.07 573.429 1017.35 553.18 1015.94C552.532 1015.9 551.781 1015.86 550.96 1015.81C542.818 1015.33 527.016 1014.22 525.69 1014.11C518.193 1013.62 494.584 1011.61 484.093 1010.02C482.302 1009.81 480.914 1009.67 480.035 1009.57C476.23 1009.14 479.842 1009.51 476.459 1009.11C473.318 1008.71 476.568 1009.18 475.633 1009.06C471.476 1008.69 452.653 1005.3 433.919 1001.21C417.837 997.756 401.79 994.131 395.378 992.71C400.906 993.952 420.934 998.485 433.902 1001.29C440.841 1002.8 445.725 1003.81 445.428 1003.76C445.26 1003.74 437.271 1002.11 433.885 1001.37C433.425 1001.27 433.048 1001.19 432.791 1001.13C429.266 1000.43 417.237 997.661 410.65 996.217C409.896 996.05 412.832 996.789 401.109 994.178C397.07 993.277 386.534 990.843 375.906 988.479C365.086 985.999 321.808 976.053 295.339 969.613C284.167 966.907 276.047 964.813 274.426 964.369C274.278 964.338 285.57 967.168 277.94 965.203C267.819 962.547 276.851 965.077 265.102 961.957C264.271 961.747 257.742 959.913 250.226 957.642C240.846 955.169 230.661 951.154 230.091 950.938C220.551 947.313 248.19 957.446 247.916 956.856C246.839 956.913 223.884 948.561 223.013 947.95C222.135 947.61 240.63 955.219 218.388 946.097C220.931 947.162 223.482 948.205 226.038 949.214C215.584 944.935 214.597 944.455 212.077 943.38C208.838 941.957 205.508 940.433 201.832 938.72C196.655 936.304 190.769 933.544 183.536 930.098C180.266 928.537 185.648 931.221 185.24 931.024C181.299 929.163 176.395 926.591 170.537 923.685C170.112 923.426 183.53 930.602 160.013 918.207C161.626 919.068 163.239 919.919 164.867 920.769C161.951 919.305 143.778 909.218 137.247 905.084C136.258 904.48 135.519 904.027 135.117 903.78C126.121 898.21 133.902 903.171 124.919 897.477C130.646 901.174 103.666 883.37 105.258 884.336C101.951 881.999 83.5093 868.824 73.3232 859.488C72.1397 858.431 71.0924 857.498 70.1015 856.617C63.9895 851.151 51.4366 840.207 49.4533 838.502C47.062 836.437 47.7315 837.116 43.4227 833.39C42.2776 832.245 29.0567 821.433 19.2914 810.498C19.0482 810.223 18.7719 809.911 18.4846 809.582C16.4594 807.267 13.8368 804.344 16.8313 807.885C17.3042 808.444 17.8166 809.047 18.3615 809.688C24.334 816.887 35.4428 826.535 35.2282 826.452C35.0554 826.362 24.1462 816.725 18.3193 809.724C16.6573 807.78 15.315 806.21 14.4219 805.169C-4.49338 783.044 6.34018 795.868 5.84671 795.34C4.53636 793.916 -5.70734 781.722 -6.1068 781.203C-7.88265 779.106 -0.727238 787.785 -0.622875 787.945C-0.557167 788.135 -10.3894 776.397 -8.1742 779.09C-5.04245 782.984 4.092 793.698 4.67055 794.372C12.1831 803.28 1.73739 791.174 -1.09464 787.863C-1.96304 786.856 1.4234 790.923 0.714302 790.087C-10.1725 777.2 -1.48462 787.271 -8.62405 778.657C-14.9525 770.901 -6.8877 780.931 -7.11802 780.628C-7.44493 780.277 -14.988 770.973 -16.1128 769.503C-16.8392 768.911 2.82307 792.935 2.015 791.934C-4.37166 784.346 -10.7248 776.739 -16.7939 768.907C-17.3789 768.369 -8.43166 779.462 -7.46106 780.581C-5.57857 782.897 -10.8828 776.504 -10.6594 776.802C-10.57 776.954 -4.44178 784.512 -10.0269 777.735C-11.9151 775.384 -15.9595 770.524 -22.4907 761.691C0.795864 791.967 -15.4461 771.085 -16.2214 770.24C-16.9205 769.397 -5.70962 783.782 -19.3404 766.328C-20.0305 765.659 -19.132 766.754 -15.2544 771.732C-10.4237 777.76 -21.7995 764.012 -3.85406 785.782C-5.01919 784.635 -19.2643 767.014 -19.8657 765.962C-20.4974 765.144 -17.4706 769.174 -18.5732 767.75C-31.2886 750.728 -22.5983 762.441 -26.2472 757.487C-26.7367 757.158 -37.2368 740.015 -29.2414 753.061C-13.6445 776.187 -5.08035 784.324 -2.45925 788.217C-16.0348 772.673 -30.5673 752.251 -33.2957 746.561C-33.4549 746.284 -33.6026 746.025 -33.7398 745.784C-37.1835 739.78 -34.2858 744.879 -33.7815 745.807C-33.6985 745.959 -33.6785 745.999 -33.7595 745.86C-33.7656 745.849 -33.7751 745.833 -33.7877 745.811C-34.1865 745.079 -38.1109 738.346 -38.1796 738.262C-39.3146 736.486 -37.1989 739.994 -33.8581 745.851C-28.0927 756.611 -15.2006 772.93 -9.67529 779.587C-11.979 776.814 -14.2659 774.019 -16.5131 771.195C-13.4945 775.045 -10.3914 778.858 -7.29006 782.609C-22.0409 764.569 -7.88567 782.032 -4.21394 786.554C-3.4184 787.56 -13.1744 775.771 -2.04429 789.242C-10.3112 779.365 -7.7431 782.562 -15.0283 773.451C-14.985 773.792 1.73283 794.059 8.48036 801.899C-15.126 773.94 -1.88318 790.09 -21.4984 765.255C-24.9757 760.514 -15.8704 772.595 -16.5753 771.568C-19.2335 768.055 -25.8164 759.991 -32.1429 749.173C-33.0825 747.535 -29.3403 753.779 -33.9459 745.901C-34.2936 745.288 -34.6941 744.586 -35.1517 743.793C-35.8392 742.565 -40.0198 735.621 -39.9744 735.724C-39.4523 736.665 -35.3735 743.569 -35.2392 743.874C-35.0845 744.144 -39.6064 736.423 -39.6397 736.407C-39.8231 736.197 -35.8619 742.845 -36.4524 741.889C-37.6636 739.846 -53.5402 713.418 -34.2113 746.051C-33.7875 746.796 -33.3417 747.566 -32.8702 748.364C-33.3449 747.555 -33.7883 746.784 -34.2047 746.048C-45.7414 726.254 -40.3166 735.357 -34.1621 746.023C-32.121 749.635 -29.813 753.324 -27.9685 756.094C-26.0306 758.981 -25.5714 759.736 -22.667 763.747C-18.9206 768.895 -14.2484 774.696 -12.1791 777.256C-9.93148 779.985 -22.7702 764.515 -4.26742 786.957C-12.8462 776.847 -27.0965 759.351 -34.3196 746.113C-35.1603 744.64 -35.9644 743.257 -36.7152 741.98C-45.4847 727.369 -40.4554 735.682 -34.4441 746.184C-30.1849 753.848 -24.3303 761.975 -23.0363 763.722C-22.225 764.843 -24.9936 761.115 -24.4508 761.864C-23.8199 763.283 -6.11265 785.367 -4.25183 787.424C-2.4991 789.599 -10.8728 779.465 -11.4355 778.797C-11.906 778.449 10.0133 804.541 -1.9039 790.436C-10.2057 780.821 -24.6168 762.257 -26.7621 758.895C-16.0009 774.315 -3.64956 788.4 8.41071 802.677C1.74091 794.923 -4.92851 787.15 -11.4493 779.237C-1.90073 790.921 6.96536 801.174 15.9724 811.733C19.5518 815.92 23.4642 819.849 27.5712 823.729C20.7536 817.381 17.3506 813.457 15.8966 811.798C14.6476 810.361 14.8143 810.572 15.871 811.819C19.6007 817.021 39.2307 834.494 39.5996 834.714C39.7515 834.928 25.545 822.443 23.4499 820.171C35.4453 832.074 74.093 864.791 51.5238 845.556C55.6191 849.046 65.3574 857.719 65.2151 857.617C63.9784 856.535 42.5219 837.844 45.9919 840.944C50.0013 844.51 55.7659 849.368 61.9621 854.832C65.2578 857.739 68.0977 860.274 70.6012 862.528C92.9672 881.371 88.4902 878.412 120.336 899.689C119.615 899.239 118.895 898.787 118.176 898.333C123.711 901.931 129.3 905.442 134.933 908.876C155.853 921.626 177.749 932.657 199.905 942.88C213.896 949.309 228.008 955.491 242.833 960.142C244.61 960.705 246.704 961.334 249.061 961.978C260.139 965.511 277.566 970.039 294.252 974.092C307.711 977.373 320.817 980.469 330.079 982.638C334.704 983.73 357.533 988.975 359.255 989.355C362.449 990.075 344.919 986.013 352.85 987.813C354.517 988.217 393.158 997.026 390.388 996.436C386.053 995.467 372.508 992.347 370.289 991.85C361.049 989.766 399.067 998.619 432.917 1005.89C456.212 1011.05 477.931 1014.43 480.432 1014.43C477.738 1014.16 475.005 1013.86 472.294 1013.49C476.048 1014.04 479.864 1014.4 483.523 1014.82C487.384 1015.29 491.346 1015.83 495.304 1016.27ZM157.504 916.577C153.481 914.338 143.427 908.67 137.633 905.08C137.541 905.023 137.448 904.966 137.354 904.908C129.255 899.995 116.33 891.284 121.928 895.191C127.024 898.499 132.169 901.737 137.353 904.91C143.972 908.96 150.698 912.839 157.504 916.577ZM348.139 981.912C339.06 979.833 346.064 981.596 353.519 983.268C354.35 983.454 360.434 984.719 348.139 981.912ZM253.485 958.457C253.87 958.599 261.523 960.844 261.801 960.895C268.726 962.867 245.524 956.05 253.485 958.457ZM718.518 1023.65C708.25 1023.27 715.712 1023.43 722.085 1023.7C722.495 1023.72 719.196 1023.67 718.518 1023.65ZM711.239 1023.39C703.257 1023.2 687.226 1022.36 699.984 1022.88C701.194 1022.93 711.607 1023.4 711.239 1023.39ZM315.791 974.377C316.823 974.664 326.167 976.852 330.16 977.778C330.056 977.718 319.708 975.313 315.791 974.377ZM554.996 1016.1C555.092 1016.11 553.45 1016.02 550.956 1015.88C542.051 1015.39 521.632 1013.96 519.832 1013.76C523.905 1014.12 542.564 1015.37 550.957 1015.85C553.317 1015.99 554.912 1016.09 554.996 1016.1ZM640.545 1020.45C639.697 1020.42 628.175 1019.88 628.507 1019.87C634.135 1020.1 644.355 1020.6 640.545 1020.45ZM810.135 1021.2C810.669 1021.13 804.216 1022.17 816.156 1020.45C817.832 1020.21 819.933 1019.9 822.492 1019.53C825.006 1019.16 817.765 1020.14 816.143 1020.36C815.832 1020.4 815.714 1020.41 815.88 1020.39C815.968 1020.38 816.055 1020.36 816.142 1020.35C818.198 1020.05 819.897 1019.81 821.246 1019.62C819.541 1019.85 817.782 1020.1 816.138 1020.33C808.546 1021.39 801.819 1022.31 801.067 1022.41C796.61 1023.05 809.874 1021.25 810.135 1021.2ZM898.687 1008.87C900.642 1008.62 913.058 1006.8 915.88 1006.37C916.368 1006.29 914.231 1006.54 919.828 1005.71C924.293 1005.05 917.63 1006.13 926.361 1004.8C935.184 1003.45 923.385 1005.19 924.147 1005.06C924.79 1004.96 930.088 1004.18 934.044 1003.56C936.614 1003.16 938.563 1002.84 938.401 1002.85C938.283 1002.86 936.525 1003.13 934.038 1003.52C929.371 1004.24 922.224 1005.33 919.849 1005.67C915.192 1006.35 920.83 1005.47 913.079 1006.62C908.2 1007.34 910.919 1007.04 909.894 1007.2C909.024 1007.34 892.013 1009.73 898.713 1008.87C898.704 1008.87 898.695 1008.87 898.687 1008.87ZM823.801 1019.26C823.084 1019.36 822.282 1019.47 821.246 1019.62C822.125 1019.5 822.953 1019.38 823.801 1019.26ZM181.296 928.974C185.635 931.087 172.804 924.71 167.992 922.195C167.878 922.211 180.587 928.67 181.296 928.974ZM832.584 1018.12C846.608 1016.14 836.305 1017.54 823.801 1019.26C827.777 1018.73 827.857 1018.78 832.584 1018.12ZM432.791 1001.13C433.371 1001.25 433.734 1001.31 433.783 1001.3C432.273 1001 432.122 1000.98 432.791 1001.13ZM465.114 1007.55C476.194 1009.52 453.682 1005.58 453.803 1005.46C453.894 1005.48 464.675 1007.51 465.114 1007.55ZM731.691 1024.09C731.448 1024.08 732.158 1024.12 733.057 1024.16C735.309 1024.26 738.7 1024.42 733.055 1024.22C731.134 1024.16 728.038 1024.05 723.369 1023.86C735.81 1024.26 722.704 1023.8 722.886 1023.79C723.081 1023.78 727.759 1023.94 733.058 1024.11C739.276 1024.31 746.501 1024.51 748.946 1024.55C752.224 1024.7 738.344 1024.31 733.057 1024.13C732.504 1024.11 732.045 1024.1 731.717 1024.09C731.708 1024.09 731.7 1024.09 731.691 1024.09ZM1054.2 970.027C1051.48 970.926 1043.01 973.832 1037.23 975.75C1039.92 974.907 1048.46 972.021 1054.2 970.027ZM1499.82 501.746C1480.94 510.059 1469.28 511.399 1467.61 511.827C1465.82 511.937 1474.05 511.758 1491.69 505.171C1492.41 504.99 1502.13 500.79 1499.82 501.746ZM1369.14 331.534C1371.47 328.391 1363.51 338.602 1358.52 345.506C1357.38 347.054 1353.26 352.852 1358.05 346.313C1357.84 346.417 1365.25 336.348 1369.14 331.534ZM840.518 1017.06C844.609 1016.54 857.192 1014.75 863.814 1013.81C859.767 1014.33 846.379 1016.23 840.518 1017.06ZM1365.93 509.414C1364.73 509.264 1363.68 509.114 1362.79 508.971C1360.35 508.579 1359.04 508.265 1359.56 508.364C1360.41 508.52 1361.6 508.718 1362.8 508.906C1366.08 509.407 1369.56 509.817 1365.93 509.414ZM799.936 1022.71C799.441 1022.82 812.269 1021.09 816.16 1020.48C816.664 1020.4 817.015 1020.35 817.15 1020.32C816.872 1020.36 816.537 1020.41 816.157 1020.46C811.558 1021.12 800.316 1022.66 799.936 1022.71ZM1043.36 973.752C1040.89 974.608 1053.7 970.297 1057.55 968.92C1057.22 969.014 1045 973.204 1043.36 973.752ZM1321.38 465.538C1320.48 461.742 1319.09 452.171 1319.1 451.1C1318.84 449.787 1320.87 463.813 1321.38 465.538ZM1862.07 138.409C1862.21 138.165 1859.91 141.935 1857.18 146.35C1854.92 150.016 1852.43 154.101 1850.86 156.737C1846.58 163.914 1852.45 154.161 1857.23 146.377C1859.8 142.191 1861.98 138.561 1862.07 138.409ZM1407.19 512.617C1419.57 513.055 1405.82 512.568 1406.37 512.509C1414.68 512.948 1435.39 513.351 1421.15 513.1C1418.38 513.047 1411.06 512.792 1407.19 512.617ZM1395.8 512.05C1394.47 511.958 1385.6 511.294 1393.28 511.806C1396.84 512.036 1402.55 512.428 1395.8 512.05ZM1812.43 218.495C1809.33 223.281 1815.14 214.463 1821.57 204.49C1827.73 194.971 1834.29 184.321 1834.66 183.702C1835.05 183.045 1835.32 182.608 1835.46 182.36C1836.46 180.784 1841.44 172.566 1841.97 171.583C1840.49 174.059 1836.41 180.778 1835.93 181.557C1835.73 181.893 1835.58 182.144 1835.47 182.318C1834.44 183.968 1827.62 195.034 1821.52 204.458C1816.92 211.601 1812.98 217.647 1812.43 218.495ZM1763.83 287.109C1771.99 277.505 1773.02 275.468 1772.4 276.363C1763.87 287.146 1769.51 280.138 1769.25 280.5C1768.69 281.298 1762.41 288.733 1763.85 287.08C1763.84 287.09 1763.84 287.1 1763.83 287.109ZM1802.95 232.917C1803.22 232.535 1809.1 223.633 1809.36 223.225C1814.16 215.875 1797.47 241.101 1802.95 232.917ZM965.011 998.087C972.358 996.277 965.148 998.059 960.228 999.094C959.821 999.167 958.499 999.575 965.011 998.087ZM1389.72 511.644C1388.76 511.562 1374.58 510.727 1362.78 509.041C1353.1 507.865 1346.02 503.779 1347.07 504.312C1348.21 504.94 1354.55 507.948 1362.79 508.987C1377.78 511.09 1396.84 512.013 1389.72 511.644ZM1436.41 267.22C1429.95 271.842 1437.02 266.826 1440.51 264.447C1441.8 263.558 1438.04 266.057 1436.41 267.22ZM777.562 1024.75C769.336 1024.95 771.031 1025.07 778.168 1024.78C778.445 1024.76 777.885 1024.74 777.562 1024.75ZM1388.27 308.254C1407.34 288.776 1401.68 292.133 1378.61 319.362C1379.31 318.526 1380.06 317.648 1380.78 316.807C1355.04 349.005 1378.75 318.754 1385.51 311.307C1388.04 308.42 1385.93 310.883 1388.25 308.274C1388.26 308.267 1388.26 308.261 1388.27 308.254ZM1472.29 245.772C1488.68 236.876 1471.25 246.112 1455.09 255.288C1448.57 258.837 1442.56 262.873 1439.1 265.237C1445.31 260.959 1452.83 256.527 1455.13 255.356C1456 254.89 1456.12 254.835 1455.14 255.375C1453.9 256.069 1450.81 257.739 1445.37 261.244C1449.23 258.771 1452.48 256.872 1455.16 255.417C1473.88 244.998 1463.83 250.501 1464.95 249.886C1466.45 249.027 1471.31 246.317 1472.29 245.772ZM1414.24 284.102C1413.2 284.921 1406.4 290.544 1402.56 293.801C1402.01 294.269 1401.48 294.731 1401.08 295.089C1401.48 294.74 1402.01 294.282 1402.57 293.812C1408.35 288.916 1421.43 278.352 1414.24 284.102ZM1705.15 353.391C1705.81 352.688 1707.33 350.876 1713.22 343.872C1711.37 346.012 1707.61 350.477 1705.15 353.391ZM149.745 912.54C145.924 910.386 139.535 906.606 137.204 905.154C136.202 904.536 135.935 904.362 136.922 904.947C136.951 904.964 137.054 905.027 137.22 905.128C139.132 906.346 149.724 912.535 149.745 912.54ZM1319.31 429.504C1319.43 428.837 1320.33 419.897 1321.67 412.836C1323.01 405.764 1324.75 400.497 1323.19 406.134C1322.09 408.722 1319.37 428.727 1319.08 431.549C1319.03 431.926 1319.02 431.959 1319.06 431.548C1319.11 431.197 1319.19 430.533 1319.31 429.504ZM1436.91 513.416C1434.02 513.42 1422.31 513.19 1422.05 513.153C1421.27 513.12 1435.65 513.402 1436.91 513.416ZM122.735 896.14C121.997 895.759 106.103 885.1 107.885 886.222C111.158 888.505 125.105 897.685 122.735 896.14ZM991.621 990.591C993.151 990.114 995.169 989.428 995.69 989.265C995.82 989.224 996.241 989.093 996.896 988.888C1002.36 987.207 1023.85 980.42 1014.24 983.397C1013.48 983.636 1005.83 986.051 996.882 988.843C984.611 992.764 969.943 997.073 966.863 997.683C964.865 998.383 982.104 993.605 986.29 992.179C987.019 991.954 987.513 991.868 991.609 990.594C991.613 990.593 991.617 990.592 991.621 990.591ZM1736.44 317.504C1737.09 316.825 1749.33 303.084 1756.09 295.801C1758.66 293.026 1760.32 291.174 1760.24 291.238C1758.87 292.759 1757.47 294.26 1756.06 295.779C1749.43 302.951 1742.92 310.22 1736.44 317.504ZM1724.78 330.59C1722.97 332.624 1723.39 332.166 1724.82 330.584C1727.27 327.898 1732.64 321.858 1734.76 319.448C1734.78 319.39 1725.67 329.625 1724.8 330.566C1724.79 330.575 1724.78 330.583 1724.78 330.59ZM1371.68 510.321C1368.23 509.963 1378.83 510.949 1376.46 510.698C1374.94 510.565 1367.25 509.8 1364.85 509.428C1364.16 509.359 1371.96 510.219 1374.23 510.414C1377.47 510.727 1374.3 510.481 1377.84 510.806C1389.5 511.838 1399.94 512.402 1410.92 512.843C1411.91 512.883 1404.23 512.611 1412.69 512.946C1413.99 512.992 1421.87 513.246 1432.02 513.386C1438.92 513.526 1445.28 513.547 1451.59 513.487C1465.48 513.262 1479.24 510.635 1497.23 503.142C1496.38 503.908 1476.45 510.693 1475.14 510.567C1468.62 512.13 1460.48 513.462 1451.6 513.55C1429.04 513.854 1402.26 512.893 1384.52 511.468C1378.15 510.959 1381.26 511.171 1378.51 510.936C1376.36 510.734 1378.91 511.067 1371.68 510.321ZM152.623 914.205C150.266 912.962 142.773 908.651 137.172 905.207C136.501 904.797 135.855 904.401 135.246 904.027C135.639 904.256 136.312 904.66 137.184 905.187C140.823 907.404 148.008 911.65 152.623 914.205ZM1615.01 438.602C1612.22 440.422 1603.31 445.84 1602.57 446.246C1601.62 446.817 1614.42 439.01 1615.01 438.602ZM1147.08 934.195C1147.38 934.074 1154.79 930.836 1155.07 930.708C1161.67 927.772 1139.44 937.471 1147.08 934.195ZM1320.41 848.7C1325.64 845.508 1330.69 842.106 1332.34 840.865C1329.22 843.162 1319.81 849.068 1320.41 848.7ZM1502.1 658.619C1501.69 659.469 1506.5 650.836 1510.31 645.279C1511.54 643.447 1512.53 641.769 1513 640.987C1512.78 641.325 1511.72 643.134 1510.28 645.258C1506.83 650.233 1502.4 658.052 1502.1 658.619ZM1704.46 354.548C1711.7 345.875 1710.24 347.763 1714.85 342.252C1715.62 341.359 1717.88 338.31 1709.92 347.874C1708.5 349.598 1714.14 342.921 1704.46 354.548ZM1374.94 323.884C1373.08 326.095 1367.6 333.1 1363.95 337.955C1364.76 336.906 1372.23 327.185 1374.94 323.884ZM94.2571 876.589C89.8094 873.698 71.1824 858.078 75.8431 861.881C76.3807 862.557 91.4143 874.667 94.2571 876.589ZM868.992 1013.28C878.971 1011.92 858.326 1014.85 851.789 1015.71C854.742 1015.3 868.323 1013.37 868.992 1013.28ZM1468.88 713.289C1469.19 712.919 1475.11 704.098 1475.33 703.677C1480.14 696.423 1463.36 721.347 1468.88 713.289ZM1264.59 878.957C1266.61 877.97 1275.3 873.586 1283.01 869.589C1288.44 866.787 1293.46 864.097 1295.47 862.993C1293.74 863.9 1288.59 866.638 1282.98 869.526C1273.17 874.589 1261.88 880.284 1264.59 878.957ZM1673.55 389.013C1679.2 383.329 1684.35 377.727 1689.23 372.199C1688.26 373.423 1674.23 388.491 1673.55 389.013ZM1489.69 680.258C1489.98 679.764 1490.26 679.283 1490.54 678.811C1490.25 679.304 1489.97 679.786 1489.69 680.258ZM1525.75 489.463C1519.54 492.238 1520.81 491.671 1521.19 491.467C1525.86 489.265 1532.77 486.415 1525.75 489.463ZM145.9 910.478C144.735 909.84 141.06 907.698 137.123 905.288C134.152 903.473 131.023 901.522 128.652 900.035C129.537 900.564 133.221 902.87 137.141 905.258C140.402 907.251 143.84 909.281 145.9 910.478ZM1497.82 235.024C1501.85 234.415 1495.57 234.823 1487.86 237.912C1480.14 240.908 1471.12 246.189 1467.95 247.959C1467.36 247.771 1496.24 233.524 1497.82 235.024ZM838.027 1017.7C837.382 1017.83 822.986 1019.79 826.048 1019.34C827.999 1019.05 838.423 1017.62 838.027 1017.7ZM1452.82 256.446C1450.01 257.975 1443.72 262.044 1445.96 260.654C1448.82 258.843 1453.54 256.03 1452.82 256.446ZM1330.15 490.116C1329.73 489.583 1327.11 485.405 1325.71 481.826C1324.26 478.279 1323.53 475.65 1324.77 479.264C1326.68 484.201 1327.18 484.884 1327.72 485.996C1327.83 486.923 1334.33 495.935 1336.8 497.529C1337.42 498.074 1337.52 498.172 1336.79 497.54C1335.9 496.713 1333.46 494.817 1330.15 490.116ZM1590.61 363.608C1590.58 359.83 1590.54 355.723 1590.52 351.458C1590.5 347.585 1590.41 343.811 1590.26 340.208C1590.31 341.678 1590.47 346.516 1590.49 351.458C1590.51 356.753 1590.58 361.977 1590.61 363.608ZM893.386 1009.92C891.661 1010.21 844.525 1016.85 871.295 1013.03C872.857 1012.81 898.632 1009.12 893.386 1009.92ZM1704.46 354.548C1703.55 355.64 1702.5 356.902 1701.28 358.362C1702.49 356.914 1703.54 355.649 1704.46 354.548ZM1611.24 441.106C1613.46 439.796 1602.34 446.608 1598.99 448.536C1597.96 449.125 1610.96 441.331 1611.24 441.106ZM1590.28 339.647C1590.13 335.353 1589.55 327.514 1588.88 322.264C1589.09 323.137 1590.28 337.764 1590.28 339.647ZM1519.88 629.28C1524.05 621.75 1529 612.412 1529.11 612.277C1529.19 612.118 1529.38 611.75 1529.7 611.133C1530.03 610.5 1534.33 602.366 1536.15 598.794C1547.73 577.84 1491.69 679.885 1524.52 620.948C1522.98 623.743 1521.44 626.516 1519.88 629.28ZM1233.98 894.207C1229.61 896.396 1217.24 902.277 1220.44 900.721C1222.68 899.652 1238.36 892.03 1233.98 894.207ZM1391.57 793.711C1390.45 794.654 1380.05 803.054 1379.76 803.242C1385.73 798.41 1396.68 789.478 1391.57 793.711ZM1200.1 910.458C1197.33 911.765 1193.75 913.354 1194.08 913.197C1196.89 911.862 1204.75 908.235 1200.1 910.458ZM1689.4 372.386C1686.44 375.853 1676.5 386.403 1674.2 388.56C1673.79 388.982 1672.69 390.122 1670.63 392.167C1670.64 392.161 1670.65 392.154 1670.65 392.148C1670.24 392.557 1668.08 394.7 1664.8 397.812C1655.7 406.615 1637 422.222 1626.18 431.094C1616.94 437.977 1613.32 440.423 1626.15 431.06C1629.34 428.427 1633.54 424.953 1638.92 420.449C1640.81 418.854 1638.27 421.078 1645.92 414.582C1646.43 414.153 1646.66 413.912 1648.21 412.579C1650.4 410.704 1658.34 403.854 1664.75 397.756C1668.85 393.878 1672.37 390.363 1673.76 388.979C1673.78 388.945 1674.01 388.711 1674.49 388.213C1678.88 383.885 1691.76 369.763 1689.4 372.386ZM1411.97 776.821C1409.92 778.565 1403.39 783.987 1402.67 784.539C1405.92 781.842 1416.73 772.783 1411.97 776.821ZM891.941 1010.25C886.514 1011.06 872.754 1012.95 876.908 1012.34C879.456 1011.97 898.199 1009.33 891.941 1010.25ZM1345.72 830.584C1345.76 830.546 1345.81 830.509 1345.85 830.472C1370.18 810.794 1351.56 825.84 1355.36 822.835C1352.17 825.361 1348.98 827.848 1345.85 830.473C1345.81 830.51 1345.76 830.547 1345.72 830.584ZM1783.52 261.787C1780.59 265.903 1784.11 261.159 1787.22 256.623C1788.2 255.191 1785.11 259.552 1783.52 261.787ZM1893.57 65.6428C1893.05 67.0974 1893.65 65.4974 1894.56 63.2153C1896.18 59.1511 1898.71 52.899 1896.7 57.7328C1896.61 57.9564 1895.4 60.9537 1894.52 63.1967C1894.01 64.4915 1893.61 65.5388 1893.57 65.6428ZM1821.47 205.258C1819.55 208.137 1818.37 209.973 1813.16 217.983C1820.88 206.142 1813.8 217.138 1821.47 205.258ZM1529.08 612.361C1529.1 612.312 1529.12 612.27 1529.11 612.277C1529.09 612.332 1529.08 612.356 1529.08 612.361ZM1173.27 922.806C1169.71 924.477 1159.64 928.959 1162.62 927.58C1162.91 927.453 1171.79 923.446 1173.27 922.806ZM1674.2 388.56C1674.56 388.182 1674.37 388.371 1673.76 388.979C1673.73 389.012 1673.89 388.86 1674.2 388.56ZM1226.87 897.738C1226.53 897.881 1241.6 890.527 1242.19 890.226C1250.87 886.026 1233.13 894.738 1226.87 897.738ZM782.084 1024.92C781.224 1024.98 786.745 1024.55 790.126 1024.24C792.748 1024.01 785.291 1024.79 782.084 1024.92ZM1838.75 177.711C1841.51 173.175 1845.35 166.758 1846.03 165.553C1844.21 168.613 1838.68 177.796 1838.75 177.711ZM1890.8 73.3975C1888.69 79.1774 1884.53 92.3285 1881.53 100.952C1881.45 101.178 1881.37 101.402 1881.29 101.623C1881.29 101.642 1881.39 101.404 1881.55 100.958C1882.97 97.2085 1888.99 78.3864 1890.8 73.3975ZM1698.82 361.521C1698.68 361.696 1696.24 364.578 1694.09 367.032C1692.14 369.266 1690.45 371.168 1691 370.508C1691.54 369.877 1692.73 368.509 1694.05 366.995C1696.98 363.644 1700.48 359.533 1698.82 361.521ZM807.657 1022.09C813.551 1021.29 800.004 1023.33 793.783 1023.92C790.596 1024.3 806.647 1022.28 807.657 1022.09ZM1141.82 936.741C1134.58 939.818 1152.46 932.094 1154.96 931.012C1151.65 932.474 1144.38 935.659 1141.82 936.741ZM1374.47 807.712C1355.19 823.277 1365.59 814.665 1369.04 811.945C1369.53 811.561 1374.94 807.332 1374.47 807.712ZM47.2381 837.18C44.598 834.869 54.5275 843.382 55.7775 844.531C56.555 845.239 48.9231 838.654 47.2381 837.18ZM1577.64 502.719C1577.4 503.726 1577.14 504.731 1576.89 505.718C1577.08 504.978 1577.33 504 1577.64 502.719ZM1075.58 963.156C1091.87 956.977 1090.19 957.67 1091.6 957.155C1094.67 955.993 1101.74 953.229 1107.48 950.968C1100.9 953.54 1094.3 956.057 1087.68 958.52C1091.11 957.256 1111.73 949.329 1125.64 943.516C1132.96 940.488 1138.46 938.133 1138.78 938.008C1140.15 937.49 1126.07 943.398 1125.67 943.543C1125.66 943.545 1125.66 943.547 1125.65 943.549C1125.04 943.809 1122.9 944.817 1121.61 945.349C1119.51 946.382 1081.73 961.065 1075.58 963.156ZM1334.08 840.016C1337.26 837.691 1338.09 836.952 1339.54 835.83C1340.04 835.435 1340.14 835.424 1341.79 834.076C1339.29 836.147 1336.72 838.122 1334.08 840.016ZM1046.08 973.344C1041.42 975.005 1062.34 967.805 1063 967.519C1066.56 966.238 1049.88 972.042 1046.08 973.344ZM1219.35 901.402C1218.62 901.773 1203.28 909.073 1203.39 908.974C1207.46 907.061 1227.94 897.242 1219.35 901.402ZM1343.81 832.382C1344.45 831.832 1345.16 831.219 1345.93 830.561C1350.66 826.567 1357.06 821.542 1356.22 822.264C1356.21 822.269 1356.21 822.275 1356.2 822.28C1352.79 824.996 1349.32 827.716 1345.93 830.566C1345.22 831.173 1344.52 831.777 1343.81 832.382ZM827.88 1019.4C816.94 1021.04 822.119 1020.18 831.817 1018.79C834.768 1018.42 829.677 1019.13 827.88 1019.4ZM792.832 1024.2C789.831 1025.11 758.273 1025.74 763.083 1025.47C764.781 1025.58 782.953 1025.19 783.765 1024.96C785.025 1024.85 779.264 1025.26 788.891 1024.5C788.329 1024.59 793.872 1024.09 792.832 1024.2ZM818.816 1020.74C817.881 1020.88 817.027 1021 816.249 1021.12C807.588 1022.38 806.138 1022.45 813.658 1021.39C814.511 1021.27 815.409 1021.15 816.239 1021.04C818.352 1020.76 819.979 1020.57 818.816 1020.74ZM863.335 1014.5C859.414 1015.07 848.977 1016.55 841.761 1017.5C851.396 1016.16 861.037 1014.8 870.669 1013.44C871.783 1013.31 866.762 1014.01 863.309 1014.51C863.318 1014.5 863.326 1014.5 863.335 1014.5ZM1914.82 11.7339C1913.45 15.1452 1913.96 13.8743 1915.1 11.1863C1916.88 7.55371 1918.59 0.876221 1918.64 0.358521C1919.15 -1.93152 1917.04 7.34888 1915.06 11.1699C1914.97 11.3712 1914.89 11.5599 1914.82 11.7339ZM-1.02368 789.262C-2.58874 787.424 -3.67333 786.232 -7.0532 782.105C-3.60095 786.215 -0.0951767 790.315 3.40409 794.381C6.03678 797.632 0.700222 791.29 -1.02368 789.262ZM-14.3304 773.635C-13.8462 774.228 -16.5978 771.089 -10.3415 778.659C-6.20456 783.861 -28.6679 755.599 -31.4452 749.608C-27.8977 755.888 -18.4761 768.557 -14.3304 773.635ZM-49.2276 721.035C-49.4538 720.692 -42.3375 732.395 -41.525 733.755C-37.1873 740.858 -47.9865 722.923 -49.2276 721.035ZM-26.4917 758.401C-30.1672 753.1 -22.1008 764.888 -19.3993 768.179C-19.165 768.525 -25.9893 759.263 -26.4917 758.401ZM1886.07 95.473C1885.28 97.9607 1884.46 100.332 1883.93 101.789C1883.29 103.536 1883.08 103.978 1883.85 101.762C1884.15 100.887 1884.6 99.5946 1885.22 97.7983C1885.38 97.3151 1886.16 95.1901 1886.07 95.473ZM-42.3951 732.557C-39.0504 738.038 -46.3945 725.858 -48.6287 722.244C-48.8565 721.924 -42.8958 731.719 -42.3951 732.557ZM1884.72 100.193C1884.52 100.808 1884.33 101.365 1884.15 101.867C1881.75 108.538 1882.52 105.708 1882.92 104.706C1883.19 103.989 1883.56 102.99 1883.97 101.802C1886.15 95.5889 1889.88 84.2324 1890.8 81.5942C1883.14 104.753 1886.07 96.056 1884.72 100.193ZM1865.54 138.346C1861.13 145.7 1872.33 126.862 1874.27 123.132C1872.27 126.908 1866.82 136.262 1865.54 138.346ZM1838.71 182.903C1836.34 186.844 1829.06 198.488 1827.78 200.383C1830.52 196.161 1837.69 184.547 1838.71 182.903ZM1833.32 191.842C1829.53 197.973 1828.49 199.35 1832.95 192.34C1833.12 192.069 1833.46 191.616 1833.32 191.842ZM1811.4 225.945C1808.86 229.911 1805.76 234.33 1809.97 227.955C1811.22 226.068 1811.68 225.515 1811.4 225.945ZM1880.72 111.145C1877.9 117.372 1873.83 125.134 1880.21 112.064C1878.07 116.708 1875.67 121.225 1873.19 125.66C1882.15 108.91 1881.12 109.896 1883.26 104.865C1883.71 103.697 1884.05 102.722 1884.32 101.925C1885.69 97.8598 1885.4 98.4244 1884.96 99.6243C1886.74 94.9845 1891.84 77.9088 1897.22 64.2753C1898.62 60.7742 1899.97 57.4677 1901.15 54.5916C1899.98 57.468 1898.65 60.7612 1897.25 64.2869C1892.64 75.9278 1888.31 90.543 1884.96 100.19C1884.76 100.776 1884.56 101.36 1884.36 101.938C1883.31 104.925 1882.16 107.743 1881.06 110.238C1878.93 115.003 1880.88 110.793 1880.73 111.12C1880.73 111.128 1880.72 111.137 1880.72 111.145ZM1781.3 269.855C1773.05 281.083 1778.26 273.919 1782.86 267.613C1783.05 267.361 1781.53 269.535 1781.3 269.855ZM-52.328 717.043C-43.6233 731.422 -48.2088 723.151 -34.7284 746.345C-33.3419 748.802 -31.6966 751.576 -29.7004 754.673C-38.2488 740.658 -30.1713 753.899 -31.8137 751.146C-32.4009 750.173 -33.6878 748.02 -34.654 746.303C-35.87 744.159 -36.6718 742.762 -35.1014 745.433C-38.6448 739.076 -55.3183 712.075 -55.909 710.747C-55.9024 710.758 -55.8958 710.77 -55.8892 710.781C-56.3147 710.042 -55.3999 711.969 -52.328 717.043ZM1839 183.157C1836.73 187.193 1835.55 188.614 1830.82 196.399C1824.27 206.613 1848.45 167.896 1851 162.997C1825.51 205.455 1867.7 134.872 1850.13 164.628C1864.73 140.213 1854.97 156.661 1857.26 152.918C1857.92 151.854 1858.96 150.151 1860.17 148.177C1863.56 142.681 1867.94 135.277 1867.67 135.812C1867.67 135.82 1867.66 135.827 1867.66 135.835C1865.21 139.981 1862.73 144.08 1860.21 148.198C1857.56 152.516 1854.96 156.814 1852.35 161.143C1857.19 152.813 1846.88 170.083 1843.45 175.998C1841.97 178.388 1840.49 180.777 1839 183.157ZM1867.71 135.323C1867.42 135.843 1863.17 142.967 1860.01 148.08C1858.03 151.315 1856.52 153.78 1856.79 153.315C1857.16 152.706 1858.4 150.647 1859.98 148.062C1864.82 140.237 1872.34 127.35 1867.71 135.323ZM1903.85 48.2836C1901.9 52.981 1899.29 59.377 1897.31 64.312C1896.31 66.8262 1895.5 68.9785 1895 70.3011C1895.66 68.4808 1896.44 66.4133 1897.28 64.2993C1899.78 58.0192 1902.62 51.1589 1903.85 48.2836ZM1688.63 377.62C1683.86 382.839 1693.03 372.705 1696.28 368.941C1697.56 367.477 1697.97 367.014 1696.37 368.881C1696.36 368.894 1696.33 368.921 1696.3 368.96C1695.53 369.874 1688.96 377.291 1688.63 377.62ZM1827.13 202.075C1825.73 204.287 1824.87 205.63 1824.41 206.321C1823.89 207.107 1823.93 207.005 1824.37 206.295C1825.01 205.253 1826.45 202.971 1828.22 200.237C1828.45 199.876 1827.38 201.681 1827.13 202.075ZM-44.5379 729.908C-44.3599 730.267 -39.1725 738.708 -34.8059 746.389C-31.8951 751.534 -28.8627 756.072 -27.7895 757.65C-28.4015 756.718 -31.6326 751.932 -34.7686 746.368C-39.2765 738.41 -44.7585 729.511 -44.5379 729.908ZM1909.17 35.8227C1905.37 45.3428 1900.43 56.9973 1897.47 64.3744C1896 68.0074 1895.06 70.6213 1894.8 71.3275C1894.04 73.451 1895.3 70.1454 1895.13 70.6299C1894.6 71.6631 1887.08 94.5572 1886.69 95.6782C1886.42 96.4709 1887.72 92.2943 1886.11 97.0159C1887.93 91.9681 1892.48 76.801 1897.41 64.3499C1901.48 54.1642 1905.15 45.4557 1905.53 44.5034C1906.22 42.864 1901.21 55.2656 1909.16 35.8474C1909.16 35.8391 1909.16 35.8309 1909.17 35.8227ZM1892.94 76.6856C1894.83 70.979 1889.44 86.9491 1888.2 90.8627C1885.4 99.5106 1892.65 77.3837 1892.94 76.6856ZM1879.07 115.039C1878.38 116.9 1869.92 132.216 1869.05 133.424C1873.33 126.36 1881.05 111.096 1879.07 115.039ZM1775 278.771C1772.29 282.436 1764.29 292.021 1763.71 292.493C1766.83 289.155 1774.57 279.345 1775 278.771ZM9.24842 804.323C5.49706 799.963 11.2916 806.78 15.7211 811.948C17.0521 813.503 18.2926 814.853 19.1053 815.718C19.19 815.789 17.5984 814.106 15.7424 811.93C12.9917 808.706 9.51158 804.629 9.24842 804.323ZM1826.53 203.689C1826.33 203.99 1825.71 204.96 1824.71 206.516C1818 217.124 1794.5 252.427 1790.46 257.875C1794.48 252.394 1818.68 215.955 1824.66 206.484C1825.4 205.34 1825.86 204.625 1826.01 204.405C1826.4 203.802 1826.71 203.397 1826.53 203.689ZM1885.2 100.85C1886.89 96.1117 1887.83 92.9774 1888.03 92.3771C1889.95 86.4674 1894.03 74.3248 1893.09 76.9747C1890.59 84.3401 1886.09 98.2359 1884.72 102.063C1884.28 103.323 1884.22 103.518 1884.76 102.077C1884.87 101.753 1885.02 101.347 1885.2 100.85ZM1772.8 282.005C1761.17 296.598 1783.28 268.429 1780.33 272.065C1780.15 272.355 1774.04 280.5 1772.8 282.005ZM1829.83 198.544C1831.83 195.834 1851.01 163.901 1860.45 148.345C1862.57 144.874 1864.16 142.224 1864.99 140.841C1863.4 143.431 1861.93 145.829 1860.41 148.321C1857.98 152.282 1855.48 156.45 1852.14 162.009C1850.67 164.444 1851.03 163.782 1850.88 164.043C1848.34 168.271 1850.27 165.122 1848.71 167.734C1847.84 169.432 1826.79 203.464 1829.83 198.544ZM1886.16 98.1468C1887.1 95.7231 1894.51 72.2773 1897.8 64.5067C1898.4 63.0136 1898.78 62.0534 1898.86 61.8491C1899.96 59.085 1899.28 60.7162 1897.76 64.4921C1893.97 73.6041 1886.86 96.3753 1886.16 98.1468ZM1827.19 202.817C1830.51 197.955 1844.72 174.776 1834.9 190.58C1833.96 192.089 1830 198.481 1827.19 202.817ZM1774.1 280.497C1773.72 281.299 1761.09 296.241 1760.7 296.313C1762.94 294.547 1780.57 272.247 1774.1 280.497ZM1780.27 272.507C1779.97 272.892 1782.67 269.204 1777.21 276.518C1776.74 277.072 1776.08 278.373 1768.8 287.255C1767.31 289.055 1764.91 291.74 1765.07 291.55C1773.21 282.682 1794.01 253.495 1780.27 272.507ZM1886.41 97.5698C1885.85 99.3274 1887.36 95.1365 1888.57 91.3183C1889.08 89.6816 1888.05 92.7097 1886.41 97.5698ZM1733.48 326.583C1737.35 322.264 1733.01 327.206 1727.67 333.151C1722.66 338.69 1717.03 345.337 1716.47 345.996C1716.9 345.452 1722.8 338.466 1727.63 333.122C1730.68 329.739 1733.19 326.905 1733.48 326.583ZM20.6733 817.886C20.667 817.88 20.6608 817.874 20.6545 817.867C27.4246 824.64 23.2699 820.404 23.5799 820.731C38.3915 834.614 34.539 830.803 36.8532 832.98C41.9232 837.456 41.1836 836.65 49.7692 844.155C35.5717 831.756 48.5166 843.017 48.9451 843.332C50.6895 844.56 29.8024 827.122 23.1643 820.269C22.2077 819.375 29.2833 826.055 26.849 823.718C24.0312 821.055 19.1751 816.317 15.5511 812.093C9.80951 805.463 6.13975 801.295 15.4488 812.181C16.8374 813.804 18.5535 815.706 20.6733 817.886ZM1889.54 88.387C1890.45 85.7187 1894.96 71.7318 1897.89 64.5413C1899.5 60.4725 1900.34 58.3967 1899.14 61.3152C1899.04 61.5489 1898.56 62.7483 1897.84 64.5241C1894.5 72.5408 1887.87 93.4112 1889.54 88.387ZM1533.76 611.417C1537.53 604.37 1528.91 620.803 1527.21 623.801C1526.39 625.287 1532.12 614.526 1533.76 611.417ZM1466.93 723.098C1461.7 730.98 1455.61 739.164 1462.49 729.397C1463.21 728.353 1467.51 722.168 1466.93 723.098ZM1458.01 249.153C1466.61 244.241 1466.16 244.619 1459.82 248.2C1457.57 249.459 1457.74 249.305 1458.01 249.153ZM1580.72 505.81C1580.55 506.794 1577.38 517.927 1577.42 517.497C1578.78 513.429 1582.28 499.529 1580.72 505.81ZM1455.25 250.663C1458.27 249.005 1456.49 250.044 1453.22 251.839C1450.87 253.119 1447.83 254.89 1445.27 256.453C1447.37 255.136 1450.89 253.04 1453.2 251.795C1454.3 251.191 1455.08 250.759 1455.25 250.663ZM1816.23 220.219C1813.52 224.287 1805.82 236.005 1801.32 242.636C1800.96 243.336 1813.11 225.041 1816.23 220.219ZM1489 689.189C1484.33 696.91 1494.21 680.294 1493.33 681.838C1493.21 682.054 1489.2 688.889 1489 689.189ZM1343.28 506.983C1340.36 505.218 1343.49 507.234 1346.98 508.802C1350.46 510.395 1354.26 511.436 1351.4 510.579C1351.05 510.646 1343.53 507.326 1343.28 506.983ZM1433.75 517.437C1428.78 517.472 1407.55 516.788 1415.83 517.016C1417.1 517.094 1433.4 517.437 1433.75 517.437ZM37.2442 833.383C35.1687 831.67 46.9208 841.883 48.5982 843.308C49.2647 843.877 39.9214 835.639 37.2442 833.383ZM1519.33 230.439C1524.45 230.424 1537.85 230.465 1540.31 230.932C1533.8 230.214 1517.64 230.573 1519.33 230.439ZM1509.62 653.725C1505.66 660.376 1499.15 672.133 1500.68 669.184C1508.01 656.343 1499.76 670.695 1509.62 653.725ZM1427.24 268.732C1430.56 266.257 1433.22 264.497 1432.83 264.771C1429.19 267.398 1423.97 271.225 1427.24 268.732ZM1594.98 400.528C1595.05 400.78 1594.87 414.017 1594.85 412.255C1594.89 411.671 1594.97 400.349 1594.98 400.528ZM1708.72 355.541C1704.88 360.212 1716.71 346.028 1720.26 341.91C1721.91 339.83 1709.19 354.926 1708.72 355.541ZM1348.8 351.772C1348.37 352.181 1360.62 335.55 1355.83 342.131C1354.6 343.79 1348.94 351.58 1348.8 351.772ZM1370.69 514.251C1356.88 513.187 1415.01 517.524 1399.73 516.452C1398.62 516.526 1371.92 514.564 1370.69 514.251ZM1466.01 516.4C1463.59 516.668 1464.89 517.051 1474.74 514.898C1476.03 514.622 1469.97 515.845 1471.02 515.603C1471.77 515.924 1492.74 509.779 1493.54 509.038C1494.54 508.655 1493.38 509.169 1494.41 508.779C1495.61 508.437 1507.89 503.075 1514.03 499.741C1515.59 498.928 1516.97 498.196 1518.18 497.551C1525.79 493.639 1527.04 493.421 1527.85 493.004C1530.69 491.75 1535.56 489.714 1541.31 486.854C1544.92 485.056 1548.7 482.98 1552.54 480.656C1577.3 465.321 1610.05 448.192 1628.62 434.053C1629.77 433.096 1630.87 432.185 1631.91 431.313C1630.81 432.227 1629.71 433.134 1628.61 434.046C1611.45 446.913 1593.6 456.018 1575.63 466.807C1581.3 463.548 1547.31 483.51 1567.19 471.833C1565.16 473.03 1559.76 476.218 1552.51 480.607C1543.57 486.429 1530.13 491.454 1518.15 497.5C1495.73 510.418 1470.04 516.262 1466.04 516.396C1466.03 516.398 1466.02 516.399 1466.01 516.4ZM1443.78 752.985C1448.08 748.969 1426.5 770.172 1424.29 771.471C1427.39 769.047 1443.43 753.683 1443.78 752.985ZM1520.05 637.381C1521.43 634.947 1522.92 632.736 1529.81 619.829C1529.82 619.817 1529.82 619.806 1529.83 619.794C1531.84 616.002 1529.5 620.305 1529.86 619.602C1530.02 619.32 1536.19 607.568 1531 617.317C1522.97 632.189 1530.34 618.768 1526.04 626.692C1525.57 627.683 1517.1 642.526 1517.52 641.626C1517.58 641.548 1520.18 637.095 1520.59 636.347C1522.16 633.519 1521.34 634.887 1521.56 634.487C1522.38 633.251 1535.23 609.521 1536.92 606.01C1537.62 604.937 1516.63 643.835 1515.25 645.185C1514.69 646.083 1514.99 645.821 1514.39 646.756C1514.35 646.819 1514.12 647.179 1513.8 647.652C1511.53 650.727 1504.71 662.489 1503.75 664.268C1503.42 664.851 1503.17 665.298 1502.99 665.626C1503.81 664.122 1500.91 669.279 1498.7 673.101C1497.45 675.257 1496.45 676.989 1496.55 676.841C1496.61 676.745 1497.59 675.077 1498.73 673.119C1500.38 670.286 1502.31 666.842 1502.43 666.639C1502.51 666.487 1502.59 666.355 1502.65 666.231C1502.01 667.536 1508.95 654.727 1513.83 647.676C1516.72 643.308 1518.21 640.59 1516.73 643.17C1522.3 633.752 1515.9 644.474 1520.05 637.381ZM1544.74 591.232C1544.22 592.228 1543.69 593.237 1543.18 594.222C1548.78 583.331 1554.81 571.273 1560.92 558.789C1564.31 551.842 1567.6 544.72 1570.6 537.422C1572.7 532.223 1570.4 538.242 1573.05 531.393C1575.16 525.882 1577.09 519.633 1576.07 522.682C1575.88 523.448 1571.85 534.754 1569.42 540.243C1562.3 556.424 1563.88 552.244 1563.5 553.207C1563.29 553.654 1562.23 555.908 1560.84 558.753C1559.13 562.274 1557 566.621 1555.5 569.639C1548.71 583.228 1545.59 589.429 1536.03 607.864C1541.62 597.236 1538.66 603.143 1544.74 591.232ZM1314.74 431.516C1314.38 432.244 1313.88 445.058 1314.53 449.641C1314.35 448.938 1313.88 436.163 1314.74 431.516ZM555.532 1020.77C551.669 1020.5 580.338 1022.07 572.781 1021.71C571.137 1021.63 559.106 1020.98 555.532 1020.77ZM684.162 1026.87C687.993 1027.05 672.567 1026.46 672.591 1026.41C672.611 1026.4 683.679 1026.85 684.162 1026.87ZM1594.73 353.147C1594.73 352.987 1594.72 352.35 1594.72 351.437C1594.72 348.185 1594.53 341.732 1594.5 341.433C1594.32 337.772 1594.66 345.486 1594.67 351.437C1594.71 356.955 1594.76 360.806 1594.73 353.147ZM840.527 1021.62C827.276 1023.43 867.121 1017.85 854.955 1019.6C854.343 1019.69 841.161 1021.53 840.527 1021.62ZM895.891 1013.83C892.719 1014.29 878.64 1016.31 878.45 1016.31C878.165 1016.32 894.288 1014.01 895.891 1013.83ZM1424.86 270.221C1426.02 269.174 1411.15 280.783 1406.17 285.013C1404.99 286.033 1419.55 274.085 1424.86 270.221ZM1534.28 230.182C1522.91 229.948 1513.71 230.128 1506.23 229.957C1487.57 230.706 1481.26 236.813 1481.67 235.979C1482.27 236.182 1490.02 230.34 1506.23 230.017C1515.09 230.276 1525.92 229.768 1539.1 230.465C1539.21 230.451 1539.36 230.374 1534.28 230.182ZM1438.88 260.144C1441.1 258.682 1447.7 254.373 1453.04 251.505C1453.51 251.251 1453.96 251.004 1454.39 250.767C1454.22 250.854 1453.74 251.113 1453.03 251.493C1449.67 253.224 1441.87 258.087 1438.88 260.144ZM521.429 1018.64C526.385 1019.11 548.313 1020.44 544.41 1020.16C543.49 1020.14 519.638 1018.51 521.429 1018.64ZM1594.72 346.451C1595.02 348.314 1593.75 324.36 1593.19 322.561C1592.52 315.186 1595.12 344.489 1594.72 346.451ZM1348.1 352.211C1345.58 355.609 1338.77 365.363 1334.47 371.73C1336.43 368.887 1344.3 357.477 1348.1 352.211ZM1382.12 308.377C1381.79 308.696 1374.84 316.957 1374.58 317.326C1368.93 324.105 1388.58 300.857 1382.12 308.377ZM11.4797 808.316C11.6295 808.493 13.4754 810.651 15.0668 812.508C16.1803 813.809 17.1695 814.891 17.251 814.98C19.4512 817.324 17.4404 815.216 15.0947 812.484C12.1264 809.015 8.45667 804.741 11.4797 808.316Z" fill="#F4C03A" fill-opacity="0.58"/>
</svg>
