<svg width="1920" height="521" viewBox="0 0 1920 521" fill="none" xmlns="http://www.w3.org/2000/svg">
<path d="M6.33968 402.191C4.86447 386.948 3.04744 366.988 2.52911 351.811C2.37189 347.061 2.29935 349.468 2.21492 346.186C2.10706 341.195 2.18214 336.456 2.38818 331.654C2.44808 330.274 2.51923 328.904 2.60284 327.509C2.73367 325.425 2.33028 328.008 2.4807 325.813C3.35046 313.821 5.56373 302.602 9.49937 291.102C12.1972 283.211 15.6518 275.6 19.5505 268.215C30.9265 246.846 43.268 225.987 57.2128 206.257C72.4427 184.488 91.2712 165.73 112.548 148.961C113.388 148.244 114.241 147.539 115.105 146.848C125.826 138.194 139.945 130.655 153.883 124.129C160.115 121.207 166.669 119.144 172.927 117.471C175.278 116.854 173.923 117.407 174.373 117.303C181.441 115.753 179.032 115.988 183.632 114.887C192.912 112.741 202.838 110.967 212.711 109.404C222.215 107.868 231.884 108.283 240.505 110.23C247.895 112.081 240.427 110.459 247.84 112.395C248.352 112.544 246.568 111.768 248.567 112.387C252.108 113.46 257.939 115.86 261.834 117.806C262.941 118.347 263.896 118.842 264.616 119.223C270.836 122.637 271.811 123.331 277.286 127.242C284.724 132.677 292.911 140.064 299.883 147.141C301.369 148.65 299.256 146.8 301.605 149.227C301.777 149.406 301.971 149.607 302.184 149.827C304.87 152.551 310.171 158.374 312.001 160.484C313.996 162.744 313.279 161.668 313.653 162.052C316.771 165.179 322.781 173.631 323.533 174.726C334.103 189.162 342.543 202.825 350.595 217.031C353.448 222.077 355.956 227.359 358.129 232.926C363.262 245.971 366.304 260.581 367.714 274.381C368.046 277.468 367.821 280.533 367.029 283.388C365.896 287.537 363.615 291.145 361.002 294.375C355.115 299.363 345.194 295.678 337.336 293.833C332.229 292.414 327.314 290.117 322.674 286.98C321.045 285.855 323.075 286.991 321.11 285.591C313.862 280.378 308.19 273.482 302.252 266.569C292.307 253.378 286.85 236.627 280.316 221.025C279.35 218.593 280.384 221.814 279.406 219.383C279.123 218.68 278.831 217.952 278.53 217.199C272.178 202.504 268.838 179.142 269.236 170.108C268.797 164.468 268.506 158.164 268.275 152.056C268.051 146.613 268.771 141.323 269.821 136.904C271.414 130.947 269.355 136.583 271.945 129.43C272.585 127.837 271.949 129.983 272.919 127.603C275.042 122.498 277.754 117.349 280.688 112.345C283.46 107.594 286.899 103.281 290.547 99.5245C292.07 97.9688 291.787 98.5301 292.241 98.1124C296.017 94.5826 302.402 88.7275 303.883 87.5427C309.998 82.5046 315.509 78.5338 321.017 74.6869C325.507 71.569 330.17 68.7175 335.426 65.7274C338.144 64.1946 335.046 66.2056 337.666 64.7498C351.302 57.2339 366.004 50.5426 380.131 44.7635C383.28 43.4821 380.298 44.4515 381.803 43.8299C388.426 41.1302 390.051 40.9315 396.472 38.5108C396.734 38.4133 396.915 38.3388 397.038 38.2813C397.55 38.0416 397.051 38.097 397.246 38.0109C401.039 36.3356 404.574 35.6043 405.586 35.2788C418.377 31.2237 426.56 28.4956 439.184 25.4936C440.699 25.142 437.334 26.1628 441.595 25.1662C469.767 18.6296 500.152 14.3372 528.669 11.2299C528.819 11.2136 528.969 11.1972 529.119 11.1809C533.555 10.7034 530.369 10.861 530.646 10.8123C535.212 10.0327 538.179 10.1841 539.658 10.0615C551.127 9.10571 561.864 7.91479 569.711 7.85992C618.402 4.23621 667.048 2.99463 715.474 2.75934C716.088 2.75751 714.988 2.54181 716.214 2.53918C729.746 2.53339 728.538 2.81042 735.689 3.27167C736.365 3.31647 737.113 3.36371 737.953 3.414C740.41 3.55511 747.926 3.25531 748.581 3.24268C751.009 3.1795 748.503 2.79877 749.316 2.79596C756.024 2.79663 754.9 3.77704 763.926 4.12323C764.209 4.13287 763.03 3.89581 763.789 3.90729C766.143 3.9425 768.475 4.11926 770.781 4.16199C776.054 4.26666 777.966 3.84882 785.994 4.633C787.009 4.74084 785.422 5.19958 793.467 5.72992C796.678 5.91602 810.86 7.10211 814.828 7.48163C818.798 7.83209 816.093 7.37805 816.378 7.39746C827.09 8.23624 823.031 7.72693 828.437 7.94916C833.815 8.19608 832.237 8.9017 834.407 9.25787C836.568 9.60638 844.402 10.4023 846.335 10.6006C848.27 10.7904 845.884 10.3461 847.603 10.5387C858.927 11.8509 852.501 11.6642 856.189 12.3321C864.892 13.9439 871.832 14.4054 879.821 15.7089C882 16.0674 880.201 15.9065 882.116 16.253C889.754 17.6459 894.323 18.2751 902.958 20.1285C904.352 20.4255 911.256 22.181 915.843 22.8323C916.49 22.9228 914.719 22.3932 917.944 23.0189C922.75 23.9475 931.521 25.7798 936.624 26.9623C940.446 27.846 936.001 27.1362 940.839 28.1236C942.965 28.5595 939.069 27.5303 943.068 28.3653C944.336 28.6307 946.235 29.0458 948.382 29.5262C952.881 30.5303 958.513 31.8448 961.128 32.4654C965.003 33.3846 962.836 33.0821 963.145 33.1688C965.06 33.697 972.377 35.5555 973.067 35.7267C1006.03 43.7691 1036.35 51.7156 1068 61.3371C1070.5 62.0981 1068.78 61.801 1069.16 61.9192C1077.61 64.5722 1071.08 61.9976 1077.07 63.6257C1076.08 63.7749 1079.66 64.7807 1085.58 66.6704C1088.45 67.5896 1086.83 67.2615 1087.09 67.3596C1091.31 68.9432 1094.35 69.5626 1095.14 69.7402C1098.02 70.3941 1101.03 71.6633 1103.01 72.1226C1104.96 72.5794 1100.65 70.9332 1106.33 72.7685C1107.88 73.4326 1103.52 72.45 1107.83 73.9124C1124.15 79.3929 1154.58 89.5024 1167.6 94.187C1180.59 98.8153 1184.77 100.402 1192.32 103.139C1205.97 108.125 1200.86 106.539 1209.27 109.872C1217.63 113.212 1213.81 110.965 1215.08 111.278C1216.33 111.587 1217.57 112.241 1219.09 112.734C1220.61 113.226 1217.43 111.883 1220.94 113.202C1224.39 114.496 1233.81 118.487 1234.97 119.129C1237.42 120.48 1233.02 119.126 1242.22 122.642C1242.75 122.845 1241.11 121.982 1243.14 122.769C1259.2 129.011 1275.76 135.819 1291.66 142.422C1293.84 143.328 1291.98 142.303 1293.25 142.829C1296.78 144.289 1299.04 145.255 1300.58 145.942C1304.76 147.816 1303.53 147.583 1308.71 150.146C1307.28 148.947 1311.47 150.379 1321.41 154.733C1327.4 157.366 1326.3 157.143 1330.09 159C1331.22 159.556 1335.52 161.289 1336.24 161.734C1338.62 163.195 1334.48 161.779 1344.79 166.227C1345.24 166.421 1343.9 165.599 1345.45 166.284C1355.51 170.734 1356.55 171.623 1367.35 176.617C1375.8 180.528 1390.93 187.303 1400.56 191.799C1400.61 191.153 1409.62 195.555 1413.12 197.682C1419.34 200.619 1426.05 203.85 1432.07 206.682C1434.15 207.658 1432.87 206.847 1433.14 206.955C1437.26 208.608 1439.78 210.277 1441.11 210.937C1455.56 218.095 1467.47 223.584 1481.14 230.668C1481.62 230.922 1482.21 231.681 1486.05 233.237C1486.3 233.337 1481.82 230.905 1488.32 234.11C1494.81 237.309 1507.11 243.191 1516.01 247.884C1518.18 249.025 1523.47 252.073 1528.02 254.073C1528.63 254.338 1528.04 253.905 1528.92 254.275C1531.76 255.471 1533.06 256.608 1536.43 257.911C1539.78 259.205 1546.64 262.38 1555.53 267.208C1555.82 267.362 1557.81 268.759 1560.64 270.204C1565.13 272.493 1571.66 275.768 1576.34 278.184C1578.59 279.343 1577.05 278.788 1577.44 278.993C1592.6 286.947 1603.49 292.393 1619.75 300.813C1622.73 302.359 1631.16 307.101 1636.99 309.92C1643.35 312.993 1637.48 308.73 1651.79 316.568C1657.66 319.787 1664.41 324.843 1675.22 329.839C1687.31 336.399 1698.9 342.521 1710.61 348.791C1718.62 353.079 1726.51 357.342 1734.61 361.851C1735.55 362.375 1738.31 364.29 1740.41 365.426C1743.58 367.145 1745.49 367.994 1747.69 369.189C1757.2 374.333 1765.95 379.328 1775.01 384.412C1778.49 386.369 1777.36 385.522 1781.49 387.863C1785.54 390.171 1788.26 391.997 1793.81 395.157C1798.03 397.575 1802.37 399.63 1807.85 403.129C1807.76 403.659 1811.59 405.982 1817.78 410.781C1818.97 411.719 1817.58 410.86 1818.14 411.313C1820.39 413.142 1822.55 414.737 1824.59 416.593C1825.09 417.045 1825.01 417.186 1825.41 417.563C1826.09 418.212 1826.86 418.915 1827.7 419.656C1831.02 422.586 1834.98 425.766 1835.82 426.447C1839.76 429.612 1841.41 431.365 1844.35 433.865C1847.32 436.396 1843.06 432.428 1846.48 435.412C1853.56 441.596 1862.44 449.718 1869.46 456.202C1872.25 458.77 1870.2 457.173 1870.6 457.544C1876.34 462.927 1882.31 468.199 1885.22 471.478C1889.01 473.766 1888.87 474.583 1893.12 478.469L1893.11 478.454C1894 479.572 1895.12 480.935 1896.53 482.657C1897.09 483.343 1898.21 483.904 1896.15 481.189C1895.43 480.259 1894.56 479.192 1893.58 478.053L1893.52 477.988C1891.37 476.222 1888.92 473.975 1886.7 471.82C1885.9 471.045 1881.55 466.327 1880.93 465.702C1876.1 460.892 1874.82 460.765 1874.54 460.569C1871.24 458.127 1865.81 452.41 1864.33 451.008C1857.5 444.514 1851.49 439.22 1845.7 433.877C1841.91 430.383 1841.88 429.678 1838.82 426.987C1834.71 423.373 1831.62 420.834 1828.75 418.46C1824.56 415.019 1820.93 411.989 1814.98 407.274C1812.82 405.627 1815.41 406.582 1806.98 401.569C1806.49 401.266 1800.11 397.717 1796.65 395.37C1796.21 395.07 1796.28 394.923 1795.72 394.567C1791.75 392.099 1789.08 390.69 1784.68 388.085C1780.28 385.488 1775.12 382.462 1770.03 379.681C1766.93 377.986 1762.97 376.135 1761.41 375.355C1757.26 373.301 1752.98 370.553 1750.29 369.372C1747.57 368.179 1752.37 371.251 1745.61 367.748C1745.57 367.243 1745.2 366.551 1745 365.958C1733.69 359.797 1722.44 353.808 1711.16 347.769C1707.75 345.941 1704.08 343.972 1700.58 342.087C1698.75 341.104 1700.73 341.91 1698.77 340.846C1690.31 336.266 1683.07 332.573 1674.35 327.854C1667.69 324.246 1660.41 320.108 1653.37 316.312C1648.85 314.462 1638.48 308.8 1630.84 304.836C1628.14 303.434 1628.27 303.649 1626.37 302.699C1619.18 299.103 1622.71 300.473 1620.78 299.386C1612.45 294.703 1611.34 295.211 1601.41 290.01C1600.89 289.74 1594.69 285.941 1593.8 285.446C1588.25 282.333 1592.78 285.116 1589.25 283.33C1582.81 280.071 1578.24 277.85 1570.76 273.834C1568.56 272.65 1563.43 269.656 1559.03 267.683C1558.45 267.423 1558.68 267.734 1558.22 267.51C1549.88 263.428 1549.97 262.881 1545.33 260.317C1540.68 257.747 1533.28 254.411 1531.75 253.752C1527.75 252.036 1534.66 255.359 1534.86 255.488C1537.17 257.019 1531.91 254.29 1527.82 252.258C1526.99 252.418 1521.35 249.544 1523.61 250.16C1523.87 250.232 1526.99 251.862 1527.82 252.258C1524.48 249.997 1518.31 246.81 1511.18 243.773C1507.86 242.361 1510.81 244.122 1501.03 239.133C1496.58 236.866 1498.48 237.409 1494.6 235.367C1485.71 230.698 1473.87 225.224 1464.61 220.636C1461.25 218.969 1464.62 220.399 1462.33 219.254C1456.22 216.211 1450.77 213.723 1444.65 210.673C1444.09 210.397 1445.55 210.871 1443.63 209.942C1429.13 202.906 1416.41 196.969 1401.18 189.804C1393.82 186.336 1380.69 180.09 1373.03 176.597C1359.74 170.508 1343.28 163.397 1331.89 158.272C1324.49 154.943 1326.18 155.468 1323.05 153.936C1317.02 150.98 1305.86 146.681 1304.38 146.129C1304.33 146.109 1310.73 148.928 1307.26 147.544C1305.18 146.886 1304.45 146.162 1304.38 146.129C1304.09 146.022 1302.81 145.487 1301.08 144.759C1296.78 142.941 1289.77 139.985 1287.98 139.202C1286.6 138.598 1287.45 138.744 1286.73 138.431C1269.56 131.012 1252.23 123.886 1234.55 117.019C1234.23 116.899 1234.63 117.288 1233.89 117.005C1223.6 113.066 1217.13 110.289 1208.76 106.934C1200.31 103.552 1193.59 101.112 1188.42 99.6053C1182.04 97.1973 1172.8 94.0225 1167.41 92.2066C1162.06 90.4045 1161.48 89.7543 1161.01 89.5797C1146.48 84.1712 1137.94 81.4894 1122.7 76.4488C1115.46 74.052 1101.04 69.312 1093.19 66.8048C1086.92 64.7936 1083.22 63.7516 1077.42 61.908C1076.65 61.6613 1077.49 61.7213 1077.25 61.6415C1070.9 59.4663 1073.85 60.8531 1072.5 60.5292C1067.6 59.3607 1064.6 58.6183 1056.36 56.0475C1054.46 55.4529 1049.13 53.2072 1045.63 52.1657C1041.11 50.8225 1042.8 51.5506 1038.05 50.1438C1037.64 50.0249 1037.76 49.9033 1034.83 49.0874C1021.23 45.3005 1006.35 41.4013 992.152 37.7795C990.194 37.2809 992.759 37.6902 989.936 36.969C976.765 33.6058 962.28 30.1385 949.37 27.3186C949.201 27.2817 949.047 27.2486 948.906 27.2189C946.368 26.6836 948.102 27.2296 947.433 27.1251C943.114 26.4459 937.215 24.707 936.216 24.4819C912.583 19.1338 894.32 15.8968 869.941 11.7332C868.652 11.5023 858.429 9.44705 853.821 9.20169C853.488 9.1796 848.939 8.93613 844.945 8.1311C844.699 8.08234 847.546 8.2471 842.62 7.62091C837.678 6.99402 829.76 5.89539 822.934 5.40509C820.767 5.24713 815.644 5.11218 809.249 4.21881C808.831 4.14667 798.961 2.58807 795.371 2.84265C794.789 2.88812 795.357 3.43213 787.69 2.65369C786.225 2.50793 788.899 2.55774 785.034 2.24213C779.109 1.76038 771.245 1.49298 763.959 0.968628C762.686 0.873779 757.282 0.309631 752.929 0.452026C752.247 0.474182 753.535 0.688293 751.24 0.640198C746.148 0.536011 740.979 0.415222 735.742 0.320251C729.771 0.211792 723.73 0.136597 717.82 0.161865C713.887 0.180847 715.904 0.475464 711.812 0.5354C707.717 0.593567 699.485 0.677002 695.2 0.576172C690.922 0.474243 695.596 -0.0151367 689.178 0.000366211C661.293 0.0975952 633.684 1.18842 605.88 2.63867C601.754 2.85828 605.18 2.51294 599.089 2.83728C579.987 3.82104 549.034 5.93878 528.369 8.31244C524.777 8.71347 521.54 9.10434 518.7 9.47372C503.242 11.539 522.745 9.47766 510.929 10.9792C505.244 11.7116 498.964 12.0168 497.604 12.1874C484.123 13.8669 474.824 15.5933 462.788 17.7667C460.308 18.2222 462.693 17.5501 460.591 17.942C453.346 19.2968 445.84 21.0008 438.981 22.6187C435.926 23.3437 436.432 23.0527 433.629 23.7634C426.897 25.4858 420.995 27.1835 414.552 29.2869C413.965 29.4795 418.011 28.4659 413.092 29.9661C407.954 31.5476 402.043 33.5569 396.109 35.6895C392.875 36.8502 389.624 38.0352 386.463 39.1832C383.798 40.1602 383.55 39.8293 377.988 42.3347C376.818 42.8746 378.495 42.6375 371.788 45.012C370.659 45.3834 359.483 49.659 354.345 52.5284C352.981 53.2711 349.595 55.3094 346.523 56.8028C346.105 57.0052 347.674 55.9823 345.133 57.2524C336.484 61.6145 327.62 66.5845 319.328 72.26C319.076 72.4335 318.825 72.6063 318.576 72.7782C316.33 74.3314 319.542 71.8207 316.196 74.1524C307.031 80.5609 295.775 89.1061 288.148 97.3039C285.356 100.345 287.426 98.3683 287.233 98.5991C284.213 102.357 282.226 104.434 281.258 105.732C280.019 107.418 278.928 109.088 277.952 110.746C274.35 116.903 271.536 122.48 268.964 129.297C268.096 131.687 268.517 129.924 268.331 130.396C266.526 135.356 268.052 131.719 267.146 134.928C265.724 140.284 264.89 146.245 265.095 152.157C265.22 156.059 265.359 159.951 265.549 163.693C265.727 167.065 265.284 163.286 265.455 166.316C266.421 183.775 269.208 202.151 275.665 218.309C275.829 218.723 275.992 219.135 276.154 219.543C277.365 222.589 276.78 220.605 277.066 221.228C279.032 225.522 281.245 232.081 281.818 233.574C284.402 240.338 285.639 242.898 288.231 248.762C291.299 255.362 294.207 262.402 299.652 268.922C308.87 280.295 320.991 292.968 336.458 296.962C340.854 298.177 345.24 299.257 349.75 299.786C354.096 300.117 359.472 300.878 363.541 296.431C364.605 295.112 365.614 293.747 366.518 292.326C370.101 286.893 371.692 280.159 370.929 274.039C368.596 252.668 363.292 233.496 353.251 215.542C349.095 208.153 344.695 200.665 339.811 192.981C338.555 191.014 340.021 192.87 338.937 191.174C328.873 175.507 317.677 160.715 304.658 147.404C299.521 142.16 294.238 137.013 288.629 132.128C286.994 130.717 289.504 132.568 286.877 130.315C281.498 125.697 274.144 120.338 267.73 116.912C264.605 115.248 268.691 117.669 265.539 116.016C264.79 115.632 264.029 115.255 263.261 114.886C256.521 111.638 249.065 108.791 241.58 107.107C238.027 106.341 243.452 107.225 238.81 106.293C230.006 104.637 220.951 104.553 212.169 105.937C192.104 109.267 171.754 112.259 152.416 120.996C150.441 121.941 148.467 122.899 146.496 123.878C144.544 124.854 143.022 126.088 138.861 128.141C138.492 128.19 138.439 128.049 138.241 127.999C128.387 133.129 118.772 138.939 110.216 146.221C89.2531 162.688 69.7475 181.997 54.2684 204.146C49.7831 210.422 45.5084 216.857 41.3546 223.373C40.3176 225.005 41.9049 222.052 39.8988 225.217C31.3863 238.724 23.4928 252.211 16.0426 266.351C13.3683 271.443 10.8735 276.703 8.68732 282.183C7.89276 284.259 8.61666 283.323 6.33146 289.445C5.85605 290.501 2.92256 299.908 2.33171 302.398C2.23991 302.733 2.45514 300.93 1.7234 304.027C-0.32847 312.908 -1.47024 322.181 -1.87121 331.458C-2.28061 341.006 -2.01125 350.549 -1.50533 359.789C-1.3374 362.735 -1.28467 359.585 -1.16058 361.683C-0.268979 376.528 1.08825 392.63 2.71952 406.709C3.82217 416.136 3.8289 412.603 4.71488 417.576C4.83989 418.281 5.47014 424.118 5.71186 424.398C6.3201 425.117 6.59324 422.227 7.27725 423.328C7.42374 423.56 8.13093 431.393 7.92681 426.732C7.9115 426.407 7.4022 420.728 7.3533 419.322C7.31849 418.343 7.71685 420.071 7.594 418.08C7.47125 416.087 7.06242 413.928 6.82334 410.63C6.58862 407.335 6.97285 408.753 6.33968 402.191ZM1143.3 84.2267C1138.3 82.726 1137.81 81.7709 1143.09 83.7697C1143.34 83.8676 1143.55 84.305 1143.3 84.2267ZM1715.32 350.682C1713.63 349.875 1712.09 349.076 1710.83 348.386C1707.66 346.647 1706.47 345.661 1709.61 347.138C1710.13 347.383 1710.63 347.631 1711.1 347.877C1714.73 349.758 1716.96 351.464 1715.32 350.682ZM1777.22 384.907C1770.17 381.225 1769.58 379.685 1776.9 384.05C1777.34 384.312 1777.64 385.127 1777.22 384.907ZM2.45973 394.31C2.47516 394.384 2.88955 398.582 2.89131 398.686C2.87112 400.949 2.04028 392.542 2.45973 394.31ZM1834.81 424.823C1832.87 423.294 1827.57 418.435 1830.02 420.343C1831.97 421.859 1837.26 426.747 1834.81 424.823ZM880.1 15.3866C880.014 15.382 877.021 14.882 877.094 14.8315C877.325 14.6627 881.489 15.4347 880.1 15.3866ZM1915.71 511.52C1907.42 495.866 1900.18 487.867 1910.65 503.899C1912.46 506.86 1906.99 497.374 1909.36 501.091C1912.36 505.836 1914.44 509.728 1916.12 514.198L1916.13 514.227C1916.96 516.244 1918.19 518.178 1919.67 520.212C1920.33 521.06 1917.71 517.042 1916.63 514.015L1916.64 514.027C1916.27 512.755 1915.82 511.767 1915.7 511.492C1915.7 511.501 1915.7 511.511 1915.71 511.52ZM1140.16 84.1012C1140.06 84.0742 1136.12 82.7417 1136.02 82.6974C1133.96 81.7434 1141.92 84.438 1140.16 84.1012ZM704.27 2.52979C704.034 2.54492 694.317 2.60004 694.003 2.58881C688.93 2.21985 708.58 2.10284 704.27 2.52979ZM1400.71 191.856C1404.74 194.016 1409.68 196.38 1413.1 197.674C1408.98 195.739 1404.85 193.786 1400.71 191.856Z" fill="#F5D381"/>
</svg>
