<svg width="1546" height="323" viewBox="0 0 1546 323" fill="none" xmlns="http://www.w3.org/2000/svg">
<path d="M7.65034 -1.12729C6.47648 11.1257 5.00241 27.1625 4.56854 39.3456C4.43679 43.1586 4.35228 41.2246 4.27956 43.8597C4.18581 47.8529 4.25212 51.6439 4.41453 55.4811C4.46242 56.5997 4.51889 57.7102 4.58427 58.8411C4.6856 60.5121 4.31998 58.4444 4.43775 60.2043C5.12036 69.8214 6.90943 78.8065 10.0613 88.0222C12.2155 94.3276 14.9746 100.413 18.0913 106.324C27.2202 123.491 37.1343 140.256 48.3283 156.098C60.5614 173.585 75.6488 188.617 92.7628 202.109C93.4573 202.702 94.163 203.284 94.8784 203.855C103.456 210.766 114.753 216.816 125.931 222.053C130.945 224.405 136.234 226.067 141.284 227.407C143.171 227.899 142.094 227.421 142.456 227.501C148.141 228.698 146.189 228.581 149.882 229.473C157.31 231.207 165.259 232.637 173.17 233.892C180.81 235.131 188.582 234.79 195.508 233.211C201.426 231.716 195.426 232.951 201.373 231.435C201.784 231.318 200.366 231.978 201.969 231.484C204.79 230.634 209.425 228.725 212.549 227.166C213.46 226.721 214.248 226.312 214.838 226.001C219.826 223.265 220.608 222.707 224.999 219.569C230.966 215.207 237.555 209.288 243.152 203.597C244.345 202.382 242.619 203.841 244.501 201.886C244.626 201.756 244.766 201.611 244.917 201.454C247.053 199.283 251.366 194.553 252.853 192.851C254.462 191.043 253.91 191.926 254.216 191.623C256.767 189.15 261.531 182.306 262.133 181.427C270.585 169.84 277.371 158.897 283.841 147.513C286.148 143.444 288.176 139.181 289.927 134.685C294.027 124.247 296.45 112.556 297.578 101.505C297.844 99.0129 297.656 96.5436 297.005 94.248C296.096 90.993 294.298 88.154 292.229 85.5946C287.757 81.746 279.703 84.5869 273.415 86.0876C269.296 87.2281 265.331 89.0847 261.592 91.6254C260.289 92.5289 261.939 91.6555 260.371 92.7778C254.607 96.9433 250.097 102.425 245.327 107.971C237.379 118.503 232.936 132.046 227.658 144.601C226.877 146.556 227.671 143.952 226.88 145.902C226.666 146.43 226.445 146.976 226.217 147.54C221.077 159.318 218.313 178.193 218.81 185.485C218.46 189.969 218.225 194.978 218.034 199.84C217.845 204.246 218.428 208.533 219.274 212.116C220.544 216.892 218.836 212.391 220.949 218.118C221.47 219.392 220.992 217.659 221.778 219.564C223.478 223.603 225.631 227.683 227.962 231.654C230.211 235.506 233.013 239 235.988 242.033C237.22 243.279 237.012 242.799 237.383 243.131C240.45 245.914 245.525 250.668 246.716 251.626C251.564 255.642 255.953 258.811 260.335 261.87C263.985 264.404 267.778 266.714 272.056 269.142C274.245 270.373 271.776 268.719 273.88 269.883C284.84 275.902 296.659 281.275 308.005 285.93C310.536 286.963 308.124 286.222 309.332 286.725C314.65 288.908 315.982 288.997 321.139 290.954C321.261 291 321.361 291.04 321.443 291.075C322.086 291.35 321.575 291.315 321.746 291.394C324.776 292.794 327.644 293.3 328.459 293.56C338.746 296.787 345.298 299.057 355.451 301.453C356.669 301.733 353.976 300.873 357.399 301.67C380.001 306.888 404.368 310.338 427.249 312.863C427.416 312.882 427.583 312.9 427.75 312.918C431.318 313.307 428.752 313.213 428.974 313.256C432.642 313.944 435.032 313.739 436.223 313.834C445.442 314.578 454.073 315.604 460.388 315.548C499.529 318.489 538.64 319.429 577.572 319.704C578.066 319.706 577.181 319.921 578.168 319.925C588.982 319.95 588.087 319.678 593.72 319.244C594.29 319.199 594.925 319.152 595.643 319.101C597.617 318.968 603.661 319.303 604.189 319.32C606.142 319.396 604.129 319.763 604.782 319.771C610.177 319.808 609.267 318.818 616.523 318.539C616.75 318.532 615.804 318.76 616.414 318.754C618.307 318.737 620.181 318.58 622.036 318.558C626.276 318.504 627.818 318.937 634.27 318.249C635.085 318.155 633.802 317.672 640.269 317.251C642.851 317.103 654.25 316.147 657.44 315.849C660.632 315.574 658.462 315.976 658.69 315.962C667.308 315.336 664.046 315.766 668.401 315.659C672.733 315.532 671.445 314.794 673.187 314.488C674.921 314.189 681.225 313.589 682.781 313.443C684.339 313.305 682.425 313.685 683.805 313.538C692.92 312.534 687.731 312.549 690.693 311.985C697.68 310.625 703.276 310.38 709.704 309.344C711.454 309.06 710.005 309.16 711.544 308.879C717.685 307.749 721.363 307.283 728.299 305.757C729.419 305.513 734.953 304.027 738.654 303.558C739.175 303.494 737.759 303.95 740.351 303.455C744.22 302.718 751.27 301.253 755.372 300.292C758.444 299.574 754.86 300.093 758.75 299.316C760.462 298.973 757.335 299.83 760.554 299.17C761.561 298.962 763.063 298.637 764.763 298.258C768.393 297.452 772.961 296.386 775.077 295.883C778.192 295.143 776.441 295.348 776.689 295.275C778.222 294.837 784.104 293.324 784.658 293.186C811.157 286.719 835.552 280.398 860.999 272.646C863.007 272.032 861.606 272.231 861.912 272.135C868.704 269.987 863.486 272.162 868.316 270.89C867.489 270.688 870.374 269.895 875.131 268.368C877.44 267.625 876.129 267.857 876.335 267.775C879.714 266.454 882.177 266.019 882.813 265.888C885.148 265.41 887.553 264.334 889.145 263.997C890.728 263.66 887.272 265.029 891.843 263.553C893.081 262.991 889.554 263.705 893.014 262.517C906.118 258.067 930.605 250.003 941.076 246.245C951.525 242.532 954.88 241.252 960.959 239.063C971.938 235.075 967.809 236.294 974.561 233.591C981.276 230.882 978.256 232.823 979.286 232.601C980.301 232.382 981.291 231.826 982.519 231.446C983.745 231.067 981.198 232.166 984.019 231.111C986.798 230.078 994.35 226.818 995.27 226.273C997.22 225.122 993.653 226.143 1001.06 223.342C1001.49 223.18 1000.18 223.909 1001.81 223.28C1014.74 218.292 1028.05 212.823 1040.85 207.541C1042.61 206.816 1041.13 207.679 1042.15 207.259C1044.98 206.098 1046.79 205.324 1048.02 204.768C1051.4 203.24 1050.38 203.382 1054.53 201.265C1053.43 202.326 1056.82 201.235 1064.81 197.737C1069.63 195.621 1068.73 195.758 1071.76 194.236C1072.67 193.78 1076.13 192.417 1076.71 192.039C1078.59 190.8 1075.23 191.865 1083.53 188.32C1083.89 188.165 1082.83 188.862 1084.08 188.313C1092.17 184.751 1092.98 183.97 1101.66 179.949C1108.46 176.799 1120.64 171.397 1128.38 167.791C1128.48 168.418 1135.71 164.856 1138.49 163.072C1143.49 160.715 1148.88 158.115 1153.73 155.849C1155.4 155.069 1154.39 155.752 1154.61 155.668C1157.95 154.393 1159.94 152.98 1161.01 152.446C1172.61 146.667 1182.22 142.31 1193.18 136.565C1193.57 136.359 1194.01 135.675 1197.12 134.479C1197.32 134.403 1193.74 136.39 1198.97 133.817C1204.19 131.25 1214.1 126.562 1221.24 122.757C1222.97 121.832 1227.2 119.323 1230.88 117.762C1231.37 117.556 1230.91 117.925 1231.62 117.64C1233.93 116.716 1234.94 115.728 1237.68 114.744C1240.41 113.767 1245.94 111.264 1253.08 107.34C1253.3 107.215 1254.88 106.034 1257.15 104.873C1260.76 103.036 1266.02 100.417 1269.78 98.4744C1271.59 97.5427 1270.34 97.9521 1270.65 97.7872C1282.83 91.3743 1291.6 87.0307 1304.68 80.2787C1307.09 79.0395 1313.83 75.1794 1318.54 72.9529C1323.68 70.5264 1319.06 74.1312 1330.54 67.7902C1335.25 65.1857 1340.56 60.8965 1349.31 56.9995C1359.03 51.7085 1368.37 46.801 1377.79 41.7663C1384.23 38.3261 1390.57 34.902 1397.07 31.2646C1397.83 30.8418 1400.01 29.2396 1401.7 28.3273C1404.25 26.948 1405.8 26.2943 1407.58 25.3363C1415.22 21.2122 1422.25 17.1724 1429.54 13.0912C1432.33 11.5207 1431.44 12.2302 1434.76 10.3515C1438.02 8.49709 1440.19 6.99194 1444.66 4.47112C1448.06 2.54314 1451.61 0.969971 1456.02 -1.83324C1455.89 -2.33698 1458.98 -4.20089 1463.94 -8.07726C1464.9 -8.83472 1463.76 -8.16975 1464.21 -8.53671C1466.01 -10.0193 1467.76 -11.2796 1469.39 -12.7843C1469.79 -13.151 1469.7 -13.2886 1470.02 -13.5949C1470.57 -14.1265 1471.19 -14.6992 1471.87 -15.2994C1474.53 -17.6548 1477.74 -20.167 1478.42 -20.7067C1481.62 -23.2151 1482.92 -24.6546 1485.3 -26.6503C1487.7 -28.6713 1484.29 -25.4644 1487.04 -27.8548C1492.75 -32.8079 1499.89 -39.3391 1505.54 -44.5497C1507.78 -46.6127 1506.11 -45.3608 1506.42 -45.6589C1511.04 -49.993 1515.87 -54.1986 1518.15 -56.8946C1521.32 -58.6077 1521.12 -59.3491 1524.53 -62.505L1524.52 -62.4892C1525.23 -63.3912 1526.12 -64.4851 1527.27 -65.8595C1527.72 -66.4082 1528.7 -66.7977 1527.05 -64.604C1526.48 -63.8551 1525.78 -63.0002 1524.99 -62.0887L1524.93 -62.0237C1523.2 -60.6096 1521.22 -58.8057 1519.44 -57.0604C1518.81 -56.4334 1515.37 -52.572 1514.87 -52.065C1511.02 -48.1663 1509.89 -48.1748 1509.66 -48.0237C1506.94 -46.1273 1502.65 -41.4576 1501.46 -40.3246C1495.99 -35.0809 1491.14 -30.8421 1486.49 -26.5296C1483.45 -23.7104 1483.49 -23.0691 1481.03 -20.9078C1477.73 -18.0111 1475.23 -15.9925 1472.91 -14.1025C1469.52 -11.3536 1466.58 -8.93024 1461.82 -5.07319C1460.1 -3.72565 1462.24 -4.40501 1455.41 -0.441528C1455.01 -0.201248 1449.83 2.58636 1447.07 4.51533C1446.73 4.76154 1446.8 4.90828 1446.34 5.195C1443.16 7.196 1441 8.30547 1437.46 10.4098C1433.93 12.5091 1429.79 14.9565 1425.69 17.1825C1423.19 18.5392 1419.98 19.9745 1418.72 20.589C1415.36 22.2029 1411.95 24.4717 1409.76 25.3765C1407.55 26.2902 1411.37 23.7541 1405.93 26.5404C1405.93 27.0184 1405.67 27.6492 1405.55 28.1982C1396.46 33.1457 1387.41 37.9425 1378.34 42.7887C1375.59 44.2577 1372.63 45.842 1369.82 47.3587C1368.35 48.1496 1369.96 47.5406 1368.38 48.397C1361.59 52.0839 1355.74 55.0236 1348.74 58.8275C1343.39 61.7358 1337.56 65.1021 1331.9 68.1638C1328.22 69.5663 1319.9 74.1453 1313.75 77.323C1311.57 78.4472 1311.67 78.2521 1310.14 79.0083C1304.34 81.8713 1307.22 80.8442 1305.67 81.7288C1299 85.5419 1298.02 84.9662 1290.03 89.1503C1289.62 89.367 1284.68 92.5093 1283.97 92.9128C1279.52 95.4512 1283.13 93.1469 1280.29 94.5755C1275.1 97.1824 1271.42 98.9459 1265.41 102.2C1263.65 103.159 1259.55 105.62 1255.99 107.163C1255.52 107.366 1255.69 107.087 1255.32 107.265C1248.6 110.516 1248.72 111.05 1245.01 113.141C1241.28 115.239 1235.3 117.855 1234.05 118.366C1230.81 119.697 1236.39 117.053 1236.54 116.945C1238.37 115.659 1234.15 117.862 1230.86 119.49C1230.14 119.269 1225.62 121.585 1227.47 121.171C1227.68 121.122 1230.19 119.804 1230.86 119.49C1228.22 121.397 1223.26 123.969 1217.49 126.326C1214.8 127.421 1217.14 125.96 1209.29 129.986C1205.72 131.815 1207.27 131.442 1204.16 133.1C1197.03 136.892 1187.48 141.232 1180.04 144.928C1177.34 146.271 1180.07 145.157 1178.22 146.081C1173.32 148.535 1168.92 150.508 1164 152.973C1163.56 153.196 1164.74 152.852 1163.2 153.599C1151.55 159.258 1141.3 164.005 1129.06 169.762C1123.14 172.549 1112.59 177.589 1106.43 180.392C1095.73 185.279 1082.47 190.939 1073.32 195.072C1067.37 197.755 1068.74 197.37 1066.24 198.627C1061.41 201.052 1052.4 204.419 1051.2 204.849C1051.16 204.865 1056.3 202.59 1053.51 203.683C1051.82 204.172 1051.26 204.823 1051.2 204.849C1050.97 204.933 1049.93 205.363 1048.53 205.95C1045.06 207.407 1039.44 209.773 1038.01 210.406C1036.9 210.895 1037.6 210.813 1037.02 211.066C1023.23 217.06 1009.29 222.797 995.063 228.299C994.81 228.395 995.109 228.042 994.515 228.269C986.235 231.417 981.052 233.697 974.33 236.423C967.541 239.17 962.134 241.122 957.954 242.264C952.829 244.208 945.383 246.729 941.04 248.169C936.732 249.599 936.292 250.201 935.919 250.342C924.251 254.739 917.361 256.85 905.101 260.894C899.282 262.817 887.687 266.638 881.376 268.662C876.339 270.285 873.357 271.105 868.697 272.598C868.072 272.798 868.761 272.785 868.572 272.851C863.47 274.642 865.823 273.44 864.734 273.685C860.772 274.567 858.349 275.134 851.732 277.227C850.202 277.711 845.954 279.641 843.143 280.486C839.514 281.575 840.857 280.945 837.036 282.086C836.711 282.183 836.814 282.308 834.457 282.963C823.518 286.002 811.544 289.12 800.128 292.034C798.553 292.435 800.628 292.15 798.357 292.731C787.765 295.44 776.113 298.226 765.725 300.472C765.563 300.507 765.417 300.538 765.287 300.564C763.34 300.964 764.692 300.507 764.158 300.581C760.67 301.072 755.946 302.551 755.142 302.733C736.14 307.073 721.439 309.601 701.832 312.986C700.796 313.173 692.585 314.915 688.867 315.037C688.598 315.049 684.926 315.168 681.721 315.869C681.524 315.911 683.821 315.819 679.857 316.318C675.88 316.819 669.513 317.73 664.016 318.08C662.272 318.194 658.143 318.224 653.004 319.006C652.669 319.068 644.738 320.463 641.844 320.162C641.374 320.109 641.823 319.569 635.66 320.248C634.482 320.376 636.634 320.358 633.526 320.627C628.761 321.037 622.433 321.225 616.574 321.693C615.55 321.778 611.206 322.302 607.702 322.134C607.153 322.108 608.188 321.902 606.342 321.937C602.212 322.013 598.02 322.112 593.772 322.189C589.005 322.276 584.18 322.336 579.462 322.304C576.298 322.281 577.92 321.988 574.629 321.925C571.335 321.863 564.717 321.782 561.27 321.889C557.829 321.997 561.589 322.479 556.426 322.474C533.999 322.429 511.796 321.501 489.435 320.33C486.116 320.153 488.87 320.462 483.971 320.202C468.564 319.413 443.57 317.727 426.949 315.78C424.115 315.458 421.562 315.142 419.314 314.84C406.884 313.128 422.579 314.742 413.077 313.515C408.507 312.917 403.441 312.775 402.344 312.641C391.494 311.326 384.02 309.895 374.331 308.164C372.333 307.801 374.247 308.382 372.553 308.069C366.724 306.989 360.685 305.603 355.161 304.307C352.697 303.725 353.103 303.992 350.844 303.418C345.429 302.03 340.673 300.652 335.496 298.935C335.025 298.777 338.296 299.553 334.333 298.346C330.152 297.061 325.341 295.414 320.51 293.68C317.957 292.765 315.393 291.836 312.895 290.942C310.745 290.165 310.52 290.499 306.06 288.439C305.126 287.997 306.503 288.103 301.078 286.267C300.166 285.981 291.123 282.638 287.012 280.272C285.923 279.66 283.225 277.956 280.746 276.766C280.408 276.605 281.657 277.464 279.607 276.445C272.584 272.925 265.393 268.897 258.647 264.298C258.491 264.191 258.335 264.085 258.181 263.979C256.367 262.731 258.932 264.783 256.237 262.913C248.853 257.77 239.778 250.887 233.6 244.265C231.343 241.813 233.044 243.383 232.888 243.192C230.486 240.127 228.807 238.497 228.016 237.451C226.965 236.041 226.045 234.643 225.227 233.254C222.354 228.352 220.114 223.88 218.031 218.426C217.321 216.494 217.631 217.932 217.476 217.552C215.971 213.547 217.279 216.47 216.544 213.87C215.376 209.484 214.684 204.59 214.853 199.739C214.951 196.652 215.06 193.57 215.206 190.607C215.347 187.891 214.948 190.933 215.083 188.491C215.848 174.388 218.097 159.505 223.352 146.429C223.469 146.135 223.585 145.844 223.701 145.554C224.679 143.108 224.241 144.715 224.478 144.217C226.112 140.782 227.822 135.478 228.277 134.274C230.326 128.821 231.35 126.771 233.431 122.044C235.915 116.691 238.238 111 242.728 105.617C250.11 96.5051 259.974 86.1889 272.537 82.9581C276.086 81.9799 279.628 81.109 283.296 80.6799C286.828 80.4309 291.247 79.7254 294.767 83.537C295.605 84.5756 296.403 85.6522 297.123 86.7749C300.087 91.222 301.428 96.809 300.791 101.847C298.9 119.058 294.609 134.519 286.496 149.003C283.162 154.923 279.633 160.926 275.719 167.085C274.708 168.67 275.927 167.2 275.055 168.566C266.945 181.203 257.905 193.134 247.391 203.877C243.269 208.081 239.031 212.211 234.528 216.138C233.212 217.275 235.263 215.815 233.146 217.635C228.811 221.366 222.87 225.697 217.675 228.461C215.144 229.803 218.431 227.811 215.88 229.144C215.253 229.464 214.617 229.779 213.974 230.086C208.547 232.688 202.544 234.98 196.514 236.349C193.641 236.974 198.039 236.297 194.282 237.055C187.128 238.41 179.764 238.484 172.628 237.36C156.479 234.68 140.106 232.278 124.464 225.185C122.902 224.434 121.339 223.673 119.779 222.894C118.209 222.106 117.023 221.033 113.663 219.397C113.355 219.38 113.299 219.52 113.127 219.584C105.158 215.446 97.3705 210.752 90.4319 204.85C73.5917 191.63 57.8393 176.036 45.3845 158.21C41.7873 153.177 38.3601 148.02 35.0291 142.798C34.1941 141.485 35.4327 143.887 33.817 141.341C26.9508 130.456 20.58 119.594 14.5841 108.189C12.4415 104.1 10.4434 99.8738 8.69554 95.4681C8.05746 93.7917 8.71873 94.5166 6.86075 89.5852C6.47466 88.7348 4.09284 81.1524 3.5975 79.1476C3.52077 78.8783 3.65766 80.3413 3.06469 77.843C1.39854 70.6641 0.47484 63.1699 0.155124 55.6778C-0.170151 47.9928 0.0545187 40.3221 0.472769 32.8983C0.611748 30.5271 0.695637 33.0644 0.798609 31.3756C1.53772 19.4322 2.59878 6.47823 3.94889 -4.84035C4.86139 -12.4179 4.93807 -9.56932 5.72113 -13.5609C5.83162 -14.1263 6.3403 -18.8195 6.57561 -19.0402C7.16765 -19.6072 7.49984 -17.2719 8.15962 -18.145C8.30105 -18.3294 8.84466 -24.6296 8.73739 -20.8763C8.72888 -20.6142 8.33802 -16.0466 8.31801 -14.9137C8.30337 -14.1254 8.6654 -15.5102 8.58367 -13.9074C8.50202 -12.3033 8.13829 -10.5712 7.96608 -7.91814C7.79764 -5.26736 8.15399 -6.40184 7.65034 -1.12729ZM921.62 254.499C917.585 255.668 917.244 256.574 921.476 254.934C921.681 254.854 921.828 254.438 921.62 254.499ZM1381.62 40.3513C1380.26 40.982 1379.02 41.6166 1378.01 42.1713C1375.45 43.577 1374.52 44.4263 1377.06 43.2703C1377.49 43.0768 1377.9 42.8783 1378.28 42.6803C1381.2 41.1824 1382.94 39.7383 1381.62 40.3513ZM1431.38 12.8058C1425.68 15.7203 1425.31 17.1402 1431.17 13.5946C1431.53 13.3819 1431.72 12.6314 1431.38 12.8058ZM3.9266 5.14917C3.94094 5.09026 4.27624 1.71459 4.27574 1.63046C4.21332 -0.193336 3.54108 6.56667 3.9266 5.14917ZM1477.68 -19.3212C1476.09 -18.1132 1471.86 -14.1834 1473.85 -15.691C1475.44 -16.8875 1479.67 -20.841 1477.68 -19.3212ZM709.941 309.674C709.871 309.676 707.464 310.076 707.524 310.128C707.717 310.303 711.064 309.672 709.941 309.674ZM1542.76 -89.0225C1536.08 -76.4283 1530.11 -70.1084 1538.55 -82.9731C1540.01 -85.3508 1535.66 -77.7022 1537.58 -80.6808C1540 -84.4834 1541.64 -87.643 1542.98 -91.2233L1542.99 -91.252C1543.65 -92.8822 1544.65 -94.441 1545.85 -96.0652C1546.39 -96.7438 1544.32 -93.4797 1543.49 -91.0393L1543.49 -91.0518C1543.2 -90.0207 1542.85 -89.2211 1542.75 -88.9996C1542.75 -89.0073 1542.76 -89.0149 1542.76 -89.0225ZM919.044 254.433C918.958 254.453 915.793 255.523 915.712 255.56C914.07 256.37 920.47 254.209 919.044 254.433ZM568.565 319.929C568.374 319.913 560.562 319.865 560.31 319.878C556.23 320.251 572.03 320.352 568.565 319.929ZM1128.51 167.748C1131.73 165.97 1135.69 164.065 1138.47 163.079C1135.16 164.631 1131.84 166.2 1128.51 167.748Z" fill="#F5D381"/>
</svg>
