<svg width="1920" height="521" viewBox="0 0 1920 521" fill="none" xmlns="http://www.w3.org/2000/svg">
<path d="M0.680947 401.679C0.202788 386.069 0.75703 365.545 1.46241 349.93C1.67294 345.041 1.41938 347.498 1.56211 344.122C1.74076 339.929 1.9614 335.918 2.1471 331.879C2.25366 329.562 2.39814 327.251 2.58019 324.893C2.75243 322.752 2.29816 325.393 2.49149 323.153C3.59899 310.888 6.17748 299.447 10.5405 287.777C13.0168 281.145 16.0084 274.718 19.3176 268.446C30.698 247.068 43.0414 226.207 56.9776 206.489C72.8066 185.111 86.6638 161.627 106.181 143.485C109.124 140.972 112.018 138.413 114.925 135.869C123.923 128.079 133.991 118.97 145.799 113.258C154.616 109.073 163.68 105.518 172.359 103.137C174.752 102.488 173.375 103.06 173.833 102.95C181.044 101.361 178.582 101.606 183.299 100.596C189.693 99.329 196.438 98.575 203.255 98.5489C216.545 98.5113 230.056 99.5245 242.174 101.188C249.982 102.337 242.105 101.521 249.975 102.556C250.519 102.633 248.582 102.108 250.716 102.448C254.96 103.1 262.475 104.704 266.652 105.944C267.218 106.105 267.758 106.272 268.192 106.411C275.019 108.802 276.082 109.444 282.222 112.602C290.549 117.043 300.036 123.222 307.913 129.628C309.587 130.999 307.245 129.338 309.887 131.559C311.957 133.285 316.591 137.39 319.389 140.263C320.182 141.063 320.853 141.747 321.324 142.224C323.49 144.431 322.694 143.371 323.097 143.743C326.455 146.776 333.061 155.101 333.884 156.186C347.46 172.927 357.864 188.802 367.653 206.092C369.148 208.744 370.529 211.488 371.809 214.319C379.104 230.431 383.03 249.178 384.952 265.906C385.021 266.508 385.093 267.155 385.157 267.749C386.991 281.264 387.261 295.041 378.041 304.182C374.696 307.554 369.589 308.878 364.459 308.99C362.451 309.002 364.8 308.782 362.355 308.737C355.619 308.463 348.896 306.645 342.795 303.767C326.399 295.445 314.141 280.821 301.901 266.891C301.158 266.077 300.471 265.19 299.816 264.268C298.335 262.111 300.042 265.039 298.572 262.858C290.426 250.034 281.871 227.759 278.461 217.356C278.231 216.63 278.036 215.96 277.875 215.352C273.951 205.056 271.214 191.883 269.884 182.084C269.042 175.757 269.46 181.95 268.797 174.128C268.667 172.363 269.055 174.638 268.855 171.994C268.386 165.64 268.091 158.931 267.89 152.285C267.733 147.357 268.335 142.462 269.483 137.92C270.042 135.772 270.078 136.41 270.27 135.812C271.81 130.782 275.113 122.59 276.016 120.866C277.456 117.892 278.94 115.161 280.43 112.562C285.574 103.686 291.99 97.3641 300.096 90.4823C302.552 88.4362 299.8 91.0242 302.166 89.0835C308.143 84.2292 314.495 79.6214 320.923 75.1287C327.728 70.3936 334.942 66.2011 342.021 62.3748C345.09 60.7302 342.168 62.0388 343.624 61.2502C350.102 57.7998 351.727 57.442 358.05 54.372C359.386 53.7328 358.557 53.927 358.794 53.7957C362.513 51.7433 366.055 50.6552 367.057 50.2277C378.454 45.412 386.124 42.0618 396.69 38.2175C397.872 37.7905 399.107 37.356 400.379 36.9217C401.884 36.4111 398.561 37.7836 402.799 36.3409C431.009 26.7426 462.025 20.3491 491.209 15.9982C495.748 15.3234 492.482 15.6226 492.768 15.561C497.388 14.5855 500.454 14.616 501.962 14.4344C511.706 13.2586 520.966 11.9938 528.423 11.4418C529.898 11.3329 531.314 11.2509 532.658 11.2024C582.472 6.18488 632.282 4.24719 681.912 3.10962C682.543 3.0965 681.409 2.90106 682.668 2.87592C697.834 2.60156 694.926 2.96716 704.957 3.34039C707.481 3.43451 715.176 2.98108 715.849 2.95355C718.335 2.83887 715.759 2.51141 716.592 2.49139C723.468 2.34619 722.338 3.3559 731.599 3.4848C731.889 3.48743 730.674 3.27942 731.452 3.27228C732.795 3.2597 734.127 3.29022 735.448 3.31653C736.516 3.33783 737.576 3.35651 738.628 3.34833C744.022 3.31104 745.98 2.84332 754.224 3.3877C755.264 3.46368 753.665 3.97528 761.919 4.2536C765.213 4.34235 779.78 5.05658 783.863 5.29791C787.939 5.51208 785.154 5.151 785.445 5.16058C796.444 5.63043 792.284 5.26172 797.815 5.29663C803.341 5.35895 801.749 6.11847 803.981 6.39954C806.213 6.67383 814.265 7.2041 816.251 7.33875C818.226 7.46289 815.782 7.09961 817.537 7.23389C829.196 8.17596 822.59 8.19812 826.406 8.74826C835.387 10.0837 842.473 10.3334 850.716 11.4196C852.949 11.717 851.106 11.6057 853.094 11.9026C860.926 13.087 865.675 13.6092 874.553 15.2668C875.994 15.5328 883.107 17.14 887.826 17.7058C888.488 17.7835 886.655 17.2862 889.972 17.8509C894.994 18.7021 903.863 20.3582 909.223 21.4893C913.119 22.3102 908.579 21.6693 913.533 22.5843C915.746 22.9965 911.685 22.0101 915.847 22.8011C919.932 23.5681 930.453 25.8047 934.414 26.6855C938.381 27.5597 936.168 27.2827 936.484 27.3657C938.446 27.8713 945.992 29.6604 946.693 29.823C947.145 29.9258 947.598 30.0287 948.051 30.1318C981.442 37.7481 1012.26 45.3859 1044.35 54.687C1046.91 55.4301 1045.15 55.1457 1045.54 55.2612C1054.3 57.8853 1047.53 55.3342 1053.68 56.9265C1052.66 57.0828 1056.34 58.0641 1062.44 59.9299C1065.39 60.8322 1063.73 60.514 1064 60.6106C1068.32 62.1664 1071.49 62.7852 1072.28 62.9544C1075.24 63.5936 1078.33 64.8452 1080.37 65.3011C1082.38 65.751 1077.94 64.1221 1083.78 65.9323C1085.38 66.59 1080.91 65.6272 1085.34 67.0712C1102.13 72.4825 1133.43 82.5122 1146.83 87.1843C1160.17 91.7847 1164.45 93.3647 1172.26 96.1081C1186.24 101.07 1181.07 99.5164 1189.66 102.825C1198.32 106.189 1194.35 103.928 1195.66 104.244C1196.94 104.553 1198.21 105.201 1199.76 105.69C1201.3 106.178 1198.06 104.843 1201.64 106.153C1205.24 107.466 1214.87 111.444 1216.07 112.092C1218.62 113.45 1214.12 112.101 1223.57 115.623C1224.11 115.825 1222.43 114.964 1224.5 115.748C1241.02 122.011 1258.05 128.855 1274.4 135.505C1276.63 136.414 1274.73 135.386 1276.03 135.913C1289.64 141.449 1284.68 139.78 1291.91 143.276C1290.71 142.275 1293.44 143.092 1300.41 145.982C1301.76 146.543 1303.28 147.183 1304.96 147.907C1311.11 150.563 1309.96 150.325 1313.9 152.216C1315.06 152.778 1319.46 154.526 1320.21 154.975C1322.66 156.45 1318.4 155.007 1329.01 159.517C1329.47 159.713 1328.09 158.884 1329.68 159.577C1340 164.074 1341.1 164.979 1352.18 170.037C1360.87 174.004 1376.4 180.881 1386.28 185.454C1386.33 184.804 1395.58 189.277 1399.18 191.436C1405.56 194.42 1412.46 197.711 1418.64 200.592C1420.76 201.585 1419.45 200.763 1419.72 200.873C1423.95 202.56 1426.54 204.254 1427.91 204.927C1442.73 212.208 1454.98 217.818 1468.99 225.029C1469.48 225.284 1470.11 226.063 1474.03 227.65C1474.29 227.751 1469.7 225.278 1476.36 228.543C1483.01 231.802 1495.62 237.802 1504.77 242.597C1506.98 243.754 1512.44 246.873 1517.1 248.916C1517.72 249.186 1517.11 248.747 1518.01 249.124C1520.92 250.347 1522.25 251.495 1525.71 252.834C1529.21 254.196 1536.12 257.383 1545.31 262.344C1545.6 262.5 1547.64 263.917 1550.54 265.389C1555.19 267.751 1561.82 271.065 1566.65 273.547C1568.98 274.746 1567.39 274.166 1567.79 274.377C1583.28 282.475 1594.5 288.073 1611.17 296.682C1614.18 298.232 1622.89 303.114 1628.84 305.988C1635.48 309.2 1629.26 304.757 1644.04 312.83C1649.98 316.076 1656.92 321.22 1668.05 326.379C1682.53 334.216 1696.37 341.475 1710.37 349.006C1716.62 352.367 1722.69 355.664 1728.99 359.16C1729.95 359.695 1732.68 361.586 1734.89 362.782C1738.25 364.6 1739.99 365.355 1742.38 366.644C1752.18 371.934 1761.08 376.992 1770.39 382.175C1774.01 384.197 1772.78 383.301 1777.05 385.702C1781.2 388.045 1784.01 389.907 1789.71 393.111C1794.03 395.546 1798.58 397.682 1804.16 401.14C1804.14 401.712 1808.02 404.001 1814.51 408.774C1815.76 409.71 1814.31 408.86 1814.9 409.308C1817.25 411.121 1819.51 412.697 1821.64 414.555C1822.15 415.004 1822.08 415.151 1822.49 415.53C1823.9 416.819 1825.72 418.384 1827.47 419.863C1830.11 422.095 1832.57 424.067 1833.21 424.577C1837.26 427.833 1838.93 429.595 1841.96 432.175C1844.98 434.746 1840.65 430.718 1844.13 433.749C1851.38 440.071 1860.53 448.423 1867.71 455.033C1870.59 457.685 1868.48 456.032 1868.89 456.415C1874.78 461.926 1880.88 467.315 1883.87 470.677C1888.02 473.218 1887.57 473.976 1892.86 478.714L1892.84 478.695C1893.62 479.635 1894.52 480.726 1895.6 482.019C1896.18 482.717 1897.32 483.294 1895.18 480.526C1894.65 479.84 1894.03 479.081 1893.34 478.275L1893.27 478.209C1890.86 476.205 1887.96 473.553 1885.38 471.049C1884.57 470.259 1880.07 465.397 1879.46 464.79C1874.48 459.839 1873.23 459.744 1872.92 459.514C1869.52 456.985 1863.98 451.179 1862.45 449.73C1855.44 443.089 1849.25 437.652 1843.32 432.196C1839.42 428.616 1839.37 427.896 1836.26 425.161C1833.27 422.543 1830.81 420.476 1828.56 418.613C1823.03 414.048 1818.96 410.881 1811.54 405.275C1809.29 403.63 1811.96 404.601 1803.27 399.592C1802.69 399.247 1796.16 395.704 1792.6 393.328C1792.13 393.013 1792.25 392.898 1791.65 392.531C1787.52 390.005 1784.83 388.603 1780.3 385.944C1775.8 383.313 1770.49 380.227 1765.25 377.378C1762.13 375.683 1757.99 373.743 1756.44 372.974C1752.13 370.841 1747.72 368.032 1745.03 366.853C1742.25 365.632 1747.24 368.802 1740.21 365.159C1740.16 364.653 1739.79 363.958 1739.58 363.363C1730.02 358.17 1720.52 353.101 1710.93 347.976C1705.42 345.034 1699.73 341.994 1694.03 338.932C1692.11 337.899 1694.16 338.74 1692.14 337.648C1683.67 333.07 1675.95 329.131 1667.17 324.385C1660.22 320.634 1652.77 316.415 1645.64 312.581C1640.97 310.654 1630.3 304.847 1622.54 300.833C1619.8 299.413 1619.92 299.622 1617.94 298.634C1610.54 294.939 1614.18 296.364 1612.21 295.256C1603.68 290.485 1602.56 290.984 1592.33 285.649C1591.77 285.358 1585.47 281.514 1584.56 281.009C1578.86 277.829 1583.52 280.674 1579.87 278.829C1573.28 275.509 1568.54 273.208 1560.91 269.129C1558.69 267.939 1553.34 264.845 1548.87 262.845C1548.28 262.58 1548.52 262.894 1548.05 262.666C1539.55 258.521 1539.54 257.925 1534.82 255.329C1530.08 252.724 1522.44 249.282 1520.89 248.619C1516.8 246.866 1523.87 250.255 1524.07 250.386C1526.44 251.941 1521.06 249.16 1516.88 247.09C1516.04 247.254 1510.22 244.296 1512.54 244.942C1512.81 245.017 1516.03 246.691 1516.88 247.09C1513.43 244.785 1507.11 241.538 1499.8 238.428C1496.37 236.974 1499.41 238.771 1489.39 233.688C1484.84 231.383 1486.75 231.93 1482.77 229.85C1473.67 225.097 1461.52 219.508 1452.01 214.83C1448.56 213.132 1452.01 214.592 1449.66 213.425C1443.4 210.329 1437.8 207.787 1431.52 204.684C1430.95 204.403 1432.43 204.889 1430.47 203.943C1415.58 196.776 1402.53 190.737 1386.89 183.453C1379.34 179.928 1365.84 173.585 1357.99 170.045C1344.34 163.869 1327.4 156.654 1315.72 151.49C1308.08 148.112 1309.84 148.657 1306.62 147.109C1305 146.335 1303.04 145.47 1301 144.608C1295.1 142.111 1288.58 139.66 1287.44 139.244C1287.39 139.223 1293.96 142.055 1290.4 140.665C1288.28 140.004 1287.52 139.277 1287.44 139.244C1286.4 138.844 1273.22 133.386 1270.56 132.256C1269.13 131.644 1270.01 131.795 1269.26 131.48C1251.61 124.013 1233.79 116.854 1215.6 109.972C1215.28 109.854 1215.69 110.242 1214.93 109.96C1204.42 106.037 1197.76 103.257 1189.08 99.8779C1180.45 96.5203 1173.53 94.079 1168.19 92.5664C1161.63 90.1616 1152.07 86.982 1146.59 85.1978C1141.07 83.3966 1140.46 82.7464 1139.98 82.5717C1125.04 77.1944 1116.27 74.5397 1100.58 69.5475C1093.14 67.174 1078.29 62.4878 1070.23 60.023C1063.78 58.0396 1059.94 57.0061 1054.01 55.2036C1053.21 54.9619 1054.07 55.0161 1053.83 54.9378C1047.31 52.8057 1050.34 54.1708 1048.95 53.8533C1043.88 52.7031 1040.82 51.9851 1032.35 49.4674C1030.44 48.8997 1024.83 46.6548 1021.3 45.6569C1016.66 44.3459 1018.34 45.0441 1013.49 43.6826C1013.07 43.5668 1013.2 43.4474 1010.2 42.6551C996.194 38.963 980.861 35.1789 966.268 31.6905C964.284 31.2171 966.9 31.5982 963.994 30.9026C959.012 29.7122 953.832 28.5042 948.686 27.338C939.716 25.3043 930.656 23.3537 922.246 21.6657C918.965 21.0096 920.985 21.5983 920.265 21.4979C915.891 20.885 909.75 19.218 908.739 19.0117C884.376 14.0139 865.564 11.175 840.469 7.72687C839.091 7.52545 828.624 5.79218 823.855 5.69397C823.536 5.68488 818.825 5.58453 814.732 4.91656C814.477 4.87598 817.406 4.94568 812.327 4.48407C807.252 4.02423 799.089 3.19781 792.081 2.9436C789.863 2.86072 784.612 2.90338 778.027 2.2262C777.604 2.16956 767.427 0.940125 763.772 1.30737C763.18 1.37048 763.768 1.90015 755.899 1.35797C754.393 1.25659 757.128 1.22577 753.166 1.02673C748.141 0.776794 741.789 0.698547 735.498 0.487183C734.177 0.442322 732.857 0.391113 731.551 0.330322C730.24 0.267395 724.696 -0.167053 720.241 0.0700073C719.543 0.106995 720.867 0.293091 718.515 0.294861C707.323 0.306763 695.623 0.217896 684.268 0.469543C680.244 0.560608 682.308 0.81842 678.117 0.952881C673.925 1.08563 665.487 1.31689 661.099 1.2923C656.71 1.26672 661.49 0.694214 654.919 0.823914C626.348 1.41901 598.061 2.99286 569.612 5.06049C565.375 5.37396 568.868 4.95093 562.653 5.41418C553.127 6.13239 540.729 7.14459 528.113 8.43729C510.268 10.2356 491.997 12.7202 480.476 14.7823C464.725 17.6485 484.63 14.5646 472.589 16.6905C466.781 17.7321 460.415 18.4148 459.003 18.6777C445.294 21.2139 435.911 23.6479 423.773 26.8879C421.275 27.566 423.668 26.677 421.537 27.2634C414.26 29.2715 406.729 31.7335 399.903 34.0774C397.341 34.9591 397.28 34.8627 395.68 35.4013C395.372 35.5059 395.006 35.6344 394.557 35.7988C387.881 38.2431 382.03 40.5657 375.663 43.3299C375.084 43.5825 379.101 42.157 374.239 44.158C366.366 47.4127 356.769 51.8415 347.928 56.0873C345.324 57.3498 345.008 57.0464 339.606 60.2024C338.474 60.8886 340.141 60.4224 333.585 63.6543C332.623 64.114 324.196 68.5233 318.994 72.3562C318.224 72.9136 317.529 73.4356 316.934 73.9069C315.674 74.8993 312.6 77.5304 309.757 79.5657C309.369 79.8422 310.782 78.5423 308.434 80.2622C300.232 86.3397 291.778 93.1371 284.768 101.288C282.928 103.485 285.47 100.035 282.764 103.364C280.97 105.635 279.203 108.175 277.604 110.91C272.769 119.087 268.234 128.63 266.295 137.195C265.386 141.374 266.198 138.523 266.144 138.831C265.421 143.766 264.903 146.686 264.792 148.354C264.715 149.737 264.698 151.077 264.731 152.386C264.94 160.538 265.374 167.323 266.053 175.312C266.279 177.858 265.914 176.072 265.945 176.581C266.316 181.852 266.252 177.904 266.664 181.22C267.85 190.508 269.785 200.828 272.593 209.94C273.636 213.279 272.223 209.599 273.186 212.594C273.843 214.597 274.552 216.589 275.318 218.574C281.335 233.806 287.086 249.556 295.385 263.59C297.273 266.525 296.249 264.577 296.676 265.168C297.541 266.321 298.522 267.648 299.661 268.917C302.194 271.781 304.616 274.96 305.371 275.846C310.163 281.552 312.243 283.597 316.884 288.315C323.7 295.081 331.48 302.13 341.278 306.94C353.031 312.046 368.567 316.426 380.339 306.48C389.607 297.32 390.094 283.977 389.114 273.98C388.912 271.735 388.634 269.516 388.401 267.403C385.707 244.006 380.699 223.494 370.298 204.61C364.625 194.543 358.482 184.487 351.339 174.169C349.969 172.202 351.545 174.049 350.363 172.356C341.754 160.075 332.306 148.506 321.858 137.845C313.59 129.481 304.281 122.351 294.405 115.953C292.54 114.765 295.356 116.276 292.357 114.38C286.202 110.515 278.045 106.092 270.916 103.624C267.411 102.462 272.044 104.213 268.506 103.085C268.184 102.988 267.866 102.896 267.549 102.808C259.672 100.633 251.167 99.1389 242.995 97.9885C239.377 97.4944 244.873 97.9844 240.161 97.3737C227.859 95.8475 215.575 95.0283 203.255 95.0108C183.063 94.9995 163.432 101.034 145.275 109.725C144.961 109.874 144.661 110.03 144.362 110.192C142.657 111.129 140.943 112.311 137.424 114.372C137.048 114.454 136.986 114.318 136.779 114.286C124.601 121.936 114.4 131.745 103.844 140.739C83.5985 159.549 70.0728 182.769 54.0297 204.375C50.646 209.106 47.3893 213.923 44.2091 218.796C43.1269 220.459 44.7915 217.452 42.7016 220.673C33.033 235.686 24.1749 250.701 15.8191 266.587C13.7688 270.503 11.8264 274.513 10.0455 278.655C9.17522 280.758 9.93458 279.815 7.4241 286.021C6.9083 287.088 3.63605 296.644 2.96885 299.177C2.86617 299.518 3.1399 297.676 2.30674 300.833C-0.265628 310.768 -1.66416 321.239 -2.10897 331.683C-2.4919 340.414 -2.9409 349.168 -3.2508 357.731C-3.35855 360.743 -3.01142 357.55 -3.0848 359.689C-3.61897 374.897 -4.03593 391.489 -3.22197 406.052C-2.63332 415.792 -2.42625 412.165 -1.73187 417.305C-1.64282 418.035 -1.13384 424.041 -0.881926 424.331C-0.283011 425.076 0.0278258 422.124 0.69703 423.263C0.818881 423.506 1.51746 431.501 1.31732 426.744C1.29066 426.414 0.851888 420.615 0.854894 419.178C0.847034 418.18 1.19638 419.953 1.13065 417.92C1.06913 415.887 0.736184 413.672 0.660699 410.3C0.604194 406.933 0.882599 408.401 0.680947 401.679ZM1121.79 77.2666C1116.64 75.7755 1116.13 74.8194 1121.57 76.8089C1121.83 76.9065 1122.06 77.3444 1121.79 77.2666ZM1709.13 347.704C1702.89 344.718 1698.76 341.95 1703.29 344.099C1707.84 346.252 1711.01 348.603 1709.13 347.704ZM1772.67 382.7C1765.42 378.938 1764.81 377.389 1772.33 381.838C1772.77 382.103 1773.09 382.923 1772.67 382.7ZM-2.58945 393.334C-2.58352 393.407 -2.50323 397.738 -2.5058 397.843C-2.70426 400.155 -2.86974 391.49 -2.58945 393.334ZM1832.16 422.929C1831.13 422.121 1829.29 420.5 1827.98 419.286C1826.68 418.096 1825.98 417.377 1827.22 418.335C1827.48 418.536 1827.79 418.794 1828.15 419.09C1830.52 421.087 1834.34 424.644 1832.16 422.929ZM850.989 11.0894C850.902 11.087 847.836 10.6723 847.908 10.6198C848.139 10.444 852.405 11.0981 850.989 11.0894ZM1915.36 511.529C1906.81 495.496 1899.39 487.334 1910.16 503.721C1912.03 506.752 1906.39 497.038 1908.83 500.857C1911.95 505.772 1914.11 509.78 1915.88 514.424L1915.89 514.453C1916.72 516.47 1917.95 518.404 1919.42 520.434C1920.09 521.287 1917.49 517.337 1916.38 514.243L1916.39 514.255C1915.98 512.872 1915.47 511.776 1915.35 511.499C1915.35 511.509 1915.36 511.519 1915.36 511.529ZM1118.58 77.1495C1118.47 77.1233 1114.41 75.7958 1114.32 75.7567C1112.19 74.808 1120.38 77.4804 1118.58 77.1495ZM670.426 3.08325C670.188 3.10278 660.23 3.33173 659.905 3.32605C654.699 3.04797 674.837 2.57928 670.426 3.08325ZM1386.44 185.511C1390.58 187.702 1395.65 190.108 1399.16 191.427C1394.93 189.459 1390.69 187.472 1386.44 185.511Z" fill="#F5D381"/>
</svg>
