<svg width="1920" height="1318" viewBox="0 0 1920 1318" fill="none" xmlns="http://www.w3.org/2000/svg">
<path d="M1979.27 163.524C1977.96 162.696 1974.38 160.476 1970.77 158.276C1967.97 156.576 1965.16 154.902 1963.36 153.839C1964.8 154.713 1967.7 156.445 1970.75 158.307C1977.54 162.45 1985.07 167.19 1979.27 163.524ZM1511.79 16.8111C1515.76 17.2743 1519.77 17.8081 1523.7 18.3379C1512.45 16.7891 1497.17 15.3048 1486.68 14.4902C1484.93 14.3512 1489.43 14.7644 1485.35 14.4363C1481.26 14.1141 1482.06 14.1065 1476.15 13.6571C1471.3 13.277 1453.99 12.1123 1440.77 11.3521C1435.86 11.0639 1431.48 10.8162 1428.54 10.6497C1389.19 8.43615 1349.39 6.52121 1309.91 4.81162C1350.68 6.676 1309.59 4.87975 1298.17 4.38045C1295.64 4.27986 1296.05 4.11594 1255.13 2.51894C1229.09 1.55967 1253.19 2.56651 1209.72 0.988233C1233.23 1.69225 1223.91 1.34326 1207.26 0.796019C1200.24 0.57194 1191.85 0.32642 1184.1 0.163539C1179.64 -0.0334229 1142.96 -0.492698 1126.86 2.05216C1121.35 2.67792 1113.03 3.75125 1105.79 4.76904C1103.71 5.06066 1101.91 5.32018 1099.87 5.61353C1097.12 6.01011 1093.96 6.46374 1089.67 7.0631C1055.19 11.8702 1021.3 16.5572 986.779 21.5627C1006.98 18.8085 970.949 23.9222 969.354 24.1918C961.143 25.4342 998.301 20.017 983.622 22.1855C971.99 23.8747 960.338 25.5908 948.741 27.3884C939.805 28.7801 930.92 30.2032 922.012 31.8874C938.84 28.6531 899.658 35.9861 892.786 38.7895C893.857 38.4018 882.793 41.6771 867.516 46.5133C839.593 55.0729 797.55 69.1664 788.475 72.4359C785.576 73.5185 804.612 66.4427 760.289 82.4924C755.515 84.2594 757.339 83.6331 754.819 84.5648C753.324 85.1181 744.156 88.3861 734.549 92.194C731.069 93.6806 753.475 84.6283 704.232 104.377C708.899 102.43 707.442 102.996 702.265 105.112C685.806 111.592 632.843 135.173 620.902 140.9C624.051 139.424 627.208 137.952 630.363 136.488C614.733 143.711 611.917 145.016 608.397 146.655C594.232 153.277 574.895 162.579 561.787 168.972C546.493 176.443 546.372 176.389 528.623 185.283C532.837 183.151 537.023 181.045 541.264 178.923C528.951 185.028 516.714 191.186 504.515 197.441C527.628 185.778 508.968 195.18 500.129 199.709C498.057 200.769 496.553 201.546 496.138 201.761C492.578 203.612 497.756 200.959 491.701 204.122C491.087 204.454 491.944 203.904 482.704 208.85C463.526 219.307 466.592 217.836 458.635 222.448C457.922 222.926 460.391 221.168 446.839 229.625C405.181 258.705 446.763 229.008 448.722 228.476C451.012 227.328 435.917 235.781 473.036 214.311C460.483 221.37 459.326 222.299 457.936 223.095C456.626 223.654 435.521 237.148 434.54 238.195C424.588 245.519 433.29 238.994 431.355 240.42C430.618 240.942 424.837 245.351 418.861 250.595C412.045 256.293 403.926 262.577 400.972 264.845C391.238 272.671 403.542 263.166 418.887 250.626C421.173 248.674 423.567 246.602 426.068 244.593C427.397 243.539 423.352 246.791 418.917 250.66C413.995 254.818 407.925 259.573 407.368 260.033C380.713 281.197 395.4 269.391 389.517 273.973C386.441 276.369 375.637 285.132 385.592 277.025C361.445 296.402 376.144 284.684 374.567 285.953C372.242 287.838 363.804 294.648 362.764 295.508C361.23 296.767 366.604 292.429 360.534 297.399C359.548 298.206 349.691 306.194 362.308 295.834C345.453 309.639 346.838 308.501 341.233 313.284C329.591 322.74 332.962 320.361 328.455 324.165C328.014 324.538 327.593 324.895 327.191 325.236C316.683 334.24 319.884 331.39 319.245 331.905C314.485 335.195 283.54 366.25 277.928 375.781C280.134 372.041 300.181 349.064 305.41 344.683C321.585 328.815 283.091 367.506 294.719 355.886C290.017 360.895 285.457 366.164 281.203 371.61C273.82 381.852 283.865 367.223 264.846 395.103C261.691 399.676 278.265 375.364 274.94 380.211C273.388 382.264 267.295 391.56 263.854 396.324C262.534 398.154 261.647 399.41 261.582 399.493C261.505 399.59 262.487 398.185 263.834 396.309C266.657 392.385 270.867 385.992 269.798 387.569C269.031 388.657 266.745 392.152 263.792 396.279C252.979 411.224 236.554 437.573 257.589 405.27C249.87 416.691 246.283 422.823 240.058 432.993C236.19 439.522 257.353 403.274 226.38 455.801C225.923 456.587 225.457 457.394 224.981 458.222C224.841 458.5 225.415 457.515 226.41 455.818C229.812 449.974 238.213 435.659 238.524 435.2C239.043 434.346 236.643 438.686 236.215 439.43C235.717 440.282 231.797 446.91 226.561 455.906C220.86 465.615 214.161 478.335 207.207 488.555C200.775 498.469 196.129 507.328 193.915 511.278C196.302 506.302 170.206 555.489 167.592 560.985C166.847 562.423 169.554 557.005 168.76 558.544C164.298 567.125 153.349 589.077 146.929 602.264C146.184 603.787 145.53 605.138 144.929 606.387C138.42 620.107 139.324 618.4 138.945 619.153C136.241 625.281 138.432 620.381 136.793 624.149C133.585 629.511 120.391 669.983 120.578 672.228C120.428 672.835 122.033 666.094 119.81 675.072C119.517 676.446 119.534 675.834 115.631 693.893C115.09 696.421 114.518 699.13 113.853 702.361C109.1 726.327 113.7 702.322 115.522 693.869C116.133 690.937 116.342 689.893 115.586 693.322C115.549 693.503 115.511 693.681 115.474 693.859C111.331 714.081 111.532 713.431 110.472 719.022C110.13 720.997 107.481 735.53 105.63 751.501C106.98 740.014 108.812 728.617 110.908 717.341C108.76 728.419 105.56 750.25 104.828 759.563C104.432 764.099 104.764 760.368 104.028 770.24C103.999 772.334 102.809 780.616 105.297 754.791C105.439 752.722 104.2 765.007 103.86 770.726C103.809 771.581 103.438 774.993 103.21 782.302C103.425 784.049 103.306 764.998 102.982 814.185C102.989 815.776 102.904 810.249 102.909 811.802C102.9 812.893 103.071 825.401 103.093 826.773C103.107 828.187 102.98 822.15 102.996 823.833C103.08 832.512 103.416 843.78 103.135 825.994C103.242 831.986 103.358 837.873 103.46 843.836C103.247 837.482 103.568 853.216 103.615 861.419C103.63 863.511 103.642 865.503 103.65 867.392C105.013 911.682 103.865 879.317 104.149 888.067C105.26 902.771 104.064 891.571 106.88 913.257C107.019 914.25 106.099 908.215 106.114 908.311C106.416 908.35 105.788 914.921 112.925 939.829C110.688 932.521 108.903 925.071 107.57 917.565C108.065 921.961 114.029 944.369 114.889 945.948C119.58 959.748 118.761 956.756 121.055 964.714C121.939 967.886 123.198 972.799 126.622 980.55C127.722 983.049 130.39 988.392 133.625 993.265C139.928 1002.1 136.546 998.022 131.61 990.152C126.596 982.281 122.152 969.688 120.966 964.738C120.669 963.647 120.459 962.954 120.413 962.811C120.385 962.732 120.597 963.439 120.947 964.743C122.152 969.506 126.081 982.058 133.092 992.633C139.881 1003.35 149.195 1011.48 151.808 1013.61C152.184 1013.93 152.429 1014.12 152.525 1014.2C154.49 1015.67 153.739 1015.16 151.825 1013.59C146.449 1009.76 134.888 995.71 138.184 999.572C138.664 1000.1 143.35 1006.43 151.865 1013.54C168.49 1027.44 197.573 1020.44 216.27 1022.19C225.399 1022.33 232.508 1020.17 236.135 1019.03C254.932 1012.22 261.842 1006.61 262.186 1006.97C266.928 1004.14 271.177 1001.85 273.345 1000.63C277.499 998.277 281.001 996.327 284.048 994.672C300.232 985.403 303.076 983.287 320.613 970.383C325.172 966.945 328.938 963.912 330.523 962.673C331.449 961.944 329.77 963.363 334.28 959.789C336.783 957.808 344.23 951.767 352.281 944.966C364.561 934.331 376.068 920.18 377.512 918.581C379.885 915.94 364.027 933.819 366.798 930.557C378.559 917.8 388.946 904.91 399.528 891.099C403.879 885.379 401.624 888.279 403.504 885.79C404.368 884.772 419.076 864.677 418.42 865.513C417.668 867.999 370.012 928.505 382.581 912.578C385.125 909.595 393.653 898.739 392.357 900.518C408.077 880.538 422.764 859.929 437.032 838.905C452.382 817.558 458.639 790.818 460.902 765.436C463.164 747.504 460.312 729.582 456.205 712.431C460.097 728.903 463.168 747.005 460.849 765.429C458.628 789.219 453.148 814.765 439.662 834.787C439.032 835.781 438.115 837.204 436.983 838.872C432.642 845.299 425.892 854.986 426.915 853.44C430.195 848.73 433.502 843.921 436.944 838.846C452.114 818.128 458.774 789.603 460.819 765.425C461.614 759.224 461.746 753.173 461.505 747.45C461.458 746.353 461.581 750.379 461.396 746.275C461.403 739.382 457.977 719.116 456.034 712.094C455.822 711.213 455.648 710.54 455.529 710.093C455.477 709.905 455.709 710.784 456.016 712.098C456.848 715.55 458.178 722.054 457.5 719.002C456.883 716.26 456.362 714.053 455.907 712.125C454.488 706.433 453.691 703.089 450.759 696.493C449.529 693.848 445.206 684.622 436.377 676.953C426.371 667.455 410.402 661.923 400.802 660.966C398.259 660.574 396.105 660.313 394.557 660.118C389.542 659.54 393.859 659.901 400.812 660.9C412.089 661.609 428.38 670.343 426.195 669.374C418.491 664.693 409.53 662.026 400.824 660.825C376.412 657.568 352.136 656.419 329.048 655.651C328.497 655.636 333.294 655.728 326.299 655.519C314.132 655.197 310.943 655.264 305.026 655.218C301.582 655.195 293.46 655.172 286.222 655.256C279.898 655.309 274.276 655.913 272.871 656.081C272.483 656.112 277.106 655.725 277.807 655.697C281.378 655.446 284.117 655.371 286.223 655.338C289.95 655.282 291.556 655.244 292.141 655.239C295.519 655.22 298.821 655.252 301.876 655.264C306.946 655.287 309.698 655.278 316.378 655.388C320.965 655.474 316.539 655.443 320.971 655.533C322.599 655.531 340.152 655.965 341.77 656.206C341.99 656.253 316.676 655.019 286.223 655.382C253.618 655.053 218.521 671.444 201.302 680.969C195.768 683.918 191.56 685.668 189.725 686.489C193.671 684.754 197.545 682.966 201.29 680.945C208.313 677.16 215.479 673.549 222.811 670.312C215.621 673.483 208.149 677.232 201.278 680.924C186.317 688.411 172.396 693.888 171.285 694.908C166.525 697.291 161.876 699.874 157.33 702.628C125.048 722.662 91.145 739.634 59.8975 762.196C43.0627 776.102 26.1477 789.952 10.1919 805.003C-3.12866 817.534 -15.636 830.948 -27.5986 844.716C-33.667 851.66 -39.5327 858.742 -45.4231 865.784C-55.9109 878.199 -50.1206 871.926 -67.1528 891.137C-67.4065 891.418 -67.6663 891.705 -67.9324 892C-67.6731 891.709 -67.4148 891.42 -67.1577 891.133C-62.7471 886.203 -58.4297 881.196 -54.1604 876.137C-56.6045 879.011 -61.322 884.552 -67.2097 891.086C-80.3813 905.786 -98.4446 926.259 -107.208 935.617C-108.966 937.515 -110.346 939.003 -111.168 939.9C-111.988 940.906 -113.565 941.963 -123.357 953.978C-131.879 964.735 -133.069 966.69 -137.389 972.567C-141.017 977.559 -144.976 983.141 -146.049 984.678C-146.835 985.803 -147.115 986.269 -149.062 989.077C-155.108 997.848 -150.266 990.614 -156.159 999.448C-154.7 997.32 -153.233 995.192 -151.783 993.101C-159.02 1003.61 -168.779 1018.3 -158.153 1002.6C-156.315 999.911 -157.918 1002.19 -156.564 1000.21C-101.405 922.95 -146.163 984.143 -164.46 1011.93C-168.011 1017.24 -183.577 1040.83 -191.516 1053.19C-194.19 1057.33 -196.007 1060.18 -196.218 1060.52C-197.389 1062.39 -192.956 1055.51 -198.678 1064.59C-200.137 1066.35 -233.197 1121.14 -221.235 1101.44C-218.821 1097.36 -202.88 1071.14 -198.833 1064.94C-208.165 1079.64 -229.144 1114.62 -231.553 1118.49C-241.101 1134.31 -213.099 1088.17 -234.627 1123.8C-235.541 1125.3 -236.337 1126.6 -237.076 1127.81C-249.657 1148.53 -236.083 1125.99 -242.158 1135.95C-246.032 1141.71 -263.498 1173.64 -262.693 1172.99C-267.793 1184.47 -264.731 1177.79 -265.364 1179.2C-265.558 1179.68 -266.841 1182.71 -268.296 1186.87C-271.054 1194.71 -274.838 1206.42 -276.467 1211.36C-276.766 1212.27 -275.754 1209.41 -276.062 1210.36C-276.563 1212.18 -283.828 1233.04 -284.854 1235.07C-284.882 1235.14 -284.902 1235.19 -284.914 1235.22C-284.952 1235.31 -284.926 1235.24 -284.86 1235.06C-284.532 1234.22 -283.296 1230.9 -283.995 1232.68C-284.148 1233.07 -284.474 1233.91 -284.927 1235.04C-287.383 1241.24 -293.634 1256.35 -294.056 1257.32C-294.723 1258.95 -284.094 1233.05 -285.938 1237.34C-290.715 1249.32 -298.938 1268.7 -302.155 1276.62C-301.37 1274.67 -296.593 1263.08 -294.924 1259.06C-295.829 1260.9 -305.991 1285.85 -302.455 1277.34C-302.863 1278.33 -303.144 1279.02 -303.342 1279.49L-303.409 1279.7C-304.035 1281.89 -303.481 1279.81 -304.224 1282.37C-304.425 1283.21 -306.841 1291.07 -307.427 1292.54C-307.45 1292.75 -304.909 1284.66 -305.45 1286.27C-305.928 1287.81 -308.185 1295.09 -311.024 1301.65C-313.807 1307.72 -315.277 1314.08 -315.486 1315.01C-316.557 1319.74 -313.737 1306.98 -310.951 1301.68C-310.419 1300.45 -310.047 1299.55 -309.921 1299.26C-309.898 1299.2 -310.285 1300.19 -310.917 1301.7C-313.101 1306.1 -315.618 1315.91 -315.546 1316.09C-315.806 1316.89 -312.832 1305.53 -310.801 1301.75C-310.308 1300.61 -310.069 1300.03 -310.246 1300.5C-310.419 1300.92 -310.594 1301.34 -310.771 1301.76C-312.525 1305.75 -314.017 1310.06 -315.016 1314.36C-314.122 1310.61 -312.667 1306.16 -310.71 1301.78C-307.756 1294.94 -305.203 1287.11 -303.235 1279.74L-303.175 1279.56C-299.007 1269.21 -295.198 1260.17 -293.58 1256.34C-296.861 1264.23 -300.196 1272.24 -303.133 1279.58L-303.191 1279.75C-305.61 1288.88 -308.42 1296.69 -310.608 1301.83C-312.503 1306.21 -313.319 1309.05 -313.266 1309.03C-313.25 1309.04 -311.795 1304.92 -310.417 1301.91C-309.533 1299.88 -308.874 1298.21 -308.933 1298.38C-309.085 1298.81 -309.612 1300.17 -310.362 1301.93C-312.769 1306.87 -315.069 1315.9 -315.086 1316.33C-315.19 1316.82 -315.236 1317.05 -315.232 1317.05C-315.232 1317.05 -315.232 1317.05 -315.232 1317.05C-315.226 1317.09 -313.403 1308.4 -310.326 1301.95C-308.529 1297.78 -307.243 1294.11 -307.081 1293.68C-306.344 1291.86 -309.884 1301.6 -309.939 1301.57C-309.582 1301.32 -304.076 1285.66 -305.868 1290.96C-306.705 1293.58 -308.324 1298.13 -310.02 1302.08C-311.9 1306.31 -313.097 1310.25 -313.158 1310.5C-313.502 1311.76 -312.256 1307.15 -309.975 1302.1C-307.371 1296.15 -305.04 1288.83 -304.916 1288.44C-304.665 1288.1 -309.226 1300.99 -309.516 1301.3C-309.566 1301.65 -305.773 1291.98 -304.607 1288.04C-303.642 1285.14 -306.342 1293.62 -305.868 1292.13C-305.683 1291.62 -303.78 1285.95 -302.211 1280.02L-302.191 1279.96C-299.77 1273.92 -297.212 1267.74 -296.977 1267.18C-296.293 1265.55 -298.411 1270.8 -298.087 1270.04C-297.631 1268.96 -294.661 1261.75 -295.034 1262.69C-295.189 1263.09 -298.919 1272.17 -302.013 1280.03L-302.026 1280.07C-303.659 1286.38 -305.464 1291.78 -305.421 1291.7C-305.309 1291.57 -303.021 1284.37 -301.922 1280.1L-301.913 1280.07C-300.661 1276.96 -300.073 1275.53 -301.848 1280.09L-301.854 1280.11C-302.354 1282.05 -303.127 1285.04 -304.449 1289.32C-304.474 1289.53 -306.862 1296.38 -306.97 1296.55C-308.433 1300.59 -300.931 1280.83 -309.199 1302.43C-309.606 1303.38 -310.049 1304.41 -310.5 1305.55C-310.065 1304.46 -309.621 1303.42 -309.195 1302.43L-301.666 1280.17C-301.592 1280.2 -301.575 1280.2 -301.471 1280.24L-305.065 1292.18C-304.56 1290.8 -302.807 1285.45 -301.417 1280.23L-301.428 1280.26C-299.304 1275 -297.23 1269.99 -297.209 1269.94C-297.919 1271.81 -300.425 1277.84 -301.222 1279.91C-301.691 1281.04 -294.685 1264.08 -296.212 1267.92C-296.653 1269.02 -299.134 1275.04 -301.254 1280.33L-301.236 1280.28C-302.42 1284.73 -303.653 1288.62 -303.761 1288.96C-306.127 1296.33 -303.14 1287.33 -303.65 1288.95C-303.866 1290.06 -307.917 1301.15 -308.142 1301.4C-308.149 1301.93 -302.647 1286.86 -301.918 1283.59C-301.179 1281.16 -303.857 1290.31 -303.356 1288.61C-302.608 1286.27 -301.738 1283.29 -300.953 1280.36L-300.982 1280.44C-297.204 1271.05 -293.609 1262.23 -299.823 1277.8C-299.978 1278.19 -300.396 1279.23 -300.895 1280.48L-300.863 1280.38C-301.598 1283.17 -302.717 1286.91 -302.769 1287.07C-303.736 1290.29 -302.067 1285.12 -300.8 1280.4L-300.835 1280.5C-299.882 1278.15 -298.971 1275.93 -298.608 1275.07C-297.512 1272.5 -300.064 1278.77 -300.758 1280.53L-300.72 1280.42C-300.866 1280.97 -300.898 1281.09 -300.713 1280.42L-300.751 1280.53C-300.431 1279.75 -299.664 1277.85 -298.16 1274.19C-299.079 1276.46 -299.919 1278.56 -300.712 1280.55L-300.672 1280.43C-302.753 1288.13 -304.644 1294.33 -308.235 1302.84C-309.058 1304.76 -309.91 1306.77 -310.669 1309.03C-309.941 1306.86 -309.089 1304.83 -308.233 1302.84C-304.387 1293.84 -302.152 1286.08 -300.604 1280.45L-300.646 1280.58C-295.627 1268.31 -294.853 1266.59 -300.516 1280.63L-300.468 1280.49C-301.716 1285.11 -303.466 1291.39 -306.526 1299.22C-301.107 1284.48 -302.011 1286.02 -300.639 1281.55C-300.576 1281.32 -300.48 1280.97 -300.36 1280.51L-300.412 1280.67C-298.489 1275.77 -291.553 1258.86 -294.994 1267.72C-295.478 1268.93 -300.673 1281.6 -299.002 1277.65C-286.523 1247.22 -298.736 1277.01 -298.712 1277.05C-298.633 1276.85 -290.34 1257.23 -281.898 1236.25C-274.091 1216.19 -267.808 1194.64 -265.414 1188.38C-265.361 1188.23 -265.308 1188.08 -265.255 1187.93C-260.068 1173.15 -252.798 1161.14 -251.216 1158.12C-245.605 1148.16 -250.315 1156.4 -249.075 1154.16C-248.221 1152.53 -239.773 1138.25 -234.328 1129.49C-232.047 1125.79 -230.361 1123.02 -230.115 1122.61C-226.856 1117.19 -230.24 1122.65 -229.902 1122.09C-225.836 1115.38 -203.37 1077.82 -196.685 1067.57C-196.881 1067.87 -209.85 1088.79 -201.696 1075.77C-192.16 1060.67 -191.673 1059.74 -191.449 1059.34C-190.516 1057.89 -189.615 1056.49 -188.672 1055.03C-162.18 1014.94 -137.03 973.291 -104.567 938.057C-90.9861 923.39 -77.8506 908.333 -64.5188 893.516C-56.3342 884.459 -48.4849 875.129 -40.6877 865.789C-41.0583 866.28 -53.7642 881.735 -64.4841 893.547C-71.3699 901.179 -77.0613 907.613 -77.3801 907.969C-78.9631 909.802 -73.1736 903.252 -64.4524 893.576C-52.1865 880.172 -35.6311 859.543 -24.7888 847.174C-20.2935 842.023 -16.8733 838.198 -15.437 836.598C-18.5774 840.097 -21.6824 843.633 -24.7744 847.186C-27.2104 849.986 -29.6196 852.818 -32.0142 855.663C-30.0386 853.364 -27.5618 850.471 -24.7231 847.231C-14.4241 835.313 0.830322 818.858 12.8042 807.763C13.1252 807.461 13.4448 807.161 13.7622 806.863C16.4795 804.334 14.813 805.905 12.8337 807.794C11.2317 809.324 9.43823 811.063 9.52295 810.984C10.5591 809.998 11.7048 808.911 12.8604 807.822C17.781 803.188 22.657 798.778 17.2002 803.684C30.8882 791.37 28.9104 793.187 39.6633 783.985C40.228 783.513 35.5928 787.466 44.1848 780.262C46.5684 778.261 55.1543 771.124 62.3728 765.204C67.1643 761.324 71.8572 758.37 73.1118 757.535C74.2444 756.779 65.1685 762.978 62.4436 765.29C62.0735 765.582 61.7932 765.797 61.6311 765.909C38.1899 785.382 54.0781 772.052 44.9805 779.627C43.6497 780.841 46.6562 777.99 24.2112 797.514C28.4231 793.745 54.6321 771.61 59.2356 767.929C68.6121 760.216 30.0864 792.115 23.3855 798.322C26.6299 795.625 20.8416 800.472 12.9512 807.919C12.8379 808.026 12.7244 808.133 12.6106 808.241C3.82935 816.663 7.68604 813.02 2.99976 817.64C-9.59961 830.474 -4.47607 825.059 -14.4797 836.021C-8.66992 829.46 -16.2505 837.651 -24.6121 847.328C-30.0527 853.597 -35.7751 860.55 -38.7083 864.091C-34.0142 858.481 -29.3232 852.886 -24.5247 847.405C-16.8557 838.637 -9.08496 830.004 -0.956543 821.719C-1.70288 822.5 -2.4458 823.282 -3.18774 824.069C0.264404 820.487 3.77637 816.96 7.34058 813.486C6.75732 814.038 6.18579 814.581 5.60522 815.135C8.36206 812.44 10.825 810.089 13.0334 808.005C25.5752 796.318 29.3308 793.291 30.6394 792.088C40.5825 783.465 51.4973 774.423 62.5027 765.362C73.9661 756.368 87.2512 748.91 99.2102 741.726C102.73 739.655 100.329 741.126 126.126 725.97C134.347 721.124 126.559 725.633 135.884 720.156C147.631 713.403 147.317 713.413 150.787 711.344C154.127 709.345 157.03 707.601 159.455 706.14C164.152 703.316 167.075 701.788 167.682 701.451C177.135 696.026 191.082 691.055 203.277 684.645C206.77 682.768 210.174 681.004 213.361 679.422C213.625 679.291 206.4 682.95 215.441 678.438C218.513 676.948 247.43 662.166 275.233 660.052C268.088 660.749 261 662.03 254.029 663.799C257.846 662.747 272.775 659.471 286.266 659.521C301.645 659.373 314.866 659.659 307.078 659.585C302.216 659.554 293.566 659.503 286.266 659.573C280.159 659.617 275.038 660.171 273.965 660.342C276.597 660.062 280.849 659.675 286.267 659.615C314.69 658.97 374.716 661.276 400.148 665.183C406.242 666.071 410.166 667.216 411.501 667.624C412.619 667.888 405.799 666.046 407.329 666.453C407.928 666.589 414.241 668 420.185 671.021C426.183 673.921 431.593 678.378 432.803 679.438C434.376 680.58 425.827 673.941 426.457 674.571C426.672 674.718 429.898 676.769 433.624 680.07C441.051 685.99 447.189 698.278 447.426 699.392C445.351 691.795 430.652 676.613 438.14 684.693C439.174 685.667 443.501 691.584 444.249 693.156C448.398 701.765 443.89 689.134 433.554 680.15C426.531 673.713 417.53 669.617 414.681 668.679C420.942 670.993 427.509 674.814 433.537 680.169C442.624 687.967 448.833 700.077 451.842 713.101C456.151 730.639 458.591 748.876 456.57 764.416C456.551 764.574 456.532 764.725 456.514 764.871C455.917 769.725 456.134 768.093 456.555 764.876C457.351 759.483 457.532 749.349 457.148 759.453C457.014 761.477 456.831 763.281 456.627 764.886C453.497 790.333 456.121 768.445 455.981 769.426C455.516 778.023 449.814 805.904 448.896 805.656C444.634 817.037 446.604 813.634 438.316 828.719C439.466 826.745 440.548 824.777 441.587 822.762C439.513 826.692 436.706 831.482 433.362 836.416C422.266 852.933 408.48 872.183 409.886 870.248C414.82 863.653 427.036 846.03 428.01 844.556C428.794 843.417 430.223 841.434 433.567 836.555C436.79 831.699 442.093 824.08 447.361 810.421C449.447 804.839 445.795 815.811 441.051 824.358C436.359 832.892 431.885 839.504 438.939 828.261C437.738 830.316 435.967 833.223 433.663 836.62C418.876 859.208 384.528 904.833 378.105 911.63C377.246 912.569 381.121 908.083 369.136 921.969C363.382 928.537 377.271 912.711 374.635 915.73C372.499 918.042 363.871 929.228 349.669 941.858C331.909 956.67 307.972 976.782 282.134 991.142C257.828 1004.57 234.513 1019.34 216.339 1018.08C208.311 1017.94 201.974 1017.94 197.877 1017.94C195.83 1017.94 196.545 1017.98 194.546 1017.98C188.508 1017.66 164.788 1019.37 156.576 1012C160.97 1014.92 162.585 1015.05 161.726 1014.8C160.919 1014.45 157.887 1013.19 154.539 1010.35C146.941 1004.38 137.886 992.934 135.144 987.849C126.985 972.952 128.241 973.469 125.791 966.557C125.508 965.612 125.233 964.647 124.968 963.664C113.994 936.407 107.123 895.009 107.621 873.221C107.666 873.494 107.624 871.319 107.603 867.372C107.589 855.674 107.012 829.819 106.855 816.18C106.626 801.948 107.134 781.295 106.948 800.506C106.873 775.925 109.241 750.23 113.223 727.509C113.867 723.76 112.925 728.926 114.048 722.526C114.16 721.922 114.317 721.178 115.354 715.656C117.226 705.804 118.615 699.308 119.583 694.737C123.08 678.578 120.399 690.611 121.838 683.998C122.881 679.294 123.706 675.833 124.331 673.298C122.6 680.269 120.99 687.583 119.464 694.711C115.242 714.163 112.253 732.163 111.411 738.132C111.911 733.913 115.307 713.472 119.426 694.703C122.052 682.296 124.864 670.691 126.504 664.824C126.643 664.312 126.105 666.083 126.247 665.562C126.25 665.551 126.253 665.54 126.256 665.529C127.128 659.775 139.938 625.547 137.457 632.643C136.734 634.528 130.22 650.088 125.307 669.452C126.692 664.229 125.722 668.146 125.967 667.225C128.562 655.937 138.377 629.358 142.786 620.298C143.722 618.211 143.699 618.365 143.854 618.021C147.68 609.716 145.977 613.073 150.171 604.651C150.28 604.424 150.383 604.209 150.48 604.007C152.305 600.211 151.897 601.002 150.427 603.981C146.679 611.192 137.634 631.965 138.591 629.809C138.893 629.021 143.423 618.013 150.359 603.948C164.44 574.938 186.651 532.516 186.696 532.771C186.844 532.471 187.55 531.108 188.922 528.508C191.957 522.591 206.252 496.718 209.157 492.632C209.631 491.901 209.489 492.303 210.094 491.385C210.177 491.261 210.316 491.051 210.492 490.791C213.197 487.26 222.668 470.664 229.949 457.879C232.617 453.298 235.021 449.192 236.735 446.307C234.478 450.164 232.236 454.031 229.991 457.903C228.586 460.328 227.2 462.77 225.818 465.217C227.323 462.564 228.713 460.132 230.006 457.912C247.458 428.075 244.115 434.056 237.171 445.773C236.799 446.405 236.442 447.021 236.088 447.624C234.151 450.943 232.039 454.582 230.083 457.956C226.285 464.532 223.159 470.163 223.082 470.288C222.981 470.509 225.937 465.208 230.127 457.982C240.313 439.983 258.838 410.649 253.365 419.231C252.118 420.793 234.397 450.366 243.125 435.695C244.578 433.078 256.357 414.355 257.079 413.444C261.025 406.731 235.517 447.767 238.68 442.79C244.705 432.71 252.506 419.831 260.066 408.724C263.507 403.67 264.44 402.49 264.869 401.872C265.823 400.52 266.564 399.485 267.139 398.684C270.475 393.951 268.042 397.347 269.884 394.682C270.995 392.909 283.708 374.769 281.225 378.161C329.663 323.757 291.344 360.259 267.262 398.553C275.21 386.498 291.377 364.197 300.49 355.581C303.597 352.385 301.766 354.271 307.121 348.968C310.767 345.377 319.214 337.353 329.854 328.387C351.334 310.14 380.594 286.45 390.779 278.36C381.452 285.794 384.111 283.59 391.334 277.825C398.535 272.092 392.539 276.967 393.947 275.856C394.914 275.029 409.926 263.339 421.539 253.741C427.435 248.576 432.68 244.553 434.659 243.119C428.297 247.802 424.192 251.468 421.522 253.72C416.699 257.711 417.114 257.347 421.491 253.683C424.602 251.013 429.525 246.665 436.543 241.633C433.327 243.928 430.18 246.317 427.124 248.818C439.192 238.23 468.59 221.111 476.837 216.728C478.121 216.02 473.54 218.617 474.27 218.216C479.463 215.29 493.988 207.475 502.016 203.374C504.881 201.896 506.997 200.813 507.272 200.677C507.905 200.362 504.046 202.36 502.037 203.415C500.725 204.103 500.098 204.439 501.629 203.658C501.701 203.621 501.843 203.548 502.05 203.441C504.145 202.353 513.524 197.479 522.724 192.861C526.464 190.984 524.235 192.157 525.181 191.684C533.061 187.757 528.36 190.003 542.801 182.839C553.375 177.618 561.284 173.81 575.954 166.701C527.903 190.22 568.242 170.377 588.479 160.789C591.717 159.264 588.955 160.611 608.333 151.456C567.042 170.794 620.018 145.764 630.967 140.881C631.565 140.608 631.747 140.459 637.095 138.023C637.549 137.818 636.91 138.143 641.889 135.891C689.209 114.798 658.949 128.274 667.925 124.241C671.744 122.508 694.917 112.63 701.202 110.082C702.185 109.675 702.182 109.657 703.85 108.956C704.633 108.628 705.779 108.152 707.548 107.428C717.427 103.386 726.338 99.9049 732.904 97.3502C733.675 97.0602 733.666 96.952 746.156 92.2089C749.643 90.8905 753.635 89.414 748.63 91.3188C737.558 95.5302 719.827 102.404 703.866 108.994C696.039 112.217 688.626 115.355 682.573 117.968C672.048 122.544 689.061 115.152 703.892 109.058C712.624 105.458 720.615 102.278 721.64 101.87C722.663 101.46 712.215 105.603 722.808 101.367C731.843 97.7536 748.512 91.4221 762.116 86.4087C763.167 86.0089 774.021 81.9706 773.517 82.1554C773.073 82.2868 756.315 88.4105 758.751 87.4983C759.02 87.3863 769.664 83.4825 771.051 82.9711C772.72 82.3409 777.267 80.4654 779.532 79.655C785.392 77.5604 781.576 78.9678 785.371 77.6245C793.458 74.6936 821.752 65.1161 822.713 64.9348C818.028 66.4789 813.341 68.0422 808.677 69.6184C834.71 60.9513 823.629 64.7162 827.331 63.498C831.297 62.2274 830.176 62.5058 838.965 59.6794C840.271 59.2441 857.875 53.6905 868.711 50.3425C873.797 48.7608 877.404 47.6429 877.178 47.7234C873.517 48.8565 870.833 49.6919 868.714 50.3519C859.185 53.3189 864.156 51.8292 863.391 52.0692C859.814 53.1909 855.219 54.575 850.416 56.0892C816.702 66.8237 850.717 56.0636 842.762 58.6196C840.049 59.4875 834.537 61.2141 833.402 61.5841C829.627 62.8111 829.591 62.8808 827.072 63.6964C821.19 65.6078 828.027 63.2929 827.564 63.4414C822.284 65.0803 801.807 72.0061 814.604 67.8106C806.946 70.4022 806.042 70.607 799.976 72.7199C787.959 76.937 805.991 70.7015 810.893 69.0958C828.529 63.2733 833.689 61.5295 858.754 53.678C862.03 52.6553 865.497 51.5831 868.781 50.5675C874.698 48.7362 879.982 47.107 882.679 46.2778C885.305 45.2906 910.242 38.1339 911.107 38.5066C920.905 36.1876 936.539 33.3969 946.846 31.8024C947.795 31.6542 948.634 31.525 949.367 31.4134C955.54 30.4792 953.287 30.907 954.053 30.7916C955.384 30.5879 966.592 28.8901 970.403 28.3446C974.824 27.7078 972.629 28.0654 979.699 27.0446C997.272 24.5237 996.791 24.5137 998.604 24.2434C1019.58 21.1742 1010.4 22.6264 1015.06 21.9732C1019.39 21.3435 1080.14 12.8067 1092.93 11.0583C1087.73 11.7669 1082.53 12.4726 1077.32 13.1793C1086.58 11.8286 1096.56 10.5311 1096.66 10.4081C1097.11 10.3853 1098.56 10.2072 1100.48 9.95182C1106.92 9.08934 1119.12 7.31235 1123.54 6.7905C1125.8 6.51489 1125.64 6.56009 1128.47 6.23677C1139.53 4.63201 1164.71 4.10006 1170.8 4.31553C1197.01 4.40503 1129.97 4.48994 1124.86 6.83742C1135.21 4.1072 1195.08 4.65913 1167.55 4.59759C1163.31 4.58311 1155.77 4.61043 1153.4 4.69322C1137.32 5.32726 1149.95 4.86285 1148.71 4.91792C1146.56 4.9682 1135.99 5.63116 1133.21 5.97097C1132.28 6.10737 1138.27 5.39462 1122.99 7.1965C1130.46 5.40533 1173.58 4.16389 1179.34 4.75348C1181.37 4.85003 1168.66 4.51185 1205.81 5.43772C1205.37 5.43616 1204.93 5.43477 1204.5 5.43355C1205.36 5.4602 1206.23 5.48752 1207.11 5.5155C1226.88 6.14812 1246.81 6.90848 1266.65 7.70794C1264.37 7.58833 1252.79 7.07126 1267.42 7.667C1275.83 8.01369 1269.6 7.8242 1270.37 7.85696C1277.95 8.03394 1411.82 14.0899 1437.76 15.887C1438.56 15.9343 1439.48 15.9894 1440.49 16.0504C1450.89 16.6557 1471.28 18.0798 1472.99 18.2256C1482.57 18.8391 1512.75 21.4243 1526.22 23.4523C1528.55 23.7262 1530.36 23.9097 1531.5 24.0367C1536.39 24.5887 1531.74 24.1051 1536.1 24.6213C1540.12 25.1358 1535.95 24.5477 1537.15 24.7003C1542.5 25.1835 1566.6 29.5121 1590.58 34.7463C1611.21 39.1703 1631.81 43.8185 1640.03 45.6449C1632.94 44.0516 1607.22 38.2457 1590.6 34.6667C1581.74 32.7502 1575.51 31.4607 1575.89 31.5243C1576.11 31.5581 1586.24 33.6373 1590.62 34.5869C1591.24 34.7198 1591.74 34.8299 1592.08 34.9056C1596.6 35.82 1612.02 39.3226 1620.46 41.1789C1621.42 41.3925 1617.66 40.4674 1632.68 43.8138C1637.85 44.9676 1651.36 48.0688 1664.97 51.1128C1678.83 54.2816 1734.26 67.0212 1768.18 75.2655C1782.5 78.7314 1792.92 81.4122 1795 81.975C1795.19 82.0136 1780.72 78.3825 1790.5 80.8902C1803.47 84.2801 1791.88 81.079 1806.95 85.079C1808 85.3452 1816.42 87.7074 1826.01 90.6012C1838.06 93.7766 1851.13 98.9224 1851.86 99.1969C1864.12 103.824 1828.64 90.8199 1828.98 91.5711C1830.38 91.4931 1859.85 102.204 1860.96 102.986C1862.09 103.423 1838.35 93.6985 1866.89 105.38C1863.63 104.011 1860.36 102.672 1857.08 101.375C1870.49 106.853 1871.75 107.487 1874.98 108.866C1879.14 110.693 1883.42 112.643 1888.14 114.839C1894.77 117.926 1902.31 121.458 1911.57 125.889C1915.75 127.898 1908.85 124.471 1909.37 124.724C1914.42 127.122 1920.72 130.382 1928.22 134.13C1928.77 134.464 1911.55 125.286 1941.71 141.165C1939.64 140.06 1937.57 138.966 1935.49 137.876C1939.23 139.747 1962.59 152.698 1970.94 157.983C1972.2 158.747 1973.13 159.322 1973.64 159.636C1985.18 166.775 1975.19 160.436 1986.71 167.729C1979.38 162.97 2013.98 185.777 2011.93 184.558C2016.19 187.534 2039.87 204.453 2052.95 216.436C2054.45 217.779 2055.78 218.966 2057.04 220.085C2064.87 227.083 2080.96 241.081 2083.51 243.268C2086.57 245.913 2085.7 245.058 2091.22 249.835C2092.69 251.303 2109.64 265.13 2122.2 279.203C2122.52 279.564 2122.88 279.976 2123.26 280.409C2125.84 283.377 2129.15 287.098 2125.32 282.584C2124.72 281.877 2124.07 281.113 2123.38 280.304C2115.69 271.05 2101.42 258.648 2101.69 258.767C2101.9 258.895 2115.92 271.266 2123.42 280.268C2125.54 282.745 2127.25 284.744 2128.39 286.074C2152.63 314.418 2138.73 298.008 2139.35 298.69C2141.02 300.524 2154.15 316.143 2154.67 316.809C2156.94 319.5 2147.75 308.389 2147.61 308.193C2147.52 307.957 2160.11 323.009 2157.26 319.561C2153.24 314.576 2141.55 300.84 2140.8 299.979C2131.16 288.577 2144.53 304.102 2148.15 308.353C2149.26 309.646 2144.91 304.44 2145.82 305.512C2159.76 322.033 2148.67 309.092 2157.82 320.13C2165.94 330.069 2155.58 317.232 2155.87 317.619C2156.29 318.071 2165.96 329.99 2167.4 331.88C2168.33 332.637 2143.09 301.888 2144.11 303.183C2152.3 312.9 2160.45 322.639 2168.24 332.673C2168.97 333.376 2157.51 319.154 2156.26 317.722C2153.84 314.757 2160.64 322.956 2160.34 322.577C2160.23 322.387 2152.36 312.714 2159.51 321.4C2161.93 324.413 2167.13 330.627 2175.49 341.957C2145.61 303.179 2166.43 329.942 2167.42 331.028C2168.31 332.114 2153.92 313.698 2171.4 336.054C2172.25 336.938 2171.12 335.517 2166.14 329.145C2159.94 321.43 2174.51 339.046 2151.52 311.158C2153 312.641 2171.26 335.207 2172.03 336.557C2172.84 337.605 2168.95 332.45 2170.36 334.275C2186.63 356.103 2175.5 341.088 2180.16 347.448C2180.79 347.87 2194.24 369.833 2183.99 353.126C2163.98 323.511 2153.03 313.075 2149.62 308.129C2167 328.052 2185.66 354.175 2189.16 361.464C2189.37 361.823 2189.56 362.159 2189.74 362.472C2194.12 370.112 2190.45 363.67 2189.78 362.449C2189.67 362.244 2189.64 362.187 2189.74 362.369C2189.75 362.384 2189.77 362.41 2189.79 362.445C2190.33 363.449 2195.32 371.993 2195.41 372.102C2196.85 374.384 2194.13 369.9 2189.86 362.405C2182.47 348.629 2165.95 327.712 2158.86 319.187C2161.81 322.742 2164.74 326.326 2167.61 329.946C2163.74 325.017 2159.77 320.135 2155.79 315.331C2174.68 338.441 2156.55 316.073 2151.81 310.309C2150.79 309.025 2163.3 324.112 2149.02 306.878C2159.61 319.527 2156.31 315.441 2165.66 327.098C2165.59 326.672 2144.15 300.734 2135.5 290.697C2165.74 326.51 2148.81 305.796 2173.92 337.61C2178.39 343.666 2166.72 328.206 2167.63 329.517C2171.04 334.009 2179.46 344.34 2187.6 358.165C2188.81 360.261 2184.03 352.249 2189.94 362.355C2190.39 363.137 2190.9 364.031 2191.48 365.042C2192.36 366.615 2197.71 375.519 2197.65 375.387C2196.97 374.189 2191.74 365.342 2191.57 364.955C2191.36 364.611 2197.16 374.5 2197.21 374.521C2197.43 374.799 2192.36 366.277 2193.11 367.505C2194.65 370.128 2214.97 403.994 2190.21 362.204C2189.66 361.247 2189.09 360.257 2188.48 359.231C2189.1 360.271 2189.67 361.262 2190.2 362.208C2204.99 387.533 2198.05 375.889 2190.16 362.232C2187.54 357.606 2184.58 352.88 2182.21 349.333C2179.73 345.639 2179.13 344.678 2175.41 339.548C2170.61 332.96 2164.62 325.531 2161.97 322.254C2159.09 318.762 2175.52 338.584 2151.82 309.846C2162.8 322.81 2181.08 345.201 2190.32 362.143C2191.39 364.026 2192.42 365.794 2193.38 367.426C2204.6 386.149 2198.15 375.52 2190.44 362.072C2184.98 352.266 2177.48 341.861 2175.82 339.626C2174.78 338.192 2178.31 342.971 2177.62 342.012C2176.81 340.201 2154.13 311.929 2151.73 309.299C2149.48 306.522 2160.22 319.489 2160.93 320.351C2161.53 320.804 2133.43 287.405 2148.7 305.468C2159.33 317.782 2177.82 341.523 2180.54 345.839C2166.76 326.117 2150.92 308.083 2135.47 289.803C2144 299.739 2152.54 309.703 2160.89 319.84C2148.66 304.895 2137.31 291.768 2125.77 278.258C2121.18 272.902 2116.17 267.874 2110.9 262.907C2119.66 271.066 2124 276.086 2125.84 278.193C2127.41 279.995 2127.2 279.735 2125.87 278.171C2121.15 271.59 2095.95 249.161 2095.47 248.88C2095.27 248.611 2113.44 264.611 2116.12 267.514C2100.77 252.322 2051.21 210.407 2080.12 235.076C2074.87 230.6 2062.38 219.51 2062.56 219.64C2064.13 221.043 2091.64 244.969 2087.18 241.012C2082.03 236.46 2074.66 230.219 2066.72 223.221C2062.5 219.511 2058.87 216.274 2055.67 213.394C2027 189.298 2032.7 193.155 1991.92 165.919C1992.84 166.497 1993.76 167.078 1994.68 167.661C1987.61 163.065 1980.46 158.578 1973.26 154.19C1946.48 137.88 1918.44 123.765 1890.06 110.678C1872.15 102.449 1854.07 94.539 1835.12 88.5989C1832.85 87.8839 1830.18 87.0836 1827.17 86.2657C1812.94 81.7451 1790.66 75.9721 1769.27 70.7864C1752.03 66.594 1735.24 62.6344 1723.38 59.8576C1717.46 58.4583 1688.22 51.7297 1686.01 51.2417C1681.92 50.314 1704.38 55.5122 1694.22 53.1986C1692.08 52.6801 1642.59 41.3977 1646.13 42.1687C1651.68 43.4113 1669.04 47.3962 1671.88 48.0367C1683.72 50.7211 1634.96 39.3758 1591.58 30.065C1561.76 23.4661 1534.05 19.1514 1530.85 19.1539C1534.3 19.5004 1537.78 19.8912 1541.25 20.3729C1536.42 19.666 1531.53 19.1996 1526.79 18.659C1521.86 18.0595 1516.83 17.366 1511.79 16.8111ZM1944.96 143.196C1950.12 146.05 1963.01 153.324 1970.45 157.922C1970.58 158 1970.71 158.079 1970.84 158.159C1981.23 164.45 1997.8 175.533 1990.59 170.585C1984.07 166.355 1977.48 162.214 1970.84 158.157C1962.34 152.962 1953.7 147.989 1944.96 143.196ZM1700.55 59.4741C1712.18 62.145 1703.2 59.9221 1693.65 57.767C1692.59 57.5281 1684.8 55.8691 1700.55 59.4741ZM1821.86 89.5266C1821.37 89.346 1811.55 86.4663 1811.19 86.3999C1802.31 83.8595 1832.07 92.5966 1821.86 89.5266ZM1225.93 6.0504C1239.1 6.52892 1229.52 6.29415 1221.36 5.96403C1220.84 5.94252 1225.08 6.01951 1225.93 6.0504ZM1235.26 6.38348C1245.49 6.6506 1266.02 7.66792 1249.68 7.01064C1248.12 6.94583 1234.79 6.36892 1235.26 6.38348ZM1742 69.134C1740.67 68.7774 1728.7 65.9708 1723.58 64.7833C1723.72 64.8501 1736.98 67.9366 1742 69.134ZM1435.44 15.7007C1435.31 15.6869 1437.36 15.8001 1440.5 15.9831C1451.84 16.6057 1478.18 18.4406 1480.49 18.6942C1475.25 18.2384 1451.19 16.621 1440.49 16.0095C1437.53 15.8317 1435.54 15.7132 1435.44 15.7007ZM1325.83 10.1412C1326.92 10.1825 1341.68 10.8652 1341.25 10.8749C1334.04 10.5756 1320.95 9.94597 1325.83 10.1412ZM1108.45 9.14826C1107.76 9.24079 1116.13 7.92682 1100.51 10.1662C1098.41 10.4684 1095.79 10.8444 1092.62 11.3024C1089.5 11.752 1098.09 10.5851 1100.52 10.2568C1101.09 10.1806 1101.34 10.1474 1101.09 10.1838C1100.9 10.2115 1100.71 10.2389 1100.53 10.266C1098 10.6315 1095.89 10.9324 1094.22 11.1672C1096.32 10.8761 1098.5 10.5725 1100.53 10.2892C1110.35 8.90775 1119.1 7.72227 1120.08 7.59701C1125.79 6.78731 1108.79 9.07854 1108.45 9.14826ZM995.008 24.9645C992.504 25.2914 976.597 27.6158 972.981 28.1674C972.357 28.2624 975.086 27.932 967.918 28.9891C962.207 29.8372 970.74 28.4795 959.551 30.1731C948.24 31.9038 963.373 29.6594 962.381 29.8182C961.556 29.9446 954.515 30.9928 949.426 31.7875C946.263 32.2796 943.92 32.6593 944.118 32.6449C944.269 32.6321 946.385 32.2996 949.432 31.8278C955.403 30.8992 964.804 29.4805 967.889 29.0285C973.868 28.1521 966.625 29.2758 976.562 27.8008C982.824 26.8763 979.328 27.2908 980.646 27.093C981.768 26.9168 1003.56 23.8345 994.974 24.9697C994.985 24.968 994.997 24.9663 995.008 24.9645ZM1090.94 11.621C1091.85 11.4969 1092.9 11.3525 1094.22 11.1672C1093.1 11.3224 1092.02 11.4717 1090.94 11.621ZM1914.44 127.324C1908.88 124.61 1925.34 132.769 1931.5 136.002C1931.65 135.988 1915.35 127.715 1914.44 127.324ZM1079.69 13.1121C1061.74 15.6395 1074.91 13.8383 1090.94 11.621C1085.84 12.315 1085.75 12.2587 1079.69 13.1121ZM1592.08 34.9056C1591.34 34.7537 1590.88 34.6658 1590.81 34.6713C1592.75 35.0648 1592.94 35.0957 1592.08 34.9056ZM1550.65 26.6684C1536.43 24.1544 1565.32 29.21 1565.15 29.3589C1565.04 29.3242 1551.22 26.7279 1550.65 26.6684ZM1209.05 5.48552C1209.38 5.49473 1208.35 5.4499 1207.11 5.39606C1204.26 5.27419 1200.31 5.10575 1207.11 5.33099C1209.56 5.41364 1213.58 5.55557 1219.72 5.7916C1203.77 5.27606 1220.58 5.85678 1220.33 5.8663C1220.08 5.878 1213.98 5.66762 1207.11 5.44881C1199.19 5.19213 1190.06 4.94394 1186.94 4.88656C1182.78 4.71256 1200.19 5.18992 1207.11 5.42678C1207.9 5.45164 1208.56 5.47169 1209.02 5.48443C1209.03 5.4848 1209.04 5.48516 1209.05 5.48552ZM795.647 74.6486C799.123 73.4883 809.985 69.7694 817.4 67.3168C813.943 68.4094 803.006 72.0951 795.647 74.6486ZM224.336 674.319C248.594 663.656 263.618 661.952 265.77 661.413C268.076 661.283 257.478 661.513 234.794 669.946C233.871 670.179 221.37 675.55 224.336 674.319ZM392.326 893.372C389.312 897.386 399.528 884.293 405.936 875.459C407.397 873.47 412.698 866.066 406.557 874.439C406.805 874.297 397.302 887.179 392.326 893.372ZM1069.53 14.4776C1064.29 15.1539 1048.17 17.4414 1039.69 18.641C1044.87 17.9569 1062.03 15.5397 1069.53 14.4776ZM396.197 664.542C397.709 664.732 399.042 664.92 400.161 665.1C403.345 665.604 405.081 666.008 404.405 665.877C403.288 665.67 401.726 665.409 400.151 665.165C395.953 664.526 391.573 664.019 396.197 664.542ZM1121.53 7.25523C1122.17 7.10709 1105.19 9.4122 1100.51 10.1367C1099.98 10.2164 1099.62 10.2748 1099.47 10.3044C1099.76 10.262 1100.12 10.2123 1100.51 10.1567C1106.24 9.33463 1121.03 7.30663 1121.53 7.25523ZM809.538 69.8888C812.704 68.7962 796.288 74.3206 791.361 76.0787C791.775 75.9519 807.429 70.5884 809.538 69.8888ZM453.747 721.259C454.899 726.133 456.675 738.438 456.671 739.816C457.014 741.501 454.406 723.467 453.747 721.259ZM-240.219 1139.8C-240.397 1140.11 -237.487 1135.32 -234.011 1129.68C-231.104 1124.97 -227.898 1119.7 -225.866 1116.31C-220.363 1107.11 -227.924 1119.68 -234.055 1129.66C-237.332 1134.99 -240.106 1139.61 -240.219 1139.8ZM343.3 660.442C327.426 659.861 345.056 660.504 344.345 660.561C333.703 659.996 307.149 659.476 325.402 659.819C328.953 659.89 338.333 660.215 343.3 660.442ZM357.897 661.177C359.601 661.287 370.982 662.119 361.126 661.464C356.568 661.17 349.238 660.689 357.897 661.177ZM-176.586 1037.21C-172.597 1031.07 -180.085 1042.43 -188.349 1055.24C-196.237 1067.41 -204.609 1080.99 -205.08 1081.78C-205.592 1082.63 -205.927 1083.18 -206.117 1083.5C-207.396 1085.52 -213.781 1096.05 -214.469 1097.3C-212.572 1094.13 -207.335 1085.52 -206.721 1084.53C-206.461 1084.1 -206.266 1083.77 -206.132 1083.55C-204.823 1081.44 -196.103 1067.32 -188.299 1055.27C-182.382 1046.09 -177.291 1038.29 -176.586 1037.21ZM-114.215 949.296C-124.673 961.618 -126.038 964.215 -125.241 963.063C-114.301 949.224 -121.505 958.223 -121.177 957.769C-120.462 956.747 -112.399 947.201 -114.247 949.333C-114.236 949.321 -114.226 949.308 -114.215 949.296ZM-164.424 1018.74C-164.762 1019.23 -172.307 1030.63 -172.636 1031.15C-178.802 1040.56 -157.405 1008.24 -164.424 1018.74ZM909.99 38.7827C900.555 41.0908 909.804 38.8004 916.127 37.4831C916.653 37.3905 918.354 36.8863 909.99 38.7827ZM365.689 661.692C366.92 661.8 385.031 662.869 400.172 665.03C412.665 666.539 421.912 671.861 420.547 671.157C419.07 670.343 410.805 666.419 400.163 665.084C380.917 662.385 356.579 661.207 365.689 661.692ZM305.926 975.789C314.222 969.866 305.165 976.313 300.668 979.354C299.009 980.492 303.832 977.28 305.926 975.789ZM1150.25 4.67476C1160.8 4.41178 1158.62 4.295 1149.47 4.65219C1149.11 4.66887 1149.83 4.68876 1150.25 4.67476ZM367.754 923.195C343.241 948.193 350.496 943.819 380.127 908.935C379.231 910.004 378.272 911.141 377.356 912.216C410.383 870.963 379.962 909.721 371.286 919.275C368.043 922.964 370.745 919.836 367.776 923.17C367.768 923.178 367.761 923.186 367.754 923.195ZM259.888 1003.27C238.776 1014.66 261.344 1002.74 282.048 990.985C290.383 986.454 298.041 981.322 302.457 978.31C294.614 983.713 285.124 989.32 282.012 990.918C280.727 991.608 280.544 991.699 282.001 990.897C283.675 989.965 287.63 987.824 294.435 983.46C289.538 986.589 285.399 989.001 281.979 990.856C257.823 1004.29 270.74 997.208 269.295 997.995C267.372 999.094 261.156 1002.57 259.888 1003.27ZM334.37 954.158C335.716 953.1 344.578 945.788 349.481 941.635C350.146 941.075 350.79 940.511 351.273 940.082C350.794 940.501 350.148 941.061 349.472 941.624C342.132 947.852 325.102 961.575 334.37 954.158ZM-39.0193 864.407C-39.8523 865.317 -41.8008 867.646 -49.343 876.607C-46.9812 873.865 -42.1643 868.143 -39.0193 864.407ZM1954.87 148.431C1959.79 151.2 1968.02 156.069 1970.99 157.913C1972.25 158.689 1972.58 158.901 1971.32 158.153C1971.29 158.132 1971.17 158.058 1970.97 157.939C1968.6 156.425 1954.9 148.43 1954.87 148.431ZM456.348 767.615C456.195 768.466 455.036 779.917 453.304 788.999C451.579 798.091 449.332 804.871 451.352 797.621C452.811 794.247 456.349 768.017 456.665 764.891C456.714 764.535 456.721 764.51 456.677 764.892C456.628 765.305 456.52 766.183 456.348 767.615ZM305.199 659.426C308.903 659.422 323.917 659.715 324.245 659.759C325.248 659.79 306.816 659.434 305.199 659.426ZM1989.5 169.454C1990.45 169.943 2010.83 183.598 2008.55 182.155C2004.36 179.219 1986.47 167.471 1989.5 169.454ZM875.864 48.3986C873.893 49.0119 871.306 49.8756 870.645 50.0825C870.46 50.1405 869.815 50.3416 868.809 50.6553C861.373 52.9447 834.739 61.3538 846.865 57.5813C847.839 57.2744 857.48 54.2357 868.823 50.7006C884.596 45.6632 903.628 40.0876 907.613 39.3091C910.182 38.4335 888.047 44.5193 882.684 46.3498C881.756 46.6358 881.124 46.7637 875.881 48.3938C875.875 48.3954 875.87 48.397 875.864 48.3986ZM-79.0999 910.365C-79.9209 911.243 -95.7131 928.963 -104.35 938.259C-107.593 941.755 -109.697 944.09 -109.594 944.002C-107.861 942.084 -106.097 940.192 -104.326 938.28C-95.8005 929.066 -87.4321 919.727 -79.0999 910.365ZM-64.1453 893.604C-61.7856 890.961 -62.3813 891.613 -64.2893 893.723C-67.4661 897.216 -74.2402 904.83 -76.9407 907.882C-76.9658 907.95 -65.8296 895.446 -64.2688 893.741C-64.2166 893.683 -64.175 893.637 -64.1453 893.604ZM388.813 663.448C393.242 663.904 379.643 662.619 382.691 662.939C384.635 663.106 394.492 664.095 397.58 664.567C398.483 664.656 388.468 663.531 385.554 663.282C381.41 662.883 385.448 663.211 380.919 662.795C365.974 661.471 352.584 660.738 338.511 660.171C337.247 660.12 347.088 660.479 336.241 660.05C334.58 659.991 324.483 659.65 311.472 659.471C302.578 659.304 294.392 659.282 286.264 659.36C268.437 659.651 250.756 663.002 227.692 672.595C228.792 671.617 254.402 662.935 256.092 663.098C264.445 661.106 274.883 659.409 286.264 659.298C315.193 658.911 349.583 660.145 372.349 661.975C380.523 662.628 376.537 662.346 380.055 662.647C382.823 662.907 379.54 662.497 388.813 663.448ZM1951.18 146.306C1954.2 147.915 1963.83 153.445 1971.02 157.86C1971.87 158.379 1972.69 158.88 1973.46 159.354C1972.96 159.061 1972.11 158.547 1971.01 157.88C1966.35 155.04 1957.11 149.589 1951.18 146.306ZM76.6885 755.237C80.2578 752.907 91.7 745.968 92.6455 745.446C93.8484 744.71 77.4346 754.709 76.6885 755.237ZM676.613 120.576C676.235 120.73 666.731 124.874 666.379 125.038C657.912 128.783 686.406 116.369 676.613 120.576ZM454.425 230.014C447.737 234.09 441.21 238.479 439.111 240.031C443.124 237.092 455.213 229.524 454.425 230.014ZM221.243 473.485C221.79 472.387 215.45 483.767 210.576 490.849C209.072 493.086 207.875 495.1 207.285 496.07C207.569 495.632 208.846 493.471 210.606 490.869C215.011 484.529 220.858 474.218 221.243 473.485ZM-38.0891 862.965C-47.3682 874.07 -45.4785 871.67 -51.394 878.717C-52.3774 879.859 -55.313 883.723 -45.1077 871.494C-43.2827 869.289 -50.5015 877.849 -38.0891 862.965ZM384.844 903.14C387.203 900.31 394.256 891.323 398.925 885.107C397.909 886.45 388.312 898.913 384.844 903.14ZM2026.02 194.516C2031.71 198.234 2055.63 218.251 2049.65 213.367C2048.96 212.498 2029.66 196.979 2026.02 194.516ZM1033.06 19.3734C1020.28 21.1214 1046.73 17.3849 1055.1 16.2694C1051.32 16.7931 1033.92 19.2543 1033.06 19.3734ZM263.896 403.449C263.5 403.923 255.896 415.226 255.603 415.765C249.411 425.054 270.984 393.114 263.896 403.449ZM526.026 191.3C523.396 192.592 512.054 198.31 502.067 203.474C495.244 206.994 488.969 210.347 486.439 211.725C488.603 210.586 495.042 207.167 502.1 203.537C514.744 197.015 529.532 189.577 526.026 191.3ZM1.56714 818.799C-5.68384 826.083 -12.2979 833.261 -18.5696 840.341C-17.3289 838.768 0.69043 819.461 1.56714 818.799ZM237.171 445.773C236.799 446.405 236.442 447.021 236.088 447.624C236.456 446.994 236.817 446.376 237.171 445.773ZM191.152 690.127C199.102 686.58 197.462 687.291 196.981 687.55C191.012 690.36 182.161 694.025 191.152 690.127ZM1959.78 151.104C1961.28 151.931 1966.01 154.685 1971.07 157.779C1974.87 160.098 1978.87 162.588 1981.9 164.49C1980.77 163.807 1976.06 160.862 1971.05 157.809C1966.86 155.25 1962.43 152.641 1959.78 151.104ZM226.987 1017.01C221.773 1017.77 229.914 1017.25 239.852 1013.29C249.803 1009.44 261.362 1002.68 265.42 1000.41C266.219 1000.66 229.083 1018.94 226.987 1017.01ZM1072.73 13.7395C1073.57 13.5788 1092 11.0614 1088.08 11.6299C1085.59 11.9908 1072.22 13.8397 1072.73 13.7395ZM284.82 989.553C288.43 987.591 296.523 982.385 293.65 984.174C289.976 986.504 283.896 990.088 284.82 989.553ZM442.364 689.598C442.907 690.287 446.291 695.694 448.104 700.311C449.965 704.89 450.92 708.275 449.325 703.612C446.879 697.235 446.217 696.355 445.52 694.919C445.383 693.712 436.852 681.919 433.74 679.939C432.999 679.289 432.878 679.177 433.749 679.928C434.858 680.972 438.025 683.421 442.364 689.598ZM107.584 851.62C107.631 856.523 107.681 861.844 107.711 867.372C107.738 872.281 107.849 877.042 108.038 881.619C107.968 879.743 107.761 873.649 107.74 867.372C107.709 860.528 107.627 853.739 107.584 851.62ZM1001.81 23.7026C1004.02 23.3387 1064.41 14.8411 1030.11 19.7169C1028.11 19.9913 995.089 24.7113 1001.81 23.7026ZM-38.0891 862.965C-36.9194 861.565 -35.5718 859.951 -34.0049 858.081C-35.563 859.936 -36.9126 861.554 -38.0891 862.965ZM81.5432 752.055C78.6914 753.747 92.9653 745.015 97.2534 742.548C98.5671 741.781 81.9033 751.766 81.5432 752.055ZM108.023 882.339C108.213 887.848 108.948 897.91 109.804 904.643C109.532 903.519 108.007 884.754 108.023 882.339ZM198.493 511.086C193.125 520.752 186.791 532.684 186.646 532.878C186.545 533.081 186.303 533.55 185.893 534.337C185.456 535.158 179.96 545.567 177.612 550.145C162.739 576.975 234.661 446.26 192.552 521.777C194.521 518.19 196.495 514.631 198.493 511.086ZM565.267 171.801C570.871 169.01 586.713 161.469 582.615 163.457C579.75 164.821 559.646 174.577 565.267 171.801ZM363.19 300.458C364.618 299.263 377.952 288.494 378.316 288.246C370.659 294.427 356.621 305.879 363.19 300.458ZM608.688 151.012C612.239 149.34 616.823 147.29 616.403 147.489C612.79 149.191 602.735 153.847 608.688 151.012ZM-18.7351 840.148C-14.9319 835.711 -2.19067 822.181 0.760498 819.407C1.28149 818.87 2.70068 817.411 5.34033 814.793C5.33228 814.801 5.32397 814.809 5.31592 814.817C5.84033 814.3 8.5708 811.597 12.7158 807.67C24.3291 796.445 48.2979 776.447 62.2327 765.034C74.2559 756.087 78.9858 752.892 62.2605 765.067C58.1909 768.427 52.8381 772.84 46.0139 778.551C43.5908 780.593 46.8569 777.752 37.0369 786.071C36.3906 786.622 36.0886 786.922 34.0984 788.628C31.2812 791.041 21.0154 799.884 12.7683 807.725C7.5542 812.653 3.08594 817.103 1.32227 818.867C1.2876 818.911 1.00122 819.207 0.379395 819.845C-5.26831 825.383 -21.7661 843.506 -18.7351 840.148ZM337.043 322.089C339.678 319.854 348.037 312.914 348.955 312.2C344.788 315.649 330.937 327.249 337.043 322.089ZM1003.67 23.3092C1010.62 22.2871 1028.25 19.8456 1022.93 20.6231C1019.66 21.0933 995.65 24.4819 1003.67 23.3092ZM421.931 253.245C421.771 253.382 421.614 253.517 421.46 253.648C390.77 278.446 414.441 259.338 409.603 263.182C413.592 260.02 417.566 256.911 421.459 253.646C421.615 253.514 421.772 253.381 421.931 253.245ZM-139.429 981.792C-135.673 976.527 -140.171 982.615 -144.171 988.42C-145.435 990.251 -141.473 984.66 -139.429 981.792ZM-280.578 1233.12C-279.902 1231.26 -280.682 1233.33 -281.853 1236.27C-283.928 1241.47 -287.158 1249.43 -284.597 1243.25C-284.479 1242.96 -282.942 1239.15 -281.806 1236.28C-281.143 1234.61 -280.629 1233.26 -280.578 1233.12ZM-188.088 1054.22C-185.633 1050.52 -184.12 1048.17 -177.434 1037.91C-187.338 1053.08 -178.252 1039.01 -188.088 1054.22ZM186.696 532.771C186.666 532.834 186.639 532.887 186.646 532.878C186.681 532.808 186.695 532.777 186.696 532.771ZM643.073 135.202C647.639 133.076 660.543 127.338 656.719 129.091C656.345 129.253 644.965 134.375 643.073 135.202ZM0.760498 819.407C0.294189 819.891 0.541992 819.646 1.32227 818.867C1.354 818.826 1.14917 819.024 0.760498 819.407ZM574.38 167.302C574.826 167.107 555.499 176.521 554.746 176.905C543.628 182.3 566.366 171.138 574.38 167.302ZM1144.45 4.55966C1145.55 4.49178 1138.47 5.00365 1134.13 5.41195C1130.76 5.70422 1140.33 4.73529 1144.45 4.55966ZM-210.245 1089.51C-213.779 1095.33 -218.704 1103.54 -219.579 1105.08C-217.243 1101.16 -210.153 1089.4 -210.245 1089.51ZM-277.022 1223.21C-274.331 1215.82 -269.021 1199.02 -265.162 1187.96C-265.054 1187.65 -264.946 1187.35 -264.839 1187.05C-264.838 1187.02 -264.961 1187.35 -265.179 1187.96C-267.038 1192.89 -274.711 1216.85 -277.022 1223.21ZM-30.8245 854.063C-30.6379 853.841 -27.5876 850.237 -24.854 847.117C-22.3103 844.207 -20.073 841.692 -20.7998 842.545C-21.4983 843.365 -23.0781 845.17 -24.812 847.153C-28.5542 851.427 -32.9358 856.585 -30.8245 854.063ZM1111.65 8.15693C1104.09 9.19405 1121.45 6.59949 1129.44 5.83372C1133.52 5.34224 1112.93 7.91264 1111.65 8.15693ZM683.394 117.382C692.67 113.436 669.743 123.311 666.55 124.707C670.787 122.838 680.113 118.769 683.394 117.382ZM385.131 282.558C409.852 262.666 396.507 273.622 392.071 277.122C391.46 277.602 384.514 283.053 385.131 282.558ZM2086.26 245.057C2089.65 248.012 2076.93 237.097 2075.32 235.635C2074.32 234.735 2084.1 243.171 2086.26 245.057ZM124.331 673.298C124.652 672.004 124.978 670.72 125.307 669.452C125.058 670.404 124.737 671.654 124.331 673.298ZM768.313 83.6204C747.415 91.4786 749.574 90.6322 747.768 91.2894C743.841 92.7729 734.768 96.3009 727.411 99.196C735.841 95.8987 744.298 92.6721 752.78 89.5147C748.356 91.1388 721.639 101.391 703.801 108.836C694.583 112.645 687.688 115.593 687.279 115.753C685.641 116.39 701.354 109.782 703.787 108.804C703.955 108.734 704.06 108.691 704.094 108.677C704.856 108.356 707.643 107.084 709.311 106.399C712 105.077 760.416 86.2875 768.313 83.6204ZM436.924 241.192C432.808 244.178 431.737 245.108 429.876 246.549C429.263 247.034 429.117 247.072 426.995 248.798C430.222 246.137 433.505 243.636 436.924 241.192ZM806.099 70.5381C812.062 68.4297 785.264 77.636 784.412 78.0013C779.859 79.6268 801.211 72.1964 806.099 70.5381ZM584.026 162.621C584.965 162.148 604.626 152.806 604.484 152.926C599.261 155.367 573.01 167.937 584.026 162.621ZM424.398 250.974C423.497 251.742 422.484 252.62 421.385 253.559C415.381 258.614 407.433 264.839 408.52 263.928C408.529 263.921 408.538 263.914 408.547 263.907C412.825 260.502 417.159 257.105 421.38 253.553C422.396 252.689 423.393 251.828 424.398 250.974ZM1085.75 11.6401C1099.75 9.57431 1093.13 10.639 1080.7 12.4074C1076.91 12.8874 1083.44 11.9799 1085.75 11.6401ZM1130.66 5.52845C1134.51 4.3649 1175 3.58455 1168.82 3.90018C1166.64 3.75914 1143.34 4.25916 1142.29 4.54933C1140.68 4.68782 1148.07 4.15025 1135.71 5.11937C1136.43 5.0162 1129.33 5.6641 1130.66 5.52845ZM1097.36 9.94613C1098.47 9.78462 1099.49 9.63688 1100.42 9.502C1111.71 7.86988 1113.67 7.7277 1103.96 9.08951C1102.79 9.25414 1101.55 9.42304 1100.43 9.57356C1097.84 9.91949 1095.92 10.1569 1097.36 9.94613ZM1040.32 17.9265C1045.35 17.2068 1058.72 15.3172 1067.96 14.0789C1055.62 15.8045 1043.27 17.5339 1030.93 19.2742C1029.5 19.4464 1035.93 18.5543 1040.36 17.9218C1040.35 17.9234 1040.34 17.9249 1040.32 17.9265ZM-307.703 1302.21C-305.943 1297.85 -306.593 1299.48 -308.047 1302.92C-310.34 1307.58 -312.541 1316.19 -312.602 1316.85C-313.267 1319.8 -310.559 1307.85 -308.008 1302.94C-307.898 1302.68 -307.796 1302.44 -307.703 1302.21ZM2147.88 306.713C2149.88 309.07 2151.26 310.607 2155.6 315.887C2151.18 310.615 2146.69 305.358 2142.22 300.143C2138.82 295.996 2145.67 304.113 2147.88 306.713ZM2164.86 326.787C2164.24 326.027 2167.73 330.074 2159.73 320.363C2154.44 313.688 2183.25 349.872 2186.8 357.555C2182.24 349.516 2170.18 333.287 2164.86 326.787ZM2209.44 394.244C2209.73 394.686 2200.6 379.699 2199.56 377.955C2194.01 368.851 2207.86 391.818 2209.44 394.244ZM2180.31 346.391C2185.01 353.18 2174.67 338.098 2171.21 333.881C2170.92 333.435 2179.66 345.289 2180.31 346.391ZM-270.293 1195.16C-269.279 1192.01 -268.24 1189 -267.564 1187.13C-266.725 1184.83 -266.462 1184.24 -267.486 1187.15C-267.871 1188.27 -268.438 1189.91 -269.214 1192.17C-269.427 1192.79 -270.41 1195.52 -270.293 1195.16ZM2200.65 379.509C2196.36 372.483 2205.78 388.083 2208.64 392.713C2208.93 393.128 2201.29 380.583 2200.65 379.509ZM-268.5 1189.14C-268.242 1188.37 -268.004 1187.68 -267.787 1187.05C-264.673 1178.46 -265.723 1182.06 -266.237 1183.35C-266.583 1184.27 -267.063 1185.57 -267.601 1187.11C-270.402 1195.08 -275.146 1209.57 -276.312 1212.95C-266.505 1183.28 -270.237 1194.43 -268.5 1189.14ZM-243.96 1140.31C-238.304 1130.88 -252.677 1155 -255.146 1159.78C-252.579 1154.95 -245.592 1142.97 -243.96 1140.31ZM-209.548 1083.25C-206.509 1078.21 -197.171 1063.3 -195.544 1060.87C-199.043 1066.28 -208.24 1081.14 -209.548 1083.25ZM-202.61 1071.82C-197.744 1063.98 -196.438 1062.2 -202.143 1071.18C-202.363 1071.53 -202.785 1072.11 -202.61 1071.82ZM-174.503 1028.16C-171.238 1023.1 -167.286 1017.4 -172.69 1025.57C-174.284 1027.99 -174.856 1028.71 -174.503 1028.16ZM-263.308 1175.16C-259.691 1167.21 -254.502 1157.27 -262.673 1173.98C-259.933 1168.04 -256.871 1162.26 -253.698 1156.58C-265.194 1178.01 -263.831 1176.75 -266.577 1183.18C-267.155 1184.7 -267.603 1185.96 -267.954 1186.99C-269.701 1192.13 -269.343 1191.4 -268.79 1189.87C-271.059 1195.82 -277.598 1217.71 -284.509 1235.2C-286.298 1239.68 -288.022 1243.9 -289.536 1247.58C-288.033 1243.9 -286.327 1239.7 -284.538 1235.19C-278.607 1220.26 -273.048 1201.52 -268.747 1189.16C-268.496 1188.43 -268.243 1187.7 -267.99 1186.98C-266.65 1183.14 -265.166 1179.52 -263.76 1176.32C-261.022 1170.23 -263.511 1175.61 -263.322 1175.19C-263.317 1175.18 -263.312 1175.17 -263.308 1175.16ZM-135.916 971.937C-125.332 957.581 -132.041 966.718 -137.935 974.801C-138.174 975.126 -136.215 972.344 -135.916 971.937ZM2213.27 399.441C2202.13 381.022 2208.02 391.604 2190.73 361.91C2188.95 358.767 2186.84 355.217 2184.28 351.252C2195.24 369.161 2184.89 352.233 2187 355.748C2187.76 356.993 2189.41 359.756 2190.65 361.953C2192.21 364.693 2193.23 366.47 2191.23 363.049C2195.76 371.207 2217.14 405.789 2217.89 407.483C2217.88 407.468 2217.87 407.454 2217.86 407.439C2218.41 408.385 2217.2 405.94 2213.27 399.441ZM-209.827 1082.98C-206.872 1077.84 -205.428 1075.98 -199.334 1066.03C-190.987 1052.93 -221.933 1102.53 -225.24 1108.78C-192.556 1054.41 -246.695 1144.78 -224.098 1106.7C-242.845 1137.96 -230.298 1116.91 -233.234 1121.71C-234.082 1123.09 -235.431 1125.3 -236.998 1127.86C-241.328 1134.89 -246.916 1144.31 -246.56 1143.63C-246.554 1143.62 -246.548 1143.61 -246.542 1143.6C-243.416 1138.31 -240.247 1133.09 -237.031 1127.84C-233.629 1122.28 -230.278 1116.75 -226.927 1111.18C-233.166 1121.84 -219.933 1099.72 -215.508 1092.16C-213.623 1089.1 -211.729 1086.03 -209.827 1082.98ZM-246.661 1144.22C-246.285 1143.56 -240.875 1134.5 -236.839 1127.95C-234.273 1123.78 -232.326 1120.58 -232.675 1121.18C-233.146 1121.96 -234.763 1124.63 -236.809 1127.97C-243.013 1138 -252.585 1154.4 -246.661 1144.22ZM-292.971 1255.67C-290.478 1249.66 -287.126 1241.49 -284.601 1235.17C-283.303 1231.93 -282.27 1229.15 -281.628 1227.45C-282.483 1229.79 -283.483 1232.46 -284.569 1235.18C-287.769 1243.22 -291.402 1251.99 -292.971 1255.67ZM-17.1306 833.99C-10.9773 827.251 -22.9658 840.483 -27.0378 845.207C-28.5964 846.986 -29.0632 847.509 -27.0593 845.188C-27.0554 845.184 -27.0518 845.179 -27.0479 845.175C-26.7007 844.743 -17.5715 834.428 -17.1306 833.99ZM-194.623 1058.76C-192.882 1056.01 -191.785 1054.32 -191.187 1053.41C-190.44 1052.27 -190.512 1052.42 -191.144 1053.43C-191.999 1054.8 -193.823 1057.67 -196.033 1061.1C-196.332 1061.56 -194.939 1059.26 -194.623 1058.76ZM2203.28 382.969C2203.05 382.513 2196.4 371.709 2190.8 361.866C2187.08 355.283 2183.19 349.474 2181.82 347.455C2182.61 348.644 2186.75 354.768 2190.77 361.887C2196.55 372.083 2203.57 383.473 2203.28 382.969ZM-299.745 1271.65C-294.863 1259.48 -288.548 1244.56 -284.757 1235.11C-282.872 1230.42 -281.66 1227.06 -281.329 1226.15C-280.354 1223.43 -281.951 1227.67 -281.731 1227.05C-281.046 1225.72 -271.407 1196.38 -270.907 1194.95C-270.564 1193.94 -272.254 1199.28 -270.197 1193.23C-272.523 1199.7 -278.369 1219.15 -284.696 1235.13C-289.911 1248.17 -294.605 1259.3 -295.1 1260.52C-295.973 1262.62 -289.526 1246.75 -299.732 1271.61C-299.737 1271.63 -299.741 1271.64 -299.745 1271.65ZM-278.939 1219.28C-281.375 1226.59 -274.454 1206.12 -272.872 1201.11C-269.264 1190.04 -278.562 1218.38 -278.939 1219.28ZM-261.152 1170.2C-260.274 1167.83 -249.437 1148.24 -248.334 1146.68C-253.83 1155.72 -263.692 1175.24 -261.152 1170.2ZM-127.781 960.581C-124.309 955.885 -114.068 943.65 -113.319 943.033C-117.317 947.301 -127.241 959.838 -127.781 960.581ZM2134.3 287.773C2139.1 293.354 2131.69 284.657 2126.02 278.042C2124.31 276.047 2122.71 274.312 2121.67 273.202C2121.56 273.108 2123.62 275.272 2126 278.061C2129.52 282.184 2133.96 287.381 2134.3 287.773ZM-193.759 1056.74C-193.516 1056.36 -192.742 1055.16 -191.488 1053.21C-182.96 1039.74 -152.721 994.344 -147.543 987.356C-152.72 994.39 -183.861 1041.25 -191.439 1053.24C-192.354 1054.66 -192.925 1055.54 -193.105 1055.82C-193.604 1056.59 -193.998 1057.12 -193.759 1056.74ZM-268.932 1188.36C-271.081 1194.42 -272.313 1198.43 -272.571 1199.2C-275.025 1206.77 -280.255 1222.33 -279.067 1218.93C-275.862 1209.52 -270.133 1191.82 -268.35 1186.85C-267.767 1185.18 -267.686 1184.92 -268.389 1186.84C-268.535 1187.24 -268.715 1187.75 -268.932 1188.36ZM-124.907 956.484C-110.024 937.827 -138.351 973.835 -134.558 969.201C-134.325 968.824 -126.493 958.407 -124.907 956.484ZM-197.988 1063.33C-200.541 1066.81 -225.184 1107.78 -237.272 1127.69C-239.97 1132.1 -242 1135.46 -243.061 1137.23C-241.041 1133.93 -239.172 1130.88 -237.233 1127.71C-234.114 1122.62 -230.892 1117.27 -226.587 1110.11C-224.71 1106.99 -225.178 1107.84 -224.977 1107.5C-221.723 1102.09 -224.195 1106.13 -222.188 1102.78C-221.069 1100.6 -194.113 1057.03 -197.988 1063.33ZM-270.157 1191.82C-271.353 1194.92 -280.866 1225.02 -285.089 1234.97C-285.845 1236.87 -286.336 1238.08 -286.439 1238.35C-287.849 1241.88 -286.987 1239.8 -285.052 1234.99C-280.182 1223.3 -271.056 1194.08 -270.157 1191.82ZM-194.591 1057.87C-198.826 1064.11 -217.046 1093.78 -204.474 1073.54C-203.273 1071.61 -198.186 1063.43 -194.591 1057.87ZM-126.549 958.43C-126.07 957.409 -109.886 938.311 -109.398 938.215C-112.267 940.467 -134.851 968.979 -126.549 958.43ZM-134.431 968.665C-134.064 968.189 -137.515 972.872 -130.527 963.53C-129.932 962.829 -129.053 961.157 -119.741 949.805C-117.838 947.506 -114.771 944.065 -114.978 944.31C-125.422 955.605 -152.032 993.014 -134.431 968.665ZM-270.466 1192.56C-269.735 1190.32 -271.646 1195.69 -273.205 1200.57C-273.871 1202.67 -272.561 1198.78 -270.466 1192.56ZM-74.4983 899.448C-79.4302 904.958 -73.9358 898.716 -67.1331 891.155C-60.6882 884.033 -53.4053 875.435 -52.677 874.585C-53.2385 875.282 -60.8838 884.32 -67.1011 891.184C-70.958 895.465 -74.1309 899.041 -74.4983 899.448ZM2119.59 270.502C2119.6 270.51 2119.61 270.519 2119.62 270.527C2110.97 261.876 2116.29 267.277 2115.89 266.859C2096.95 249.102 2101.86 253.986 2098.89 251.206C2092.39 245.482 2093.36 246.49 2082.35 236.889C2100.56 252.751 2083.96 238.339 2083.42 237.926C2081.22 236.319 2107.94 258.701 2116.43 267.442C2117.65 268.583 2108.61 260.036 2111.73 263.02C2115.34 266.426 2121.57 272.498 2126.19 277.897C2133.52 286.376 2138.18 291.702 2126.29 277.809C2124.51 275.734 2122.32 273.298 2119.59 270.502ZM-274.448 1204.33C-275.614 1207.75 -281.413 1225.71 -285.175 1234.94C-287.24 1240.13 -288.305 1242.77 -286.776 1239.04C-286.654 1238.74 -286.036 1237.21 -285.132 1234.96C-280.839 1224.68 -272.322 1197.88 -274.448 1204.33ZM181.613 534.465C176.801 543.48 187.846 522.468 190.032 518.611C191.057 516.731 183.727 530.455 181.613 534.465ZM267.332 391.525C274.039 381.398 281.8 370.963 272.985 383.431C272.055 384.763 266.576 392.706 267.332 391.525ZM277.633 997.945C266.598 1004.22 267.199 1003.77 275.323 999.179C278.2 997.565 277.978 997.751 277.633 997.945ZM121.409 669.593C121.635 668.333 125.701 654.099 125.646 654.648C123.898 659.846 119.398 677.621 121.409 669.593ZM281.164 996.006C277.259 998.156 279.628 996.781 283.92 994.435C286.91 992.813 290.717 990.592 293.942 988.621C291.292 990.276 286.889 992.888 283.943 994.479C282.453 995.292 281.401 995.876 281.164 996.006ZM-180.479 1035.63C-177.028 1030.42 -167.136 1015.41 -161.378 1006.92C-160.908 1006.04 -176.477 1029.45 -180.479 1035.63ZM239.018 434.899C244.996 425.012 232.326 446.272 233.466 444.306C233.615 444.03 238.773 435.284 239.018 434.899ZM424.855 668.766C428.562 671.004 424.602 668.439 420.171 666.441C415.754 664.414 410.935 663.087 414.559 664.187C414.998 664.104 424.537 668.332 424.855 668.766ZM309.24 655.414C315.595 655.373 342.791 656.25 332.187 655.947C330.564 655.846 309.691 655.405 309.24 655.414ZM2098.38 250.699C2101.03 252.905 2085.97 239.829 2083.83 238.002C2082.97 237.272 2094.97 247.795 2098.38 250.699ZM199.324 1021.75C192.764 1021.78 175.615 1021.71 172.498 1021.12C180.777 1022.05 201.501 1021.6 199.324 1021.75ZM212.59 480.33C217.684 471.787 226.031 456.742 224.048 460.504C214.65 476.955 225.246 458.561 212.59 480.33ZM316.99 972.915C312.737 976.078 309.358 978.345 309.846 977.997C314.518 974.649 321.19 969.735 316.99 972.915ZM103.1 804.316C103.011 803.996 103.246 787.054 103.265 789.307C103.209 790.055 103.098 804.548 103.1 804.316ZM-42.7061 862.394C-37.7686 856.418 -52.9346 874.59 -57.4924 879.864C-59.6218 882.518 -43.3069 863.18 -42.7061 862.394ZM417.44 866.744C417.973 866.217 402.293 887.5 408.43 879.089C410.013 876.962 417.252 867 417.44 866.744ZM389.971 659.534C407.651 660.88 333.235 655.311 352.796 656.707C354.224 656.614 388.39 659.136 389.971 659.534ZM268.003 656.742C271.094 656.407 269.447 655.966 256.878 658.681C255.228 659.029 262.959 657.462 261.615 657.767C260.667 657.354 233.882 665.165 232.86 666.113C231.573 666.602 233.066 665.962 231.758 666.461C230.228 666.897 214.52 673.72 206.668 677.979C204.608 679.045 202.803 680.002 201.235 680.843C191.54 685.826 189.959 686.11 188.922 686.643C185.286 688.251 179.053 690.842 171.708 694.487C167.057 696.797 162.177 699.468 157.23 702.464C125.459 722.118 83.4294 744.111 59.7971 762.074C58.3608 763.262 56.9941 764.394 55.6914 765.476C57.0615 764.343 58.4282 763.214 59.8025 762.08C81.7288 745.668 104.69 733.94 127.743 720.104C120.49 724.305 164.034 698.694 138.565 713.678C141.151 712.151 148.023 708.097 157.26 702.513C168.675 695.081 185.795 688.691 201.262 680.894C229.987 664.351 262.857 656.909 267.969 656.747C267.98 656.746 267.991 656.744 268.003 656.742ZM297.008 353.37C291.521 358.496 319.144 331.441 321.964 329.76C317.965 332.876 297.463 352.465 297.008 353.37ZM199.292 501.277C197.527 504.387 195.631 507.247 186.794 523.755C186.786 523.77 186.778 523.784 186.77 523.799C184.196 528.636 187.178 523.141 186.711 524.036C186.511 524.387 178.58 539.433 185.234 526.955C195.525 507.899 186.1 525.102 191.612 514.959C192.223 513.695 203.057 494.695 202.507 495.856C202.45 495.93 199.117 501.634 198.587 502.602C196.584 506.178 197.596 504.477 197.316 504.974C196.276 506.551 179.813 536.929 177.636 541.418C176.727 542.8 203.619 492.994 205.406 491.292C206.156 490.096 205.745 490.532 206.543 489.289C206.589 489.218 206.792 488.908 207.088 488.474C209.729 484.962 218.918 469.17 220.169 466.834C220.589 466.087 220.909 465.515 221.144 465.095C220.109 466.978 223.643 460.693 226.457 455.846C228.145 452.938 229.532 450.542 229.4 450.741C229.318 450.869 227.964 453.185 226.426 455.827C224.354 459.384 222.009 463.547 221.866 463.799C221.757 463.994 221.663 464.163 221.575 464.32C222.419 462.635 213.319 479.409 207.052 488.449C203.502 493.815 201.697 497.099 203.552 493.898C196.435 505.906 204.579 492.235 199.292 501.277ZM167.646 560.368C168.318 559.077 168.987 557.797 169.648 556.534C162.426 570.56 154.643 586.098 146.766 602.185C142.459 610.984 138.29 619.991 134.482 629.218C131.794 635.86 134.767 628.18 131.358 636.93C128.649 643.97 126.155 651.943 127.455 648.048C127.699 647.076 132.886 632.628 136.004 625.61C145.118 604.934 143.083 610.25 143.568 609.033C143.835 608.473 145.129 605.727 146.84 602.221C149.061 597.668 151.871 591.951 153.838 588C162.532 570.605 166.529 562.644 178.789 539.059C171.649 552.658 175.451 545.12 167.646 560.368ZM461.006 764.893C461.457 763.97 462.121 747.653 461.291 741.803C461.533 742.702 462.103 758.986 461.006 764.893ZM1434.67 11.0155C1439.62 11.3391 1402.9 9.32756 1412.58 9.81083C1414.69 9.90789 1430.1 10.7439 1434.67 11.0155ZM1269.9 3.19206C1264.99 2.9741 1284.75 3.73728 1284.72 3.78761C1284.7 3.80001 1270.52 3.21713 1269.9 3.19206ZM103.496 865.012C103.497 865.229 103.503 866.122 103.51 867.392C103.509 871.616 103.746 879.616 103.778 879.998C103.999 884.646 103.57 874.975 103.556 867.392C103.51 860.232 103.444 855.1 103.496 865.012ZM1069.69 9.89453C1086.68 7.56573 1035.62 14.7096 1051.21 12.4804C1051.99 12.3683 1068.89 10.004 1069.69 9.89453ZM998.773 19.8672C1002.84 19.2826 1020.87 16.7033 1021.11 16.6906C1021.48 16.6662 1000.82 19.6204 998.773 19.8672ZM319.997 970.96C318.51 972.283 337.555 957.455 343.927 952.037C345.455 950.75 326.792 966.021 319.997 970.96ZM180.191 1021.98C194.796 1022.28 206.658 1022.05 216.268 1022.27C239.757 1021.34 247.838 1013.64 247.308 1014.69C246.556 1014.44 236.673 1021.81 216.269 1022.21C204.887 1021.87 190.918 1022.53 174.05 1021.62C173.91 1021.62 173.717 1021.73 180.191 1021.98ZM302.052 983.824C299.232 985.686 290.899 991.122 284.101 994.769C283.451 995.122 282.824 995.464 282.226 995.792C282.456 995.673 283.125 995.31 284.108 994.781C288.483 992.522 298.273 986.421 302.052 983.824ZM1478.35 13.7769C1472 13.1897 1443.91 11.4586 1448.92 11.8107C1450.1 11.8432 1480.64 13.9297 1478.35 13.7769ZM103.525 873.578C103.154 871.212 104.764 901.816 105.465 904.123C106.297 913.55 103.014 876.098 103.525 873.578ZM418.266 866.132C421.477 861.773 430.206 849.295 435.728 841.145C433.218 844.795 423.133 859.392 418.266 866.132ZM374.675 922.205C375.099 921.796 384.009 911.227 384.333 910.762C391.571 902.107 366.423 931.82 374.675 922.205ZM2131.25 282.823C2131.06 282.597 2128.71 279.855 2126.67 277.482C2125.24 275.813 2123.97 274.419 2123.86 274.304C2121.05 271.305 2123.64 274.012 2126.65 277.506C2130.45 281.943 2135.12 287.388 2131.25 282.823Z" fill="#F4C03A" fill-opacity="0.58"/>
</svg>
