<svg width="70" height="69" viewBox="0 0 70 69" fill="none" xmlns="http://www.w3.org/2000/svg">
<path d="M10.193 39.4949C10.548 38.7723 10.96 37.9501 11.4119 37.0896C12.1947 35.6083 12.9675 34.0941 13.5279 32.8304C13.7977 32.2155 13.8283 32.5884 14.0145 32.1629C14.2405 31.6367 14.3866 31.1149 14.528 30.5981C14.6217 30.255 14.7226 29.91 14.8473 29.5615C14.9603 29.248 15.0924 29.7137 15.2055 29.3841C15.8237 27.5778 16.2949 25.813 16.9812 23.9884C17.7964 21.8207 18.6858 19.6967 19.625 17.6127C20.6709 15.1215 22.6524 12.7253 24.5832 11.1462C26.8154 9.2303 29.0769 7.78183 31.3026 6.23202C33.3274 4.86325 35.4433 4.48158 37.335 4.05856C37.7634 3.96723 38.1978 3.87989 38.6319 3.78942C41.7896 3.14939 45.121 3.51732 48.0039 3.86981C48.3963 3.92065 48.1992 3.66526 48.2766 3.65927C49.4963 3.588 49.0289 3.96042 49.7708 4.17258C51.4741 4.68986 53.2636 5.23086 55.0286 6.21095C56.252 6.90979 57.3543 7.76042 58.2939 8.61277C59.2251 9.48206 58.6426 8.26644 59.3557 9.36245C59.4035 9.43804 59.0146 9.36562 59.2311 9.63431C59.599 10.0886 60.2342 10.805 60.67 11.335C60.829 11.5272 60.9606 11.6978 61.0531 11.8274C61.7355 12.8176 61.8354 12.9913 62.391 13.9466C63.0111 15.0434 63.5318 16.3358 64.1497 17.4438C64.2758 17.6705 64.4044 17.8939 64.5353 18.1117C64.7049 18.3928 64.7045 17.8956 64.9946 18.3346C65.2854 18.7719 65.9402 20.0145 66.1101 20.4643C66.2814 20.9121 66.0192 20.8205 66.0198 20.9149C66.019 21.6895 67.1876 22.9324 67.2852 23.1275C67.4185 23.3777 67.5462 23.6281 67.6683 23.8789C69.2209 27.5251 68.5317 30.6768 68.0848 33.8519C68.0622 33.9911 68.035 34.1284 68.0035 34.2646C67.3764 36.7883 65.5944 38.438 64.5382 39.9393C64.0826 40.5685 63.5422 41.1047 62.9813 41.544C61.3291 42.8123 59.6345 43.3791 57.9956 43.8604C56.891 44.1736 55.7655 44.5001 54.5442 44.8059C54.2303 44.8832 54.6661 45.0709 54.2791 45.1649C52.7091 45.5442 51.087 45.7767 49.4883 45.8661C47.0753 46.0167 44.5845 46.2393 42.1079 46.3901C41.7055 46.4152 42.1939 46.111 41.7903 46.1213C40.6532 46.1528 39.204 46.1617 37.8433 46.2826C36.3635 46.4082 35.034 47.1004 34.6052 47.9274C33.7875 48.2618 32.875 48.7168 31.9715 49.1555C31.3006 49.4782 30.6729 49.7913 30.1294 50.0591C29.3302 50.4743 29.8471 49.7265 29.0605 50.5124C28.8913 50.6936 29.2843 50.6628 29.0281 50.9187C28.5443 51.4101 28.0847 51.94 27.6997 52.5294C27.4241 52.942 27.0686 53.5261 26.4202 53.9822C25.8837 54.3635 25.2294 54.5835 24.6286 54.6547C24.1595 54.7028 24.2864 54.9009 24.1478 54.9392C22.879 55.2272 21.5683 54.0712 21.3325 53.9093C20.4315 53.345 19.7194 52.8362 19.029 52.395C18.0295 51.7536 17.1564 51.0712 16.2552 50.2673C15.8905 49.9406 16.1325 50.5384 15.7757 50.2315C15.1884 49.7233 14.6236 49.2178 14.0592 48.7527C12.8295 47.7399 11.5298 46.7711 10.2594 45.8676C9.84356 45.5732 10.3692 45.6151 10.176 45.4639C9.85978 45.2191 9.59727 45.1047 9.35256 45.0272C9.47885 45.1407 9.72792 45.1817 9.83623 45.1713C9.9535 45.1657 9.99036 45.1608 10.0059 45.1788C10.0328 45.2106 9.96921 45.3154 9.89552 45.4116C9.89499 45.4123 9.89445 45.413 9.89392 45.4137C9.84288 45.4862 9.66523 45.3717 9.6374 45.3802C9.40973 45.4803 9.42664 45.708 9.52275 45.8515C9.61702 46.002 9.77249 46.0911 9.79046 46.1431C9.94389 46.5664 10.1563 47.0077 10.38 47.5097C10.559 47.7679 10.5936 48.4562 10.3552 48.7754C10.1504 49.0982 9.95795 49.1969 9.82782 49.2764C9.55156 49.4256 9.365 49.4657 9.18046 49.5101C8.81653 49.5889 8.50986 49.6136 8.19356 49.6412C7.56729 49.6915 6.95224 49.7251 6.26386 49.8323C6.02361 49.8697 6.5984 50.0687 5.92092 50.1569C5.44479 50.2183 4.968 50.2748 4.49431 50.3314C4.44518 50.3371 4.43288 50.3515 4.48022 50.3292C4.52534 50.3109 4.6307 50.219 4.67154 50.1232C4.74382 49.9132 4.69458 49.9838 4.72043 50.0073C4.96513 50.598 5.97207 51.4916 6.08611 53.029C6.14947 54.0547 5.52442 54.7801 5.11362 55.1789C4.67422 55.602 4.25541 55.8991 3.96961 56.1685C3.66867 56.3207 3.6086 57.5414 3.89292 58.4511C3.93889 58.6289 3.99702 58.7342 4.14959 58.8582C4.49241 59.0795 4.15478 59.1234 4.15631 59.1541C4.52645 59.7427 5.13099 59.2766 5.30163 59.2781C6.95428 59.2862 8.55688 59.4318 10.1651 59.2653C10.3187 59.3144 10.4788 59.3746 10.6363 59.4479C12.8108 60.5396 13.9675 62.2421 15.5093 62.5583C15.3759 62.5211 15.2495 62.6003 15.2849 62.5807C15.3045 62.5696 15.3678 62.4797 15.3777 62.4409C15.3794 62.4553 15.4013 62.2961 15.3976 62.0642C15.4036 61.8289 15.3759 61.5118 15.5146 61.0531C15.9093 59.7338 17.2962 59.2248 18.1485 59.1213C19.0731 58.989 19.9069 59.043 20.7201 59.1179C22.3226 59.2674 23.9128 59.6383 25.2507 59.6948C25.1776 59.6953 25.0812 59.8038 25.133 59.7629C25.1685 59.733 25.221 59.5983 25.2306 59.5212C25.3309 59.2742 24.805 58.665 24.1915 57.9199C24.1247 57.8274 24.4271 57.8276 24.326 57.6589C24.3204 57.6502 24.3143 57.6409 24.3079 57.6311C24.1645 57.4462 24.1652 57.0918 24.2629 56.934C24.3487 56.765 24.4433 56.6774 24.5246 56.5988C24.6897 56.4477 24.8254 56.3549 24.9433 56.2661C25.178 56.0938 25.3357 55.9642 25.4504 55.8376C25.6632 55.5992 25.794 55.3189 25.7317 55.1242C25.7156 55.0086 25.6107 54.9498 25.5114 55.0131C25.4531 55.072 25.5874 54.9919 25.5461 54.7017C25.5203 54.4339 25.4128 54.1175 25.3972 54.0737C25.253 53.7279 25.7693 53.6952 25.7032 53.5933C25.0589 52.7361 24.4597 53.8382 23.3555 53.1127C23.3209 53.0882 23.5931 52.9917 23.5094 52.9116C23.2481 52.6609 22.897 52.5517 22.6346 52.2986C22.3126 51.9866 22.1766 51.6491 21.9403 51.3395C21.7433 51.0755 21.454 50.8337 20.8801 50.6757C20.7226 50.6388 20.5663 51.3407 19.5426 50.7276C19.1404 50.4639 17.2346 49.5724 16.6934 49.3459C16.1602 49.0972 16.615 49.0265 16.58 49.0026C16.3427 48.8606 16.1602 48.7494 16.0192 48.6567C15.3117 48.2001 15.6578 48.1579 15.1124 47.5979C14.447 46.9284 14.3593 48.0043 14.0065 48.0207C13.6545 48.0335 12.5678 47.4829 12.2979 47.3354C12.0309 47.1833 12.4231 47.1291 12.1776 47.0209C10.5273 46.3354 11.3214 47.3705 10.7388 47.4254C10.2998 47.4768 9.91859 47.4278 9.55521 47.3352C9.51881 47.3242 9.49634 47.3156 9.49794 47.3067C9.50283 47.3017 9.50856 47.2989 9.55618 47.286C9.58519 47.2781 9.62757 47.2666 9.68928 47.238C9.7309 47.216 9.88203 47.1533 10.0099 46.9603C10.2764 46.5107 10.0272 46.1879 10.025 46.1843C9.98037 46.1232 9.96089 46.1168 9.95389 46.117C9.9385 46.1187 9.95141 46.1483 9.96902 46.1787C10.0476 46.3074 10.1796 46.4656 10.3102 46.6172C10.5754 46.9221 10.8697 47.2238 11.2167 47.4662C11.4948 47.6604 11.3539 47.3659 11.6184 47.5086C12.6774 48.0958 13.1575 48.6597 14.3967 49.3574C14.5256 49.435 15.0677 49.6084 15.5171 50.0297C15.7309 50.2253 15.9175 50.4537 15.9999 50.7186C16.0327 50.8239 15.6961 50.7564 16.0135 51.1462C16.4837 51.732 17.4562 52.6799 18.1261 53.1383C18.6183 53.4779 18.2898 52.8008 18.8093 53.3451C19.0427 53.5857 18.441 53.3509 18.8927 53.7916C19.1558 54.0476 19.7032 54.4791 20.2199 54.8573C20.5971 55.1336 20.9381 55.4076 21.1381 55.5735C21.6141 55.9744 21.5166 55.5714 21.5654 55.591C21.8663 55.7135 22.822 56.4965 22.8902 56.5882C23.1213 56.8366 23.3418 57.0895 23.5564 57.3738C23.7491 57.5838 23.7775 58.0617 23.6728 58.254C23.5824 58.4683 23.4888 58.5573 23.411 58.6386C23.2539 58.7899 23.127 58.866 23.0007 58.9395C22.7503 59.0793 22.5162 59.1714 22.2555 59.2456C18.5672 59.7547 16.5653 57.3302 14.0794 56.2504C12.732 55.5571 11.3861 54.8581 9.99973 54.1814C9.63949 54.0048 9.75759 54.3555 9.7014 54.3309C8.43464 53.7873 9.70974 53.6883 8.96956 53.0399C8.84918 53.564 8.39167 53.2173 7.51342 52.8103C7.0895 52.6139 7.21792 52.9115 7.1706 52.9094C6.84144 52.8835 6.6101 52.7581 6.45013 52.6152C6.25903 52.4392 6.16716 52.2324 6.12704 52.1617C5.85866 51.6973 5.27277 51.8323 5.06935 51.5484C4.84639 51.2644 5.62785 51.2103 4.73316 50.9286C4.4567 51.0485 4.89882 51.6632 4.31883 51.6012C4.26803 51.5996 4.21463 51.6024 4.21373 51.6103C4.0904 51.621 3.94959 51.6495 3.96692 51.6588C3.97671 51.6559 4.00926 51.6615 4.11642 51.5843C4.1584 51.5535 4.25119 51.4669 4.30448 51.3359C4.36027 51.203 4.36032 51.0691 4.34404 50.9813C4.24874 50.665 4.24101 50.7686 4.26922 50.7653C4.39792 50.8649 4.71486 51.0516 5.00367 51.2114C5.60058 51.5422 6.27867 51.9016 6.94409 52.2763C8.28254 53.0359 9.62401 53.826 10.579 54.7211C10.8585 54.9938 11.1232 55.2249 11.354 55.4108C12.987 56.6778 13.6412 56.9494 14.6517 57.6766C15.0711 57.9717 15.3675 58.1682 15.5907 58.2999C16.3081 58.7165 16.269 58.4337 17.1046 58.7769C17.136 58.7892 17.1699 58.803 17.2065 58.8185C17.372 58.8894 17.5203 58.9674 17.6744 59.0926C17.7524 59.1581 17.8334 59.2296 17.9334 59.37C18.0217 59.4949 18.1945 59.8007 18.099 60.1816C17.9933 60.5415 17.8047 60.636 17.7199 60.6871C17.6189 60.7391 17.5642 60.7401 17.5137 60.7404C17.4221 60.7334 17.374 60.6928 17.3418 60.6455C17.2301 60.448 17.2497 60.1484 17.1174 60.0994C16.9768 60.0285 16.8769 60.0726 16.747 60.1083C16.6593 60.1317 16.5675 60.1511 16.4654 60.1234C16.2118 60.0529 16.7086 59.8532 16.1456 59.891C15.5831 59.9372 14.0642 60.4189 13.8703 60.6224C13.4607 61.0656 14.2104 61.4893 12.6421 61.3867C12.5531 61.3792 12.8374 61.1403 12.4946 61.1231C10.3369 61.0935 8.08413 60.4629 6.08956 60.411C5.59423 60.4426 5.11382 60.6203 4.6916 60.9062C4.40582 61.1084 4.48454 60.7076 4.31031 60.8347C3.42246 61.5667 3.35121 61.988 3.3454 62.2456C3.35686 62.5204 3.49701 62.7225 3.45304 63.3491C3.05224 62.8786 2.47681 63.1588 1.88593 64.2871C1.78804 64.4812 1.6826 64.7624 1.78748 65.1104C1.94906 65.5491 2.23196 65.6472 2.38479 65.7086C2.54803 65.7615 2.66498 65.7571 2.76598 65.741C2.96704 65.7042 3.11516 65.6214 3.44797 65.572C3.64068 65.55 4.34226 65.7845 4.47578 65.6478C4.90164 65.2051 4.238 64.7681 5.90309 64.8757C5.97753 64.8796 5.75874 65.1337 6.0156 65.1297C7.19547 65.1006 7.62206 64.8233 8.37709 64.5609C8.54248 64.4688 8.68208 64.3691 8.90749 64.1173C9.10019 63.9008 9.35644 63.5238 9.55212 63.0445C9.80515 62.8983 9.16547 61.5102 9.74824 60.2329C9.94444 59.8347 10.1613 59.4889 10.3621 59.189C10.9479 59.5782 11.6983 58.2618 11.8023 57.4549C12.5647 56.6623 13.4159 55.861 14.2379 55.2342C14.5206 55.0185 14.4836 55.3307 14.5323 55.3183C15.2821 55.1388 15.3088 54.4663 15.4619 54.3028C15.918 53.8245 16.3802 53.3859 16.7047 52.9627C17.7178 51.623 18.7954 50.4821 19.2833 48.873C19.3056 48.7901 18.9099 48.4783 19.4675 48.08C19.5049 48.0487 19.4521 48.8323 19.8454 47.8466C19.8795 47.7544 19.9165 47.6558 19.9556 47.5492C20.3464 46.3546 21.5191 44.8121 22.3169 43.6119C22.5176 43.2856 22.8934 42.28 23.6768 41.971C23.781 41.9304 23.8016 42.1124 23.9636 42.0678C24.019 42.0522 24.0667 42.0321 24.1086 42.0086C24.459 41.8134 24.4073 41.3613 25.0407 41.3208C25.7491 41.2748 26.8147 40.8073 27.8804 39.6367C27.9144 39.6002 27.9672 39.0543 28.3659 38.7663C28.8646 38.406 29.5541 37.9641 30.1362 37.5421C30.2963 37.4262 30.4467 37.3096 30.5822 37.1964C30.8815 36.9432 30.5264 36.9129 30.5754 36.8657C32.4088 35.069 33.7488 33.7559 35.7168 31.7935C35.7362 31.7739 35.7556 31.7541 35.7749 31.7341C36.1695 31.3649 36.6842 30.0029 37.2276 29.1669C37.7975 28.2072 38.8554 29.6914 38.9704 26.873C38.9625 26.2508 38.4793 25.5458 38.137 24.7846C38.035 24.436 37.703 24.2783 37.4485 24.2511C37.1811 24.2156 36.9181 24.2134 36.6187 24.2473C36.4099 24.2755 36.1835 24.3556 35.9524 24.4875C35.7653 24.7378 35.6583 25.0131 35.5868 25.2866C35.0878 27.6351 36.9379 29.2721 37.9481 30.9193C38.6242 31.9537 39.7304 32.5759 40.8508 32.9638C41.0074 33.0203 41.6386 32.8074 41.9832 32.9399C42.499 33.1407 42.723 33.4315 43.0967 33.574C43.4808 33.7212 43.862 33.851 44.2393 33.9768C44.8244 34.1579 45.5288 34.1405 45.9989 33.8626C46.2158 33.7043 45.8545 33.3279 45.5741 33.1493C45.4286 33.053 45.2701 32.9729 45.1039 32.9057C44.5516 32.72 44.7969 32.5517 44.0593 32.4486C43.3876 32.3899 42.9388 32.6388 42.1382 32.6693C42.0489 32.6733 41.9566 32.6771 41.8569 32.6819C41.1395 32.7049 40.1193 32.5566 39.2099 33.1335C39.4996 33.6116 38.9438 34.0128 38.1074 34.9006C37.9444 35.0696 38.2616 35.0639 38.1905 35.1519C37.9009 35.5151 37.4703 35.6446 37.1705 35.9784C37.0964 36.0596 37.197 36.2224 37.1387 36.2985C37.1381 36.2993 37.1375 36.3001 37.1369 36.301C36.6759 36.9318 35.4298 37.188 35.2175 37.226C34.3997 37.3833 34.2104 37.7802 33.6339 37.9824C33.059 38.1819 33.7653 37.6171 33.1258 37.9035C32.4461 38.2072 31.6911 38.5963 30.9417 38.9982C30.2173 39.3871 29.5361 39.8395 28.9393 40.2434C28.4524 40.5768 28.9296 40.5579 28.8633 40.6105C27.9056 41.3569 26.7638 41.8679 26.5128 42.6719C25.6824 42.3409 25.6354 42.5574 25.4462 42.9534C25.3001 43.2463 25.0746 43.6367 24.3956 43.9558C24.2705 44.014 23.7786 43.594 24.1642 43.2257C24.4053 42.9955 24.797 42.8 25.1849 42.5584L25.1765 42.5641C25.4034 42.4173 25.6281 42.2511 25.8169 42.0506C25.9374 41.9248 26.3891 40.8768 26.4778 40.7682C27.1717 39.9223 27.8439 40.5886 27.9173 40.5984C28.75 40.6755 29.3973 39.4777 29.6601 39.2664C29.9938 38.9863 30.337 38.7457 30.6853 38.534C31.4994 38.0369 32.2771 37.6464 32.9707 37.1337C33.609 36.6617 33.3672 36.0964 33.9031 35.8016C34.83 35.2883 35.5513 35.1271 36.2101 34.8536C36.7484 34.6443 37.2333 34.2678 37.7349 33.3961C37.9867 33.0023 37.1484 32.7594 38.8507 32.1607C38.9637 32.1149 40.2934 31.801 41.0514 31.3026C41.1465 31.236 41.0925 31.0487 41.2373 30.9961C41.4772 30.9116 41.709 30.862 41.9361 30.8351C42.4537 30.7758 42.9189 30.8029 43.6371 30.7551C44.4126 30.7244 45.519 30.6705 46.7179 31.4548C46.968 31.6281 47.2003 31.8237 47.4411 32.1217C47.6065 32.3438 47.8089 32.5993 47.9434 33.1957C48.0036 33.4913 48.0261 33.9359 47.847 34.3938C47.6723 34.8543 47.3269 35.1859 47.0624 35.3451C46.4221 35.6864 46.1858 35.6012 45.9288 35.6111C45.6893 35.5982 45.5183 35.5619 45.4035 35.5438C44.8539 35.4469 44.336 35.441 43.7778 35.2854C43.4626 35.2092 43.1762 35.1362 43.0176 34.9222C42.6895 34.482 43.6799 34.323 42.6197 33.7474C42.4133 34.2097 42.1463 34.665 41.9093 35.1194C40.27 34.4885 38.2238 33.8127 36.7844 31.6951C36.3913 31.0648 35.8433 30.3795 35.2913 29.5719C35.0852 29.2646 35.0674 29.7361 34.8376 29.3958C34.1298 28.3376 33.4635 26.6449 34.0202 24.8313C34.1974 24.2878 34.4309 23.6403 35.1789 23.0027C35.4217 22.8036 35.7254 22.6237 36.0586 22.5066C36.7334 22.2925 37.1765 22.2521 37.8752 22.3715C38.2172 22.4455 38.6456 22.5738 39.1119 22.9742C39.586 23.3596 39.9409 24.1239 39.9649 24.6947C40.0823 25.3597 40.163 26.0547 40.1447 26.7494C39.5308 27.5715 39.362 29.7275 38.4819 31.1755C38.1872 31.6713 38.069 31.5557 37.8082 31.8643C36.7685 32.9704 37.5701 32.7106 37.3608 33.0977C37.3327 33.1439 37.3041 33.1882 37.275 33.2306C36.5504 34.3883 35.6429 33.775 34.5209 35.0347C34.4627 35.1015 34.136 36.3529 34.0481 36.4966C33.5195 37.4035 33.78 36.469 33.3003 36.8932C32.5325 37.5592 31.9011 37.9968 31.0695 38.7526C30.9465 38.8644 30.8196 38.9846 30.6887 39.1145C30.4093 39.3945 29.8916 40.2552 29.1265 40.4548C29.0258 40.4814 28.947 40.2864 28.8775 40.3234C27.6343 41.0077 27.9994 41.5395 27.5296 42.1891C27.0616 42.834 25.915 43.2664 25.6565 43.3435C24.98 43.532 25.9065 42.9136 25.9149 42.8703C25.9501 42.428 25.5661 42.7366 25.1634 43.107C25.0597 43.2024 24.9548 43.3007 24.854 43.3906C24.3424 43.0092 23.6997 43.7208 24.3415 43.8618C24.4106 43.8764 24.7355 43.465 24.854 43.3906C24.8569 44.253 24.2397 44.9746 23.1425 45.4651C22.6439 45.7124 22.5972 45.1149 21.9029 46.5049C21.6295 47.1451 22.1332 47.0975 22.0223 47.6615C21.9939 47.8279 21.9592 47.9954 21.9212 48.1658C21.5248 49.8216 20.2474 51.3259 19.4473 52.5054C19.1123 53.0041 19.6478 52.6717 19.4243 53.0165C19.1156 53.4904 18.7786 53.8785 18.464 54.2616C18.025 54.8034 17.6292 55.1445 17.2576 55.5544C17.1876 55.6305 17.5422 55.6406 17.2817 55.884C15.3787 57.634 13.5972 58.7915 12.4446 60.5489C12.3189 60.7484 12.1936 60.9889 12.1001 61.2373C12.1435 61.1743 12.1082 61.1661 12.205 61.59C12.2648 61.9749 12.5922 62.765 12.2372 63.9463C12.1013 64.3672 11.9293 64.7501 11.7337 65.0838C11.2747 65.8784 10.32 66.9796 8.79115 67.174C6.95601 67.3334 5.13412 67.365 3.46865 67.2628C2.69061 67.2038 2.24155 67.1213 1.912 67.0739C1.74803 67.0487 1.60417 67.029 1.41958 66.9676C1.23752 66.8961 0.985061 66.8202 0.589993 66.3801C0.273023 66.0303 0.00998664 65.3945 0.00148392 64.8461C-0.0155628 64.2791 0.118756 63.8751 0.264739 63.5459C0.626359 62.6908 1.61187 61.5712 1.80607 61.4266C1.79515 61.4257 1.27306 62.5368 1.68921 62.0193C2.09805 61.8148 1.79908 61.4422 1.80607 61.4266C1.88356 61.3603 2.24261 60.7747 2.80492 60.1717C3.34621 59.5576 4.20377 59.0267 4.50887 58.8833C4.83505 58.7143 4.5583 58.5779 4.74272 58.4968C5.09159 58.3517 5.46361 58.2488 5.83588 58.1919C7.93551 57.9868 8.95529 58.3464 10.2114 58.3856C11.4226 58.4711 12.6422 58.4827 13.8977 58.4439C13.9453 58.4452 13.8923 58.7119 14.0052 58.7115C14.9858 58.7093 15.7492 58.5181 16.476 58.2832C16.526 58.259 16.5794 58.2204 16.4663 58.2344C16.3951 58.2625 16.3107 58.2169 15.8909 58.5447C15.6886 58.7088 15.2721 59.1935 15.2343 59.8884C15.2064 60.5675 15.4502 60.9233 15.5555 61.0984C15.7938 61.4356 15.8505 61.4434 15.8822 61.4898C15.9099 61.5221 15.8982 61.5241 15.8742 61.5208C15.8233 61.5115 15.7214 61.4753 15.5906 61.4209C15.5467 61.4025 15.503 61.3839 15.459 61.3647C14.8965 61.1197 14.4257 60.8467 14.0611 60.5944C13.5112 60.213 13.0621 59.7853 12.7723 59.2761C11.8499 58.7794 10.5891 57.7297 9.91872 57.0309C9.47371 56.5768 9.14341 56.537 8.93987 56.5513C8.86435 56.5831 8.81083 56.6172 8.79686 56.6097C7.20262 55.7937 5.96542 54.9664 3.73677 53.6876C3.47915 53.5331 3.19105 53.3824 2.73334 53.0574C2.60799 52.9624 2.49337 52.8866 2.26269 52.6528C2.17201 52.5541 1.99299 52.3755 1.81823 52.0158C1.71712 51.8041 1.58295 51.4249 1.61382 50.9581C1.62721 50.4605 1.93903 49.8663 2.22976 49.6014C2.46754 49.3655 2.6953 49.2379 2.88118 49.1524C3.05176 49.0767 3.13529 49.0524 3.24382 49.021C3.46319 48.9623 3.57058 48.95 3.68764 48.9342C3.94346 48.9055 4.0513 48.9045 4.22711 48.9015C4.68915 48.9115 4.85375 48.9649 5.05894 49.0053C5.24962 49.0484 5.41019 49.0931 5.56438 49.1391C5.87034 49.2311 6.14187 49.3274 6.40023 49.4254C6.91475 49.6213 7.36767 49.8247 7.73956 50.0056C7.77447 50.0226 7.80884 50.0396 7.84271 50.0568C8.68098 50.4744 9.15228 50.8505 9.97196 51.2013C10.0866 51.2504 10.0819 50.9909 10.1195 51.0009C11.1525 51.239 10.4584 51.5001 10.5997 51.6867C11.1125 52.3625 11.4471 52.7557 12.6954 53.2041C12.9838 53.3083 14.131 52.9936 14.64 53.1938C15.1666 53.4024 15.0427 53.5318 15.3192 53.7088C15.3983 53.7581 15.5056 53.8116 15.6597 53.8728C15.7233 53.8988 15.7928 53.7336 16.2278 53.9657C18.1472 55.0133 20.4338 56.401 21.2325 56.2714C21.3093 56.2641 21.2108 55.9917 21.2745 55.9769C21.2874 55.9729 21.2958 55.9691 21.3023 55.9655C21.2872 55.9695 21.3459 55.9391 21.289 55.9668C21.2547 55.9904 21.2071 55.9967 20.9934 56.1983C20.8869 56.3174 20.7101 56.4483 20.4793 56.9837C20.373 57.2478 20.2629 57.6675 20.314 58.1706C20.3589 58.6723 20.5874 59.1569 20.8133 59.4466C20.2613 58.7392 19.3402 57.848 18.528 57.1863C18.308 57.0103 18.0918 56.8327 17.8806 56.6538C17.4792 56.3109 17.8617 56.3525 17.8056 56.2373C17.4627 55.5404 16.3621 55.3077 16.2238 55.2018C14.9853 54.2948 13.9563 53.279 13.0653 52.233C12.2121 51.2359 10.6077 50.1998 8.29804 48.8881C8.24007 48.8475 8.13821 48.825 7.81117 48.5963C7.72958 48.5351 7.61152 48.4501 7.42325 48.2425C7.36376 48.1746 7.29764 48.0933 7.22412 47.9855C7.14381 47.8598 7.0929 47.8014 6.96634 47.504C6.84923 47.21 6.71906 46.7529 6.80395 46.1522C6.87033 45.5351 7.32344 44.8112 7.75394 44.4949C7.86075 44.409 7.96516 44.3386 8.06388 44.2801C8.133 44.239 8.18969 44.2086 8.24902 44.1791C8.3658 44.1213 8.47245 44.0785 8.56937 44.0448C8.76284 43.978 8.92038 43.945 9.04923 43.9233C9.22018 43.8934 9.35394 43.8824 9.47132 43.8761C9.69285 43.8657 9.78625 43.8658 9.92326 43.8691C10.5903 43.8284 11.3983 43.8986 11.7897 44.2545C11.8425 44.2956 12.4896 44.9193 13.2105 44.7632C13.2558 44.7542 12.8586 44.3953 13.651 44.6249C14.4399 44.8548 15.7379 45.0709 16.6828 45.6734C16.7535 45.7181 16.8422 45.7922 16.9499 45.8787C17.3351 46.1705 17.9102 46.601 18.7871 46.6599C18.8544 46.6466 20.7851 46.5878 21.0344 47.4181C21.0722 47.5555 20.6902 48.044 21.9518 48.4037C22.1937 48.4755 21.8848 48.1232 22.4843 48.3838C22.8173 48.5303 23.163 48.7394 23.5193 48.9709C23.9816 49.2676 24.6567 49.6675 25.3989 49.9278C25.5976 49.9963 26.6252 50.1343 27.1182 50.9433C27.1922 51.0691 26.8606 51.0683 27.2004 51.3801C27.6374 51.8044 28.1251 52.2254 28.6452 53.103C28.8925 53.5441 29.1718 54.1783 29.1733 55.0231C29.1855 55.8699 28.8003 56.7243 28.4008 57.213C27.5505 58.1827 27.1723 58.2535 26.8244 58.5023C26.6629 58.5998 26.5291 58.6821 26.49 58.7006C26.4725 58.7064 26.4797 58.7009 26.5555 58.612C26.6197 58.5108 26.8273 58.3673 26.9928 57.6977C27.0811 57.3075 27.0248 56.8326 26.9074 56.5374C26.7918 56.2348 26.6656 56.0772 26.5667 55.9658C26.5073 55.9837 26.4605 56.0664 26.4183 56.143C26.3822 56.2264 26.3572 56.3159 26.5067 56.5204C26.6955 56.905 27.8167 57.6462 27.9312 59.5481C27.9294 60.138 27.8222 60.5692 27.6564 61.0029C27.4996 61.3956 27.3583 61.6406 27.3126 61.796C27.2615 61.953 27.2983 62.0252 27.3199 62.1129C27.3371 62.2002 27.3487 62.3085 27.134 62.5427C26.934 62.7518 26.3753 63.2124 25.3456 63.2702C25.2984 63.2743 25.2484 63.2775 25.1954 63.2794C23.0675 63.2957 21.7243 62.9563 20.3427 62.8294C19.685 62.7576 19.0512 62.7307 18.6938 62.767C18.52 62.7788 18.4404 62.8195 18.5487 62.7458C18.6536 62.6896 18.9223 62.3629 18.9545 62.16C19.0485 61.7868 18.9849 61.8342 18.9887 62.0718C18.9674 62.3175 19.0259 62.7712 18.753 63.6054C18.492 64.2994 18.1624 64.7928 17.5672 65.3036C17.0211 65.792 15.8258 66.3095 14.6702 65.9966C14.2987 65.9016 13.9381 65.7771 13.5992 65.6327C12.7626 65.2342 13.3172 65.7632 12.1914 65.1063C10.8509 64.2473 9.75102 63.1914 9.08282 62.9514C9.15973 62.9677 8.64997 62.8613 8.08033 62.8596C7.49471 62.8438 6.79611 62.862 6.02401 62.8336C5.24738 62.7949 4.39034 62.7574 3.31031 62.3681C2.2467 62.0581 0.837514 60.7489 0.591672 59.5405C0.536927 59.3178 0.495735 59.1043 0.465165 58.8984C0.262573 55.4989 1.07013 59.6651 0.936316 57.1293C0.926171 56.2408 0.926927 54.741 1.63738 53.8293C1.73045 53.6564 1.79453 53.545 1.84038 53.4966C2.2938 53.0267 2.58887 52.7583 2.68276 52.6397C2.72979 52.5866 2.71249 52.5884 2.66206 52.7042C2.61136 52.8137 2.55685 53.065 2.58382 53.2676C2.66741 53.372 2.59047 53.071 1.78588 51.9068C1.50883 51.434 1.53113 51.9202 1.34268 51.6627C1.30941 51.6071 1.27112 51.5335 1.23153 51.4408C0.940052 50.6868 0.666825 49.7295 1.32086 48.3801C2.06451 46.9902 3.45501 46.6528 4.08438 46.6048C4.68374 46.56 5.26441 46.5244 5.79755 46.4516C6.25799 46.3871 6.15066 46.2031 6.56232 46.1649C7.01961 46.12 7.44216 46.0809 7.77108 46.0526C7.92808 46.0414 8.08113 46.0203 8.07081 46.0543C8.05383 46.0855 8.01867 46.0784 7.71054 46.3341C7.57544 46.4657 7.25927 46.7136 7.02832 47.3663C6.7705 48.058 6.98556 48.9221 7.20785 49.2517C7.18827 49.1943 7.16585 49.1312 7.14247 49.065C7.10773 48.9654 7.65472 49.4632 7.24738 48.6907C6.84763 47.8375 5.98337 46.1938 6.84106 44.0745C7.06013 43.5923 7.29565 43.2057 7.73774 42.762C7.96856 42.5449 8.24704 42.2951 8.78254 42.0855C9.28175 41.8629 10.3019 41.8307 10.9816 42.2508C10.9902 42.2546 10.9988 42.2583 11.0074 42.2621C11.4302 42.4486 11.6865 42.0718 12.3626 42.8631C12.503 43.0321 11.9918 43.3309 13.2032 43.577C13.4039 43.6088 15.3711 44.2176 15.8815 45.1464C15.9705 45.3049 16.1022 45.6828 16.3125 46.0091C16.4257 46.1815 16.5576 46.3391 16.7175 46.4451C16.7822 46.4863 16.7084 46.1049 17.0751 46.3903C18.3544 47.4021 19.4284 48.4777 20.5276 49.124C20.8179 49.292 20.545 48.8161 20.9642 49.0603C20.9923 49.0762 21.0206 49.092 21.0489 49.1078C22.4588 49.9792 24.1798 50.7983 24.3443 50.7429C24.3678 50.7698 24.3931 50.9738 24.3943 50.9965C24.4862 51.2254 24.4701 51.0832 24.3938 50.9802C24.3348 50.9418 24.2804 50.9059 24.2686 50.9035C24.2083 50.9015 24.3274 50.7385 24.5344 50.4192C25.2278 49.3844 26.0766 48.624 26.9766 47.813C27.3261 47.5047 26.923 47.5318 26.9818 47.4566C27.6196 46.6981 27.3093 47.4703 27.815 47.1519C28.5818 46.6851 29.3662 46.2424 30.1233 45.828C30.7326 45.4944 31.3604 45.1412 31.9875 44.8148C32.4929 44.5544 31.7962 44.5907 32.2579 44.3598C33.741 43.6268 35.4692 42.9507 37.441 42.7484C38.7127 42.6253 39.9843 42.5235 41.2225 42.4552C41.7299 42.4278 41.4358 42.6715 41.5461 42.7074C42.3071 42.9599 43.3202 42.3906 43.5616 42.3213C44.6556 42.005 45.1092 42.1445 46.0959 42.0124C47.0813 41.8816 48.1081 41.7612 49.2179 41.6742C51.7611 41.502 54.2244 40.9146 56.8501 40.128C57.9922 39.7998 59.0057 39.4111 59.7831 38.9732C60.5075 38.5671 61.0461 38.1241 61.4285 37.6435C63.0759 35.6275 64.3317 34.3138 64.4868 33.2819C64.8247 31.3685 65.0234 29.4049 64.7934 27.5194C64.7544 27.2264 64.5148 27.5543 64.4761 27.3086C64.3664 26.6203 64.1987 25.9924 63.9809 25.5051C63.0696 23.4445 61.9812 21.4263 60.7838 19.3026C60.4199 18.6532 60.0863 18.0163 59.7616 17.4159C59.6088 17.1329 59.5851 17.6633 59.3338 17.218C58.8184 16.3023 58.2631 15.2899 57.8098 14.5416C57.5858 14.1735 58.1152 14.5001 57.8799 14.1292C57.8111 14.0226 57.7392 13.9171 57.6639 13.8122C57.035 12.9535 56.3351 12.139 55.6081 11.4922C55.2555 11.1833 55.5796 11.8601 55.1401 11.4531C54.443 10.8208 53.7298 10.3 52.9616 9.87008C50.5871 8.63878 46.8861 7.92558 43.5762 7.5745C43.2781 7.54601 43.007 6.98882 42.3598 7.11382C42.3163 7.26798 42.3256 7.44726 42.3108 7.61099C41.3602 7.65969 40.4281 7.76922 39.6128 7.9628C37.217 8.51515 35.0167 8.92581 33.8103 9.77342C31.5943 11.3117 29.3061 12.8068 27.508 14.3704C26.8689 14.9379 26.3177 15.4432 25.8398 15.9752C25.6778 16.1576 26.17 16.0356 25.8658 16.386C25.0917 17.2934 24.5108 18.3148 24.0045 19.4797C23.2989 21.1074 22.6008 22.7316 21.8321 24.3894C21.6959 24.6867 21.2658 24.3562 21.0193 25.2981C20.9733 25.4645 20.5741 26.8723 20.5695 27.2654C20.57 27.3196 20.8783 27.138 20.7429 27.5885C20.3168 29.0016 19.898 30.4553 19.462 31.9376C19.0505 33.3427 18.5118 34.6639 17.9173 35.8943C17.7064 36.3261 17.6735 35.7569 17.5212 36.0614C16.972 37.1569 16.4339 38.2972 15.8718 39.3906C15.3461 40.4139 14.809 41.4459 14.1726 42.3689C13.2894 43.6267 13.1811 42.917 12.3953 43.3816C12.2896 43.4473 11.7554 44.2358 11.5159 44.1253C10.9337 43.8511 10.6073 43.1074 9.95432 42.8619C9.81703 42.8236 9.31883 43.7212 9.40798 43.0338C9.41622 42.995 9.75813 42.3073 9.75925 42.0733C9.76184 41.9159 9.41743 41.9797 9.47273 41.6953C9.52655 41.411 9.86874 41.2626 9.99672 40.7886C10.121 40.3112 9.76465 40.3617 10.193 39.4949ZM7.19257 54.484C6.61576 53.8914 6.09282 54.6299 6.93692 54.8429C6.9778 54.8522 7.22233 54.5141 7.19257 54.484ZM37.4055 31.3171C37.4024 31.3071 37.3993 31.2971 37.3962 31.2872C37.1575 30.2709 36.2357 30.0335 36.4375 30.8045C36.5479 31.252 36.8721 31.4402 37.1165 31.4737C37.3232 31.5438 37.4579 31.4803 37.4055 31.3171ZM45.0044 32.0469C45.4701 32.2847 45.8256 32.3938 46.0863 32.3906C46.3389 32.3907 46.4928 32.25 46.3555 31.9917C46.246 31.7798 45.8875 31.4947 45.3289 31.4083C45.2143 31.3888 44.9248 32.0075 45.0044 32.0469ZM14.0632 40.1153C14.0479 40.1197 13.7353 40.6947 13.7379 40.7142C13.8287 41.1564 14.4558 40.0036 14.0632 40.1153ZM35.1206 36.5199C35.5387 36.4709 36.3672 35.7186 35.8512 35.7885C35.4392 35.8456 34.6043 36.5819 35.1206 36.5199ZM11.0171 47.8575C11.0147 47.8403 10.6227 47.5873 10.5897 47.6556C10.4926 47.8816 11.0791 48.1587 11.0171 47.8575ZM19.8012 46.9345C19.911 46.6594 20.1108 46.4308 20.2939 46.279L20.326 46.2515C22.2912 45.0577 23.6964 45.1478 21.4527 46.5992C21.0071 46.8923 22.1911 45.6587 21.5842 45.9758C21.1991 46.1769 20.9141 46.433 20.6576 46.7007L20.6876 46.675C20.3152 47.2067 20.521 47.6479 20.3546 48.4711C20.3363 48.5828 20.1195 48.2965 19.9558 47.9172C19.7787 47.5482 19.7485 47.0231 19.802 46.9285C19.8017 46.9305 19.8015 46.9325 19.8012 46.9345ZM7.30463 53.3183C7.29651 53.2996 6.73086 52.9864 6.71191 52.9903C6.27125 53.0788 7.40548 53.707 7.30463 53.3183ZM25.4698 59.0097C25.4664 59.0281 25.6133 59.296 25.5964 59.5249C25.5903 59.789 25.4443 60.0121 25.4504 60.0142C25.4794 60.1646 25.5418 60.2424 25.6847 60.1605C25.8221 60.0827 25.9718 59.8094 25.9732 59.5286C25.9674 58.98 25.5001 58.6525 25.4698 59.0097ZM10.3934 59.1759C10.559 58.3745 11.1409 57.6336 11.7998 57.4571C11.2928 57.9765 10.8175 58.5456 10.3934 59.1759Z" fill="#312FC3"/>
</svg>
