<svg width="117" height="118" viewBox="0 0 117 118" fill="none" xmlns="http://www.w3.org/2000/svg">
<rect x="41.7162" y="1.35457" width="83.2839" height="85.132" rx="38" transform="rotate(28.3012 41.7162 1.35457)" fill="#FAEBC4" stroke="#34260E" stroke-width="2"/>
<g clip-path="url(#clip0_6001_3)">
<path d="M81.5696 49.3175L78.5101 52.377C78.2486 52.6385 77.8239 52.6385 77.5624 52.377L75.0625 49.8776L70.4765 45.2911L67.9688 42.7834C67.7151 42.5214 67.7179 42.1027 67.9766 41.8435L71.0365 38.784C71.298 38.5225 71.7228 38.5225 71.9842 38.784L72.0544 38.8542L81.4999 48.2997L81.5701 48.3698C81.8315 48.6317 81.8315 49.056 81.5701 49.318L81.5696 49.3175Z" fill="#E2E2E2"/>
<path d="M83.5881 46.2107L81.4992 48.2996L72.0537 38.8546L74.1426 36.7652C74.6816 36.2267 75.5549 36.2267 76.0939 36.7652L83.5876 44.2594C84.1262 44.7979 84.1262 45.6717 83.5876 46.2102L83.5881 46.2107Z" fill="#F0ACD1"/>
<path d="M50.8408 79.2674L42.4659 80.3774C42.3829 80.0275 42.1572 79.3546 41.5783 78.7757C40.9995 78.1968 40.3265 77.9716 39.9766 77.8881L41.0871 69.5137L44.9566 70.8109L45.9639 74.3901L49.5427 75.3969L50.8408 79.2669V79.2674Z" fill="#F2D49E"/>
<path d="M70.4761 45.291L44.9565 70.8106L41.0869 69.5134V69.5129L67.8922 42.7072L67.9684 42.7833L70.4761 45.291Z" fill="#4D4BDD"/>
<path d="M77.6459 52.4618L50.8401 79.2676L49.542 75.3971L75.0621 49.8779L77.562 52.3774L77.6459 52.4618Z" fill="#4D4BDD"/>
<path d="M42.4657 80.3772L40.6341 80.6198C40.1107 80.6891 39.6644 80.2428 39.7337 79.7199L39.9763 77.8878C40.3263 77.9708 40.9992 78.1965 41.5781 78.7754C42.157 79.3543 42.3822 80.0272 42.4657 80.3772Z" fill="#282525"/>
<path d="M75.0622 49.8775L49.5421 75.3967L45.9634 74.3903L44.9561 70.8106L70.4757 45.291L75.0622 49.8775Z" fill="#3A3AC1"/>
<path d="M84.3592 45.2346C84.3592 44.7681 84.1776 44.3296 83.8477 43.9998L76.3536 36.5056C76.0238 36.1758 75.5852 35.9941 75.1187 35.9941C74.6523 35.9941 74.2137 36.1758 73.8835 36.5056L72.0285 38.3606C71.8725 38.2697 71.695 38.2207 71.5097 38.2207C71.2327 38.2207 70.9721 38.3284 70.7763 38.5243L67.7168 41.5838C67.5209 41.7797 67.4131 42.0402 67.4131 42.3173C67.4131 42.4219 67.4287 42.5246 67.4585 42.6219L40.827 69.2533C40.827 69.2533 40.8256 69.2552 40.8247 69.2561C40.799 69.2822 40.777 69.3125 40.7601 69.3465C40.7591 69.3487 40.7578 69.3506 40.7568 69.3529C40.75 69.3666 40.744 69.3809 40.739 69.396C40.738 69.3983 40.7376 69.4006 40.7371 69.4033C40.7362 69.4056 40.7357 69.4084 40.7348 69.4107C40.7298 69.4281 40.7257 69.4455 40.7234 69.463C40.7234 69.4634 40.7234 69.4639 40.7234 69.4643V69.4657C40.7234 69.4657 40.7229 69.4685 40.7224 69.4698L39.6133 77.8383C39.6133 77.8383 39.6133 77.8397 39.6133 77.8406L39.3697 79.6713C39.3216 80.035 39.4427 80.3919 39.7018 80.6515C39.9239 80.8735 40.2174 80.9941 40.5252 80.9941C40.577 80.9941 40.6293 80.9905 40.6821 80.9836L42.5077 80.7414C42.5077 80.7414 42.5077 80.7414 42.5081 80.7414L50.889 79.6304C50.889 79.6304 50.8918 79.6295 50.8931 79.6295C50.9046 79.6277 50.9156 79.6249 50.9266 79.6222C50.9349 79.6203 50.9436 79.6185 50.9518 79.6158C50.9537 79.6153 50.9555 79.6148 50.9573 79.6144C50.9725 79.6093 50.9867 79.6034 51.0005 79.5965C51.0028 79.5956 51.0046 79.5942 51.0069 79.5933C51.0408 79.5759 51.0711 79.5543 51.0972 79.5281C51.0982 79.5272 51.0991 79.5268 51.1 79.5259L77.731 52.8948C77.8283 52.9246 77.931 52.9402 78.0356 52.9402C78.3127 52.9402 78.5732 52.8324 78.7691 52.6366L81.8286 49.5771C82.1675 49.2381 82.2212 48.7216 81.9919 48.3253L83.8468 46.4703C84.1766 46.1405 84.3583 45.702 84.3583 45.2355L84.3592 45.2346ZM51 78.5883L49.9629 75.4957L75.0623 50.3963L77.1274 52.4614L51 78.5883ZM42.7302 79.9717C42.5935 79.5648 42.332 79.0098 41.8375 78.5158C41.3435 78.0218 40.788 77.7599 40.3816 77.6232L41.3917 70.0024L44.6553 71.0968L45.6099 74.4894C45.6443 74.6123 45.7406 74.7086 45.8635 74.743L49.256 75.6976L50.3505 78.9612L42.7297 79.9712L42.7302 79.9717ZM49.4349 74.9857L46.2607 74.0926L45.3677 70.9184L70.4758 45.8103L74.5431 49.8775L49.4349 74.9857ZM44.8576 70.3909L41.7651 69.3538L67.892 43.2264L69.957 45.2915L44.8576 70.3904V70.3909ZM40.5858 80.2566C40.4504 80.2744 40.3174 80.2295 40.2211 80.1332C40.1248 80.0368 40.0798 79.9038 40.0977 79.7685L40.2835 78.3681C40.5926 78.4878 40.9752 78.691 41.3192 79.0355C41.6632 79.38 41.8669 79.7621 41.9866 80.0712L40.5862 80.257L40.5858 80.2566ZM81.3098 49.0578L78.2503 52.1173C78.1319 52.2357 77.9397 52.2357 77.8214 52.1173L68.2355 42.5315C68.1172 42.4131 68.1172 42.221 68.2355 42.1026L71.295 39.0431C71.3542 38.9839 71.4317 38.9546 71.5093 38.9546C71.5868 38.9546 71.6648 38.9839 71.7235 39.0431L71.7937 39.1133L81.2387 48.5583L81.3089 48.6285C81.4272 48.7468 81.4272 48.939 81.3089 49.0574L81.3098 49.0578ZM83.3285 45.9506L81.4992 47.7804L72.573 38.8541L74.4027 37.0244C74.7977 36.6294 75.4398 36.6294 75.8348 37.0244L83.329 44.5186C83.5202 44.7098 83.6257 44.964 83.6257 45.2346C83.6257 45.5052 83.5202 45.7593 83.329 45.9506H83.3285Z" fill="black"/>
</g>
<defs>
<clipPath id="clip0_6001_3">
<rect width="45" height="45" fill="white" transform="translate(39.3594 35.9941)"/>
</clipPath>
</defs>
</svg>
