<svg width="110" height="110" viewBox="0 0 110 110" fill="none" xmlns="http://www.w3.org/2000/svg">
<path opacity="0.63" d="M50.8104 77.1006C49.3078 73.5897 47.0068 69.5104 45.0824 65.2048C40.5092 55.1272 35.6452 44.335 32.6242 34.8131C31.3661 30.5129 32.1164 32.666 31.4012 29.6256C31.0501 27.9641 30.7934 26.2997 30.6871 24.6127C30.4543 20.7243 29.4566 17.0482 28.4873 12.8474C28.086 10.8793 28.7867 13.2628 28.4111 11.246C28.4067 11.2202 28.4025 11.1941 28.3982 11.1675C28.3589 10.9136 28.3335 10.7191 28.321 10.4226C28.3386 10.0601 28.2255 9.84123 28.6036 8.97495C28.6564 8.87425 28.7089 8.78512 28.7971 8.66594C28.899 8.52947 29.0265 8.3932 29.1773 8.27297C29.4712 8.02966 29.8939 7.86992 30.1953 7.83265C30.7551 7.74968 31.2228 7.91485 31.4101 7.99028C31.6206 8.07528 31.7893 8.16981 31.9445 8.26766C32.0807 8.35464 32.1705 8.41992 32.2766 8.50029C33.0396 9.10316 33.5066 9.64297 33.9936 10.1757C34.9598 11.2611 35.8107 12.3229 36.6593 13.3862C38.3499 15.5152 39.9899 17.6487 41.6366 19.7575C44.9408 23.9924 48.2671 28.1778 51.8868 32.3397C53.0186 33.6395 54.1707 34.9206 55.342 36.165C59.7877 40.9214 64.4243 45.3285 69.3968 49.518C75.6299 54.8332 81.738 60.2227 88.1066 65.2309C91.4751 67.8898 94.8164 70.5804 98.0586 73.4513C98.2603 73.6281 98.5115 73.931 98.6284 74.3552C98.7496 74.7781 98.6849 75.2104 98.5823 75.4835C98.367 76.0289 98.1268 76.2179 97.9424 76.3934C97.5646 76.7148 97.2626 76.855 96.9563 76.9857C96.3523 77.2293 95.7628 77.3397 95.1326 77.3462C86.2805 76.9485 80.1837 71.6917 72.9625 69.3677C64.5732 66.2259 56.3558 63.7506 47.2143 63.8405C38.9534 63.0674 30.7215 62.0426 22.4814 60.6728C19.0656 59.9586 16.108 60.2176 11.9523 58.5806C11.5378 58.3272 11.0318 57.9487 10.7346 57.2238C10.4358 56.4916 10.5927 55.7236 10.7814 55.2728C11.1894 54.3308 11.6944 53.8411 12.1765 53.335C13.1504 52.3685 14.1523 51.6084 15.1468 50.857C17.1382 49.3671 19.1487 47.9954 20.9779 46.4998C21.3263 46.2141 21.6731 45.9184 21.9996 45.6223C25.563 42.3916 29.5592 39.4748 33.4466 36.281C38.799 31.908 44.4094 27.4249 50.0577 23.1839C54.2408 19.9972 58.5072 16.9834 62.7304 14.2079C64.6598 12.9391 66.5402 11.6647 68.3715 10.3927C70.1766 9.13561 68.9935 9.72747 69.329 9.47746C72.6108 7.02102 73.2461 6.68747 74.1191 6.21304C74.3123 6.09983 74.5139 5.9952 74.7483 5.9001C75.0457 5.78623 75.3036 5.6724 75.8777 5.65182C76.3765 5.61508 77.2119 5.93029 77.6055 6.46104C78.0059 6.95428 78.1696 7.47807 78.2862 7.96826C78.9602 14.7764 76.9754 20.7119 76.2198 26.8434C75.2879 34.3856 73.5548 41.6205 72.2516 48.7253C71.5027 52.6636 70.834 56.5403 70.1048 60.2897C68.7975 66.6637 70.2796 61.3201 69.113 65.9034C69.0075 66.2975 68.8739 66.7568 68.7 67.2901C68.5417 67.7718 68.8807 65.9565 68.2879 67.8499C67.2814 70.9734 65.1441 75.6431 64.7877 79.3817C64.6086 80.8058 64.5269 82.0761 64.4731 82.9854C64.1348 89.4228 64.5386 90.4066 64.0449 96.7751C64.0146 97.0015 63.9779 97.2345 63.9329 97.4632C63.9219 97.5157 63.9108 97.5744 63.8712 97.6785C63.8158 97.7761 63.8071 97.9679 63.388 98.2342C63.1823 98.3622 62.8034 98.4026 62.5791 98.3241C62.338 98.2518 62.2008 98.1317 62.1156 98.0467C61.951 97.8701 61.9239 97.7784 61.8891 97.7077C61.8284 97.5582 61.8318 97.5417 61.8218 97.5109C61.8139 97.4813 61.8074 97.454 61.8014 97.4271C61.776 97.3106 61.7652 97.2383 61.754 97.1679C61.7293 97.0065 61.7142 96.8839 61.6973 96.7418C61.6787 96.5833 61.6675 96.4773 61.653 96.3362C61.6385 96.1942 61.6257 96.0609 61.6139 95.9333C61.5628 95.3779 61.523 94.8692 61.4826 94.3173C61.4039 93.2349 61.3378 92.149 61.2765 91.0386C61.1539 88.8051 61.0573 86.5627 60.9726 84.2676C60.8043 79.691 60.6942 75.0602 60.6038 70.6649C60.5658 68.7365 60.3994 71.299 60.3258 68.2167C60.2748 66.0873 60.2496 61.5506 60.2923 58.0297C60.3091 56.4494 60.3637 55.0696 60.4137 54.2139C60.5915 51.4534 60.701 52.6325 60.7617 52.1477C61.1149 48.1432 62.5867 38.7011 62.7157 37.6147C62.7797 37.1609 62.8329 36.713 62.87 36.2695C62.895 36.0094 62.8982 35.8645 62.9609 35.51C62.966 35.4851 62.9717 35.459 62.9792 35.4293C62.9881 35.4193 62.9788 35.3343 63.1267 35.0749C63.1719 35.0047 63.2327 34.9099 63.3773 34.7902C63.5148 34.6752 63.7938 34.5243 64.1327 34.5417C64.475 34.5556 64.7352 34.7308 64.8601 34.8548C64.9916 34.9842 65.0432 35.0814 65.0819 35.1536C65.2065 35.4191 65.1916 35.4997 65.2001 35.5127C65.2204 35.6258 65.2279 35.7396 65.2315 35.7837C65.2407 35.9098 65.2454 36.0326 65.249 36.1407C65.2626 36.5856 65.2629 37.0145 65.2618 37.4341C65.2584 38.2857 65.2434 39.108 65.2232 39.9404C65.1826 41.5872 65.1201 43.2297 65.0416 44.8525C64.8815 48.0974 64.6677 51.2895 64.3211 54.4485C63.5914 60.2614 63.3469 67.6412 63.2797 71.5374C64.0437 71.9587 64.806 72.2655 65.4261 72.2974C66.0411 72.3094 66.3131 72.1446 66.6507 71.5375C67.2682 70.2772 67.3017 68.3511 67.2485 66.577C67.0997 62.9281 66.5004 59.2184 65.9488 55.423C65.4685 52.0693 64.9087 48.654 64.8287 45.0844C64.764 40.5693 63.7164 35.8282 61.229 32.2817C61.0024 31.9812 60.7481 31.6947 60.4978 31.4744C60.3746 31.3657 60.2485 31.2739 60.1624 31.2277C60.081 31.1696 60.0324 31.2296 60.2951 31.1946C59.6874 31.2187 58.96 33.1603 58.7217 34.6769C58.4233 36.3136 58.2849 37.986 58.1818 39.6668C57.9875 43.0278 57.9627 46.3818 57.9363 49.6354C57.8945 56.7994 57.8891 63.5541 57.5885 70.193C57.5453 70.5927 57.6376 70.7003 57.3605 71.4614C57.3321 71.52 57.2966 71.584 57.2462 71.6546C57.2212 71.6906 57.0748 71.8912 56.8395 72.0114C56.6046 72.1432 56.2593 72.1724 56.0246 72.1018C55.8292 72.0458 55.7417 71.9871 55.6484 71.9239C55.4798 71.8039 55.3797 71.6716 55.3329 71.6094C55.2908 71.5524 55.2559 71.4984 55.2238 71.445C55.0821 71.1998 55.0461 71.1029 54.9676 70.922C54.7207 70.319 54.5579 69.7974 54.375 69.2245C54.0338 68.1367 53.7173 67.0482 53.3962 65.9629C52.7607 63.8072 52.114 61.6513 51.4099 59.5125C49.984 55.2627 48.4393 50.9076 45.978 47.0956C45.5799 46.4975 45.1535 45.9236 44.6896 45.3707C43.5447 44.0849 44.7362 45.7041 43.2924 44.223C42.8207 43.7726 42.3203 43.3543 41.8125 43.0157C41.5623 42.8488 41.2992 42.6973 41.078 42.6015C40.9683 42.5532 40.8632 42.5203 40.8265 42.514C40.8115 42.51 40.8102 42.5168 40.8866 42.5134C40.9539 42.5043 41.1606 42.5024 41.4269 42.2588C38.9281 44.3928 39.9332 47.7099 41.9824 50.5399C43.936 53.5028 46.7249 55.684 48.6219 59.5865C49.3172 61.3828 50.0957 63.5787 50.9117 64.5875C51.0602 64.7378 51.1819 64.854 51.3009 64.9595C51.4393 65.0821 51.5477 65.1634 51.6079 65.1992C51.6241 65.2144 51.6367 65.193 51.4461 65.1569C51.3908 65.1438 51.0992 65.1258 50.8508 65.2601C50.5888 65.3927 50.4407 65.6104 50.382 65.7462C50.2871 65.9925 50.3273 65.9871 50.3191 65.9742C50.3196 65.9595 50.3138 65.8918 50.304 65.8305C50.209 65.2591 49.9207 64.4449 49.6451 63.7207C49.0733 62.2352 48.4021 60.7398 47.7143 59.2569C46.3328 56.3015 44.8542 53.3331 43.3211 50.4845C42.2096 48.1849 41.1541 46.1119 41.7725 42.873C42.0133 42.2775 42.2185 41.719 42.9482 41.1192C43.6907 40.4795 44.9501 40.6026 45.5229 40.93C46.7729 41.5785 47.4118 42.4125 48.0981 43.2212C49.4051 44.8558 50.4526 46.5758 51.4753 48.291C52.6813 50.3515 50.9379 47.8126 52.1215 49.8768C53.3281 51.9195 54.5764 54.5624 56.066 56.3874C56.1923 56.5027 56.3088 56.5988 56.4136 56.6764C56.5446 56.7719 56.6397 56.8312 56.7494 56.8837C56.8509 56.9325 56.9328 56.9492 56.9611 56.9498C56.9929 56.9481 56.9738 56.9592 57.0096 56.9369C57.2027 56.8178 57.4314 56.0478 57.5031 55.3999C57.672 54.034 57.6394 52.5514 57.5928 51.0833C57.5228 48.1179 57.1151 45.1822 57.4328 42.1064C58.0756 37.9686 59.0584 33.9931 59.7696 30.696C59.8025 30.4767 59.81 30.3066 59.7951 30.2023C59.794 30.1618 59.758 30.1503 59.8352 30.2715C59.9336 30.4301 60.2087 30.4733 60.2293 30.4566C60.2783 30.444 60.0985 30.5263 59.9758 30.6278C59.8445 30.7279 59.7003 30.8548 59.5635 30.9847C59.0062 31.5187 58.5083 32.1116 58.0512 32.6788C57.1305 33.8306 56.3944 34.8929 55.8102 35.8042C53.4113 38.7762 50.9701 42.1257 48.3324 45.4337C48.1041 45.7129 47.8775 46.0079 47.6517 46.3088C47.539 46.4588 47.426 46.6115 47.3116 46.7659C47.254 46.8438 47.1966 46.9214 47.135 47.0036C47.1033 47.0457 47.0723 47.0869 47.0336 47.1363C47.0108 47.1652 46.9954 47.1859 46.9481 47.2408C46.9311 47.2597 46.9306 47.2619 46.8855 47.3079C46.8645 47.3287 46.8393 47.3538 46.7907 47.3932C46.7402 47.425 46.6877 47.5043 46.3908 47.5981C46.2232 47.6264 46.0208 47.7261 45.5484 47.4871C45.0921 47.2108 45.0229 46.7838 45.0114 46.6284C45.0082 46.2584 45.0407 46.3189 45.0444 46.2626C45.0538 46.227 45.0621 46.2012 45.0695 46.1797C45.0844 46.1369 45.0957 46.1108 45.1002 46.1001C45.1121 46.0723 45.1216 46.0522 45.1304 46.0341C47.8364 40.672 52.0745 36.6931 55.6349 33.5949C59.5174 30.2955 56.892 32.9981 59.7511 30.2602C59.7965 30.1684 59.8277 30.0909 59.8447 30.034C59.8734 29.9689 59.8375 29.9082 59.8738 30.0674C59.8893 30.1401 60.0016 30.2685 60.0668 30.2924C60.1271 30.3219 60.1441 30.3167 60.127 30.3177C60.0952 30.3169 59.9871 30.3306 59.8682 30.3624C58.5742 30.8327 60.3645 30.3195 58.3615 31.2224C53.2102 33.9296 47.9897 37.5403 42.7078 40.7974C39.2387 42.9383 35.8975 45.1985 32.696 47.4201C31.0504 48.5543 31.5961 48.3961 31.1362 48.7384C30.7822 48.9944 30.4284 49.2508 29.9491 49.5313C29.7981 49.618 29.6789 49.687 29.5448 49.7623C29.5374 49.7667 29.4993 49.7875 29.4797 49.7981C29.4683 49.8043 29.4576 49.8101 29.4465 49.816C29.441 49.8189 29.4353 49.8219 29.4293 49.8251C29.4263 49.8266 29.4231 49.8283 29.4198 49.8299C29.4124 49.833 29.4338 49.8255 29.3354 49.8692C29.3013 49.8816 29.288 49.896 29.1254 49.9383C29.0798 49.9486 29.0225 49.9625 28.9109 49.9707C28.797 49.9692 28.6291 50.0098 28.2496 49.8394C28.0658 49.7518 27.8225 49.5622 27.6777 49.2849C27.5292 49.01 27.5091 48.7125 27.5347 48.5189C27.5962 48.1249 27.7128 48.0091 27.7706 47.9145C28.0049 47.625 28.0098 47.6725 28.0528 47.6288C28.0825 47.6068 28.1081 47.59 28.106 47.5913C28.1142 47.5858 28.1208 47.5814 28.1266 47.5776C28.1382 47.57 28.1468 47.5645 28.1548 47.5594C28.1704 47.5495 28.1834 47.5414 28.1973 47.5329C28.2309 47.5124 28.2402 47.5066 28.257 47.4963C28.3251 47.4547 28.3978 47.4112 28.4621 47.3726C28.7282 47.2134 29.0173 47.0438 29.2819 46.8894C29.8368 46.5659 30.4048 46.2402 30.9777 45.9144C32.1277 45.2604 33.2824 44.614 34.3493 44.0129C36.487 42.8123 38.2579 41.7801 38.9014 41.3621C39.689 40.8541 40.4758 40.3259 41.1465 39.8024C42.3905 38.8303 43.1315 37.236 43.4447 35.6623C43.6317 31.3499 38.4627 28.2867 36.4861 23.3873C36.4427 23.2625 36.4099 23.1706 36.3731 23.0727C36.3518 23.0159 36.3334 22.9692 36.319 22.9344C36.306 22.9003 36.2751 22.8405 36.3006 22.888C36.3288 22.9158 36.3073 22.9669 36.5622 23.1496C36.6468 23.1948 36.6865 23.2395 36.929 23.2761C37.1957 23.3198 37.5446 23.153 37.6683 22.9917C37.9183 22.6661 37.8594 22.5731 37.8806 22.5128C37.8863 22.4299 37.8815 22.437 37.8832 22.444C37.8854 22.468 37.8902 22.5052 37.8989 22.5617C37.9123 22.6483 37.9368 22.7824 37.9549 22.8756C38.0403 23.3149 38.1446 23.7828 38.2479 24.2396C38.4561 25.1558 38.6782 26.0867 38.9049 27.0286C39.3588 28.9124 39.8325 30.8346 40.3209 32.8376C40.9905 35.5885 40.4282 32.2756 41.0812 34.9298C41.2308 35.5409 41.3784 36.1475 41.5244 36.7592C41.5873 37.0233 41.6885 37.285 41.808 37.4904C41.8648 37.5901 41.935 37.6808 41.9608 37.7046C41.9682 37.7154 41.9785 37.7059 41.8691 37.649C41.8123 37.6238 41.7119 37.5745 41.5109 37.5716C41.3142 37.5613 41.01 37.6763 40.8642 37.8252C42.3704 36.592 40.9649 33.401 39.6558 30.9575C38.2838 28.382 36.6528 25.8513 35.3427 23.0539C35.2785 22.9146 35.249 22.8524 35.1827 22.6917C35.1661 22.6506 35.1507 22.6109 35.1349 22.5657C35.1232 22.5297 35.1317 22.5633 35.099 22.4504C35.086 22.3988 35.0687 22.3417 35.0576 22.2122C35.0536 22.1454 35.0479 22.0593 35.0739 21.9128C35.1027 21.7726 35.1618 21.5293 35.4214 21.2826C35.6878 21.0259 36.0845 20.9557 36.3036 20.9853C36.5362 21.0108 36.6604 21.0771 36.7481 21.123C36.9164 21.2201 36.965 21.278 37.0134 21.3226C37.102 21.4126 37.1253 21.449 37.1367 21.4621C37.1668 21.5004 37.1916 21.5345 37.2165 21.5698C37.3846 21.8134 37.4825 21.9789 37.6145 22.1944C37.8387 22.5645 38.0715 22.9632 38.2847 23.3315C38.7251 24.0931 39.1526 24.8483 39.5798 25.609C40.4365 27.1354 41.267 28.6417 42.0966 30.1625C43.7467 33.1909 45.3613 36.2128 46.9051 39.221C48.3054 41.9754 46.821 39.5458 47.4778 40.8683C47.571 41.057 47.6599 41.2369 47.7448 41.4087C47.8353 41.5902 47.8938 41.7026 47.9776 41.8413C48.0091 41.8938 48.0508 41.9535 48.0611 41.9653C48.0606 41.9689 48.0776 41.9703 47.9854 41.9054C47.9621 41.8903 47.9313 41.8725 47.8893 41.8546C47.8506 41.8399 47.7914 41.811 47.6569 41.8018C47.397 41.7616 47.0663 42.0196 47.0419 42.0926C46.9212 42.2766 46.9454 42.3238 46.9395 42.3223C46.9388 42.3288 46.9407 42.3148 46.941 42.2892C46.9416 42.2469 46.9395 42.1888 46.9334 42.1128C46.9242 41.9945 46.9026 41.8275 46.8821 41.6959C46.7909 41.1152 46.6643 40.5643 46.5375 40.0456C46.2833 39.0202 46.0149 38.119 45.7406 37.2266C45.1839 35.4414 44.6132 33.6488 43.7142 30.8102C43.3129 29.5767 43.7123 30.2154 43.6534 29.984C43.4431 29.1741 43.1912 28.3999 42.9118 27.7009C42.8373 27.512 42.7797 27.3775 42.7146 27.158C42.7031 27.1163 42.6926 27.0748 42.6837 27.0204C42.6794 26.993 42.6753 26.9622 42.6734 26.9223C42.6736 26.8935 42.6625 26.7954 42.7124 26.6467C42.7434 26.5035 42.9844 26.2098 43.2705 26.1865C43.5741 26.1689 43.5684 26.218 43.6417 26.2359C43.6981 26.2599 43.7359 26.2832 43.7665 26.3036C43.8266 26.3446 43.8594 26.3758 43.8884 26.4037C43.9505 26.4666 43.9458 26.4644 43.9715 26.4935C44.0573 26.5964 44.0994 26.6572 44.1543 26.7334C44.3496 27.0095 44.5279 27.284 44.6846 27.5177C45.0125 28.0119 45.3139 28.4607 45.5868 28.8598C46.1296 29.6545 46.5451 30.2334 46.7389 30.5554C48.8034 33.9714 50.5619 37.043 52.3836 39.7543C52.5307 39.9712 52.7134 40.1743 52.9226 40.3608C53.0267 40.4538 53.1383 40.5433 53.2554 40.629C53.3144 40.6722 53.3746 40.7143 53.4404 40.7589C53.4725 40.7807 53.5074 40.804 53.5492 40.8324C53.5709 40.8473 53.5918 40.8611 53.6322 40.8906C53.6514 40.9053 53.675 40.9206 53.7325 40.9723C53.7508 40.9891 53.7723 41.0096 53.7998 41.0401C53.8177 41.0645 53.8831 41.1182 53.9612 41.2967C53.9906 41.3964 54.062 41.4794 54.007 41.8196C53.9551 42.1304 53.6453 42.3761 53.5593 42.4063C53.3705 42.5 53.2728 42.4985 53.2034 42.5063C47.2314 42.8501 41.521 43.2189 34.8803 45.4347C33.5957 45.917 36.5485 45.0167 32.9736 46.4209C32.6136 46.576 32.2537 46.7407 31.9054 46.9115C30.5316 47.5693 29.0669 48.917 28.8823 49.9971C28.1397 53.0136 32.0878 51.7588 34.6989 50.6389C37.6702 49.3933 39.6666 47.9408 43.4045 46.1268C43.6875 46.127 43.939 46.1311 44.1626 46.1394C44.311 46.1449 44.452 46.1524 44.5794 46.162C44.6435 46.1669 44.7042 46.1722 44.764 46.1783C44.8521 46.1873 44.935 46.1976 45.0147 46.2102C45.0956 46.2231 45.1674 46.2365 45.2521 46.2573C45.393 46.2958 45.5337 46.3286 45.7427 46.4727C45.7681 46.4912 45.9182 46.5974 46.0254 46.7767C46.1387 46.9527 46.1987 47.2324 46.1557 47.4545C46.1372 47.5653 46.1007 47.6629 46.0634 47.7373C46.0406 47.7829 46.0165 47.8229 45.9925 47.8582C45.9443 47.929 45.8969 47.9819 45.8527 48.0257C45.764 48.1125 45.6874 48.1658 45.6148 48.2122C45.5566 48.2485 45.528 48.264 45.4853 48.287C45.325 48.372 45.1583 48.4373 45.0451 48.4799C44.924 48.5257 44.7558 48.5825 44.6556 48.6144C43.6767 48.9214 42.7276 49.1394 41.7714 49.3611C39.8583 49.7966 37.9701 50.1814 36.065 50.5705C32.369 51.3574 28.1357 52.0456 25.078 53.0685C24.9565 53.1275 24.8557 53.2923 24.98 53.0877C25.0118 53.0183 25.0473 52.8858 25.0223 52.7344C24.9981 52.5803 24.9229 52.4713 24.881 52.4243C24.7858 52.3265 24.7982 52.3593 24.8276 52.3684C24.9926 52.4469 25.384 52.5285 25.7349 52.5775C26.4563 52.679 27.2377 52.7264 28.0127 52.7633C29.5928 52.8501 31.0606 52.7938 32.8393 52.9792C32.9452 53.002 33.0109 52.9989 33.2289 53.112C33.3097 53.1572 33.4868 53.2739 33.6013 53.4923C33.7263 53.7055 33.72 54.0285 33.6768 54.1564C33.5809 54.4645 33.4919 54.5206 33.4291 54.6033C33.3682 54.6711 33.3126 54.7209 33.2675 54.7595C33.0819 54.9145 32.9421 55.0002 32.7974 55.0919C32.5121 55.2687 32.2461 55.4152 31.9815 55.5628C31.7185 55.7092 31.4605 55.8513 31.2219 55.9936C31.1035 56.0644 30.9906 56.1351 30.9009 56.1987C30.8563 56.2302 30.8183 56.2611 30.8108 56.2682C30.8081 56.2697 30.8126 56.27 30.8462 56.2233C30.8564 56.18 31.0238 56.0681 30.9348 55.6234C30.9169 55.5516 30.8531 55.4985 30.869 55.5138C30.882 55.5247 30.9487 55.5583 31.0422 55.5843C31.2272 55.6376 31.4875 55.6682 31.7534 55.6798C32.2924 55.7026 32.8738 55.6646 33.457 55.6091C34.6536 55.5054 35.7279 55.2679 37.1433 55.1877C37.2801 55.1881 37.3591 55.1879 37.4738 55.1837C37.5269 55.1815 37.5571 55.1795 37.5806 55.1769C37.5824 55.1768 37.5791 55.1771 37.5672 55.1797C37.5361 55.192 37.6016 55.1537 37.4065 55.2394C37.3316 55.2867 37.0835 55.3942 37.0011 55.8102C36.965 56.2635 37.1413 56.3801 37.2165 56.4781C37.3869 56.6346 37.4327 56.6216 37.4395 56.6309C37.486 56.6447 37.3298 56.6015 37.2395 56.5848C37.1416 56.5645 37.0193 56.5421 36.9135 56.5236C36.461 56.4453 35.9949 56.3777 35.5224 56.3113C34.5969 56.1821 33.6485 56.0622 32.7118 55.9472C30.8384 55.7181 28.9641 55.5043 27.1 55.3C23.0708 54.8683 25.9647 54.9928 25.7148 54.9469C24.9673 54.8145 24.2638 54.7133 23.6131 54.6382C23.4853 54.6246 23.4333 54.6177 23.3413 54.611C23.3338 54.6104 23.3292 54.6108 23.347 54.61C23.3584 54.6085 23.3677 54.6116 23.4277 54.5968C23.4454 54.5915 23.4584 54.5891 23.4999 54.5695C23.5416 54.5452 23.6408 54.505 23.7048 54.3349C23.7685 54.1547 23.6714 53.9836 23.623 53.9372C23.5698 53.8799 23.5387 53.8658 23.5167 53.8526C23.3266 53.7785 23.4817 53.8344 23.4617 53.8246C23.4895 53.83 23.5302 53.8369 23.581 53.845C23.7402 53.8706 23.9505 53.8998 24.0904 53.9181C24.4457 53.9648 24.7453 53.9983 25.0658 54.0312C25.6772 54.0931 26.2584 54.1373 26.7437 54.1665C27.7615 54.2309 28.5195 54.251 29.0637 54.3133C39.0218 55.4603 48.3007 56.9617 55.2986 57.5817C55.6303 57.614 55.8779 57.6321 56.1693 57.6546C56.2425 57.6658 56.3964 57.6887 56.4729 57.6998C56.4972 57.7035 56.5974 57.7175 56.6083 57.7188C56.6104 57.719 56.6114 57.7192 56.611 57.7191C56.611 57.7191 56.6109 57.7191 56.6108 57.7191C56.6105 57.7191 56.6127 57.7192 56.5982 57.718C56.5905 57.7174 56.5807 57.7164 56.5533 57.7155C56.5027 57.7262 56.5553 57.6749 56.2118 57.7733C56.1222 57.8197 55.896 57.8624 55.6988 58.2646C55.6085 58.4641 55.6094 58.7262 55.6696 58.8977C55.7273 59.0716 55.8081 59.1698 55.8661 59.2342C56.1013 59.4587 56.1428 59.4284 56.1922 59.4594C56.2733 59.4907 56.2857 59.4906 56.3032 59.4959C56.3307 59.5028 56.3348 59.5031 56.3331 59.5029C56.3334 59.5029 56.3336 59.503 56.3338 59.503C56.3345 59.5031 56.3348 59.5032 56.3346 59.5031C56.3338 59.5029 56.3274 59.5016 56.3182 59.4999C56.3028 59.4969 56.2571 59.4889 56.2394 59.4858C56.0551 59.4536 55.836 59.4174 55.6311 59.3836C55.2087 59.3142 54.8007 59.2484 54.3913 59.1827C53.5615 59.0497 52.7347 58.9192 51.8995 58.7888C50.245 58.5304 48.5797 58.2757 46.9204 58.0282C43.6034 57.5427 40.2602 57.0288 36.9866 56.7042C36.5568 56.6669 36.136 56.6035 35.7067 56.503C35.4905 56.4515 35.2752 56.3928 35.0393 56.3043C34.9204 56.2586 34.7975 56.2082 34.6489 56.1234C34.5721 56.0781 34.4896 56.028 34.3813 55.9308C34.2874 55.8296 34.0813 55.687 34.0316 55.2292C33.8682 53.9456 34.8973 52.6284 35.888 52.1939C36.8739 51.6891 37.866 51.4881 38.8323 51.3287C40.7664 51.0333 42.6638 50.9837 44.5368 50.9214C48.2077 50.7501 52.2512 50.9687 55.1275 49.4652C61.462 44.5009 62.205 34.9732 64.673 26.8903C64.732 26.7166 64.7654 26.6094 64.8012 26.4621C64.8168 26.395 64.824 26.3572 64.8293 26.3118C64.8397 26.2883 64.8042 26.2488 64.8645 26.4454C64.8733 26.5052 65.0518 26.778 65.2782 26.8426C65.4763 26.9087 65.585 26.8772 65.6363 26.8671C65.7105 26.8446 65.668 26.855 65.6379 26.876C65.5548 26.9268 65.4435 27.0122 65.3238 27.1136C64.8636 27.5078 64.3808 28.012 63.9178 28.5041C62.9848 29.5023 62.0729 30.5403 61.1516 31.5762C59.2962 33.641 57.5029 35.7558 55.3183 37.6459C52.409 39.9053 50.0163 42.2209 45.8515 43.5125C45.3878 43.5073 44.9591 43.4897 44.4144 43.2433C43.8723 43.0292 43.3894 42.3113 43.3781 41.7457C43.3351 40.6139 43.7506 39.9291 44.1045 39.2097C44.8628 37.8186 45.7871 36.6227 46.7329 35.4511C48.6341 33.124 50.7093 30.9641 52.7649 28.8506C54.0119 27.6157 55.3827 26.6801 57.2255 26.2293C57.3746 26.2043 57.5152 26.1864 57.6493 26.1761C57.7909 26.1646 57.9666 26.1608 58.1145 26.1732C58.3116 26.1932 58.4574 26.2087 58.7104 26.3249C58.9191 26.4145 59.1969 26.6818 59.2786 26.9574C59.4404 27.5177 59.265 27.8542 59.1724 28.1208C59.0558 28.4035 58.9235 28.6345 58.783 28.8624C58.2207 29.7491 57.5779 30.4956 56.9291 31.2415C55.6569 32.7117 54.1795 34.1212 53.1018 35.5307C52.9257 35.8229 52.9961 35.3515 52.8116 35.6191C52.7878 35.6971 52.7642 35.7936 52.7502 35.8917C52.7247 36.0351 52.7453 36.1835 52.7412 36.1581C52.7427 36.1334 52.6225 36.0774 52.6296 36.0914C52.6292 36.0931 52.6716 36.0855 52.7241 36.0617C52.934 35.9655 53.1583 35.7901 53.3745 35.6108C53.7929 35.2589 54.1812 34.8755 54.5313 34.5229C55.2389 33.8054 55.8403 33.1488 56.3747 32.5621C57.4415 31.386 58.2289 30.4863 58.882 29.7352C60.1942 28.2354 60.9236 27.2922 62.28 25.8565C62.5573 25.5706 62.8594 25.266 63.2602 24.9461C63.4644 24.7876 63.6846 24.6215 64.0124 24.4694C64.1786 24.3965 64.3746 24.3191 64.6619 24.301C64.9388 24.275 65.372 24.388 65.6362 24.6455C66.1658 25.1 66.6873 25.7999 66.9226 26.6806C67.9966 30.005 63.2253 35.4702 63.0661 35.9486C61.8937 37.7546 62.7161 35.6575 62.3404 36.2744C62 36.8406 61.7323 37.3573 61.5821 37.8397C61.4884 38.1444 61.4098 38.4289 61.3496 38.6966C61.3198 38.8303 61.2938 38.9612 61.278 39.0848C61.2701 39.1475 61.2644 39.2088 61.2679 39.2595C61.2533 39.2836 61.3323 39.3065 61.2112 39.242C61.1462 39.2544 61.1969 39.2381 61.2036 39.2182C61.4399 38.8406 61.5796 38.4159 61.7187 38.0277C62.3246 36.2162 62.7086 34.6789 64.7074 30.0665C64.8084 29.8354 64.566 30.8826 64.8499 30.2682C65.7344 28.3508 66.4423 26.3582 67.1946 24.4292C68.5368 20.7839 69.6212 19.0934 70.1486 14.5703C70.1457 14.2935 70.1398 14.0817 70.1169 13.815C70.1079 13.7171 70.0876 13.5485 70.0625 13.4624C70.0631 13.4071 69.9687 13.3425 70.0944 13.4354C70.3081 13.4462 70.209 13.4093 70.1997 13.4657C69.977 13.8905 69.8251 14.4998 69.6635 15.1033C69.4314 16.0055 70.4087 14.785 68.3609 21.8341C67.9328 23.0514 67.2689 26.1129 65.392 29.363C62.8791 33.3913 58.4626 36.3634 56.5207 37.2344C56.4193 37.2833 56.3127 37.3331 56.2208 37.3746C55.6367 37.6653 54.8958 37.5551 54.5169 37.2519C54.1267 36.9575 54.0163 36.6616 53.9495 36.4912C53.8385 36.1396 53.8863 36.1223 53.9354 36.2264C53.989 36.329 54.1022 36.5659 54.2475 36.7363C54.389 36.9082 54.5352 37.0061 54.456 36.9326C53.5623 35.7529 54.0799 34.841 54.2659 34.1767C57.1086 27.8018 56.1798 30.3342 58.8169 26.7689C62.0694 23.1916 60.6762 23.7349 62.0094 22.2144C63.1394 20.8213 68.012 17.6924 70.2904 16.5878C70.3981 16.5251 70.4585 16.4923 70.5577 16.4434C70.6176 16.4151 70.6424 16.4019 70.7254 16.3757C70.7585 16.3665 70.794 16.3561 70.8566 16.356C70.918 16.364 71.0226 16.3473 71.1452 16.5177C71.2349 16.6877 71.1797 16.7817 71.1661 16.829C71.1408 16.8872 71.1355 16.8891 71.127 16.9039C71.0576 17.0068 71.0004 17.0597 70.9509 17.1116C70.894 17.1696 70.8502 17.2107 70.8097 17.2485C69.4714 18.4194 70.9916 16.8353 69.8214 17.8572C61.7927 24.3643 66.6389 21.1253 64.102 23.4103C62.184 25.0875 60.3372 26.5625 58.4385 27.8726C58.3258 27.9499 58.2226 28.0177 58.1272 28.0769C58 28.1557 57.9181 28.2055 57.7586 28.2851C57.6655 28.3271 57.6545 28.3417 57.464 28.3974C57.4227 28.4079 57.3771 28.4172 57.3228 28.4229C57.2653 28.4252 57.2242 28.4415 57.0481 28.4061C56.8946 28.3755 56.6828 28.246 56.5815 28.0665C56.4925 27.9151 56.4771 27.7863 56.4743 27.6877C56.4792 27.4749 56.5104 27.4366 56.5286 27.3705C56.5492 27.3114 56.5755 27.2533 56.596 27.2122C56.6308 27.1427 56.6689 27.077 56.711 27.0093C56.9981 26.5673 57.2911 26.2293 57.5887 25.8775C58.1849 25.1842 58.787 24.5399 59.3971 23.8941C60.5968 22.6161 61.9043 21.3364 63.0142 20.0707C63.0373 20.0383 63.0566 20.0099 63.0638 19.9991C63.0649 20.0002 63.0646 19.9894 63.0471 20.0474C63.045 20.0554 63.0428 20.0651 63.0407 20.0778C63.0501 20.0652 62.9958 20.1606 63.1001 20.3231C63.2385 20.5062 63.4441 20.4569 63.4761 20.4419C63.5164 20.4266 63.5073 20.4288 63.5194 20.4231C63.5495 20.4066 63.5565 20.3992 63.5616 20.3953C63.5715 20.3861 63.5561 20.3989 63.5465 20.4082C63.5002 20.4524 63.4514 20.5041 63.3985 20.5611C63.296 20.6719 63.1953 20.7851 63.0935 20.9012C62.8892 21.1345 62.6894 21.3698 62.4891 21.6108C62.0898 22.0923 61.695 22.5851 61.3174 23.0983C61.146 23.3319 61.0296 23.5057 60.9522 23.6352C60.9575 23.5944 60.9779 23.6411 61.019 23.6586C61.0541 23.6756 61.0736 23.6703 61.0995 23.6716C61.1616 23.6635 61.2047 23.7491 61.8547 23.9404C62.2307 24.0397 62.6234 24.0801 62.9649 24.04C64.0496 23.8862 65.0221 23.1231 66.0777 22.6083C66.6172 22.355 67.2126 22.0512 67.9724 22.1847C68.7711 22.3498 69.1492 23.0832 69.3326 23.6351C70.3541 26.7453 70.9572 30.0859 70.5911 34.5719C70.6558 35.9064 69.4044 42.4004 67.7864 46.2223C67.5838 46.7744 67.8794 45.1206 67.0345 47.9629C66.9323 48.3283 66.8293 48.7197 66.7333 49.1296C66.266 50.6861 66.0554 52.8259 64.0962 54.2155C63.6355 54.4113 63.1306 54.561 62.5781 54.4652C62.0196 54.3754 61.564 53.9466 61.3218 53.5017C60.8325 52.5944 60.7431 51.6262 60.6709 50.7119C60.5616 48.8834 60.6995 47.1792 60.7802 45.7686C60.8835 44.1142 60.8011 44.1199 60.7437 44.1376C60.7135 44.1467 60.6865 44.1535 60.6779 43.9696C60.6736 43.8711 60.6744 43.728 60.6754 43.5114C60.6763 43.3232 60.675 42.9256 60.6333 42.7784C60.5523 42.5487 60.4652 42.3119 60.3752 42.0881C60.0116 41.2549 60.1967 41.5617 60.3498 41.7455C60.4224 41.841 60.4692 41.8764 60.3883 41.6544C60.3493 41.5493 60.2773 41.3827 60.1849 41.2305C60.1203 41.1187 60.008 41.0171 60.0174 41.0264C60.045 41.0385 60.1025 40.9947 60.0645 41.0251C60.0423 41.043 59.9835 41.1486 59.9521 41.2363C59.0789 44.7224 59.7583 54.278 59.8956 57.8581C60.086 61.4491 60.1876 59.471 60.2158 59.7616C60.3815 61.5092 60.8786 68.393 60.9138 69.0036C61.1194 73.8765 61.7215 78.4129 61.3045 83.5569C61.174 83.8961 61.0524 84.1966 60.9368 84.4656C60.8626 84.6387 60.7914 84.7974 60.7229 84.9427C60.6886 85.0154 60.6549 85.0846 60.6219 85.1507C60.5816 85.2315 60.5333 85.3244 60.4902 85.4026C60.3979 85.5662 60.3368 85.6806 60.1795 85.8871C60.1445 85.9314 60.1084 85.9738 60.0693 86.0146C60.0498 86.035 60.0295 86.0551 60.0082 86.0748C59.9709 86.1092 59.929 86.1438 59.8815 86.1763C59.7871 86.2404 59.6623 86.3044 59.4962 86.3219C59.3263 86.3497 59.0582 86.264 58.9332 86.1421C58.7881 86.0095 58.7571 85.929 58.7207 85.8646C58.6859 85.796 58.6607 85.7298 58.6396 85.6634C58.5931 85.5094 58.5848 85.4491 58.5671 85.3494C58.5517 85.2559 58.5396 85.1564 58.5302 85.0532C58.5231 84.9752 58.5174 84.8938 58.513 84.8088C58.4648 83.4138 58.5886 82.2043 58.7008 80.916C58.943 78.3769 59.2683 75.8755 59.601 73.3829C60.2587 68.3997 61.0543 63.45 61.5867 58.5407C61.6179 58.2134 61.6435 57.8848 61.6659 57.5545C61.6771 57.3896 61.6875 57.2246 61.6974 57.0583C61.7023 56.978 61.7074 56.8903 61.7122 56.8093C61.7149 56.7645 61.7174 56.7224 61.7202 56.6805C61.7222 56.653 61.7228 56.6413 61.7262 56.6026C61.7276 56.59 61.726 56.6 61.731 56.5618C61.739 56.5364 61.7185 56.5495 61.7792 56.4074C61.7877 56.4019 61.8049 56.3105 61.9685 56.2063C62.0505 56.1543 62.2073 56.119 62.3352 56.1564C62.464 56.1913 62.5366 56.2607 62.5771 56.3062C62.7105 56.4888 62.6726 56.5001 62.6884 56.5332C62.6975 56.5854 62.6951 56.5822 62.6961 56.5874C62.6988 56.6182 62.699 56.6396 62.6992 56.6483C62.7018 57.3445 62.6937 57.9887 62.6916 58.6663C62.6784 61.7112 62.6809 64.7605 62.717 67.7985C62.7357 69.3243 62.7621 70.8428 62.8099 72.363C62.8343 73.1211 62.8636 73.8854 62.9088 74.6355C62.9325 75.0177 62.9581 75.3868 63.0005 75.7529C63.0121 75.8497 63.0222 75.9265 63.0375 76.0172C63.0441 76.0789 63.0879 76.2167 63.0621 76.1555C63.0531 76.1487 63.0549 76.1099 62.9345 76.0313C62.8761 75.9957 62.7746 75.9684 62.6824 75.9839C62.6006 75.997 62.5492 76.0271 62.5116 76.0543C62.3781 76.1761 62.4246 76.1633 62.4135 76.1684C62.4154 76.1652 62.4272 76.1278 62.4351 76.0943C62.4565 76.0035 62.467 75.9443 62.4843 75.8384C63.2834 71.5688 61.4472 67.1571 58.1656 64.2756C58.1084 64.2492 58.2404 64.2813 58.2164 64.2718C58.1951 64.2793 58.1139 64.3563 58.0533 64.4501C57.9245 64.6428 57.8189 64.8978 57.7365 65.1569C57.5729 65.6785 57.4866 66.243 57.4839 66.7932C57.4793 68.5475 57.6001 70.3039 57.8835 72.0391C58.3028 74.3088 58.239 72.7521 58.3049 73.0983C59.3439 77.6341 59.9402 77.0503 59.1066 77.2096C59.1735 77.2498 59.2942 77.289 59.6306 77.158C59.9567 77.0178 60.5617 76.6878 61.123 75.6656C60.3954 76.2052 62.1313 73.3512 61.6304 67.6371C61.4619 64.9232 61.3702 66.4153 61.3415 66.1674C60.8042 62.1715 60.8704 59.3207 60.9042 58.5898C60.9594 56.1613 60.6793 53.5366 60.8972 51.6931C60.9206 51.4815 60.9531 51.2857 60.9948 51.1033C61.2368 50.1738 61.2272 50.8162 61.2841 50.9624C61.315 51.0393 61.3461 51.003 61.4526 50.6193C61.6009 50.2849 61.6328 49.3393 62.7756 48.6394C63.4316 48.2974 62.8257 48.3382 62.4513 48.4257C62.2739 48.465 62.1601 48.4685 62.3629 48.2737C62.5499 48.1002 63.2072 47.6725 64.3842 47.8087C64.5031 47.8218 64.6217 47.8395 64.7381 47.8604C69.5255 48.5104 73.2953 53.326 77.1229 57.2611C80.9075 60.6741 84.736 64.6238 89.0382 67.3774C89.158 67.448 89.2391 67.4969 89.3418 67.562C89.4045 67.6019 89.4566 67.6366 89.5052 67.6721C89.5568 67.715 89.5962 67.723 89.7088 67.8707C89.731 67.9123 89.7144 67.8498 89.7878 68.0297C89.8126 68.1059 89.8377 68.232 89.7935 68.3847C89.752 68.538 89.63 68.6701 89.5323 68.7261C89.3302 68.8368 89.2454 68.811 89.1854 68.8149C89.1199 68.8112 89.1093 68.807 89.102 68.8064C89.0662 68.8005 89.0398 68.7941 89.0148 68.7876C88.6971 68.6902 88.5343 68.6072 88.3195 68.5173C87.9011 68.3349 87.5221 68.1599 87.1165 67.9714C86.3305 67.6049 85.5513 67.2314 84.781 66.8587C83.2472 66.1158 81.746 65.373 80.2941 64.6453C77.3959 63.1879 74.6672 61.7984 72.2861 60.4721C70.2238 59.3047 68.3001 58.2468 67.0462 56.7599C66.8004 56.4612 66.5817 56.1351 66.4174 55.7808C66.3512 55.6382 66.2969 55.5031 66.254 55.3738C66.2056 55.2287 66.1659 55.0706 66.1478 54.9199C66.0965 54.5953 66.1828 54.1071 66.5398 53.8453C67.2271 53.4041 67.772 53.5655 68.2559 53.6083C69.2312 53.7651 70.0662 54.0606 70.8545 54.3506C72.4203 54.9434 73.7561 55.5834 74.9665 56.1924C77.3792 57.4272 79.2979 58.5379 81.1216 59.829C81.5394 60.1321 81.9301 60.464 82.2938 60.8504C82.4739 61.045 82.6505 61.25 82.8066 61.5108C82.8815 61.6455 82.9657 61.7831 82.9966 62.0286C83.0098 62.1477 82.9941 62.3422 82.8673 62.5003C82.7415 62.6566 82.5866 62.7097 82.4752 62.7359C81.6104 62.9296 80.6944 63.0283 79.7253 62.9855C76.499 62.7896 74.6036 61.4639 73.3557 60.6133C72.1088 59.7055 71.4383 59.0394 70.8979 58.5281C69.8665 57.4416 69.2102 57.1206 67.5379 54.2501C67.4682 54.0791 67.3699 53.9049 67.4201 53.5231C67.4459 53.3461 67.5594 53.1234 67.7 52.9936C67.8471 52.853 67.9869 52.7901 68.1036 52.7468C68.5687 52.6007 68.8559 52.6511 69.1647 52.6764C73.4967 53.6552 74.1204 54.7455 74.2369 54.9118C74.2957 55.1617 73.5726 55.0061 74.0447 55.3689C74.2224 55.5091 74.4102 55.6471 74.5954 55.7832C75.3663 56.3493 76.2496 56.9134 77.0447 57.7475C77.9976 58.7981 75.7677 56.7176 78.0615 59.1025C78.6516 59.7896 79.626 60.8546 80.194 62.169C80.3611 62.6363 80.4984 63.1488 80.3732 63.4491C80.304 63.7031 79.7223 63.6667 79.257 63.517C78.3077 63.2234 77.384 62.7094 76.5825 62.2571C74.9713 61.3276 73.7497 60.4967 73.364 60.2914C71.1602 59.0126 74.1195 62.0019 67.2839 56.1758C66.9056 55.8365 68.2855 56.7814 66.8118 55.4682C66.6178 55.293 66.4275 55.1188 66.2443 54.9465C66.0363 54.7362 65.9117 54.6787 65.6272 54.2887C65.5544 54.1446 65.4948 54.0124 65.4478 53.8886C65.3945 53.7431 65.3402 53.5922 65.3273 53.3819C65.3257 53.2492 65.3243 53.1361 65.4282 52.9561C65.5377 52.7704 65.76 52.685 65.8711 52.6727C66.1666 52.6426 66.2677 52.6938 66.45 52.7437C67.0332 52.9484 67.4455 53.211 67.9159 53.4962C68.8102 54.0564 69.661 54.6717 70.5043 55.2972C72.1884 56.5531 73.8227 57.86 75.4499 59.1828C78.7043 61.8321 81.9174 64.5685 85.1172 67.2721C85.4178 67.5262 85.7134 67.7884 85.991 68.0849C86.1294 68.2349 86.2645 68.3902 86.3832 68.5842C86.441 68.6826 86.5001 68.7896 86.5281 68.9434C86.5683 69.0893 86.4876 69.3608 86.3255 69.4562C83.2393 71.3871 79.997 69.0167 77.6071 67.3717C75.1097 65.5391 72.9195 63.3759 70.6676 61.3581C70.5556 61.2598 70.4628 61.1783 70.3848 61.1091C69.7887 60.5742 69.9166 60.4692 69.9839 60.5185C70.0246 60.5324 70.0756 60.5557 70.0654 60.5084C70.062 60.4864 70.042 60.4431 70.0345 60.4047C70.0273 60.3759 70.0373 60.3728 70.0328 60.3831C70.0311 60.383 70.0774 60.3663 70.1416 60.3675C82.1893 64.8736 77.9469 63.1597 84.5599 65.9191C83.9172 65.8018 84.0247 66.0452 84.812 66.6565C85.0275 66.8273 85.2872 67.0394 85.5495 67.3216C85.6768 67.4619 85.8167 67.6273 85.8882 67.803C85.9259 67.8961 85.9107 67.9521 85.8888 67.9529C85.858 67.9754 85.7463 67.9939 85.6345 67.987C83.5884 67.9177 80.4958 67.5078 77.0556 65.3534C72.2036 62.0816 72.9993 62.6408 69.8381 60.4843C69.4226 60.1976 68.5589 59.5269 67.6297 58.88C67.1893 58.5718 66.7408 58.261 66.3532 57.9527C66.1598 57.7972 65.9807 57.6436 65.8412 57.4756C65.7033 57.3171 65.6068 57.0898 65.7157 56.9275C65.8368 56.7224 65.9419 56.5857 66.0077 56.4907C66.3895 55.9679 66.6007 55.8035 66.6929 55.6498C66.7986 55.5047 66.8211 55.3971 67.1319 55.2273C67.6931 54.9217 69.7854 54.2654 74.5516 56.3639C74.966 56.5471 73.5629 56.1686 74.9956 56.7909C78.6771 58.4853 80.8891 59.863 82.9254 61.089C83.2988 61.3188 83.6794 61.536 84.067 61.7776C84.2612 61.8997 84.4562 62.0252 84.6602 62.1837C84.7623 62.2642 84.8671 62.3516 84.9775 62.4726C85.0802 62.6019 85.2406 62.7387 85.2798 63.1293C85.316 63.5579 85.1946 64.152 84.757 64.5331C84.3336 64.9062 83.8404 65.005 83.429 65.0518C82.5636 65.1292 81.7775 64.9928 80.9307 64.8043C79.2492 64.4096 77.4081 63.7244 75.1985 62.7142C72.6917 61.5547 69.6468 59.9427 66.5404 57.8461C66.4241 57.7571 66.2142 57.635 66.1116 57.2405C66.0248 56.8208 66.241 56.5291 66.3414 56.4159C66.5732 56.1714 66.7246 56.1146 66.8774 56.0336C67.1749 55.8924 67.4397 55.8132 67.7106 55.7423C68.2497 55.6076 68.7818 55.5268 69.3684 55.5251C74.3433 55.7538 78.3457 59.108 81.1052 62.5113C81.219 62.661 81.3142 62.7971 81.3986 62.9332C81.5119 63.1238 81.5749 63.2177 81.6664 63.4965C81.6844 63.5576 81.6988 63.6206 81.7078 63.6872C81.7189 63.7657 81.7235 63.8789 81.7045 63.986C81.6857 64.1899 81.4827 64.4881 81.2761 64.5812C80.9117 64.7528 80.7125 64.7061 80.4967 64.6951C79.7785 64.5998 79.2358 64.3728 78.6733 64.157C77.597 63.7234 76.5968 63.2331 75.6693 62.7665C76.0736 62.3806 68.0655 58.1584 64.766 56.4379C64.2804 56.1239 63.7807 55.7952 63.3023 55.4718C63.1278 55.3538 62.975 55.2462 62.8422 55.1474C62.7608 55.0871 62.6709 55.0177 62.5985 54.9582C62.5277 54.8996 62.4535 54.838 62.3589 54.7433C62.3158 54.6998 62.2763 54.6563 62.2391 54.6085C62.1828 54.5303 62.0954 54.4277 62.0728 54.2157C62.0471 54.1158 62.1356 53.8206 62.2829 53.7269C62.3495 53.6725 62.4245 53.6399 62.4683 53.625C62.4992 53.6143 62.528 53.6068 62.5551 53.601C62.6616 53.5791 62.7537 53.5808 62.8313 53.585C62.938 53.5914 63.0534 53.6092 63.1666 53.6315C63.2551 53.6489 63.3494 53.6704 63.4502 53.6957C64.211 53.8942 64.8836 54.1392 65.5746 54.3907C66.9588 54.9022 68.3179 55.4573 69.6648 56.0267C72.3525 57.1762 74.9907 58.3428 77.4239 59.663C77.8893 59.9234 78.1588 60.1116 78.3085 60.2532C78.479 60.4063 78.5184 60.5444 78.4639 60.5015C78.3478 60.4113 78.0803 60.2925 78.1871 60.3806C78.2247 60.417 78.3326 60.5038 78.3836 60.6023C78.5066 60.8541 78.6025 61.0777 78.6303 61.3628C78.678 61.636 78.4759 61.9987 78.2119 62.0824C77.7248 62.2624 77.2814 62.1888 76.868 62.1511C76.0452 62.0484 75.3164 61.8822 74.6735 61.7452C73.3902 61.4616 72.4079 61.2383 71.7786 61.0399C69.3246 60.256 66.981 59.3819 64.6887 58.6891C62.3402 58.0132 60.2938 56.5687 58.8035 54.7764C53.2316 47.3127 56.519 38.2069 58.4709 29.9001C58.5049 29.7408 58.5391 29.5816 58.5733 29.4224C58.5926 28.9514 58.7482 28.0187 59.2012 24.6378C59.2548 24.4052 59.3355 27.8995 59.3666 24.1232C59.3426 23.9723 59.2952 23.87 59.178 23.7896C59.0581 23.7057 58.8303 23.651 58.5488 23.6524C56.9416 23.7182 54.8415 24.6662 52.6558 25.7158C50.8221 26.6345 48.5925 28.2488 48.1758 30.3998C48.1219 31.3389 48.604 32.0923 49.5489 32.0212C50.446 31.9972 51.3787 31.6233 52.2424 31.2199C53.9716 30.3811 55.621 29.291 56.9886 28.1425C56.9949 28.1162 56.9632 28.2206 56.9706 28.2021C56.9667 28.1887 56.925 28.127 56.869 28.0751C56.7547 27.9658 56.5951 27.8619 56.4308 27.7729C56.0995 27.5948 55.7341 27.4619 55.3746 27.378C55.2772 27.3554 55.179 27.3356 55.0803 27.3183C54.3941 27.1983 53.267 27.1521 52.0626 27.4883C51.7483 27.5789 51.4271 27.7011 51.1405 27.8613C50.9989 27.9406 50.8638 28.0328 50.7733 28.121C50.6631 28.2031 50.7215 28.3084 50.7039 28.0759C50.7535 28.4534 51.9842 28.6176 52.9495 28.5561C53.9676 28.5155 55.0176 28.3838 56.026 28.2796C56.1572 28.266 56.2857 28.2511 56.4115 28.235C56.9728 28.1528 56.3926 28.4144 57.2148 28.2797C59.8944 27.6602 60.9651 26.4149 63.026 23.982C63.9192 22.915 64.8648 21.0618 65.9686 18.7494C66.052 18.61 66.0721 18.6086 66.1799 18.6217C66.2946 18.6433 66.4628 18.7434 66.6124 18.8634C66.9191 19.1092 67.2111 19.437 67.4918 19.785C68.0508 20.4872 68.589 21.2972 69.0637 22.173C69.9191 24.1138 69.8997 26.8107 70.009 29.5489C70.0164 29.7993 70.2617 31.4542 70.26 33.7613C70.2595 33.9668 70.2585 34.1469 70.2581 34.3174C70.2578 34.3847 70.2576 34.4133 70.2594 34.457C70.244 34.4606 70.3108 34.4266 70.1712 34.4033C70.0953 34.4538 70.1344 34.444 70.1245 34.4494C70.1234 34.4538 70.1241 34.451 70.1245 34.4473C70.1254 34.4407 70.1277 34.4185 70.1288 34.4059C70.1303 34.389 70.1319 34.3682 70.1339 34.3435C70.1428 34.2274 70.1475 34.1598 70.1561 34.0462C70.5353 29.9932 70.7238 24.229 72.5002 19.9885C72.6621 19.7224 72.7664 19.516 72.9782 19.3102C73.0306 19.2545 73.1014 19.2863 73.1005 19.3612C73.1084 19.4339 73.1033 19.4877 73.0956 19.5654C73.0829 19.6815 73.0555 19.8283 73.0298 19.9492C72.4543 22.1776 73.0218 20.809 72.9238 21.1981C71.3095 26.4912 69.4651 31.0837 67.455 35.4837C64.7015 41.4519 62.044 47.2632 59.884 54.2374C59.1959 56.5205 58.619 58.9432 58.1514 61.5284C57.9056 62.879 57.5642 65.3974 57.3573 68.2982C57.1074 71.8252 56.4737 75.8554 55.9846 79.0317C55.6114 81.5048 55.4097 82.0315 55.1695 82.6126C55.1679 82.6156 55.1141 82.6884 55.1789 82.5014C55.2049 82.4532 55.2644 82.354 55.4154 82.2977C55.5679 82.2397 55.7317 82.2945 55.7917 82.3347C55.8567 82.3729 55.8831 82.4027 55.9023 82.4213C55.9378 82.4589 55.9416 82.4627 55.9461 82.4585C55.9625 82.447 55.9566 82.3753 55.9611 82.3238C55.9597 82.1922 55.9574 82.0416 55.9499 81.8723C55.9289 81.51 55.8749 81.0178 55.7567 80.2769C55.5212 78.7884 55.0242 76.326 54.0901 71.8859C53.6176 69.6272 52.9396 67.1612 52.2516 64.3607C52.148 63.9533 52.0976 63.5041 52.2215 63.2361C52.3005 62.987 52.7123 62.9319 53.1472 63.0914C54.0149 63.4063 54.8187 64.1229 55.4797 64.9476C57.4227 67.4065 59.1856 70.5631 59.963 74.3918C60.2473 75.4974 60.537 76.6745 60.4234 77.7332C60.321 78.2605 60.058 78.8182 59.5944 78.5966C59.142 78.4088 58.7478 77.9686 58.396 77.5541C57.6951 76.702 57.0967 75.7473 56.5295 74.7954C55.3978 72.8789 54.3994 70.8887 53.4226 68.9141C53.3608 68.7902 53.3063 68.6825 53.2587 68.5902C53.2083 68.4924 53.1441 68.3694 53.0883 68.2731C53.0677 68.2376 53.0503 68.2095 53.0338 68.1856C53.0297 68.1796 53.0255 68.1739 53.0212 68.1681C53.005 68.17 53.0618 68.1412 52.8825 68.0856C52.8194 68.0757 52.7386 68.1403 52.728 68.1786C52.7111 68.2177 52.7128 68.2372 52.712 68.2528C52.7121 68.2645 52.7125 68.2673 52.713 68.2735C52.714 68.2846 52.7155 68.2939 52.7172 68.3032C52.7348 68.3861 52.7545 68.4379 52.7722 68.4924C52.8189 68.6291 52.8486 68.7083 52.895 68.8325C53.0588 69.2671 53.2406 69.723 53.4093 70.1465C53.7592 71.0227 54.1085 71.8863 54.4579 72.7546C55.1594 74.4964 55.8524 76.2283 56.5314 77.9643C57.8703 81.4437 59.2714 84.9227 60.2343 88.5069C61.0579 91.4825 61.2479 94.6429 62.8358 97.5135C63.008 97.7706 63.1742 97.985 63.3371 98.1592C63.3987 98.2271 63.5528 98.3767 63.66 98.4548C63.7852 98.5456 63.8624 98.5987 64.0394 98.6645C64.3738 98.7874 64.7246 98.6829 64.9667 98.4399C65.0713 98.3376 65.1468 98.2373 65.2267 98.1112C65.3054 97.9864 65.3766 97.8427 65.4228 97.7391C65.8489 96.7271 65.9915 95.727 66.1407 94.6752C66.4052 92.6143 66.4939 90.5208 66.5444 88.4111C66.5715 87.4822 66.2651 84.4908 66.2636 82.2787C66.2668 78.997 66.4035 77.1933 66.3733 74.8462C66.3487 67.4206 65.6825 60.4515 66.1713 53.4078C66.6787 51.503 66.8423 49.5143 67.8072 47.661C68.0363 47.3742 68.1991 47.1881 68.4479 46.9671C68.7852 46.6638 69.2553 46.4407 69.5959 46.7233C69.7328 46.8359 69.8077 46.9646 69.8773 47.1162C69.9292 47.2353 69.9632 47.3459 69.9935 47.4646C70.0578 47.7249 70.0714 47.8768 70.09 48.0619C70.1059 48.2364 70.1161 48.4383 70.1168 48.5812C70.1196 49.2517 70.1259 50.007 69.9824 52.1436C69.6328 56.4071 69.4301 59.2928 68.3434 64.9971C67.4972 69.3052 66.2003 73.5209 64.9007 79.1903C65.2049 79.4393 64.8075 81.8587 63.7729 86.1318C63.4594 87.3661 63.1734 88.7747 62.9483 90.348C62.7635 91.7012 63.1459 90.2794 63.0684 90.9195C62.768 93.5197 62.4592 95.9351 62.4831 98.4273C62.4904 99.0344 62.6502 99.0632 62.671 99.5587C62.6826 99.8164 62.6933 100.085 62.7034 100.359C62.7083 100.514 62.7107 100.657 62.7105 100.786C62.7101 100.922 62.7046 101.097 62.6906 101.239C62.6786 101.346 62.6695 101.423 62.6364 101.538C62.5997 101.632 62.59 101.745 62.3837 101.903C62.2138 102.042 61.8779 102.005 61.7659 101.911C61.6184 101.805 61.649 101.813 61.6053 101.768C61.5498 101.701 61.5117 101.634 61.4835 101.581C61.4634 101.543 61.4446 101.504 61.4263 101.463C61.3888 101.379 61.3554 101.292 61.3316 101.227C61.1213 100.638 60.9801 100.064 60.8335 99.4683C60.5537 98.3054 60.3097 97.1075 60.0941 96.0193C59.6665 93.8418 59.3388 92.0349 59.2357 91.4847C58.3853 87.042 57.6784 85.0001 56.5445 81.7834C56.529 81.7423 56.5136 81.701 56.4982 81.6594C55.3154 78.3518 57.299 83.2079 55.9055 79.3589C54.5007 75.162 52.8978 70.2009 52.4177 65.2032C52.4176 65.0377 52.4225 64.899 52.4316 64.7872C52.4409 64.6309 52.4806 64.4831 52.4863 64.4823C52.4997 64.4856 52.3834 64.5496 52.3408 64.5212C52.3121 64.51 52.3222 64.5099 52.3345 64.5238C52.374 64.5667 52.3931 64.5971 52.43 64.6568C52.5104 64.7941 52.5486 64.877 52.6166 65.0267C52.8425 65.5415 53.0227 66.0692 53.2076 66.6274C53.5599 67.7043 53.8765 68.8021 54.1771 69.8832C54.7758 72.0471 55.3067 74.158 55.7833 76.151C56.5701 79.4971 56.2395 77.1664 56.357 77.6438C57.0152 80.4252 57.6332 83.251 57.9981 85.8817C58.4709 89.8236 58.7615 93.3394 59.2944 95.6506C59.0185 98.3632 59.2494 99.4061 59.804 101.335C59.9421 101.924 60.41 102.379 60.7297 103.12C58.9262 103.56 57.3736 101.115 57.0017 98.0886C56.9088 97.2732 57.183 96.2681 57.8553 99.1761C58.2375 100.49 58.9166 102.762 60.6795 102.601C60.5957 102.605 60.4032 102.667 60.3091 102.853C60.2291 103.035 60.2603 103.08 60.2618 103.135C60.2742 103.204 60.2844 103.217 60.2876 103.226C60.2948 103.242 60.2906 103.232 60.285 103.222C60.2732 103.201 60.2533 103.169 60.2326 103.137C60.1911 103.072 60.145 103 60.0994 102.927C60.0076 102.781 59.9177 102.627 59.8341 102.466C59.6677 102.144 59.5269 101.792 59.4476 101.41C59.1416 99.9291 58.9108 98.4051 58.6839 96.9331C58.5028 95.9297 57.4602 90.1999 57.3498 89.4272C57.1555 88.0338 57.0286 86.9149 56.9455 86.0159C56.6023 83.0494 56.8653 82.3532 56.8657 82.113C56.5934 78.3773 54.3658 71.6248 53.8104 69.8685C53.474 68.7485 53.1421 67.6701 52.7767 66.6133C52.5963 66.0973 52.4038 65.5649 52.1931 65.1196C52.1404 65.0097 52.0849 64.9058 52.0414 64.8429C52.0312 64.8206 51.9844 64.7928 52.0824 64.8696C52.1171 64.8899 52.1165 64.9002 52.228 64.9368C52.3252 64.9676 52.4853 64.968 52.6092 64.9121C52.8799 64.7633 52.8343 64.7179 52.8721 64.6777C52.9092 64.5841 52.866 64.7263 52.8645 64.8391C52.8586 64.933 52.8556 65.0552 52.8568 65.2023C53.4782 70.6227 55.1475 75.7687 56.9941 80.4944C57.1321 80.8348 57.2662 81.1495 57.3954 81.4395C58.8446 84.9676 59.3424 85.5072 60.2046 88.8069C60.9263 91.7189 61.4209 94.1763 61.8654 96.3782C62.0872 97.4771 62.2942 98.5247 62.5123 99.5016C62.621 99.982 62.7398 100.489 62.8571 100.823C62.8673 100.854 62.8832 100.885 62.8617 100.852C62.8463 100.831 62.8221 100.784 62.7237 100.694C62.6547 100.633 62.4111 100.426 62.0042 100.45C61.8091 100.461 61.6202 100.541 61.4986 100.629C61.4195 100.686 61.3679 100.738 61.3259 100.786C61.0556 101.181 61.1791 101.093 61.1554 101.106C61.1591 101.099 61.1684 101.042 61.1727 101.011C61.196 100.831 61.2077 100.62 61.2147 100.359C61.3804 96.1915 61.4868 92.1772 62.6124 86.2286C62.6424 86.0827 62.6675 85.9533 62.6883 85.8373C62.9615 84.0481 62.1918 85.6273 64.384 77.6432C64.5361 77.1172 66.2673 70.7974 66.6811 67.045C66.7348 66.5738 66.5729 66.5612 66.6703 65.9439C67.3069 61.8182 67.9084 59.0877 68.3621 54.5999C68.5027 53.0852 68.6274 51.4687 68.6104 49.868C68.6049 49.1351 68.5253 48.1783 68.3864 47.8516C68.3781 47.7865 68.3008 47.8504 68.6586 48.1104C68.8411 48.2381 69.1821 48.2956 69.3307 48.2708C69.5061 48.2538 69.6008 48.202 69.6177 48.1941C69.6598 48.1672 69.5488 48.2467 69.4685 48.3336C69.3834 48.4207 69.2721 48.5476 69.1435 48.7126C69.2046 48.6244 69.1193 48.7585 69.0722 48.8896C69.0175 49.0273 68.9598 49.198 68.9048 49.3764C68.7941 49.7358 68.6904 50.1307 68.5898 50.5309C68.3887 51.3341 68.1971 52.1689 67.9929 52.9997C67.929 53.2603 67.8608 53.5278 67.7883 53.8C67.4271 56.0924 67.3378 59.999 67.2707 61.2618C67.1394 65.4974 67.619 70.0644 67.4147 72.7063C67.2085 75.3729 66.7223 70.1852 66.6778 77.1571C67.1019 77.4094 67.5413 77.9947 67.9688 78.4071C68.0059 82.1886 68.0042 85.917 67.8252 89.7238C67.7278 91.6236 67.6062 93.4949 67.2899 95.4582C67.1051 96.4392 66.986 97.4006 66.3498 98.6133C66.1281 98.9624 65.9864 99.2685 65.3405 99.668C64.7579 100.048 63.7563 99.9488 63.3227 99.6703C62.459 99.1593 62.2219 98.7156 61.8367 98.1795C59.9764 94.7152 59.9549 91.796 59.1053 88.786C57.961 84.5806 56.1574 80.226 54.4572 75.9476C53.7477 74.1954 54.2614 76.0703 53.4916 74.1911C53.0639 73.1485 52.6428 72.1196 52.2309 71.0972C52.0262 70.5881 51.8225 70.0802 51.6196 69.5514C51.577 69.4401 51.5126 69.2696 51.4682 69.1459C51.4496 69.0945 51.4081 68.9776 51.3833 68.9004C51.3699 68.8571 51.3576 68.826 51.3237 68.697C51.3089 68.6343 51.2901 68.5723 51.273 68.4097C51.271 68.3886 51.2692 68.3655 51.2679 68.3392C51.2672 68.3261 51.2666 68.3122 51.2662 68.2974C51.266 68.29 51.2659 68.2824 51.2658 68.2745C51.2654 68.2426 51.2658 68.2033 51.2684 68.1586C51.3017 67.9902 51.2344 67.6524 51.7636 67.0842C52.0289 66.8138 52.5065 66.6292 52.8635 66.639C53.2264 66.6403 53.4554 66.7411 53.6058 66.8151C53.8998 66.9741 53.9763 67.0776 54.0511 67.1493C54.1187 67.2211 54.1581 67.2746 54.154 67.2687C54.1666 67.2848 54.1776 67.2994 54.1876 67.3129C54.5601 67.8932 54.5409 67.9394 54.714 68.2675C55.6953 70.2677 56.6541 72.2099 57.7295 74.0673C58.2632 74.9836 58.8377 75.9089 59.44 76.6567C59.5929 76.8451 59.7432 77.0135 59.8797 77.1445C60.005 77.2727 60.164 77.3655 60.0894 77.3263C60.0499 77.3122 59.8856 77.2457 59.6105 77.3015C59.3259 77.3576 59.121 77.552 59.0747 77.619C58.9765 77.7682 59.0718 77.6297 59.1021 77.4479C59.0943 77.509 59.1124 77.3379 59.1055 77.2058C59.1016 77.0608 59.0883 76.8916 59.069 76.7201C59.0301 76.375 58.9673 76.0076 58.8894 75.6368C58.7325 74.8914 58.5166 74.1315 58.2581 73.3741C57.3659 70.7712 55.9687 68.2017 54.1992 65.8828C53.7241 65.2533 53.0573 64.6606 52.6136 64.4793C52.52 64.4366 52.4447 64.4422 52.5597 64.4576C52.6164 64.462 52.7388 64.4632 52.9087 64.4002C53.0768 64.3413 53.2686 64.1972 53.3676 64.0673C53.5696 63.7895 53.521 63.7278 53.5321 63.7855C53.5328 63.8408 53.5445 63.979 53.5767 64.1385C53.9809 66.301 54.4056 68.4603 54.8264 70.588C54.925 71.8578 55.1811 73.6373 55.5505 75.6985C55.7357 76.7307 55.949 77.8336 56.1883 78.9716C56.307 79.5354 56.4357 80.1245 56.5707 80.7C56.638 80.987 56.7096 81.2816 56.7812 81.5533C56.8177 81.6917 56.8573 81.8343 56.8884 81.9352C56.9074 81.9978 56.9245 82.0447 56.9214 82.0369C56.919 82.0312 56.9136 82.0182 56.9004 81.9911C56.8692 81.9553 56.8887 81.869 56.5546 81.5517C56.5079 81.5116 56.4513 81.4675 56.3792 81.4216C56.2858 81.3595 56.011 81.2107 55.6796 81.1883C55.3427 81.1545 54.9408 81.2743 54.6956 81.4511C54.4432 81.6264 54.318 81.8094 54.24 81.9405C54.0808 82.2432 54.1153 82.2337 54.0929 82.2873C54.0808 82.3307 54.0731 82.3657 54.0673 82.3953C54.0457 82.5113 54.0472 82.5517 54.0457 82.5743C54.2196 78.766 54.8758 75.0455 55.2823 71.8263C55.5777 69.5422 55.6815 69.3584 55.8456 68.1676C55.8726 67.9601 55.9017 67.7226 55.9347 67.4413C56.9554 60.089 56.1711 63.4881 56.3954 61.4552C56.8973 57.9212 57.5579 55.7484 58.2843 53.7668C59.3761 50.8898 60.5403 48.4038 62.8356 42.8097C63.0162 42.3027 65.2029 36.0583 65.5748 35.2288C65.651 35.0462 65.7228 34.8749 65.7906 34.7145C67.5851 30.2833 66.1994 34.3464 67.5785 31.2086C68.5733 28.8804 69.4099 26.8006 70.1893 24.7088C70.5764 23.6656 70.953 22.6084 71.2987 21.5266C71.4711 20.9834 71.6404 20.4256 71.7681 19.8953C71.796 19.7789 71.8284 19.6298 71.8449 19.5289C71.8547 19.4707 71.8591 19.4327 71.8602 19.4145C71.8607 19.4087 71.8588 19.4174 71.8602 19.4558C71.8613 19.4757 71.8633 19.5332 71.8849 19.625C71.8962 19.6718 71.9129 19.7301 71.9442 19.8032C71.9832 19.8802 71.9915 19.9427 72.1679 20.1434C72.3238 20.3185 72.6204 20.4854 72.8965 20.5137C73.0332 20.531 73.1579 20.5226 73.26 20.504C73.3597 20.4845 73.3806 20.4758 73.4315 20.4594C73.6074 20.3969 73.691 20.3323 73.7459 20.2915C73.8561 20.1999 73.8265 20.2179 73.8408 20.2055C73.8441 20.2016 73.8158 20.2385 73.7885 20.2797C73.716 20.3888 73.6672 20.4711 73.5831 20.6173C73.1159 21.4929 72.7946 23.0984 72.5566 24.6863C72.4094 25.6681 72.2576 27.2991 72.1175 29.1958C72.0464 30.1433 71.9753 31.1643 71.8994 32.1856C71.8605 32.7065 71.8207 33.2257 71.7772 33.7456C71.7553 33.9998 71.735 34.2532 71.7033 34.5527C71.7002 34.5734 71.6997 34.6086 71.6791 34.7292C71.6707 34.769 71.6688 34.8057 71.623 34.9486C71.608 34.9909 71.601 35.0172 71.5563 35.1142C71.4822 35.2263 71.468 35.4319 70.9519 35.7739C70.697 35.9373 70.1907 36.0526 69.7772 35.9217C69.3623 35.7993 69.1403 35.5676 69.0188 35.4208C68.786 35.1133 68.7782 34.9884 68.7425 34.8939C68.6642 34.5784 68.692 34.5956 68.6828 34.5376C68.6809 34.4984 68.6807 34.4722 68.6805 34.4557C68.6807 34.4105 68.6819 34.3731 68.6833 34.3269C68.6862 34.2365 68.6888 34.1998 68.6923 34.12C68.6994 33.9709 68.7059 33.8759 68.7145 33.7189C68.7394 33.3116 68.7676 32.9102 68.7993 32.5176C68.8447 31.9492 69.0072 32.2674 69.0266 31.8096C69.251 26.0895 68.7754 23.9358 68.0252 22.7331C67.5538 22.0627 66.9445 21.2426 66.1379 20.423C65.9587 20.2441 65.7443 20.0681 65.68 20.0395C65.6703 20.0181 65.6426 20.1018 66.11 20.1451C66.3349 20.1632 66.7499 20.0592 66.9966 19.8579C67.2538 19.657 67.3334 19.4883 67.3787 19.3993C66.5189 21.3519 65.4684 23.9566 63.9365 25.8558C62.4394 27.8033 60.5641 28.8216 59.8897 29.1034C57.7607 29.9043 58.5771 29.5519 59.8731 28.9262C61.1987 28.2896 62.6773 26.8569 62.7272 26.751C64.2289 24.3591 60.9774 29.4314 56.2673 29.8176C56.1015 29.8428 55.9357 29.8674 55.7712 29.891C55.4308 29.6729 53.834 29.8157 52.4999 29.8144C51.2044 29.8614 49.8974 29.4286 51.188 30.0614C51.5874 30.3489 54.976 30.044 55.7712 29.891C55.0257 30.1087 54.1511 30.3265 53.0906 30.4461C52.5553 30.5008 51.9834 30.5416 51.2814 30.4572C50.9274 30.4083 50.5413 30.3394 50.0696 30.111C49.6189 29.9043 48.9963 29.3728 48.7898 28.6444C48.621 28.106 48.7774 27.5679 48.9283 27.2925C49.0859 26.9963 49.2427 26.8327 49.385 26.6925C49.6705 26.4229 49.9175 26.2732 50.1612 26.1378C50.6466 25.8765 51.1124 25.7168 51.5984 25.5964C52.9672 25.2818 54.3348 25.2734 55.8106 25.6663C56.3219 25.8123 56.7881 26.0063 57.2702 26.2944C57.5141 26.4457 57.7557 26.6019 58.0481 26.9007C58.1906 27.0611 58.3738 27.2346 58.5314 27.6813C58.6062 27.9054 58.6541 28.2532 58.5523 28.6034C58.4538 28.9546 58.2396 29.2126 58.0654 29.3611C57.2208 30.0165 56.4445 30.4777 55.5889 30.9626C54.159 31.7418 53.9894 31.6738 53.2402 31.9821C52.857 32.126 52.3442 32.3752 51.331 32.7121C50.8147 32.8622 50.2007 33.0895 49.2322 33.0345C48.7653 32.9999 48.0922 32.8063 47.6537 32.2326C47.2202 31.6637 47.1307 31.0085 47.1268 30.3928C47.1378 29.8093 47.3231 29.3517 47.5407 28.9061C48.7142 26.8787 49.428 26.4679 49.8352 25.9502C50.2875 25.488 50.5831 25.0723 51.9459 24.294C52.1737 24.1676 52.4367 24.0267 52.738 23.873C53.7751 23.3471 54.8732 22.827 56.1165 22.4025C56.7462 22.1954 57.3941 21.998 58.2141 21.927C58.6287 21.9032 59.1011 21.8794 59.7268 22.1176C60.3808 22.3188 61.0485 23.1975 61.096 23.8422C61.4023 26.3647 60.6706 28.3282 60.2306 30.3138C58.6331 35.9944 56.9969 41.6022 57.4067 46.5509C57.7926 49.7025 57.5741 46.6301 57.9424 48.7299C58.3499 50.6059 59.0894 52.2611 60.2038 53.5872C61.5405 55.1943 63.2075 56.3701 65.2037 56.9621C66.7272 57.4247 68.2043 57.9498 69.7321 58.459C70.2616 58.6355 69.0419 57.9943 70.851 58.619C72.3751 59.1404 73.8746 59.6469 75.3217 60.0344C76.0365 60.2235 76.7686 60.3888 77.3175 60.4241C77.4389 60.4323 77.5563 60.4279 77.5824 60.4233C77.6169 60.436 77.4878 60.3641 77.1258 60.721C76.9519 60.9078 76.8484 61.187 76.834 61.3694C76.8175 61.5409 76.8423 61.6254 76.8484 61.6536C76.8653 61.7078 76.8429 61.6301 76.7831 61.5297C76.9578 61.81 77.0255 61.8296 77.0468 61.8558C77.0609 61.8673 77.0542 61.8612 77.0397 61.8508C77.0046 61.8254 76.9478 61.7882 76.8878 61.751C76.747 61.6641 76.6184 61.5905 76.4513 61.4979C76.1485 61.3305 75.8202 61.1598 75.4797 60.9875C74.8192 60.6537 74.1397 60.3272 73.4505 60.0036C72.0892 59.3652 70.7003 58.7435 69.3137 58.1453C67.9263 57.5482 66.5222 56.9637 65.1284 56.434C64.43 56.1705 63.7083 55.9078 63.078 55.73C62.923 55.6866 62.7744 55.652 62.7047 55.6417C62.7073 55.6217 62.609 55.701 63.1159 55.5797C63.2432 55.5491 63.8069 55.3032 64.0281 54.7106C64.2345 54.0472 64.0905 53.8895 64.0504 53.6956C63.9174 53.3566 63.8448 53.3336 63.8374 53.3125C63.7795 53.2546 63.9051 53.3767 64.0363 53.4723C64.152 53.56 64.281 53.6521 64.4505 53.7673C68.2488 56.3077 72.3867 58.7851 76.8197 61.0242C77.6372 61.4279 78.5496 61.8624 79.4885 62.2261C79.9338 62.4012 80.5152 62.5816 80.7046 62.5917C80.7223 62.6161 80.7275 62.5029 80.236 62.7354C79.9361 62.8736 79.6187 63.3863 79.6084 63.659C79.5724 63.976 79.623 64.0545 79.633 64.1111C79.6658 64.2069 79.6462 64.1412 79.5969 64.0692C79.5573 64.0076 79.4972 63.9224 79.4146 63.8165C77.0677 60.8763 72.9253 57.8519 69.3761 57.8516C69.063 57.8542 68.6453 57.9178 68.303 58.0107C68.1353 58.055 67.9653 58.118 67.9129 58.1462C67.8984 58.1416 67.8815 58.2091 68.1209 57.9608C68.1801 57.8899 68.2694 57.7801 68.3523 57.5711C68.4366 57.3689 68.4876 57.0167 68.4104 56.7139C68.2294 56.0831 67.9442 55.9661 67.8562 55.8866C69.3622 56.8893 70.8424 57.7508 72.1481 58.4775C74.1663 59.5945 76.3241 60.6898 78.5538 61.6063C79.6681 62.0595 80.8065 62.474 81.9064 62.724C82.4397 62.8459 82.9995 62.9143 83.312 62.8803C83.4668 62.8723 83.4939 62.809 83.3447 62.9353C83.1856 63.0773 83.1799 63.3052 83.1893 63.2121C83.2533 63.7783 83.4041 63.7991 83.4064 63.833C83.4244 63.8507 83.3922 63.8146 83.3461 63.7758C83.2505 63.6934 83.098 63.5824 82.936 63.4717C82.6072 63.2471 82.2283 63.0097 81.839 62.7496C79.1706 60.9743 76.376 59.3488 73.5948 58.1698C70.9666 56.9981 67.4662 56.3094 66.8622 57.6427C66.9509 57.5106 67.0267 57.2627 67.0146 57.0688C67.0063 56.8728 66.954 56.7588 66.9265 56.7008C66.8661 56.589 66.8734 56.6227 66.9078 56.6539C66.98 56.7295 67.1373 56.8599 67.2996 56.9813C67.6326 57.2306 68.0167 57.4875 68.3961 57.7415C68.8368 58.036 69.2605 58.3307 69.6716 58.6243C75.6475 63.1122 74.3703 62.0162 76.9401 63.6306C79.2522 65.0882 82.4301 66.4682 85.6141 66.4332C85.5841 66.4479 85.5399 66.3983 85.1624 66.5684C84.9832 66.6549 84.645 66.8984 84.4684 67.311C84.2918 67.7208 84.3386 68.0593 84.3748 68.2222C84.4651 68.5567 84.5218 68.5644 84.5338 68.591C84.548 68.6052 84.5342 68.582 84.5104 68.5541C84.4052 68.4289 84.1751 68.2406 83.9631 68.1042C81.706 66.7212 79.6859 65.695 79.1814 65.4108C79.1681 65.3599 84.7465 68.1388 81.8322 66.5321C80.2005 65.4645 79.2443 65.4426 79.1814 65.4108C78.8971 65.2585 77.3615 64.5065 75.3573 63.6191C74.3565 63.1771 73.2353 62.6973 72.1113 62.268C71.5504 62.0551 70.9737 61.8476 70.4788 61.7131C70.3726 61.6842 70.2358 61.6527 70.1703 61.6426C70.1341 61.6362 70.1094 61.6366 70.1512 61.6375C70.1772 61.6371 70.2282 61.6379 70.3282 61.6177C70.4018 61.5999 70.806 61.5242 71.1051 61.0714C71.4235 60.5954 71.2807 60.0443 71.2349 59.9549C71.1905 59.8394 71.1532 59.7857 71.1336 59.7559C71.0979 59.7064 71.1117 59.7291 71.1319 59.7489C71.1848 59.8035 71.2489 59.8623 71.3544 59.9511C72.9989 61.3687 74.2287 62.5363 74.8224 63.033C75.8439 63.9052 75.4092 63.2623 75.9395 63.7124C78.9028 66.2583 83.3559 69.3129 85.1709 67.8497C84.9919 67.9711 84.7458 68.2443 84.6403 68.5605C84.5303 68.8754 84.5507 69.1307 84.5746 69.2761C84.6328 69.5644 84.6818 69.5936 84.6874 69.6156C84.7019 69.637 84.6275 69.5376 84.5396 69.4481C84.357 69.2573 84.0999 69.0298 83.8335 68.8106C80.6204 66.1534 77.424 63.4776 74.1808 60.8768C72.5614 59.5799 70.9355 58.2979 69.2769 57.077C68.4528 56.4729 67.6149 55.877 66.8071 55.3769C66.4152 55.1323 65.9577 54.8883 65.7957 54.8376C65.7822 54.8329 65.7868 54.8359 65.8249 54.8431C65.8604 54.8465 65.932 54.8721 66.1634 54.849C66.279 54.8339 66.4073 54.8114 66.6005 54.7262C66.8155 54.6319 67.0604 54.4476 67.2246 54.22C67.3066 54.1095 67.3737 53.9825 67.4135 53.884C67.4484 53.7988 67.4726 53.7181 67.4893 53.6449C67.5225 53.498 67.5268 53.3829 67.5247 53.2984C67.5044 53.0176 67.4824 53.0649 67.4992 53.0888C67.5107 53.1196 67.5399 53.1872 67.5872 53.2794C67.4348 53.0055 67.409 53.0125 67.3908 52.9834C67.377 52.9679 67.3875 52.9798 67.3925 52.985C67.4062 52.9995 67.4344 53.0283 67.472 53.0652C67.53 53.1222 67.5964 53.1856 67.6815 53.2652C67.8138 53.3892 67.996 53.5549 68.1407 53.6847C68.472 53.9818 68.7905 54.2602 69.1177 54.5426C69.7779 55.1118 70.4498 55.6751 71.1304 56.2327C72.4824 57.3389 73.8691 58.426 75.2723 59.4413C75.5106 59.6153 75.0224 59.5384 75.5835 59.9416C76.7759 60.7909 77.9644 61.5704 79.0444 62.078C79.3038 62.1987 79.5678 62.3031 79.769 62.3581C79.9465 62.4339 80.1641 62.3406 79.76 62.4529C79.5345 62.5276 79.2767 62.8364 79.2384 62.9992C79.1918 63.1461 79.2112 63.1554 79.2041 63.1155C79.1959 63.0207 79.1481 62.8119 79.0567 62.5557C78.0835 60.5318 75.8355 58.4182 73.7233 57.0936C72.8579 56.5576 71.808 56.0797 70.7586 55.7008C70.2338 55.513 69.6909 55.3462 69.2086 55.2494C68.9795 55.2013 68.7257 55.1787 68.701 55.1899C68.7005 55.191 68.7242 55.195 68.8068 55.1798C68.8965 55.156 69.0719 55.1379 69.3803 54.8946C69.7084 54.661 69.9671 54.0427 69.9434 53.7257C69.9425 53.4104 69.8807 53.2926 69.8598 53.2275C69.8571 53.2206 69.8546 53.2143 69.8522 53.2087C73.041 58.7759 78.2453 61.5734 82.0061 60.6947C81.9127 60.7193 81.7822 60.7588 81.6095 60.8661C81.4307 60.9752 81.2137 61.1829 81.0854 61.4369C80.829 61.9742 80.9432 62.2859 80.966 62.4012C81.0454 62.6334 81.0541 62.5629 81.0328 62.5269C80.9872 62.4233 80.8558 62.2411 80.719 62.0778C80.4972 61.8649 80.2336 61.6468 79.9583 61.451C77.9117 60.0179 75.2447 58.4992 72.6404 57.233C71.3332 56.6048 70.0097 56.0271 68.8082 55.668C68.2445 55.4865 67.5361 55.3992 67.4832 55.424C67.4836 55.4186 67.6103 55.3986 67.777 55.2203C67.951 55.0362 67.991 54.781 67.9835 54.7308C67.9669 54.6111 67.9865 54.8147 68.0784 55.0059C68.2238 55.3509 68.519 55.7261 68.8476 56.0529C71.0058 57.9686 72.6377 58.4081 73.2771 58.6869C73.6255 58.8067 73.8361 58.8594 73.9611 58.9237C77.1 60.5246 79.9719 61.8993 82.6666 63.2067C84.0115 63.8563 85.3285 64.4902 86.6142 65.1002C87.2537 65.4034 87.9053 65.7103 88.5355 65.9986C88.8534 66.1438 89.1706 66.2871 89.4602 66.4088C89.5259 66.4363 89.599 66.4659 89.6437 66.4828C89.6579 66.4888 89.6926 66.499 89.6365 66.4827C89.6212 66.4785 89.5991 66.4725 89.5626 66.4646C89.5442 66.4607 89.5222 66.4562 89.4942 66.4515C89.4802 66.4491 89.4647 66.4467 89.4473 66.4443C89.3807 66.4362 89.2827 66.4205 89.0893 66.4324C88.9028 66.4603 88.5501 66.4433 88.0178 66.8907C87.7632 67.1127 87.5341 67.4958 87.4668 67.8573C87.3933 68.2207 87.444 68.5171 87.5017 68.7165C87.6589 69.1663 87.6799 69.1083 87.717 69.1865C87.7523 69.2408 87.7837 69.2829 87.8116 69.3182C87.9225 69.4554 87.9807 69.5019 88.022 69.5394C88.1697 69.6596 88.1006 69.5996 88.104 69.6046C88.094 69.5975 88.0508 69.57 88.0334 69.5591C87.9856 69.529 87.9194 69.4888 87.8374 69.4405C83.3471 66.5729 79.9877 63.0273 75.5526 58.9766C74.9263 58.398 74.3563 57.7895 73.799 57.1786C71.5453 54.7403 68.5343 50.8284 64.3102 50.0657C63.9986 50.0049 63.7464 50.0103 63.6231 50.0432C63.4973 50.0808 63.4862 50.0897 63.3979 50.1903C63.2158 50.3877 63.0079 51.0945 62.9711 51.8398C62.7729 55.1179 63.088 58.3741 63.295 60.9048C63.5808 66.8342 64.8659 70.2199 62.5899 76.6273C62.0947 77.4979 62.7713 76.7194 62.6215 76.9885C61.9482 78.2325 60.8558 79.0458 60.0288 79.3832C59.3324 79.6894 58.6281 79.484 58.4127 79.3821C58.1898 79.2866 58.0504 79.1897 57.9412 79.1074C57.7452 78.9526 57.6973 78.8922 57.6161 78.8056C57.4958 78.6707 57.4274 78.5723 57.3781 78.5016C57.2732 78.3477 57.2147 78.2445 57.1556 78.1381C57.0504 77.9459 56.977 77.7868 56.9195 77.6549C56.802 77.3828 56.7406 77.1976 56.6995 77.0551C56.6195 76.771 56.634 76.6815 56.6694 76.65C56.7445 76.5914 56.9113 76.7723 56.7533 76.2094C55.943 72.9151 55.8022 70.534 55.7936 66.7848C55.803 66.1294 55.8891 65.4775 56.0926 64.7718C56.2001 64.4169 56.3225 64.0546 56.5796 63.6217C56.7214 63.4058 56.857 63.1552 57.2923 62.8547C57.5079 62.7127 57.8865 62.5449 58.34 62.5875C58.7935 62.628 59.1318 62.8569 59.3227 63.036C59.9327 63.5932 60.5839 64.239 61.2211 65.003C62.6374 66.2268 65.8172 71.8 65.0077 75.705C64.9866 75.887 64.9631 76.0611 64.9378 76.2272C64.9097 76.4015 64.8928 76.5216 64.8281 76.7723C64.8138 76.8248 64.7935 76.9016 64.7485 77.0252C64.7266 77.0845 64.7002 77.1505 64.6633 77.2288C64.6448 77.268 64.6235 77.3103 64.5979 77.3569C64.5594 77.4269 64.4866 77.5499 64.3808 77.6803C64.1546 77.9182 63.8023 78.4306 62.7001 78.4668C61.5457 78.4099 61.1029 77.6784 60.9852 77.5238C60.8035 77.2438 60.7581 77.0894 60.7112 76.9593C60.6052 76.62 60.5986 76.5028 60.573 76.3611C60.551 76.2184 60.5414 76.1358 60.5288 76.0239C60.4881 75.6454 60.4726 75.3442 60.4634 75.1129C60.4445 74.6189 60.4519 74.3091 60.4563 73.9544C60.4688 73.2679 60.4724 72.5215 60.3915 70.3621C60.3795 69.9692 60.2253 70.0633 60.1887 67.2972C60.1547 64.465 60.1493 61.5827 60.1592 58.6663C60.1609 58.0113 60.1668 57.2725 60.1659 56.7208C60.1662 56.7243 60.1649 56.7161 60.1692 56.7826C60.1699 56.7914 60.1707 56.8016 60.1718 56.8144C60.1753 56.8425 60.1663 56.7881 60.1874 56.9415C60.2062 57.0222 60.19 57.0848 60.3312 57.4394C60.4401 57.6097 60.4639 57.9821 61.3095 58.4655C61.7289 58.6937 62.4428 58.7436 62.9117 58.552C63.3914 58.3714 63.6294 58.1178 63.7766 57.9497C64.0741 57.5654 64.0352 57.5441 64.0843 57.4598C64.1165 57.3874 64.1364 57.3329 64.1519 57.2874C64.1823 57.1973 64.1957 57.1423 64.2063 57.0984C64.2655 56.8079 64.2426 56.874 64.2492 56.8442C64.2532 56.799 64.2506 56.8253 64.25 56.8368C64.2481 56.8632 64.2457 56.9034 64.2433 56.9447C64.2387 57.022 64.2336 57.1122 64.2287 57.1937C64.2187 57.3645 64.2081 57.5374 64.1965 57.7112C64.1732 58.0595 64.1464 58.4106 64.1128 58.7691C63.6232 63.3808 62.9116 67.8694 62.3109 72.4043C62.0071 74.6578 61.7104 76.9361 61.4663 79.1549C61.3432 80.2827 61.2328 81.3946 61.1573 82.4776C61.1198 83.0241 61.0914 83.5554 61.0857 84.0614C61.0844 84.1898 61.0848 84.3076 61.0869 84.4129C61.0893 84.5375 61.0945 84.6538 61.101 84.7405C61.1058 84.8161 61.1198 84.9257 61.1223 84.9318C61.1221 84.9353 61.1268 84.9342 61.0958 84.8431C61.0799 84.799 61.0552 84.7359 61.0069 84.6474C60.9807 84.6005 60.9587 84.5619 60.9064 84.4877C60.8381 84.3922 60.7422 84.2773 60.6001 84.1589C60.3764 83.9672 60.012 83.7887 59.6463 83.7482C59.2511 83.7084 59.0619 83.7628 58.8571 83.8224C58.4769 83.953 58.3362 84.0955 58.2484 84.1683C58.1532 84.2556 58.1382 84.2793 58.1266 84.2873C58.1121 84.2967 58.1302 84.2529 58.1246 84.2402C58.1211 84.2032 58.088 84.2007 58.0599 84.1898C58.0094 84.1299 57.9313 84.2811 58.3894 83.2051C58.4694 83.011 58.5568 82.79 58.6509 82.5423C58.4759 72.4018 57.1295 58.073 57.1603 46.4457C57.2161 43.4052 57.3633 45.3329 57.4212 44.6657C57.5355 43.586 57.5627 42.5738 57.8313 41.171C57.8757 40.9671 57.9267 40.7698 57.9978 40.5646C58.0712 40.3741 58.2098 39.9198 58.6753 39.4818C58.8836 39.2345 59.7417 38.8132 60.3916 38.9767C60.553 39.0055 60.6996 39.052 60.8282 39.1062C60.97 39.1681 60.9943 39.1843 61.0688 39.2257C61.1968 39.2996 61.3028 39.3773 61.3943 39.4537C61.752 39.7557 61.9413 40.0709 62.022 40.1892C62.4758 40.9366 62.6222 41.343 62.8772 41.9613C62.954 42.1676 62.9901 42.3386 63.0153 42.4773C63.0361 42.5921 63.05 42.6981 63.0608 42.8014C63.0806 42.9911 63.089 43.1471 63.0952 43.2967C63.1067 43.5834 63.1076 43.8341 63.1066 44.0801C63.1047 44.5485 63.095 44.9631 63.088 45.3195C63.0725 46.0348 63.0637 46.5424 63.0513 46.7637C62.96 48.3711 62.9031 49.9488 63.0769 51.2367C63.1386 51.8479 63.407 52.4473 63.3708 52.3372C63.3497 52.2762 63.0221 52.1096 62.9248 52.128C62.8268 52.1295 62.951 52.1299 63.1437 52.0397C62.8375 52.2134 63.0859 52.0805 63.2127 51.8419C63.366 51.6024 63.5276 51.2741 63.6705 50.9243C63.9593 50.2169 64.1895 49.4162 64.3723 48.6022C66.9192 39.6685 69.9812 32.2781 67.0837 24.4094C67.042 24.2778 66.989 24.2059 67.0283 24.2594C67.0523 24.3073 67.297 24.4984 67.5024 24.5256C67.7037 24.5583 67.7174 24.5177 67.6219 24.5499C67.5283 24.5766 67.354 24.6484 67.1558 24.7485C66.2695 25.1366 65.3229 26.0801 63.2405 26.4232C62.4082 26.5078 61.7655 26.4038 61.0876 26.2092C60.746 26.103 60.4126 25.9842 59.9873 25.7277C59.7722 25.5876 59.5265 25.442 59.197 25.0338C59.0353 24.8196 58.8249 24.5077 58.7326 23.9862C58.629 23.4677 58.7971 22.7989 59.0482 22.4326C59.5521 21.6578 59.9879 21.1079 60.4646 20.4891C60.7004 20.1869 60.9383 19.887 61.1856 19.5832C61.3096 19.4311 61.4334 19.2806 61.5717 19.1181C61.6418 19.0362 61.7095 18.9566 61.8126 18.8449C61.847 18.8084 61.8629 18.7905 61.9267 18.7275C61.9649 18.6912 61.9726 18.6801 62.0744 18.594C62.1452 18.5402 62.2071 18.4725 62.4752 18.333C62.5104 18.3156 62.5503 18.297 62.597 18.2776C62.7459 18.2228 62.9912 18.1053 63.4965 18.1274C63.9856 18.1128 64.8595 18.5756 65.1313 19.1729C65.4239 19.7472 65.375 20.1076 65.3643 20.322C65.3258 20.6381 65.2926 20.6875 65.2617 20.7912C65.1346 21.1228 65.1227 21.0972 65.0957 21.1557C65.0722 21.1974 65.0476 21.2375 65.0348 21.2582C65.0097 21.2986 64.9867 21.3341 64.9629 21.3699C63.471 23.2352 62.4005 24.3268 61.1343 25.8289C60.9678 26.025 60.571 26.5128 60.0503 27.1883C59.7977 27.5185 59.499 27.912 59.2631 28.2721C59.2106 28.3529 59.1553 28.4454 59.1469 28.4696C59.1466 28.4692 59.1408 28.5082 59.2125 28.3377C59.2293 28.2945 59.2498 28.2373 59.2715 28.1549C59.2821 28.1084 59.3485 27.8848 59.3289 27.5428C59.2973 27.2062 59.2297 26.6238 58.5579 26.0417C57.9433 25.5238 57.1863 25.5588 57.1293 25.5654C56.4134 25.6503 56.5269 25.7146 56.4616 25.7174C56.4405 25.7259 56.4626 25.7121 56.4915 25.6916C56.5671 25.6396 56.6367 25.5877 56.7541 25.4995C59.2368 23.608 62.3643 20.9908 64.3125 19.6777C64.4261 19.5994 65.2397 19.056 66.3408 18.2162C66.8876 17.799 67.5028 17.311 68.1244 16.7733C68.4219 16.5159 68.7498 16.2208 69.0256 15.949C69.1574 15.8195 69.3102 15.6592 69.3438 15.6079C69.3439 15.6065 69.3423 15.6056 69.3186 15.6346C69.3071 15.649 69.291 15.6698 69.268 15.7034C69.2565 15.7203 69.2433 15.7404 69.228 15.7656C69.2089 15.7999 69.2104 15.7861 69.1426 15.9269C69.0911 16.0516 68.9992 16.2254 68.9773 16.6297C68.9308 16.9989 69.1798 17.8363 69.7437 18.2102C70.6509 18.7811 71.0557 18.5371 71.2413 18.536C71.3397 18.5146 71.4028 18.4935 71.4456 18.4788C71.4649 18.4723 71.4811 18.4664 71.4951 18.4612C71.523 18.4507 71.5421 18.4429 71.5559 18.4372C71.6333 18.4045 71.5498 18.4527 71.4801 18.5044C71.2934 18.6338 71.1041 18.7615 70.926 18.8839C70.8275 18.9524 71.389 18.6859 71.472 18.6929C71.5642 18.7031 71.0536 19.0486 69.2048 20.1278C65.4478 22.2081 60.4884 26.843 57.9333 32.047C57.6029 32.6753 57.0749 33.6561 56.5452 34.9725C56.4121 35.2559 56.3709 35.5941 56.3636 35.5586C56.3494 35.5479 56.3148 35.3142 55.9661 35.0892C55.6084 34.8618 55.197 34.9516 55.112 35.01C56.4576 34.3957 57.9669 33.4033 59.3163 32.1089C59.4524 31.9777 61.3976 30.0527 62.7703 27.6677C63.6493 26.0853 64.4121 23.5964 65.0312 22.3974C65.2473 21.9212 65.661 22.6771 67.264 15.8977C67.6051 14.5583 66.7274 16.9877 67.7711 13.3903C67.8035 13.2924 67.8417 13.181 67.8867 13.0597C67.9317 12.9395 67.9701 12.8371 68.0465 12.6674C68.0826 12.5882 68.1189 12.5125 68.1692 12.4194C68.2409 12.2902 68.3218 12.1485 68.4824 11.9554C68.5028 11.9312 68.5247 11.9062 68.5484 11.8803C68.591 11.834 68.6397 11.7846 68.6973 11.7322C68.8129 11.6282 68.9638 11.5083 69.1878 11.3945C69.4094 11.2823 69.718 11.1772 70.0838 11.166C70.4777 11.1471 70.9389 11.2769 71.2469 11.47C71.8787 11.8683 72.0332 12.3135 72.0801 12.3804C72.1523 12.526 72.1948 12.6445 72.228 12.749C72.4085 13.4176 72.3725 13.5629 72.4014 13.8491C72.4169 14.1315 72.4208 14.3048 72.4233 14.5703C71.8637 20.4681 69.6324 25.8979 67.5746 31.3818C67.2126 32.3428 65.8815 36.0381 64.1364 39.2412C64.001 39.4924 63.8659 39.7345 63.6976 40.0118C63.6148 40.1462 63.5268 40.29 63.3852 40.4915C63.2929 40.61 63.2791 40.6767 62.9316 41.0294C62.8888 41.0699 62.8204 41.1344 62.7134 41.217C62.6609 41.2574 62.6009 41.3005 62.5294 41.3462C62.4587 41.3901 62.38 41.4412 62.2062 41.5205C61.867 41.6398 61.4502 41.8966 60.4251 41.6026C59.4395 41.2257 59.1705 40.6348 59.0007 40.2958C58.9141 40.0949 58.8971 40.0198 58.8694 39.9207C58.8452 39.8278 58.8297 39.7473 58.8185 39.6758C58.7955 39.5207 58.7939 39.4567 58.7903 39.3806C58.7854 39.2314 58.7918 39.1459 58.7971 39.0742C58.8284 38.7567 58.8554 38.7114 58.8747 38.6413C58.8939 38.5865 58.9088 38.566 58.9215 38.5594C58.9471 38.5467 58.9646 38.5916 58.9967 38.563C59.062 38.5085 59.1716 38.1646 59.4987 37.1765C59.5095 37.1434 59.5207 37.11 59.5323 37.0762C60.7143 34.2451 62.0631 32.735 63.0172 30.7805C63.4911 29.8569 63.8654 28.9179 63.9653 28.1777C64.048 27.4025 63.9529 27.1558 63.5975 26.7893C63.8418 27.0433 64.3267 27.2315 64.608 27.2342C64.8999 27.2483 65.0211 27.1978 65.0763 27.1828C65.1768 27.1442 65.0768 27.1817 64.9776 27.2523C64.7603 27.3975 64.4567 27.6511 64.1608 27.9214C60.9298 30.858 58.4487 34.3169 54.5079 37.7421C54.2395 37.9279 54.047 38.0931 53.4821 38.3097C53.2362 38.3772 52.7532 38.6044 51.8824 38.3304C50.8952 37.9802 50.5431 37.1131 50.4624 36.7651C50.3116 36.0504 50.3997 35.8687 50.4232 35.6013C50.4548 35.4085 50.4934 35.2526 50.5344 35.1047C50.6459 34.6754 50.7784 34.4926 50.8402 34.386C50.9144 34.2678 50.9915 34.1631 51.039 34.1056C51.1455 33.9736 51.2459 33.8656 51.3216 33.7926C51.4901 33.6257 51.6189 33.5218 51.7974 33.3594C52.1341 33.0596 52.5997 32.6224 53.5774 31.5951C54.2765 30.855 55.1733 29.9163 56.0332 28.8719C56.4498 28.3641 56.8982 27.762 57.0894 27.3575C57.1358 27.2669 57.1456 27.1885 57.1309 27.2906C57.1277 27.3522 57.1114 27.4674 57.1888 27.6951C57.2551 27.9087 57.4753 28.1685 57.6361 28.2603C57.981 28.45 57.9756 28.3702 57.9273 28.3847C57.8598 28.3843 57.7578 28.3926 57.6067 28.4184C56.6285 28.6407 55.1399 29.5991 54.4158 30.4263C53.9524 30.927 53.5179 31.4003 53.157 31.8078C50.653 34.6919 53.7451 31.9265 50.0287 36.1736C48.9484 37.4608 47.9005 38.7847 47.1151 40.0742C46.7326 40.6814 46.4157 41.4461 46.4284 41.554C46.4249 41.5605 46.4533 41.4797 46.3827 41.239C46.3246 41.0102 46.0753 40.6752 45.8792 40.5559C45.4778 40.3253 45.5963 40.4604 45.8252 40.4359C45.5572 40.4455 45.5683 40.4662 45.5696 40.4607C45.581 40.4575 45.6288 40.4424 45.6885 40.4197C45.8062 40.3754 45.9598 40.3083 46.121 40.2314C46.4424 40.078 46.7965 39.8868 47.144 39.687C47.8445 39.2836 48.5544 38.8282 49.2505 38.354C50.6474 37.4005 52.0079 36.3594 53.3206 35.2626C55.1416 33.6939 57.0028 31.5488 58.83 29.5134C59.7525 28.48 60.6691 27.4403 61.6592 26.3862C62.163 25.857 62.6491 25.3372 63.3268 24.7555C63.5213 24.595 63.6873 24.4527 64.0292 24.2396C64.1655 24.1609 64.4316 23.9891 64.8902 23.8711C65.2175 23.7994 65.658 23.7091 66.3381 23.9432C67.099 24.1711 67.6868 25.0703 67.7484 25.3451C67.8923 25.7183 67.913 26.0756 67.916 26.2168C67.9198 26.3767 67.9111 26.5133 67.8977 26.6387C67.8632 26.9255 67.8416 27.0007 67.8042 27.1681C67.7247 27.4921 67.6733 27.6424 67.5896 27.8897C65.0531 35.4079 65.0905 45.18 56.6908 51.9938C51.756 54.3605 47.8539 53.5905 43.848 53.8872C40.2923 54.1038 42.9502 53.8502 38.252 54.6124C37.7458 54.7398 37.286 54.9435 37.1417 55.0653C37.0669 55.1241 37.0913 55.1227 37.1171 55.0682C37.1452 55.0155 37.1377 54.9635 37.1405 55.0436C37.0255 54.0265 36.6093 53.7868 36.4867 53.6353C36.3303 53.4943 36.258 53.4577 36.2097 53.4274C36.1189 53.3761 36.122 53.3837 36.1378 53.3884C36.177 53.4036 36.2913 53.4386 36.4126 53.4665C36.6605 53.5247 36.9618 53.5711 37.2475 53.5943C40.5764 53.9122 43.882 54.4073 47.41 54.9088C49.1634 55.1629 50.9501 55.4282 52.7586 55.7029C53.6607 55.8399 54.5667 55.9789 55.4904 56.1236C55.9511 56.1968 56.3473 56.2556 56.9282 56.3568C56.9402 56.3591 56.9529 56.3615 56.9686 56.3647C56.9725 56.3654 56.9766 56.3663 56.981 56.3672C56.9821 56.3674 56.9833 56.3677 56.9844 56.3679C56.9831 56.3678 56.9866 56.3677 57.0554 56.3837C57.0914 56.3929 57.1252 56.3985 57.252 56.4393C57.3246 56.467 57.3964 56.4771 57.664 56.6222C57.8019 56.716 58.0125 56.7799 58.4021 57.288C58.5856 57.5462 58.8341 58.0072 58.8278 58.6515C58.8322 59.2894 58.4918 59.9101 58.1977 60.2007C57.5769 60.7933 57.2804 60.7753 57.0924 60.8474C56.9062 60.8929 56.8117 60.9001 56.7358 60.9079C56.5916 60.9199 56.5345 60.917 56.4855 60.9167C56.3948 60.9146 56.3633 60.9111 56.3334 60.9089C56.2061 60.8969 56.2869 60.9044 56.2661 60.9025C56.2643 60.9023 56.2625 60.9021 56.2607 60.9019C56.2572 60.9015 56.2538 60.9011 56.2506 60.9007C56.2248 60.8978 56.2049 60.8954 56.1844 60.8927C56.1471 60.888 56.0917 60.8804 56.0606 60.8761C56.0118 60.8694 55.9553 60.8614 55.8894 60.8519C55.7311 60.8291 55.6728 60.8206 55.539 60.8009C55.2688 60.761 55.1048 60.7366 54.8283 60.6951C49.3718 59.8859 43.7152 59.1569 38.2634 58.4438C35.5377 58.089 32.8484 57.7413 30.2441 57.4019C28.9368 57.2314 27.6527 57.0634 26.3926 56.8961C25.7734 56.8138 25.1265 56.7274 24.5208 56.6445C24.3557 56.622 24.203 56.6009 24.063 56.5814C23.8901 56.5575 23.7321 56.5352 23.5958 56.5155C23.394 56.4864 23.3098 56.4747 23.0736 56.4366C23.0496 56.4326 23.0259 56.4285 23.0008 56.424C22.9994 56.4236 22.9498 56.4153 22.8876 56.4022C22.854 56.395 22.816 56.3872 22.7422 56.3673C22.6485 56.3301 22.6166 56.3708 22.154 56.1138C22.0288 56.0321 21.8528 55.9319 21.5931 55.6255C21.3521 55.3505 20.9448 54.6198 21.1322 53.7502C21.3235 52.8928 21.8534 52.4963 22.1129 52.3252C22.4178 52.1386 22.5151 52.1233 22.6153 52.0849C22.9851 51.9722 23.0677 51.9885 23.1608 51.9759C23.3194 51.9657 23.3613 51.9702 23.4105 51.9707C23.4885 51.9729 23.573 51.9795 23.576 51.9798C23.6576 51.9861 23.7444 51.9941 23.8537 52.0046C28.6661 52.4978 32.9447 52.9993 36.6137 53.5744C37.045 53.6462 37.4153 53.7074 37.8798 53.8101C38.0335 53.8479 38.0841 53.8485 38.4101 53.9593C38.4495 53.9736 38.4924 53.9902 38.5441 54.0124C38.663 54.0689 38.8095 54.115 39.11 54.3619C39.2568 54.4927 39.4676 54.6857 39.6543 55.0908C39.8448 55.3896 39.9271 56.4114 39.5723 56.9313C39.2544 57.4717 38.931 57.6355 38.7397 57.7477C38.5437 57.8516 38.3989 57.8939 38.3245 57.9162C38.0432 57.993 37.9119 57.9952 37.8115 58.0057C37.5061 58.026 37.3528 58.019 37.1433 58.0165C27.6062 58.9413 42.6624 56.9453 32.2395 57.9883C31.8014 57.99 31.3434 57.985 30.7949 57.891C30.5137 57.8376 30.2173 57.7752 29.827 57.581C29.4606 57.4049 28.8876 56.9537 28.6964 56.25C28.5074 55.3236 28.881 55.0279 28.9496 54.875C29.0749 54.7029 29.1469 54.6376 29.2242 54.5621C29.3584 54.4362 29.4586 54.3613 29.5518 54.2918C29.7342 54.1582 29.8842 54.0619 30.0315 53.968C30.3253 53.7824 30.592 53.6241 30.8473 53.4683C31.0999 53.3141 31.3446 53.1622 31.5301 53.0301C31.6172 52.9692 31.7097 52.8908 31.6743 52.9101C31.6649 52.9166 31.6365 52.9381 31.5845 52.9966C31.53 53.083 31.3903 53.1481 31.2746 53.678C31.2086 53.9761 31.3035 54.4953 31.5165 54.7816C31.6193 54.9345 31.737 55.0497 31.8425 55.1319C31.9242 55.1955 31.9947 55.2384 32.0589 55.2727C32.3365 55.4075 32.3675 55.3892 32.4393 55.4096C29.9682 55.3995 27.1642 55.601 26.3838 55.5085C25.7594 55.46 25.1806 55.4208 24.3968 55.2398C24.2066 55.1922 23.9905 55.1358 23.6992 55.0133C23.4429 54.8573 22.9874 54.844 22.3848 53.8332C22.0778 53.2657 22.1033 52.4678 22.308 52.0052C22.4645 51.6073 22.6997 51.3358 22.8196 51.2068C23.1215 50.8937 23.3049 50.7781 23.5179 50.6348C28.8578 48.6594 31.9685 48.5094 35.8162 47.6325C37.6559 47.2627 39.4713 46.9 41.2483 46.5011C42.1332 46.3001 43.0572 46.0838 43.7993 45.8497C43.9764 45.7963 44.1906 45.7039 44.1164 45.7394C44.1053 45.7565 44.008 45.7589 43.7137 46.0839C43.6417 46.1698 43.5576 46.2837 43.4766 46.4449C43.3419 46.7014 43.2185 47.1663 43.3086 47.6308C43.3911 48.098 43.6471 48.4548 43.8445 48.6437C43.9609 48.7547 43.9976 48.7769 44.0394 48.8091C44.081 48.8396 44.1196 48.8652 44.1551 48.8872C44.4376 49.0532 44.5378 49.0543 44.5639 49.0652C44.584 49.0697 44.5811 49.0682 44.5628 49.0653C44.442 49.0478 44.2971 49.0366 44.0542 49.027C43.8763 49.0202 43.6592 49.0161 43.4045 49.0159C43.8516 49.0008 43.9331 48.9352 44.0255 48.9122C44.1046 48.8841 44.1343 48.8695 44.1522 48.8615C44.1759 48.8505 44.1682 48.8538 44.1637 48.8562C44.1544 48.8607 44.0988 48.8908 44.0738 48.9048C44.0142 48.9377 43.8957 49.0056 43.8256 49.0464C43.6525 49.1468 43.4683 49.2556 43.2774 49.3682C42.908 49.5864 42.5258 49.8124 42.1348 50.0408C41.3625 50.4921 40.5645 50.9484 39.7422 51.3988C37.6692 52.5083 39.8234 51.6313 38.0282 52.5567C36.235 53.4402 34.4029 54.301 32.1298 54.8061C30.9721 54.9837 29.654 55.3918 27.7021 54.3772C26.748 53.8513 26.0526 52.6966 25.8832 51.8657C25.6767 50.9849 25.7153 50.3055 25.7922 49.6263C26.6913 46.1251 28.6224 45.2663 30.5552 44.1418C31.5486 43.6599 32.5428 43.2546 33.5253 42.8978C36.3721 41.9289 35.8038 41.9506 38.4566 41.2944C43.5464 40.143 48.1977 39.7029 53.0014 39.4771C52.8411 39.4959 52.607 39.4902 52.1429 39.7211C51.9278 39.7971 51.1642 40.4088 51.0398 41.1774C50.909 42.0184 51.0839 42.2127 51.156 42.4574C51.3481 42.8921 51.4998 43.0118 51.5406 43.0681C51.6034 43.1377 51.6502 43.1818 51.6877 43.2161C51.8049 43.3201 51.8303 43.3326 51.851 43.3487C51.8895 43.3757 51.8815 43.3688 51.8752 43.3643C51.858 43.3519 51.816 43.3236 51.7768 43.2969C51.6935 43.2402 51.5993 43.1748 51.506 43.1067C51.3193 42.9706 51.1284 42.8189 50.9446 42.6555C50.5751 42.3272 50.2211 41.9432 49.9137 41.4927C49.6234 41.0602 49.3298 40.6004 49.0599 40.1648C48.7599 39.6775 51.036 42.7968 48.4546 38.8047C47.3507 37.0443 46.2455 35.1605 45.1077 33.2017C44.5421 32.2278 43.9608 31.2195 43.383 30.2305C43.0889 29.728 42.7938 29.226 42.5003 28.7452C42.3573 28.5115 42.1963 28.2539 42.0889 28.101C42.0885 28.0901 41.9843 27.9889 42.1805 28.1905C42.2275 28.2332 42.2901 28.2929 42.4312 28.383C42.503 28.4276 42.5959 28.4809 42.7364 28.5351C42.8069 28.5619 42.8897 28.5886 42.9894 28.6104C43.1039 28.6384 43.4257 28.683 43.7373 28.612C44.4314 28.4939 44.951 27.8151 45.0392 27.4784C45.1616 27.1187 45.1417 26.9331 45.1423 26.823C45.1392 26.745 45.1324 26.6914 45.1263 26.6497C45.0997 26.4898 45.0896 26.4862 45.0912 26.4861C45.0967 26.5071 45.1416 26.6295 45.196 26.7623C46.7082 30.6394 47.83 34.5242 48.8788 38.4071C49.1254 39.3547 49.3216 39.9527 49.5148 40.6656C49.6089 41.0364 49.7092 41.3715 49.7766 42.0048C49.7844 42.0935 49.7904 42.1853 49.7925 42.2865C49.7938 42.4175 49.7924 42.5798 49.7575 42.8005C49.7374 42.9126 49.6955 43.1819 49.5149 43.5236C49.4678 43.6113 49.4093 43.707 49.3328 43.8086C49.2907 43.8635 49.2647 43.8976 49.1922 43.9769C49.1168 44.0583 49.0284 44.1411 48.9259 44.22C48.5252 44.5512 47.8357 44.7278 47.3485 44.6484C47.2262 44.6331 47.1109 44.6075 47.0141 44.5793C46.9538 44.5618 46.8973 44.5427 46.8445 44.5226C46.7389 44.4824 46.6478 44.4388 46.5681 44.3953C46.4087 44.3079 46.2932 44.2222 46.1987 44.1445C45.9918 43.9674 45.9548 43.9132 45.8853 43.8378C45.4227 43.2636 45.3729 43.0863 45.1702 42.7148C44.8007 41.9888 44.3422 41.0454 43.7456 39.7696C43.2528 38.7354 44.3615 39.8056 40.9853 34.3791C40.7542 34.0094 39.7086 32.2969 38.3743 30.0786C37.7101 28.9749 36.9667 27.7313 36.2275 26.4889C35.8538 25.861 35.485 25.2394 35.1212 24.6313C34.936 24.3224 34.7661 24.0392 34.5913 23.7588C34.558 23.7055 34.5054 23.6226 34.4776 23.5804C34.4642 23.56 34.4486 23.5368 34.4447 23.5311C34.4436 23.5294 34.4468 23.5341 34.4591 23.5501C34.498 23.584 34.3895 23.5169 34.7582 23.857C34.8733 23.9437 35.0067 24.0829 35.4544 24.2505C35.6805 24.327 36.0194 24.4155 36.4923 24.3558C36.9354 24.3181 37.5922 23.9892 37.9085 23.5864C38.5507 22.7448 38.4236 22.2965 38.4489 22.0664C38.4402 21.828 38.4128 21.7236 38.396 21.6421C38.3561 21.4783 38.3511 21.4819 38.346 21.4629C38.3406 21.4469 38.3366 21.4359 38.3337 21.4281C38.3215 21.3963 38.3299 21.4194 38.3385 21.4395C38.3531 21.4747 38.3804 21.5372 38.4174 21.618C38.918 22.713 39.4538 23.7575 39.8803 24.6512C40.4376 25.9002 42.0279 29.0393 43.4145 32.0763C43.5883 32.5143 43.1135 30.6577 44.1416 33.36C44.4393 34.2814 44.7019 35.2997 44.6487 36.5348C44.6216 37.7522 44.0127 39.2452 43.0039 40.1347C42.6543 40.4852 41.9924 40.7382 41.5164 40.7203C41.0329 40.7166 40.7272 40.5893 40.5116 40.4905C40.0849 40.2783 39.9012 40.0917 39.7313 39.9295C39.4131 39.6059 39.2393 39.336 39.0806 39.0685C38.7746 38.5364 38.5869 38.023 38.4562 37.4845C37.8524 34.9822 37.2096 32.4177 36.582 29.8585C36.267 28.5749 35.9518 27.285 35.6469 25.9967C35.493 25.3445 35.3415 24.6962 35.1965 24.027C35.1216 23.6704 35.0532 23.3786 34.9812 22.899C34.9714 22.8218 34.9664 22.8047 34.9534 22.638C34.9487 22.5643 34.9436 22.4821 34.9495 22.3442C34.9529 22.3069 34.9468 22.292 34.9751 22.0969C35.0164 21.9235 35.0144 21.6714 35.3741 21.162C35.5568 20.9167 35.9046 20.5959 36.3917 20.4426C36.8497 20.2737 37.4762 20.3732 37.6232 20.4341C38.0437 20.5681 38.2503 20.7434 38.3937 20.8645C38.666 21.1146 38.7291 21.2422 38.7984 21.3439C38.8698 21.4609 38.8701 21.4673 38.8889 21.5012C38.9197 21.5595 38.9429 21.6079 38.964 21.6535C39.0082 21.7498 39.0333 21.8122 39.0526 21.8593C39.1452 22.0906 39.1928 22.2266 39.2636 22.4273C39.5988 23.3793 40.445 24.5596 41.3378 25.6939C42.8444 27.581 40.7479 24.5939 43.0472 27.4641C44.437 29.5262 47.0705 31.5323 46.6633 36.2602C46.2415 38.4298 45.2993 40.7027 43.2477 42.3938C40.8637 44.2469 38.5619 45.5983 36.2383 47.0137C35.0827 47.7071 33.9368 48.3786 32.7979 49.0365C32.2307 49.3641 31.67 49.6853 31.1117 50.0035C30.8488 50.1532 30.5497 50.3233 30.2861 50.4736C30.216 50.5136 30.1572 50.547 30.0913 50.5851C30.0757 50.5936 30.0053 50.6362 30.0635 50.5999C30.0686 50.5967 30.0749 50.5926 30.0834 50.5871C30.0876 50.5843 30.0924 50.5812 30.098 50.5775C30.1072 50.5696 30.085 50.5922 30.2417 50.4733C30.2847 50.4383 30.3374 50.4 30.4556 50.282C30.516 50.219 30.5946 50.1413 30.719 49.9614C30.8243 49.7686 31.0847 49.5126 31.1147 48.6557C31.1212 48.237 30.9506 47.6418 30.5988 47.2262C30.2521 46.8028 29.8427 46.6011 29.5603 46.5055C28.983 46.3289 28.7513 46.39 28.5779 46.3975C28.2568 46.4386 28.1823 46.4785 28.1013 46.5015C27.8539 46.5901 27.8754 46.5931 27.8385 46.6079C27.809 46.6223 27.8244 46.6149 27.8181 46.618C27.8097 46.6222 27.8081 46.6232 27.8094 46.6226C27.8122 46.6213 27.8266 46.6138 27.8471 46.6031C27.9526 46.5478 28.0892 46.4747 28.2431 46.3922C28.9863 45.9759 30.0135 45.2753 30.8973 44.6909C33.9246 42.6724 31.939 44.2229 32.1662 44.0918C35.8734 41.9459 37.7872 40.2315 38.982 39.4448C39.6826 38.9845 40.3726 38.5407 41.0543 38.1116C44.229 36.1019 47.1501 34.2214 50.0848 32.4263C51.5522 31.5288 53.0228 30.6428 54.5794 29.7631C55.3581 29.3251 56.1473 28.8915 57.0194 28.4652C57.4587 28.2528 57.8991 28.0464 58.4497 27.8414C58.7351 27.7392 59.0026 27.6419 59.4522 27.5529C59.6337 27.519 59.9682 27.4656 60.3551 27.4958C60.5988 27.5151 60.931 27.57 61.2941 27.7431C61.6771 27.9085 62.2107 28.369 62.4391 28.8818C62.7444 29.503 62.6897 30.1323 62.6656 30.3178C62.6336 30.5822 62.5717 30.7978 62.5224 30.9491C62.44 31.2 62.3569 31.3835 62.2831 31.5404C61.9556 32.1326 61.8841 32.1382 61.7912 32.2748C61.7066 32.3812 61.6834 32.4181 61.6619 32.4556C61.6255 32.5229 61.6679 32.5132 61.731 32.4796C61.8361 32.4378 62.1295 32.1654 61.8824 32.4528C60.8167 33.5814 60.423 33.8596 60.1134 34.1326C59.8238 34.371 59.7365 34.4078 59.6804 34.4092C59.571 34.4107 59.5996 34.2518 58.5007 35.1869C54.4624 38.6396 50.3141 42.721 48.0062 47.4256C48.0138 47.4098 48.0245 47.3875 48.0416 47.3473C48.0478 47.3322 48.0654 47.2923 48.0914 47.2172C48.1043 47.1794 48.1194 47.1327 48.1368 47.0659C48.1454 47.0324 48.1546 46.9937 48.1639 46.9466C48.1753 46.8703 48.2277 46.6749 48.1892 46.302C48.1654 46.1116 48.1173 45.8487 47.9372 45.5207C47.765 45.1975 47.4045 44.8213 46.9755 44.6326C46.1517 44.3011 45.762 44.4717 45.4758 44.5373C44.9571 44.7182 44.8533 44.8648 44.7817 44.9088C44.6949 44.9797 44.653 45.0221 44.6201 45.0547C44.5531 45.1234 44.5559 45.1229 44.5372 45.1437C44.4936 45.1947 44.5051 45.1825 44.5078 45.1785C44.5188 45.1642 44.5433 45.1317 44.5681 45.0981C44.6179 45.0308 44.6738 44.9541 44.7303 44.8768C44.8432 44.7219 44.961 44.5605 45.0799 44.3997C45.3193 44.0762 45.5658 43.7496 45.8351 43.4152C47.0753 41.8584 48.3289 40.1569 49.5476 38.5461C51.3895 36.1099 49.1257 38.7048 50.7887 36.5186C52.0575 34.8598 53.34 33.2039 54.7325 31.5478C55.4385 30.7156 56.1296 29.913 57.0067 29.0554C57.4726 28.6385 57.7918 28.2176 58.8833 27.6485C59.276 27.515 59.6236 27.193 60.8767 27.4345C61.4456 27.5621 62.1154 28.0518 62.4112 28.5397C62.6681 28.9371 62.7611 29.2594 62.8239 29.5499C62.8802 29.8425 62.8832 29.956 62.8918 30.1367C62.8979 30.2943 62.8905 30.4841 62.8834 30.5815C62.8685 30.8016 62.8405 31.0116 62.8036 31.2244C61.814 35.3479 60.9525 38.7937 60.3615 42.5616C60.1183 44.7502 60.4734 47.9976 60.5749 50.9327C60.6275 52.4474 60.6886 53.956 60.5008 55.6919C60.4476 56.1279 60.3812 56.578 60.2282 57.1281C60.0456 57.6664 59.9388 58.2972 59.0462 59.1741C58.5934 59.6018 57.825 59.9563 57.1112 59.9748C56.4525 60.0034 55.9279 59.8311 55.5645 59.6747C54.8268 59.339 54.451 59.0086 54.0467 58.6581C51.7244 55.9807 51.1854 54.2991 49.9219 52.2376C48.4599 49.6849 49.5435 51.196 49.2685 50.6473C48.3224 48.7773 46.942 46.5552 45.5925 45.0397C44.9671 44.2998 44.1371 43.7412 44.1567 43.8426C44.1777 43.8593 44.2948 43.8991 44.4671 43.8844C44.6379 43.8716 44.8025 43.8052 44.8965 43.7484C45.0712 43.6363 45.0424 43.6405 45.0324 43.6756C45.0008 43.7395 44.9553 43.8439 44.8985 44.016C44.9462 43.8724 44.8984 44.1031 44.9125 44.2928C44.9185 44.4992 44.9426 44.738 44.9783 44.9761C45.0503 45.4559 45.1653 45.936 45.299 46.3879C45.5691 47.2945 45.9109 48.1014 46.3077 48.8369C47.3597 50.7969 48.2723 52.6368 49.5704 55.2377C50.4949 57.1025 51.4132 59.0117 52.278 61.0277C52.7081 62.046 53.134 63.0631 53.4955 64.2726C53.5438 64.4391 53.5877 64.6024 53.6266 64.7649C53.67 64.9465 53.7122 65.1499 53.7419 65.3508C53.7596 65.4699 53.7759 65.6095 53.7845 65.7511C53.7918 65.8934 53.8003 66.0418 53.776 66.3081C53.7326 66.5802 53.7582 66.7734 53.4403 67.3872C53.1758 67.9352 52.3159 68.5736 51.5703 68.6089C51.3973 68.6283 51.1967 68.6227 51.0961 68.6131C50.9915 68.6042 50.8946 68.5897 50.8047 68.5718C50.6249 68.5359 50.4729 68.4875 50.3388 68.4359C50.0351 68.313 49.965 68.2638 49.818 68.1799C49.6904 68.1041 49.5592 68.0142 49.4656 67.9455C49.3834 67.8855 49.304 67.8239 49.2255 67.7603C48.8749 67.4709 48.7039 67.3025 48.4372 67.0375C46.4 64.433 46.2028 62.8108 45.3488 60.8341C44.3544 58.6358 41.3073 55.7656 39.1266 52.5967C38.0135 50.959 36.8672 49.1255 36.4774 46.6585C36.0033 44.1662 37.2643 41.2475 38.9908 39.7291C39.6528 39.1152 40.2781 39.0439 40.6502 39.0098C41.0409 38.9866 41.2909 39.0294 41.5026 39.0686C41.9266 39.1553 42.2048 39.2665 42.4682 39.3782C42.973 39.5994 43.3711 39.8403 43.7421 40.0854C44.4787 40.5782 45.1009 41.1066 45.6865 41.6638C46.8501 42.7786 47.8315 43.9987 48.6912 45.2926C51.4787 49.6403 53.0367 54.1679 54.5285 58.5905C55.2576 60.8073 55.9196 63.0162 56.5549 65.1641C56.8735 66.2377 57.1858 67.3061 57.5095 68.3284C57.6684 68.8275 57.8453 69.359 57.9863 69.6893C58.0139 69.7593 58.0631 69.8387 57.9979 69.7323C57.9697 69.6928 57.9833 69.7001 57.8697 69.5648C57.7627 69.4522 57.5984 69.2468 57.1356 69.0429C56.9843 68.9608 56.3224 68.7919 55.8132 68.9394C55.2764 69.0679 54.9003 69.3851 54.708 69.6119C54.4757 69.8912 54.4247 70.041 54.3733 70.158C54.2874 70.3939 54.311 70.3671 54.3031 70.3889C54.3017 70.3987 54.3069 70.366 54.31 70.3361C54.3163 70.279 54.3238 70.1829 54.3292 70.0577C54.5251 65.5864 54.5896 61.2349 54.6242 57.0766C54.6679 52.1826 54.6514 47.4314 54.8058 42.7414C54.8905 40.3855 55.0065 38.0586 55.3188 35.6875C55.4839 34.4905 55.6845 33.2918 56.0909 32.0147C56.5602 30.8731 56.9158 28.9173 59.6069 28.0975C60.7565 27.8957 61.2993 28.2659 61.6966 28.4548C62.0905 28.6765 62.3554 28.8932 62.5972 29.1056C63.0713 29.531 63.4246 29.9469 63.756 30.3881C66.9188 35.0158 67.8152 40.0758 67.9089 45.0481C68.0315 50.1265 69.1273 55.5185 69.7907 60.9657C70.1141 63.728 70.4633 66.4723 70.2209 69.5684C69.9817 71.0606 70.0583 73.0376 67.7427 74.7413C65.0705 76.1379 63.1804 74.868 61.812 74.2281C61.523 74.069 61.3394 73.888 61.2076 73.7348C61.1096 73.6194 61.0394 73.515 60.982 73.4197C60.8696 73.2276 60.8334 73.1358 60.7827 73.0119C60.7066 72.8178 60.6623 72.6577 60.6281 72.5237C60.5602 72.2509 60.524 72.0356 60.4903 71.8139C60.4276 71.3865 60.3932 71.0022 60.3655 70.6193C60.3117 69.8489 60.2933 69.116 60.2873 68.3797C60.2773 66.9058 60.3225 65.4623 60.3934 63.9983C60.5369 61.0918 60.7871 58.1525 61.0933 55.191C61.2658 53.5562 61.0277 54.4591 61.0028 54.084C60.9953 53.9821 61.0051 53.7827 61.0446 53.3879C61.3467 50.3366 61.542 47.2415 61.6916 44.1533C61.765 42.6115 61.8254 41.0678 61.8673 39.5258C61.8879 38.758 61.9044 37.989 61.9097 37.2345C61.912 36.8673 61.9123 36.4764 61.9022 36.1573C61.9005 36.0948 61.8949 35.9949 61.8944 35.9962C61.8947 35.9984 61.8956 36.0125 61.9022 36.0567C61.91 36.0978 61.8964 36.0469 61.933 36.211C61.955 36.2922 61.9755 36.3992 62.0849 36.6327C62.2215 36.827 62.3356 37.3987 63.4851 37.8011C64.0527 37.9742 64.7408 37.8439 65.1263 37.6223C65.5267 37.4034 65.7137 37.1775 65.8396 37.02C66.0766 36.6992 66.1118 36.555 66.157 36.4483C66.2337 36.2237 66.2113 36.2704 66.2236 36.2301C66.2347 36.1829 66.2372 36.1659 66.2382 36.1612C66.2379 36.1605 66.2268 36.2409 66.2184 36.3195C66.211 36.3871 66.2024 36.4725 66.1932 36.5738C64.9198 44.3166 63.6775 50.761 63.7556 58.0499C63.6987 67.7473 63.8656 77.4573 64.3533 87.2099C64.4526 89.1018 64.5323 86.3541 64.7075 89.4163C64.7793 90.6153 64.8588 91.8783 64.9526 93.1785C65.001 93.8474 65.0483 94.4645 65.1072 95.1381C65.1361 95.4652 65.1659 95.7841 65.2002 96.1004C65.2143 96.2318 65.2363 96.4191 65.252 96.5311C65.2621 96.6038 65.2701 96.6524 65.273 96.6678C65.2733 96.672 65.2727 96.6558 65.2458 96.5601C65.2435 96.5557 65.223 96.4644 65.1471 96.2882C65.1058 96.1964 65.0522 96.076 64.9229 95.8858C64.7861 95.7023 64.5944 95.4059 64.0296 95.0958C63.7467 94.9476 63.3639 94.8191 62.9105 94.8127C62.439 94.8022 61.9684 94.9492 61.645 95.1371C60.9894 95.5319 60.8135 95.9044 60.685 96.1174C60.4656 96.5535 60.474 96.6762 60.4453 96.7798C60.9491 93.2135 60.6638 88.2576 60.893 84.3039C61.0683 81.0934 61.0506 85.412 61.2488 82.1785C61.3247 81.1273 61.4249 80.0583 61.5701 78.9734C62.1704 73.851 64.7179 69.2902 65.7185 65.0781C66.1267 63.3875 66.4872 61.6799 66.8212 59.9778C67.4201 56.8653 66.2795 61.5165 67.0638 57.4696C67.6557 54.3522 68.2165 51.2101 68.8158 48.0684C70.162 40.8016 71.8734 33.4776 72.7003 26.5106C73.1948 22.6281 73.921 19.2902 74.3894 15.7808C74.6259 14.0505 74.8278 12.3086 74.8598 10.7012C74.878 9.92576 74.8206 9.07368 74.7139 8.7287C74.6963 8.6572 74.6665 8.62716 74.7387 8.74212C74.7911 8.83089 75.0662 9.15999 75.5251 9.28931C75.9794 9.41681 76.2621 9.31162 76.317 9.2939C76.3892 9.26549 76.3381 9.27916 76.2534 9.33792C72.4731 11.9231 68.6143 14.6248 64.6703 17.1651C60.4119 19.92 56.2408 22.8352 52.146 25.9102C51.5779 26.3369 51.0103 26.7615 50.444 27.1857C48.8801 28.361 47.2342 29.0294 44.0408 31.6806C43.876 31.9746 43.9812 32.082 43.9577 32.2746C41.192 34.4911 38.4456 36.7413 35.6933 39.0103C31.8796 42.1795 27.9168 45.0967 24.4179 48.2774C22.2446 50.2297 19.9927 51.7457 17.873 53.3192C16.8242 54.0959 15.7766 54.8875 14.9488 55.6679C14.5475 56.0389 14.1814 56.4877 14.1345 56.6063C14.098 56.6676 14.2481 56.4649 14.1259 56.001C13.9804 55.5442 13.7382 55.4483 13.7997 55.4801C15.5101 56.1788 19.8563 56.5121 23.0764 57.1079C31.1592 58.4498 39.3587 59.4734 47.5352 60.238C56.3883 60.0905 65.8621 62.7896 74.2296 65.9725C80.6074 68.2043 86.576 72.0643 92.3276 73.4108C93.825 73.6613 91.3 73.0689 94.1602 73.4202C94.4756 73.442 94.7899 73.452 95.1066 73.4499C95.2204 73.4517 95.3932 73.4147 95.4697 73.3807C95.5005 73.3731 95.5235 73.3347 95.369 73.4615C95.294 73.5458 95.1291 73.6215 94.9105 74.1633C94.8078 74.4341 94.7299 74.9195 94.8687 75.4003C95.0022 75.8825 95.2829 76.2086 95.4742 76.3757C92.3217 73.5987 89.0068 70.946 85.6764 68.334C79.188 63.2627 73.0612 57.8822 66.8239 52.5487C62.3967 48.7978 58.0212 44.7074 53.9456 40.3502C53.228 39.588 53.1693 39.3483 52.6846 38.6862C52.2466 38.0801 51.4397 37.1253 49.5446 35.0319C48.8018 34.2868 43.0848 27.5146 41.6202 25.7554C41.4164 25.52 42.2623 26.9111 40.4883 24.6788C38.503 22.1747 36.5147 19.5978 34.5276 17.0763C33.5277 15.8119 32.5294 14.5555 31.5021 13.3659C31.0147 12.8038 30.4575 12.189 30.0248 11.8099C29.9332 11.7282 29.8159 11.6418 29.8193 11.6461C29.8273 11.6482 29.8519 11.6757 30.0316 11.7344C30.2385 11.7818 30.7948 11.9785 31.595 11.4518C31.7634 11.3312 31.9012 11.188 32.0012 11.053C32.0853 10.9388 32.1328 10.8529 32.1751 10.7661C32.2562 10.596 32.2853 10.4715 32.301 10.3904C32.323 10.2616 32.3153 10.2467 32.3167 10.2531C32.317 10.2871 32.3255 10.3917 32.354 10.5556C33.2019 14.7166 34.6695 19.4998 34.9152 24.3405C35.2583 29.5642 37.1999 34.8996 39.0967 40.0437C40.0302 42.4979 38.8129 39.9647 39.4855 41.7224C42.25 48.861 45.5859 56.2319 48.8866 63.463C50.8301 67.861 53.2029 71.8943 54.9451 76.419C55.2785 77.317 55.604 78.2056 55.9222 79.0863C58.8174 87.182 57.3443 84.3294 58.5867 88.7308C58.7569 89.356 60.6044 94.3241 60.5143 94.6547C60.2718 95.5041 58.8152 93.2992 58.664 94.4883C58.6156 94.7427 61.3336 101.352 59.5225 97.5172C59.3897 97.2529 57.4576 92.4471 56.9303 91.2863C56.558 90.4792 56.9119 92.0513 56.202 90.3857C55.4927 88.7206 54.9814 86.7962 53.8469 84.0358C52.7671 81.4291 52.9277 82.4599 51.1295 77.8835C51.0326 77.6387 50.9273 77.3794 50.8104 77.1006ZM88.5135 66.9754C88.7971 67.1167 89.0934 67.2567 89.3169 67.3467C89.3443 67.3575 89.3578 67.363 89.3798 67.3709C89.3887 67.3741 89.3914 67.3748 89.3811 67.3724C89.3758 67.3712 89.3672 67.3692 89.3525 67.3665C89.3038 67.3721 89.4449 67.3341 89.0486 67.3702C88.9472 67.3933 88.7597 67.4363 88.5668 67.6514C88.3668 67.8664 88.328 68.2205 88.3737 68.3887C88.4133 68.57 88.4764 68.6497 88.477 68.6554C88.4911 68.679 88.5041 68.6981 88.5158 68.7144C88.5628 68.7783 88.5906 68.8035 88.6097 68.8222C88.6469 68.8566 88.6521 68.8577 88.648 68.855C88.6438 68.8515 88.6296 68.8412 88.6091 68.8275C88.5002 68.7563 88.4323 68.7167 88.3023 68.6417C85.9502 67.151 85.4587 67.3085 88.0873 69.0111C88.1881 69.0698 88.2623 69.1134 88.3324 69.156C88.3756 69.1824 88.4039 69.2012 88.3993 69.197C88.396 69.1942 88.3832 69.1857 88.3444 69.1511C88.3001 69.0983 88.2542 69.1115 88.0724 68.7922C88.0165 68.6753 87.9324 68.4937 87.9363 68.1837C87.9306 67.8787 88.1195 67.4577 88.3691 67.2549C88.8869 66.8565 89.1209 66.9542 89.2426 66.9344C89.3049 66.9361 89.3497 66.9417 89.3773 66.9455C89.3854 66.9467 89.3927 66.9478 89.3996 66.9489C89.4133 66.9512 89.4249 66.9534 89.435 66.9554C89.4749 66.9636 89.4924 66.9691 89.5017 66.972C89.4771 66.9712 89.1457 66.8448 88.9374 66.7633C88.7048 66.6728 88.303 66.8705 88.5135 66.9754ZM60.0459 90.1345C59.9539 89.614 59.8563 89.1099 59.7541 88.6256C58.4955 83.6072 56.7777 80.7857 57.9641 84.5734C58.4405 86.2066 58.9585 87.7012 59.2926 88.7397C59.8333 90.4622 60.2396 91.2551 60.0459 90.1345ZM69.3957 47.6437C69.35 47.4305 69.2435 47.2329 69.2176 47.2172C69.2152 47.2177 69.2664 47.1789 69.0966 47.2566C68.9979 47.3013 68.781 47.4861 68.684 47.5904C68.5605 47.7166 68.4293 47.8711 68.2959 48.0457C67.9416 48.6385 67.8078 49.5196 67.7379 49.9917C67.6717 50.4991 67.6843 50.7875 67.7523 50.8272C67.8212 50.8674 67.9455 50.6591 68.1219 50.1955C68.2104 49.9654 68.3122 49.6686 68.433 49.3292C68.4938 49.159 68.5595 48.9784 68.6319 48.8029C68.6962 48.6382 68.8088 48.4316 68.8067 48.4476C69.0153 48.1891 69.1581 48.0262 69.3405 47.8719C69.4022 47.8123 69.4802 47.8027 69.325 47.8362C69.2572 47.8479 69.1012 47.845 68.9682 47.7816C68.8326 47.718 68.7805 47.6456 68.7677 47.6258C68.754 47.5043 69.4907 48.0438 69.3957 47.6437ZM50.4388 69.1746C50.4547 69.2362 52.1594 72.6516 52.2048 72.7371C53.3268 74.4544 49.9308 67.6043 50.4388 69.1746ZM60.1469 92.9671C60.507 95.2081 62.1625 101.459 61.6833 98.7012C61.3041 96.4906 59.6873 90.1914 60.1469 92.9671ZM60.9055 23.0474C60.9392 22.9734 62.6304 20.817 62.559 20.8289C62.2551 20.817 60.0104 23.9506 60.9055 23.0474ZM66.5442 93.7163C66.6181 93.8661 66.6989 94.0284 66.77 94.137L66.2913 94.3625C64.891 89.3976 61.9647 85.8036 59.7565 83.7275C59.1315 83.1502 58.5494 82.6421 57.8753 82.5333C57.5278 82.4723 57.1849 82.7207 57.0674 82.9659C56.9323 83.2124 56.8873 83.4317 56.8486 83.6131C56.6982 84.3346 56.6141 84.3854 56.6262 83.5922C56.6348 83.405 56.6443 83.1805 56.7624 82.8737C56.8232 82.7248 56.9191 82.5444 57.1061 82.3856C57.2901 82.2251 57.566 82.1317 57.8052 82.1287C58.756 82.1698 59.3776 82.7054 60.1224 83.3084C61.1464 84.1891 62.366 85.3874 63.5866 87.0635C64.5012 88.3896 63.4957 86.9659 62.3776 85.7952C61.2592 84.6242 60.106 83.6741 61.5047 85.1291C64.169 88.0918 65.8205 90.9948 66.857 94.1996L66.2841 94.4694C65.5513 93.2061 65.0563 91.9907 64.4455 90.6847C63.8539 89.2332 62.9635 88.0162 61.3881 87.1752C60.5904 86.8111 63.8561 87.7083 64.8869 90.4843C65.6842 92.0173 66.394 93.4288 66.5578 93.741C66.5533 93.7329 66.5485 93.724 66.5442 93.7163ZM87.9182 67.3843C87.81 67.3694 84.8123 65.0503 84.7581 64.9752C82.9717 63.9001 89.0451 68.5948 87.9182 67.3843ZM59.0235 27.1435C59.0185 27.1216 59.0066 27.0394 58.9393 26.9175C58.8744 26.7941 58.7197 26.6408 58.5336 26.5656C58.1594 26.4134 57.7473 26.4429 57.2759 26.5184C55.856 26.8201 54.162 27.8467 52.9918 29.0672C51.9076 30.1941 51.0086 31.1496 50.9495 31.2249C49.7266 32.788 51.263 31.26 53.2141 29.2794C54.357 28.1143 55.9558 27.126 57.3227 26.7872C57.7775 26.7057 58.194 26.6408 58.5555 26.8314C58.9474 27.0727 58.8555 27.5074 58.8503 27.644C58.8253 27.8315 58.8226 27.8884 58.8685 27.8436C58.897 27.7861 59.0627 27.6515 59.0235 27.1435ZM75.5387 62.6829C71.7111 61.0196 67.4074 58.4926 64.7817 56.4483C68.259 58.6841 71.8363 60.7829 75.5387 62.6829Z" fill="#312FC3"/>
</svg>
