<svg width="100" height="102" viewBox="0 0 100 102" fill="none" xmlns="http://www.w3.org/2000/svg">
<rect x="1.16488" y="16.2799" width="83.2839" height="85.132" rx="38" transform="rotate(-10.4565 1.16488 16.2799)" fill="#FAEBC4" stroke="#34260E" stroke-width="2"/>
<g clip-path="url(#clip0_6001_2)">
<path d="M41.6707 43.7978C41.5742 43.9062 41.4799 44.0169 41.388 44.1299C41.1719 44.3351 40.9605 44.545 40.7536 44.7617C40.3054 45.2299 39.8939 45.7303 39.5032 46.2468C38.7423 47.2476 38.1217 48.3521 37.6758 49.5282C37.4574 50.1024 37.3034 50.7019 37.1954 51.3061C37.0804 51.961 37.0207 52.6251 37.0368 53.2916C37.046 53.6398 37.0827 53.9857 37.131 54.3316C37.1724 54.6475 37.2344 54.9588 37.3195 55.2678C37.4091 55.5906 37.5333 55.9019 37.6643 56.2086C37.7861 56.4969 37.924 56.7759 38.078 57.048C38.3906 57.5991 38.7837 58.1111 39.2135 58.5746C39.6457 59.0404 40.1353 59.4439 40.6387 59.8267C40.772 59.9282 40.9076 60.0273 41.0455 60.1219C41.234 60.3225 41.4294 60.5185 41.6317 60.7076C42.0868 61.1319 42.5787 61.5193 43.0775 61.8906C43.5717 62.2572 44.0866 62.5985 44.6175 62.9052C45.1715 63.2257 45.7507 63.4909 46.3415 63.7353C46.9115 63.9729 47.5 64.1689 48.1045 64.298C48.7412 64.4364 49.3963 64.5078 50.0491 64.5355C50.6789 64.5632 51.3087 64.5332 51.9317 64.4525C53.2051 64.2865 54.4555 63.9429 55.66 63.5001C56.2599 63.2788 56.8507 63.0228 57.423 62.7345C57.9655 62.4601 58.4895 62.1442 58.9975 61.8098C59.5308 61.457 60.0411 61.0742 60.5422 60.6776C61.018 60.2994 61.4777 59.8959 61.9191 59.4762C62.827 58.6115 63.6499 57.6568 64.3785 56.6352C65.1141 55.6045 65.714 54.4653 66.1209 53.2662C66.3324 52.639 66.4542 51.991 66.5346 51.3384C66.6128 50.7204 66.6128 50.1001 66.5346 49.4821C66.4542 48.8226 66.314 48.1769 66.114 47.5451C65.9209 46.9317 65.6727 46.3344 65.3876 45.7579C65.1233 45.2206 64.8107 44.7064 64.4636 44.2175C64.0935 43.6964 63.689 43.196 63.2476 42.7348C62.8063 42.2736 62.3167 41.87 61.8064 41.4896C61.3283 41.1344 60.8157 40.8208 60.2779 40.5649C59.694 40.2881 59.0826 40.0783 58.4574 39.9215C57.8184 39.7601 57.1656 39.6632 56.5128 39.5779C55.8117 39.4857 55.1083 39.4326 54.4026 39.4188C54.3889 39.3911 54.3705 39.3634 54.3475 39.3427C54.1659 39.172 53.9797 38.9991 53.7797 38.8515C53.5476 38.6809 53.2763 38.6071 52.9936 38.554C52.7224 38.5033 52.4465 38.4849 52.1707 38.4849C51.8627 38.4849 51.5524 38.5102 51.2467 38.5402C50.6215 38.6071 50.0123 38.7477 49.4101 38.9345C48.8079 39.1213 48.2125 39.3427 47.631 39.5848C46.4886 40.0598 45.3991 40.6732 44.3877 41.3858C43.397 42.0822 42.4752 42.8939 41.673 43.8001L41.6707 43.7978ZM64.4268 51.9011C64.3234 52.5952 64.1372 53.2685 63.8729 53.9211C63.7947 54.101 63.712 54.2785 63.6223 54.4515C63.6752 54.1125 63.712 53.7712 63.728 53.4299C63.7372 53.2524 63.7372 53.0771 63.7326 52.8995C63.7579 52.7865 63.7809 52.6736 63.8016 52.5583C63.9119 51.9795 63.9832 51.3937 64.0269 50.8057C64.043 50.7319 64.0567 50.6581 64.0705 50.5843C64.1556 50.1254 64.1993 49.6596 64.1832 49.1938C64.3027 49.5259 64.39 49.8649 64.4452 50.2154C64.5073 50.7757 64.4935 51.3384 64.4245 51.8987L64.4268 51.9011ZM63.0362 44.8332C63.5993 45.5804 64.0728 46.3852 64.4452 47.2453C64.4475 47.2522 64.4498 47.2568 64.4521 47.2637C64.2153 46.9386 63.9464 46.6365 63.6453 46.369C63.512 45.9447 63.3419 45.5319 63.1534 45.1307C63.0867 44.9877 63.0132 44.8471 62.9373 44.711C62.9695 44.7525 63.0017 44.7917 63.0339 44.8332H63.0362ZM45.1393 55.39C45.0979 55.3347 45.0566 55.277 45.0175 55.2194C45.1186 54.7489 45.2588 54.29 45.4404 53.8427C45.468 53.7804 45.4956 53.7205 45.5232 53.6582C45.5278 53.6859 45.5301 53.7136 45.5347 53.7412C45.5737 54.0156 45.6312 54.2877 45.7071 54.5552C45.7967 54.8781 45.9231 55.1871 46.0542 55.4961C46.2587 55.9734 46.5323 56.4116 46.8518 56.8174C46.569 56.6606 46.2955 56.4853 46.0358 56.2916C45.7048 56.0241 45.4082 55.7244 45.1416 55.3923L45.1393 55.39ZM46.792 51.8365C46.792 51.8226 46.7943 51.8065 46.7966 51.7927C46.815 51.6658 46.8357 51.5413 46.861 51.4168C46.9069 51.3545 46.9529 51.2923 46.9989 51.2323C47.0058 51.2231 47.0127 51.2139 47.0196 51.207C46.9345 51.4145 46.8587 51.6266 46.792 51.8388V51.8365ZM50.1801 59.354C49.5181 59.4324 48.8492 59.4324 48.1872 59.354C48.1229 59.3448 48.0562 59.3332 47.9919 59.3194C47.9229 59.2848 47.8562 59.2502 47.7896 59.2156C47.4149 59.0219 47.054 58.8075 46.7161 58.5561C46.4357 58.3278 46.1875 58.0719 45.9622 57.7882C45.9185 57.7283 45.8749 57.6706 45.8335 57.6084C46.3024 57.9104 46.8104 58.1526 47.3299 58.3555C47.8976 58.5792 48.4976 58.7175 49.0975 58.8213C49.1848 58.8374 49.2722 58.8513 49.3595 58.8651C49.5273 58.9527 49.6997 59.0334 49.8721 59.1095C50.0422 59.1833 50.2146 59.2548 50.387 59.3194C50.318 59.3309 50.2514 59.3424 50.1824 59.3517L50.1801 59.354ZM48.4953 56.061C48.4999 56.0956 48.5045 56.1279 48.5091 56.1625C48.355 55.925 48.2194 55.6782 48.1045 55.42C47.9735 55.0902 47.8838 54.7489 47.8287 54.3984C47.7804 53.9557 47.7804 53.5106 47.831 53.0679C47.9068 52.5836 48.0401 52.1109 48.2217 51.6566C48.3367 51.396 48.4677 51.1424 48.6148 50.898C48.5297 51.1585 48.4562 51.4237 48.3941 51.6889C48.3114 52.0417 48.2562 52.3968 48.2102 52.7566C48.0654 53.8588 48.1459 55.0072 48.4953 56.0633V56.061ZM51.311 57.8528C51.0467 57.6268 50.803 57.3754 50.5824 57.1033C50.341 56.7759 50.1411 56.4231 49.9756 56.0495C49.8859 55.8258 49.8101 55.5998 49.7457 55.3692C49.7388 55.0257 49.7572 54.6821 49.7986 54.3408C49.9204 53.5383 50.1571 52.7543 50.4629 52.0048C50.8513 51.1032 51.3524 50.2592 51.9432 49.4752C52.1845 49.1685 52.4396 48.8756 52.7132 48.5989C52.7454 48.5666 52.7798 48.532 52.812 48.4997C52.858 48.4997 52.9063 48.4997 52.9522 48.502C53.0511 48.5989 53.1476 48.7004 53.2396 48.8064C52.9407 48.9886 52.6626 49.2054 52.4029 49.436C52.196 49.6204 52.0144 49.828 51.8466 50.047C51.642 50.3122 51.4558 50.5866 51.2881 50.8749C50.9685 51.4306 50.7364 52.0394 50.5847 52.662C50.5088 52.9756 50.4629 53.2985 50.4307 53.6213C50.3985 53.9326 50.3985 54.2462 50.4307 54.5575C50.4629 54.8688 50.5157 55.1778 50.6054 55.4776C50.6973 55.7889 50.8375 56.091 51.0099 56.3677C51.3432 56.9004 51.8167 57.3339 52.3868 57.5991C52.5362 57.6683 52.6925 57.7306 52.8511 57.779C52.3385 57.839 51.8236 57.862 51.3087 57.8528H51.311ZM50.2192 41.3881C50.564 41.3212 50.9134 41.2636 51.2605 41.2151C51.5271 41.1806 51.796 41.1506 52.065 41.1252C52.0121 41.1437 51.9592 41.1621 51.9087 41.1829C51.7868 41.229 51.665 41.2751 51.5432 41.3235C51.4581 41.3235 51.3731 41.3235 51.2903 41.3258C50.9318 41.3327 50.5755 41.3558 50.2192 41.3881ZM54.5153 53.2731C54.4693 53.5637 54.4003 53.8519 54.3015 54.1286C54.2808 54.0433 54.2647 53.958 54.2486 53.8727C54.2417 53.8058 54.2348 53.7366 54.2326 53.6697C54.3199 53.4853 54.4187 53.31 54.5291 53.1394C54.5245 53.1832 54.5199 53.227 54.5153 53.2731ZM57.3471 51.8941C57.2897 52.1478 57.2253 52.3991 57.1541 52.6482C57.0253 53.0979 56.8667 53.5452 56.6897 53.9787C56.4645 54.4976 56.1749 54.9888 55.8416 55.443C55.7565 55.5491 55.6692 55.6483 55.5772 55.7451C55.5634 55.7405 55.5519 55.7359 55.5382 55.7313C55.3887 55.6598 55.2462 55.5768 55.1106 55.4799C55.0945 55.4661 55.0784 55.4523 55.0623 55.4384C55.1612 55.3231 55.2485 55.1963 55.3244 55.0649C55.4094 54.9219 55.4692 54.7605 55.5313 54.6083C55.6416 54.3362 55.7105 54.0433 55.7634 53.7551C55.8715 53.1647 55.8852 52.5652 55.8301 51.9679C55.899 51.931 55.968 51.8987 56.0392 51.8665C56.2323 51.7927 56.4277 51.7419 56.63 51.7074C56.8231 51.6889 57.0139 51.6843 57.2046 51.7027C57.2621 51.7143 57.3219 51.7281 57.377 51.7419C57.377 51.7466 57.377 51.7512 57.377 51.7558C57.3655 51.8019 57.3563 51.848 57.3449 51.8941H57.3471ZM55.4991 50.2984C55.5221 50.2776 55.545 50.2592 55.568 50.2407C55.6853 50.1554 55.8094 50.0793 55.9381 50.0148C56.0507 49.9733 56.1634 49.9433 56.2806 49.9225C56.322 49.9179 56.3633 49.9156 56.4047 49.9156C56.5518 50.0609 56.6897 50.2131 56.8208 50.3745C56.8369 50.3952 56.8507 50.416 56.8667 50.4368C56.6139 50.4368 56.3588 50.4737 56.1105 50.5175C55.9381 50.5474 55.7703 50.6005 55.6048 50.665C55.5726 50.5428 55.5382 50.4206 55.4991 50.3007V50.2984ZM60.4962 47.2499C60.4571 47.1945 60.4158 47.1415 60.3767 47.0885C60.3376 47.0055 60.2985 46.9201 60.2549 46.8394C60.2779 46.8487 60.3008 46.8556 60.3238 46.8648C60.3997 46.9985 60.4709 47.1369 60.5376 47.2753C60.5238 47.266 60.5123 47.2591 60.4985 47.2499H60.4962ZM56.4024 42.0614C57.1334 42.1698 57.8459 42.3635 58.5286 42.6425C59.1079 42.8985 59.6503 43.2213 60.156 43.6018C60.5307 43.9016 60.8801 44.2314 61.1927 44.5957C61.1904 44.5957 61.1881 44.5934 61.1835 44.5911C60.9743 44.4781 60.756 44.3766 60.5353 44.2867C60.31 44.1253 60.0802 43.9731 59.8434 43.8324C59.4665 43.5373 59.0688 43.2652 58.6527 43.0276C58.0965 42.7071 57.4966 42.4558 56.8943 42.2344C56.7311 42.1744 56.5656 42.1168 56.4001 42.0614H56.4024ZM54.6739 47.13C55.129 47.13 55.5841 47.1623 56.0392 47.2176C56.8874 47.3421 57.7195 47.5497 58.5125 47.8725C58.6803 47.9463 58.8458 48.0224 59.009 48.1031C59.1286 48.4352 59.2067 48.7788 59.2619 49.127C59.2964 49.4267 59.317 49.7265 59.3193 50.0286C59.3216 50.3514 59.2964 50.672 59.2573 50.9925C59.2527 51.0271 59.2458 51.064 59.2412 51.0986C59.1561 50.8426 59.0412 50.5959 58.9125 50.363C58.7677 50.1001 58.5838 49.858 58.3838 49.6366C58.1677 49.3945 57.9034 49.1938 57.6391 49.0094C57.4138 48.8525 57.1725 48.7234 56.9219 48.615C56.8897 48.6012 56.8598 48.5874 56.8277 48.5758C56.5082 48.3337 56.1634 48.1285 55.8002 47.9532C55.2945 47.7111 54.7658 47.5197 54.2234 47.3929C54.3705 47.3006 54.5222 47.213 54.6762 47.1323L54.6739 47.13ZM53.9406 49.8741C53.9659 49.9225 53.9889 49.9733 54.0119 50.0217C53.982 50.0632 53.9498 50.1024 53.9199 50.1439C53.7544 50.3699 53.6234 50.6189 53.5039 50.8726C53.3591 51.1793 53.235 51.4975 53.1407 51.8226C53.0488 52.1363 53.0005 52.4545 52.9568 52.7773C52.9338 52.9434 52.9224 53.1094 52.9201 53.2754C52.8672 53.4069 52.8189 53.5383 52.7821 53.672C52.681 54.0272 52.6879 54.3961 52.7385 54.7559C52.7592 54.9034 52.7959 55.0464 52.8465 55.1871C52.9155 55.3785 52.9798 55.5906 53.1338 55.7359C53.2717 55.8696 53.4165 55.9457 53.6004 56.0011C53.674 56.0241 53.7498 56.0357 53.8257 56.0403C53.8924 56.1187 53.9659 56.1948 54.0395 56.2663C54.1452 56.3677 54.2578 56.4646 54.3774 56.5522C54.2624 56.5891 54.1452 56.6168 54.0257 56.6375C53.8395 56.656 53.6556 56.656 53.4717 56.6398C53.3177 56.6122 53.1683 56.5707 53.0212 56.5153C52.8603 56.4392 52.7086 56.3516 52.5661 56.2478C52.4396 56.1418 52.327 56.0241 52.2213 55.8973C52.1041 55.7336 52.0029 55.5606 51.9179 55.3785C51.8236 55.1271 51.7593 54.8688 51.7179 54.6037C51.6788 54.2393 51.6857 53.875 51.7271 53.5106C51.8029 53.0218 51.9317 52.5444 52.1155 52.0855C52.3086 51.6497 52.55 51.2369 52.8327 50.8541C53.0488 50.5866 53.2901 50.3468 53.5568 50.1301C53.6809 50.0378 53.8096 49.9525 53.9429 49.8718L53.9406 49.8741ZM47.9551 40.0714C48.4585 39.8615 48.9688 39.6701 49.486 39.4995C50.0238 39.3219 50.5755 39.1813 51.1363 39.1006C51.6742 39.036 52.2167 38.9991 52.7569 39.0614C52.9453 39.089 53.1338 39.1282 53.3131 39.1951C53.3775 39.2274 53.4349 39.2643 53.4924 39.3058C53.5361 39.3404 53.5775 39.375 53.6211 39.4119C53.32 39.4165 53.0189 39.428 52.7178 39.4465C52.0374 39.488 51.3593 39.5664 50.6858 39.6632C50.056 39.7532 49.4331 39.8777 48.8171 40.0322C47.9758 40.242 47.1529 40.5257 46.3553 40.8669C46.8748 40.5718 47.4103 40.3066 47.9574 40.0714H47.9551ZM46.4219 44.7341C46.3277 44.7894 46.2357 44.8471 46.1438 44.907C45.6243 45.2414 45.137 45.6334 44.6796 46.0508C43.7785 46.8717 43.0154 47.8518 42.4178 48.9148C42.1052 49.4706 41.8431 50.0563 41.6202 50.6535C41.4041 51.2277 41.2386 51.8226 41.1237 52.4268C40.8869 53.6813 40.857 55.0003 41.1398 56.2501C40.8363 55.8281 40.5812 55.3762 40.3697 54.9011C40.1606 54.38 40.0043 53.8404 39.9169 53.2846C39.8571 52.7404 39.8732 52.1962 39.9353 51.652C40.0456 50.9141 40.2387 50.1923 40.5191 49.4982C40.7651 48.9356 41.057 48.3937 41.3949 47.884C41.8155 47.3906 42.2776 46.9363 42.7856 46.535C43.5165 45.9839 44.3233 45.5412 45.1623 45.1768C45.5737 45.0062 45.9944 44.8586 46.4219 44.7341Z" fill="#FFD34E"/>
<path d="M53.0515 34.9314C53.2399 34.9314 53.4261 34.8553 53.5594 34.7216C53.702 34.5786 53.7548 34.408 53.7686 34.2119C53.8606 32.9944 53.941 31.7745 54.0192 30.5547C54.0697 29.7706 54.1019 28.9843 54.141 28.2003C54.1548 27.9212 54.1709 27.6445 54.1847 27.3655C54.1893 27.2779 54.1916 27.1902 54.1962 27.1026C54.2008 26.9735 54.2145 26.842 54.2054 26.7129C54.1893 26.5054 54.1341 26.3278 53.9847 26.1779C53.8445 26.0373 53.6491 25.9565 53.4514 25.9565C53.0377 25.9565 52.6975 26.3001 52.6952 26.7152C52.6768 27.1856 52.6722 27.6584 52.6584 28.1288C52.6469 28.5369 52.6308 28.9451 52.617 29.3533C52.6032 29.743 52.594 30.1327 52.5711 30.5224C52.5366 31.0827 52.5044 31.6454 52.4699 32.2057C52.4285 32.8768 52.3826 33.5455 52.3343 34.2143C52.3205 34.3987 52.4193 34.597 52.5435 34.7239C52.6768 34.8576 52.8607 34.9337 53.0515 34.9337V34.9314Z" fill="#FFD34E"/>
<path d="M63.3928 37.9941C63.7882 38.227 64.3099 38.0863 64.5421 37.692C64.9122 37.0624 65.2776 36.4283 65.6569 35.8034C65.9764 35.2753 66.2936 34.7495 66.6131 34.2215C66.774 33.954 66.9303 33.6819 67.1004 33.4213C67.4061 32.9486 67.7119 32.4782 68.0176 32.0054C68.1509 31.7979 68.2888 31.5927 68.4244 31.3874C68.4704 31.3183 68.5164 31.2491 68.56 31.1822C68.6405 31.1153 68.7095 31.0369 68.7646 30.9447C68.9301 30.7095 69.0887 30.4673 69.2381 30.2229C69.5369 29.734 69.2496 29.0838 68.714 28.9316C68.6313 28.9085 68.5462 28.897 68.4589 28.897C68.2796 28.897 68.098 28.9477 67.9532 29.0561C67.8521 29.1322 67.7877 29.1714 67.7165 29.2613C67.6452 29.3536 67.5831 29.4273 67.528 29.5242C67.4567 29.6487 67.4038 29.7802 67.328 29.9001C67.1763 30.1376 67.0246 30.3751 66.8729 30.6126C66.6637 30.9401 66.4568 31.2675 66.2477 31.5973C66.0224 31.9524 65.7879 32.3052 65.5696 32.6672C65.3236 33.0777 65.0777 33.4859 64.834 33.8963C64.2456 34.8764 63.664 35.8587 63.0871 36.8457C62.8549 37.2423 62.9951 37.7681 63.3882 37.9987L63.3928 37.9941Z" fill="#FFD34E"/>
<path d="M70.9072 44.1897C71.5577 43.9844 72.2105 43.7792 72.8633 43.5855C73.4471 43.4125 74.0333 43.2396 74.6171 43.0666C74.9182 42.9767 75.2194 42.9006 75.5251 42.8268C75.8285 42.753 76.1342 42.6792 76.4376 42.6031C76.5686 42.5709 76.6973 42.5363 76.8284 42.5086C77.3318 42.4094 77.8352 42.308 78.3431 42.2227C78.7914 42.1466 79.2396 42.0705 79.6901 41.9967C79.7338 41.9967 79.7798 41.9967 79.8257 41.9967C80.159 42.0151 80.4693 41.7499 80.5567 41.4386C80.6647 41.0466 80.428 40.6062 80.028 40.5047C79.9269 40.4793 79.8096 40.4517 79.7085 40.4517C79.7085 40.4517 79.7039 40.4517 79.7016 40.4517C79.6304 40.4517 79.5591 40.4563 79.4878 40.4632C79.3867 40.4724 79.2856 40.4909 79.1844 40.507C79.0833 40.5231 78.9822 40.537 78.881 40.5577C78.681 40.5969 78.4811 40.6361 78.2811 40.68C77.8145 40.7768 77.3479 40.8783 76.8835 40.982C76.4882 41.0697 76.0951 41.1688 75.7021 41.2703C75.3136 41.3694 74.9159 41.4571 74.5321 41.5724C73.939 41.7499 73.3437 41.9298 72.7507 42.1097C72.0059 42.3333 71.2658 42.5662 70.5256 42.8015C70.344 42.8591 70.1923 42.9675 70.0958 43.1335C69.9992 43.2995 69.9717 43.5025 70.0245 43.6893C70.1257 44.0582 70.5348 44.3119 70.9095 44.1943L70.9072 44.1897Z" fill="#FFD34E"/>
<path d="M80.0598 50.9234C79.8598 50.8612 79.6415 50.8289 79.4346 50.8058C79.1542 50.7735 78.8691 50.7574 78.5864 50.7505C78.3887 50.7459 78.1911 50.7436 77.9911 50.7389C77.6187 50.732 77.244 50.7274 76.8717 50.7159C75.6419 50.6744 74.4122 50.6306 73.1824 50.5798C73.1709 50.5798 73.1594 50.5798 73.1479 50.5798C72.6491 50.5798 72.24 51.0387 72.24 51.5253C72.24 51.7743 72.3411 52.0165 72.5158 52.194C72.6974 52.3762 72.9296 52.4592 73.1824 52.4707C74.3915 52.5238 75.5982 52.5676 76.8073 52.6091C77.1498 52.6206 77.4923 52.6229 77.8348 52.6275C78.4876 52.6368 79.145 52.616 79.7955 52.6829C79.8368 52.6921 79.8805 52.7013 79.9219 52.7129C80.2897 52.8143 80.6896 52.6506 80.8827 52.3208C80.9976 52.1248 81.0298 51.8827 80.9678 51.6636C80.9057 51.44 80.7655 51.2809 80.577 51.154C80.4207 51.0479 80.2391 50.9834 80.0598 50.928V50.9234Z" fill="#FFD34E"/>
<path d="M68.8384 59.2891C68.5695 59.3629 68.335 59.545 68.1948 59.7849C68.05 60.0339 68.0086 60.3383 68.0868 60.6173C68.158 60.8756 68.3396 61.1385 68.5833 61.263C69.7992 61.8948 71.0152 62.5267 72.2311 63.1562C72.923 63.5136 73.6126 63.8757 74.3114 64.2169C74.84 64.4729 75.3687 64.7496 75.9204 64.9502C76.0997 64.9987 76.2789 64.9987 76.4559 64.9502C76.7088 64.8811 76.9272 64.7104 77.0582 64.4844C77.3386 64.0048 77.1662 63.3822 76.695 63.0985C76.2858 62.8518 75.8606 62.635 75.44 62.4091C75.0354 62.1923 74.6286 61.9825 74.224 61.768C73.4011 61.3345 72.5736 60.9079 71.7484 60.4766C71.0542 60.1146 70.3601 59.7549 69.6659 59.3951C69.4889 59.3029 69.3027 59.2476 69.1096 59.2476C69.02 59.2476 68.928 59.2591 68.8338 59.2845L68.8384 59.2891Z" fill="#FFD34E"/>
<path d="M64.195 71.6265C64.418 71.9885 64.6432 72.3482 64.8708 72.708C65.0501 72.9916 65.234 73.2729 65.4178 73.552C65.5029 73.6788 65.5879 73.8056 65.6776 73.9324C65.8178 74.1354 65.9649 74.3429 66.1327 74.5228C66.4154 74.8295 66.9119 74.8756 67.2636 74.6704C67.6958 74.4167 67.8658 73.8241 67.5992 73.3882C67.351 72.9824 67.1188 72.565 66.8798 72.1545C66.6775 71.804 66.4729 71.4558 66.2683 71.1076C65.8293 70.3674 65.3926 69.6295 64.9696 68.88C64.4869 68.0222 64.0088 67.1621 63.5376 66.2973C63.3583 65.9676 63.002 65.7877 62.6434 65.7877C62.4642 65.7877 62.2849 65.8315 62.1263 65.9261C61.8964 66.0621 61.724 66.2858 61.6527 66.5441C61.5769 66.8185 61.6229 67.0952 61.7562 67.342C62.3446 68.4258 62.9515 69.498 63.556 70.5726C63.7583 70.9301 63.9835 71.276 64.1973 71.6265H64.195Z" fill="#FFD34E"/>
<path d="M55.9037 76.4988C55.7818 75.7955 55.6715 75.0898 55.5612 74.3842C55.5106 73.8492 55.46 73.3142 55.4072 72.7816C55.3773 72.4726 55.3474 72.1659 55.3198 71.8569C55.2761 71.3888 55.2601 70.9206 55.2325 70.4502C55.2187 70.2242 55.152 70.0213 54.9888 69.8576C54.8325 69.7008 54.6187 69.6108 54.3981 69.6108C54.1774 69.6108 53.9636 69.7008 53.8073 69.8576C53.6579 70.0075 53.5499 70.2358 53.5637 70.4502C53.589 70.893 53.6005 71.338 53.6418 71.7785C53.6602 71.9883 53.6809 72.2005 53.6993 72.4103C53.7545 73.0075 53.8096 73.6071 53.8648 74.2044C53.8993 74.5918 53.9613 74.9745 54.0211 75.3573C54.0901 75.8001 54.1498 76.2428 54.228 76.6833C54.3038 77.1168 54.3774 77.5526 54.4624 77.9862C54.5567 78.4612 54.6394 78.9454 54.7934 79.4066C54.8624 79.6096 54.975 79.7802 55.1635 79.8909C55.3497 80.0016 55.5773 80.0293 55.7841 79.9716C55.9864 79.9163 56.1611 79.7802 56.2668 79.6003C56.3795 79.4066 56.3956 79.1922 56.3473 78.9777C56.2576 78.5765 56.1933 78.1683 56.1243 77.7648C56.0508 77.3428 55.9772 76.9231 55.9037 76.5011V76.4988Z" fill="#FFD34E"/>
<path d="M42.0361 77.2554C42.0936 76.9971 42.1579 76.7458 42.2292 76.4921C42.2751 76.3215 42.3234 76.1485 42.3694 75.9779C42.4315 75.7496 42.5073 75.5236 42.5786 75.2953C42.8038 74.5828 43.0682 73.8841 43.3532 73.1946C43.5026 72.8441 43.6727 72.5005 43.8934 72.1915C44.0175 72.0439 44.1577 71.9101 44.3071 71.7879C44.3462 71.7603 44.3853 71.7326 44.4243 71.7049C44.4726 71.6703 44.5324 71.6519 44.5852 71.6265C44.7117 71.5712 44.8082 71.4167 44.8427 71.2921C44.8818 71.1469 44.8611 70.9901 44.7852 70.8586C44.7117 70.7341 44.5898 70.6395 44.4519 70.6003C44.4014 70.5934 44.3531 70.5865 44.3025 70.5796C44.2014 70.5796 44.1071 70.605 44.0198 70.6557C43.9186 70.6995 43.8336 70.7502 43.744 70.8148C43.629 70.8978 43.5164 70.9877 43.4084 71.08C43.1946 71.2622 43.0199 71.4835 42.859 71.7141C42.5579 72.1477 42.3625 72.6481 42.1648 73.1346C41.974 73.6073 41.7787 74.0755 41.6109 74.5574C41.4821 74.9241 41.358 75.293 41.2408 75.6643C41.119 76.0471 40.9925 76.4299 40.8868 76.8173C40.8362 77.004 40.7811 77.1885 40.7397 77.3776C40.7144 77.4883 40.6891 77.5967 40.6638 77.7074C40.634 77.8388 40.6179 77.9749 40.6018 78.1086C40.5857 78.2447 40.5765 78.3738 40.5857 78.5099C40.5995 78.6874 40.6477 78.8419 40.7765 78.9734C40.8983 79.0956 41.0661 79.1648 41.2385 79.1648C41.4109 79.1648 41.5764 79.0956 41.6982 78.9734C41.7787 78.8926 41.8361 78.7958 41.866 78.6851C41.8936 78.579 41.8959 78.473 41.8729 78.3646C41.866 78.247 41.8752 78.1294 41.889 78.0095C41.9327 77.7581 41.9786 77.5068 42.0338 77.2577L42.0361 77.2554Z" fill="#FFD34E"/>
<path d="M29.59 72.0718C29.682 72.1248 29.7831 72.1525 29.8911 72.1525C29.9992 72.1525 30.098 72.1248 30.1923 72.0718C30.5554 71.9058 30.8359 71.5991 31.1209 71.3246C31.2795 71.1724 31.4358 71.0203 31.5921 70.8681C31.9047 70.5637 32.2242 70.2662 32.5414 69.9641C32.8816 69.6413 33.231 69.33 33.5758 69.0117C33.8516 68.7581 34.1297 68.509 34.4079 68.2577C34.6653 68.0248 34.9251 67.7919 35.1825 67.5613C35.6077 67.1785 36.033 66.7957 36.4812 66.4429C36.564 66.3806 36.6444 66.3161 36.7226 66.2469C36.7478 66.2238 36.7731 66.2008 36.8007 66.1777C36.8076 66.1846 36.8122 66.1915 36.8191 66.1985C36.8697 66.2492 36.9363 66.2769 37.0053 66.2769C37.0697 66.2769 37.1501 66.2515 37.1915 66.1985C37.2696 66.1016 37.3455 66.0071 37.4236 65.9102C37.4696 65.8526 37.5018 65.7972 37.5018 65.7188C37.5018 65.6496 37.4742 65.5758 37.4236 65.5274C37.3593 65.4651 37.2949 65.4075 37.2053 65.3821C37.1754 65.3729 37.1455 65.3706 37.1133 65.3706C37.026 65.3706 36.9386 65.3983 36.8628 65.4283C36.6421 65.5205 36.4651 65.6819 36.2812 65.8295C36.1801 65.9033 36.079 65.9748 35.9778 66.0486C35.856 66.1385 35.7388 66.2307 35.6215 66.323C35.3687 66.5213 35.1227 66.7265 34.8745 66.9318C34.7228 67.0563 34.5711 67.1808 34.4194 67.3076C34.0194 67.6397 33.6195 67.9718 33.2195 68.3038C32.5345 68.8711 31.8426 69.4337 31.1485 69.9895C31.1278 70.0079 31.1048 70.0241 31.0841 70.0425C30.914 70.1717 30.7462 70.3031 30.5761 70.4322C30.4773 70.5083 30.3761 70.5798 30.2773 70.6536C30.1325 70.7597 29.99 70.8658 29.8291 70.9488C29.7969 70.9603 29.7647 70.9695 29.7302 70.9787C29.4176 71.0664 29.2268 71.4007 29.3142 71.7144C29.3556 71.8642 29.4544 71.9934 29.5877 72.0718H29.59Z" fill="#FFD34E"/>
<path d="M25.8199 62.0082C27.93 61.6001 30.0379 61.1873 32.1503 60.7999C32.3571 60.763 32.5525 60.5877 32.6537 60.4125C32.7686 60.2165 32.7985 59.979 32.7387 59.7622C32.6812 59.55 32.5387 59.3679 32.3502 59.2572C32.2146 59.1788 32.0813 59.1488 31.9388 59.1488C31.8606 59.1488 31.7825 59.158 31.6997 59.1719C30.4424 59.4025 29.1851 59.64 27.93 59.8821C27.3186 59.9997 26.7072 60.1196 26.0981 60.2372C25.8429 60.2857 25.5878 60.3318 25.3349 60.3848C24.4109 60.5808 23.4892 60.7791 22.5651 60.9774C22.2364 61.0489 21.9077 61.1227 21.579 61.1965C21.34 61.2495 21.1032 61.3026 20.8642 61.3556C20.4987 61.4363 20.1378 61.5263 19.7677 61.5816C19.7057 61.5908 19.6436 61.5978 19.5838 61.607C19.4482 61.6439 19.3333 61.7131 19.2322 61.8122C19.085 61.9598 19 62.165 19 62.3749C19 62.5847 19.085 62.7899 19.2322 62.9375C19.3793 63.0851 19.5792 63.1612 19.793 63.1704C20.2941 63.1912 20.8021 63.0736 21.2917 62.9698C21.5491 62.9145 21.8066 62.8591 22.064 62.8038C22.4065 62.73 22.7467 62.6585 23.0892 62.5847C23.6547 62.4648 24.2224 62.3449 24.7879 62.2227C25.1304 62.1489 25.4751 62.0705 25.8176 62.0036L25.8199 62.0082Z" fill="#FFD34E"/>
<path d="M24.197 51.2096C24.6383 51.3249 25.0911 51.3941 25.5417 51.4656C25.9554 51.5325 26.3715 51.597 26.7852 51.6593C27.7138 51.7999 28.6425 51.9429 29.5734 52.0859C30.4101 52.215 31.2445 52.3465 32.0812 52.4779C32.1455 52.4871 32.2122 52.4964 32.2765 52.5056C32.4099 52.5056 32.534 52.471 32.6489 52.4041C32.8144 52.3073 32.9362 52.1482 32.9868 51.9637C33.0397 51.7723 33.0121 51.5647 32.9133 51.3941C32.8259 51.2442 32.6512 51.0828 32.4742 51.0551C30.3802 50.7231 28.2885 50.3818 26.1853 50.1143C25.583 50.0382 24.9808 49.9552 24.3763 49.9067C24.2568 49.9067 24.1464 49.9367 24.043 49.9967C23.8959 50.0843 23.7855 50.2273 23.7396 50.3933C23.6453 50.7369 23.8522 51.1174 24.2016 51.2096H24.197Z" fill="#FFD34E"/>
<path d="M24.1057 37.3894C24.2344 37.4909 24.3654 37.5739 24.5056 37.6592C24.6803 37.7653 24.8642 37.8529 25.0458 37.9475C25.2871 38.072 25.5308 38.1965 25.7721 38.3233C26.179 38.5332 26.5973 38.7269 27.0088 38.9275C27.3697 39.1028 27.7305 39.278 28.0891 39.451C28.4155 39.6101 28.7488 39.76 29.0706 39.9329C29.5809 40.205 30.0912 40.4771 30.5992 40.7515C31.3003 41.1251 31.9875 41.5333 32.6219 42.0129C33.2633 42.5248 33.8356 43.1105 34.3827 43.7216C34.5872 43.9499 34.9688 43.9292 35.1757 43.7216C35.2814 43.6156 35.3412 43.4726 35.3412 43.3227C35.3412 43.1728 35.2791 43.0391 35.1757 42.9261C34.7642 42.4649 34.3413 42.0175 33.8862 41.6024C33.4058 41.1643 32.8863 40.7792 32.3392 40.4287C32.045 40.2396 31.7462 40.0505 31.4405 39.8822C31.2083 39.753 30.9762 39.6262 30.744 39.4971C30.4705 39.3449 30.1969 39.195 29.9211 39.0428C29.797 38.9736 29.6728 38.8998 29.5441 38.8353C29.1005 38.6139 28.6615 38.3856 28.2201 38.1619C27.7259 37.9106 27.2317 37.6523 26.7398 37.3963C26.5491 37.2972 26.3629 37.1957 26.1744 37.0896C26.1836 37.0896 26.1928 37.0896 26.2043 37.0896C26.3744 37.0781 26.5238 37.0297 26.6479 36.9052C26.7651 36.7875 26.8318 36.6261 26.8318 36.4601C26.8318 36.128 26.5537 35.8306 26.2181 35.8306C26.2135 35.8306 26.2089 35.8306 26.2043 35.8306C25.9951 35.8352 25.7859 35.8467 25.5768 35.8652C25.4664 35.8744 25.3538 35.8859 25.2435 35.8951C25.0619 35.9113 24.8803 35.9274 24.6987 35.9528C24.5378 35.9735 24.3884 36.0197 24.2321 36.0658C24.0666 36.1165 23.9241 36.2203 23.8367 36.3725C23.777 36.4762 23.7471 36.5869 23.7471 36.7091C23.7471 36.8291 23.777 36.942 23.8367 37.0435C23.9011 37.1796 23.9815 37.2995 24.1011 37.394L24.1057 37.3894Z" fill="#FFD34E"/>
<path d="M35.0676 32.2405C35.1803 32.4181 35.2837 32.6048 35.4055 32.7755C35.7043 33.1998 35.9963 33.6264 36.3043 34.0438C36.6973 34.5741 37.095 35.1045 37.511 35.6164C37.9064 36.1053 38.327 36.5734 38.7546 37.0323C39.1844 37.4935 39.6257 37.9432 40.0694 38.3882C40.513 38.8333 40.9773 39.2576 41.437 39.6865C41.568 39.8087 41.7267 39.8825 41.9082 39.8825C42.0898 39.8825 42.2553 39.811 42.3795 39.6865C42.63 39.4351 42.6438 38.9901 42.3795 38.7434C42.0117 38.3998 41.637 38.0631 41.2807 37.7103C40.9061 37.3367 40.536 36.9585 40.1705 36.578C39.4809 35.8586 38.8166 35.116 38.2052 34.3297C37.8995 33.9308 37.5938 33.5295 37.3088 33.1168C37.1249 32.8516 36.941 32.5887 36.7571 32.3235C36.6445 32.1621 36.5364 32.003 36.433 31.8369C36.2422 31.5372 36.0468 31.2443 35.8905 30.9261C35.8882 30.9146 35.8836 30.9053 35.8813 30.8938C35.8629 30.7347 35.8124 30.5963 35.6951 30.4764C35.5733 30.3542 35.4055 30.2827 35.2308 30.2827C35.0561 30.2827 34.8883 30.3519 34.7665 30.4764C34.6378 30.6032 34.5826 30.7647 34.5734 30.9422C34.5573 31.2858 34.7113 31.5971 34.8676 31.8923C34.9297 32.0122 35.001 32.1252 35.0722 32.2382L35.0676 32.2405Z" fill="#FFD34E"/>
<path d="M40.6184 23.339C40.6368 23.4705 40.6828 23.5996 40.7241 23.7241C40.7816 23.8971 40.8506 24.07 40.9195 24.2383C41.0275 24.5012 41.1333 24.7618 41.2413 25.0247C41.416 25.4536 41.5999 25.8779 41.7838 26.3045C42.1217 27.0908 42.4573 27.8772 42.7929 28.6658C43.0595 29.2931 43.3261 29.9226 43.5928 30.5498C43.8571 31.3108 44.1238 32.0718 44.3904 32.8327C44.5513 33.2916 44.7099 33.7528 44.8708 34.2117C45.0501 34.7236 45.1788 35.2471 45.319 35.7682C45.4362 36.2018 45.8983 36.4623 46.3304 36.3447C46.7625 36.2248 47.02 35.7636 46.9051 35.3301C46.7901 34.9058 46.7005 34.4677 46.5557 34.0503C46.5074 33.9096 46.4591 33.7713 46.4109 33.6306C46.2155 33.0656 46.0224 32.5007 45.827 31.938C45.6454 31.4146 45.4661 30.8888 45.2845 30.3653C45.2202 30.1762 45.1489 29.9941 45.0731 29.8073C44.6524 28.795 44.2341 27.7826 43.8134 26.7703C43.5238 26.0739 43.2319 25.3798 42.9584 24.6765C42.8549 24.4113 42.7515 24.1438 42.6504 23.8786C42.5308 23.5696 42.3998 23.2606 42.324 22.9378C42.324 22.9124 42.324 22.887 42.3285 22.8617C42.3285 22.7049 42.2895 22.5596 42.2113 22.4235C42.0987 22.2298 41.9102 22.0846 41.6941 22.0246C41.6229 22.0039 41.5493 21.9946 41.4735 21.9946C41.0942 21.9946 40.7195 22.2437 40.6299 22.6288C40.6069 22.7302 40.5701 22.8893 40.577 22.9793C40.5862 23.0992 40.6046 23.2168 40.623 23.3344L40.6184 23.339Z" fill="#FFD34E"/>
</g>
<defs>
<clipPath id="clip0_6001_2">
<rect width="62" height="58" fill="white" transform="translate(19 21.9995)"/>
</clipPath>
</defs>
</svg>
