<svg width="316" height="112" viewBox="0 0 316 112" fill="none" xmlns="http://www.w3.org/2000/svg">
<path d="M4.51607 31.4562C7.56103 29.9115 11.6948 28.1944 14.8631 27.0123C15.8534 26.6414 15.4377 27.017 16.1206 26.7718C17.4656 26.2892 18.6647 25.6984 19.9988 25.2484C20.4423 25.0999 20.0172 25.5899 20.4757 25.4296C23.0067 24.5426 25.3269 23.537 27.8658 22.598C30.1751 21.7445 32.4835 20.8895 34.785 20.0324C45.0786 16.2861 55.3603 13.2321 65.9464 10.1785C70.2298 8.954 75.5097 7.72025 79.9168 6.39971C80.0154 6.37003 80.0809 6.34 80.1231 6.31045C80.3053 6.18545 80.071 6.0717 80.1476 6.0331C81.6306 5.29475 81.2444 5.93886 82.2664 5.73855C86.3824 4.92945 90.8685 3.87094 94.7855 2.94437C96.4452 2.5535 94.6502 2.4019 96.4129 2.33382C96.5342 2.32908 96.1626 2.68382 96.6286 2.61929C97.6653 2.47405 99.667 2.04374 100.465 1.92513C102.05 1.68749 102.302 1.64232 103.787 1.4073C105.826 1.09066 108.265 0.894831 110.465 0.61373C110.928 0.553979 110.274 0.335091 111.034 0.214259C111.775 0.0901843 113.802 -0.0334504 114.482 0.00818527C115.174 0.0432169 114.885 0.27787 115.008 0.323106C115.995 0.693018 118.355 0.124496 118.686 0.149377C119.015 0.152983 119.367 0.166904 119.699 0.192693C121.611 0.231388 123.35 2.03351 123.772 3.46782C125.357 8.03258 122.467 11.5396 120.401 14.2553C119.187 15.7855 117.876 17.259 116.638 18.7093C115.429 20.1332 114.292 21.7152 113.144 23.1635C111.872 24.7764 110.61 26.2465 109.284 27.6333C107.867 29.1247 106.481 30.663 105.026 32.3393C104.736 32.6734 105.328 32.4991 104.971 32.912C101.21 37.263 97.415 41.5207 93.4282 45.6425C93.028 46.0559 93.3064 45.3099 92.893 45.7121C90.3775 48.1709 86.2194 51.9088 85.7472 54.2944C85.0622 55.0147 84.3227 55.7922 83.5619 56.5685C82.5095 57.6408 81.4981 58.6792 80.5903 59.5324C79.6063 60.4626 80.1959 59.2443 79.2449 60.6283C79.0353 60.9381 79.5523 60.7337 79.2253 61.1827C77.8378 63.088 76.2556 65.1327 75.1502 67.1692C74.9236 67.588 75.2044 67.6075 75.1723 67.744C74.8904 68.8729 73.489 70.1744 73.2605 70.5325C71.5581 73.1201 70.8187 75.2819 70.0629 78.0163C69.8952 78.6534 70.4098 77.9882 70.2662 78.5948C69.7865 80.6446 69.5073 82.7619 69.4134 84.8913C69.3339 85.2476 69.7627 85.9296 70.5773 86.5126C71.0899 86.8772 70.4491 86.8103 70.6946 86.9971C71.8813 87.8101 72.4245 87.4255 73.7059 88.0046C73.9825 88.122 73.7468 88.299 73.7906 88.3417C74.498 89.015 75.4091 88.6421 75.6287 88.6868C78.4308 89.2169 80.1659 90.1253 82.9791 90.4215C83.3148 90.4537 82.6014 90.0527 83.5414 90.1602C85.7735 90.4085 88.0627 90.6038 90.3627 90.7501C94.3141 91.057 98.222 89.8391 101.775 88.0552C102.639 87.6229 102.149 88.1564 102.214 88.153C103.301 88.0585 103.557 87.2057 103.816 87.0241C105.86 85.5983 108.081 84.6787 109.09 83.1277C111.752 81.3843 114.368 79.553 117.014 77.7482C123.154 73.5303 129.113 68.9958 135.355 64.8965C135.468 64.8216 135.45 65.2013 135.673 65.0508C138.37 63.2382 137.599 63.2456 138.981 61.5121C139.331 61.0744 141.05 60.6256 141.197 60.5768C141.73 60.4036 141.552 61.0828 141.715 61.0043C143.055 60.3438 141.998 59.3334 143.585 58.1406C143.636 58.1053 143.587 58.4741 143.736 58.3952C144.198 58.1517 144.545 57.7592 145.006 57.5276C146.055 57.0043 146.807 57.3164 147.981 55.9266C148.13 55.7493 147.359 55.3033 148.806 54.2693C149.381 53.8583 151.884 51.9744 152.615 51.5006C153.358 51.0161 153.027 51.59 153.084 51.5613C155.191 50.4381 154.548 51.0935 155.814 50.804C156.221 50.7116 156.388 50.5705 156.442 50.405C156.566 50.0508 156.181 49.5982 156.394 49.3293C156.702 48.9339 158.296 48.1572 158.692 48.009C159.105 47.8448 158.756 48.2895 159.104 48.1179C161.37 47.0221 159.677 46.9926 160.257 46.3686C161.646 44.8989 163.436 44.8573 165.025 44.0487C165.458 43.8306 165.013 43.8443 165.377 43.6172C166.843 42.7204 167.881 42.4919 169.549 41.4503C169.823 41.2758 171.085 40.1422 172.207 40.1756C172.364 40.1815 172.05 40.5308 172.763 40.3358C173.821 40.0386 175.728 39.5607 176.872 39.2687C177.714 39.0501 176.661 38.8637 177.771 38.7839C178.261 38.7559 177.405 39.1155 178.32 39.0495C179.228 38.9696 181.528 38.7553 182.406 38.7247C183.281 38.6809 182.791 38.418 182.861 38.3957C183.289 38.2647 184.974 38.1024 185.123 38.1053C185.362 38.1026 185.601 38.1013 185.84 38.1009C187.296 37.9917 189.031 38.962 189.757 40.0534C191.708 42.6803 191.505 45.6615 191.391 48.3271C191.165 51.4612 190.044 54.3484 188.775 57.1643C188.534 57.6881 188.97 57.4742 188.936 57.5555C188.153 59.3875 188.156 57.6363 187.285 58.7209C187.911 58.8319 187.442 59.5012 186.803 60.7306C186.493 61.3224 186.879 61.1285 186.869 61.1932C186.669 62.2325 185.907 62.5793 185.735 62.6786C185.096 63.0492 185.058 63.8658 184.62 64.1144C184.186 64.3599 184.456 63.323 183.74 64.426C183.717 64.8553 184.732 64.3458 184.255 65.2366C182.971 67.6738 180.199 71.1972 178.396 73.9786C177.708 75.0517 177.153 76.0363 176.778 76.7738C175.448 79.451 175.173 80.3872 174.495 81.9976C173.341 84.9396 174.116 83.9805 173.751 85.8959C173.43 87.822 172.677 86.6564 172.388 86.8725C172.103 87.0904 172.253 87.4409 172.053 87.7541C171.855 88.065 171.878 87.2965 171.649 88.0833C171.405 88.8766 171.386 91.1727 171.586 91.4877C171.992 92.1618 172.613 91.2592 172.183 93.3201C172.159 93.439 171.929 93.0183 171.854 93.4807C171.668 94.7153 171.538 96.0229 171.695 97.2101C172.095 99.4658 175.171 100.186 177.432 100.816C177.934 100.945 177.42 101.15 177.713 101.227C180.784 101.989 179.76 101.267 181.552 100.99C181.317 101.309 181.381 101.612 181.756 101.883C182.18 102.191 183.068 102.463 184.38 102.444C185.857 102.395 185.579 102.059 186.474 101.735C186.741 101.638 187.775 101.716 187.933 101.529C188.444 100.921 187.416 100.558 189.835 100.309C189.942 100.298 189.666 100.639 190.028 100.58C192.388 100.176 192.543 99.5843 195.026 98.8633C195.925 98.5978 197.166 98.311 198.462 98.0103C199.974 97.6608 201.568 97.2887 202.776 96.9451C202.973 97.7738 205.022 96.9322 205.691 96.104C207.137 95.6705 208.679 95.138 210.092 94.7619C210.576 94.6328 210.34 94.9685 210.408 94.9742C211.46 95.0689 211.908 94.3217 212.21 94.1988C215.497 92.8862 218.362 92.3777 221.422 90.8947C221.529 90.842 221.524 90.2214 222.516 90.3387C222.581 90.348 221.615 90.9602 223.12 90.4698C224.63 89.9781 227.561 89.3093 229.559 88.3335C230.043 88.0976 231.156 87.2087 232.306 87.2085C232.457 87.2101 232.365 87.4207 232.59 87.4429C233.334 87.5041 233.474 86.8254 234.394 87.0445C234.951 87.1863 235.833 87.1637 236.873 86.8827C237.526 86.7047 238.216 86.4389 238.975 86.0412C239.035 86.0099 239.387 85.3908 240.046 85.1762C241.113 84.8292 242.639 84.4234 243.754 84.0768C244.281 83.9135 243.859 83.7361 243.949 83.7028C244.678 83.448 245.367 83.2315 246.069 83.0837C246.424 83.013 246.768 82.9524 247.168 82.9687C247.364 82.9796 247.583 83.0129 247.796 83.1281C248.011 83.2421 248.169 83.4402 248.262 83.6116C249.239 85.3666 249.629 87.3402 249.667 89.7231C249.7 90.4539 250.051 92.6014 249.643 94.0103C249.221 95.5641 247.825 93.8326 248.043 97.5301C248.172 99.0784 249.956 100.78 249.58 103.474C249.956 104.844 250.43 106.154 251.026 107.397L251.065 107.479L251.155 107.509C254.532 108.641 258.026 109.358 261.719 109.167C261.95 109.157 262.672 108.651 263.203 108.648C263.991 108.645 264.445 108.864 265.004 108.852C267.391 108.799 269.529 108.35 271.802 108.049C272.677 107.929 272.393 108.224 273.433 108.07C274.459 107.914 275.082 107.477 276.499 107.367C277.557 107.285 278.732 107.725 280.148 107.499C280.052 106.85 281.028 106.657 282.65 106.104C282.967 105.996 282.568 105.855 282.715 105.793C283.324 105.531 283.918 105.584 284.483 105.316C284.62 105.251 284.574 105.032 284.683 104.967C285.59 104.41 287.357 104.482 287.649 104.497C288.809 104.543 289.237 104.131 290.091 104.041C290.951 103.948 289.755 104.435 290.744 104.254C291.505 104.115 292.312 103.932 293.174 103.715L293.163 103.718C294.598 103.416 296.091 103.083 297.378 102.828C298.194 102.666 297.579 102.486 297.694 102.456C299.372 102.041 301.144 102.041 301.983 101.29C303.426 102.599 302.981 100.958 305.471 100.862C305.667 100.856 306.025 101.534 305.308 101.758C304.591 101.982 303.441 101.944 302.453 102.286C302.217 102.366 300.964 103.283 300.786 103.359C299.384 103.947 298.972 102.926 298.882 102.882C297.876 102.419 296.344 103.484 295.918 103.629C295.002 103.935 294.139 104.153 293.311 104.358L293.347 104.349C292.378 104.628 291.517 104.858 290.623 105.187C289.548 105.581 289.64 106.291 288.755 106.498C285.853 107.164 284.631 106.443 282.093 107.907C281.552 108.216 282.288 108.856 280.056 108.715C279.906 108.709 278.232 108.49 277.39 109.012C277.285 109.078 277.332 109.3 277.187 109.348C276.185 109.666 275.484 109.612 274.384 109.888C273.285 110.163 271.958 110.5 270.66 110.591C269.883 110.648 268.825 110.342 268.455 110.275C267.37 110.09 266.289 110.661 265.608 110.339C264.931 110.013 266.167 109.402 264.462 109.249C264.422 109.84 264.298 110.449 264.214 111.044C260.378 111.161 256.503 110.687 252.704 109.724C252.233 109.604 252.635 110.038 252.123 109.913C251.571 109.775 251.045 109.612 250.535 109.434L249.608 109.123L249.21 108.288C248.512 106.769 248.086 105.223 247.659 103.487C247.209 101.685 246.745 99.671 246.686 97.8016C247.352 96.6646 247.304 94.008 247.437 92.2129C247.48 91.584 247.657 91.63 247.722 91.1875C247.934 89.5268 247.335 90.3194 247.232 89.8833C246.693 88.1207 248.093 87.7775 247.343 85.7207C247.313 85.6326 246.622 85.083 246.203 84.829C246.151 84.9041 246.318 85.1743 246.398 85.2378C246.667 85.4859 246.884 85.545 246.955 85.5742C247.037 85.6016 247.052 85.6018 247.06 85.5975C247.073 85.5873 247.062 85.5451 247.063 85.4924C247.045 85.3897 247.14 85.2283 246.907 85.2234C245.772 85.3015 244.507 85.5429 242.869 86.2884C242.374 86.5145 241.296 87.3449 240.188 87.3558C240.042 87.3576 240.038 87.1081 239.927 87.1312C238.207 87.5053 238.132 88.0882 237.477 88.6413C237.377 88.7284 237.262 88.8147 237.123 88.8995C236.113 89.5129 234.248 89.6106 233.862 89.5865C232.833 89.5346 234.496 89.1948 234.532 89.1427C234.962 88.5209 233.752 89.0186 232.799 89.3064C232.425 88.6622 231.122 89.1567 231.81 89.6083C231.884 89.6581 232.601 89.3394 232.799 89.3064C232.199 90.2717 230.788 90.8542 228.969 90.7699C228.115 90.7306 228.709 90.1403 226.476 91.0466C225.46 91.4581 226.028 91.7959 225.155 92.2387C223.176 93.2457 220.311 93.7216 218.184 94.5138C217.411 94.8015 218.26 94.8073 217.734 95.0129C216.34 95.5593 215.024 95.78 213.63 96.352C213.504 96.4041 213.911 96.5736 213.468 96.7238C210.114 97.8644 207.118 98.6435 203.572 99.7358C202.483 100.071 200.863 100.63 199.359 101.105C198.482 101.383 197.673 101.625 197.002 101.799C193.859 102.614 189.881 103.177 187.017 103.637C185.127 103.917 185.555 104.138 184.707 104.381C183.808 104.627 182.412 104.452 181.393 104.113C180.654 103.859 180.053 103.592 179.901 103.518C179.894 103.514 181.422 103.691 180.636 103.415C180.214 103.034 179.919 103.519 179.901 103.518C179.693 103.425 176.602 102.815 175.938 102.679C175.583 102.623 175.711 102.936 175.526 102.901C174.403 102.671 173.242 102.384 171.983 101.735C170.78 101.139 169.155 99.7585 168.803 97.7408C168.385 95.0012 168.754 93.0013 169.125 90.8302C169.143 90.7559 169.426 90.9177 169.464 90.7429C170.019 88.2859 170.041 86.6559 170.387 84.595C170.745 82.5351 171.373 80.9876 172.297 80.0298C172.779 78.5425 173.895 76.5784 174.6 75.4927C175.299 74.4071 174.872 73.9744 174.914 73.8656C175.139 73.3156 175.374 72.8124 175.617 72.3447C176.871 69.9778 178.163 68.5999 179.851 66.1983C180.818 64.8398 182.566 62.0747 183.415 60.5413C184.092 59.3314 184.63 58.6824 185.15 57.5326C185.22 57.3776 184.905 57.4033 184.921 57.3529C185.287 55.9773 185.549 56.8653 185.785 56.662C186.624 55.9187 187.143 55.412 187.61 53.6915C187.724 53.284 187.225 51.8898 187.342 51.2279C187.495 50.3558 187.749 50.7547 187.848 49.8368C187.853 49.7587 187.656 49.74 187.741 49.2004C187.792 48.8591 187.831 48.5125 187.854 48.1745C188.038 45.8591 187.783 43.2101 186.985 42.3816C186.921 42.3065 186.865 42.2413 186.814 42.1856C186.642 42.0019 186.588 42.419 186.397 42.2377C186.275 42.1375 186.301 42.1721 186.262 42.1562C186.226 42.1457 186.088 42.1131 185.844 42.1135C183.787 42.1109 181.79 42.1254 179.996 42.2278C179.345 42.2657 179.722 41.9907 179.573 41.9402C178.641 41.6352 177.52 42.4564 177.334 42.5115C172.745 43.8049 169.081 45.0397 164.743 47.9583C164.497 48.1193 163.015 49.8194 161.89 49.922C161.816 49.9274 160.691 50.0063 160.201 50.8183C160.171 50.8693 160.833 50.7589 159.951 51.3407C159.436 51.6826 158.83 52.1826 158.115 52.6956C157.59 53.0721 156.996 53.4562 156.401 53.7234C155.951 53.9308 154.733 54.1322 153.865 55.3351C153.809 55.4152 152.677 57.5194 151.629 57.4321C151.459 57.4161 151.129 56.7397 150.003 58.056C149.791 58.3067 150.356 58.0892 149.74 58.6786C148.794 59.5861 147.3 60.46 146.22 61.6829C146.031 61.8977 145.386 63.009 144.393 63.2791C144.238 63.3212 144.316 62.9541 143.898 63.2332C141.908 64.5631 140.003 66.1994 137.954 67.5189C137.229 67.9863 137.343 67.4037 136.56 67.8555C135.778 68.3066 134.266 69.305 133.62 70.0121C132.975 70.7182 134.18 70.6146 133.076 71.4972C128.702 74.9856 124.048 78.0496 119.35 81.1622C118.906 81.4559 118.477 81.7419 118.04 82.0376C117.291 82.5453 118.039 82.304 116.95 83.064C112.961 85.8313 106.083 91.1027 101.503 92.5959C97.9104 93.734 102.119 91.6225 99.4433 92.5682C98.1668 93.0013 96.9045 94.1078 96.5587 94.2098C94.1804 94.9623 92.156 94.9494 90.1278 94.7964C89.4582 94.7419 88.7657 94.692 88.0289 94.6625C87.4635 94.6392 87.994 94.9813 87.5107 94.9572C85.8569 94.8755 84.1441 94.563 82.5673 94.3822C81.8603 94.3006 81.9579 94.5444 81.3097 94.4347C79.7557 94.1692 78.3847 93.8377 76.9036 93.3077C76.7703 93.2593 77.7587 93.1784 76.6132 92.9237C74.7393 92.4912 72.5102 91.7177 70.2142 90.9131C69.5371 90.6455 69.2507 91.1825 67.951 89.894C67.8191 89.7535 67.9448 89.628 67.8478 89.4315C67.7492 89.2076 67.4569 89.0684 66.4193 88.2689C66.3101 88.1598 64.8737 87.0577 64.7694 84.7722C64.6778 83.9181 64.7048 82.9515 64.9816 82.3363C65.1383 81.9766 65.7517 81.1031 65.8017 80.3035C65.8072 80.1922 65.457 80.5857 65.5415 79.913C65.8509 77.5513 66.5746 75.1606 67.3767 72.8885C67.5917 72.2843 66.9631 73.0688 67.3015 72.1622C68.2311 69.6705 69.849 66.8134 71.2795 64.7287C71.8054 63.9615 71.6645 64.6339 71.7234 64.5894C72.6589 63.9139 72.5403 63.0718 72.7157 62.7541C73.8176 60.795 75.0572 59.6081 76.2757 57.9783C76.6163 57.5277 76.1516 57.666 76.2035 57.5631C76.7632 56.5025 76.5884 57.4909 77.096 56.9624C78.1475 55.8734 79.1968 54.7044 80.2554 53.5343C80.6424 53.1062 81.0181 52.6834 81.3792 52.2744C81.8655 51.7229 81.0721 52.1198 81.5134 51.6248C84.1031 48.7103 86.8513 45.7155 89.519 42.998C90.0254 42.4825 89.9047 42.9841 90.0466 42.9094C91.0213 42.4067 91.6274 40.9254 91.8258 40.626C92.6965 39.299 93.2729 38.9753 94.1667 37.9056C97.7043 33.6866 101.955 28.8387 105.928 24.5433C106.824 23.597 107.658 22.6424 108.435 21.7101C110.094 19.7321 111.553 17.7566 113.32 15.7955C116.688 12.1475 120.602 8.08457 119.777 5.34251C119.7 5.0892 119.464 5.43253 119.393 5.23401C119.382 5.20731 119.372 5.1804 119.361 5.15323C119.245 4.86836 119.14 4.78063 119.17 4.8166C119.196 4.85593 119.315 4.88127 119.185 4.85891C115.572 4.56222 111.155 4.96364 107.021 5.59196C106.567 5.66238 107.257 5.87709 106.544 5.99977C105.072 6.25504 103.186 6.54345 101.683 6.71216C100.936 6.7975 101.873 6.36053 101.133 6.45035C99.3917 6.66403 97.5633 7.0019 95.815 7.42156C95.0682 7.60206 96.269 7.66958 95.2903 7.88162C90.6454 8.89959 86.1037 10.0628 81.4537 11.1989C79.4894 11.6793 77.5085 12.1467 75.5009 12.5888C75.0415 12.6898 74.4584 12.1883 73.5277 12.5823C73.5038 12.7743 73.5654 12.9745 73.5859 13.1665C64.0501 16.0136 54.5432 18.6746 45.1208 21.8569C44.7266 21.991 45.5173 22.0782 44.7553 22.3397C42.0524 23.2707 39.4388 24.2424 36.8241 25.2159C35.0904 25.8638 33.3368 26.4833 31.5254 27.0566C31.0686 27.2017 31.0798 26.554 29.7952 27.1599C29.5778 27.2633 27.6149 28.1284 27.1581 28.4507C27.0959 28.4966 27.5595 28.6121 26.9271 28.8731C23.2378 30.391 19.3606 31.8924 15.6598 33.2877C15.0624 33.5126 15.5695 32.9725 15.1436 33.1303C12.1151 34.2541 9.0174 35.8969 6.12717 36.9775C4.19092 37.7033 4.65531 36.9123 3.44522 36.938C3.27202 36.9423 2.11692 37.4988 1.9278 37.265C1.44579 36.6782 1.64562 35.6753 1.06559 35.0826C0.944684 34.9517 -0.534182 35.8941 0.206836 35.0656C0.25887 35.0082 1.32802 34.3262 1.54519 34.0656C1.69663 33.8841 1.21464 33.7871 1.5575 33.4819C1.90322 33.1757 2.44718 33.1894 3.04666 32.7402C3.64339 32.2917 3.20588 32.1208 4.51607 31.4562ZM178.02 70.8233C178.898 70.0131 178.124 69.2882 177.635 70.479C177.613 70.5375 177.975 70.8655 178.02 70.8233ZM256.685 109.688C255.24 109.012 254.077 109.438 255.089 110.006C256.123 110.562 257.137 109.89 256.685 109.688ZM272.413 108.887C270.612 108.785 270.535 110.293 272.384 109.721C272.496 109.687 272.515 108.893 272.413 108.887ZM7.99248 34.6167C7.97204 34.6104 7.13039 34.9865 7.11625 35.0088C6.81237 35.5167 8.49317 34.7649 7.99248 34.6167ZM287.453 105.335C286.879 105.275 285.397 105.881 286.118 105.96C286.702 106.023 288.172 105.41 287.453 105.335ZM165.321 44.4686C165.299 44.4617 164.707 44.7881 164.769 44.8546C164.946 45.0781 165.712 44.5466 165.321 44.4686ZM313.074 100.287C309.243 100.774 306.737 99.9191 310.931 99.4376C311.69 99.3524 309.359 100.062 310.336 100.031C312.123 99.9737 313.184 99.047 315.038 99.2066C315.372 99.2361 313.292 100.261 313.067 100.289C313.07 100.288 313.072 100.288 313.074 100.287ZM179.435 70.9624C179.457 70.9535 179.984 70.193 179.983 70.1704C179.986 69.5704 178.929 71.0954 179.435 70.9624ZM133.556 66.5967C133.499 66.6034 131.771 67.8549 131.733 67.9169C131.164 69.0172 134.657 66.4899 133.556 66.5967ZM202.817 96.9558C203.666 96.344 204.806 95.9443 205.687 96.105C204.737 96.3831 203.77 96.683 202.817 96.9558Z" fill="#EBB630"/>
</svg>
