<svg width="1006" height="569" viewBox="0 0 1006 569" fill="none" xmlns="http://www.w3.org/2000/svg">
<path d="M51.4854 407.978L51.6008 407.552C53.0603 400.928 55.9793 394.499 55.7312 390.521C55.0014 385.059 53.5273 382.047 51.3381 379.312C43.7488 372.516 32.2777 363.526 29.9421 356.579C27.7529 350.068 19.86 342.509 24.1188 327.088C26.3226 319.108 31.2401 314.213 38.4947 308.626C46.2883 302.624 76.0263 298.17 68.8665 290.906C67.6405 289.662 59.8753 287.206 51.8198 282.911C45.7337 279.667 35.8357 277.588 29.6867 272.422C20.368 264.592 4.2178 249.306 3.6788 240.937C3.43799 237.199 3.1263 232.353 5.15288 228.2C6.85317 224.716 13.6871 207.444 17.5017 204.982C24.084 200.734 22.4052 195.848 44.7851 195.848C56.1982 195.848 68.8665 191.8 80.5569 190.01C82.2207 189.755 80.7799 189.246 79.061 188.759C72.0044 186.758 64.3259 182.55 56.1982 178.516C49.6159 175.249 41.5453 170.521 36.9841 164.265C31.1389 156.248 28.7417 146.601 29.6867 138.896C31.8953 120.89 43.0404 114.266 51.3381 109.345C71.996 97.0935 69.5571 101.803 79.112 97.0935C85.6943 93.8492 105.214 89.6591 99.7564 85.6073C95.356 82.3405 88.3906 77.4495 85.8913 69.5955C85.1689 67.3252 85.1689 64.3581 85.9132 62.1103C86.6575 59.8625 88.0452 58.3182 89.8173 56.6182C97.3701 49.3728 104.748 43.1611 126.669 36.6203L127.198 36.4625C147.931 30.2759 169.605 23.8084 190.675 23.171C215.194 22.4292 230.644 23.3968 237.02 23.6805C254.031 24.4373 265.274 36.8508 276.631 31.4129C279.776 29.9069 281.844 26.3441 285.388 24.16C293.933 18.8927 306.609 4.34754 331.945 3.93737C361.565 3.45784 372.169 4.93607 381.48 5.69814C390.726 6.4549 398.868 8.20112 408.473 11.947C417.522 15.4761 428.064 20.6281 434.007 23.688C441.34 27.4643 451.026 45.8694 464.174 40.1568C467.071 38.8981 467.971 34.9934 470.982 30.8809C479.783 18.8627 490.043 7.31377 499.698 5.68315C515.891 2.94833 544.233 3.33361 560.069 6.70965C579.962 10.9505 589.803 10.4425 599.665 16.4501C606.232 20.4512 610.956 26.6195 617.901 28.9254C619.368 29.4124 620.984 29.1036 622.031 27.9064C624.213 25.4113 625.865 22.1657 628.11 19.4097C632.999 13.4081 639.327 4.36524 662.328 3.69011C687.598 2.94833 706.907 4.5554 714.489 5.45088C722.991 6.4549 730.094 6.13603 738.804 8.94995C751.305 12.9885 772.332 34.6135 786.478 31.6677C790.112 30.9109 792.873 28.573 797.198 26.4003C809.1 20.4212 831.156 13.9097 842.416 16.4501C860.316 20.4886 873.397 29.4424 880.863 36.1932C888.875 43.4386 896.454 49.3694 901.763 60.6717C904.93 67.4151 903.836 90.2028 915.876 89.6233C921.48 89.3536 933.695 86.9443 945.562 92.3731C952.129 95.3777 957.609 99.9378 962.09 107.621C967.22 116.417 977.186 134.679 973.744 153.843C972.036 163.351 967.668 178.353 973.036 183.784C974.021 184.78 975.507 185.164 976.933 185.777C982.778 188.287 990.275 191.183 993.951 199.031C996.877 205.28 1005.52 214.811 1001.23 232.298C996.818 250.266 991.894 259.131 984.916 267.716C978.808 275.231 964.059 285.033 969.38 290.187C974.021 294.682 988.09 301.088 995.9 311.902C1001.49 319.641 1004.53 327.368 1000.98 336.169C996.352 347.64 994.873 354.909 989.784 359.366C983.187 365.143 965.503 364.895 957.668 381.117C955.019 386.602 956.017 391.495 956.734 396.103C959.397 413.216 957.24 433.927 953.545 440.797C949.648 448.042 945.164 453.489 938.695 458.524C931.638 464.016 919.73 474.36 886.095 470.235C871.799 468.482 865.482 466.343 864.035 469.786C863.072 472.078 864.096 476.882 862.079 481.302C853.76 499.531 846.321 511.67 837.983 515.214C827.986 519.462 796.231 524.71 777.4 519.679C765.257 516.435 759.935 512.737 753.589 511.699C752.122 511.46 750.2 511.843 750.203 512.966C750.21 515.461 752.888 531.477 749.225 543.693C748.254 546.93 746.374 551.424 740.169 554.692C731.179 559.428 719.986 564.089 703.317 564.403C677.076 564.897 659.227 563.857 653.833 563.646C647.521 563.399 638.455 563.324 628.263 560.132C611.516 554.887 604.959 551.551 595.95 545.641C587.201 539.902 582.24 532.931 575.284 530.926C573.569 530.431 571.301 530.041 570.431 531.195C568.738 533.443 567.458 539.053 561.908 543.94C555.092 549.942 549.714 554.897 543.176 557.42C530.164 562.44 501.988 566.795 487.453 565.145C471.814 563.369 451.835 558.833 442.464 553.891C433.955 549.402 422.657 544.246 411.333 535.406C404.27 529.892 399.184 518.148 393.594 519.702C392.623 519.971 392.275 521.532 391.404 522.961C387.748 528.963 380.895 535.876 373.38 540.194C363.404 545.926 356.327 554.811 321.014 556.168C302.106 556.895 281.317 558.165 263.422 554.4C251.491 551.89 240.111 547.303 232.058 543.903C223.79 540.411 214.968 536.505 204.562 528.903C193.608 520.9 187.522 506.872 180.013 509.452C174.168 511.46 168.265 514.276 160.062 518.203C153.239 521.47 143.67 527.292 132.573 528.94C122.532 530.431 107.176 531.519 99.7345 527.172C92.4371 522.908 82.1681 523.983 58.9974 492.429C49.3137 479.242 44.7799 467.554 44.7851 458.397C44.7995 432.693 46.71 425.631 51.4854 407.978Z" fill="#FAEBC4" stroke="#F5D381" stroke-width="7" stroke-linecap="round"/>
</svg>
