<svg width="183" height="100" viewBox="0 0 183 100" fill="none" xmlns="http://www.w3.org/2000/svg">
<path d="M6.71102 28.0429C7.79702 27.4739 9.29978 26.9166 10.459 26.5507C10.8239 26.4348 10.7074 26.6568 10.9605 26.5842C11.4564 26.442 11.8654 26.1858 12.3584 26.0596C12.5223 26.0185 12.4275 26.331 12.5971 26.2826C13.5256 26.0156 14.3387 25.6096 15.256 25.2892C19.772 23.7151 24.1335 22.0377 28.6085 20.2622C28.8228 20.1772 29.0466 20.0925 29.2777 20.0072C30.6091 19.5175 32.1428 19.0102 33.3819 18.3591C33.5509 18.2701 33.3565 18.1151 33.3821 18.0836C33.7861 17.5955 33.7977 18.0799 34.1608 17.9807C35.6029 17.5849 37.1057 16.9139 38.3619 16.2348C38.8957 15.9454 38.1589 15.8043 38.8166 15.7695C38.8621 15.7667 38.8218 16.0446 38.9833 15.9969C39.3487 15.8886 39.979 15.5473 40.2521 15.4398C40.778 15.2342 40.8626 15.1919 41.3452 14.9682C42.0085 14.6631 42.8434 14.3994 43.5296 14.0183C43.676 13.9362 43.3733 13.8124 43.5971 13.6621C43.8196 13.5124 44.4683 13.2306 44.7099 13.1802C44.9495 13.1307 44.9378 13.3451 44.9943 13.3665C45.4634 13.5509 45.9913 12.7454 46.0807 12.6901C47.155 12.0372 48.2225 11.6268 49.291 11.2247C49.6059 11.1055 49.9306 10.9871 50.3275 10.8838C50.7259 10.803 51.2032 10.6228 52.0241 10.8857C52.4022 11.0166 52.7679 11.322 52.9653 11.6173C53.8973 12.9631 54.185 14.4597 54.2786 15.7122C54.377 17.4004 54.1483 18.7458 54.0394 20.276C54.0267 20.4373 54.3259 20.274 54.3108 20.4718C54.1486 22.5714 53.828 24.5865 53.4988 26.5423C53.4661 26.7398 53.2353 26.4666 53.188 26.6637C52.8936 27.7671 52.5053 29.7301 53.5786 30.1402C53.6253 30.1403 53.6742 30.134 53.7252 30.1219C53.7301 30.1695 53.6707 30.1839 53.8534 30.3245C54.026 30.4521 54.3496 30.5804 54.653 30.7088C55.0569 30.8675 54.6452 31.1302 55.1812 31.0166C55.3053 30.9881 55.1392 30.7554 55.3224 30.7293C56.0694 30.6171 56.9607 30.5509 57.7261 30.2599C57.8798 30.2004 57.7903 30.0024 57.8268 29.9551C58.1328 29.5718 58.8868 29.9058 59.0367 29.9027C60.1694 29.8818 60.9198 29.5258 61.8999 29.1935C62.1279 29.1154 61.7652 28.9403 61.9801 28.8556C63.0941 28.4191 64.2568 27.9894 65.3908 27.643C65.6424 27.5666 65.5174 27.8846 65.6425 27.8594C66.1965 27.7426 66.1256 27.2719 66.6414 27.1465C66.7515 27.1184 66.7812 27.3336 66.8094 27.3458C67.041 27.4444 67.1606 27.3364 67.2286 27.2047C67.2965 27.0803 67.3236 26.9346 67.3578 26.9125C68.2556 26.3219 69.093 26.5183 69.993 26.0233C70.1011 25.9633 69.7384 25.8397 70.0497 25.6856C72.1114 24.6633 74.3628 23.7512 76.537 23.0499C76.8749 22.9406 76.7206 23.2217 76.7511 23.2352C77.2296 23.4448 77.2477 22.8825 77.3475 22.8192C78.129 22.3364 79.0716 22.4045 79.4115 21.6035C82.7379 20.4224 85.8807 18.8613 89.2736 17.9153C89.5952 17.8244 89.9127 17.7467 90.2378 17.6793C90.2868 17.6685 90.2874 17.935 90.3841 17.913C91.5472 17.6656 91.2009 17.3742 91.8547 16.6917C92.0245 16.5188 92.7681 16.9346 92.8239 16.9681C93.049 17.0786 92.9286 17.4874 92.9993 17.5029C93.5616 17.63 93.2382 16.4242 94.0013 16.3089C94.0252 16.3076 93.957 16.547 94.0237 16.5605C94.2276 16.6038 94.408 16.4913 94.6098 16.5503C95.0706 16.6925 95.2379 17.2758 95.8788 16.922C95.9623 16.8799 95.8337 16.1646 96.5221 16.226C96.6471 16.2377 96.9868 16.2627 97.2965 16.291C97.8631 16.3071 98.5471 16.678 98.731 16.9067C99.0866 17.3196 98.6522 17.2087 98.6789 17.2465C98.9814 17.826 98.8666 18.0142 98.8032 18.144C98.7204 18.2727 98.6047 18.3549 98.4466 18.6092C98.1064 19.081 99.1092 18.7876 99.2566 18.9619C99.4102 19.152 99.1895 19.8354 99.094 19.988C99.0051 20.1421 98.8657 19.9469 98.814 20.081C98.4546 20.9611 99.3144 20.5103 99.4592 20.8347C99.7848 21.6139 98.9232 22.0667 98.7389 22.6789C98.6881 22.8465 98.888 22.7378 98.8767 22.894C98.8276 23.5122 98.5157 23.8251 98.593 24.5503C98.6057 24.6691 98.9492 25.3127 98.5387 25.5961C98.4798 25.6359 98.319 25.4541 98.224 25.698C98.0814 26.0621 97.9037 26.7355 97.9007 27.1515C97.8992 27.4561 98.2692 27.1704 98.1132 27.5233C98.0453 27.6792 97.9045 27.3462 97.7922 27.6494C97.7472 27.7725 97.7048 27.9824 97.6796 28.1957C97.6361 28.3753 97.8513 28.5503 97.9947 28.6147C98.2351 28.7216 98.1968 28.433 98.2234 28.4286C98.3541 28.3971 98.8375 28.3747 98.8819 28.3711C98.9989 28.3831 99.1179 28.3899 99.2351 28.3914C101.512 28.4083 103.833 27.865 105.944 26.6777C106.12 26.5782 105.885 26.4096 105.91 26.392C106.471 25.9861 106.299 26.8391 106.836 26.8177C106.533 26.3892 106.831 26.342 107.232 26.0597C107.425 25.9229 107.217 25.8073 107.226 25.779C107.383 25.3447 107.784 25.5726 107.879 25.6122C108.227 25.7585 108.273 25.3287 108.508 25.4233C108.743 25.5162 108.572 25.9508 108.979 25.7134C109.001 25.4863 108.457 25.2379 108.727 24.9923C109.739 24.0678 112.109 23.1029 113.095 22.6172C114.06 22.1347 114.371 21.9452 114.958 21.7288C114.967 21.7255 114.976 21.7223 114.986 21.719C116.075 21.3351 115.542 21.1895 116.126 20.7396C116.716 20.2928 116.757 21.2486 116.928 21.3807C117.098 21.5142 117.119 21.2903 117.275 21.3365C117.43 21.3832 117.237 21.6087 117.519 21.5292C117.799 21.4488 118.402 20.8296 118.424 20.6064C118.469 20.1327 117.963 19.8556 118.753 19.7097C118.798 19.7019 118.748 19.9723 118.916 19.9315C120.255 19.5997 121.6 19.148 122.952 18.9259C123.138 18.8958 123.048 19.1914 123.157 19.177C124.284 19.0384 123.779 18.7249 124.27 18.099C124.289 18.7626 124.714 19.0561 125.538 18.883C126.037 18.7816 125.892 18.5238 126.184 18.2649C126.272 18.1867 126.664 18.3139 126.707 18.1723C126.851 17.7092 126.425 17.2791 127.351 17.3346C127.392 17.3381 127.301 17.5914 127.438 17.5862C128.322 17.5622 128.372 17.0964 129.335 16.9626C129.916 16.8841 130.863 17.0025 131.648 17.1124C131.944 17.1454 132.214 17.2079 132.468 17.2999C132.281 17.98 132.977 18.0963 133.622 18.2827C133.977 18.9242 134.065 19.6065 134.02 20.1687C134.002 20.3637 133.787 20.2404 133.765 20.2657C133.415 20.6251 133.89 20.8666 133.904 20.9932C134.027 22.1412 133.508 23.2916 133.899 23.9444C133.947 24.0067 134.004 24.0623 134.069 24.1086C134.106 24.1379 134.516 23.8685 134.36 24.2458C134.362 24.2811 133.973 24.2148 134.267 24.5348C134.434 24.7011 134.722 24.9787 135.137 25.1093C135.496 25.224 135.895 25.2729 136.237 25.1874C136.429 25.1446 136.856 24.7438 137.232 25.0373C137.283 25.0775 137.24 25.2259 137.317 25.3013C137.573 25.5391 137.645 25.0186 137.972 25.4119C138.301 25.8047 138.999 26.0214 139.71 25.5107C139.733 25.495 139.803 25.0556 140.042 24.9877C140.424 24.8812 140.985 24.771 141.375 24.6132C141.559 24.5387 141.348 24.352 141.378 24.335C142.551 23.7067 143.494 23.4909 144.811 22.8992C145.054 22.7905 145.548 22.1272 146.123 22.1103C146.757 22.0895 146.872 23.4506 147.849 22.5429C148.244 22.1765 148.013 20.4934 149.23 20.7184C150.618 19.685 152.167 19.1944 153.61 18.3076C153.688 18.2597 153.767 18.2111 153.846 18.1616C153.913 18.1189 153.989 17.6151 154.179 17.5517C154.458 17.4592 154.673 17.6043 154.872 17.5574C155.615 17.3915 156.283 17.1207 157.034 17.0994C157.129 17.0976 157.224 17.1026 157.317 17.1153C157.644 17.1727 157.495 17.3523 157.831 17.4692C158.147 17.6 158.527 17.491 158.848 17.9218C159.086 18.2539 158.924 18.9058 159.213 19.3155C159.562 19.0122 159.775 19.1418 160.144 19.3829L160.158 19.3979L160.182 19.4032C160.277 19.4006 160.382 19.3972 160.494 19.3878C160.615 19.377 160.519 19.1653 160.578 19.15C160.81 19.0827 160.996 19.2655 161.217 19.1729C161.27 19.1506 161.287 18.9597 161.329 18.9302C161.686 18.6761 162.247 19.1032 162.359 19.173C162.759 19.4457 162.932 19.1828 163.239 19.2688C163.551 19.3518 163.111 19.5353 163.474 19.5679C164.232 19.6343 165.179 19.4345 165.917 19.2728C166.212 19.2073 165.953 19.0046 165.994 18.9895C166.578 18.7874 167.257 18.8821 167.445 18.2981C168.223 19.4423 167.767 18.076 168.681 18.0661C168.752 18.0657 169.028 18.6318 168.798 18.8002C168.567 18.9688 168.119 18.9029 167.798 19.1439C167.724 19.2012 167.384 19.902 167.322 19.9544C166.85 20.3664 166.544 19.4795 166.505 19.4374C166.058 18.9821 165.595 19.728 165.434 19.8032C164.723 20.1502 164.052 20.119 163.418 20.3228C163.002 20.4524 162.996 21.0622 162.639 21.061C161.437 21.0288 161.133 20.1875 159.938 20.6858L159.485 20.5863L159.219 20.3047C159.204 20.301 159.188 20.2973 159.172 20.2937C158.901 20.2396 158.537 20.83 158.397 19.9098C158.39 19.8528 158.37 19.1301 157.981 19.1944C157.933 19.2026 157.805 19.3488 157.767 19.3372C157.521 19.2657 157.502 19.069 157.335 19.0706C157.203 19.0783 157.135 19.1513 157.046 19.1444C156.995 19.1433 156.941 19.1389 156.884 19.1297C156.708 19.0981 156.389 18.7772 156.263 18.7097C155.911 18.5098 155.675 19.0002 155.406 18.7568C155.117 18.5189 155.396 17.9393 154.778 17.9213C154.913 18.4078 155.031 18.914 155.165 19.4042C154.86 19.5014 154.553 19.6044 154.248 19.719C153.449 20.0228 152.621 20.3743 151.826 20.837C151.687 20.9188 151.964 21.0744 151.818 21.1683C151.21 21.5606 150.559 21.7175 149.935 22.1743C149.451 22.5293 149.033 23.1106 148.52 23.4938C147.896 23.1907 147.179 23.8336 146.546 24.125C146.325 24.2273 146.264 24.0846 146.089 24.1238C145.429 24.2727 145.939 24.5744 145.819 24.731C145.293 25.3993 144.701 24.4102 143.902 24.8369C143.864 24.8584 143.589 25.6713 143.526 25.7408C143.148 26.1884 143.358 25.5831 143.038 25.6775C142.452 25.8453 142.014 25.8711 141.402 26.2885C141.226 26.4103 140.86 26.9434 140.365 26.7802C140.301 26.7587 140.272 26.555 140.227 26.556C139.412 26.5805 139.549 27.1947 139.115 27.5108C138.679 27.8274 137.839 27.4886 137.681 27.3703C137.255 27.0777 137.971 27.2029 137.99 27.1635C138.188 26.7507 137.67 26.889 137.264 26.8768C137.167 26.2587 136.639 26.307 136.841 26.861C136.866 26.9228 137.181 26.8544 137.264 26.8768C136.953 27.5125 136.211 27.6065 135.556 26.9413C135.285 26.6504 135.56 26.4236 134.858 26.3219C134.785 26.3091 134.703 26.295 134.61 26.2769C134.103 26.156 134.136 26.6403 133.593 26.4942C132.914 26.292 132.234 25.5703 131.979 24.71C131.708 23.6793 131.916 23.3273 131.882 22.8802C131.879 22.5503 131.623 22.8527 131.614 22.6299C131.593 22.0411 131.82 21.6035 131.76 21.1072C131.754 21.0633 131.501 21.1531 131.507 21.0056C131.526 20.4548 131.543 19.9853 131.517 19.7177C131.508 19.5861 131.488 19.5296 131.529 19.5645C131.565 19.6001 131.701 19.675 131.713 19.6694C131.721 19.6712 131.692 19.6705 131.607 19.6829C131.042 19.7093 130.366 19.7958 129.92 19.8032C128.864 19.8126 127.496 19.6325 126.593 19.8922C126.006 20.0601 126.188 20.2794 125.969 20.4958C125.556 20.9121 124.572 20.5518 124.427 20.4978C124.423 20.4949 124.917 20.3113 124.615 20.2558C124.392 20.0392 124.432 20.4954 124.427 20.4978C124.338 20.4563 123.306 20.6817 123.122 20.7901C123.021 20.8474 123.149 21.0537 123.095 21.0793C121.817 21.6823 120.527 22.2105 119.162 22.6508C119.137 22.656 119.073 22.399 119.015 22.4143C118.2 22.6244 117.835 23.1355 117.291 23.5913C116.889 23.9295 116.504 24.1136 116.1 24.0956C115.965 24.0863 115.826 24.0536 115.682 23.995C115.257 24.2677 114.514 24.4384 114.078 24.542C113.642 24.6446 113.839 25.1209 113.811 25.1478C112.941 26.0091 112.198 26.1116 111.081 26.7111C110.551 26.9958 109.541 27.6651 108.979 28.0382C108.537 28.3343 108.197 28.3821 107.795 28.6794C107.74 28.7194 107.905 28.8894 107.891 28.9066C107.52 29.4051 107.504 28.7875 107.357 28.7517C106.823 28.6177 106.518 28.5596 105.945 29.0136C105.816 29.1173 105.699 30.0466 105.421 30.213C105.066 30.4245 105.101 30.1015 104.728 30.3233C104.696 30.3417 104.769 30.5045 104.514 30.592C103.331 30.9981 101.946 31.2913 100.537 31.4575C100.343 31.4788 100.623 31.7336 100.337 31.7676C99.9769 31.8082 99.5996 31.8313 99.2145 31.8301C98.5669 31.8202 97.9556 31.7545 97.1701 31.4574C96.7772 31.2954 96.316 31.092 95.7715 30.5586C95.2229 30.0733 94.6887 28.8741 94.8359 27.961C94.8442 27.9137 94.8529 27.8668 94.8621 27.8203C94.9285 27.498 95.1029 27.7238 95.1682 27.6601C95.5624 27.2949 95.1455 26.6916 95.1508 26.6051C95.2731 24.5331 96.0953 23.2533 96.1428 21.4622C96.1476 21.3579 95.6918 20.6047 96.1754 20.3682C96.208 20.3571 96.71 20.0806 96.3794 19.8463C96.3583 19.8358 96.1121 19.9791 96.1345 19.7244C96.1635 19.4604 95.9205 19.1762 96.2181 19.2203C96.3365 19.23 96.7141 19.084 96.8646 19.5495C96.8629 19.5655 96.939 19.8389 97.0233 19.9876C96.7517 20.1049 96.5425 20.145 96.4461 19.8477C96.4189 19.7494 96.4802 19.1099 95.9712 19.4226C95.877 19.4847 96.043 19.6263 95.8015 19.714C95.4423 19.8499 94.9373 19.7132 94.5145 20.058C94.4378 20.1183 94.1793 20.5918 93.8456 20.3271C93.7927 20.2856 93.8342 20.0614 93.6822 20.0684C92.948 20.1045 92.2296 20.4578 91.445 20.5768C91.1681 20.6199 91.1827 20.2517 90.8767 20.2659C90.7153 20.275 90.4827 20.3136 90.2556 20.3905C90.0292 20.4679 89.817 20.5719 89.6945 20.702C89.4425 20.9703 89.981 21.3419 89.5356 21.5661C87.5727 22.5519 85.4628 23.0587 83.429 23.8437C83.1287 23.9596 83.4542 24.0363 83.0122 24.2223C81.4024 24.8987 78.6856 26.24 77.1343 26.4609C75.8903 26.6371 77.1892 25.8008 76.2854 26.0446C75.8455 26.1649 75.655 26.9388 75.5643 27.0002C74.6793 27.6084 73.8957 27.6492 73.0646 28.1162C72.8915 28.2135 73.1733 28.3681 73.0254 28.4481C72.5271 28.7209 71.9311 28.8656 71.4462 29.1105C71.2279 29.2214 71.3515 29.3803 71.1414 29.4602C70.6386 29.6539 70.1728 29.7788 69.6208 29.8336C69.5702 29.8387 69.7595 29.4815 69.3944 29.6418C69.1348 29.7562 68.834 29.8548 68.5302 29.9699C68.1273 30.124 67.6984 30.3066 67.3464 30.5759C67.1576 30.7199 67.3257 31.1365 66.747 31.0474C66.6252 31.0284 66.5374 30.4837 66.1875 31.1329C66.1264 31.2435 65.4614 32.1905 64.8625 31.9861C64.7072 31.9322 64.2507 31.6357 64.0162 31.7965C63.9848 31.8199 64.21 31.9929 64.0025 32.0948C63.2667 32.4505 62.45 32.7066 61.6656 33.0331C61.455 33.1209 61.8533 33.257 61.5355 33.3801C60.6616 33.719 59.4999 33.9721 58.5494 34.0947C58.1945 34.1401 58.3936 33.8871 58.3632 33.8707C57.8902 33.5969 57.7449 34.1221 57.6083 34.1754C56.771 34.4915 56.0591 34.3495 55.1443 34.4241C54.8879 34.441 55.0691 34.6755 55.0177 34.6965C54.4587 34.8914 54.8814 34.4798 54.529 34.4189C53.5943 34.1923 52.093 34.1912 50.6755 32.6155C50.2355 32.0318 50.4907 32.8788 50.1057 32.3032C49.8793 31.9304 49.7276 31.5614 49.622 31.1725C49.1426 29.303 49.2864 27.8435 49.4837 26.5134C49.5301 26.2367 49.7282 26.4258 49.7798 26.371C50.1395 25.9981 49.7331 25.3963 49.702 25.2627C49.559 24.6501 49.7677 24.4441 49.7876 23.9314C49.8884 21.4276 50.3903 18.5243 50.3845 16.5485C50.3995 15.2214 50.2163 14.1642 49.9458 13.7018C50.1088 13.9751 50.6692 14.341 50.9979 14.3715C51.3302 14.4234 51.4046 14.3706 51.3955 14.3728C51.3606 14.364 51.0729 14.453 50.7867 14.5788C50.3205 14.78 49.8426 14.9973 49.3476 15.2348C49.1868 15.3118 49.4666 15.4905 49.3291 15.5603C47.5297 16.4601 45.6808 17.2118 43.8712 18.1509C43.722 18.2278 44.0531 18.3644 43.8177 18.4957C43.339 18.7651 42.6978 19.0504 42.1594 19.2094C41.8956 19.2881 42.1301 18.9276 41.8664 19.0111C41.2543 19.2039 40.6258 19.4769 40.0504 19.7916C39.8052 19.9262 40.3013 19.9937 39.9734 20.1497C37.7449 21.2156 35.5483 22.2743 33.1057 22.9662C32.939 23.0131 32.5786 22.5711 32.2861 22.8137C32.3219 22.9646 32.395 23.1285 32.4491 23.2828C31.9545 23.5127 31.4551 23.7356 30.9559 23.9503C28.1525 25.1566 25.309 26.1872 22.4709 27.3294C22.3306 27.3859 22.6831 27.5557 22.4124 27.6664C20.8393 28.3098 19.3444 29.0097 17.6348 29.4005C17.4655 29.4397 17.35 28.933 16.912 29.1974C16.8368 29.2436 16.1551 29.599 16.0177 29.7764C15.9993 29.8022 16.2196 29.9698 15.9945 30.0705C14.6907 30.6496 13.2944 31.1733 11.9352 31.5939C11.7148 31.6618 11.8394 31.3317 11.6816 31.378C10.5643 31.7077 9.49246 32.3849 8.39335 32.6226C7.6586 32.7809 7.72544 32.2687 7.18902 32.0353C7.11353 32.0022 6.69117 32.1836 6.56491 31.9643C6.24546 31.4131 6.16118 30.6883 5.79684 30.1117C5.71823 29.9872 5.21726 30.3896 5.40591 29.916C5.4192 29.8838 5.78333 29.5892 5.83618 29.4343C5.87281 29.3271 5.63924 29.1514 5.7402 28.9897C5.84139 28.828 6.08931 28.9518 6.27927 28.7305C6.46793 28.5084 6.24237 28.2892 6.71102 28.0429ZM112.106 25.0423C111.629 25.0359 112.03 25.8412 112.302 25.4342C112.315 25.4136 112.13 25.0422 112.106 25.0423ZM152.636 19.6026C151.984 19.4971 151.949 20.1825 152.417 20.2756C152.877 20.3742 152.832 19.6361 152.636 19.6026ZM157.358 17.9159C157.226 17.7882 157.095 17.8553 157.039 17.9853C156.956 18.1419 156.966 18.3847 157.043 18.5218C157.081 18.6182 157.126 18.6632 157.213 18.6046C157.227 18.5917 157.38 17.9382 157.358 17.9159ZM8.80785 31.1779C8.7977 31.1693 8.49022 31.2923 8.48795 31.3063C8.44228 31.6379 9.05591 31.3923 8.80785 31.1779ZM162.229 19.8306C162.029 19.6656 161.448 19.8465 161.691 20.0678C161.896 20.2498 162.488 20.0406 162.229 19.8306ZM98.3046 22.6196C98.3191 22.6157 98.3713 22.3846 98.2959 22.3763C98.0534 22.3524 98.0648 22.6848 98.3046 22.6196ZM171.418 17.8483C170.103 18.0457 168.958 17.309 170.516 17.029C170.794 16.9862 170.001 17.4947 170.371 17.504C171.028 17.5249 171.343 16.8018 172.051 17.0549C172.174 17.1008 171.489 17.8371 171.416 17.8501C171.417 17.8495 171.418 17.8489 171.418 17.8483ZM111.36 24.2292C111.347 24.2232 111.057 24.3791 111.056 24.3933C111.046 24.729 111.63 24.415 111.36 24.2292ZM89.4822 18.2248C89.4773 18.2217 89.4479 18.2283 89.403 18.2415C89.208 18.2985 88.7284 18.4761 88.7172 18.501C88.5764 18.9166 89.2803 18.7655 89.5145 18.5224C89.6067 18.4267 89.6239 18.3178 89.4822 18.2248ZM132.48 17.3239C133.051 17.1653 133.767 17.7551 133.621 18.2806C133.397 17.854 132.946 17.4844 132.48 17.3239ZM5.58671 49.0478C6.67778 48.458 8.18338 47.8989 9.34928 47.5403C9.71106 47.4288 9.59518 47.649 9.84999 47.5782C10.3451 47.4413 10.7586 47.1894 11.2538 47.0704C11.4179 47.0319 11.3188 47.3428 11.4888 47.2971C12.4203 47.0449 13.2406 46.6563 14.1651 46.3605C16.7782 45.5256 19.3488 44.7032 21.9441 43.8894C23.885 43.2805 25.8491 42.7085 27.8499 42.1932C29.4024 41.7904 31.3401 41.5307 32.915 41.0611C33.0997 41.0056 32.9377 40.8164 32.9693 40.7903C33.4596 40.3895 33.3803 40.8664 33.7547 40.8406C34.5564 40.7841 35.4342 40.6616 36.1315 40.4772C36.5919 40.3508 37.0762 40.2553 37.6775 40.3049C38.2442 40.3339 39.1568 40.6854 39.5749 41.4602C39.7578 41.7905 39.8128 41.9462 39.878 42.0232C40.0325 42.1332 40.1778 41.8138 40.1081 42.3999C40.101 42.4519 39.837 42.319 39.8482 42.5142C39.8836 42.9589 39.9839 43.7974 39.9489 44.1431C39.8888 44.8028 39.8758 44.9119 39.7732 45.5186C39.6203 46.3506 39.1978 47.2298 38.909 48.0113C38.8476 48.1798 39.1649 48.06 39.0841 48.3395C39.0042 48.6229 38.6531 49.2819 38.4886 49.4695C38.3248 49.6601 38.2058 49.4792 38.1474 49.4972C37.6598 49.6394 37.7197 50.5898 37.6835 50.6845C37.1814 51.9375 36.5965 52.8761 36.3076 53.8493C36.2058 54.1639 36.1879 54.4952 36.2429 54.6519C36.2602 54.7059 36.2799 54.7319 36.2852 54.7336C36.4467 54.9136 36.6028 54.9748 36.9717 54.995C37.3309 55.0084 37.8022 54.9235 38.2599 54.8116C39.5371 54.4883 40.7509 54.0544 42.0384 53.3924C42.175 53.3216 41.8871 53.1495 42.0533 53.0625C42.9401 52.5972 43.8366 52.1185 44.7627 51.6674C45.698 51.2112 46.6578 50.8136 47.6409 50.4825C47.8395 50.4161 47.6942 50.7517 47.898 50.6994C49.1468 50.3647 51.1583 50.1206 51.5098 48.8553C52.3365 48.6054 53.3459 48.3206 54.144 48.3054C54.6578 48.2961 54.2768 48.6932 54.8231 48.4097C54.9468 48.3464 54.7091 48.1692 54.9005 48.0915C55.7066 47.7647 56.6403 47.5927 57.4418 47.2685C57.6051 47.2019 57.5082 47.0071 57.5473 46.9581C57.8796 46.5568 58.6759 46.899 58.8286 46.9037C60.0083 46.9254 60.8034 46.6576 61.8575 46.4799C62.102 46.4394 61.7646 46.2079 61.9988 46.1591C63.2162 45.9099 64.4996 45.757 65.7255 45.7575C65.9985 45.7585 65.775 46.0256 65.9062 46.0386C66.4783 46.0954 66.5685 45.6267 67.1198 45.6826C67.2374 45.6941 67.1876 45.9065 67.2104 45.9277C67.565 46.2607 67.8119 45.7364 67.8964 45.7201C68.9621 45.5051 69.6671 46.0147 70.6952 45.9427C70.8139 45.9344 70.5618 45.6877 70.8534 45.6627C70.8715 45.6618 70.8908 45.6615 70.9115 45.6617C71.8863 45.6096 72.8884 46.4509 73.2021 47.13C73.576 47.8224 73.7223 48.4619 73.8482 49.0719C74.0833 50.2923 74.16 51.4273 74.3109 52.484C74.3587 52.8102 74.1105 52.632 74.0916 52.6574C73.9889 52.8099 73.9963 52.9219 74.0489 53.0023C74.1382 53.1273 74.3725 53.1295 74.403 53.1688C74.7219 53.629 75.107 54.3823 75.8362 54.0476C76.4019 54.3575 77.1126 54.5498 77.8519 54.6819C80.478 55.1875 83.1985 53.9487 86.1492 53.3914C86.1966 53.3815 86.1993 53.6469 86.2923 53.6265C87.4245 53.3799 87.0865 53.0841 87.6581 52.3832C87.8046 52.2061 88.5444 52.5666 88.6086 52.5903C88.8383 52.6784 88.7688 53.0953 88.8387 53.104C89.4039 53.1677 88.9399 52.0168 89.6222 51.7994C89.6443 51.7945 89.6227 52.0401 89.6871 52.0435C89.8842 52.0557 90.0308 51.9152 90.2292 51.936C90.5404 51.9711 90.7818 52.2368 91.0725 52.2285C91.2023 52.2251 91.3406 52.1665 91.4975 52.0071C91.5609 51.9415 91.2474 51.3014 91.8614 51.1576C92.1101 51.0988 93.1776 50.7838 93.4929 50.7449C93.8053 50.7058 93.6591 50.9807 93.6832 50.9842C94.5695 51.051 94.2985 51.2541 94.817 51.5724C95.3335 51.8904 94.949 50.905 95.0858 50.7472C95.2239 50.5891 95.8812 50.6723 96.0465 50.7186C96.215 50.7638 96.0674 50.9501 96.2102 50.9635C97.151 51.0506 96.4603 50.3611 96.7038 50.1272C97.2822 49.5744 97.9924 50.204 98.6248 50.1326C98.7952 50.1135 98.6192 49.9726 98.7629 49.9217C99.3407 49.721 99.7436 49.878 100.369 49.5106C100.467 49.4513 100.918 48.8725 101.34 49.135C101.4 49.1731 101.3 49.3928 101.558 49.3826C101.953 49.3656 102.636 49.2693 103.03 49.126C103.318 49.0205 102.913 48.7733 103.311 48.7972C103.489 48.8081 103.211 49.0525 103.541 49.0579C103.866 49.0637 104.668 48.9073 104.97 48.8482C105.277 48.7875 105.067 48.578 105.089 48.5574C105.223 48.4381 105.789 48.2235 105.844 48.2151C108.477 47.7728 110.942 47.7935 113.606 47.7591C113.825 47.7647 113.7 47.4989 113.733 47.4971C114.365 47.4714 114.038 47.8744 114.136 48.1759C114.161 48.2488 114.208 48.3171 114.289 48.3783C114.316 47.8621 114.612 47.9734 115.155 48.1604C115.417 48.2618 115.378 48.0179 115.41 48.0104C115.977 47.9719 115.988 48.5361 115.972 48.6329C115.954 49.0268 116.394 49.0427 116.326 49.3121C116.24 49.5567 115.814 49.3905 116.035 49.7887C116.265 49.8347 116.528 49.2613 116.778 49.6029C117.732 50.8882 117.205 53.6005 117.538 54.1177C117.57 54.166 117.602 54.2091 117.633 54.2471C118.209 54.8629 118.586 54.8524 119.105 55.0313C120.13 55.2623 119.777 54.853 120.403 54.6811C121.035 54.4749 120.799 55.3768 120.911 55.5607C121.028 55.7416 121.122 55.5347 121.253 55.625C121.389 55.7145 121.135 55.8757 121.433 55.8792C121.74 55.8853 122.476 55.4158 122.537 55.1983C122.667 54.742 122.241 54.3775 123.002 54.3812C123.046 54.3813 122.957 54.6387 123.124 54.6275C124.453 54.5279 125.807 54.175 127.135 53.9787C127.32 53.9514 127.228 54.2455 127.337 54.2324C128.457 54.0981 127.954 53.7817 128.418 53.1503C128.457 53.811 128.887 54.1029 129.703 53.8854C130.198 53.7546 130.035 53.5057 130.303 53.2278C130.385 53.1439 130.781 53.2396 130.811 53.0946C130.908 52.62 130.457 52.2338 131.355 52.2015C131.395 52.2008 131.335 52.4617 131.467 52.4426C131.576 52.4271 131.671 52.4061 131.755 52.3808C132.36 52.2107 132.477 51.8134 133.353 51.6625C134.146 51.5174 135.569 51.8415 136.415 52.0972C136.256 52.8011 137.023 52.8187 137.515 52.4726C138.048 52.6829 138.625 52.926 139.064 53.2673C139.215 53.3851 138.998 53.5013 139.007 53.5331C139.041 53.6729 139.101 53.7497 139.172 53.7887C139.351 53.8881 139.607 53.7555 139.685 53.7917C140.858 54.3596 141.441 55.2947 142.581 55.8482C142.62 55.8673 143.019 55.5456 143.006 56.0411C143.003 56.0737 142.554 55.964 142.957 56.3713C143.359 56.7699 143.914 57.7642 144.63 58.0318C144.752 58.0774 145.073 58.04 145.234 58.0959L144.68 58.093C144.783 58.0459 144.902 58.0295 145.04 58.0718C145.103 58.0918 145.11 58.2469 145.209 58.2919C145.533 58.4314 145.44 57.9138 145.872 58.195C146.307 58.4742 146.988 58.5187 147.564 57.8998C147.583 57.8806 147.573 57.4341 147.794 57.33C148.153 57.1615 148.687 56.9807 149.055 56.7836C149.227 56.6908 148.999 56.5271 149.027 56.5072C150.13 55.7623 151.063 55.5013 152.349 54.8816C152.587 54.7678 153.064 54.0982 153.637 54.0785C154.265 54.0557 154.395 55.4109 155.351 54.5088C155.738 54.1447 155.501 52.4662 156.709 52.6903C158.148 51.5983 159.781 51.0961 161.176 49.9294C161.24 49.8767 161.237 49.3699 161.402 49.2788C161.648 49.1435 161.89 49.2381 162.068 49.148C162.828 48.7706 163.405 48.2312 164.126 47.8513C164.403 47.7056 164.415 47.9415 164.739 47.7727C165.068 47.602 165.138 47.2438 165.652 47.1191C166.026 47.0342 166.626 47.359 167.094 47.1997C167.009 47.0153 166.995 46.8793 167.033 46.7631C167.102 46.5611 167.347 46.4167 167.663 46.1716C167.759 46.0974 167.564 45.9706 167.606 45.9263C167.773 45.7419 168.03 45.8053 168.184 45.6194C168.222 45.5744 168.148 45.3976 168.175 45.3507C168.401 44.9451 169.128 45.1109 169.251 45.1425C169.724 45.2585 169.804 44.9599 170.128 44.9556C170.45 44.953 170.079 45.2442 170.432 45.1831C171.161 45.0573 172.029 44.7277 172.737 44.5263C173.018 44.4452 172.755 44.2568 172.793 44.2395C173.365 44.0025 174.026 44.1147 174.239 43.5412C174.951 44.7289 174.569 43.3252 175.493 43.4118C175.566 43.4198 175.763 44.0158 175.527 44.1541C175.291 44.2925 174.867 44.1824 174.548 44.4038C174.47 44.4551 174.143 45.137 174.092 45.1878C173.674 45.5826 173.355 44.7097 173.313 44.6674C172.858 44.2211 172.46 45.0003 172.327 45.0895C171.707 45.4967 171.092 45.5781 170.58 45.9242C170.246 46.1503 170.435 46.7314 170.146 46.8266C169.192 47.1468 168.517 46.5154 167.933 47.5849C167.826 47.7815 168.153 48.1938 167.682 48.1989L167.728 48.177C167.656 48.1774 167.562 48.1678 167.439 48.1472C167.384 48.1368 166.687 47.9556 166.545 48.3758C166.529 48.4278 166.622 48.5984 166.584 48.637C166.327 48.895 166.051 48.8697 165.748 49.1233C165.451 49.3733 165.102 49.6986 164.686 49.8619C164.432 49.9628 163.961 49.8181 163.802 49.8083C163.359 49.771 163.237 50.3283 162.885 50.1772C162.533 50.0247 162.675 49.3928 162.06 49.5236C162.298 49.9689 162.518 50.4403 162.746 50.8948C161.612 51.546 160.428 52.0685 159.309 52.7659C159.171 52.8527 159.454 52.9992 159.309 53.0984C158.696 53.516 158.044 53.6818 157.422 54.142C156.943 54.4983 156.527 55.0789 156.025 55.4583C155.403 55.1547 154.704 55.7912 154.093 56.0829C153.879 56.1851 153.816 56.0436 153.645 56.0834C153.003 56.2372 153.513 56.5323 153.402 56.6884C152.922 57.3552 152.297 56.3835 151.544 56.8353C151.503 56.8593 151.304 57.6718 151.25 57.7447C150.927 58.2052 151.074 57.597 150.776 57.7067C150.233 57.9059 149.817 57.962 149.299 58.4346C149.153 58.5706 148.898 59.1328 148.424 59.0374C148.362 59.025 148.296 58.8307 148.255 58.8379C147.502 58.989 147.772 59.5661 147.474 59.9479C147.184 60.3257 146.385 60.2009 146.213 60.1365C145.754 59.9782 146.406 59.8983 146.406 59.8617C146.45 59.4207 146.046 59.6766 145.693 59.7914C145.544 59.511 145.357 59.431 145.258 59.4763L144.925 59.6047L144.641 59.4731C144.508 59.4196 144.336 59.4951 144.335 59.804C144.336 59.8278 144.387 59.8607 144.46 59.8934L144.908 60.1012L145.435 59.8983C145.522 59.8639 145.642 59.7931 145.693 59.7914C145.68 59.9638 145.639 60.1115 145.574 60.2309L144.895 60.4923L144.318 60.2245C143.663 60.2257 143.149 59.74 143.074 59.0853C143.028 58.6742 143.438 58.6398 142.735 58.1111C142.423 57.8752 142.225 58.2859 141.905 58.1354C141.181 57.7952 140.764 56.8671 140.13 56.4421C139.903 56.2901 139.963 56.6401 139.803 56.5433C139.381 56.2923 139.139 55.8943 138.68 55.6886C138.638 55.6707 138.588 55.9354 138.461 55.8527C138.31 55.7555 138.17 55.6626 138.024 55.5649C137.365 55.1214 136.721 54.7142 135.871 54.5239C135.383 54.4042 134.488 54.477 133.966 54.4943C133.467 54.4983 132.88 54.4686 132.3 54.5255C131.757 54.5883 131.244 54.6697 130.836 54.819C130.244 55.0348 130.444 55.2379 130.227 55.4708C129.816 55.9198 128.768 55.6006 128.624 55.546C128.619 55.5443 129.13 55.344 128.815 55.2985C128.582 55.0881 128.63 55.5433 128.624 55.546C128.534 55.5103 127.462 55.7454 127.267 55.8468C127.161 55.9023 127.285 56.1115 127.227 56.1364C125.866 56.7191 124.432 57.1654 122.841 57.3506C122.812 57.3511 122.807 57.0857 122.74 57.0899C121.813 57.1354 121.265 57.5332 120.411 57.762C119.556 57.9888 118.698 57.8364 118.205 57.2453C117.43 57.1587 116.296 56.28 115.96 55.6162C115.916 55.5431 115.873 55.4807 115.83 55.4273C115.563 55.071 115.423 54.9422 115.275 54.8647C115.137 54.7944 115.027 54.785 115.011 54.7532C114.528 53.693 114.569 53.248 114.546 52.7398C114.544 52.2587 114.595 51.813 114.533 51.3543C114.506 51.1388 114.417 50.8521 114.317 50.6944C114.214 50.5294 114.139 50.5147 114.102 50.5185C114.047 50.5331 114.053 50.3928 113.858 50.4275C113.832 50.4328 113.812 50.6603 113.803 50.6675C113.779 50.6939 113.759 50.7109 113.742 50.72C113.573 50.7877 113.718 50.3565 113.67 50.262C113.437 49.8765 113.211 49.6667 112.609 49.8409C112.463 49.8804 112.079 50.6915 111.835 50.7522C111.504 50.8301 111.612 50.5362 111.264 50.6297C111.235 50.6377 111.252 50.8131 111.032 50.8226C110.017 50.8696 108.858 50.9071 107.772 51.0843C107.622 51.1081 107.855 51.3571 107.64 51.3963C106.635 51.579 105.534 51.7572 104.524 51.8132C104.277 51.8257 104.392 51.6045 104.328 51.557C103.94 51.2712 103.574 51.8652 103.503 51.8894C101.746 52.4906 100.273 52.3431 98.489 53.0018C98.3943 53.0377 97.7575 53.7606 97.3054 53.3897C97.2757 53.3649 96.8148 52.9844 96.5994 53.3808C96.5861 53.4056 96.8573 53.5916 96.4863 53.6617C96.113 53.7326 95.5688 54.0481 94.9933 53.9222C94.8088 53.8834 94.3096 53.521 93.9345 54.0242C93.9063 54.0595 93.4201 55.0977 92.9923 54.5993C92.9229 54.5171 92.7903 53.8956 92.3172 54.3718C92.2271 54.4638 92.4625 54.5418 92.2033 54.7098C92.1013 54.7762 91.9842 54.8262 91.8584 54.8714C91.5002 55.0002 91.0771 55.0883 90.755 55.4099C90.6748 55.4874 90.4271 56.017 90.0125 55.81C89.9481 55.7774 89.9743 55.5463 89.8034 55.5776C88.9875 55.7264 88.2099 56.1448 87.3553 56.2896C87.0552 56.3404 87.0849 55.968 86.7555 55.9866C86.4264 56.0052 85.7882 56.1354 85.517 56.3931C85.2449 56.6511 85.7784 57.0449 85.3007 57.2527C83.263 58.128 80.6121 58.6376 77.8146 58.2457C77.4392 58.1906 77.6781 58.3927 77.2381 58.3526C77.206 58.3497 77.1696 58.3449 77.1278 58.338C76.36 58.203 75.3066 58.0446 74.0683 57.4665C72.8627 56.957 71.2977 55.5045 70.98 53.8586C70.865 53.2901 70.8273 52.8042 70.845 52.4135C70.925 51.0843 71.4763 52.6175 71.428 51.6413C71.4076 51.1761 70.7017 50.8236 70.6629 50.7274C70.2924 49.8102 70.3808 49.0519 70.1547 48.8212C70.1223 48.8003 69.9121 48.9497 69.8988 48.9512C69.8823 48.9628 69.9706 49.0837 70.1942 49.2027C70.4154 49.3254 70.7058 49.3563 70.8153 49.3532C70.7794 49.3531 70.7436 49.3536 70.708 49.3548C70.4825 49.3636 70.5239 49.5597 70.3154 49.5451C69.8178 49.5136 69.3752 49.4422 68.8725 49.2794C68.8263 49.2647 69.1222 49.0081 68.7441 49.0153C68.1365 49.0281 67.36 48.8986 66.6694 49.1504C66.4651 49.2261 66.5038 49.6709 66.0234 49.4099C65.9227 49.356 65.9837 48.8068 65.5124 49.3278C65.4293 49.4136 64.6382 50.1423 64.1569 49.805C64.0305 49.7155 63.6729 49.3229 63.4327 49.4302C63.4005 49.4464 63.5729 49.663 63.3696 49.7184C62.6492 49.9105 61.8836 50.0199 61.1506 50.2413C60.956 50.3009 61.2997 50.4863 61.0091 50.5674C60.2096 50.7909 59.1876 50.9557 58.3818 51.0763C58.084 51.1203 58.2349 50.8703 58.2084 50.8537C57.7776 50.5853 57.6978 51.1155 57.5932 51.1725C56.9381 51.5223 56.3471 51.4479 55.7236 51.6961C55.5521 51.7641 55.7442 51.952 55.7151 51.9825C55.4122 52.2871 55.5603 51.802 55.317 51.8272C54.6342 51.8972 53.9233 52.1475 53.2903 52.398C53.058 52.4905 53.412 52.6559 53.2034 52.7359C51.9715 53.2149 50.6923 53.6863 49.4572 54.0628C49.2243 54.1335 49.2791 53.8805 49.2136 53.857C48.7572 53.6909 48.4795 54.3213 48.3938 54.4098C47.9987 54.8141 47.7325 54.7373 47.3295 54.9759C47.1189 55.1015 46.9035 55.2281 46.6849 55.3556C44.7533 56.4662 42.3675 57.6983 40.0028 58.4011C39.1132 58.6533 38.1958 58.864 37.0314 58.8196C35.9199 58.8133 34.2338 58.2099 33.3896 56.9953C32.2766 55.365 32.5457 54.087 32.7365 53.0621C32.9286 52.2435 33.212 51.4888 33.5193 50.7743C33.6031 50.5819 33.2612 50.6595 33.3316 50.491C34.2712 48.3563 35.411 46.8522 35.7347 45.4223C35.7612 45.309 35.4624 45.3925 35.493 45.215C35.5532 44.8511 35.6314 44.4565 35.7248 44.1419C35.7696 43.9853 35.9916 44.2071 36.0311 44.0415C36.1102 43.698 36.0923 43.318 35.9797 42.9551C35.9985 43.0482 36.0321 43.1645 36.0908 43.2929C36.207 43.5252 36.1268 43.5124 36.0344 43.5028C35.955 43.4927 35.8405 43.5024 36.115 43.8464C36.3648 44.1369 36.6821 44.3162 36.8921 44.3922C37.1075 44.4713 37.2359 44.4804 37.3074 44.4861C37.4478 44.4908 37.4019 44.4827 37.3428 44.5051C35.2423 45.0822 33.6998 45.3268 31.8537 45.5352C31.693 45.551 31.4099 45.0554 31.0997 45.2445C31.1124 45.3988 31.1588 45.5722 31.1886 45.7329C28.5716 46.4825 25.9581 47.1671 23.3586 47.9972C22.6468 48.2248 21.9417 48.4563 21.2348 48.6996C21.0951 48.7477 21.4337 48.9369 21.1625 49.032C19.5935 49.5834 18.109 50.2104 16.4216 50.539C16.2537 50.5724 16.1507 50.063 15.7165 50.3114C15.6375 50.3563 14.9657 50.6875 14.8246 50.862C14.8064 50.887 15.0192 51.061 14.7984 51.1542C13.5081 51.6944 12.1353 52.1869 10.7997 52.5904C10.5824 52.6559 10.7048 52.3279 10.5493 52.3725C9.45326 52.6879 8.40376 53.3601 7.3355 53.6024C6.61884 53.766 6.67259 53.255 6.13758 53.03C6.0636 52.9972 5.65368 53.186 5.52091 52.9708C5.18557 52.4291 5.0804 51.7072 4.70065 51.1407C4.61554 51.0194 4.12628 51.4383 4.30021 50.9586C4.31275 50.9256 4.67203 50.6187 4.7236 50.4618C4.75942 50.3528 4.51877 50.1843 4.61878 50.0187C4.71537 49.8551 4.97342 49.9698 5.15781 49.7458C5.34807 49.5179 5.11364 49.3043 5.58671 49.0478ZM115.623 52.7723C115.833 52.3451 114.934 52.3615 115.184 52.7817C115.197 52.8027 115.612 52.7948 115.623 52.7723ZM160.083 51.4857C159.426 51.4184 159.413 52.105 159.892 52.174C160.369 52.2439 160.284 51.5051 160.083 51.4857ZM164.663 48.4524C163.972 48.4866 164.525 49.6364 164.963 49.0905C164.99 49.0588 164.704 48.4502 164.663 48.4524ZM7.7147 52.1611C7.70443 52.1525 7.4051 52.2753 7.40168 52.29C7.36268 52.6206 7.96215 52.3741 7.7147 52.1611ZM169.367 45.8026C169.124 45.7152 168.689 46.1146 168.993 46.2188C169.234 46.3027 169.668 45.9104 169.367 45.8026ZM98.7422 50.5549C98.733 50.5433 98.5019 50.5858 98.5239 50.6583C98.5962 50.8913 98.8969 50.7494 98.7422 50.5549ZM178.218 43.5282C176.885 43.5934 175.876 42.6963 177.417 42.6178C177.693 42.6084 176.865 43.0184 177.224 43.0723C177.867 43.1721 178.243 42.4786 178.919 42.8005C179.034 42.8579 178.29 43.5242 178.216 43.5299C178.217 43.5293 178.217 43.5288 178.218 43.5282ZM116.677 52.4484C116.688 52.4383 116.672 52.1135 116.659 52.1068C116.36 51.9581 116.394 52.6095 116.677 52.4484ZM85.4079 53.9112C85.3829 53.8936 84.6625 54.1183 84.647 54.1475C84.4244 54.7175 85.8876 54.2633 85.4079 53.9112ZM136.425 52.1191C136.859 51.9183 137.349 52.0288 137.513 52.4717C137.162 52.3262 136.795 52.218 136.425 52.1191ZM7.65859 82.1944C8.59081 81.5059 9.94302 80.7706 11.0042 80.2829C11.337 80.1292 11.2605 80.3582 11.4925 80.2598C11.9454 80.0682 12.3084 79.7713 12.7661 79.5991C12.9183 79.5428 12.8671 79.8601 13.024 79.796C13.8827 79.4441 14.6187 78.9742 15.4718 78.5908C18.2679 77.3359 21.0498 76.1747 23.9101 75.1254C25.3489 74.598 26.818 74.0987 28.3231 73.6624C29.8012 73.2304 31.6964 72.9602 33.2705 72.5796C33.4576 72.534 33.3062 72.3365 33.3391 72.3121C33.8551 71.9403 33.7419 72.4128 34.1198 72.414C35.611 72.4201 37.2503 72.3411 38.6708 72.3097C39.2772 72.2965 38.6891 71.8311 39.2877 72.1071C39.3287 72.126 39.1641 72.3521 39.3266 72.3861C39.6952 72.4616 40.3907 72.4752 40.6655 72.5189C41.1972 72.603 41.2836 72.6102 41.7733 72.6545C42.0988 72.6844 42.4441 72.7393 42.7914 72.7778C43.133 72.8073 43.5115 72.8828 43.9135 73.126C44.3073 73.3599 44.6127 73.7605 44.7661 74.095C44.8893 74.3817 44.9832 73.9081 45.1732 74.3732C45.3795 74.8798 45.3083 75.8282 45.2085 76.0709C45.1156 76.341 44.9437 76.191 44.8943 76.2328C44.4856 76.5505 44.7821 77.4564 44.7614 77.5677C44.4465 79.4951 43.5731 80.8306 43.0909 82.3772C42.9478 82.8389 42.8285 83.3267 42.7862 83.7203C42.8283 83.5996 42.7303 83.4225 42.7552 83.4516C42.7758 83.4616 42.8937 83.5233 43.0386 83.553C43.1109 83.5692 43.1847 83.5833 43.2595 83.5956C44.2619 83.7512 45.4576 83.5847 46.7344 83.1705C46.8708 83.1257 46.6257 82.906 46.7918 82.8504C48.008 82.4392 49.2606 81.9789 50.5481 81.5884C51.123 81.4128 51.6824 81.2581 52.2643 81.1136C52.4552 81.0666 52.3007 81.3849 52.496 81.3521C53.6749 81.1494 55.6216 81.0031 55.9386 79.7585C56.7229 79.5406 57.6675 79.2779 58.4142 79.2679C58.9016 79.2594 58.5528 79.6547 59.0634 79.371C59.1784 79.3076 58.9472 79.1322 59.125 79.0542C59.8671 78.7283 60.7408 78.5387 61.4799 78.1878C61.6286 78.1163 61.5246 77.9258 61.5578 77.8759C61.8348 77.4687 62.6178 77.7711 62.7584 77.7688C63.8735 77.731 64.5941 77.4127 65.5661 77.1515C65.7915 77.0912 65.4501 76.8892 65.6641 76.8215C66.7767 76.4739 67.9507 76.1913 69.0879 76.0388C69.3436 76.005 69.1736 76.2977 69.2984 76.2937C69.8423 76.2754 69.8493 75.8014 70.372 75.7782C70.4811 75.7731 70.4704 75.9895 70.4948 76.0072C70.8677 76.2871 71.0254 75.7285 71.0974 75.7003C72.0446 75.3239 72.7795 75.705 73.7123 75.434C73.8263 75.4007 73.5111 75.1969 73.8356 75.1192C75.3609 74.7558 76.9844 74.4727 78.6232 74.3792C79.3584 74.3342 80.0805 74.4417 80.7287 74.6501C81.0884 74.7699 80.7774 74.8983 80.7962 74.9276C81.0546 75.3845 81.4177 74.9747 81.545 74.9985C82.5058 75.1972 83.0169 76.0005 83.8672 75.837C84.0657 75.9855 84.2595 76.1367 84.4492 76.2902C87.3458 78.5493 89.2325 81.8667 90.2323 84.9202C90.2485 84.9596 89.9934 85.0231 90.0277 85.1023C90.252 85.6202 90.4718 85.6887 90.6341 85.6041C90.8262 85.5685 91.0351 85.4721 91.3615 85.4016C91.5208 85.3604 91.706 86.0597 91.7519 86.1147C91.8529 86.313 91.5763 86.6148 91.6189 86.6608C92.0322 87.0324 92.2639 85.8225 92.7887 85.9038C92.8063 85.9082 92.7024 86.1241 92.7469 86.1528C92.889 86.2432 93.0501 86.167 93.1962 86.2534C93.5288 86.4485 93.6928 87.0572 94.2532 86.6688C94.3202 86.6155 94.1643 85.9351 94.6993 85.9049C94.9138 85.9014 95.8747 85.7079 96.1583 85.6776C96.4401 85.6557 96.3085 85.9204 96.3297 85.9254C97.1482 86.0243 96.9026 86.2133 97.4031 86.5328C97.9129 86.8426 97.508 85.8646 97.6223 85.7073C97.7377 85.5508 98.3563 85.6087 98.5205 85.6421C98.6839 85.677 98.5605 85.8709 98.6976 85.8753C99.5943 85.8986 98.8737 85.2608 99.0727 85.013C99.5412 84.423 100.28 84.9737 100.869 84.8214C101.025 84.7811 100.838 84.6649 100.964 84.5963C101.471 84.3237 101.877 84.419 102.389 83.9609C102.474 83.8856 102.769 83.2503 103.216 83.4319C103.279 83.4584 103.231 83.6911 103.471 83.6345C103.834 83.549 104.451 83.3248 104.78 83.1081C105.025 82.947 104.591 82.7889 104.966 82.7317C104.976 82.7302 104.984 82.7298 104.991 82.7303C105.059 82.7346 105.038 82.8159 105.057 82.8774C105.06 82.8873 105.063 82.8968 105.069 82.9053C105.091 82.9392 105.137 82.9584 105.242 82.937C105.553 82.8731 106.259 82.5523 106.52 82.4303C106.782 82.3078 106.539 82.1492 106.554 82.1248C106.638 81.9853 107.123 81.6444 107.167 81.6255C109.459 80.5886 111.754 80.0465 113.955 78.9803C114.126 78.8979 113.911 78.71 113.936 78.695C114.494 78.3466 114.282 79.1722 114.798 79.2049C114.536 78.7509 114.829 78.7309 115.231 78.5034C115.424 78.3937 115.237 78.2533 115.248 78.2266C115.427 77.8221 115.804 78.0947 115.888 78.1476C116.206 78.3385 116.294 77.9237 116.506 78.0522C116.716 78.1797 116.513 78.577 116.916 78.4098C116.959 78.1917 116.478 77.8619 116.754 77.6652C117.83 76.905 120.189 76.3943 121.161 76.0782C122.144 75.7548 122.446 75.6115 123.021 75.4783C124.09 75.2321 123.585 75.0269 124.177 74.6512C124.754 74.2844 124.733 75.2277 124.882 75.379C125.033 75.53 125.071 75.311 125.215 75.3747C125.357 75.4388 125.16 75.639 125.429 75.5933C125.697 75.5467 126.306 75.0035 126.352 74.7826C126.432 74.3186 125.975 73.9882 126.728 73.9321C126.773 73.9292 126.702 74.1921 126.867 74.1694C128.149 73.9959 129.466 73.6777 130.781 73.7236C130.958 73.7321 130.822 74.0029 130.922 74.0115C131.903 74.1256 131.616 73.7771 132.126 73.3615C132.167 73.3341 132.213 73.3076 132.266 73.2829C132.035 73.9243 132.348 74.2665 132.87 74.6063C133.19 74.8441 133.316 74.5949 133.681 74.6905C133.796 74.7236 133.846 75.1162 133.986 75.0951C134.458 75.0455 134.728 74.4724 134.995 75.4132C135.003 75.453 134.735 75.4418 134.78 75.5704C135.039 76.4017 135.491 76.3538 135.797 77.2461C136.032 77.9481 135.992 79.2369 136.077 80.0173C135.358 80.1248 135.646 80.8277 136.192 81.0372C136.258 81.5396 136.383 82.0653 136.418 82.5471C136.431 82.7135 136.202 82.654 136.184 82.6792C136.132 82.754 136.108 82.8184 136.105 82.8737C136.093 83.1116 136.455 83.1365 136.496 83.19C136.751 83.5518 137 83.843 137.338 84.1027C137.661 84.3641 138.21 84.4482 138.744 84.2045C138.781 84.1874 138.786 83.6847 139.09 84.0152C139.115 84.0366 138.796 84.3168 139.297 84.2594C139.791 84.2039 140.822 84.2068 141.447 83.7492C141.599 83.6404 141.882 83.1111 142.332 83.289C142.393 83.3133 142.392 83.468 142.486 83.5197C142.782 83.6859 142.719 83.1648 143.124 83.477C143.522 83.7917 144.161 83.8973 144.755 83.3407C144.774 83.3239 144.787 82.8837 145.009 82.8024C145.371 82.6701 145.888 82.5531 146.253 82.4035C146.425 82.3326 146.22 82.1439 146.249 82.1275C147.367 81.525 148.287 81.3927 149.581 80.9833C149.815 80.9101 150.358 80.3269 150.903 80.4059C151.507 80.4901 151.443 81.8362 152.464 81.1295C152.872 80.8477 152.907 79.1592 154.009 79.6183C155.541 78.8414 157.163 78.7162 158.694 77.9159C158.765 77.8794 158.859 77.3895 159.033 77.3401C159.291 77.2676 159.494 77.4177 159.682 77.3727C159.78 77.3497 159.877 77.3236 159.972 77.295C160.633 77.0979 161.24 76.8214 161.921 76.7356C162.213 76.7006 162.146 76.9228 162.49 76.8902C162.836 76.8608 163.044 76.5598 163.53 76.6655C163.898 76.7479 164.263 77.3059 164.722 77.3732C164.74 76.8129 165.065 76.8228 165.65 76.6932C165.762 76.6681 165.649 76.4691 165.702 76.4472C165.921 76.3536 166.115 76.5231 166.324 76.4219C166.374 76.3976 166.384 76.2063 166.426 76.1757C166.784 75.9085 167.327 76.3596 167.424 76.4365C167.788 76.7312 167.967 76.4841 168.25 76.5952C168.536 76.7044 168.109 76.8496 168.446 76.9133C169.149 77.0468 170.072 76.9297 170.779 76.7495C171.061 76.6769 170.801 76.4815 170.84 76.4654C171.028 76.3905 171.224 76.3463 171.409 76.2908C171.747 76.1478 172.031 75.99 172.057 75.5968C173.04 76.5705 172.289 75.2957 173.202 75.1929C173.276 75.1873 173.56 75.743 173.385 75.912C173.212 76.0797 172.812 76.0598 172.577 76.3504C172.525 76.4165 172.384 77.1584 172.334 77.2241C172.218 77.3902 172.077 77.414 171.948 77.3675L171.824 77.4209C171.564 77.3049 171.394 76.9122 171.365 76.8865C170.898 76.4674 170.482 77.2071 170.31 77.2787C169.594 77.6102 168.94 77.5109 168.334 77.6605C167.937 77.7548 167.889 78.3621 167.572 78.3374C166.536 78.2484 166.231 77.3701 165.297 78.0836C165.101 78.2379 165.278 78.9019 164.612 78.3751C164.573 78.3411 164.062 77.8668 163.788 78.1845C163.754 78.2243 163.764 78.4181 163.72 78.4367C163.419 78.5582 163.203 78.419 162.882 78.5274C162.56 78.6364 162.193 78.8014 161.821 78.8081C161.596 78.8113 161.233 78.5249 161.103 78.4668C160.798 78.3253 160.6 78.6417 160.387 78.6229C160.338 78.6202 160.288 78.6024 160.237 78.5625C159.937 78.3313 160.201 77.7537 159.597 77.7339C159.729 78.2212 159.84 78.7292 159.961 79.2227C158.788 79.5767 157.587 79.8068 156.427 80.2374C156.284 80.2912 156.521 80.4952 156.37 80.5593C155.734 80.8292 155.106 80.8502 154.45 81.1738C153.954 81.4211 153.476 81.907 152.965 82.1797C152.423 81.7681 151.685 82.2628 151.085 82.4424C150.875 82.5054 150.829 82.3579 150.664 82.3689C150.043 82.4143 150.49 82.786 150.369 82.9202C149.847 83.4963 149.371 82.4436 148.609 82.7804C148.567 82.7986 148.31 83.5654 148.251 83.6307C147.907 84.0389 148.097 83.4616 147.808 83.5292C147.287 83.6498 146.883 83.655 146.361 84.0586C146.21 84.1768 145.943 84.6971 145.497 84.5545C145.439 84.5357 145.388 84.337 145.349 84.3398C144.636 84.4076 144.852 85.0085 144.557 85.3543C144.259 85.7019 143.519 85.5064 143.358 85.4287C142.94 85.2311 143.545 85.2111 143.552 85.1731C143.614 84.7402 143.22 84.9584 142.882 85.0445C142.621 84.4731 142.189 84.664 142.534 85.1345C142.572 85.1859 142.806 85.0416 142.882 85.0445C142.803 85.7254 142.309 85.9836 141.556 85.6153C141.207 85.4375 141.377 85.0707 140.591 85.4049C140.216 85.5537 140.474 85.9351 140.145 86.1301C139.365 86.5543 138.12 86.4211 136.852 85.9894C136.392 85.8065 136.739 86.2317 136.4 86.0884C136.298 86.0415 136.2 85.9871 136.107 85.9265C135.563 85.5737 135.164 85.0229 134.721 84.4051C134.675 84.3389 134.554 84.6363 134.418 84.3877C134.238 84.0516 134.115 83.7007 134.04 83.3618C133.822 82.3273 133.792 81.4172 133.623 80.4183C133.525 79.829 133.206 78.8464 133.099 78.3013C132.938 77.3549 132.863 76.1539 132.455 75.8334C132.218 75.6519 132.098 75.9041 131.958 76.0023C131.795 76.1662 131.958 76.0087 131.875 75.8105C131.789 75.7173 131.706 75.6338 131.683 75.6038C131.68 75.6007 131.865 75.583 131.904 75.5259C131.909 75.5124 131.912 75.4969 131.909 75.4791C131.902 75.4639 131.889 75.4466 131.864 75.4274C131.768 75.1537 131.684 75.6029 131.683 75.6038C131.647 75.5285 130.824 75.5022 130.641 75.5833C130.549 75.6201 130.63 75.8464 130.582 75.8614C129.453 76.2166 128.21 76.6069 126.895 76.887C126.871 76.8895 126.83 76.628 126.773 76.6371C125.999 76.7508 125.596 77.221 125.055 77.6038C124.495 77.994 123.982 78.1085 123.477 77.8113C123.024 78.0331 122.3 78.0873 121.859 78.1236C121.44 78.1516 121.563 78.651 121.534 78.6728C120.588 79.3767 119.89 79.3356 118.77 79.7314C118.25 79.9135 117.251 80.3969 116.702 80.6827C116.275 80.9062 115.974 80.9013 115.588 81.1439C115.536 81.1766 115.68 81.3629 115.666 81.3781C115.307 81.8217 115.317 81.2163 115.185 81.1637C114.712 80.97 114.432 80.8786 113.905 81.2842C113.775 81.3808 113.711 82.2755 113.484 82.4227C113.19 82.6119 113.198 82.2969 112.889 82.5039C112.862 82.5215 112.938 82.6813 112.725 82.7635C111.774 83.1323 110.693 83.4858 109.701 83.9369C109.564 83.9984 109.852 84.1791 109.657 84.2716C108.776 84.6917 107.754 85.1292 106.816 85.401C106.581 85.4685 106.64 85.2276 106.569 85.1956C106.385 85.1151 106.24 85.184 106.128 85.2942C105.975 85.4465 105.887 85.6766 105.849 85.6995C104.29 86.6543 102.837 86.7829 101.148 87.6747C101.057 87.7246 100.493 88.5242 99.9901 88.2009C99.9524 88.1811 99.4665 87.8421 99.266 88.2568C99.2535 88.2826 99.5472 88.4466 99.1648 88.5471C98.7832 88.6472 98.2124 88.9992 97.5954 88.8824C97.3989 88.846 96.8911 88.4855 96.4463 88.9731C96.4369 89.0068 95.7268 90.028 95.3149 89.4749C95.2489 89.3817 95.2247 88.7597 94.5874 89.1493C94.4602 89.223 94.7156 89.3448 94.3686 89.4598C93.8239 89.6345 93.0803 89.4764 92.291 89.655C92.1659 89.6918 91.4797 90.0207 91.0788 89.5661C91.0188 89.4958 91.2134 89.3332 90.9772 89.2388C90.2551 88.9448 89.4864 88.6129 88.826 88.129C88.0416 87.5225 87.8581 87.0967 87.6618 86.7233C87.4997 86.361 87.8901 86.3481 87.7915 85.9899C87.6943 85.6309 87.4894 85.0291 87.2085 84.8173C86.9286 84.6087 86.5936 85.1534 86.347 84.7614C85.2984 83.0876 84.6887 81.4754 83.5293 80.2234C83.3584 80.042 83.3679 80.3232 83.1064 80.076C82.8522 79.84 82.5311 79.5816 82.1741 79.3313C81.1334 78.5769 80.0726 78.193 79.5614 77.8681C79.2643 77.6805 79.2898 77.5461 79.3605 77.4231C79.4275 77.3046 79.5314 77.2056 79.2414 77.1373C79.1344 77.1145 79.0282 77.198 78.9478 77.3125C78.7559 77.5061 78.5955 77.7776 78.5419 77.797C77.6516 78.1208 76.9359 77.96 76.0965 78.2007C75.9262 78.2504 76.1436 78.4709 75.9975 78.5107C75.4838 78.6519 74.9361 78.6437 74.4379 78.7681C74.221 78.8233 74.3033 79.0063 74.0974 79.0341C73.599 79.1047 73.1504 79.1187 72.6424 79.0449C72.5952 79.0384 72.8346 78.7345 72.4706 78.8074C71.8808 78.9264 71.1178 78.9195 70.4846 79.267C70.3001 79.3702 70.4029 79.8056 69.8954 79.6132C69.7886 79.5735 69.7727 79.0225 69.391 79.5981C69.3228 79.6945 68.6513 80.5135 68.1332 80.2332C67.9953 80.1596 67.6138 79.8054 67.3903 79.937C67.3607 79.9564 67.5533 80.1537 67.3606 80.2298C66.682 80.4937 65.9502 80.6695 65.253 80.946C65.066 81.0206 65.4199 81.1786 65.1411 81.2817C64.3872 81.5619 63.3874 81.7898 62.6104 81.9434C62.3221 82.0001 62.4558 81.7443 62.429 81.7289C61.9951 81.4789 61.938 82.0117 61.8403 82.0717C61.2222 82.4412 60.6311 82.3836 60.0303 82.6385C59.8628 82.7088 60.0563 82.8938 60.0283 82.9247C59.7338 83.2333 59.8716 82.7466 59.6307 82.7747C58.9706 82.8476 58.2666 83.0968 57.6472 83.3339C57.4172 83.4222 57.7655 83.5935 57.5581 83.6699C56.3429 84.1232 55.0442 84.5418 53.8034 84.8211C53.5671 84.8742 53.6397 84.6261 53.5765 84.5976C53.134 84.3986 52.819 84.9968 52.7239 85.0773C52.4177 85.3382 52.1984 85.3601 51.9407 85.4219C51.8371 85.4468 51.7281 85.4779 51.6063 85.5327C49.4689 86.4223 46.869 87.589 43.6229 87.5644C43.1457 87.5444 42.651 87.4787 42.1619 87.3521C41.4904 87.1757 40.7899 86.8826 40.1129 86.2305C39.4389 85.6258 38.8421 84.3084 39.0753 83.1551C39.5603 81.0176 40.2274 79.7916 40.7194 78.1755C40.7692 78.0193 40.452 78.0861 40.4913 77.9506C40.7371 77.1213 40.9941 76.3058 41.0989 75.7134C41.1612 75.443 41.1176 75.1631 41.1653 75.4428C41.1943 75.573 41.3481 75.9878 41.7543 76.3034C42.1559 76.6153 42.5111 76.6524 42.6178 76.6661C42.5438 76.6652 42.4703 76.664 42.3972 76.6628C42.2206 76.6589 42.46 76.9379 42.1752 76.9396C41.59 76.9441 40.911 76.8647 40.4128 76.7358C40.1683 76.6734 40.5197 76.4765 40.2752 76.4186C39.7067 76.2832 39.1196 76.2215 38.5665 76.2455C38.3327 76.2568 38.6725 76.5377 38.3746 76.5322C36.3444 76.5034 34.4031 76.8192 32.2036 76.9951C32.0492 77.0084 31.7935 76.5047 31.5056 76.6889C31.5207 76.8427 31.5677 77.0159 31.599 77.1763C29.5832 77.7694 27.5589 78.4106 25.5128 79.159C24.4897 79.5339 23.4723 79.9307 22.466 80.3653C22.3398 80.4199 22.6745 80.5901 22.4318 80.697C21.0135 81.3237 19.6995 82.0397 18.1575 82.5025C18.0067 82.5481 17.8421 82.0557 17.4629 82.3393C17.3985 82.3879 16.804 82.7773 16.7012 82.9592C16.6872 82.9858 16.9134 83.1361 16.7168 83.2491C15.5773 83.9 14.3654 84.5228 13.1626 85.0697C12.9703 85.1564 13.0312 84.8234 12.8933 84.8832C11.898 85.3199 11.0198 86.0971 10.0179 86.4634C9.34264 86.71 9.33078 86.1954 8.77596 86.0351C8.70605 86.0076 8.3195 86.2403 8.16681 86.0375C7.78366 85.5292 7.59309 84.8297 7.16188 84.3022C7.06216 84.1946 6.71207 84.5901 6.78159 84.1368C6.78994 84.1052 7.05521 83.802 7.08202 83.643C7.09856 83.5348 6.85399 83.3863 6.91738 83.2209C6.97913 83.0566 7.22868 83.1523 7.37193 82.9134C7.50541 82.679 7.26569 82.4856 7.65859 82.1944ZM119.935 78.2801C119.481 78.1936 119.753 79.0507 120.069 78.6973C120.084 78.6793 119.958 78.284 119.935 78.2801ZM157.376 79.17C156.774 78.9569 156.646 79.6178 157.075 79.7929C157.503 79.9685 157.559 79.2346 157.376 79.17ZM162.196 77.4901C161.581 77.2727 161.739 78.5388 162.254 78.1923C162.284 78.1731 162.231 77.5032 162.196 77.4901ZM10.165 85.0044C10.1576 84.9949 9.88269 85.155 9.88467 85.1678C9.89702 85.4972 10.436 85.1836 10.165 85.0044ZM167.269 77.0869C167.09 76.9095 166.552 77.0867 166.772 77.3097C166.95 77.4897 167.495 77.3083 167.269 77.0869ZM101.046 85.2223C101.036 85.2118 100.823 85.2838 100.854 85.3524C100.959 85.573 101.224 85.3936 101.046 85.2223ZM175.799 74.766C174.525 75.25 173.495 74.4387 174.812 74.1116C175.052 74.045 174.425 74.6113 174.756 74.5911C175.379 74.5454 175.467 73.7884 176.149 73.8478C176.281 73.858 175.881 74.7409 175.798 74.7683C175.798 74.7676 175.799 74.7668 175.799 74.766ZM119.333 77.3575C119.317 77.3512 119.035 77.4493 119.031 77.4635C118.982 77.7886 119.559 77.5873 119.333 77.3575ZM89.6362 84.3405C89.6516 84.3182 89.348 83.6647 89.3183 83.6566C88.7332 83.5323 89.3441 84.848 89.6362 84.3405ZM136.06 80.0328C136.4 80.3199 136.5 80.7107 136.192 81.0356C136.153 80.703 136.1 80.3706 136.06 80.0328Z" fill="#D85FA1"/>
</svg>
